%FSLAX24Y24*%
%MOIN*%
G70*
G01*
G75*
G04 Layer_Color=65535*
%ADD10R,0.0250X0.0200*%
%ADD11R,0.0362X0.0984*%
%ADD12R,0.0276X0.0394*%
%ADD13R,0.0689X0.1181*%
%ADD14R,0.0984X0.0866*%
%ADD15R,0.0200X0.0250*%
%ADD16R,0.0276X0.0394*%
%ADD17R,0.0315X0.0315*%
%ADD18R,0.0669X0.0492*%
%ADD19R,0.0300X0.0300*%
%ADD20R,0.0906X0.0906*%
%ADD21R,0.0600X0.0600*%
%ADD22R,0.0472X0.0354*%
%ADD23R,0.0472X0.0354*%
%ADD24R,0.0315X0.0315*%
%ADD25R,0.0236X0.0472*%
%ADD26O,0.0315X0.0098*%
%ADD27O,0.0098X0.0315*%
%ADD28O,0.0276X0.0098*%
%ADD29O,0.0098X0.0276*%
%ADD30R,0.1299X0.1299*%
%ADD31R,0.0750X0.0400*%
%ADD32R,0.1358X0.1358*%
%ADD33O,0.0984X0.0276*%
%ADD34C,0.0120*%
%ADD35C,0.0100*%
%ADD36C,0.0080*%
%ADD37C,0.0150*%
%ADD38C,0.0300*%
%ADD39C,0.0200*%
%ADD40C,0.0276*%
%ADD41C,0.0600*%
%ADD42C,0.0220*%
%ADD43C,0.0350*%
%ADD44C,0.0700*%
%ADD45C,0.1100*%
%ADD46R,0.0591X0.0591*%
%ADD47C,0.0591*%
%ADD48C,0.0320*%
%ADD49C,0.0354*%
%ADD50R,0.0591X0.0591*%
%ADD51R,0.0600X0.0600*%
%ADD52C,0.0710*%
%ADD53C,0.0900*%
%ADD54C,0.0400*%
G04:AMPARAMS|DCode=55|XSize=42mil|YSize=42mil|CornerRadius=0mil|HoleSize=0mil|Usage=FLASHONLY|Rotation=0.000|XOffset=0mil|YOffset=0mil|HoleType=Round|Shape=Relief|Width=5mil|Gap=5mil|Entries=4|*
%AMTHD55*
7,0,0,0.0420,0.0320,0.0050,45*
%
%ADD55THD55*%
%ADD56C,0.0420*%
%ADD57C,0.0500*%
%ADD58C,0.1400*%
%ADD59C,0.0654*%
%ADD60C,0.0497*%
G04:AMPARAMS|DCode=61|XSize=49.685mil|YSize=49.685mil|CornerRadius=0mil|HoleSize=0mil|Usage=FLASHONLY|Rotation=0.000|XOffset=0mil|YOffset=0mil|HoleType=Round|Shape=Relief|Width=5mil|Gap=5mil|Entries=4|*
%AMTHD61*
7,0,0,0.0497,0.0397,0.0050,45*
%
%ADD61THD61*%
G04:AMPARAMS|DCode=62|XSize=65.433mil|YSize=65.433mil|CornerRadius=0mil|HoleSize=0mil|Usage=FLASHONLY|Rotation=0.000|XOffset=0mil|YOffset=0mil|HoleType=Round|Shape=Relief|Width=5mil|Gap=5mil|Entries=4|*
%AMTHD62*
7,0,0,0.0654,0.0554,0.0050,45*
%
%ADD62THD62*%
G04:AMPARAMS|DCode=63|XSize=60mil|YSize=60mil|CornerRadius=0mil|HoleSize=0mil|Usage=FLASHONLY|Rotation=0.000|XOffset=0mil|YOffset=0mil|HoleType=Round|Shape=Relief|Width=5mil|Gap=5mil|Entries=4|*
%AMTHD63*
7,0,0,0.0600,0.0500,0.0050,45*
%
%ADD63THD63*%
%ADD64C,0.0770*%
%ADD65C,0.0480*%
%ADD66C,0.0090*%
G04:AMPARAMS|DCode=67|XSize=50mil|YSize=50mil|CornerRadius=0mil|HoleSize=0mil|Usage=FLASHONLY|Rotation=0.000|XOffset=0mil|YOffset=0mil|HoleType=Round|Shape=Relief|Width=5mil|Gap=5mil|Entries=4|*
%AMTHD67*
7,0,0,0.0500,0.0400,0.0050,45*
%
%ADD67THD67*%
G04:AMPARAMS|DCode=68|XSize=48mil|YSize=48mil|CornerRadius=0mil|HoleSize=0mil|Usage=FLASHONLY|Rotation=0.000|XOffset=0mil|YOffset=0mil|HoleType=Round|Shape=Relief|Width=5mil|Gap=5mil|Entries=4|*
%AMTHD68*
7,0,0,0.0480,0.0380,0.0050,45*
%
%ADD68THD68*%
%ADD69R,0.0709X0.0394*%
%ADD70R,0.0472X0.0551*%
%ADD71R,0.0394X0.0394*%
%ADD72R,0.0866X0.0984*%
%ADD73R,0.0551X0.0472*%
%ADD74O,0.0709X0.0118*%
%ADD75O,0.0118X0.0709*%
%ADD76R,0.0360X0.0360*%
%ADD77R,0.0360X0.0500*%
%ADD78R,0.0315X0.0354*%
%ADD79R,0.0300X0.0300*%
%ADD80R,0.0709X0.0433*%
%ADD81C,0.0040*%
%ADD82C,0.0098*%
%ADD83C,0.0060*%
%ADD84C,0.0050*%
%ADD85C,0.0197*%
%ADD86C,0.0079*%
%ADD87C,0.0157*%
%ADD88C,0.0030*%
%ADD89C,0.0059*%
G36*
X18778Y6097D02*
X18780D01*
X18782Y6097D01*
X18787Y6096D01*
X18793Y6094D01*
X18799Y6092D01*
X18806Y6088D01*
X18809Y6086D01*
X18812Y6084D01*
X18813Y6083D01*
X18813Y6083D01*
X18814Y6082D01*
X18815Y6081D01*
X18816Y6080D01*
X18818Y6078D01*
X18819Y6076D01*
X18821Y6073D01*
X18823Y6070D01*
X18825Y6068D01*
X18827Y6064D01*
X18829Y6061D01*
X18830Y6056D01*
X18832Y6052D01*
X18834Y6048D01*
X18835Y6043D01*
X18815Y6037D01*
Y6037D01*
X18814Y6039D01*
X18814Y6040D01*
X18813Y6043D01*
X18811Y6046D01*
X18810Y6049D01*
X18808Y6053D01*
X18806Y6057D01*
X18803Y6060D01*
X18800Y6064D01*
X18797Y6067D01*
X18793Y6070D01*
X18789Y6073D01*
X18784Y6075D01*
X18779Y6076D01*
X18773Y6076D01*
X18771D01*
X18768Y6076D01*
X18764Y6075D01*
X18760Y6074D01*
X18756Y6073D01*
X18751Y6071D01*
X18747Y6068D01*
X18746Y6068D01*
X18745Y6067D01*
X18743Y6065D01*
X18740Y6062D01*
X18737Y6059D01*
X18734Y6054D01*
X18731Y6049D01*
X18729Y6043D01*
Y6043D01*
X18728Y6042D01*
X18728Y6042D01*
X18727Y6040D01*
X18727Y6039D01*
X18726Y6037D01*
X18726Y6034D01*
X18725Y6032D01*
X18724Y6029D01*
X18724Y6026D01*
X18723Y6019D01*
X18722Y6010D01*
X18722Y6001D01*
Y6001D01*
Y5999D01*
Y5997D01*
X18722Y5995D01*
Y5991D01*
X18722Y5988D01*
X18723Y5983D01*
X18724Y5979D01*
X18725Y5970D01*
X18727Y5960D01*
X18731Y5951D01*
X18733Y5947D01*
X18735Y5943D01*
X18736Y5943D01*
X18736Y5942D01*
X18737Y5941D01*
X18738Y5940D01*
X18739Y5939D01*
X18741Y5937D01*
X18745Y5933D01*
X18750Y5930D01*
X18757Y5927D01*
X18760Y5925D01*
X18764Y5924D01*
X18768Y5924D01*
X18772Y5924D01*
X18773D01*
X18775Y5924D01*
X18778Y5924D01*
X18782Y5925D01*
X18786Y5927D01*
X18791Y5929D01*
X18796Y5932D01*
X18800Y5935D01*
X18801Y5936D01*
X18802Y5938D01*
X18804Y5940D01*
X18807Y5944D01*
X18810Y5950D01*
X18813Y5956D01*
X18814Y5959D01*
X18815Y5963D01*
X18816Y5967D01*
X18817Y5972D01*
X18838Y5965D01*
Y5965D01*
X18837Y5964D01*
X18837Y5962D01*
X18836Y5960D01*
X18836Y5957D01*
X18835Y5955D01*
X18833Y5951D01*
X18832Y5948D01*
X18829Y5940D01*
X18825Y5932D01*
X18820Y5924D01*
X18817Y5921D01*
X18814Y5918D01*
X18813Y5917D01*
X18813Y5917D01*
X18812Y5916D01*
X18811Y5915D01*
X18809Y5914D01*
X18807Y5913D01*
X18804Y5911D01*
X18802Y5910D01*
X18796Y5907D01*
X18789Y5905D01*
X18781Y5903D01*
X18776Y5903D01*
X18772Y5902D01*
X18770D01*
X18769Y5903D01*
X18766D01*
X18764Y5903D01*
X18759Y5903D01*
X18754Y5905D01*
X18748Y5907D01*
X18741Y5909D01*
X18735Y5913D01*
X18735D01*
X18735Y5913D01*
X18734Y5914D01*
X18733Y5915D01*
X18730Y5917D01*
X18726Y5921D01*
X18722Y5925D01*
X18718Y5931D01*
X18714Y5938D01*
X18712Y5942D01*
X18710Y5946D01*
Y5946D01*
X18710Y5947D01*
X18710Y5948D01*
X18709Y5950D01*
X18708Y5953D01*
X18707Y5955D01*
X18707Y5958D01*
X18706Y5962D01*
X18705Y5966D01*
X18704Y5970D01*
X18703Y5974D01*
X18702Y5979D01*
X18701Y5990D01*
X18701Y6001D01*
Y6001D01*
Y6002D01*
Y6004D01*
X18701Y6006D01*
Y6009D01*
X18701Y6012D01*
X18702Y6016D01*
X18702Y6019D01*
X18703Y6028D01*
X18705Y6037D01*
X18707Y6045D01*
X18710Y6054D01*
Y6054D01*
X18711Y6055D01*
X18711Y6056D01*
X18712Y6057D01*
X18713Y6059D01*
X18714Y6061D01*
X18717Y6066D01*
X18721Y6071D01*
X18726Y6077D01*
X18731Y6082D01*
X18737Y6087D01*
X18737D01*
X18738Y6087D01*
X18738Y6088D01*
X18740Y6088D01*
X18741Y6089D01*
X18743Y6090D01*
X18748Y6092D01*
X18753Y6094D01*
X18759Y6096D01*
X18766Y6097D01*
X18774Y6098D01*
X18776D01*
X18778Y6097D01*
D02*
G37*
G36*
X19153Y6095D02*
X19157Y6095D01*
X19161Y6094D01*
X19165Y6092D01*
X19170Y6090D01*
X19175Y6087D01*
X19180Y6083D01*
X19181Y6082D01*
X19182Y6081D01*
X19184Y6078D01*
X19186Y6074D01*
X19189Y6069D01*
X19191Y6063D01*
X19193Y6056D01*
X19195Y6048D01*
X19176Y6047D01*
Y6047D01*
Y6047D01*
X19175Y6049D01*
X19174Y6052D01*
X19174Y6054D01*
X19172Y6058D01*
X19171Y6061D01*
X19169Y6065D01*
X19167Y6067D01*
X19167Y6068D01*
X19166Y6069D01*
X19164Y6070D01*
X19162Y6072D01*
X19160Y6073D01*
X19157Y6075D01*
X19153Y6076D01*
X19149Y6076D01*
X19148D01*
X19147Y6076D01*
X19143Y6075D01*
X19140Y6074D01*
X19138Y6073D01*
X19136Y6071D01*
X19133Y6070D01*
X19131Y6068D01*
X19129Y6065D01*
X19127Y6062D01*
X19124Y6059D01*
X19122Y6056D01*
Y6055D01*
X19122Y6055D01*
X19122Y6054D01*
X19121Y6052D01*
X19120Y6050D01*
X19120Y6048D01*
X19119Y6045D01*
X19118Y6042D01*
X19117Y6039D01*
X19117Y6035D01*
X19116Y6031D01*
X19115Y6026D01*
X19115Y6021D01*
X19114Y6015D01*
X19114Y6009D01*
X19114Y6003D01*
X19114Y6004D01*
X19115Y6005D01*
X19116Y6007D01*
X19118Y6010D01*
X19121Y6013D01*
X19124Y6016D01*
X19127Y6019D01*
X19130Y6022D01*
X19131Y6022D01*
X19132Y6023D01*
X19134Y6024D01*
X19137Y6025D01*
X19140Y6026D01*
X19143Y6027D01*
X19147Y6028D01*
X19151Y6028D01*
X19153D01*
X19155Y6028D01*
X19156Y6028D01*
X19158Y6027D01*
X19162Y6026D01*
X19167Y6024D01*
X19170Y6023D01*
X19173Y6021D01*
X19175Y6019D01*
X19178Y6017D01*
X19181Y6014D01*
X19183Y6011D01*
X19184Y6011D01*
X19184Y6010D01*
X19185Y6009D01*
X19186Y6008D01*
X19187Y6007D01*
X19188Y6004D01*
X19189Y6002D01*
X19190Y6000D01*
X19192Y5996D01*
X19193Y5993D01*
X19194Y5989D01*
X19195Y5985D01*
X19196Y5981D01*
X19197Y5976D01*
X19197Y5972D01*
X19197Y5967D01*
Y5966D01*
Y5966D01*
Y5965D01*
Y5963D01*
X19197Y5962D01*
Y5960D01*
X19197Y5955D01*
X19196Y5950D01*
X19195Y5944D01*
X19193Y5938D01*
X19190Y5932D01*
Y5932D01*
X19190Y5932D01*
X19189Y5930D01*
X19188Y5927D01*
X19186Y5924D01*
X19183Y5920D01*
X19180Y5916D01*
X19176Y5913D01*
X19173Y5910D01*
X19172Y5909D01*
X19171Y5908D01*
X19169Y5907D01*
X19166Y5906D01*
X19162Y5905D01*
X19158Y5903D01*
X19153Y5903D01*
X19149Y5902D01*
X19148D01*
X19146Y5903D01*
X19145D01*
X19143Y5903D01*
X19141Y5903D01*
X19135Y5905D01*
X19132Y5906D01*
X19129Y5908D01*
X19126Y5909D01*
X19123Y5911D01*
X19120Y5914D01*
X19116Y5916D01*
X19113Y5920D01*
X19110Y5923D01*
X19110Y5924D01*
X19110Y5924D01*
X19109Y5926D01*
X19108Y5927D01*
X19107Y5930D01*
X19105Y5933D01*
X19104Y5936D01*
X19103Y5940D01*
X19101Y5945D01*
X19100Y5950D01*
X19098Y5955D01*
X19097Y5962D01*
X19096Y5969D01*
X19096Y5976D01*
X19095Y5985D01*
X19095Y5994D01*
Y5994D01*
Y5994D01*
Y5996D01*
Y5999D01*
X19095Y6003D01*
X19096Y6007D01*
X19096Y6012D01*
X19096Y6018D01*
X19097Y6024D01*
X19099Y6037D01*
X19101Y6050D01*
X19103Y6056D01*
X19105Y6062D01*
X19108Y6067D01*
X19110Y6072D01*
X19111Y6072D01*
X19111Y6073D01*
X19112Y6074D01*
X19113Y6076D01*
X19115Y6077D01*
X19117Y6079D01*
X19119Y6082D01*
X19121Y6084D01*
X19127Y6088D01*
X19134Y6092D01*
X19138Y6093D01*
X19142Y6094D01*
X19146Y6095D01*
X19150Y6095D01*
X19152D01*
X19153Y6095D01*
D02*
G37*
G36*
X18927Y5906D02*
X18908D01*
Y6054D01*
X18908Y6053D01*
X18907Y6052D01*
X18905Y6051D01*
X18903Y6049D01*
X18901Y6046D01*
X18898Y6043D01*
X18894Y6040D01*
X18890Y6037D01*
X18890Y6037D01*
X18889Y6036D01*
X18886Y6035D01*
X18884Y6033D01*
X18880Y6031D01*
X18877Y6029D01*
X18874Y6027D01*
X18870Y6026D01*
Y6048D01*
X18870D01*
X18871Y6048D01*
X18872Y6049D01*
X18873Y6049D01*
X18876Y6051D01*
X18879Y6054D01*
X18884Y6057D01*
X18888Y6061D01*
X18893Y6065D01*
X18898Y6070D01*
X18898Y6070D01*
X18898Y6070D01*
X18900Y6072D01*
X18902Y6075D01*
X18904Y6078D01*
X18907Y6082D01*
X18910Y6086D01*
X18912Y6091D01*
X18915Y6095D01*
X18927D01*
Y5906D01*
D02*
G37*
G36*
X19047D02*
X19028D01*
Y6054D01*
X19028Y6053D01*
X19027Y6052D01*
X19026Y6051D01*
X19024Y6049D01*
X19021Y6046D01*
X19018Y6043D01*
X19015Y6040D01*
X19011Y6037D01*
X19010Y6037D01*
X19009Y6036D01*
X19007Y6035D01*
X19004Y6033D01*
X19001Y6031D01*
X18997Y6029D01*
X18994Y6027D01*
X18990Y6026D01*
Y6048D01*
X18991D01*
X18991Y6048D01*
X18992Y6049D01*
X18993Y6049D01*
X18996Y6051D01*
X19000Y6054D01*
X19004Y6057D01*
X19009Y6061D01*
X19013Y6065D01*
X19018Y6070D01*
X19018Y6070D01*
X19018Y6070D01*
X19020Y6072D01*
X19022Y6075D01*
X19025Y6078D01*
X19028Y6082D01*
X19030Y6086D01*
X19033Y6091D01*
X19035Y6095D01*
X19047D01*
Y5906D01*
D02*
G37*
G36*
X21488Y4774D02*
X21488Y4773D01*
X21487Y4772D01*
X21486Y4771D01*
X21484Y4769D01*
X21482Y4766D01*
X21480Y4762D01*
X21477Y4758D01*
X21475Y4753D01*
X21471Y4748D01*
X21468Y4743D01*
X21465Y4736D01*
X21461Y4729D01*
X21458Y4722D01*
X21455Y4714D01*
X21451Y4706D01*
X21448Y4698D01*
X21448Y4697D01*
X21447Y4696D01*
X21446Y4693D01*
X21445Y4690D01*
X21444Y4686D01*
X21442Y4681D01*
X21441Y4675D01*
X21439Y4669D01*
X21437Y4662D01*
X21436Y4655D01*
X21434Y4647D01*
X21433Y4639D01*
X21430Y4622D01*
X21429Y4614D01*
X21429Y4605D01*
X21409D01*
Y4606D01*
Y4606D01*
Y4608D01*
X21410Y4609D01*
Y4612D01*
X21410Y4614D01*
Y4618D01*
X21411Y4621D01*
X21411Y4625D01*
X21411Y4629D01*
X21412Y4634D01*
X21413Y4639D01*
X21414Y4649D01*
X21417Y4660D01*
Y4661D01*
X21417Y4662D01*
X21418Y4664D01*
X21418Y4666D01*
X21419Y4669D01*
X21420Y4672D01*
X21421Y4676D01*
X21422Y4680D01*
X21423Y4684D01*
X21425Y4689D01*
X21428Y4699D01*
X21432Y4710D01*
X21436Y4721D01*
X21437Y4721D01*
X21437Y4722D01*
X21437Y4724D01*
X21439Y4726D01*
X21440Y4728D01*
X21441Y4731D01*
X21443Y4734D01*
X21444Y4738D01*
X21449Y4745D01*
X21453Y4754D01*
X21458Y4762D01*
X21463Y4770D01*
X21388D01*
Y4792D01*
X21488D01*
Y4774D01*
D02*
G37*
G36*
X21068Y4797D02*
X21070D01*
X21072Y4797D01*
X21077Y4796D01*
X21084Y4794D01*
X21090Y4792D01*
X21097Y4788D01*
X21100Y4786D01*
X21103Y4783D01*
X21103Y4783D01*
X21103Y4783D01*
X21104Y4782D01*
X21105Y4781D01*
X21107Y4779D01*
X21108Y4778D01*
X21110Y4776D01*
X21112Y4773D01*
X21114Y4770D01*
X21115Y4767D01*
X21117Y4764D01*
X21119Y4760D01*
X21121Y4756D01*
X21123Y4752D01*
X21124Y4747D01*
X21126Y4743D01*
X21105Y4737D01*
Y4737D01*
X21105Y4738D01*
X21104Y4740D01*
X21103Y4743D01*
X21102Y4746D01*
X21100Y4749D01*
X21099Y4753D01*
X21096Y4757D01*
X21094Y4760D01*
X21091Y4764D01*
X21087Y4767D01*
X21084Y4770D01*
X21079Y4773D01*
X21075Y4774D01*
X21070Y4776D01*
X21064Y4776D01*
X21061D01*
X21058Y4776D01*
X21055Y4775D01*
X21051Y4774D01*
X21046Y4773D01*
X21041Y4771D01*
X21037Y4768D01*
X21037Y4768D01*
X21035Y4766D01*
X21033Y4764D01*
X21031Y4762D01*
X21028Y4758D01*
X21025Y4754D01*
X21022Y4749D01*
X21019Y4743D01*
Y4743D01*
X21019Y4742D01*
X21018Y4741D01*
X21018Y4740D01*
X21018Y4738D01*
X21017Y4736D01*
X21016Y4734D01*
X21016Y4732D01*
X21015Y4729D01*
X21014Y4726D01*
X21013Y4718D01*
X21013Y4710D01*
X21012Y4701D01*
Y4700D01*
Y4699D01*
Y4697D01*
X21013Y4694D01*
Y4691D01*
X21013Y4687D01*
X21013Y4683D01*
X21014Y4679D01*
X21016Y4670D01*
X21018Y4660D01*
X21021Y4651D01*
X21023Y4646D01*
X21026Y4643D01*
X21026Y4642D01*
X21026Y4642D01*
X21027Y4641D01*
X21028Y4640D01*
X21030Y4638D01*
X21031Y4637D01*
X21035Y4633D01*
X21041Y4630D01*
X21047Y4626D01*
X21051Y4625D01*
X21054Y4624D01*
X21058Y4624D01*
X21062Y4623D01*
X21064D01*
X21065Y4624D01*
X21068Y4624D01*
X21072Y4625D01*
X21077Y4626D01*
X21081Y4628D01*
X21086Y4631D01*
X21091Y4635D01*
X21091Y4636D01*
X21093Y4637D01*
X21095Y4640D01*
X21098Y4644D01*
X21100Y4649D01*
X21103Y4656D01*
X21104Y4659D01*
X21105Y4663D01*
X21107Y4667D01*
X21107Y4672D01*
X21128Y4665D01*
Y4665D01*
X21128Y4664D01*
X21127Y4662D01*
X21127Y4660D01*
X21126Y4657D01*
X21125Y4654D01*
X21124Y4651D01*
X21123Y4647D01*
X21119Y4639D01*
X21115Y4632D01*
X21110Y4624D01*
X21107Y4621D01*
X21104Y4618D01*
X21104Y4617D01*
X21103Y4617D01*
X21102Y4616D01*
X21101Y4615D01*
X21099Y4614D01*
X21097Y4613D01*
X21095Y4611D01*
X21093Y4610D01*
X21086Y4607D01*
X21079Y4604D01*
X21071Y4603D01*
X21067Y4602D01*
X21063Y4602D01*
X21060D01*
X21059Y4602D01*
X21057D01*
X21055Y4603D01*
X21050Y4603D01*
X21044Y4605D01*
X21038Y4606D01*
X21032Y4609D01*
X21026Y4612D01*
X21025D01*
X21025Y4613D01*
X21024Y4613D01*
X21023Y4614D01*
X21020Y4617D01*
X21017Y4620D01*
X21013Y4625D01*
X21009Y4631D01*
X21005Y4638D01*
X21003Y4642D01*
X21001Y4646D01*
Y4646D01*
X21001Y4647D01*
X21000Y4648D01*
X20999Y4650D01*
X20999Y4652D01*
X20998Y4655D01*
X20997Y4658D01*
X20996Y4662D01*
X20995Y4665D01*
X20994Y4670D01*
X20994Y4674D01*
X20993Y4679D01*
X20992Y4689D01*
X20991Y4701D01*
Y4701D01*
Y4702D01*
Y4704D01*
X20992Y4706D01*
Y4709D01*
X20992Y4712D01*
X20992Y4715D01*
X20992Y4719D01*
X20994Y4727D01*
X20995Y4736D01*
X20998Y4745D01*
X21001Y4754D01*
Y4754D01*
X21001Y4754D01*
X21002Y4756D01*
X21003Y4757D01*
X21004Y4759D01*
X21005Y4761D01*
X21008Y4766D01*
X21012Y4771D01*
X21016Y4777D01*
X21021Y4782D01*
X21027Y4786D01*
X21027D01*
X21028Y4787D01*
X21029Y4787D01*
X21030Y4788D01*
X21032Y4789D01*
X21034Y4790D01*
X21038Y4792D01*
X21044Y4794D01*
X21050Y4796D01*
X21057Y4797D01*
X21064Y4797D01*
X21066D01*
X21068Y4797D01*
D02*
G37*
G36*
X21218Y4605D02*
X21199D01*
Y4753D01*
X21198Y4753D01*
X21197Y4752D01*
X21196Y4750D01*
X21194Y4748D01*
X21191Y4746D01*
X21188Y4743D01*
X21185Y4740D01*
X21181Y4737D01*
X21180Y4737D01*
X21179Y4736D01*
X21177Y4735D01*
X21174Y4733D01*
X21171Y4731D01*
X21168Y4729D01*
X21164Y4727D01*
X21161Y4725D01*
Y4747D01*
X21161D01*
X21161Y4748D01*
X21162Y4748D01*
X21163Y4749D01*
X21166Y4751D01*
X21170Y4754D01*
X21174Y4757D01*
X21179Y4761D01*
X21183Y4765D01*
X21188Y4769D01*
X21188Y4770D01*
X21189Y4770D01*
X21190Y4772D01*
X21192Y4774D01*
X21195Y4778D01*
X21198Y4781D01*
X21200Y4786D01*
X21203Y4790D01*
X21205Y4795D01*
X21218D01*
Y4605D01*
D02*
G37*
G36*
X21338D02*
X21319D01*
Y4753D01*
X21319Y4753D01*
X21318Y4752D01*
X21316Y4750D01*
X21314Y4748D01*
X21312Y4746D01*
X21309Y4743D01*
X21305Y4740D01*
X21301Y4737D01*
X21300Y4737D01*
X21299Y4736D01*
X21297Y4735D01*
X21294Y4733D01*
X21291Y4731D01*
X21288Y4729D01*
X21284Y4727D01*
X21281Y4725D01*
Y4747D01*
X21281D01*
X21282Y4748D01*
X21282Y4748D01*
X21284Y4749D01*
X21286Y4751D01*
X21290Y4754D01*
X21294Y4757D01*
X21299Y4761D01*
X21304Y4765D01*
X21308Y4769D01*
X21309Y4770D01*
X21309Y4770D01*
X21310Y4772D01*
X21312Y4774D01*
X21315Y4778D01*
X21318Y4781D01*
X21321Y4786D01*
X21323Y4790D01*
X21325Y4795D01*
X21338D01*
Y4605D01*
D02*
G37*
G36*
X19112Y7394D02*
X19114Y7394D01*
X19117Y7394D01*
X19122Y7392D01*
X19128Y7391D01*
X19134Y7388D01*
X19137Y7386D01*
X19139Y7384D01*
X19142Y7381D01*
X19144Y7378D01*
X19145Y7378D01*
X19145Y7378D01*
X19146Y7377D01*
X19146Y7376D01*
X19147Y7374D01*
X19148Y7372D01*
X19151Y7368D01*
X19153Y7362D01*
X19155Y7356D01*
X19156Y7350D01*
X19157Y7342D01*
Y7342D01*
Y7341D01*
Y7340D01*
Y7339D01*
X19156Y7337D01*
X19156Y7335D01*
X19155Y7331D01*
X19154Y7326D01*
X19153Y7320D01*
X19150Y7314D01*
X19147Y7307D01*
Y7307D01*
X19146Y7306D01*
X19146Y7305D01*
X19145Y7304D01*
X19144Y7303D01*
X19143Y7301D01*
X19141Y7298D01*
X19139Y7296D01*
X19137Y7293D01*
X19134Y7289D01*
X19131Y7286D01*
X19128Y7282D01*
X19124Y7277D01*
X19120Y7273D01*
X19115Y7268D01*
X19111Y7263D01*
X19111Y7263D01*
X19110Y7262D01*
X19109Y7261D01*
X19108Y7260D01*
X19105Y7257D01*
X19101Y7254D01*
X19098Y7250D01*
X19094Y7246D01*
X19091Y7242D01*
X19089Y7239D01*
X19088Y7239D01*
X19088Y7238D01*
X19087Y7237D01*
X19086Y7235D01*
X19083Y7232D01*
X19081Y7227D01*
X19157D01*
Y7205D01*
X19054D01*
Y7205D01*
Y7205D01*
Y7207D01*
X19055Y7210D01*
X19055Y7213D01*
X19056Y7218D01*
X19058Y7223D01*
X19060Y7229D01*
X19062Y7235D01*
Y7235D01*
X19063Y7236D01*
X19063Y7237D01*
X19064Y7238D01*
X19065Y7239D01*
X19066Y7241D01*
X19068Y7244D01*
X19070Y7246D01*
X19074Y7252D01*
X19076Y7255D01*
X19079Y7259D01*
X19082Y7263D01*
X19086Y7266D01*
X19090Y7270D01*
X19094Y7275D01*
X19094Y7275D01*
X19095Y7276D01*
X19096Y7277D01*
X19098Y7279D01*
X19100Y7281D01*
X19103Y7284D01*
X19108Y7290D01*
X19114Y7296D01*
X19120Y7303D01*
X19123Y7306D01*
X19125Y7310D01*
X19127Y7313D01*
X19129Y7316D01*
Y7316D01*
X19129Y7316D01*
X19130Y7317D01*
X19130Y7318D01*
X19132Y7321D01*
X19133Y7324D01*
X19135Y7329D01*
X19136Y7333D01*
X19137Y7338D01*
X19137Y7343D01*
Y7343D01*
Y7343D01*
Y7345D01*
X19137Y7348D01*
X19136Y7351D01*
X19135Y7355D01*
X19134Y7359D01*
X19132Y7363D01*
X19129Y7366D01*
X19128Y7366D01*
X19127Y7368D01*
X19125Y7369D01*
X19123Y7371D01*
X19120Y7373D01*
X19116Y7374D01*
X19112Y7375D01*
X19108Y7376D01*
X19106D01*
X19103Y7375D01*
X19100Y7374D01*
X19097Y7373D01*
X19093Y7371D01*
X19089Y7369D01*
X19086Y7366D01*
X19086Y7365D01*
X19085Y7364D01*
X19083Y7362D01*
X19082Y7358D01*
X19080Y7355D01*
X19079Y7350D01*
X19078Y7344D01*
X19078Y7338D01*
X19058Y7340D01*
Y7340D01*
Y7341D01*
X19058Y7343D01*
X19059Y7344D01*
X19059Y7347D01*
X19059Y7349D01*
X19061Y7355D01*
X19063Y7362D01*
X19065Y7369D01*
X19069Y7375D01*
X19071Y7378D01*
X19073Y7381D01*
X19073Y7381D01*
X19074Y7381D01*
X19075Y7382D01*
X19075Y7383D01*
X19079Y7385D01*
X19082Y7388D01*
X19088Y7390D01*
X19094Y7392D01*
X19101Y7394D01*
X19104Y7395D01*
X19111D01*
X19112Y7394D01*
D02*
G37*
G36*
X18738Y7397D02*
X18740D01*
X18742Y7396D01*
X18748Y7395D01*
X18754Y7393D01*
X18760Y7391D01*
X18767Y7388D01*
X18770Y7385D01*
X18773Y7383D01*
X18773Y7383D01*
X18774Y7382D01*
X18774Y7381D01*
X18776Y7380D01*
X18777Y7379D01*
X18779Y7377D01*
X18780Y7375D01*
X18782Y7373D01*
X18784Y7370D01*
X18786Y7367D01*
X18788Y7363D01*
X18789Y7360D01*
X18791Y7356D01*
X18793Y7351D01*
X18794Y7347D01*
X18796Y7342D01*
X18776Y7336D01*
Y7337D01*
X18775Y7338D01*
X18774Y7340D01*
X18774Y7342D01*
X18772Y7345D01*
X18771Y7349D01*
X18769Y7352D01*
X18767Y7356D01*
X18764Y7359D01*
X18761Y7363D01*
X18757Y7366D01*
X18754Y7369D01*
X18749Y7372D01*
X18745Y7374D01*
X18740Y7375D01*
X18734Y7376D01*
X18731D01*
X18729Y7375D01*
X18725Y7375D01*
X18721Y7373D01*
X18716Y7372D01*
X18712Y7370D01*
X18707Y7367D01*
X18707Y7367D01*
X18706Y7366D01*
X18703Y7364D01*
X18701Y7361D01*
X18698Y7358D01*
X18695Y7354D01*
X18692Y7348D01*
X18689Y7343D01*
Y7342D01*
X18689Y7342D01*
X18689Y7341D01*
X18688Y7340D01*
X18688Y7338D01*
X18687Y7336D01*
X18687Y7333D01*
X18686Y7331D01*
X18685Y7328D01*
X18684Y7325D01*
X18684Y7318D01*
X18683Y7310D01*
X18682Y7300D01*
Y7300D01*
Y7298D01*
Y7296D01*
X18683Y7294D01*
Y7291D01*
X18683Y7287D01*
X18684Y7283D01*
X18684Y7278D01*
X18686Y7269D01*
X18688Y7259D01*
X18691Y7250D01*
X18694Y7246D01*
X18696Y7242D01*
X18696Y7242D01*
X18696Y7241D01*
X18697Y7240D01*
X18699Y7239D01*
X18700Y7238D01*
X18701Y7236D01*
X18706Y7232D01*
X18711Y7229D01*
X18717Y7226D01*
X18721Y7225D01*
X18724Y7224D01*
X18728Y7223D01*
X18732Y7223D01*
X18734D01*
X18735Y7223D01*
X18738Y7223D01*
X18742Y7224D01*
X18747Y7226D01*
X18751Y7228D01*
X18756Y7231D01*
X18761Y7235D01*
X18762Y7235D01*
X18763Y7237D01*
X18765Y7239D01*
X18768Y7244D01*
X18770Y7249D01*
X18773Y7255D01*
X18774Y7258D01*
X18776Y7263D01*
X18777Y7267D01*
X18778Y7271D01*
X18798Y7265D01*
Y7264D01*
X18798Y7263D01*
X18797Y7262D01*
X18797Y7259D01*
X18796Y7257D01*
X18795Y7254D01*
X18794Y7250D01*
X18793Y7247D01*
X18789Y7239D01*
X18785Y7231D01*
X18780Y7224D01*
X18777Y7220D01*
X18774Y7217D01*
X18774Y7217D01*
X18773Y7216D01*
X18772Y7216D01*
X18771Y7215D01*
X18769Y7213D01*
X18767Y7212D01*
X18765Y7211D01*
X18763Y7209D01*
X18757Y7206D01*
X18750Y7204D01*
X18741Y7202D01*
X18737Y7202D01*
X18733Y7202D01*
X18731D01*
X18729Y7202D01*
X18727D01*
X18725Y7202D01*
X18720Y7203D01*
X18714Y7204D01*
X18708Y7206D01*
X18702Y7208D01*
X18696Y7212D01*
X18696D01*
X18695Y7212D01*
X18694Y7213D01*
X18693Y7214D01*
X18691Y7216D01*
X18687Y7220D01*
X18683Y7225D01*
X18679Y7230D01*
X18675Y7237D01*
X18673Y7241D01*
X18671Y7245D01*
Y7246D01*
X18671Y7246D01*
X18670Y7248D01*
X18670Y7249D01*
X18669Y7252D01*
X18668Y7254D01*
X18667Y7258D01*
X18666Y7261D01*
X18665Y7265D01*
X18664Y7269D01*
X18664Y7274D01*
X18663Y7278D01*
X18662Y7289D01*
X18661Y7300D01*
Y7301D01*
Y7302D01*
Y7303D01*
X18662Y7305D01*
Y7308D01*
X18662Y7311D01*
X18662Y7315D01*
X18663Y7319D01*
X18664Y7327D01*
X18666Y7336D01*
X18668Y7345D01*
X18671Y7353D01*
Y7353D01*
X18672Y7354D01*
X18672Y7355D01*
X18673Y7357D01*
X18674Y7358D01*
X18675Y7360D01*
X18678Y7365D01*
X18682Y7371D01*
X18686Y7376D01*
X18691Y7381D01*
X18697Y7386D01*
X18698D01*
X18698Y7386D01*
X18699Y7387D01*
X18700Y7388D01*
X18702Y7388D01*
X18704Y7389D01*
X18708Y7391D01*
X18714Y7393D01*
X18720Y7395D01*
X18727Y7396D01*
X18734Y7397D01*
X18736D01*
X18738Y7397D01*
D02*
G37*
G36*
X18888Y7205D02*
X18869D01*
Y7353D01*
X18868Y7352D01*
X18868Y7351D01*
X18866Y7350D01*
X18864Y7348D01*
X18861Y7345D01*
X18859Y7343D01*
X18855Y7340D01*
X18851Y7337D01*
X18850Y7336D01*
X18849Y7336D01*
X18847Y7334D01*
X18844Y7332D01*
X18841Y7330D01*
X18838Y7328D01*
X18834Y7326D01*
X18831Y7325D01*
Y7347D01*
X18831D01*
X18831Y7347D01*
X18832Y7348D01*
X18833Y7349D01*
X18836Y7350D01*
X18840Y7353D01*
X18844Y7356D01*
X18849Y7360D01*
X18854Y7364D01*
X18858Y7369D01*
X18859Y7369D01*
X18859Y7369D01*
X18860Y7371D01*
X18862Y7374D01*
X18865Y7377D01*
X18868Y7381D01*
X18870Y7385D01*
X18873Y7390D01*
X18875Y7395D01*
X18888D01*
Y7205D01*
D02*
G37*
G36*
X18992Y7394D02*
X18994Y7394D01*
X18996Y7394D01*
X19002Y7392D01*
X19007Y7391D01*
X19013Y7388D01*
X19016Y7386D01*
X19019Y7384D01*
X19022Y7381D01*
X19024Y7378D01*
X19024Y7378D01*
X19025Y7378D01*
X19025Y7377D01*
X19026Y7376D01*
X19027Y7374D01*
X19028Y7372D01*
X19030Y7368D01*
X19033Y7362D01*
X19034Y7356D01*
X19036Y7350D01*
X19036Y7342D01*
Y7342D01*
Y7341D01*
Y7340D01*
Y7339D01*
X19036Y7337D01*
X19036Y7335D01*
X19035Y7331D01*
X19034Y7326D01*
X19032Y7320D01*
X19030Y7314D01*
X19027Y7307D01*
Y7307D01*
X19026Y7306D01*
X19026Y7305D01*
X19025Y7304D01*
X19024Y7303D01*
X19022Y7301D01*
X19021Y7298D01*
X19019Y7296D01*
X19016Y7293D01*
X19014Y7289D01*
X19011Y7286D01*
X19007Y7282D01*
X19004Y7277D01*
X19000Y7273D01*
X18995Y7268D01*
X18990Y7263D01*
X18990Y7263D01*
X18990Y7262D01*
X18989Y7261D01*
X18988Y7260D01*
X18985Y7257D01*
X18981Y7254D01*
X18978Y7250D01*
X18974Y7246D01*
X18971Y7242D01*
X18968Y7239D01*
X18968Y7239D01*
X18967Y7238D01*
X18967Y7237D01*
X18965Y7235D01*
X18963Y7232D01*
X18960Y7227D01*
X19037D01*
Y7205D01*
X18934D01*
Y7205D01*
Y7205D01*
Y7207D01*
X18934Y7210D01*
X18935Y7213D01*
X18936Y7218D01*
X18937Y7223D01*
X18939Y7229D01*
X18942Y7235D01*
Y7235D01*
X18942Y7236D01*
X18943Y7237D01*
X18944Y7238D01*
X18945Y7239D01*
X18946Y7241D01*
X18948Y7244D01*
X18949Y7246D01*
X18954Y7252D01*
X18956Y7255D01*
X18959Y7259D01*
X18962Y7263D01*
X18966Y7266D01*
X18969Y7270D01*
X18974Y7275D01*
X18974Y7275D01*
X18975Y7276D01*
X18976Y7277D01*
X18978Y7279D01*
X18980Y7281D01*
X18983Y7284D01*
X18988Y7290D01*
X18994Y7296D01*
X19000Y7303D01*
X19002Y7306D01*
X19005Y7310D01*
X19007Y7313D01*
X19009Y7316D01*
Y7316D01*
X19009Y7316D01*
X19009Y7317D01*
X19010Y7318D01*
X19011Y7321D01*
X19013Y7324D01*
X19014Y7329D01*
X19016Y7333D01*
X19017Y7338D01*
X19017Y7343D01*
Y7343D01*
Y7343D01*
Y7345D01*
X19016Y7348D01*
X19016Y7351D01*
X19015Y7355D01*
X19013Y7359D01*
X19011Y7363D01*
X19008Y7366D01*
X19008Y7366D01*
X19007Y7368D01*
X19005Y7369D01*
X19002Y7371D01*
X19000Y7373D01*
X18996Y7374D01*
X18992Y7375D01*
X18988Y7376D01*
X18985D01*
X18983Y7375D01*
X18980Y7374D01*
X18976Y7373D01*
X18973Y7371D01*
X18969Y7369D01*
X18966Y7366D01*
X18965Y7365D01*
X18965Y7364D01*
X18963Y7362D01*
X18962Y7358D01*
X18960Y7355D01*
X18959Y7350D01*
X18958Y7344D01*
X18957Y7338D01*
X18938Y7340D01*
Y7340D01*
Y7341D01*
X18938Y7343D01*
X18938Y7344D01*
X18939Y7347D01*
X18939Y7349D01*
X18940Y7355D01*
X18942Y7362D01*
X18945Y7369D01*
X18948Y7375D01*
X18951Y7378D01*
X18953Y7381D01*
X18953Y7381D01*
X18953Y7381D01*
X18954Y7382D01*
X18955Y7383D01*
X18958Y7385D01*
X18962Y7388D01*
X18967Y7390D01*
X18973Y7392D01*
X18980Y7394D01*
X18984Y7395D01*
X18990D01*
X18992Y7394D01*
D02*
G37*
G36*
X19128Y6595D02*
X19109D01*
Y6743D01*
X19109Y6743D01*
X19108Y6742D01*
X19107Y6740D01*
X19105Y6738D01*
X19102Y6736D01*
X19099Y6733D01*
X19095Y6730D01*
X19091Y6727D01*
X19091Y6727D01*
X19090Y6726D01*
X19087Y6725D01*
X19085Y6723D01*
X19081Y6721D01*
X19078Y6719D01*
X19075Y6717D01*
X19071Y6715D01*
Y6737D01*
X19072D01*
X19072Y6738D01*
X19073Y6738D01*
X19074Y6739D01*
X19077Y6741D01*
X19081Y6744D01*
X19085Y6747D01*
X19089Y6751D01*
X19094Y6755D01*
X19099Y6759D01*
X19099Y6760D01*
X19099Y6760D01*
X19101Y6762D01*
X19103Y6764D01*
X19105Y6768D01*
X19108Y6771D01*
X19111Y6776D01*
X19114Y6780D01*
X19116Y6785D01*
X19128D01*
Y6595D01*
D02*
G37*
G36*
X18738Y6787D02*
X18740D01*
X18742Y6787D01*
X18747Y6786D01*
X18754Y6784D01*
X18760Y6782D01*
X18767Y6778D01*
X18770Y6776D01*
X18773Y6773D01*
X18773Y6773D01*
X18773Y6773D01*
X18774Y6772D01*
X18775Y6771D01*
X18777Y6769D01*
X18778Y6768D01*
X18780Y6766D01*
X18782Y6763D01*
X18784Y6760D01*
X18785Y6757D01*
X18787Y6754D01*
X18789Y6750D01*
X18791Y6746D01*
X18793Y6742D01*
X18794Y6737D01*
X18796Y6733D01*
X18775Y6727D01*
Y6727D01*
X18775Y6728D01*
X18774Y6730D01*
X18773Y6733D01*
X18772Y6736D01*
X18770Y6739D01*
X18769Y6743D01*
X18766Y6747D01*
X18764Y6750D01*
X18761Y6754D01*
X18757Y6757D01*
X18754Y6760D01*
X18749Y6763D01*
X18745Y6764D01*
X18740Y6766D01*
X18734Y6766D01*
X18731D01*
X18728Y6766D01*
X18725Y6765D01*
X18721Y6764D01*
X18716Y6763D01*
X18711Y6761D01*
X18707Y6758D01*
X18707Y6758D01*
X18705Y6756D01*
X18703Y6754D01*
X18701Y6752D01*
X18698Y6748D01*
X18695Y6744D01*
X18692Y6739D01*
X18689Y6733D01*
Y6733D01*
X18689Y6732D01*
X18688Y6731D01*
X18688Y6730D01*
X18688Y6728D01*
X18687Y6726D01*
X18686Y6724D01*
X18686Y6722D01*
X18685Y6719D01*
X18684Y6716D01*
X18683Y6708D01*
X18683Y6700D01*
X18682Y6691D01*
Y6690D01*
Y6689D01*
Y6687D01*
X18683Y6684D01*
Y6681D01*
X18683Y6677D01*
X18683Y6673D01*
X18684Y6669D01*
X18685Y6660D01*
X18688Y6650D01*
X18691Y6641D01*
X18693Y6636D01*
X18696Y6633D01*
X18696Y6632D01*
X18696Y6632D01*
X18697Y6631D01*
X18698Y6630D01*
X18700Y6628D01*
X18701Y6627D01*
X18705Y6623D01*
X18711Y6620D01*
X18717Y6616D01*
X18721Y6615D01*
X18724Y6614D01*
X18728Y6614D01*
X18732Y6613D01*
X18734D01*
X18735Y6614D01*
X18738Y6614D01*
X18742Y6615D01*
X18747Y6616D01*
X18751Y6618D01*
X18756Y6621D01*
X18761Y6625D01*
X18761Y6626D01*
X18763Y6627D01*
X18765Y6630D01*
X18768Y6634D01*
X18770Y6639D01*
X18773Y6646D01*
X18774Y6649D01*
X18775Y6653D01*
X18777Y6657D01*
X18777Y6662D01*
X18798Y6655D01*
Y6655D01*
X18798Y6654D01*
X18797Y6652D01*
X18797Y6650D01*
X18796Y6647D01*
X18795Y6644D01*
X18794Y6641D01*
X18793Y6637D01*
X18789Y6629D01*
X18785Y6622D01*
X18780Y6614D01*
X18777Y6611D01*
X18774Y6608D01*
X18774Y6607D01*
X18773Y6607D01*
X18772Y6606D01*
X18771Y6605D01*
X18769Y6604D01*
X18767Y6603D01*
X18765Y6601D01*
X18763Y6600D01*
X18756Y6597D01*
X18749Y6594D01*
X18741Y6593D01*
X18737Y6592D01*
X18733Y6592D01*
X18730D01*
X18729Y6592D01*
X18727D01*
X18725Y6593D01*
X18720Y6593D01*
X18714Y6595D01*
X18708Y6596D01*
X18702Y6599D01*
X18696Y6602D01*
X18695D01*
X18695Y6603D01*
X18694Y6603D01*
X18693Y6604D01*
X18690Y6607D01*
X18687Y6610D01*
X18683Y6615D01*
X18679Y6621D01*
X18675Y6628D01*
X18673Y6632D01*
X18671Y6636D01*
Y6636D01*
X18671Y6637D01*
X18670Y6638D01*
X18669Y6640D01*
X18669Y6642D01*
X18668Y6645D01*
X18667Y6648D01*
X18666Y6652D01*
X18665Y6655D01*
X18664Y6660D01*
X18664Y6664D01*
X18663Y6669D01*
X18662Y6679D01*
X18661Y6691D01*
Y6691D01*
Y6692D01*
Y6694D01*
X18662Y6696D01*
Y6699D01*
X18662Y6702D01*
X18662Y6705D01*
X18662Y6709D01*
X18664Y6717D01*
X18665Y6726D01*
X18668Y6735D01*
X18671Y6744D01*
Y6744D01*
X18671Y6744D01*
X18672Y6746D01*
X18673Y6747D01*
X18674Y6749D01*
X18675Y6751D01*
X18678Y6756D01*
X18682Y6761D01*
X18686Y6767D01*
X18691Y6772D01*
X18697Y6776D01*
X18697D01*
X18698Y6777D01*
X18699Y6777D01*
X18700Y6778D01*
X18702Y6779D01*
X18704Y6780D01*
X18708Y6782D01*
X18714Y6784D01*
X18720Y6786D01*
X18727Y6787D01*
X18734Y6787D01*
X18736D01*
X18738Y6787D01*
D02*
G37*
G36*
X18888Y6595D02*
X18869D01*
Y6743D01*
X18868Y6743D01*
X18867Y6742D01*
X18866Y6740D01*
X18864Y6738D01*
X18861Y6736D01*
X18858Y6733D01*
X18855Y6730D01*
X18851Y6727D01*
X18850Y6727D01*
X18849Y6726D01*
X18847Y6725D01*
X18844Y6723D01*
X18841Y6721D01*
X18838Y6719D01*
X18834Y6717D01*
X18831Y6715D01*
Y6737D01*
X18831D01*
X18831Y6738D01*
X18832Y6738D01*
X18833Y6739D01*
X18836Y6741D01*
X18840Y6744D01*
X18844Y6747D01*
X18849Y6751D01*
X18853Y6755D01*
X18858Y6759D01*
X18858Y6760D01*
X18859Y6760D01*
X18860Y6762D01*
X18862Y6764D01*
X18865Y6768D01*
X18868Y6771D01*
X18870Y6776D01*
X18873Y6780D01*
X18875Y6785D01*
X18888D01*
Y6595D01*
D02*
G37*
G36*
X18992Y6785D02*
X18994Y6784D01*
X18996Y6784D01*
X19001Y6783D01*
X19007Y6781D01*
X19013Y6778D01*
X19016Y6777D01*
X19019Y6774D01*
X19022Y6772D01*
X19024Y6769D01*
X19024Y6769D01*
X19025Y6768D01*
X19025Y6767D01*
X19026Y6766D01*
X19027Y6765D01*
X19028Y6763D01*
X19030Y6758D01*
X19032Y6753D01*
X19034Y6747D01*
X19036Y6740D01*
X19036Y6733D01*
Y6732D01*
Y6732D01*
Y6731D01*
Y6729D01*
X19036Y6728D01*
X19036Y6726D01*
X19035Y6721D01*
X19034Y6716D01*
X19032Y6710D01*
X19030Y6704D01*
X19027Y6698D01*
Y6697D01*
X19026Y6697D01*
X19025Y6696D01*
X19025Y6695D01*
X19024Y6693D01*
X19022Y6691D01*
X19020Y6689D01*
X19018Y6686D01*
X19016Y6683D01*
X19013Y6680D01*
X19010Y6676D01*
X19007Y6672D01*
X19003Y6668D01*
X18999Y6664D01*
X18995Y6659D01*
X18990Y6654D01*
X18990Y6653D01*
X18989Y6653D01*
X18989Y6652D01*
X18988Y6651D01*
X18985Y6648D01*
X18981Y6644D01*
X18978Y6640D01*
X18974Y6636D01*
X18970Y6633D01*
X18968Y6630D01*
X18968Y6630D01*
X18967Y6629D01*
X18966Y6628D01*
X18965Y6626D01*
X18963Y6622D01*
X18960Y6617D01*
X19036D01*
Y6595D01*
X18934D01*
Y6596D01*
Y6596D01*
Y6598D01*
X18934Y6601D01*
X18935Y6604D01*
X18936Y6608D01*
X18937Y6614D01*
X18939Y6619D01*
X18942Y6625D01*
Y6626D01*
X18942Y6626D01*
X18943Y6627D01*
X18944Y6628D01*
X18944Y6630D01*
X18946Y6632D01*
X18947Y6634D01*
X18949Y6637D01*
X18954Y6643D01*
X18956Y6646D01*
X18959Y6649D01*
X18962Y6653D01*
X18966Y6657D01*
X18969Y6661D01*
X18973Y6665D01*
X18974Y6665D01*
X18975Y6666D01*
X18976Y6668D01*
X18978Y6669D01*
X18980Y6672D01*
X18982Y6674D01*
X18988Y6680D01*
X18994Y6687D01*
X18999Y6694D01*
X19002Y6697D01*
X19005Y6700D01*
X19007Y6703D01*
X19008Y6706D01*
Y6707D01*
X19009Y6707D01*
X19009Y6708D01*
X19010Y6709D01*
X19011Y6711D01*
X19013Y6715D01*
X19014Y6719D01*
X19016Y6724D01*
X19017Y6729D01*
X19017Y6733D01*
Y6734D01*
Y6734D01*
Y6736D01*
X19016Y6738D01*
X19016Y6742D01*
X19015Y6745D01*
X19013Y6749D01*
X19011Y6753D01*
X19008Y6757D01*
X19008Y6757D01*
X19007Y6758D01*
X19005Y6760D01*
X19002Y6761D01*
X18999Y6763D01*
X18996Y6765D01*
X18992Y6766D01*
X18987Y6766D01*
X18985D01*
X18983Y6766D01*
X18980Y6765D01*
X18976Y6764D01*
X18973Y6762D01*
X18969Y6759D01*
X18966Y6756D01*
X18965Y6756D01*
X18964Y6754D01*
X18963Y6752D01*
X18961Y6749D01*
X18960Y6745D01*
X18959Y6740D01*
X18957Y6735D01*
X18957Y6728D01*
X18937Y6730D01*
Y6731D01*
Y6732D01*
X18938Y6733D01*
X18938Y6735D01*
X18938Y6737D01*
X18939Y6740D01*
X18940Y6746D01*
X18942Y6752D01*
X18945Y6759D01*
X18948Y6766D01*
X18950Y6769D01*
X18953Y6771D01*
X18953Y6772D01*
X18953Y6772D01*
X18954Y6773D01*
X18955Y6773D01*
X18958Y6776D01*
X18962Y6778D01*
X18967Y6781D01*
X18973Y6783D01*
X18980Y6784D01*
X18984Y6785D01*
X18990D01*
X18992Y6785D01*
D02*
G37*
G36*
X14398Y7197D02*
X14400D01*
X14402Y7197D01*
X14407Y7196D01*
X14414Y7194D01*
X14420Y7192D01*
X14427Y7188D01*
X14430Y7186D01*
X14433Y7183D01*
X14433Y7183D01*
X14433Y7183D01*
X14434Y7182D01*
X14435Y7181D01*
X14437Y7179D01*
X14438Y7178D01*
X14440Y7176D01*
X14442Y7173D01*
X14444Y7170D01*
X14445Y7167D01*
X14447Y7164D01*
X14449Y7160D01*
X14451Y7156D01*
X14453Y7152D01*
X14454Y7147D01*
X14456Y7143D01*
X14435Y7137D01*
Y7137D01*
X14435Y7138D01*
X14434Y7140D01*
X14433Y7143D01*
X14432Y7146D01*
X14430Y7149D01*
X14429Y7153D01*
X14426Y7157D01*
X14424Y7160D01*
X14421Y7164D01*
X14417Y7167D01*
X14414Y7170D01*
X14409Y7173D01*
X14405Y7174D01*
X14400Y7176D01*
X14394Y7176D01*
X14391D01*
X14388Y7176D01*
X14385Y7175D01*
X14381Y7174D01*
X14376Y7173D01*
X14371Y7171D01*
X14367Y7168D01*
X14367Y7168D01*
X14365Y7166D01*
X14363Y7164D01*
X14361Y7162D01*
X14358Y7158D01*
X14355Y7154D01*
X14352Y7149D01*
X14349Y7143D01*
Y7143D01*
X14349Y7142D01*
X14348Y7141D01*
X14348Y7140D01*
X14348Y7138D01*
X14347Y7136D01*
X14346Y7134D01*
X14346Y7132D01*
X14345Y7129D01*
X14344Y7126D01*
X14343Y7118D01*
X14343Y7110D01*
X14342Y7101D01*
Y7100D01*
Y7099D01*
Y7097D01*
X14343Y7094D01*
Y7091D01*
X14343Y7087D01*
X14343Y7083D01*
X14344Y7079D01*
X14346Y7070D01*
X14348Y7060D01*
X14351Y7051D01*
X14353Y7046D01*
X14356Y7043D01*
X14356Y7042D01*
X14356Y7042D01*
X14357Y7041D01*
X14358Y7040D01*
X14360Y7038D01*
X14361Y7037D01*
X14365Y7033D01*
X14371Y7030D01*
X14377Y7026D01*
X14381Y7025D01*
X14384Y7024D01*
X14388Y7024D01*
X14392Y7023D01*
X14394D01*
X14395Y7024D01*
X14398Y7024D01*
X14402Y7025D01*
X14407Y7026D01*
X14411Y7028D01*
X14416Y7031D01*
X14421Y7035D01*
X14421Y7036D01*
X14423Y7037D01*
X14425Y7040D01*
X14428Y7044D01*
X14430Y7049D01*
X14433Y7056D01*
X14434Y7059D01*
X14435Y7063D01*
X14437Y7067D01*
X14437Y7072D01*
X14458Y7065D01*
Y7065D01*
X14458Y7064D01*
X14457Y7062D01*
X14457Y7060D01*
X14456Y7057D01*
X14455Y7054D01*
X14454Y7051D01*
X14453Y7047D01*
X14449Y7039D01*
X14445Y7032D01*
X14440Y7024D01*
X14437Y7021D01*
X14434Y7018D01*
X14434Y7017D01*
X14433Y7017D01*
X14432Y7016D01*
X14431Y7015D01*
X14429Y7014D01*
X14427Y7013D01*
X14425Y7011D01*
X14423Y7010D01*
X14416Y7007D01*
X14409Y7004D01*
X14401Y7003D01*
X14397Y7002D01*
X14393Y7002D01*
X14390D01*
X14389Y7002D01*
X14387D01*
X14385Y7003D01*
X14380Y7003D01*
X14374Y7005D01*
X14368Y7006D01*
X14362Y7009D01*
X14356Y7012D01*
X14355D01*
X14355Y7013D01*
X14354Y7013D01*
X14353Y7014D01*
X14350Y7017D01*
X14347Y7020D01*
X14343Y7025D01*
X14339Y7031D01*
X14335Y7038D01*
X14333Y7042D01*
X14331Y7046D01*
Y7046D01*
X14331Y7047D01*
X14330Y7048D01*
X14329Y7050D01*
X14329Y7052D01*
X14328Y7055D01*
X14327Y7058D01*
X14326Y7062D01*
X14325Y7065D01*
X14324Y7070D01*
X14324Y7074D01*
X14323Y7079D01*
X14322Y7089D01*
X14321Y7101D01*
Y7101D01*
Y7102D01*
Y7104D01*
X14322Y7106D01*
Y7109D01*
X14322Y7112D01*
X14322Y7115D01*
X14322Y7119D01*
X14324Y7127D01*
X14325Y7136D01*
X14328Y7145D01*
X14331Y7154D01*
Y7154D01*
X14331Y7154D01*
X14332Y7156D01*
X14333Y7157D01*
X14334Y7159D01*
X14335Y7161D01*
X14338Y7166D01*
X14342Y7171D01*
X14346Y7177D01*
X14351Y7182D01*
X14357Y7186D01*
X14357D01*
X14358Y7187D01*
X14359Y7187D01*
X14360Y7188D01*
X14362Y7189D01*
X14364Y7190D01*
X14368Y7192D01*
X14374Y7194D01*
X14380Y7196D01*
X14387Y7197D01*
X14394Y7197D01*
X14396D01*
X14398Y7197D01*
D02*
G37*
G36*
X14818Y7174D02*
X14818Y7173D01*
X14817Y7172D01*
X14816Y7171D01*
X14814Y7168D01*
X14812Y7166D01*
X14810Y7162D01*
X14807Y7158D01*
X14805Y7153D01*
X14801Y7148D01*
X14798Y7143D01*
X14795Y7136D01*
X14791Y7129D01*
X14788Y7122D01*
X14785Y7114D01*
X14781Y7106D01*
X14778Y7098D01*
X14778Y7097D01*
X14777Y7096D01*
X14776Y7093D01*
X14775Y7090D01*
X14774Y7086D01*
X14772Y7081D01*
X14771Y7075D01*
X14769Y7069D01*
X14767Y7062D01*
X14766Y7055D01*
X14764Y7047D01*
X14763Y7039D01*
X14760Y7023D01*
X14759Y7014D01*
X14759Y7005D01*
X14739D01*
Y7006D01*
Y7006D01*
Y7008D01*
X14740Y7009D01*
Y7012D01*
X14740Y7014D01*
Y7018D01*
X14741Y7021D01*
X14741Y7025D01*
X14741Y7029D01*
X14742Y7034D01*
X14743Y7039D01*
X14744Y7049D01*
X14747Y7060D01*
Y7061D01*
X14747Y7062D01*
X14748Y7064D01*
X14748Y7066D01*
X14749Y7069D01*
X14750Y7072D01*
X14751Y7076D01*
X14752Y7080D01*
X14753Y7084D01*
X14755Y7089D01*
X14758Y7099D01*
X14762Y7110D01*
X14766Y7121D01*
X14767Y7121D01*
X14767Y7122D01*
X14767Y7124D01*
X14769Y7126D01*
X14770Y7128D01*
X14771Y7131D01*
X14773Y7134D01*
X14774Y7138D01*
X14779Y7145D01*
X14783Y7154D01*
X14788Y7162D01*
X14793Y7170D01*
X14718D01*
Y7192D01*
X14818D01*
Y7174D01*
D02*
G37*
G36*
X14548Y7005D02*
X14529D01*
Y7153D01*
X14528Y7153D01*
X14527Y7152D01*
X14526Y7150D01*
X14524Y7148D01*
X14521Y7146D01*
X14518Y7143D01*
X14515Y7140D01*
X14511Y7137D01*
X14510Y7137D01*
X14509Y7136D01*
X14507Y7135D01*
X14504Y7133D01*
X14501Y7131D01*
X14498Y7129D01*
X14494Y7127D01*
X14491Y7125D01*
Y7147D01*
X14491D01*
X14491Y7148D01*
X14492Y7148D01*
X14493Y7149D01*
X14496Y7151D01*
X14500Y7154D01*
X14504Y7157D01*
X14509Y7161D01*
X14513Y7165D01*
X14518Y7169D01*
X14518Y7170D01*
X14519Y7170D01*
X14520Y7172D01*
X14522Y7174D01*
X14525Y7178D01*
X14528Y7181D01*
X14530Y7186D01*
X14533Y7190D01*
X14535Y7195D01*
X14548D01*
Y7005D01*
D02*
G37*
G36*
X14621Y6875D02*
X14622Y6874D01*
X14625Y6874D01*
X14630Y6873D01*
X14635Y6870D01*
X14638Y6869D01*
X14641Y6867D01*
X14644Y6865D01*
X14647Y6862D01*
X14650Y6859D01*
X14652Y6855D01*
X14652Y6855D01*
X14652Y6854D01*
X14653Y6853D01*
X14654Y6851D01*
X14656Y6848D01*
X14657Y6845D01*
X14658Y6841D01*
X14660Y6837D01*
X14661Y6832D01*
X14663Y6826D01*
X14664Y6820D01*
X14665Y6813D01*
X14666Y6805D01*
X14667Y6797D01*
X14667Y6788D01*
X14668Y6778D01*
Y6778D01*
Y6776D01*
Y6774D01*
X14667Y6771D01*
Y6767D01*
X14667Y6762D01*
X14666Y6757D01*
X14666Y6752D01*
X14664Y6740D01*
X14662Y6728D01*
X14661Y6722D01*
X14659Y6717D01*
X14657Y6712D01*
X14655Y6707D01*
Y6706D01*
X14654Y6705D01*
X14653Y6704D01*
X14652Y6703D01*
X14651Y6701D01*
X14650Y6699D01*
X14648Y6697D01*
X14645Y6694D01*
X14643Y6692D01*
X14640Y6690D01*
X14637Y6688D01*
X14633Y6686D01*
X14630Y6684D01*
X14626Y6683D01*
X14622Y6682D01*
X14617Y6682D01*
X14616D01*
X14615Y6682D01*
X14613D01*
X14611Y6683D01*
X14609Y6683D01*
X14604Y6685D01*
X14601Y6686D01*
X14598Y6687D01*
X14595Y6689D01*
X14592Y6691D01*
X14589Y6694D01*
X14586Y6697D01*
X14583Y6700D01*
X14580Y6704D01*
X14580Y6704D01*
X14580Y6705D01*
X14579Y6706D01*
X14578Y6708D01*
X14577Y6710D01*
X14576Y6713D01*
X14575Y6717D01*
X14573Y6721D01*
X14572Y6726D01*
X14571Y6731D01*
X14570Y6738D01*
X14569Y6744D01*
X14567Y6752D01*
X14567Y6760D01*
X14567Y6769D01*
X14566Y6778D01*
Y6779D01*
Y6780D01*
Y6783D01*
X14567Y6786D01*
Y6790D01*
X14567Y6795D01*
X14567Y6800D01*
X14568Y6805D01*
X14570Y6817D01*
X14572Y6829D01*
X14573Y6835D01*
X14575Y6840D01*
X14577Y6846D01*
X14579Y6851D01*
X14579Y6851D01*
X14580Y6852D01*
X14581Y6853D01*
X14582Y6854D01*
X14583Y6856D01*
X14584Y6858D01*
X14586Y6860D01*
X14589Y6863D01*
X14594Y6867D01*
X14600Y6871D01*
X14604Y6873D01*
X14608Y6874D01*
X14612Y6875D01*
X14617Y6875D01*
X14619D01*
X14621Y6875D01*
D02*
G37*
G36*
X14368Y6877D02*
X14370D01*
X14372Y6877D01*
X14377Y6876D01*
X14384Y6874D01*
X14390Y6872D01*
X14397Y6868D01*
X14400Y6866D01*
X14403Y6863D01*
X14403Y6863D01*
X14403Y6863D01*
X14404Y6862D01*
X14405Y6861D01*
X14407Y6859D01*
X14408Y6858D01*
X14410Y6856D01*
X14412Y6853D01*
X14414Y6850D01*
X14415Y6847D01*
X14417Y6844D01*
X14419Y6840D01*
X14421Y6836D01*
X14423Y6832D01*
X14424Y6827D01*
X14426Y6823D01*
X14405Y6817D01*
Y6817D01*
X14405Y6818D01*
X14404Y6820D01*
X14403Y6823D01*
X14402Y6826D01*
X14400Y6829D01*
X14399Y6833D01*
X14396Y6837D01*
X14394Y6840D01*
X14391Y6844D01*
X14387Y6847D01*
X14384Y6850D01*
X14379Y6853D01*
X14375Y6854D01*
X14370Y6856D01*
X14364Y6856D01*
X14361D01*
X14358Y6856D01*
X14355Y6855D01*
X14351Y6854D01*
X14346Y6853D01*
X14341Y6851D01*
X14337Y6848D01*
X14337Y6848D01*
X14335Y6846D01*
X14333Y6844D01*
X14331Y6842D01*
X14328Y6838D01*
X14325Y6834D01*
X14322Y6829D01*
X14319Y6823D01*
Y6823D01*
X14319Y6822D01*
X14318Y6821D01*
X14318Y6820D01*
X14318Y6818D01*
X14317Y6816D01*
X14316Y6814D01*
X14316Y6812D01*
X14315Y6809D01*
X14314Y6806D01*
X14313Y6798D01*
X14313Y6790D01*
X14312Y6781D01*
Y6780D01*
Y6779D01*
Y6777D01*
X14313Y6774D01*
Y6771D01*
X14313Y6767D01*
X14313Y6763D01*
X14314Y6759D01*
X14316Y6750D01*
X14318Y6740D01*
X14321Y6731D01*
X14323Y6726D01*
X14326Y6723D01*
X14326Y6722D01*
X14326Y6722D01*
X14327Y6721D01*
X14328Y6720D01*
X14330Y6718D01*
X14331Y6717D01*
X14335Y6713D01*
X14341Y6710D01*
X14347Y6706D01*
X14351Y6705D01*
X14354Y6704D01*
X14358Y6704D01*
X14362Y6703D01*
X14364D01*
X14365Y6704D01*
X14368Y6704D01*
X14372Y6705D01*
X14377Y6706D01*
X14381Y6708D01*
X14386Y6711D01*
X14391Y6715D01*
X14391Y6716D01*
X14393Y6717D01*
X14395Y6720D01*
X14398Y6724D01*
X14400Y6729D01*
X14403Y6736D01*
X14404Y6739D01*
X14405Y6743D01*
X14407Y6747D01*
X14407Y6752D01*
X14428Y6745D01*
Y6745D01*
X14428Y6744D01*
X14427Y6742D01*
X14427Y6740D01*
X14426Y6737D01*
X14425Y6734D01*
X14424Y6731D01*
X14423Y6727D01*
X14419Y6719D01*
X14415Y6712D01*
X14410Y6704D01*
X14407Y6701D01*
X14404Y6698D01*
X14404Y6697D01*
X14403Y6697D01*
X14402Y6696D01*
X14401Y6695D01*
X14399Y6694D01*
X14397Y6693D01*
X14395Y6691D01*
X14393Y6690D01*
X14386Y6687D01*
X14379Y6684D01*
X14371Y6683D01*
X14367Y6682D01*
X14363Y6682D01*
X14360D01*
X14359Y6682D01*
X14357D01*
X14355Y6683D01*
X14350Y6683D01*
X14344Y6685D01*
X14338Y6686D01*
X14332Y6689D01*
X14326Y6692D01*
X14325D01*
X14325Y6693D01*
X14324Y6693D01*
X14323Y6694D01*
X14320Y6697D01*
X14317Y6700D01*
X14313Y6705D01*
X14309Y6711D01*
X14305Y6718D01*
X14303Y6722D01*
X14301Y6726D01*
Y6726D01*
X14301Y6727D01*
X14300Y6728D01*
X14299Y6730D01*
X14299Y6732D01*
X14298Y6735D01*
X14297Y6738D01*
X14296Y6742D01*
X14295Y6745D01*
X14294Y6750D01*
X14294Y6754D01*
X14293Y6759D01*
X14292Y6769D01*
X14291Y6781D01*
Y6781D01*
Y6782D01*
Y6784D01*
X14292Y6786D01*
Y6789D01*
X14292Y6792D01*
X14292Y6795D01*
X14292Y6799D01*
X14294Y6807D01*
X14295Y6816D01*
X14298Y6825D01*
X14301Y6834D01*
Y6834D01*
X14301Y6834D01*
X14302Y6836D01*
X14303Y6837D01*
X14304Y6839D01*
X14305Y6841D01*
X14308Y6846D01*
X14312Y6851D01*
X14316Y6857D01*
X14321Y6862D01*
X14327Y6866D01*
X14327D01*
X14328Y6867D01*
X14329Y6867D01*
X14330Y6868D01*
X14332Y6869D01*
X14334Y6870D01*
X14338Y6872D01*
X14344Y6874D01*
X14350Y6876D01*
X14357Y6877D01*
X14364Y6877D01*
X14366D01*
X14368Y6877D01*
D02*
G37*
G36*
X14518Y6685D02*
X14499D01*
Y6833D01*
X14498Y6833D01*
X14497Y6832D01*
X14496Y6830D01*
X14494Y6828D01*
X14491Y6826D01*
X14488Y6823D01*
X14485Y6820D01*
X14481Y6817D01*
X14480Y6817D01*
X14479Y6816D01*
X14477Y6815D01*
X14474Y6813D01*
X14471Y6811D01*
X14468Y6809D01*
X14464Y6807D01*
X14461Y6805D01*
Y6827D01*
X14461D01*
X14461Y6828D01*
X14462Y6828D01*
X14463Y6829D01*
X14466Y6831D01*
X14470Y6834D01*
X14474Y6837D01*
X14479Y6841D01*
X14483Y6845D01*
X14488Y6849D01*
X14488Y6850D01*
X14489Y6850D01*
X14490Y6852D01*
X14492Y6854D01*
X14495Y6858D01*
X14498Y6861D01*
X14500Y6866D01*
X14503Y6870D01*
X14505Y6875D01*
X14518D01*
Y6685D01*
D02*
G37*
G36*
X14741Y6875D02*
X14743Y6874D01*
X14745Y6874D01*
X14750Y6873D01*
X14756Y6870D01*
X14758Y6869D01*
X14761Y6867D01*
X14764Y6865D01*
X14767Y6862D01*
X14770Y6859D01*
X14772Y6855D01*
X14772Y6855D01*
X14773Y6854D01*
X14774Y6853D01*
X14775Y6851D01*
X14776Y6848D01*
X14777Y6845D01*
X14779Y6841D01*
X14780Y6837D01*
X14782Y6832D01*
X14783Y6826D01*
X14784Y6820D01*
X14786Y6813D01*
X14786Y6805D01*
X14787Y6797D01*
X14788Y6788D01*
X14788Y6778D01*
Y6778D01*
Y6776D01*
Y6774D01*
X14788Y6771D01*
Y6767D01*
X14787Y6762D01*
X14787Y6757D01*
X14786Y6752D01*
X14785Y6740D01*
X14782Y6728D01*
X14781Y6722D01*
X14779Y6717D01*
X14777Y6712D01*
X14775Y6707D01*
Y6706D01*
X14775Y6705D01*
X14774Y6704D01*
X14773Y6703D01*
X14771Y6701D01*
X14770Y6699D01*
X14768Y6697D01*
X14765Y6694D01*
X14763Y6692D01*
X14760Y6690D01*
X14757Y6688D01*
X14754Y6686D01*
X14750Y6684D01*
X14746Y6683D01*
X14742Y6682D01*
X14737Y6682D01*
X14736D01*
X14735Y6682D01*
X14733D01*
X14732Y6683D01*
X14729Y6683D01*
X14724Y6685D01*
X14721Y6686D01*
X14718Y6687D01*
X14715Y6689D01*
X14712Y6691D01*
X14709Y6694D01*
X14706Y6697D01*
X14703Y6700D01*
X14701Y6704D01*
X14700Y6704D01*
X14700Y6705D01*
X14699Y6706D01*
X14699Y6708D01*
X14697Y6710D01*
X14696Y6713D01*
X14695Y6717D01*
X14694Y6721D01*
X14692Y6726D01*
X14691Y6731D01*
X14690Y6738D01*
X14689Y6744D01*
X14688Y6752D01*
X14687Y6760D01*
X14687Y6769D01*
X14687Y6778D01*
Y6779D01*
Y6780D01*
Y6783D01*
X14687Y6786D01*
Y6790D01*
X14687Y6795D01*
X14688Y6800D01*
X14688Y6805D01*
X14690Y6817D01*
X14692Y6829D01*
X14694Y6835D01*
X14695Y6840D01*
X14697Y6846D01*
X14699Y6851D01*
X14700Y6851D01*
X14700Y6852D01*
X14701Y6853D01*
X14702Y6854D01*
X14703Y6856D01*
X14705Y6858D01*
X14707Y6860D01*
X14709Y6863D01*
X14714Y6867D01*
X14721Y6871D01*
X14725Y6873D01*
X14728Y6874D01*
X14733Y6875D01*
X14737Y6875D01*
X14739D01*
X14741Y6875D01*
D02*
G37*
G36*
X21088Y5277D02*
X21090D01*
X21092Y5277D01*
X21097Y5276D01*
X21104Y5274D01*
X21110Y5272D01*
X21117Y5268D01*
X21120Y5266D01*
X21123Y5263D01*
X21123Y5263D01*
X21123Y5263D01*
X21124Y5262D01*
X21125Y5261D01*
X21127Y5259D01*
X21128Y5258D01*
X21130Y5256D01*
X21132Y5253D01*
X21134Y5250D01*
X21135Y5247D01*
X21137Y5244D01*
X21139Y5240D01*
X21141Y5236D01*
X21143Y5232D01*
X21144Y5227D01*
X21146Y5223D01*
X21125Y5217D01*
Y5217D01*
X21125Y5218D01*
X21124Y5220D01*
X21123Y5223D01*
X21122Y5226D01*
X21120Y5229D01*
X21119Y5233D01*
X21116Y5237D01*
X21114Y5240D01*
X21111Y5244D01*
X21107Y5247D01*
X21104Y5250D01*
X21099Y5253D01*
X21095Y5254D01*
X21090Y5256D01*
X21084Y5256D01*
X21081D01*
X21078Y5256D01*
X21075Y5255D01*
X21071Y5254D01*
X21066Y5253D01*
X21061Y5251D01*
X21057Y5248D01*
X21057Y5248D01*
X21055Y5246D01*
X21053Y5244D01*
X21051Y5242D01*
X21048Y5238D01*
X21045Y5234D01*
X21042Y5229D01*
X21039Y5223D01*
Y5223D01*
X21039Y5222D01*
X21038Y5221D01*
X21038Y5220D01*
X21038Y5218D01*
X21037Y5216D01*
X21036Y5214D01*
X21036Y5212D01*
X21035Y5209D01*
X21034Y5206D01*
X21033Y5198D01*
X21033Y5190D01*
X21032Y5181D01*
Y5180D01*
Y5179D01*
Y5177D01*
X21033Y5174D01*
Y5171D01*
X21033Y5167D01*
X21033Y5163D01*
X21034Y5159D01*
X21035Y5150D01*
X21038Y5140D01*
X21041Y5131D01*
X21043Y5126D01*
X21046Y5123D01*
X21046Y5122D01*
X21046Y5122D01*
X21047Y5121D01*
X21048Y5120D01*
X21050Y5118D01*
X21051Y5117D01*
X21055Y5113D01*
X21061Y5110D01*
X21067Y5106D01*
X21071Y5105D01*
X21074Y5104D01*
X21078Y5104D01*
X21082Y5103D01*
X21084D01*
X21085Y5104D01*
X21088Y5104D01*
X21092Y5105D01*
X21097Y5106D01*
X21101Y5108D01*
X21106Y5111D01*
X21111Y5115D01*
X21111Y5116D01*
X21113Y5117D01*
X21115Y5120D01*
X21118Y5124D01*
X21120Y5129D01*
X21123Y5135D01*
X21124Y5139D01*
X21125Y5143D01*
X21127Y5147D01*
X21127Y5152D01*
X21148Y5145D01*
Y5145D01*
X21148Y5144D01*
X21147Y5142D01*
X21147Y5140D01*
X21146Y5137D01*
X21145Y5134D01*
X21144Y5131D01*
X21143Y5127D01*
X21139Y5119D01*
X21135Y5112D01*
X21130Y5104D01*
X21127Y5101D01*
X21124Y5098D01*
X21124Y5097D01*
X21123Y5097D01*
X21122Y5096D01*
X21121Y5095D01*
X21119Y5094D01*
X21117Y5093D01*
X21115Y5091D01*
X21113Y5090D01*
X21106Y5087D01*
X21099Y5084D01*
X21091Y5083D01*
X21087Y5082D01*
X21083Y5082D01*
X21080D01*
X21079Y5082D01*
X21077D01*
X21075Y5083D01*
X21070Y5083D01*
X21064Y5085D01*
X21058Y5086D01*
X21052Y5089D01*
X21046Y5092D01*
X21045D01*
X21045Y5093D01*
X21044Y5093D01*
X21043Y5094D01*
X21040Y5097D01*
X21037Y5100D01*
X21033Y5105D01*
X21029Y5111D01*
X21025Y5118D01*
X21023Y5122D01*
X21021Y5126D01*
Y5126D01*
X21021Y5127D01*
X21020Y5128D01*
X21019Y5130D01*
X21019Y5132D01*
X21018Y5135D01*
X21017Y5138D01*
X21016Y5142D01*
X21015Y5145D01*
X21014Y5150D01*
X21014Y5154D01*
X21013Y5159D01*
X21012Y5169D01*
X21011Y5181D01*
Y5181D01*
Y5182D01*
Y5184D01*
X21012Y5186D01*
Y5189D01*
X21012Y5192D01*
X21012Y5195D01*
X21012Y5199D01*
X21014Y5207D01*
X21015Y5216D01*
X21018Y5225D01*
X21021Y5234D01*
Y5234D01*
X21021Y5234D01*
X21022Y5236D01*
X21023Y5237D01*
X21024Y5239D01*
X21025Y5241D01*
X21028Y5246D01*
X21032Y5251D01*
X21036Y5257D01*
X21041Y5262D01*
X21047Y5266D01*
X21047D01*
X21048Y5267D01*
X21049Y5267D01*
X21050Y5268D01*
X21052Y5269D01*
X21054Y5270D01*
X21058Y5272D01*
X21064Y5274D01*
X21070Y5276D01*
X21077Y5277D01*
X21084Y5277D01*
X21086D01*
X21088Y5277D01*
D02*
G37*
G36*
X21358Y5085D02*
X21339D01*
Y5233D01*
X21339Y5233D01*
X21338Y5232D01*
X21336Y5230D01*
X21334Y5228D01*
X21332Y5226D01*
X21329Y5223D01*
X21325Y5220D01*
X21321Y5217D01*
X21320Y5217D01*
X21319Y5216D01*
X21317Y5215D01*
X21314Y5213D01*
X21311Y5211D01*
X21308Y5209D01*
X21304Y5207D01*
X21301Y5205D01*
Y5227D01*
X21301D01*
X21302Y5228D01*
X21302Y5228D01*
X21304Y5229D01*
X21306Y5231D01*
X21310Y5234D01*
X21314Y5237D01*
X21319Y5241D01*
X21324Y5245D01*
X21328Y5249D01*
X21329Y5250D01*
X21329Y5250D01*
X21330Y5252D01*
X21332Y5254D01*
X21335Y5258D01*
X21338Y5261D01*
X21341Y5266D01*
X21343Y5270D01*
X21345Y5275D01*
X21358D01*
Y5085D01*
D02*
G37*
G36*
X21238D02*
X21219D01*
Y5233D01*
X21218Y5233D01*
X21217Y5232D01*
X21216Y5230D01*
X21214Y5228D01*
X21211Y5226D01*
X21208Y5223D01*
X21205Y5220D01*
X21201Y5217D01*
X21200Y5217D01*
X21199Y5216D01*
X21197Y5215D01*
X21194Y5213D01*
X21191Y5211D01*
X21188Y5209D01*
X21184Y5207D01*
X21181Y5205D01*
Y5227D01*
X21181D01*
X21181Y5228D01*
X21182Y5228D01*
X21183Y5229D01*
X21186Y5231D01*
X21190Y5234D01*
X21194Y5237D01*
X21199Y5241D01*
X21203Y5245D01*
X21208Y5249D01*
X21208Y5250D01*
X21209Y5250D01*
X21210Y5252D01*
X21212Y5254D01*
X21215Y5258D01*
X21218Y5261D01*
X21220Y5266D01*
X21223Y5270D01*
X21225Y5275D01*
X21238D01*
Y5085D01*
D02*
G37*
G36*
X14651Y7195D02*
X14652Y7194D01*
X14655Y7194D01*
X14660Y7193D01*
X14665Y7190D01*
X14668Y7189D01*
X14671Y7187D01*
X14674Y7185D01*
X14677Y7182D01*
X14680Y7179D01*
X14682Y7175D01*
X14682Y7175D01*
X14682Y7174D01*
X14683Y7173D01*
X14684Y7171D01*
X14686Y7168D01*
X14687Y7165D01*
X14688Y7161D01*
X14690Y7157D01*
X14691Y7152D01*
X14693Y7146D01*
X14694Y7140D01*
X14695Y7133D01*
X14696Y7125D01*
X14697Y7117D01*
X14697Y7108D01*
X14698Y7098D01*
Y7098D01*
Y7096D01*
Y7094D01*
X14697Y7091D01*
Y7087D01*
X14697Y7082D01*
X14696Y7077D01*
X14696Y7072D01*
X14694Y7060D01*
X14692Y7048D01*
X14691Y7042D01*
X14689Y7037D01*
X14687Y7032D01*
X14685Y7027D01*
Y7026D01*
X14684Y7025D01*
X14683Y7024D01*
X14682Y7023D01*
X14681Y7021D01*
X14680Y7019D01*
X14677Y7017D01*
X14675Y7014D01*
X14673Y7012D01*
X14670Y7010D01*
X14667Y7008D01*
X14663Y7006D01*
X14660Y7004D01*
X14656Y7003D01*
X14652Y7002D01*
X14647Y7002D01*
X14646D01*
X14645Y7002D01*
X14643D01*
X14641Y7003D01*
X14639Y7003D01*
X14634Y7005D01*
X14631Y7006D01*
X14628Y7007D01*
X14625Y7009D01*
X14622Y7011D01*
X14619Y7014D01*
X14616Y7017D01*
X14613Y7020D01*
X14610Y7024D01*
X14610Y7024D01*
X14610Y7025D01*
X14609Y7026D01*
X14608Y7028D01*
X14607Y7030D01*
X14606Y7033D01*
X14605Y7037D01*
X14603Y7041D01*
X14602Y7046D01*
X14601Y7051D01*
X14600Y7058D01*
X14599Y7064D01*
X14597Y7072D01*
X14597Y7080D01*
X14597Y7089D01*
X14596Y7098D01*
Y7099D01*
Y7100D01*
Y7103D01*
X14597Y7106D01*
Y7110D01*
X14597Y7115D01*
X14597Y7120D01*
X14598Y7125D01*
X14600Y7137D01*
X14602Y7149D01*
X14603Y7155D01*
X14605Y7160D01*
X14607Y7166D01*
X14609Y7171D01*
X14609Y7171D01*
X14610Y7172D01*
X14611Y7173D01*
X14612Y7174D01*
X14613Y7176D01*
X14614Y7178D01*
X14616Y7180D01*
X14619Y7183D01*
X14624Y7187D01*
X14630Y7191D01*
X14634Y7193D01*
X14638Y7194D01*
X14642Y7195D01*
X14647Y7195D01*
X14649D01*
X14651Y7195D01*
D02*
G37*
G36*
X21461Y5275D02*
X21463Y5274D01*
X21465Y5274D01*
X21470Y5273D01*
X21476Y5270D01*
X21478Y5269D01*
X21481Y5267D01*
X21484Y5265D01*
X21487Y5262D01*
X21490Y5259D01*
X21492Y5255D01*
X21492Y5255D01*
X21493Y5254D01*
X21494Y5253D01*
X21495Y5251D01*
X21496Y5248D01*
X21497Y5245D01*
X21499Y5241D01*
X21500Y5237D01*
X21502Y5232D01*
X21503Y5226D01*
X21504Y5220D01*
X21506Y5213D01*
X21506Y5205D01*
X21507Y5197D01*
X21508Y5188D01*
X21508Y5178D01*
Y5178D01*
Y5176D01*
Y5174D01*
X21508Y5171D01*
Y5167D01*
X21507Y5162D01*
X21507Y5157D01*
X21506Y5152D01*
X21505Y5140D01*
X21502Y5128D01*
X21501Y5122D01*
X21499Y5117D01*
X21497Y5112D01*
X21495Y5107D01*
Y5106D01*
X21495Y5105D01*
X21494Y5104D01*
X21493Y5103D01*
X21491Y5101D01*
X21490Y5099D01*
X21488Y5097D01*
X21485Y5094D01*
X21483Y5092D01*
X21480Y5090D01*
X21477Y5088D01*
X21474Y5086D01*
X21470Y5084D01*
X21466Y5083D01*
X21462Y5082D01*
X21457Y5082D01*
X21456D01*
X21455Y5082D01*
X21453D01*
X21452Y5083D01*
X21449Y5083D01*
X21444Y5085D01*
X21441Y5086D01*
X21438Y5087D01*
X21435Y5089D01*
X21432Y5091D01*
X21429Y5094D01*
X21426Y5097D01*
X21423Y5100D01*
X21421Y5104D01*
X21420Y5104D01*
X21420Y5105D01*
X21419Y5106D01*
X21419Y5108D01*
X21417Y5110D01*
X21416Y5113D01*
X21415Y5117D01*
X21414Y5121D01*
X21412Y5126D01*
X21411Y5131D01*
X21410Y5138D01*
X21409Y5144D01*
X21408Y5152D01*
X21407Y5160D01*
X21407Y5169D01*
X21407Y5178D01*
Y5179D01*
Y5180D01*
Y5183D01*
X21407Y5186D01*
Y5190D01*
X21407Y5195D01*
X21408Y5200D01*
X21408Y5205D01*
X21410Y5217D01*
X21412Y5229D01*
X21414Y5235D01*
X21415Y5240D01*
X21417Y5246D01*
X21419Y5251D01*
X21420Y5251D01*
X21420Y5252D01*
X21421Y5253D01*
X21422Y5254D01*
X21423Y5256D01*
X21425Y5258D01*
X21427Y5260D01*
X21429Y5263D01*
X21434Y5267D01*
X21441Y5271D01*
X21445Y5273D01*
X21448Y5274D01*
X21453Y5275D01*
X21457Y5275D01*
X21459D01*
X21461Y5275D01*
D02*
G37*
%LPC*%
G36*
X14737Y6856D02*
X14736D01*
X14735Y6856D01*
X14732Y6855D01*
X14729Y6854D01*
X14725Y6852D01*
X14722Y6849D01*
X14720Y6848D01*
X14718Y6845D01*
X14716Y6843D01*
X14715Y6840D01*
Y6840D01*
X14714Y6839D01*
X14714Y6838D01*
X14713Y6837D01*
X14713Y6835D01*
X14712Y6833D01*
X14711Y6830D01*
X14710Y6826D01*
X14709Y6823D01*
X14709Y6818D01*
X14708Y6813D01*
X14707Y6807D01*
X14707Y6801D01*
X14706Y6794D01*
X14706Y6787D01*
Y6778D01*
Y6778D01*
Y6776D01*
Y6774D01*
X14706Y6771D01*
Y6767D01*
X14706Y6763D01*
X14707Y6758D01*
X14707Y6753D01*
X14708Y6743D01*
X14710Y6733D01*
X14711Y6728D01*
X14712Y6724D01*
X14713Y6720D01*
X14715Y6717D01*
Y6716D01*
X14715Y6716D01*
X14716Y6714D01*
X14718Y6712D01*
X14721Y6709D01*
X14724Y6706D01*
X14728Y6703D01*
X14733Y6702D01*
X14735Y6701D01*
X14738Y6701D01*
X14738D01*
X14740Y6701D01*
X14742Y6702D01*
X14745Y6703D01*
X14749Y6705D01*
X14753Y6708D01*
X14754Y6710D01*
X14756Y6712D01*
X14758Y6714D01*
X14760Y6717D01*
Y6717D01*
X14760Y6718D01*
X14761Y6719D01*
X14761Y6720D01*
X14762Y6722D01*
X14763Y6724D01*
X14763Y6727D01*
X14764Y6731D01*
X14765Y6734D01*
X14766Y6739D01*
X14767Y6744D01*
X14767Y6750D01*
X14768Y6756D01*
X14768Y6763D01*
X14769Y6770D01*
Y6778D01*
Y6779D01*
Y6780D01*
Y6783D01*
Y6786D01*
X14768Y6790D01*
X14768Y6794D01*
X14768Y6799D01*
X14768Y6804D01*
X14766Y6814D01*
X14765Y6824D01*
X14764Y6829D01*
X14763Y6833D01*
X14761Y6837D01*
X14760Y6840D01*
Y6841D01*
X14759Y6841D01*
X14758Y6843D01*
X14756Y6845D01*
X14754Y6848D01*
X14750Y6851D01*
X14746Y6854D01*
X14742Y6856D01*
X14739Y6856D01*
X14737Y6856D01*
D02*
G37*
G36*
X14616D02*
X14616D01*
X14614Y6856D01*
X14612Y6855D01*
X14609Y6854D01*
X14605Y6852D01*
X14601Y6849D01*
X14600Y6848D01*
X14598Y6845D01*
X14596Y6843D01*
X14594Y6840D01*
Y6840D01*
X14594Y6839D01*
X14593Y6838D01*
X14593Y6837D01*
X14592Y6835D01*
X14592Y6833D01*
X14591Y6830D01*
X14590Y6826D01*
X14589Y6823D01*
X14589Y6818D01*
X14588Y6813D01*
X14587Y6807D01*
X14586Y6801D01*
X14586Y6794D01*
X14586Y6787D01*
Y6778D01*
Y6778D01*
Y6776D01*
Y6774D01*
X14586Y6771D01*
Y6767D01*
X14586Y6763D01*
X14586Y6758D01*
X14587Y6753D01*
X14588Y6743D01*
X14589Y6733D01*
X14590Y6728D01*
X14591Y6724D01*
X14593Y6720D01*
X14594Y6717D01*
Y6716D01*
X14595Y6716D01*
X14596Y6714D01*
X14598Y6712D01*
X14601Y6709D01*
X14604Y6706D01*
X14608Y6703D01*
X14612Y6702D01*
X14615Y6701D01*
X14617Y6701D01*
X14618D01*
X14620Y6701D01*
X14622Y6702D01*
X14625Y6703D01*
X14629Y6705D01*
X14632Y6708D01*
X14634Y6710D01*
X14636Y6712D01*
X14638Y6714D01*
X14639Y6717D01*
Y6717D01*
X14640Y6718D01*
X14640Y6719D01*
X14641Y6720D01*
X14641Y6722D01*
X14642Y6724D01*
X14643Y6727D01*
X14644Y6731D01*
X14645Y6734D01*
X14645Y6739D01*
X14646Y6744D01*
X14647Y6750D01*
X14648Y6756D01*
X14648Y6763D01*
X14648Y6770D01*
Y6778D01*
Y6779D01*
Y6780D01*
Y6783D01*
Y6786D01*
X14648Y6790D01*
X14648Y6794D01*
X14648Y6799D01*
X14647Y6804D01*
X14646Y6814D01*
X14645Y6824D01*
X14643Y6829D01*
X14642Y6833D01*
X14641Y6837D01*
X14639Y6840D01*
Y6841D01*
X14639Y6841D01*
X14638Y6843D01*
X14636Y6845D01*
X14633Y6848D01*
X14630Y6851D01*
X14626Y6854D01*
X14621Y6856D01*
X14619Y6856D01*
X14616Y6856D01*
D02*
G37*
G36*
X19148Y6008D02*
X19147D01*
X19146Y6007D01*
X19143Y6007D01*
X19141Y6006D01*
X19137Y6005D01*
X19133Y6003D01*
X19129Y6000D01*
X19126Y5997D01*
X19126Y5996D01*
X19124Y5995D01*
X19123Y5992D01*
X19122Y5989D01*
X19120Y5984D01*
X19118Y5979D01*
X19117Y5973D01*
X19117Y5967D01*
Y5966D01*
Y5966D01*
Y5964D01*
X19117Y5963D01*
Y5961D01*
X19117Y5960D01*
X19118Y5955D01*
X19119Y5950D01*
X19121Y5944D01*
X19123Y5939D01*
X19127Y5934D01*
X19127Y5933D01*
X19128Y5932D01*
X19130Y5930D01*
X19133Y5927D01*
X19136Y5925D01*
X19140Y5923D01*
X19144Y5922D01*
X19149Y5921D01*
X19150D01*
X19151Y5922D01*
X19153Y5922D01*
X19156Y5923D01*
X19159Y5924D01*
X19162Y5926D01*
X19166Y5929D01*
X19169Y5933D01*
X19169Y5934D01*
X19171Y5935D01*
X19172Y5938D01*
X19174Y5941D01*
X19175Y5946D01*
X19177Y5951D01*
X19178Y5958D01*
X19178Y5965D01*
Y5965D01*
Y5966D01*
Y5967D01*
Y5968D01*
X19178Y5970D01*
X19178Y5972D01*
X19177Y5976D01*
X19176Y5981D01*
X19174Y5987D01*
X19172Y5992D01*
X19169Y5996D01*
X19169Y5997D01*
X19168Y5998D01*
X19166Y6000D01*
X19163Y6002D01*
X19160Y6004D01*
X19157Y6006D01*
X19153Y6007D01*
X19148Y6008D01*
D02*
G37*
G36*
X14646Y7176D02*
X14646D01*
X14644Y7176D01*
X14642Y7175D01*
X14639Y7174D01*
X14635Y7172D01*
X14631Y7169D01*
X14630Y7168D01*
X14628Y7165D01*
X14626Y7163D01*
X14624Y7160D01*
Y7160D01*
X14624Y7159D01*
X14623Y7158D01*
X14623Y7157D01*
X14622Y7155D01*
X14622Y7153D01*
X14621Y7150D01*
X14620Y7146D01*
X14619Y7143D01*
X14619Y7138D01*
X14618Y7133D01*
X14617Y7127D01*
X14616Y7121D01*
X14616Y7114D01*
X14616Y7107D01*
Y7098D01*
Y7098D01*
Y7096D01*
Y7094D01*
X14616Y7091D01*
Y7087D01*
X14616Y7083D01*
X14616Y7078D01*
X14617Y7073D01*
X14618Y7063D01*
X14619Y7053D01*
X14620Y7048D01*
X14621Y7044D01*
X14623Y7040D01*
X14624Y7037D01*
Y7036D01*
X14625Y7036D01*
X14626Y7034D01*
X14628Y7032D01*
X14631Y7029D01*
X14634Y7026D01*
X14638Y7023D01*
X14642Y7022D01*
X14645Y7021D01*
X14647Y7021D01*
X14648D01*
X14650Y7021D01*
X14652Y7022D01*
X14655Y7023D01*
X14659Y7025D01*
X14662Y7028D01*
X14664Y7030D01*
X14666Y7032D01*
X14668Y7034D01*
X14669Y7037D01*
Y7037D01*
X14670Y7038D01*
X14670Y7039D01*
X14671Y7040D01*
X14671Y7042D01*
X14672Y7044D01*
X14673Y7047D01*
X14674Y7051D01*
X14675Y7054D01*
X14675Y7059D01*
X14676Y7064D01*
X14677Y7070D01*
X14677Y7076D01*
X14678Y7083D01*
X14678Y7090D01*
Y7098D01*
Y7099D01*
Y7100D01*
Y7103D01*
Y7106D01*
X14678Y7110D01*
X14678Y7114D01*
X14677Y7119D01*
X14677Y7124D01*
X14676Y7134D01*
X14675Y7144D01*
X14673Y7149D01*
X14672Y7153D01*
X14671Y7157D01*
X14669Y7160D01*
Y7161D01*
X14669Y7161D01*
X14668Y7163D01*
X14666Y7165D01*
X14663Y7168D01*
X14660Y7171D01*
X14656Y7174D01*
X14651Y7176D01*
X14649Y7176D01*
X14646Y7176D01*
D02*
G37*
G36*
X21457Y5256D02*
X21456D01*
X21455Y5256D01*
X21452Y5255D01*
X21449Y5254D01*
X21445Y5252D01*
X21442Y5249D01*
X21440Y5248D01*
X21438Y5245D01*
X21436Y5243D01*
X21435Y5240D01*
Y5240D01*
X21434Y5239D01*
X21434Y5238D01*
X21433Y5237D01*
X21433Y5235D01*
X21432Y5233D01*
X21431Y5230D01*
X21430Y5226D01*
X21429Y5223D01*
X21429Y5218D01*
X21428Y5213D01*
X21427Y5207D01*
X21427Y5201D01*
X21426Y5194D01*
X21426Y5187D01*
Y5178D01*
Y5178D01*
Y5176D01*
Y5174D01*
X21426Y5171D01*
Y5167D01*
X21426Y5163D01*
X21427Y5158D01*
X21427Y5153D01*
X21428Y5143D01*
X21430Y5133D01*
X21431Y5128D01*
X21432Y5124D01*
X21433Y5120D01*
X21435Y5117D01*
Y5116D01*
X21435Y5116D01*
X21436Y5114D01*
X21438Y5112D01*
X21441Y5109D01*
X21444Y5106D01*
X21448Y5103D01*
X21453Y5102D01*
X21455Y5101D01*
X21458Y5101D01*
X21458D01*
X21460Y5101D01*
X21462Y5102D01*
X21465Y5103D01*
X21469Y5105D01*
X21473Y5108D01*
X21474Y5110D01*
X21476Y5112D01*
X21478Y5114D01*
X21480Y5117D01*
Y5117D01*
X21480Y5118D01*
X21481Y5119D01*
X21481Y5120D01*
X21482Y5122D01*
X21483Y5124D01*
X21483Y5127D01*
X21484Y5131D01*
X21485Y5134D01*
X21486Y5139D01*
X21487Y5144D01*
X21487Y5150D01*
X21488Y5156D01*
X21488Y5163D01*
X21489Y5170D01*
Y5178D01*
Y5179D01*
Y5180D01*
Y5183D01*
Y5186D01*
X21488Y5190D01*
X21488Y5194D01*
X21488Y5199D01*
X21488Y5204D01*
X21486Y5214D01*
X21485Y5224D01*
X21484Y5229D01*
X21483Y5233D01*
X21481Y5237D01*
X21480Y5240D01*
Y5241D01*
X21479Y5241D01*
X21478Y5243D01*
X21476Y5245D01*
X21474Y5248D01*
X21470Y5251D01*
X21466Y5254D01*
X21462Y5256D01*
X21459Y5256D01*
X21457Y5256D01*
D02*
G37*
%LPD*%
D35*
X4685Y2677D02*
G03*
X4685Y2677I-1575J0D01*
G01*
X23430Y20601D02*
G03*
X22717Y20601I-356J16D01*
G01*
X36525Y3310D02*
X38454D01*
X39084Y3940D01*
X35895D02*
X36525Y3310D01*
X38494Y6459D02*
X39084Y5869D01*
Y3940D02*
Y5869D01*
X36447Y6459D02*
X38494D01*
X35895Y5908D02*
X36447Y6459D01*
X35895Y3940D02*
Y5908D01*
X13642Y1075D02*
Y1981D01*
Y1075D02*
X13642D01*
X13760Y957D01*
X13642Y1981D02*
X13760D01*
X14981Y1075D02*
X14981Y2020D01*
X14902Y1075D02*
X14981Y1075D01*
X14902Y2020D02*
X14981D01*
X13957Y1390D02*
X13997D01*
X31519Y5510D02*
X31637Y5391D01*
Y4171D02*
Y5391D01*
X31046Y4171D02*
X31637D01*
X31164Y5510D02*
X31519D01*
X31046Y5391D02*
X31164Y5510D01*
X31046Y4171D02*
Y5391D01*
X30802Y1070D02*
Y1976D01*
Y1070D02*
X30920Y952D01*
X30802Y1976D02*
X30920D01*
X32141Y1070D02*
Y2015D01*
X32062Y1070D02*
X32141D01*
X32062Y2015D02*
X32141D01*
X31117Y1385D02*
X31157D01*
X28812Y1055D02*
Y1961D01*
Y1055D02*
X28930Y937D01*
X28812Y1961D02*
X28930D01*
X30151Y1055D02*
Y2000D01*
X30072Y1055D02*
X30151D01*
X30072Y2000D02*
X30151D01*
X29127Y1370D02*
X29167D01*
X26822Y1060D02*
Y1966D01*
Y1060D02*
X26940Y942D01*
X26822Y1966D02*
X26940D01*
X28161Y1060D02*
Y2005D01*
X28082Y1060D02*
X28161D01*
X28082Y2005D02*
X28161D01*
X27137Y1375D02*
X27177D01*
X24818Y1065D02*
Y1971D01*
Y1065D02*
X24936Y947D01*
X24818Y1971D02*
X24936D01*
X26157Y1065D02*
Y2010D01*
X26078Y1065D02*
X26157D01*
X26078Y2010D02*
X26157D01*
X25133Y1380D02*
X25173D01*
X22822Y1060D02*
Y1966D01*
Y1060D02*
X22940Y942D01*
X22822Y1966D02*
X22940D01*
X24161Y1060D02*
Y2005D01*
X24082Y1060D02*
X24161D01*
X24082Y2005D02*
X24161D01*
X23137Y1375D02*
X23177D01*
X23898Y17910D02*
X24016Y18028D01*
X22678Y17910D02*
X23898D01*
X22678D02*
Y18500D01*
X24016Y18028D02*
Y18382D01*
X23898Y18500D02*
X24016Y18382D01*
X22678Y18500D02*
X23898D01*
X-4179Y54D02*
Y9137D01*
Y16955D02*
Y26038D01*
X-4379Y654D02*
X-4179Y54D01*
X-3979Y654D01*
X-4379Y25438D02*
X-4179Y26038D01*
X-3979Y25438D01*
X-4279Y54D02*
X-4079D01*
X-4279Y26038D02*
X-4079D01*
X13002Y28716D02*
X17264Y28708D01*
X24882Y28694D02*
X29144Y28686D01*
X13002Y28716D02*
X13602Y28915D01*
X13002Y28716D02*
X13602Y28515D01*
X28544Y28887D02*
X29144Y28686D01*
X28543Y28487D02*
X29144Y28686D01*
X13002Y28616D02*
X13002Y28816D01*
X29143Y28586D02*
X29144Y28786D01*
X-19Y-1885D02*
X15712Y-1897D01*
X23530Y-1903D02*
X39261Y-1915D01*
X-19Y-1885D02*
X581Y-1685D01*
X-19Y-1885D02*
X581Y-2085D01*
X38661Y-1714D02*
X39261Y-1915D01*
X38661Y-2114D02*
X39261Y-1915D01*
X-19Y-1985D02*
X-19Y-1785D01*
X39261Y-2015D02*
X39261Y-1815D01*
X34468Y3417D02*
X34507D01*
X34350Y3299D02*
Y3968D01*
X34389Y3299D02*
X34468D01*
X34350Y3968D02*
X34468D01*
X32998Y1393D02*
X33116Y1511D01*
X34336Y1511D01*
Y920D02*
Y1511D01*
X32998Y1038D02*
Y1393D01*
Y1038D02*
X33116Y920D01*
X34336D01*
X23898Y17241D02*
X24016Y17359D01*
X22678Y17241D02*
X23898D01*
X22678D02*
Y17831D01*
X24016Y17359D02*
Y17713D01*
X23898Y17831D02*
X24016Y17713D01*
X22678Y17831D02*
X23898D01*
X23793Y19245D02*
Y20426D01*
X20250D02*
X23793D01*
X20250Y19245D02*
Y20426D01*
Y19245D02*
X23793D01*
X19725Y20522D02*
Y25956D01*
X22796Y25916D02*
X22835Y25956D01*
X19725D02*
X26457D01*
Y20522D02*
Y25956D01*
X19725Y20522D02*
X26457D01*
X25428Y14033D02*
X25546Y14151D01*
X26766D01*
Y13560D02*
Y14151D01*
X25428Y13678D02*
X25428Y14033D01*
X25428Y13678D02*
X25546Y13560D01*
X26766D01*
X25418Y14733D02*
X25536Y14851D01*
X26756D01*
Y14260D02*
Y14851D01*
X25418Y14378D02*
Y14733D01*
Y14378D02*
X25536Y14260D01*
X26756D01*
X32520Y15236D02*
Y15836D01*
X32720Y15636D01*
X32920Y15836D01*
Y15236D01*
X33519D02*
X33119D01*
X33519Y15636D01*
Y15736D01*
X33419Y15836D01*
X33219D01*
X33119Y15736D01*
D39*
X39331Y15646D02*
G03*
X38897Y16041I-420J-26D01*
G01*
X501Y15926D02*
G03*
X-21Y15479I-169J-331D01*
G01*
X29361Y25635D02*
G03*
X28862Y26142I-478J28D01*
G01*
X13411Y26145D02*
G03*
X12911Y25645I-63J-437D01*
G01*
X29361Y16525D02*
G03*
X29861Y16025I403J-97D01*
G01*
X12351Y15975D02*
G03*
X12851Y16475I54J446D01*
G01*
X39356Y490D02*
X39381Y465D01*
X39356Y490D02*
Y15285D01*
X-39Y55D02*
X39356D01*
D81*
X24151Y18815D02*
G03*
X24151Y18815I-500J0D01*
G01*
X7193Y8189D02*
G03*
X7193Y8189I-500J0D01*
G01*
X24871Y19635D02*
G03*
X24871Y19635I-500J0D01*
G01*
X23841Y7445D02*
G03*
X23841Y7445I-500J0D01*
G01*
X31441Y7155D02*
G03*
X31441Y7155I-500J0D01*
G01*
X31381Y8305D02*
G03*
X31381Y8305I-500J0D01*
G01*
X18650Y12913D02*
G03*
X18650Y12913I-500J0D01*
G01*
X18651Y12185D02*
G03*
X18651Y12185I-500J0D01*
G01*
X16641Y12355D02*
G03*
X16641Y12355I-500J0D01*
G01*
X15691Y8765D02*
G03*
X15691Y8765I-500J0D01*
G01*
X16371Y8775D02*
G03*
X16371Y8775I-500J0D01*
G01*
X14721Y12235D02*
G03*
X14721Y12235I-500J0D01*
G01*
X14741Y13035D02*
G03*
X14741Y13035I-500J0D01*
G01*
X12131Y12275D02*
G03*
X12131Y12275I-500J0D01*
G01*
X10851Y23155D02*
X12851D01*
X10851Y22655D02*
X13351D01*
X10851Y21155D02*
X12851D01*
X10851Y21655D02*
X13351D01*
X10851Y22155D02*
X12851D01*
X10851Y23655D02*
X13351D01*
X10851Y24155D02*
X12851D01*
X10851Y24655D02*
X13351D01*
X10851Y25655D02*
X13851Y25655D01*
Y20155D02*
Y25655D01*
X13351Y20155D02*
X13851D01*
X10851D02*
X13351D01*
X10851Y25905D02*
X10851Y19905D01*
X18101D01*
Y25905D01*
X10851D02*
X18101D01*
Y21905D02*
Y25905D01*
X16351D02*
X18101D01*
X33631Y2855D02*
Y4555D01*
X32831D02*
X33631D01*
X32831Y2855D02*
Y4555D01*
Y2855D02*
X33631D01*
X35789Y2306D02*
X35747Y2264D01*
Y2181D01*
X35789Y2139D01*
X35956D01*
X35997Y2181D01*
Y2264D01*
X35956Y2306D01*
Y2389D02*
X35997Y2431D01*
Y2514D01*
X35956Y2556D01*
X35789D01*
X35747Y2514D01*
Y2431D01*
X35789Y2389D01*
X35831D01*
X35872Y2431D01*
Y2556D01*
X19355Y8011D02*
X19321Y8044D01*
X19255D01*
X19221Y8011D01*
Y7877D01*
X19255Y7844D01*
X19321D01*
X19355Y7877D01*
X19421Y7844D02*
X19488D01*
X19455D01*
Y8044D01*
X19421Y8011D01*
X19721Y7844D02*
X19588D01*
X19721Y7977D01*
Y8011D01*
X19688Y8044D01*
X19621D01*
X19588Y8011D01*
X19888Y7844D02*
Y8044D01*
X19788Y7944D01*
X19921D01*
X11591Y14455D02*
X11791D01*
Y14589D01*
Y14655D02*
Y14722D01*
Y14689D01*
X11591D01*
X11625Y14655D01*
X11591Y14955D02*
X11625Y14888D01*
X11691Y14822D01*
X11758D01*
X11791Y14855D01*
Y14922D01*
X11758Y14955D01*
X11725D01*
X11691Y14922D01*
Y14822D01*
X11121Y14535D02*
X11321D01*
Y14669D01*
Y14735D02*
Y14802D01*
Y14769D01*
X11121D01*
X11155Y14735D01*
Y14902D02*
X11121Y14935D01*
Y15002D01*
X11155Y15035D01*
X11188D01*
X11221Y15002D01*
X11255Y15035D01*
X11288D01*
X11321Y15002D01*
Y14935D01*
X11288Y14902D01*
X11255D01*
X11221Y14935D01*
X11188Y14902D01*
X11155D01*
X11221Y14935D02*
Y15002D01*
X16101Y14445D02*
X16301D01*
Y14579D01*
Y14778D02*
Y14645D01*
X16168Y14778D01*
X16135D01*
X16101Y14745D01*
Y14679D01*
X16135Y14645D01*
X16301Y14978D02*
Y14845D01*
X16168Y14978D01*
X16135D01*
X16101Y14945D01*
Y14878D01*
X16135Y14845D01*
X16650Y14449D02*
X16850D01*
Y14582D01*
Y14782D02*
Y14649D01*
X16717Y14782D01*
X16684D01*
X16650Y14749D01*
Y14682D01*
X16684Y14649D01*
X16650Y14982D02*
Y14849D01*
X16750D01*
X16717Y14915D01*
Y14949D01*
X16750Y14982D01*
X16817D01*
X16850Y14949D01*
Y14882D01*
X16817Y14849D01*
X17971Y14475D02*
X18171D01*
Y14609D01*
Y14808D02*
Y14675D01*
X18038Y14808D01*
X18005D01*
X17971Y14775D01*
Y14709D01*
X18005Y14675D01*
X17971Y15008D02*
X18005Y14942D01*
X18071Y14875D01*
X18138D01*
X18171Y14908D01*
Y14975D01*
X18138Y15008D01*
X18105D01*
X18071Y14975D01*
Y14875D01*
X34567Y5118D02*
Y5318D01*
X34667D01*
X34700Y5285D01*
Y5218D01*
X34667Y5185D01*
X34567D01*
X34634D02*
X34700Y5118D01*
X34767D02*
X34834D01*
X34800D01*
Y5318D01*
X34767Y5285D01*
X34933D02*
X34967Y5318D01*
X35033D01*
X35067Y5285D01*
Y5251D01*
X35033Y5218D01*
X35067Y5185D01*
Y5151D01*
X35033Y5118D01*
X34967D01*
X34933Y5151D01*
Y5185D01*
X34967Y5218D01*
X34933Y5251D01*
Y5285D01*
X34967Y5218D02*
X35033D01*
X12551Y12755D02*
X12351D01*
Y12855D01*
X12385Y12889D01*
X12451D01*
X12485Y12855D01*
Y12755D01*
Y12822D02*
X12551Y12889D01*
X12351Y12955D02*
Y13089D01*
X12385D01*
X12518Y12955D01*
X12551D01*
X12351Y13288D02*
Y13155D01*
X12451D01*
X12418Y13222D01*
Y13255D01*
X12451Y13288D01*
X12518D01*
X12551Y13255D01*
Y13188D01*
X12518Y13155D01*
X9882Y13150D02*
Y13350D01*
X9982D01*
X10015Y13316D01*
Y13250D01*
X9982Y13216D01*
X9882D01*
X9949D02*
X10015Y13150D01*
X10082Y13350D02*
X10215D01*
Y13316D01*
X10082Y13183D01*
Y13150D01*
X10282Y13350D02*
X10415D01*
Y13316D01*
X10282Y13183D01*
Y13150D01*
X17741Y14365D02*
X17541D01*
Y14465D01*
X17575Y14499D01*
X17641D01*
X17675Y14465D01*
Y14365D01*
Y14432D02*
X17741Y14499D01*
X17708Y14565D02*
X17741Y14599D01*
Y14665D01*
X17708Y14698D01*
X17575D01*
X17541Y14665D01*
Y14599D01*
X17575Y14565D01*
X17608D01*
X17641Y14599D01*
Y14698D01*
X17741Y14865D02*
X17541D01*
X17641Y14765D01*
Y14898D01*
X21251Y14445D02*
X21051D01*
Y14545D01*
X21085Y14579D01*
X21151D01*
X21185Y14545D01*
Y14445D01*
Y14512D02*
X21251Y14579D01*
Y14645D02*
Y14712D01*
Y14679D01*
X21051D01*
X21085Y14645D01*
Y14812D02*
X21051Y14845D01*
Y14912D01*
X21085Y14945D01*
X21218D01*
X21251Y14912D01*
Y14845D01*
X21218Y14812D01*
X21085D01*
X21251Y15112D02*
X21051D01*
X21151Y15012D01*
Y15145D01*
X1072Y3397D02*
X1030Y3439D01*
X947D01*
X906Y3397D01*
Y3231D01*
X947Y3189D01*
X1030D01*
X1072Y3231D01*
X1155Y3397D02*
X1197Y3439D01*
X1280D01*
X1322Y3397D01*
Y3356D01*
X1280Y3314D01*
X1239D01*
X1280D01*
X1322Y3272D01*
Y3231D01*
X1280Y3189D01*
X1197D01*
X1155Y3231D01*
X1405Y3189D02*
X1489D01*
X1447D01*
Y3439D01*
X1405Y3397D01*
D82*
X28216Y19770D02*
G03*
X28216Y19770I-49J0D01*
G01*
X5689Y6096D02*
G03*
X5689Y6096I-49J0D01*
G01*
X14419Y6066D02*
G03*
X14419Y6066I-49J0D01*
G01*
X18728Y6072D02*
G03*
X18728Y6072I-49J0D01*
G01*
X10048Y6062D02*
G03*
X10048Y6062I-49J0D01*
G01*
X23028Y6072D02*
G03*
X23028Y6072I-49J0D01*
G01*
X25996Y10800D02*
G03*
X25996Y10800I-49J0D01*
G01*
D83*
X24151Y18815D02*
X24351D01*
X6693Y8689D02*
Y8889D01*
X24871Y19635D02*
X25071D01*
X23341Y7945D02*
Y8145D01*
X30941Y7655D02*
Y7855D01*
X30881Y8805D02*
Y9005D01*
X17450Y12913D02*
X17650D01*
X18151Y12685D02*
Y12885D01*
X16141Y12855D02*
Y13055D01*
X15191Y9265D02*
Y9465D01*
X15871Y9275D02*
Y9475D01*
X14221Y12735D02*
Y12935D01*
X14241Y13535D02*
Y13735D01*
X11631Y12775D02*
Y12975D01*
X8941Y14505D02*
X9141D01*
Y14639D01*
Y14705D02*
Y14772D01*
Y14739D01*
X8941D01*
X8975Y14705D01*
X9141Y14972D02*
X8941D01*
X9041Y14872D01*
Y15005D01*
X2741Y12675D02*
Y12875D01*
X2841D01*
X2875Y12842D01*
Y12775D01*
X2841Y12742D01*
X2741D01*
X2808D02*
X2875Y12675D01*
X3041D02*
Y12875D01*
X2941Y12775D01*
X3074D01*
X3141Y12842D02*
X3174Y12875D01*
X3241D01*
X3274Y12842D01*
Y12709D01*
X3241Y12675D01*
X3174D01*
X3141Y12709D01*
Y12842D01*
X22520Y13550D02*
X22686D01*
X22603Y13633D02*
Y13467D01*
X22770Y13633D02*
X22811Y13675D01*
X22895D01*
X22936Y13633D01*
Y13592D01*
X22895Y13550D01*
X22853D01*
X22895D01*
X22936Y13508D01*
Y13467D01*
X22895Y13425D01*
X22811D01*
X22770Y13467D01*
X23020Y13425D02*
Y13467D01*
X23061D01*
Y13425D01*
X23020D01*
X23228Y13633D02*
X23269Y13675D01*
X23353D01*
X23394Y13633D01*
Y13592D01*
X23353Y13550D01*
X23311D01*
X23353D01*
X23394Y13508D01*
Y13467D01*
X23353Y13425D01*
X23269D01*
X23228Y13467D01*
X23478Y13675D02*
Y13508D01*
X23561Y13425D01*
X23644Y13508D01*
Y13675D01*
X-3819Y9637D02*
Y9237D01*
X-4219Y9637D01*
X-4319D01*
X-4419Y9537D01*
Y9337D01*
X-4319Y9237D01*
X-4419Y10237D02*
Y9837D01*
X-4119D01*
X-4219Y10037D01*
Y10137D01*
X-4119Y10237D01*
X-3919D01*
X-3819Y10137D01*
Y9937D01*
X-3919Y9837D01*
Y10437D02*
X-3819Y10537D01*
Y10737D01*
X-3919Y10837D01*
X-4319D01*
X-4419Y10737D01*
Y10537D01*
X-4319Y10437D01*
X-4219D01*
X-4119Y10537D01*
Y10837D01*
X-4319Y11036D02*
X-4419Y11136D01*
Y11336D01*
X-4319Y11436D01*
X-4219D01*
X-4119Y11336D01*
X-4019Y11436D01*
X-3919D01*
X-3819Y11336D01*
Y11136D01*
X-3919Y11036D01*
X-4019D01*
X-4119Y11136D01*
X-4219Y11036D01*
X-4319D01*
X-4119Y11136D02*
Y11336D01*
X-3819Y11636D02*
X-3919D01*
Y11736D01*
X-3819D01*
Y11636D01*
Y12436D02*
X-4419D01*
X-4119Y12136D01*
Y12536D01*
X-3819Y12736D02*
Y12936D01*
Y12836D01*
X-4419D01*
X-4319Y12736D01*
X-3819Y13536D02*
X-4419D01*
X-4119Y13236D01*
Y13636D01*
X-3819Y14635D02*
X-4019Y14435D01*
X-4219D01*
X-4419Y14635D01*
X-3819Y14935D02*
X-4219D01*
Y15035D01*
X-4119Y15135D01*
X-3819D01*
X-4119D01*
X-4219Y15235D01*
X-4119Y15335D01*
X-3819D01*
Y15535D02*
Y15735D01*
Y15635D01*
X-4219D01*
Y15535D01*
X-3819Y16035D02*
Y16235D01*
Y16135D01*
X-4419D01*
Y16035D01*
X-3819Y16535D02*
X-4019Y16735D01*
X-4219D01*
X-4419Y16535D01*
X17363Y28348D02*
X17563Y28348D01*
X17463Y28348D01*
X17464Y28948D01*
X17364Y28848D01*
X18264Y28946D02*
X18064Y28846D01*
X17864Y28647D01*
X17863Y28447D01*
X17963Y28347D01*
X18163Y28346D01*
X18263Y28446D01*
X18263Y28546D01*
X18164Y28646D01*
X17864Y28647D01*
X18463Y28346D02*
X18663Y28346D01*
X18563Y28346D01*
X18564Y28946D01*
X18464Y28846D01*
X19263Y28344D02*
X19264Y28944D01*
X18963Y28645D01*
X19363Y28644D01*
X19563Y28344D02*
X19563Y28444D01*
X19663Y28444D01*
X19662Y28344D01*
X19563Y28344D01*
X20062Y28343D02*
X20262Y28343D01*
X20162Y28343D01*
X20163Y28943D01*
X20063Y28843D01*
X20963Y28941D02*
X20763Y28841D01*
X20563Y28642D01*
X20562Y28442D01*
X20662Y28342D01*
X20862Y28341D01*
X20962Y28441D01*
X20962Y28541D01*
X20863Y28641D01*
X20563Y28642D01*
X21163Y28841D02*
X21263Y28941D01*
X21463Y28940D01*
X21563Y28840D01*
X21563Y28740D01*
X21462Y28640D01*
X21562Y28540D01*
X21562Y28440D01*
X21462Y28340D01*
X21262Y28341D01*
X21162Y28441D01*
X21162Y28541D01*
X21263Y28641D01*
X21163Y28741D01*
X21163Y28841D01*
X21263Y28641D02*
X21462Y28640D01*
X22562Y28338D02*
X22362Y28539D01*
X22362Y28739D01*
X22563Y28938D01*
X22861Y28338D02*
X22862Y28738D01*
X22962Y28737D01*
X23062Y28637D01*
X23061Y28337D01*
X23062Y28637D01*
X23162Y28737D01*
X23262Y28637D01*
X23261Y28337D01*
X23461Y28337D02*
X23661Y28336D01*
X23561Y28336D01*
X23562Y28736D01*
X23462Y28736D01*
X23961Y28336D02*
X24161Y28335D01*
X24061Y28336D01*
X24062Y28935D01*
X23962Y28935D01*
X24461Y28335D02*
X24661Y28534D01*
X24662Y28734D01*
X24462Y28935D01*
X15813Y-1757D02*
X15913Y-1657D01*
X16113Y-1657D01*
X16212Y-1757D01*
X16212Y-1857D01*
X16112Y-1957D01*
X16012Y-1957D01*
X16112Y-1957D01*
X16212Y-2057D01*
X16212Y-2157D01*
X16112Y-2257D01*
X15912Y-2257D01*
X15812Y-2157D01*
X16412Y-2157D02*
X16512Y-2257D01*
X16712Y-2257D01*
X16812Y-2158D01*
X16812Y-1758D01*
X16712Y-1658D01*
X16512Y-1657D01*
X16412Y-1757D01*
X16412Y-1857D01*
X16512Y-1957D01*
X16812Y-1958D01*
X17412Y-2258D02*
X17012Y-2258D01*
X17412Y-1858D01*
X17412Y-1758D01*
X17312Y-1658D01*
X17112Y-1658D01*
X17012Y-1758D01*
X17612Y-1758D02*
X17712Y-1658D01*
X17912Y-1659D01*
X18012Y-1759D01*
X18012Y-1859D01*
X17912Y-1958D01*
X18012Y-2058D01*
X18012Y-2158D01*
X17912Y-2258D01*
X17712Y-2258D01*
X17612Y-2158D01*
X17612Y-2058D01*
X17712Y-1958D01*
X17612Y-1858D01*
X17612Y-1758D01*
X17712Y-1958D02*
X17912Y-1958D01*
X18211Y-2259D02*
X18211Y-2159D01*
X18311Y-2159D01*
X18311Y-2259D01*
X18211Y-2259D01*
X18712Y-1759D02*
X18812Y-1659D01*
X19012Y-1659D01*
X19112Y-1759D01*
X19111Y-2159D01*
X19011Y-2259D01*
X18811Y-2259D01*
X18711Y-2159D01*
X18712Y-1759D01*
X19311Y-1760D02*
X19411Y-1660D01*
X19611Y-1660D01*
X19711Y-1760D01*
X19711Y-2160D01*
X19611Y-2260D01*
X19411Y-2259D01*
X19311Y-2159D01*
X19311Y-1760D01*
X19911Y-2260D02*
X20111Y-2260D01*
X20011Y-2260D01*
X20011Y-1660D01*
X19911Y-1760D01*
X21210Y-2261D02*
X21011Y-2061D01*
X21011Y-1861D01*
X21211Y-1661D01*
X21510Y-2261D02*
X21511Y-1861D01*
X21611Y-1861D01*
X21711Y-1961D01*
X21710Y-2261D01*
X21711Y-1961D01*
X21811Y-1861D01*
X21910Y-1961D01*
X21910Y-2261D01*
X22110Y-2262D02*
X22310Y-2262D01*
X22210Y-2262D01*
X22210Y-1862D01*
X22110Y-1862D01*
X22610Y-2262D02*
X22810Y-2262D01*
X22710Y-2262D01*
X22710Y-1662D01*
X22610Y-1662D01*
X23110Y-2262D02*
X23310Y-2063D01*
X23310Y-1863D01*
X23110Y-1662D01*
D84*
X23720Y16345D02*
Y16725D01*
X22900Y16345D02*
X23720D01*
X22900D02*
Y16725D01*
X23720D01*
X25066Y17251D02*
Y17631D01*
X25886D01*
Y17251D02*
Y17631D01*
X25066Y17251D02*
X25886D01*
X25144Y20086D02*
Y20466D01*
X25964D01*
Y20086D02*
Y20466D01*
X25144Y20086D02*
X25964D01*
X25099Y19298D02*
Y19678D01*
X25919D01*
Y19298D02*
Y19678D01*
X25099Y19298D02*
X25919D01*
X25026Y16306D02*
Y16686D01*
X25846D01*
Y16306D02*
Y16686D01*
X25026Y16306D02*
X25846D01*
X22900Y16779D02*
Y17158D01*
X23720D01*
Y16779D02*
Y17158D01*
X22900Y16779D02*
X23720D01*
X28196Y19905D02*
X28576D01*
X28196D02*
Y20725D01*
X28576D01*
Y19905D02*
Y20725D01*
X14831Y6945D02*
X15651D01*
X14831Y6565D02*
Y6945D01*
Y6565D02*
X15651D01*
Y6945D01*
X14831Y6555D02*
X15651D01*
X14831Y6175D02*
Y6555D01*
Y6175D02*
X15651D01*
Y6555D01*
X34321Y3555D02*
Y4375D01*
X33941D02*
X34321D01*
X33941Y3555D02*
Y4375D01*
Y3555D02*
X34321D01*
X18151Y22465D02*
X18531D01*
Y21645D02*
Y22465D01*
X18151Y21645D02*
X18531D01*
X18151D02*
Y22465D01*
X18141Y23455D02*
X18521D01*
Y22635D02*
Y23455D01*
X18141Y22635D02*
X18521D01*
X18141D02*
Y23455D01*
X18151Y20705D02*
X18531D01*
X18151D02*
Y21525D01*
X18531D01*
Y20705D02*
Y21525D01*
X18181Y23965D02*
X18561D01*
X18181D02*
Y24785D01*
X18561D01*
Y23965D02*
Y24785D01*
X11201Y9465D02*
Y11815D01*
X12201D01*
Y9465D02*
Y11815D01*
X11201Y9465D02*
X12201D01*
X1741Y14405D02*
X2201D01*
X1741Y13395D02*
X2201D01*
X1741D02*
Y14405D01*
X2201Y13395D02*
Y14405D01*
X19901Y9475D02*
Y11825D01*
X20901D01*
Y9475D02*
Y11825D01*
X19901Y9475D02*
X20901D01*
X34301Y4915D02*
X35121D01*
X34301Y4535D02*
Y4915D01*
Y4535D02*
X35121D01*
Y4915D01*
X37741Y665D02*
X38741D01*
Y3015D01*
X37741D02*
X38741D01*
X37741Y665D02*
Y3015D01*
X6651Y9475D02*
Y10295D01*
X6271D02*
X6651D01*
X6271Y9475D02*
Y10295D01*
Y9475D02*
X6651D01*
X19821Y14365D02*
X20281D01*
X19821Y13355D02*
X20281D01*
X19821D02*
Y14365D01*
X20281Y13355D02*
Y14365D01*
X14851Y12765D02*
X15311D01*
X14851Y11755D02*
X15311D01*
X14851D02*
Y12765D01*
X15311Y11755D02*
Y12765D01*
X5601Y8525D02*
Y9345D01*
X5221D02*
X5601D01*
X5221Y8525D02*
Y9345D01*
Y8525D02*
X5601D01*
X5661Y9475D02*
Y11825D01*
X4661Y9475D02*
X5661D01*
X4661D02*
Y11825D01*
X5661D01*
X2311Y14405D02*
X2771D01*
X2311Y13395D02*
X2771D01*
X2311D02*
Y14405D01*
X2771Y13395D02*
Y14405D01*
X2811D02*
X3271D01*
X2811Y13395D02*
X3271D01*
X2811D02*
Y14405D01*
X3271Y13395D02*
Y14405D01*
X4721Y8535D02*
Y9355D01*
Y8535D02*
X5101D01*
Y9355D01*
X4721D02*
X5101D01*
X3221Y8525D02*
Y9345D01*
Y8525D02*
X3601D01*
Y9345D01*
X3221D02*
X3601D01*
X1871Y7815D02*
X2691D01*
X1871Y7435D02*
Y7815D01*
Y7435D02*
X2691D01*
Y7815D01*
X1851Y6445D02*
X2671D01*
X1851Y6065D02*
Y6445D01*
Y6065D02*
X2671D01*
Y6445D01*
X1871Y6925D02*
X2691D01*
X1871Y6545D02*
Y6925D01*
Y6545D02*
X2691D01*
Y6925D01*
X1861Y7375D02*
X2681D01*
X1861Y6995D02*
Y7375D01*
Y6995D02*
X2681D01*
Y7375D01*
X35121Y5385D02*
X35501D01*
X35121D02*
Y6205D01*
X35501D01*
Y5385D02*
Y6205D01*
X33901Y5385D02*
X34281D01*
X33901D02*
Y6205D01*
X34281D01*
Y5385D02*
Y6205D01*
X33361Y1595D02*
Y1975D01*
X34181D01*
Y1595D02*
Y1975D01*
X33361Y1595D02*
X34181D01*
X7281Y14395D02*
X7741D01*
X7281Y13385D02*
X7741D01*
X7281D02*
Y14395D01*
X7741Y13385D02*
Y14395D01*
X1751Y12935D02*
Y13315D01*
X2571D01*
Y12935D02*
Y13315D01*
X1751Y12935D02*
X2571D01*
X3541Y12945D02*
Y13325D01*
X2721Y12945D02*
X3541D01*
X2721D02*
Y13325D01*
X3541D01*
X8821Y8525D02*
X9201D01*
X8821D02*
Y9345D01*
X9201D01*
Y8525D02*
Y9345D01*
X7981Y12885D02*
Y13265D01*
X7161Y12885D02*
X7981D01*
X7161D02*
Y13265D01*
X7981D01*
X10221Y8525D02*
Y9345D01*
X9841D02*
X10221D01*
X9841Y8525D02*
Y9345D01*
Y8525D02*
X10221D01*
X10201Y9465D02*
Y11815D01*
X9201Y9465D02*
X10201D01*
X9201D02*
Y11815D01*
X10201D01*
X6751Y14395D02*
X7211D01*
X6751Y13385D02*
X7211D01*
X6751D02*
Y14395D01*
X7211Y13385D02*
Y14395D01*
X6211D02*
X6671D01*
X6211Y13385D02*
X6671D01*
X6211D02*
Y14395D01*
X6671Y13385D02*
Y14395D01*
X6231Y12885D02*
Y13265D01*
X7051D01*
Y12885D02*
Y13265D01*
X6231Y12885D02*
X7051D01*
X4221Y8527D02*
X4601D01*
X4221D02*
Y9347D01*
X4601D01*
Y8527D02*
Y9347D01*
X6421Y7375D02*
X7241D01*
X6421Y6995D02*
Y7375D01*
Y6995D02*
X7241D01*
Y7375D01*
X6411Y6475D02*
X7231D01*
X6411Y6095D02*
Y6475D01*
Y6095D02*
X7231D01*
Y6475D01*
X6421Y7815D02*
X7241D01*
X6421Y7435D02*
Y7815D01*
Y7435D02*
X7241D01*
Y7815D01*
X6421Y6925D02*
X7241D01*
X6421Y6545D02*
Y6925D01*
Y6545D02*
X7241D01*
Y6925D01*
X9331Y8525D02*
Y9345D01*
Y8525D02*
X9711D01*
Y9345D01*
X9331D02*
X9711D01*
X8831Y14415D02*
X9291D01*
X8831Y13405D02*
X9291D01*
X8831D02*
Y14415D01*
X9291Y13405D02*
Y14415D01*
X8681Y8525D02*
Y9345D01*
X8301D02*
X8681D01*
X8301Y8525D02*
Y9345D01*
Y8525D02*
X8681D01*
X8391Y12425D02*
X8771D01*
X8391D02*
Y13245D01*
X8771D01*
Y12425D02*
Y13245D01*
X8361Y13395D02*
X8741D01*
X8361D02*
Y14215D01*
X8741D01*
Y13395D02*
Y14215D01*
X7831Y14395D02*
X8291D01*
X7831Y13385D02*
X8291D01*
X7831D02*
Y14395D01*
X8291Y13385D02*
Y14395D01*
X7791Y8525D02*
X8171D01*
X7791D02*
Y9345D01*
X8171D01*
Y8525D02*
Y9345D01*
X6751Y9485D02*
Y11835D01*
X7751D01*
Y9485D02*
Y11835D01*
X6751Y9485D02*
X7751D01*
X13541Y8515D02*
X13541Y9335D01*
X13161D02*
X13541D01*
X13161Y8515D02*
Y9335D01*
Y8515D02*
X13541Y8515D01*
X13611Y8525D02*
X13991D01*
X13611D02*
Y9345D01*
X13991D01*
Y8525D02*
Y9345D01*
X10451Y12885D02*
X10451Y13265D01*
X11271D01*
Y12885D02*
Y13265D01*
X10451Y12885D02*
X11271D01*
X11471Y12895D02*
Y13275D01*
X12291D01*
Y12895D02*
Y13275D01*
X11471Y12895D02*
X12291D01*
X10481Y14365D02*
X10941D01*
X10481Y13355D02*
X10941D01*
X10481D02*
Y14365D01*
X10941Y13355D02*
Y14365D01*
X11621Y14355D02*
X12081D01*
X11621Y13345D02*
X12081D01*
X11621D02*
Y14355D01*
X12081Y13345D02*
Y14355D01*
X14581Y9475D02*
Y11825D01*
X13581Y9475D02*
X14581D01*
X13581D02*
Y11825D01*
X14581D01*
X14501Y8525D02*
Y9345D01*
X14121D02*
X14501D01*
X14121Y8525D02*
Y9345D01*
Y8525D02*
X14501D01*
X11041Y14365D02*
X11501D01*
X11041Y13355D02*
X11501D01*
X11041D02*
Y14365D01*
X11501Y13355D02*
Y14365D01*
X10701Y6595D02*
X11521D01*
X10701Y6215D02*
Y6595D01*
Y6215D02*
X11521D01*
Y6595D01*
X10691Y7005D02*
X11511D01*
X10691Y6625D02*
Y7005D01*
Y6625D02*
X11511D01*
Y7005D01*
X10691Y7815D02*
X11511D01*
X10691Y7435D02*
Y7815D01*
Y7435D02*
X11511D01*
Y7815D01*
X10691Y7405D02*
X11511D01*
X10691Y7025D02*
Y7405D01*
Y7025D02*
X11511D01*
Y7405D01*
X12701Y12405D02*
X13081D01*
X12701D02*
Y13225D01*
X13081D01*
Y12405D02*
Y13225D01*
X13061Y8525D02*
Y9345D01*
X12681D02*
X13061D01*
X12681Y8525D02*
Y9345D01*
Y8525D02*
X13061D01*
X6231Y12835D02*
X6691D01*
X6231Y11825D02*
X6691D01*
X6231D02*
Y12835D01*
X6691Y11825D02*
Y12835D01*
X10451Y11795D02*
X10911D01*
X10451Y12805D02*
X10911D01*
Y11795D02*
Y12805D01*
X10451Y11795D02*
Y12805D01*
X10751Y9455D02*
Y10275D01*
Y9455D02*
X11131D01*
Y10275D01*
X10751D02*
X11131D01*
X13181Y14375D02*
X13641D01*
X13181Y13365D02*
X13641D01*
X13181D02*
Y14375D01*
X13641Y13365D02*
Y14375D01*
X12190Y14365D02*
X12650D01*
X12190Y13355D02*
X12650D01*
X12190D02*
Y14365D01*
X12650Y13355D02*
Y14365D01*
X18081Y8525D02*
Y9345D01*
Y8525D02*
X18461Y8525D01*
Y9345D01*
X18081D02*
X18461D01*
X17601Y8525D02*
X17981D01*
X17601D02*
Y9345D01*
X17981D01*
Y8525D02*
Y9345D01*
X14841Y12885D02*
Y13265D01*
X15661D01*
Y12885D02*
Y13265D01*
X14841Y12885D02*
X15661D01*
X15991Y14365D02*
X16451D01*
X15991Y13355D02*
X16451D01*
X15991D02*
X15991Y14365D01*
X16451D02*
X16451Y13355D01*
X16801Y12895D02*
Y13275D01*
X15981Y12895D02*
X16801D01*
X15981D02*
Y13275D01*
X16801Y13275D01*
X18041Y9475D02*
Y11825D01*
X19041D01*
Y9475D02*
Y11825D01*
X18041Y9475D02*
X19041D01*
X15411Y14365D02*
X15871D01*
X15411Y13355D02*
X15871D01*
X15411D02*
Y14365D01*
X15871Y13355D02*
Y14365D01*
X14841D02*
X15301D01*
X14841Y13355D02*
X15301D01*
X14841D02*
Y14365D01*
X15301Y13355D02*
Y14365D01*
X18961Y8535D02*
Y9355D01*
X18581D02*
X18961D01*
X18581Y8535D02*
Y9355D01*
Y8535D02*
X18961D01*
X16601Y8525D02*
Y9345D01*
Y8525D02*
X16981D01*
Y9345D01*
X16601D02*
X16981D01*
X17471Y13425D02*
X17851D01*
X17471D02*
Y14245D01*
X17851D01*
Y13425D02*
Y14245D01*
X17101Y8525D02*
X17481D01*
X17101D02*
Y9345D01*
X17481D01*
Y8525D02*
Y9345D01*
X17891Y14385D02*
X18351D01*
X17891Y13375D02*
X18351D01*
X17891D02*
Y14385D01*
X18351Y13375D02*
Y14385D01*
X16551Y13355D02*
X17011D01*
X16551Y14365D02*
X17011D01*
Y13355D02*
Y14365D01*
X16551Y13355D02*
Y14365D01*
X17031Y12425D02*
X17411D01*
X17031D02*
Y13245D01*
X17411D01*
Y12425D02*
Y13245D01*
X15171Y9455D02*
Y10275D01*
Y9455D02*
X15551Y9455D01*
Y10275D01*
X15171Y10275D02*
X15551Y10275D01*
X22661Y9335D02*
X22661Y8515D01*
X22281Y9335D02*
X22661D01*
X22281Y8515D02*
X22281Y9335D01*
X22281Y8515D02*
X22661D01*
X21531Y14365D02*
X21991D01*
X21531Y13355D02*
X21991D01*
X21531D02*
Y14365D01*
X21991Y13355D02*
Y14365D01*
X19201Y14385D02*
X19661D01*
X19201Y13375D02*
X19661D01*
X19201D02*
Y14385D01*
X19661Y13375D02*
Y14385D01*
X20981Y13115D02*
X21361D01*
Y12295D02*
Y13115D01*
X20981Y12295D02*
X21361D01*
X20981D02*
Y13115D01*
X21841Y8515D02*
X22221Y8515D01*
X21841Y8515D02*
X21841Y9335D01*
X22221D01*
X22221Y8515D01*
X20991Y13365D02*
X21371D01*
X20991D02*
X20991Y14185D01*
X21371D01*
X21371Y13365D01*
X21421Y9335D02*
X21421Y8515D01*
X21801Y8515D01*
X21801Y9335D01*
X21421Y9335D02*
X21801Y9335D01*
X19191Y7765D02*
X20011Y7765D01*
X19191Y7385D02*
Y7765D01*
Y7385D02*
X20011Y7385D01*
Y7765D01*
X19201Y6855D02*
X20021Y6855D01*
X19201Y6475D02*
Y6855D01*
Y6475D02*
X20021Y6475D01*
Y6855D01*
X19191Y7305D02*
X20011Y7305D01*
X19191Y6925D02*
Y7305D01*
Y6925D02*
X20011Y6925D01*
Y7305D01*
X20361Y12865D02*
Y13245D01*
X19541Y12865D02*
X20361Y12865D01*
X19541Y12865D02*
Y13245D01*
X20361Y13245D01*
X18541Y14385D02*
X19001D01*
X18541Y13375D02*
X19001D01*
X18541D02*
Y14385D01*
X19001Y13375D02*
Y14385D01*
X20411Y14365D02*
X20871D01*
X20411Y13355D02*
X20871D01*
X20411D02*
Y14365D01*
X20871Y13355D02*
Y14365D01*
X19986Y8505D02*
X20366D01*
X19986D02*
Y9325D01*
X20366D01*
Y8505D02*
Y9325D01*
X20479Y9304D02*
X20479Y8485D01*
X20859D01*
X20859Y9304D01*
X20479D02*
X20859D01*
X18611Y12865D02*
Y13245D01*
X19431Y13245D01*
Y12865D02*
Y13245D01*
X18611Y12865D02*
X19431D01*
X19431Y9475D02*
Y10295D01*
Y9475D02*
X19811D01*
X19811Y10295D01*
X19431D02*
X19811D01*
X27750Y20764D02*
Y21584D01*
X27370D02*
X27750D01*
X27370Y20764D02*
Y21584D01*
Y20764D02*
X27750D01*
X25919Y18910D02*
Y19290D01*
X25099Y18910D02*
X25919D01*
X25099D02*
Y19290D01*
X25919D01*
X25958Y19653D02*
Y20033D01*
X25138Y19653D02*
X25958D01*
X25138D02*
Y20033D01*
X25958D01*
X25879Y17566D02*
Y17946D01*
X25059Y17566D02*
X25879D01*
X25059D02*
Y17946D01*
X25879D01*
X27763Y20764D02*
Y21584D01*
Y20764D02*
X28143D01*
Y21584D01*
X27763D02*
X28143D01*
X25879Y16936D02*
Y17316D01*
X25059Y16936D02*
X25879D01*
X25059D02*
Y17316D01*
X25879D01*
X28196Y20764D02*
X28576D01*
X28196D02*
Y21584D01*
X28576D01*
Y20764D02*
Y21584D01*
X25921Y18385D02*
Y18765D01*
X25101Y18385D02*
X25921D01*
X25101D02*
Y18765D01*
X25921D01*
X23951Y17515D02*
Y17895D01*
X24771D01*
Y17515D02*
Y17895D01*
X23951Y17515D02*
X24771D01*
X23981Y18025D02*
Y18405D01*
X24801D01*
Y18025D02*
Y18405D01*
X23981Y18025D02*
X24801D01*
X3731Y12485D02*
X4111D01*
X3731D02*
Y13305D01*
X4111D01*
Y12485D02*
Y13305D01*
X3821Y14255D02*
X4201D01*
Y13435D02*
Y14255D01*
X3821Y13435D02*
X4201D01*
X3821D02*
Y14255D01*
X4361Y13395D02*
X4821D01*
X4361Y14405D02*
X4821D01*
Y13395D02*
Y14405D01*
X4361Y13395D02*
Y14405D01*
X1751Y12845D02*
X2211D01*
X1751Y11835D02*
X2211D01*
X1751D02*
Y12845D01*
X2211Y11835D02*
Y12845D01*
X1531Y9475D02*
Y10295D01*
Y9475D02*
X1911D01*
Y10295D01*
X1531D02*
X1911D01*
X3321Y14405D02*
X3781D01*
X3321Y13395D02*
X3781D01*
X3321D02*
Y14405D01*
X3781Y13395D02*
Y14405D01*
X2211Y9475D02*
Y11825D01*
X3211D01*
Y9475D02*
Y11825D01*
X2211Y9475D02*
X3211D01*
X33451Y6205D02*
X33831D01*
Y5385D02*
Y6205D01*
X33451Y5385D02*
X33831D01*
X33451D02*
Y6205D01*
X29361Y4585D02*
Y4965D01*
X30181D01*
Y4585D02*
Y4965D01*
X29361Y4585D02*
X30181D01*
X3721Y8527D02*
X4101D01*
X3721D02*
Y9347D01*
X4101D01*
Y8527D02*
Y9347D01*
X12191Y8525D02*
X12571D01*
X12191D02*
Y9345D01*
X12571Y9345D01*
X12571Y8525D01*
X12701Y13365D02*
X13081D01*
X12701D02*
Y14185D01*
X13081D01*
Y13365D02*
Y14185D01*
X34541Y5385D02*
Y6205D01*
Y5385D02*
X34921D01*
Y6205D01*
X34541D02*
X34921D01*
X34791Y1755D02*
Y2575D01*
Y1755D02*
X35171D01*
Y2575D01*
X34791D02*
X35171D01*
X15621Y9455D02*
Y11805D01*
X16621D01*
Y9455D02*
Y11805D01*
X15621Y9455D02*
X16621D01*
X35311Y1765D02*
Y2585D01*
Y1765D02*
X35691D01*
Y2585D01*
X35311D02*
X35691D01*
X35081Y1715D02*
X35461D01*
Y895D02*
Y1715D01*
X35081Y895D02*
X35461D01*
X35081D02*
Y1715D01*
X34661Y895D02*
X35041D01*
X34661D02*
Y1715D01*
X35041D01*
Y895D02*
Y1715D01*
X21831Y9385D02*
Y11735D01*
X22831D01*
Y9385D02*
Y11735D01*
X21831Y9385D02*
X22831D01*
X18621Y12845D02*
X19081D01*
X18621Y11835D02*
X19081D01*
X18621D02*
Y12845D01*
X19081Y11835D02*
Y12845D01*
X14821Y7785D02*
X15641D01*
X14821Y7405D02*
Y7785D01*
Y7405D02*
X15641D01*
Y7785D01*
X27611Y13715D02*
Y14095D01*
X26791Y13715D02*
X27611D01*
X26791D02*
Y14095D01*
X27611D01*
X27551Y14365D02*
Y14745D01*
X26731Y14365D02*
X27551D01*
X26731D02*
Y14745D01*
X27551D01*
X36551Y665D02*
X37551D01*
X36551D02*
Y3015D01*
X37551D01*
Y665D02*
Y3015D01*
X27481Y16355D02*
Y17175D01*
Y16355D02*
X27861D01*
Y17175D01*
X27481D02*
X27861D01*
X28226Y19341D02*
Y19347D01*
Y19341D02*
X28361Y19205D01*
Y18065D02*
Y19205D01*
Y18021D02*
Y18065D01*
X28317Y18021D02*
X28361D01*
X28226Y17929D02*
X28317Y18021D01*
X26641Y17756D02*
Y17762D01*
Y17756D02*
X26791Y17605D01*
X27902D01*
X26474Y17929D02*
Y17983D01*
Y17929D02*
Y17973D01*
X26331Y18115D02*
X26474Y17973D01*
X26331Y18115D02*
Y19204D01*
X26641Y19514D02*
Y19535D01*
X26781Y19675D01*
X27897D01*
X27902Y17605D02*
X28058Y17762D01*
X27897Y19675D02*
X28058Y19514D01*
X14831Y7355D02*
X15651D01*
X14831Y6975D02*
Y7355D01*
Y6975D02*
X15651D01*
Y7355D01*
X16351Y5575D02*
X17171D01*
X16351Y5195D02*
Y5575D01*
Y5195D02*
X17171D01*
Y5575D01*
X14831Y5735D02*
X15651Y5735D01*
X15651Y6115D02*
X15651Y5735D01*
X14831Y6115D02*
X15651D01*
X14831Y5735D02*
X14831Y6115D01*
X19191Y5025D02*
X20011Y5025D01*
X19191Y4645D02*
Y5025D01*
Y4645D02*
X20011Y4645D01*
Y5025D01*
X20011Y5085D02*
Y5465D01*
X19191Y5085D02*
X20011D01*
X19191D02*
Y5465D01*
X20011D01*
X19191Y5915D02*
X20011D01*
X19191Y5535D02*
Y5915D01*
Y5535D02*
X20011Y5535D01*
Y5915D01*
X19191Y6375D02*
X20011Y6375D01*
X19191Y5995D02*
Y6375D01*
Y5995D02*
X20011Y5995D01*
Y6375D01*
X20091Y5625D02*
X20911Y5625D01*
X20091Y5245D02*
Y5625D01*
Y5245D02*
X20911Y5245D01*
Y5625D01*
X20101Y4815D02*
X20921Y4815D01*
Y5195D01*
X20101Y5195D02*
X20921Y5195D01*
X20101Y4815D02*
Y5195D01*
X26721Y5085D02*
X27541D01*
X26721Y4705D02*
Y5085D01*
Y4705D02*
X27541D01*
Y5085D01*
X26331Y19204D02*
X26474Y19347D01*
X22631Y19115D02*
X22765D01*
X22698D01*
Y18915D01*
X22831D02*
Y19115D01*
X22931D01*
X22964Y19082D01*
Y19015D01*
X22931Y18982D01*
X22831D01*
X23164Y18915D02*
X23031D01*
X23164Y19049D01*
Y19082D01*
X23131Y19115D01*
X23064D01*
X23031Y19082D01*
X22008Y16457D02*
Y16657D01*
X22108D01*
X22141Y16623D01*
Y16557D01*
X22108Y16523D01*
X22008D01*
X22075D02*
X22141Y16457D01*
X22208D02*
X22274D01*
X22241D01*
Y16657D01*
X22208Y16623D01*
X22374D02*
X22408Y16657D01*
X22474D01*
X22508Y16623D01*
Y16590D01*
X22474Y16557D01*
X22441D01*
X22474D01*
X22508Y16523D01*
Y16490D01*
X22474Y16457D01*
X22408D01*
X22374Y16490D01*
X22708Y16657D02*
X22574D01*
Y16557D01*
X22641Y16590D01*
X22674D01*
X22708Y16557D01*
Y16490D01*
X22674Y16457D01*
X22608D01*
X22574Y16490D01*
X25984Y17362D02*
Y17562D01*
X26084D01*
X26118Y17529D01*
Y17462D01*
X26084Y17429D01*
X25984D01*
X26051D02*
X26118Y17362D01*
X26184D02*
X26251D01*
X26218D01*
Y17562D01*
X26184Y17529D01*
X26351D02*
X26384Y17562D01*
X26451D01*
X26484Y17529D01*
Y17495D01*
X26451Y17462D01*
X26417D01*
X26451D01*
X26484Y17429D01*
Y17396D01*
X26451Y17362D01*
X26384D01*
X26351Y17396D01*
X26651Y17362D02*
Y17562D01*
X26551Y17462D01*
X26684D01*
X26063Y20197D02*
Y20397D01*
X26163D01*
X26196Y20363D01*
Y20297D01*
X26163Y20264D01*
X26063D01*
X26130D02*
X26196Y20197D01*
X26263D02*
X26330D01*
X26296D01*
Y20397D01*
X26263Y20363D01*
X26430D02*
X26463Y20397D01*
X26530D01*
X26563Y20363D01*
Y20330D01*
X26530Y20297D01*
X26496D01*
X26530D01*
X26563Y20264D01*
Y20230D01*
X26530Y20197D01*
X26463D01*
X26430Y20230D01*
X26629Y20363D02*
X26663Y20397D01*
X26729D01*
X26763Y20363D01*
Y20330D01*
X26729Y20297D01*
X26696D01*
X26729D01*
X26763Y20264D01*
Y20230D01*
X26729Y20197D01*
X26663D01*
X26629Y20230D01*
X26024Y19606D02*
Y19806D01*
X26124D01*
X26157Y19773D01*
Y19706D01*
X26124Y19673D01*
X26024D01*
X26090D02*
X26157Y19606D01*
X26224D02*
X26290D01*
X26257D01*
Y19806D01*
X26224Y19773D01*
X26390D02*
X26423Y19806D01*
X26490D01*
X26523Y19773D01*
Y19740D01*
X26490Y19706D01*
X26457D01*
X26490D01*
X26523Y19673D01*
Y19640D01*
X26490Y19606D01*
X26423D01*
X26390Y19640D01*
X26723Y19606D02*
X26590D01*
X26723Y19740D01*
Y19773D01*
X26690Y19806D01*
X26623D01*
X26590Y19773D01*
X25945Y16378D02*
Y16578D01*
X26045D01*
X26078Y16545D01*
Y16478D01*
X26045Y16445D01*
X25945D01*
X26012D02*
X26078Y16378D01*
X26145D02*
X26211D01*
X26178D01*
Y16578D01*
X26145Y16545D01*
X26311D02*
X26345Y16578D01*
X26411D01*
X26445Y16545D01*
Y16511D01*
X26411Y16478D01*
X26378D01*
X26411D01*
X26445Y16445D01*
Y16411D01*
X26411Y16378D01*
X26345D01*
X26311Y16411D01*
X26511Y16378D02*
X26578D01*
X26545D01*
Y16578D01*
X26511Y16545D01*
X21969Y16929D02*
Y17129D01*
X22068D01*
X22102Y17096D01*
Y17029D01*
X22068Y16996D01*
X21969D01*
X22035D02*
X22102Y16929D01*
X22168D02*
X22235D01*
X22202D01*
Y17129D01*
X22168Y17096D01*
X22335D02*
X22368Y17129D01*
X22435D01*
X22468Y17096D01*
Y17062D01*
X22435Y17029D01*
X22402D01*
X22435D01*
X22468Y16996D01*
Y16962D01*
X22435Y16929D01*
X22368D01*
X22335Y16962D01*
X22535Y17096D02*
X22568Y17129D01*
X22635D01*
X22668Y17096D01*
Y16962D01*
X22635Y16929D01*
X22568D01*
X22535Y16962D01*
Y17096D01*
X10630Y1381D02*
X10763D01*
X10697D01*
Y1181D01*
X10963Y1348D02*
X10930Y1381D01*
X10863D01*
X10830Y1348D01*
Y1314D01*
X10863Y1281D01*
X10930D01*
X10963Y1248D01*
Y1214D01*
X10930Y1181D01*
X10863D01*
X10830Y1214D01*
X11030Y1181D02*
X11096D01*
X11063D01*
Y1381D01*
X11030Y1348D01*
X5433Y8271D02*
X5566D01*
X5500D01*
Y8071D01*
X5633D02*
Y8271D01*
X5733D01*
X5766Y8237D01*
Y8171D01*
X5733Y8138D01*
X5633D01*
X5833Y8071D02*
X5900D01*
X5866D01*
Y8271D01*
X5833Y8237D01*
X6000D02*
X6033Y8271D01*
X6100D01*
X6133Y8237D01*
Y8204D01*
X6100Y8171D01*
X6066D01*
X6100D01*
X6133Y8138D01*
Y8104D01*
X6100Y8071D01*
X6033D01*
X6000Y8104D01*
X20788Y2401D02*
Y2201D01*
X20888D01*
X20921Y2235D01*
Y2368D01*
X20888Y2401D01*
X20788D01*
X21088Y2201D02*
Y2401D01*
X20988Y2301D01*
X21121D01*
X28898Y19997D02*
X28698D01*
Y20096D01*
X28732Y20130D01*
X28798D01*
X28832Y20096D01*
Y19997D01*
Y20063D02*
X28898Y20130D01*
Y20196D02*
Y20263D01*
Y20230D01*
X28698D01*
X28732Y20196D01*
X28898Y20496D02*
Y20363D01*
X28765Y20496D01*
X28732D01*
X28698Y20463D01*
Y20396D01*
X28732Y20363D01*
Y20563D02*
X28698Y20596D01*
Y20663D01*
X28732Y20696D01*
X28865D01*
X28898Y20663D01*
Y20596D01*
X28865Y20563D01*
X28732D01*
X27631Y4855D02*
Y5055D01*
X27731D01*
X27765Y5022D01*
Y4955D01*
X27731Y4922D01*
X27631D01*
X27698D02*
X27765Y4855D01*
X27831D02*
X27898D01*
X27865D01*
Y5055D01*
X27831Y5022D01*
X28131Y4855D02*
X27998D01*
X28131Y4989D01*
Y5022D01*
X28098Y5055D01*
X28031D01*
X27998Y5022D01*
X28198Y4855D02*
X28264D01*
X28231D01*
Y5055D01*
X28198Y5022D01*
X26141Y4125D02*
Y4325D01*
X26241D01*
X26275Y4292D01*
Y4225D01*
X26241Y4192D01*
X26141D01*
X26474Y4325D02*
X26408Y4292D01*
X26341Y4225D01*
Y4159D01*
X26375Y4125D01*
X26441D01*
X26474Y4159D01*
Y4192D01*
X26441Y4225D01*
X26341D01*
X13346Y2365D02*
Y2199D01*
X13380Y2165D01*
X13446D01*
X13480Y2199D01*
Y2365D01*
X13680Y2165D02*
X13546D01*
X13680Y2299D01*
Y2332D01*
X13646Y2365D01*
X13580D01*
X13546Y2332D01*
X13746Y2165D02*
X13813D01*
X13780D01*
Y2365D01*
X13746Y2332D01*
X16921Y2145D02*
Y2345D01*
X17021D01*
X17055Y2312D01*
Y2245D01*
X17021Y2212D01*
X16921D01*
X17121Y2345D02*
X17254D01*
Y2312D01*
X17121Y2179D01*
Y2145D01*
X32422Y8308D02*
X32355D01*
X32388D01*
Y8141D01*
X32355Y8108D01*
X32322D01*
X32288Y8141D01*
X32488Y8274D02*
X32522Y8308D01*
X32588D01*
X32622Y8274D01*
Y8241D01*
X32588Y8208D01*
X32555D01*
X32588D01*
X32622Y8174D01*
Y8141D01*
X32588Y8108D01*
X32522D01*
X32488Y8141D01*
X13937Y13940D02*
X14070D01*
X14004D01*
Y13740D01*
X14137D02*
Y13940D01*
X14237D01*
X14270Y13907D01*
Y13840D01*
X14237Y13807D01*
X14137D01*
X14470Y13740D02*
X14337D01*
X14470Y13873D01*
Y13907D01*
X14437Y13940D01*
X14370D01*
X14337Y13907D01*
X14537D02*
X14570Y13940D01*
X14637D01*
X14670Y13907D01*
Y13773D01*
X14637Y13740D01*
X14570D01*
X14537Y13773D01*
Y13907D01*
X14252Y16968D02*
Y17268D01*
X14402D01*
X14452Y17218D01*
Y17118D01*
X14402Y17068D01*
X14252D01*
X14752Y17268D02*
X14552D01*
Y17118D01*
X14652Y17168D01*
X14702D01*
X14752Y17118D01*
Y17018D01*
X14702Y16968D01*
X14602D01*
X14552Y17018D01*
X30824Y9809D02*
Y10109D01*
X30974D01*
X31024Y10059D01*
Y9959D01*
X30974Y9909D01*
X30824D01*
X31274Y9809D02*
Y10109D01*
X31124Y9959D01*
X31324D01*
X32505Y7065D02*
X32438D01*
X32471D01*
Y6899D01*
X32438Y6865D01*
X32405D01*
X32371Y6899D01*
X32571Y7065D02*
X32704D01*
Y7032D01*
X32571Y6899D01*
Y6865D01*
X32405Y11195D02*
X32338D01*
X32371D01*
Y11029D01*
X32338Y10995D01*
X32305D01*
X32271Y11029D01*
X32604Y11195D02*
X32538Y11162D01*
X32471Y11095D01*
Y11029D01*
X32505Y10995D01*
X32571D01*
X32604Y11029D01*
Y11062D01*
X32571Y11095D01*
X32471D01*
X32415Y12635D02*
X32348D01*
X32381D01*
Y12469D01*
X32348Y12435D01*
X32315D01*
X32281Y12469D01*
X32614Y12635D02*
X32481D01*
Y12535D01*
X32548Y12569D01*
X32581D01*
X32614Y12535D01*
Y12469D01*
X32581Y12435D01*
X32515D01*
X32481Y12469D01*
X32465Y14115D02*
X32398D01*
X32431D01*
Y13949D01*
X32398Y13915D01*
X32365D01*
X32331Y13949D01*
X32631Y13915D02*
Y14115D01*
X32531Y14015D01*
X32664D01*
X32381Y9676D02*
X32315D01*
X32348D01*
Y9509D01*
X32315Y9476D01*
X32281D01*
X32248Y9509D01*
X32581Y9476D02*
X32448D01*
X32581Y9609D01*
Y9642D01*
X32548Y9676D01*
X32481D01*
X32448Y9642D01*
X18585Y5242D02*
X18551Y5275D01*
X18485D01*
X18451Y5242D01*
Y5109D01*
X18485Y5075D01*
X18551D01*
X18585Y5109D01*
X18651Y5075D02*
X18718D01*
X18685D01*
Y5275D01*
X18651Y5242D01*
X18818Y5075D02*
X18884D01*
X18851D01*
Y5275D01*
X18818Y5242D01*
X19118Y5275D02*
X18984D01*
Y5175D01*
X19051Y5209D01*
X19084D01*
X19118Y5175D01*
Y5109D01*
X19084Y5075D01*
X19018D01*
X18984Y5109D01*
X22931Y6905D02*
X23065D01*
X22998D01*
Y6705D01*
X23131D02*
Y6905D01*
X23231D01*
X23264Y6872D01*
Y6805D01*
X23231Y6772D01*
X23131D01*
X23464Y6705D02*
X23331D01*
X23464Y6839D01*
Y6872D01*
X23431Y6905D01*
X23364D01*
X23331Y6872D01*
X23664Y6905D02*
X23531D01*
Y6805D01*
X23598Y6839D01*
X23631D01*
X23664Y6805D01*
Y6739D01*
X23631Y6705D01*
X23564D01*
X23531Y6739D01*
X15611Y8195D02*
X15745D01*
X15678D01*
Y7995D01*
X15811D02*
Y8195D01*
X15911D01*
X15944Y8162D01*
Y8095D01*
X15911Y8062D01*
X15811D01*
X16144Y7995D02*
X16011D01*
X16144Y8129D01*
Y8162D01*
X16111Y8195D01*
X16044D01*
X16011Y8162D01*
X16311Y7995D02*
Y8195D01*
X16211Y8095D01*
X16344D01*
X15391Y11929D02*
Y12062D01*
Y11996D01*
X15591D01*
Y12129D02*
X15391D01*
Y12229D01*
X15424Y12262D01*
X15491D01*
X15524Y12229D01*
Y12129D01*
X15591Y12462D02*
Y12329D01*
X15457Y12462D01*
X15424D01*
X15391Y12429D01*
Y12362D01*
X15424Y12329D01*
Y12529D02*
X15391Y12562D01*
Y12629D01*
X15424Y12662D01*
X15457D01*
X15491Y12629D01*
Y12596D01*
Y12629D01*
X15524Y12662D01*
X15557D01*
X15591Y12629D01*
Y12562D01*
X15557Y12529D01*
X17438Y12126D02*
Y12259D01*
Y12193D01*
X17638D01*
Y12326D02*
X17438D01*
Y12426D01*
X17471Y12459D01*
X17538D01*
X17571Y12426D01*
Y12326D01*
X17638Y12659D02*
Y12526D01*
X17505Y12659D01*
X17471D01*
X17438Y12626D01*
Y12559D01*
X17471Y12526D01*
X17638Y12859D02*
Y12726D01*
X17505Y12859D01*
X17471D01*
X17438Y12826D01*
Y12759D01*
X17471Y12726D01*
X17438Y11299D02*
Y11432D01*
Y11366D01*
X17638D01*
Y11499D02*
X17438D01*
Y11599D01*
X17471Y11632D01*
X17538D01*
X17571Y11599D01*
Y11499D01*
X17638Y11832D02*
Y11699D01*
X17505Y11832D01*
X17471D01*
X17438Y11799D01*
Y11732D01*
X17471Y11699D01*
X17638Y11899D02*
Y11966D01*
Y11932D01*
X17438D01*
X17471Y11899D01*
X12171Y11895D02*
Y12029D01*
Y11962D01*
X12371D01*
Y12095D02*
X12171D01*
Y12195D01*
X12205Y12228D01*
X12271D01*
X12305Y12195D01*
Y12095D01*
X12371Y12428D02*
Y12295D01*
X12238Y12428D01*
X12205D01*
X12171Y12395D01*
Y12328D01*
X12205Y12295D01*
X12371Y12495D02*
Y12562D01*
Y12528D01*
X12171D01*
X12205Y12495D01*
X13304Y12126D02*
Y12259D01*
Y12193D01*
X13504D01*
Y12326D02*
X13304D01*
Y12426D01*
X13337Y12459D01*
X13404D01*
X13437Y12426D01*
Y12326D01*
X13504Y12526D02*
Y12593D01*
Y12559D01*
X13304D01*
X13337Y12526D01*
X13471Y12692D02*
X13504Y12726D01*
Y12792D01*
X13471Y12826D01*
X13337D01*
X13304Y12792D01*
Y12726D01*
X13337Y12692D01*
X13371D01*
X13404Y12726D01*
Y12826D01*
X14331Y8350D02*
X14464D01*
X14397D01*
Y8150D01*
X14531D02*
Y8350D01*
X14631D01*
X14664Y8316D01*
Y8250D01*
X14631Y8216D01*
X14531D01*
X14731Y8150D02*
X14797D01*
X14764D01*
Y8350D01*
X14731Y8316D01*
X14897D02*
X14931Y8350D01*
X14997D01*
X15030Y8316D01*
Y8283D01*
X14997Y8250D01*
X15030Y8216D01*
Y8183D01*
X14997Y8150D01*
X14931D01*
X14897Y8183D01*
Y8216D01*
X14931Y8250D01*
X14897Y8283D01*
Y8316D01*
X14931Y8250D02*
X14997D01*
X30801Y6555D02*
X30935D01*
X30868D01*
Y6355D01*
X31001D02*
Y6555D01*
X31101D01*
X31134Y6522D01*
Y6455D01*
X31101Y6422D01*
X31001D01*
X31201Y6355D02*
X31268D01*
X31234D01*
Y6555D01*
X31201Y6522D01*
X31501Y6355D02*
X31368D01*
X31501Y6489D01*
Y6522D01*
X31468Y6555D01*
X31401D01*
X31368Y6522D01*
X30631Y9285D02*
X30765D01*
X30698D01*
Y9085D01*
X30831D02*
Y9285D01*
X30931D01*
X30964Y9252D01*
Y9185D01*
X30931Y9152D01*
X30831D01*
X31031Y9085D02*
X31098D01*
X31064D01*
Y9285D01*
X31031Y9252D01*
X31198Y9085D02*
X31264D01*
X31231D01*
Y9285D01*
X31198Y9252D01*
X23951Y20325D02*
X24085D01*
X24018D01*
Y20125D01*
X24151D02*
Y20325D01*
X24251D01*
X24284Y20292D01*
Y20225D01*
X24251Y20192D01*
X24151D01*
X24351Y20292D02*
X24384Y20325D01*
X24451D01*
X24484Y20292D01*
Y20259D01*
X24451Y20225D01*
X24418D01*
X24451D01*
X24484Y20192D01*
Y20159D01*
X24451Y20125D01*
X24384D01*
X24351Y20159D01*
X30041Y960D02*
Y794D01*
X30075Y760D01*
X30141D01*
X30175Y794D01*
Y960D01*
X30241Y760D02*
X30308D01*
X30275D01*
Y960D01*
X30241Y927D01*
X30541Y960D02*
X30408D01*
Y860D01*
X30474Y894D01*
X30508D01*
X30541Y860D01*
Y794D01*
X30508Y760D01*
X30441D01*
X30408Y794D01*
X28171Y965D02*
Y799D01*
X28205Y765D01*
X28271D01*
X28305Y799D01*
Y965D01*
X28371Y765D02*
X28438D01*
X28405D01*
Y965D01*
X28371Y932D01*
X28638Y765D02*
Y965D01*
X28538Y865D01*
X28671D01*
X26101Y925D02*
Y759D01*
X26135Y725D01*
X26201D01*
X26235Y759D01*
Y925D01*
X26301Y725D02*
X26368D01*
X26335D01*
Y925D01*
X26301Y892D01*
X26468D02*
X26501Y925D01*
X26568D01*
X26601Y892D01*
Y859D01*
X26568Y825D01*
X26534D01*
X26568D01*
X26601Y792D01*
Y759D01*
X26568Y725D01*
X26501D01*
X26468Y759D01*
X24197Y955D02*
Y789D01*
X24231Y755D01*
X24297D01*
X24331Y789D01*
Y955D01*
X24397Y755D02*
X24464D01*
X24430D01*
Y955D01*
X24397Y922D01*
X24697Y755D02*
X24564D01*
X24697Y889D01*
Y922D01*
X24664Y955D01*
X24597D01*
X24564Y922D01*
X22471Y905D02*
Y739D01*
X22505Y705D01*
X22571D01*
X22605Y739D01*
Y905D01*
X22671Y705D02*
X22738D01*
X22705D01*
Y905D01*
X22671Y872D01*
X22838Y705D02*
X22904D01*
X22871D01*
Y905D01*
X22838Y872D01*
X7971Y2425D02*
Y2725D01*
X8121D01*
X8171Y2675D01*
Y2575D01*
X8121Y2525D01*
X7971D01*
X8471Y2425D02*
X8271D01*
X8471Y2625D01*
Y2675D01*
X8421Y2725D01*
X8321D01*
X8271Y2675D01*
X18740Y20379D02*
X18940D01*
X18840D01*
Y20079D01*
X19040Y20279D02*
Y20079D01*
Y20179D01*
X19090Y20229D01*
X19140Y20279D01*
X19190D01*
X19540Y20379D02*
X19340D01*
Y20079D01*
X19540D01*
X19340Y20229D02*
X19440D01*
X19640Y20379D02*
X19840D01*
X19740D01*
Y20079D01*
X19940D02*
X20040D01*
X19990D01*
Y20379D01*
X19940Y20329D01*
X19803Y10748D02*
X19603D01*
Y10848D01*
X19637Y10881D01*
X19703D01*
X19736Y10848D01*
Y10748D01*
Y10815D02*
X19803Y10881D01*
Y10948D02*
Y11015D01*
Y10981D01*
X19603D01*
X19637Y10948D01*
X19803Y11115D02*
Y11181D01*
Y11148D01*
X19603D01*
X19637Y11115D01*
X19803Y11414D02*
Y11281D01*
X19670Y11414D01*
X19637D01*
X19603Y11381D01*
Y11315D01*
X19637Y11281D01*
X9724Y5712D02*
Y5545D01*
X9758Y5512D01*
X9824D01*
X9858Y5545D01*
Y5712D01*
X10058D02*
X9991Y5678D01*
X9924Y5612D01*
Y5545D01*
X9958Y5512D01*
X10024D01*
X10058Y5545D01*
Y5578D01*
X10024Y5612D01*
X9924D01*
X21091Y905D02*
Y705D01*
X21191D01*
X21225Y739D01*
Y772D01*
X21191Y805D01*
X21091D01*
X21191D01*
X21225Y839D01*
Y872D01*
X21191Y905D01*
X21091D01*
X21291D02*
X21424D01*
X21358D01*
Y705D01*
X21491D02*
X21558D01*
X21524D01*
Y905D01*
X21491Y872D01*
X34922Y2852D02*
X34889Y2885D01*
X34822D01*
X34789Y2852D01*
Y2719D01*
X34822Y2685D01*
X34889D01*
X34922Y2719D01*
X34989Y2885D02*
X35122D01*
Y2852D01*
X34989Y2719D01*
Y2685D01*
X38849Y1314D02*
X38816Y1281D01*
Y1214D01*
X38849Y1181D01*
X38982D01*
X39016Y1214D01*
Y1281D01*
X38982Y1314D01*
X38849Y1381D02*
X38816Y1414D01*
Y1481D01*
X38849Y1514D01*
X38882D01*
X38916Y1481D01*
X38949Y1514D01*
X38982D01*
X39016Y1481D01*
Y1414D01*
X38982Y1381D01*
X38949D01*
X38916Y1414D01*
X38882Y1381D01*
X38849D01*
X38916Y1414D02*
Y1481D01*
X36329Y1196D02*
X36296Y1163D01*
Y1096D01*
X36329Y1063D01*
X36463D01*
X36496Y1096D01*
Y1163D01*
X36463Y1196D01*
X36496Y1263D02*
Y1330D01*
Y1296D01*
X36296D01*
X36329Y1263D01*
Y1430D02*
X36296Y1463D01*
Y1530D01*
X36329Y1563D01*
X36463D01*
X36496Y1530D01*
Y1463D01*
X36463Y1430D01*
X36329D01*
X27472Y21862D02*
X27438Y21829D01*
Y21762D01*
X27472Y21729D01*
X27605D01*
X27638Y21762D01*
Y21829D01*
X27605Y21862D01*
X27638Y21929D02*
Y21995D01*
Y21962D01*
X27438D01*
X27472Y21929D01*
X27438Y22229D02*
X27472Y22162D01*
X27538Y22095D01*
X27605D01*
X27638Y22129D01*
Y22195D01*
X27605Y22229D01*
X27572D01*
X27538Y22195D01*
Y22095D01*
X27957Y21818D02*
X27923Y21784D01*
Y21718D01*
X27957Y21684D01*
X28090D01*
X28123Y21718D01*
Y21784D01*
X28090Y21818D01*
X28123Y21884D02*
Y21951D01*
Y21918D01*
X27923D01*
X27957Y21884D01*
X27923Y22051D02*
Y22184D01*
X27957D01*
X28090Y22051D01*
X28123D01*
X4858Y8237D02*
X4824Y8271D01*
X4758D01*
X4724Y8237D01*
Y8104D01*
X4758Y8071D01*
X4824D01*
X4858Y8104D01*
X4924Y8237D02*
X4958Y8271D01*
X5024D01*
X5058Y8237D01*
Y8204D01*
X5024Y8171D01*
X4991D01*
X5024D01*
X5058Y8138D01*
Y8104D01*
X5024Y8071D01*
X4958D01*
X4924Y8104D01*
X5258Y8271D02*
X5124D01*
Y8171D01*
X5191Y8204D01*
X5224D01*
X5258Y8171D01*
Y8104D01*
X5224Y8071D01*
X5158D01*
X5124Y8104D01*
X5805Y8699D02*
X5771Y8665D01*
Y8599D01*
X5805Y8565D01*
X5938D01*
X5971Y8599D01*
Y8665D01*
X5938Y8699D01*
X5971Y8865D02*
X5771D01*
X5871Y8765D01*
Y8899D01*
X5805Y8965D02*
X5771Y8998D01*
Y9065D01*
X5805Y9098D01*
X5838D01*
X5871Y9065D01*
Y9032D01*
Y9065D01*
X5905Y9098D01*
X5938D01*
X5971Y9065D01*
Y8998D01*
X5938Y8965D01*
X3375Y9569D02*
X3341Y9535D01*
Y9469D01*
X3375Y9435D01*
X3508D01*
X3541Y9469D01*
Y9535D01*
X3508Y9569D01*
X3541Y9735D02*
X3341D01*
X3441Y9635D01*
Y9768D01*
X3375Y9835D02*
X3341Y9868D01*
Y9935D01*
X3375Y9968D01*
X3408D01*
X3441Y9935D01*
X3475Y9968D01*
X3508D01*
X3541Y9935D01*
Y9868D01*
X3508Y9835D01*
X3475D01*
X3441Y9868D01*
X3408Y9835D01*
X3375D01*
X3441Y9868D02*
Y9935D01*
X2805Y6439D02*
X2771Y6405D01*
Y6339D01*
X2805Y6305D01*
X2938D01*
X2971Y6339D01*
Y6405D01*
X2938Y6439D01*
X2771Y6639D02*
Y6505D01*
X2871D01*
X2838Y6572D01*
Y6605D01*
X2871Y6639D01*
X2938D01*
X2971Y6605D01*
Y6539D01*
X2938Y6505D01*
X2805Y6705D02*
X2771Y6738D01*
Y6805D01*
X2805Y6838D01*
X2938D01*
X2971Y6805D01*
Y6738D01*
X2938Y6705D01*
X2805D01*
X2795Y7149D02*
X2761Y7115D01*
Y7049D01*
X2795Y7015D01*
X2928D01*
X2961Y7049D01*
Y7115D01*
X2928Y7149D01*
X2761Y7348D02*
Y7215D01*
X2861D01*
X2828Y7282D01*
Y7315D01*
X2861Y7348D01*
X2928D01*
X2961Y7315D01*
Y7249D01*
X2928Y7215D01*
X2961Y7415D02*
Y7482D01*
Y7448D01*
X2761D01*
X2795Y7415D01*
X2377Y5915D02*
X2344Y5948D01*
X2277D01*
X2244Y5915D01*
Y5781D01*
X2277Y5748D01*
X2344D01*
X2377Y5781D01*
X2577Y5948D02*
X2444D01*
Y5848D01*
X2511Y5881D01*
X2544D01*
X2577Y5848D01*
Y5781D01*
X2544Y5748D01*
X2477D01*
X2444Y5781D01*
X2777Y5748D02*
X2644D01*
X2777Y5881D01*
Y5915D01*
X2744Y5948D01*
X2677D01*
X2644Y5915D01*
X2141Y8119D02*
X2108Y8153D01*
X2041D01*
X2008Y8119D01*
Y7986D01*
X2041Y7953D01*
X2108D01*
X2141Y7986D01*
X2341Y8153D02*
X2208D01*
Y8053D01*
X2274Y8086D01*
X2308D01*
X2341Y8053D01*
Y7986D01*
X2308Y7953D01*
X2241D01*
X2208Y7986D01*
X2408Y8119D02*
X2441Y8153D01*
X2508D01*
X2541Y8119D01*
Y8086D01*
X2508Y8053D01*
X2474D01*
X2508D01*
X2541Y8019D01*
Y7986D01*
X2508Y7953D01*
X2441D01*
X2408Y7986D01*
X1511Y10639D02*
X1478Y10672D01*
X1411D01*
X1378Y10639D01*
Y10506D01*
X1411Y10472D01*
X1478D01*
X1511Y10506D01*
X1711Y10672D02*
X1578D01*
Y10572D01*
X1645Y10606D01*
X1678D01*
X1711Y10572D01*
Y10506D01*
X1678Y10472D01*
X1611D01*
X1578Y10506D01*
X1878Y10472D02*
Y10672D01*
X1778Y10572D01*
X1911D01*
X9455Y8272D02*
X9421Y8305D01*
X9355D01*
X9321Y8272D01*
Y8139D01*
X9355Y8105D01*
X9421D01*
X9455Y8139D01*
X9654Y8305D02*
X9588Y8272D01*
X9521Y8205D01*
Y8139D01*
X9555Y8105D01*
X9621D01*
X9654Y8139D01*
Y8172D01*
X9621Y8205D01*
X9521D01*
X9854Y8305D02*
X9721D01*
Y8205D01*
X9788Y8239D01*
X9821D01*
X9854Y8205D01*
Y8139D01*
X9821Y8105D01*
X9754D01*
X9721Y8139D01*
X10435Y8799D02*
X10401Y8765D01*
Y8699D01*
X10435Y8665D01*
X10568D01*
X10601Y8699D01*
Y8765D01*
X10568Y8799D01*
X10401Y8999D02*
X10435Y8932D01*
X10501Y8865D01*
X10568D01*
X10601Y8899D01*
Y8965D01*
X10568Y8999D01*
X10535D01*
X10501Y8965D01*
Y8865D01*
X10401Y9198D02*
X10435Y9132D01*
X10501Y9065D01*
X10568D01*
X10601Y9098D01*
Y9165D01*
X10568Y9198D01*
X10535D01*
X10501Y9165D01*
Y9065D01*
X8385Y9659D02*
X8351Y9625D01*
Y9559D01*
X8385Y9525D01*
X8518D01*
X8551Y9559D01*
Y9625D01*
X8518Y9659D01*
X8351Y9858D02*
X8385Y9792D01*
X8451Y9725D01*
X8518D01*
X8551Y9759D01*
Y9825D01*
X8518Y9858D01*
X8485D01*
X8451Y9825D01*
Y9725D01*
X8385Y9925D02*
X8351Y9958D01*
Y10025D01*
X8385Y10058D01*
X8418D01*
X8451Y10025D01*
X8485Y10058D01*
X8518D01*
X8551Y10025D01*
Y9958D01*
X8518Y9925D01*
X8485D01*
X8451Y9958D01*
X8418Y9925D01*
X8385D01*
X8451Y9958D02*
Y10025D01*
X5955Y6852D02*
X5921Y6885D01*
X5855D01*
X5821Y6852D01*
Y6719D01*
X5855Y6685D01*
X5921D01*
X5955Y6719D01*
X6154Y6885D02*
X6088Y6852D01*
X6021Y6785D01*
Y6719D01*
X6055Y6685D01*
X6121D01*
X6154Y6719D01*
Y6752D01*
X6121Y6785D01*
X6021D01*
X6221Y6719D02*
X6254Y6685D01*
X6321D01*
X6354Y6719D01*
Y6852D01*
X6321Y6885D01*
X6254D01*
X6221Y6852D01*
Y6819D01*
X6254Y6785D01*
X6354D01*
X5925Y7692D02*
X5891Y7725D01*
X5825D01*
X5791Y7692D01*
Y7559D01*
X5825Y7525D01*
X5891D01*
X5925Y7559D01*
X5991Y7725D02*
X6124D01*
Y7692D01*
X5991Y7559D01*
Y7525D01*
X6191Y7692D02*
X6224Y7725D01*
X6291D01*
X6324Y7692D01*
Y7559D01*
X6291Y7525D01*
X6224D01*
X6191Y7559D01*
Y7692D01*
X5975Y6422D02*
X5941Y6455D01*
X5875D01*
X5841Y6422D01*
Y6289D01*
X5875Y6255D01*
X5941D01*
X5975Y6289D01*
X6041Y6455D02*
X6174D01*
Y6422D01*
X6041Y6289D01*
Y6255D01*
X6241D02*
X6308D01*
X6274D01*
Y6455D01*
X6241Y6422D01*
X5945Y7242D02*
X5911Y7275D01*
X5845D01*
X5811Y7242D01*
Y7109D01*
X5845Y7075D01*
X5911D01*
X5945Y7109D01*
X6011Y7275D02*
X6144D01*
Y7242D01*
X6011Y7109D01*
Y7075D01*
X6344D02*
X6211D01*
X6344Y7209D01*
Y7242D01*
X6311Y7275D01*
X6244D01*
X6211Y7242D01*
X5936Y9858D02*
X5902Y9824D01*
Y9758D01*
X5936Y9724D01*
X6069D01*
X6102Y9758D01*
Y9824D01*
X6069Y9858D01*
X5902Y9924D02*
Y10058D01*
X5936D01*
X6069Y9924D01*
X6102D01*
X5936Y10124D02*
X5902Y10158D01*
Y10224D01*
X5936Y10258D01*
X5969D01*
X6002Y10224D01*
Y10191D01*
Y10224D01*
X6036Y10258D01*
X6069D01*
X6102Y10224D01*
Y10158D01*
X6069Y10124D01*
X13265Y9569D02*
X13231Y9535D01*
Y9469D01*
X13265Y9435D01*
X13398D01*
X13431Y9469D01*
Y9535D01*
X13398Y9569D01*
X13265Y9635D02*
X13231Y9669D01*
Y9735D01*
X13265Y9768D01*
X13298D01*
X13331Y9735D01*
X13365Y9768D01*
X13398D01*
X13431Y9735D01*
Y9669D01*
X13398Y9635D01*
X13365D01*
X13331Y9669D01*
X13298Y9635D01*
X13265D01*
X13331Y9669D02*
Y9735D01*
X13265Y9835D02*
X13231Y9868D01*
Y9935D01*
X13265Y9968D01*
X13298D01*
X13331Y9935D01*
Y9902D01*
Y9935D01*
X13365Y9968D01*
X13398D01*
X13431Y9935D01*
Y9868D01*
X13398Y9835D01*
X14605Y8719D02*
X14571Y8685D01*
Y8619D01*
X14605Y8585D01*
X14738D01*
X14771Y8619D01*
Y8685D01*
X14738Y8719D01*
X14605Y8785D02*
X14571Y8819D01*
Y8885D01*
X14605Y8918D01*
X14638D01*
X14671Y8885D01*
X14705Y8918D01*
X14738D01*
X14771Y8885D01*
Y8819D01*
X14738Y8785D01*
X14705D01*
X14671Y8819D01*
X14638Y8785D01*
X14605D01*
X14671Y8819D02*
Y8885D01*
X14771Y9085D02*
X14571D01*
X14671Y8985D01*
Y9118D01*
X12815Y9569D02*
X12781Y9535D01*
Y9469D01*
X12815Y9435D01*
X12948D01*
X12981Y9469D01*
Y9535D01*
X12948Y9569D01*
X12815Y9635D02*
X12781Y9669D01*
Y9735D01*
X12815Y9768D01*
X12848D01*
X12881Y9735D01*
X12915Y9768D01*
X12948D01*
X12981Y9735D01*
Y9669D01*
X12948Y9635D01*
X12915D01*
X12881Y9669D01*
X12848Y9635D01*
X12815D01*
X12881Y9669D02*
Y9735D01*
X12781Y9968D02*
Y9835D01*
X12881D01*
X12848Y9902D01*
Y9935D01*
X12881Y9968D01*
X12948D01*
X12981Y9935D01*
Y9868D01*
X12948Y9835D01*
X10135Y6502D02*
X10101Y6535D01*
X10035D01*
X10001Y6502D01*
Y6369D01*
X10035Y6335D01*
X10101D01*
X10135Y6369D01*
X10201Y6502D02*
X10235Y6535D01*
X10301D01*
X10334Y6502D01*
Y6469D01*
X10301Y6435D01*
X10334Y6402D01*
Y6369D01*
X10301Y6335D01*
X10235D01*
X10201Y6369D01*
Y6402D01*
X10235Y6435D01*
X10201Y6469D01*
Y6502D01*
X10235Y6435D02*
X10301D01*
X10534Y6535D02*
X10468Y6502D01*
X10401Y6435D01*
Y6369D01*
X10434Y6335D01*
X10501D01*
X10534Y6369D01*
Y6402D01*
X10501Y6435D01*
X10401D01*
X10195Y7302D02*
X10161Y7335D01*
X10095D01*
X10061Y7302D01*
Y7169D01*
X10095Y7135D01*
X10161D01*
X10195Y7169D01*
X10261Y7302D02*
X10295Y7335D01*
X10361D01*
X10394Y7302D01*
Y7269D01*
X10361Y7235D01*
X10394Y7202D01*
Y7169D01*
X10361Y7135D01*
X10295D01*
X10261Y7169D01*
Y7202D01*
X10295Y7235D01*
X10261Y7269D01*
Y7302D01*
X10295Y7235D02*
X10361D01*
X10461Y7335D02*
X10594D01*
Y7302D01*
X10461Y7169D01*
Y7135D01*
X10155Y6902D02*
X10121Y6935D01*
X10055D01*
X10021Y6902D01*
Y6769D01*
X10055Y6735D01*
X10121D01*
X10155Y6769D01*
X10221Y6902D02*
X10255Y6935D01*
X10321D01*
X10354Y6902D01*
Y6869D01*
X10321Y6835D01*
X10354Y6802D01*
Y6769D01*
X10321Y6735D01*
X10255D01*
X10221Y6769D01*
Y6802D01*
X10255Y6835D01*
X10221Y6869D01*
Y6902D01*
X10255Y6835D02*
X10321D01*
X10421Y6902D02*
X10454Y6935D01*
X10521D01*
X10554Y6902D01*
Y6869D01*
X10521Y6835D01*
X10554Y6802D01*
Y6769D01*
X10521Y6735D01*
X10454D01*
X10421Y6769D01*
Y6802D01*
X10454Y6835D01*
X10421Y6869D01*
Y6902D01*
X10454Y6835D02*
X10521D01*
X10155Y7712D02*
X10121Y7745D01*
X10055D01*
X10021Y7712D01*
Y7579D01*
X10055Y7545D01*
X10121D01*
X10155Y7579D01*
X10221Y7712D02*
X10255Y7745D01*
X10321D01*
X10354Y7712D01*
Y7679D01*
X10321Y7645D01*
X10354Y7612D01*
Y7579D01*
X10321Y7545D01*
X10255D01*
X10221Y7579D01*
Y7612D01*
X10255Y7645D01*
X10221Y7679D01*
Y7712D01*
X10255Y7645D02*
X10321D01*
X10421Y7579D02*
X10454Y7545D01*
X10521D01*
X10554Y7579D01*
Y7712D01*
X10521Y7745D01*
X10454D01*
X10421Y7712D01*
Y7679D01*
X10454Y7645D01*
X10554D01*
X10655Y10499D02*
X10621Y10465D01*
Y10399D01*
X10655Y10365D01*
X10788D01*
X10821Y10399D01*
Y10465D01*
X10788Y10499D01*
Y10565D02*
X10821Y10599D01*
Y10665D01*
X10788Y10698D01*
X10655D01*
X10621Y10665D01*
Y10599D01*
X10655Y10565D01*
X10688D01*
X10721Y10599D01*
Y10698D01*
X10655Y10765D02*
X10621Y10798D01*
Y10865D01*
X10655Y10898D01*
X10788D01*
X10821Y10865D01*
Y10798D01*
X10788Y10765D01*
X10655D01*
X16655Y5072D02*
X16621Y5105D01*
X16555D01*
X16521Y5072D01*
Y4939D01*
X16555Y4905D01*
X16621D01*
X16655Y4939D01*
X16721D02*
X16755Y4905D01*
X16821D01*
X16854Y4939D01*
Y5072D01*
X16821Y5105D01*
X16755D01*
X16721Y5072D01*
Y5039D01*
X16755Y5005D01*
X16854D01*
X16921Y4905D02*
X16988D01*
X16954D01*
Y5105D01*
X16921Y5072D01*
X14365Y6572D02*
X14331Y6605D01*
X14265D01*
X14231Y6572D01*
Y6439D01*
X14265Y6405D01*
X14331D01*
X14365Y6439D01*
X14431D02*
X14465Y6405D01*
X14531D01*
X14564Y6439D01*
Y6572D01*
X14531Y6605D01*
X14465D01*
X14431Y6572D01*
Y6539D01*
X14465Y6505D01*
X14564D01*
X14631Y6572D02*
X14664Y6605D01*
X14731D01*
X14764Y6572D01*
Y6539D01*
X14731Y6505D01*
X14698D01*
X14731D01*
X14764Y6472D01*
Y6439D01*
X14731Y6405D01*
X14664D01*
X14631Y6439D01*
X18245Y8059D02*
X18211Y8025D01*
Y7959D01*
X18245Y7925D01*
X18378D01*
X18411Y7959D01*
Y8025D01*
X18378Y8059D01*
Y8125D02*
X18411Y8159D01*
Y8225D01*
X18378Y8259D01*
X18245D01*
X18211Y8225D01*
Y8159D01*
X18245Y8125D01*
X18278D01*
X18311Y8159D01*
Y8259D01*
X18411Y8425D02*
X18211D01*
X18311Y8325D01*
Y8458D01*
X18725Y7979D02*
X18691Y7945D01*
Y7879D01*
X18725Y7845D01*
X18858D01*
X18891Y7879D01*
Y7945D01*
X18858Y7979D01*
X18891Y8045D02*
Y8112D01*
Y8079D01*
X18691D01*
X18725Y8045D01*
Y8212D02*
X18691Y8245D01*
Y8312D01*
X18725Y8345D01*
X18858D01*
X18891Y8312D01*
Y8245D01*
X18858Y8212D01*
X18725D01*
X18891Y8412D02*
Y8478D01*
Y8445D01*
X18691D01*
X18725Y8412D01*
X16725Y9579D02*
X16691Y9545D01*
Y9479D01*
X16725Y9445D01*
X16858D01*
X16891Y9479D01*
Y9545D01*
X16858Y9579D01*
X16891Y9645D02*
Y9712D01*
Y9679D01*
X16691D01*
X16725Y9645D01*
Y9812D02*
X16691Y9845D01*
Y9912D01*
X16725Y9945D01*
X16858D01*
X16891Y9912D01*
Y9845D01*
X16858Y9812D01*
X16725D01*
X16891Y10145D02*
Y10012D01*
X16758Y10145D01*
X16725D01*
X16691Y10112D01*
Y10045D01*
X16725Y10012D01*
X14915Y9689D02*
X14881Y9655D01*
Y9589D01*
X14915Y9555D01*
X15048D01*
X15081Y9589D01*
Y9655D01*
X15048Y9689D01*
X15081Y9755D02*
Y9822D01*
Y9789D01*
X14881D01*
X14915Y9755D01*
Y9922D02*
X14881Y9955D01*
Y10022D01*
X14915Y10055D01*
X15048D01*
X15081Y10022D01*
Y9955D01*
X15048Y9922D01*
X14915D01*
Y10122D02*
X14881Y10155D01*
Y10222D01*
X14915Y10255D01*
X14948D01*
X14981Y10222D01*
Y10188D01*
Y10222D01*
X15015Y10255D01*
X15048D01*
X15081Y10222D01*
Y10155D01*
X15048Y10122D01*
X15025Y8052D02*
X14991Y8085D01*
X14925D01*
X14891Y8052D01*
Y7919D01*
X14925Y7885D01*
X14991D01*
X15025Y7919D01*
X15091Y7885D02*
X15158D01*
X15125D01*
Y8085D01*
X15091Y8052D01*
X15258D02*
X15291Y8085D01*
X15358D01*
X15391Y8052D01*
Y7919D01*
X15358Y7885D01*
X15291D01*
X15258Y7919D01*
Y8052D01*
X15591Y8085D02*
X15524Y8052D01*
X15458Y7985D01*
Y7919D01*
X15491Y7885D01*
X15558D01*
X15591Y7919D01*
Y7952D01*
X15558Y7985D01*
X15458D01*
X19425Y4472D02*
X19391Y4505D01*
X19325D01*
X19291Y4472D01*
Y4339D01*
X19325Y4305D01*
X19391D01*
X19425Y4339D01*
X19491Y4305D02*
X19558D01*
X19525D01*
Y4505D01*
X19491Y4472D01*
X19658D02*
X19691Y4505D01*
X19758D01*
X19791Y4472D01*
Y4339D01*
X19758Y4305D01*
X19691D01*
X19658Y4339D01*
Y4472D01*
X19858D02*
X19891Y4505D01*
X19958D01*
X19991Y4472D01*
Y4439D01*
X19958Y4405D01*
X19991Y4372D01*
Y4339D01*
X19958Y4305D01*
X19891D01*
X19858Y4339D01*
Y4372D01*
X19891Y4405D01*
X19858Y4439D01*
Y4472D01*
X19891Y4405D02*
X19958D01*
X18635Y5762D02*
X18601Y5795D01*
X18535D01*
X18501Y5762D01*
Y5629D01*
X18535Y5595D01*
X18601D01*
X18635Y5629D01*
X18701Y5595D02*
X18768D01*
X18735D01*
Y5795D01*
X18701Y5762D01*
X18868Y5595D02*
X18934D01*
X18901D01*
Y5795D01*
X18868Y5762D01*
X19034Y5595D02*
X19101D01*
X19068D01*
Y5795D01*
X19034Y5762D01*
X22705Y8579D02*
X22671Y8545D01*
Y8479D01*
X22705Y8445D01*
X22838D01*
X22871Y8479D01*
Y8545D01*
X22838Y8579D01*
X22871Y8645D02*
Y8712D01*
Y8679D01*
X22671D01*
X22705Y8645D01*
X22871Y8812D02*
Y8878D01*
Y8845D01*
X22671D01*
X22705Y8812D01*
Y8978D02*
X22671Y9012D01*
Y9078D01*
X22705Y9112D01*
X22738D01*
X22771Y9078D01*
X22805Y9112D01*
X22838D01*
X22871Y9078D01*
Y9012D01*
X22838Y8978D01*
X22805D01*
X22771Y9012D01*
X22738Y8978D01*
X22705D01*
X22771Y9012D02*
Y9078D01*
X20963Y8658D02*
X20929Y8624D01*
Y8558D01*
X20963Y8524D01*
X21096D01*
X21129Y8558D01*
Y8624D01*
X21096Y8658D01*
X21129Y8724D02*
Y8791D01*
Y8758D01*
X20929D01*
X20963Y8724D01*
X21129Y8891D02*
Y8958D01*
Y8924D01*
X20929D01*
X20963Y8891D01*
X21096Y9058D02*
X21129Y9091D01*
Y9158D01*
X21096Y9191D01*
X20963D01*
X20929Y9158D01*
Y9091D01*
X20963Y9058D01*
X20996D01*
X21029Y9091D01*
Y9191D01*
X19535Y8809D02*
X19501Y8775D01*
Y8709D01*
X19535Y8675D01*
X19668D01*
X19701Y8709D01*
Y8775D01*
X19668Y8809D01*
X19701Y8875D02*
Y8942D01*
Y8909D01*
X19501D01*
X19535Y8875D01*
X19701Y9175D02*
Y9042D01*
X19568Y9175D01*
X19535D01*
X19501Y9142D01*
Y9075D01*
X19535Y9042D01*
Y9242D02*
X19501Y9275D01*
Y9342D01*
X19535Y9375D01*
X19668D01*
X19701Y9342D01*
Y9275D01*
X19668Y9242D01*
X19535D01*
X31300Y5826D02*
Y5626D01*
X31400D01*
X31433Y5660D01*
Y5793D01*
X31400Y5826D01*
X31300D01*
X31633Y5626D02*
X31500D01*
X31633Y5760D01*
Y5793D01*
X31600Y5826D01*
X31533D01*
X31500Y5793D01*
X32529Y3737D02*
X32729D01*
Y3837D01*
X32696Y3870D01*
X32563D01*
X32529Y3837D01*
Y3737D01*
Y4070D02*
Y3937D01*
X32629D01*
X32596Y4003D01*
Y4037D01*
X32629Y4070D01*
X32696D01*
X32729Y4037D01*
Y3970D01*
X32696Y3937D01*
X32571Y1265D02*
Y1065D01*
X32671D01*
X32705Y1099D01*
Y1232D01*
X32671Y1265D01*
X32571D01*
X32771D02*
X32904D01*
Y1232D01*
X32771Y1099D01*
Y1065D01*
X22205Y17602D02*
Y17402D01*
X22305D01*
X22338Y17435D01*
Y17568D01*
X22305Y17602D01*
X22205D01*
X22405Y17568D02*
X22438Y17602D01*
X22505D01*
X22538Y17568D01*
Y17535D01*
X22505Y17502D01*
X22538Y17468D01*
Y17435D01*
X22505Y17402D01*
X22438D01*
X22405Y17435D01*
Y17468D01*
X22438Y17502D01*
X22405Y17535D01*
Y17568D01*
X22438Y17502D02*
X22505D01*
X22205Y18228D02*
Y18028D01*
X22305D01*
X22339Y18061D01*
Y18195D01*
X22305Y18228D01*
X22205D01*
X22405Y18061D02*
X22439Y18028D01*
X22505D01*
X22539Y18061D01*
Y18195D01*
X22505Y18228D01*
X22439D01*
X22405Y18195D01*
Y18161D01*
X22439Y18128D01*
X22539D01*
X38741Y3464D02*
Y3264D01*
X38874D01*
X39074D02*
X38941D01*
X39074Y3398D01*
Y3431D01*
X39041Y3464D01*
X38974D01*
X38941Y3431D01*
X2971Y14515D02*
X3171D01*
Y14649D01*
Y14815D02*
X2971D01*
X3071Y14715D01*
Y14849D01*
X2421Y14525D02*
X2621D01*
Y14659D01*
X2421Y14858D02*
X2455Y14792D01*
X2521Y14725D01*
X2588D01*
X2621Y14759D01*
Y14825D01*
X2588Y14858D01*
X2555D01*
X2521Y14825D01*
Y14725D01*
X3471Y14505D02*
X3671D01*
Y14639D01*
X3471Y14705D02*
Y14839D01*
X3505D01*
X3638Y14705D01*
X3671D01*
X4446Y14524D02*
X4646D01*
Y14657D01*
X4480Y14724D02*
X4446Y14757D01*
Y14824D01*
X4480Y14857D01*
X4513D01*
X4546Y14824D01*
X4580Y14857D01*
X4613D01*
X4646Y14824D01*
Y14757D01*
X4613Y14724D01*
X4580D01*
X4546Y14757D01*
X4513Y14724D01*
X4480D01*
X4546Y14757D02*
Y14824D01*
X1321Y12425D02*
Y12225D01*
X1455D01*
X1521Y12259D02*
X1555Y12225D01*
X1621D01*
X1654Y12259D01*
Y12392D01*
X1621Y12425D01*
X1555D01*
X1521Y12392D01*
Y12359D01*
X1555Y12325D01*
X1654D01*
X7401Y14495D02*
X7601D01*
Y14629D01*
Y14695D02*
Y14762D01*
Y14729D01*
X7401D01*
X7435Y14695D01*
Y14862D02*
X7401Y14895D01*
Y14962D01*
X7435Y14995D01*
X7568D01*
X7601Y14962D01*
Y14895D01*
X7568Y14862D01*
X7435D01*
X6281Y14505D02*
X6481D01*
Y14639D01*
Y14705D02*
Y14772D01*
Y14739D01*
X6281D01*
X6315Y14705D01*
X6481Y14872D02*
Y14938D01*
Y14905D01*
X6281D01*
X6315Y14872D01*
X6941Y14495D02*
X7141D01*
Y14629D01*
Y14695D02*
Y14762D01*
Y14729D01*
X6941D01*
X6975Y14695D01*
X7141Y14995D02*
Y14862D01*
X7008Y14995D01*
X6975D01*
X6941Y14962D01*
Y14895D01*
X6975Y14862D01*
X8001Y14505D02*
X8201D01*
Y14639D01*
Y14705D02*
Y14772D01*
Y14739D01*
X8001D01*
X8035Y14705D01*
Y14872D02*
X8001Y14905D01*
Y14972D01*
X8035Y15005D01*
X8068D01*
X8101Y14972D01*
Y14938D01*
Y14972D01*
X8135Y15005D01*
X8168D01*
X8201Y14972D01*
Y14905D01*
X8168Y14872D01*
X5921Y11965D02*
X6121D01*
Y12099D01*
Y12165D02*
Y12232D01*
Y12199D01*
X5921D01*
X5955Y12165D01*
X5921Y12465D02*
Y12332D01*
X6021D01*
X5988Y12398D01*
Y12432D01*
X6021Y12465D01*
X6088D01*
X6121Y12432D01*
Y12365D01*
X6088Y12332D01*
X10601Y14525D02*
X10801D01*
Y14659D01*
Y14725D02*
Y14792D01*
Y14759D01*
X10601D01*
X10635Y14725D01*
X10601Y14892D02*
Y15025D01*
X10635D01*
X10768Y14892D01*
X10801D01*
X12300Y14475D02*
X12500D01*
Y14609D01*
Y14675D02*
Y14742D01*
Y14709D01*
X12300D01*
X12334Y14675D01*
X12467Y14842D02*
X12500Y14875D01*
Y14942D01*
X12467Y14975D01*
X12334D01*
X12300Y14942D01*
Y14875D01*
X12334Y14842D01*
X12367D01*
X12400Y14875D01*
Y14975D01*
X13291Y14485D02*
X13491D01*
Y14619D01*
Y14819D02*
Y14685D01*
X13358Y14819D01*
X13325D01*
X13291Y14785D01*
Y14719D01*
X13325Y14685D01*
Y14885D02*
X13291Y14918D01*
Y14985D01*
X13325Y15018D01*
X13458D01*
X13491Y14985D01*
Y14918D01*
X13458Y14885D01*
X13325D01*
X10161Y12225D02*
X10361D01*
Y12359D01*
Y12558D02*
Y12425D01*
X10228Y12558D01*
X10195D01*
X10161Y12525D01*
Y12459D01*
X10195Y12425D01*
X10361Y12625D02*
Y12692D01*
Y12658D01*
X10161D01*
X10195Y12625D01*
X15001Y14455D02*
X15201D01*
Y14589D01*
Y14789D02*
Y14655D01*
X15068Y14789D01*
X15035D01*
X15001Y14755D01*
Y14689D01*
X15035Y14655D01*
Y14855D02*
X15001Y14888D01*
Y14955D01*
X15035Y14988D01*
X15068D01*
X15101Y14955D01*
Y14922D01*
Y14955D01*
X15135Y14988D01*
X15168D01*
X15201Y14955D01*
Y14888D01*
X15168Y14855D01*
X15561Y14475D02*
X15761D01*
Y14609D01*
Y14808D02*
Y14675D01*
X15628Y14808D01*
X15595D01*
X15561Y14775D01*
Y14709D01*
X15595Y14675D01*
X15761Y14975D02*
X15561D01*
X15661Y14875D01*
Y15008D01*
X14918Y11220D02*
X15118D01*
Y11354D01*
Y11554D02*
Y11420D01*
X14985Y11554D01*
X14951D01*
X14918Y11520D01*
Y11454D01*
X14951Y11420D01*
X14918Y11620D02*
Y11754D01*
X14951D01*
X15085Y11620D01*
X15118D01*
X21650Y14488D02*
X21850D01*
Y14621D01*
Y14821D02*
Y14688D01*
X21717Y14821D01*
X21684D01*
X21650Y14788D01*
Y14721D01*
X21684Y14688D01*
X21817Y14888D02*
X21850Y14921D01*
Y14988D01*
X21817Y15021D01*
X21684D01*
X21650Y14988D01*
Y14921D01*
X21684Y14888D01*
X21717D01*
X21750Y14921D01*
Y15021D01*
X19101Y11935D02*
X19301D01*
Y12069D01*
X19135Y12135D02*
X19101Y12169D01*
Y12235D01*
X19135Y12269D01*
X19168D01*
X19201Y12235D01*
Y12202D01*
Y12235D01*
X19235Y12269D01*
X19268D01*
X19301Y12235D01*
Y12169D01*
X19268Y12135D01*
X19135Y12335D02*
X19101Y12368D01*
Y12435D01*
X19135Y12468D01*
X19268D01*
X19301Y12435D01*
Y12368D01*
X19268Y12335D01*
X19135D01*
X19958Y14488D02*
X20157D01*
Y14621D01*
X19991Y14688D02*
X19958Y14721D01*
Y14788D01*
X19991Y14821D01*
X20024D01*
X20058Y14788D01*
Y14755D01*
Y14788D01*
X20091Y14821D01*
X20124D01*
X20157Y14788D01*
Y14721D01*
X20124Y14688D01*
X20157Y14888D02*
Y14955D01*
Y14921D01*
X19958D01*
X19991Y14888D01*
X20571Y14475D02*
X20771D01*
Y14609D01*
X20605Y14675D02*
X20571Y14709D01*
Y14775D01*
X20605Y14808D01*
X20638D01*
X20671Y14775D01*
Y14742D01*
Y14775D01*
X20705Y14808D01*
X20738D01*
X20771Y14775D01*
Y14709D01*
X20738Y14675D01*
X20771Y15008D02*
Y14875D01*
X20638Y15008D01*
X20605D01*
X20571Y14975D01*
Y14908D01*
X20605Y14875D01*
X18681Y14475D02*
X18881D01*
Y14609D01*
X18715Y14675D02*
X18681Y14709D01*
Y14775D01*
X18715Y14808D01*
X18748D01*
X18781Y14775D01*
Y14742D01*
Y14775D01*
X18815Y14808D01*
X18848D01*
X18881Y14775D01*
Y14709D01*
X18848Y14675D01*
X18715Y14875D02*
X18681Y14908D01*
Y14975D01*
X18715Y15008D01*
X18748D01*
X18781Y14975D01*
Y14942D01*
Y14975D01*
X18815Y15008D01*
X18848D01*
X18881Y14975D01*
Y14908D01*
X18848Y14875D01*
X23781Y7875D02*
Y8075D01*
X23881D01*
X23915Y8042D01*
Y7975D01*
X23881Y7942D01*
X23781D01*
X23981Y7875D02*
X24048D01*
X24015D01*
Y8075D01*
X23981Y8042D01*
X14213Y16102D02*
Y16402D01*
X14363D01*
X14413Y16352D01*
Y16252D01*
X14363Y16202D01*
X14213D01*
X14512Y16352D02*
X14562Y16402D01*
X14662D01*
X14712Y16352D01*
Y16302D01*
X14662Y16252D01*
X14612D01*
X14662D01*
X14712Y16202D01*
Y16152D01*
X14662Y16102D01*
X14562D01*
X14512Y16152D01*
X34646Y669D02*
Y869D01*
X34746D01*
X34779Y836D01*
Y769D01*
X34746Y736D01*
X34646D01*
X34712D02*
X34779Y669D01*
X34846Y836D02*
X34879Y869D01*
X34946D01*
X34979Y836D01*
Y803D01*
X34946Y769D01*
X34912D01*
X34946D01*
X34979Y736D01*
Y703D01*
X34946Y669D01*
X34879D01*
X34846Y703D01*
X35551Y866D02*
Y1066D01*
X35651D01*
X35684Y1033D01*
Y966D01*
X35651Y933D01*
X35551D01*
X35618D02*
X35684Y866D01*
X35751Y1066D02*
X35884D01*
Y1033D01*
X35751Y899D01*
Y866D01*
X33761Y4845D02*
X33561D01*
Y4945D01*
X33595Y4979D01*
X33661D01*
X33695Y4945D01*
Y4845D01*
Y4912D02*
X33761Y4979D01*
Y5045D02*
Y5112D01*
Y5079D01*
X33561D01*
X33595Y5045D01*
X33761Y5345D02*
Y5212D01*
X33628Y5345D01*
X33595D01*
X33561Y5312D01*
Y5245D01*
X33595Y5212D01*
X34161Y2955D02*
X33961D01*
Y3055D01*
X33995Y3089D01*
X34061D01*
X34095Y3055D01*
Y2955D01*
Y3022D02*
X34161Y3089D01*
Y3155D02*
Y3222D01*
Y3189D01*
X33961D01*
X33995Y3155D01*
X34161Y3422D02*
X33961D01*
X34061Y3322D01*
Y3455D01*
X30081Y5085D02*
Y5285D01*
X30181D01*
X30215Y5252D01*
Y5185D01*
X30181Y5152D01*
X30081D01*
X30148D02*
X30215Y5085D01*
X30281D02*
X30348D01*
X30315D01*
Y5285D01*
X30281Y5252D01*
X30581Y5285D02*
X30448D01*
Y5185D01*
X30514Y5219D01*
X30548D01*
X30581Y5185D01*
Y5119D01*
X30548Y5085D01*
X30481D01*
X30448Y5119D01*
X35119Y4248D02*
Y4448D01*
X35219D01*
X35252Y4415D01*
Y4348D01*
X35219Y4315D01*
X35119D01*
X35185D02*
X35252Y4248D01*
X35319D02*
X35385D01*
X35352D01*
Y4448D01*
X35319Y4415D01*
X35485Y4448D02*
X35619D01*
Y4415D01*
X35485Y4282D01*
Y4248D01*
X34528Y5233D02*
X34328D01*
Y5333D01*
X34362Y5366D01*
X34428D01*
X34462Y5333D01*
Y5233D01*
Y5299D02*
X34528Y5366D01*
Y5433D02*
Y5499D01*
Y5466D01*
X34328D01*
X34362Y5433D01*
X34495Y5599D02*
X34528Y5633D01*
Y5699D01*
X34495Y5733D01*
X34362D01*
X34328Y5699D01*
Y5633D01*
X34362Y5599D01*
X34395D01*
X34428Y5633D01*
Y5733D01*
X33501Y2025D02*
Y2225D01*
X33601D01*
X33635Y2192D01*
Y2125D01*
X33601Y2092D01*
X33501D01*
X33568D02*
X33635Y2025D01*
X33834D02*
X33701D01*
X33834Y2159D01*
Y2192D01*
X33801Y2225D01*
X33735D01*
X33701Y2192D01*
X33901D02*
X33934Y2225D01*
X34001D01*
X34034Y2192D01*
Y2059D01*
X34001Y2025D01*
X33934D01*
X33901Y2059D01*
Y2192D01*
X35472Y4803D02*
X35273D01*
Y4903D01*
X35306Y4936D01*
X35372D01*
X35406Y4903D01*
Y4803D01*
Y4870D02*
X35472Y4936D01*
Y5136D02*
Y5003D01*
X35339Y5136D01*
X35306D01*
X35273Y5103D01*
Y5036D01*
X35306Y5003D01*
X35472Y5203D02*
Y5270D01*
Y5236D01*
X35273D01*
X35306Y5203D01*
X25923Y16937D02*
Y17137D01*
X26023D01*
X26056Y17103D01*
Y17037D01*
X26023Y17003D01*
X25923D01*
X25990D02*
X26056Y16937D01*
X26256D02*
X26123D01*
X26256Y17070D01*
Y17103D01*
X26223Y17137D01*
X26156D01*
X26123Y17103D01*
X26456Y16937D02*
X26323D01*
X26456Y17070D01*
Y17103D01*
X26423Y17137D01*
X26356D01*
X26323Y17103D01*
X19016Y22677D02*
X18716D01*
Y22827D01*
X18766Y22877D01*
X18866D01*
X18916Y22827D01*
Y22677D01*
Y22777D02*
X19016Y22877D01*
Y23177D02*
Y22977D01*
X18816Y23177D01*
X18766D01*
X18716Y23127D01*
Y23027D01*
X18766Y22977D01*
X18716Y23277D02*
Y23477D01*
X18766D01*
X18966Y23277D01*
X19016D01*
Y21654D02*
X18716D01*
Y21803D01*
X18766Y21853D01*
X18866D01*
X18916Y21803D01*
Y21654D01*
Y21754D02*
X19016Y21853D01*
Y22153D02*
Y21953D01*
X18816Y22153D01*
X18766D01*
X18716Y22103D01*
Y22003D01*
X18766Y21953D01*
Y22253D02*
X18716Y22303D01*
Y22403D01*
X18766Y22453D01*
X18816D01*
X18866Y22403D01*
X18916Y22453D01*
X18966D01*
X19016Y22403D01*
Y22303D01*
X18966Y22253D01*
X18916D01*
X18866Y22303D01*
X18816Y22253D01*
X18766D01*
X18866Y22303D02*
Y22403D01*
X24459Y18960D02*
Y19160D01*
X24559D01*
X24592Y19127D01*
Y19060D01*
X24559Y19027D01*
X24459D01*
X24525D02*
X24592Y18960D01*
X24792D02*
X24659D01*
X24792Y19093D01*
Y19127D01*
X24759Y19160D01*
X24692D01*
X24659Y19127D01*
X24859Y18994D02*
X24892Y18960D01*
X24959D01*
X24992Y18994D01*
Y19127D01*
X24959Y19160D01*
X24892D01*
X24859Y19127D01*
Y19093D01*
X24892Y19060D01*
X24992D01*
X26024Y19921D02*
Y20121D01*
X26124D01*
X26157Y20088D01*
Y20021D01*
X26124Y19988D01*
X26024D01*
X26090D02*
X26157Y19921D01*
X26224Y20088D02*
X26257Y20121D01*
X26324D01*
X26357Y20088D01*
Y20055D01*
X26324Y20021D01*
X26290D01*
X26324D01*
X26357Y19988D01*
Y19955D01*
X26324Y19921D01*
X26257D01*
X26224Y19955D01*
X26423Y20088D02*
X26457Y20121D01*
X26523D01*
X26557Y20088D01*
Y19955D01*
X26523Y19921D01*
X26457D01*
X26423Y19955D01*
Y20088D01*
X25000Y17717D02*
X24800D01*
Y17816D01*
X24833Y17850D01*
X24900D01*
X24933Y17816D01*
Y17717D01*
Y17783D02*
X25000Y17850D01*
X24833Y17916D02*
X24800Y17950D01*
Y18016D01*
X24833Y18050D01*
X24867D01*
X24900Y18016D01*
Y17983D01*
Y18016D01*
X24933Y18050D01*
X24967D01*
X25000Y18016D01*
Y17950D01*
X24967Y17916D01*
X25000Y18116D02*
Y18183D01*
Y18150D01*
X24800D01*
X24833Y18116D01*
X19016Y23937D02*
X18716D01*
Y24087D01*
X18766Y24137D01*
X18866D01*
X18916Y24087D01*
Y23937D01*
Y24037D02*
X19016Y24137D01*
X18766Y24237D02*
X18716Y24287D01*
Y24387D01*
X18766Y24437D01*
X18816D01*
X18866Y24387D01*
Y24337D01*
Y24387D01*
X18916Y24437D01*
X18966D01*
X19016Y24387D01*
Y24287D01*
X18966Y24237D01*
X18766Y24537D02*
X18716Y24587D01*
Y24687D01*
X18766Y24737D01*
X18816D01*
X18866Y24687D01*
Y24637D01*
Y24687D01*
X18916Y24737D01*
X18966D01*
X19016Y24687D01*
Y24587D01*
X18966Y24537D01*
X19055Y20709D02*
X18755D01*
Y20859D01*
X18805Y20909D01*
X18905D01*
X18955Y20859D01*
Y20709D01*
Y20809D02*
X19055Y20909D01*
X18805Y21009D02*
X18755Y21059D01*
Y21159D01*
X18805Y21209D01*
X18855D01*
X18905Y21159D01*
Y21109D01*
Y21159D01*
X18955Y21209D01*
X19005D01*
X19055Y21159D01*
Y21059D01*
X19005Y21009D01*
X19055Y21458D02*
X18755D01*
X18905Y21308D01*
Y21508D01*
X25236Y18189D02*
Y18389D01*
X25336D01*
X25370Y18356D01*
Y18289D01*
X25336Y18256D01*
X25236D01*
X25303D02*
X25370Y18189D01*
X25436Y18356D02*
X25469Y18389D01*
X25536D01*
X25569Y18356D01*
Y18322D01*
X25536Y18289D01*
X25503D01*
X25536D01*
X25569Y18256D01*
Y18222D01*
X25536Y18189D01*
X25469D01*
X25436Y18222D01*
X25769Y18389D02*
X25703Y18356D01*
X25636Y18289D01*
Y18222D01*
X25669Y18189D01*
X25736D01*
X25769Y18222D01*
Y18256D01*
X25736Y18289D01*
X25636D01*
X28456Y21644D02*
X28257D01*
Y21744D01*
X28290Y21778D01*
X28356D01*
X28390Y21744D01*
Y21644D01*
Y21711D02*
X28456Y21778D01*
X28290Y21844D02*
X28257Y21878D01*
Y21944D01*
X28290Y21978D01*
X28323D01*
X28356Y21944D01*
Y21911D01*
Y21944D01*
X28390Y21978D01*
X28423D01*
X28456Y21944D01*
Y21878D01*
X28423Y21844D01*
X28257Y22044D02*
Y22178D01*
X28290D01*
X28423Y22044D01*
X28456D01*
X24134Y17126D02*
Y17326D01*
X24234D01*
X24267Y17293D01*
Y17226D01*
X24234Y17193D01*
X24134D01*
X24200D02*
X24267Y17126D01*
X24334Y17293D02*
X24367Y17326D01*
X24434D01*
X24467Y17293D01*
Y17259D01*
X24434Y17226D01*
X24400D01*
X24434D01*
X24467Y17193D01*
Y17159D01*
X24434Y17126D01*
X24367D01*
X24334Y17159D01*
X24534Y17293D02*
X24567Y17326D01*
X24634D01*
X24667Y17293D01*
Y17259D01*
X24634Y17226D01*
X24667Y17193D01*
Y17159D01*
X24634Y17126D01*
X24567D01*
X24534Y17159D01*
Y17193D01*
X24567Y17226D01*
X24534Y17259D01*
Y17293D01*
X24567Y17226D02*
X24634D01*
X24134Y18465D02*
Y18664D01*
X24234D01*
X24267Y18631D01*
Y18565D01*
X24234Y18531D01*
X24134D01*
X24200D02*
X24267Y18465D01*
X24334Y18631D02*
X24367Y18664D01*
X24434D01*
X24467Y18631D01*
Y18598D01*
X24434Y18565D01*
X24400D01*
X24434D01*
X24467Y18531D01*
Y18498D01*
X24434Y18465D01*
X24367D01*
X24334Y18498D01*
X24534D02*
X24567Y18465D01*
X24634D01*
X24667Y18498D01*
Y18631D01*
X24634Y18664D01*
X24567D01*
X24534Y18631D01*
Y18598D01*
X24567Y18565D01*
X24667D01*
X1220Y13071D02*
Y13271D01*
X1320D01*
X1354Y13237D01*
Y13171D01*
X1320Y13138D01*
X1220D01*
X1287D02*
X1354Y13071D01*
X1520D02*
Y13271D01*
X1420Y13171D01*
X1554D01*
X1620Y13071D02*
X1687D01*
X1654D01*
Y13271D01*
X1620Y13237D01*
X4471Y9487D02*
X4271D01*
Y9587D01*
X4305Y9620D01*
X4371D01*
X4405Y9587D01*
Y9487D01*
Y9553D02*
X4471Y9620D01*
Y9787D02*
X4271D01*
X4371Y9687D01*
Y9820D01*
X4471Y10020D02*
Y9887D01*
X4338Y10020D01*
X4305D01*
X4271Y9987D01*
Y9920D01*
X4305Y9887D01*
X6181Y10787D02*
X5981D01*
Y10887D01*
X6014Y10921D01*
X6081D01*
X6114Y10887D01*
Y10787D01*
Y10854D02*
X6181Y10921D01*
Y11087D02*
X5981D01*
X6081Y10987D01*
Y11121D01*
X5981Y11321D02*
Y11187D01*
X6081D01*
X6048Y11254D01*
Y11287D01*
X6081Y11321D01*
X6148D01*
X6181Y11287D01*
Y11221D01*
X6148Y11187D01*
X3661Y12195D02*
Y12395D01*
X3761D01*
X3795Y12362D01*
Y12295D01*
X3761Y12262D01*
X3661D01*
X3728D02*
X3795Y12195D01*
X3961D02*
Y12395D01*
X3861Y12295D01*
X3994D01*
X4061Y12395D02*
X4194D01*
Y12362D01*
X4061Y12229D01*
Y12195D01*
X4141Y14355D02*
X3941D01*
Y14455D01*
X3975Y14489D01*
X4041D01*
X4075Y14455D01*
Y14355D01*
Y14422D02*
X4141Y14489D01*
Y14655D02*
X3941D01*
X4041Y14555D01*
Y14689D01*
X4108Y14755D02*
X4141Y14788D01*
Y14855D01*
X4108Y14888D01*
X3975D01*
X3941Y14855D01*
Y14788D01*
X3975Y14755D01*
X4008D01*
X4041Y14788D01*
Y14888D01*
X4021Y9447D02*
X3821D01*
Y9547D01*
X3855Y9580D01*
X3921D01*
X3955Y9547D01*
Y9447D01*
Y9513D02*
X4021Y9580D01*
X3821Y9780D02*
Y9647D01*
X3921D01*
X3888Y9713D01*
Y9747D01*
X3921Y9780D01*
X3988D01*
X4021Y9747D01*
Y9680D01*
X3988Y9647D01*
X3855Y9847D02*
X3821Y9880D01*
Y9947D01*
X3855Y9980D01*
X3988D01*
X4021Y9947D01*
Y9880D01*
X3988Y9847D01*
X3855D01*
X2126Y11063D02*
X1926D01*
Y11163D01*
X1959Y11196D01*
X2026D01*
X2059Y11163D01*
Y11063D01*
Y11130D02*
X2126Y11196D01*
X1926Y11396D02*
Y11263D01*
X2026D01*
X1993Y11330D01*
Y11363D01*
X2026Y11396D01*
X2093D01*
X2126Y11363D01*
Y11296D01*
X2093Y11263D01*
X1959Y11463D02*
X1926Y11496D01*
Y11563D01*
X1959Y11596D01*
X1993D01*
X2026Y11563D01*
Y11530D01*
Y11563D01*
X2059Y11596D01*
X2093D01*
X2126Y11563D01*
Y11496D01*
X2093Y11463D01*
X7291Y12625D02*
Y12825D01*
X7391D01*
X7425Y12792D01*
Y12725D01*
X7391Y12692D01*
X7291D01*
X7358D02*
X7425Y12625D01*
X7624Y12825D02*
X7491D01*
Y12725D01*
X7558Y12759D01*
X7591D01*
X7624Y12725D01*
Y12659D01*
X7591Y12625D01*
X7525D01*
X7491Y12659D01*
X7824Y12825D02*
X7691D01*
Y12725D01*
X7758Y12759D01*
X7791D01*
X7824Y12725D01*
Y12659D01*
X7791Y12625D01*
X7724D01*
X7691Y12659D01*
X6201Y12845D02*
X6001D01*
Y12945D01*
X6035Y12979D01*
X6101D01*
X6135Y12945D01*
Y12845D01*
Y12912D02*
X6201Y12979D01*
X6001Y13178D02*
Y13045D01*
X6101D01*
X6068Y13112D01*
Y13145D01*
X6101Y13178D01*
X6168D01*
X6201Y13145D01*
Y13079D01*
X6168Y13045D01*
X6001Y13245D02*
Y13378D01*
X6035D01*
X6168Y13245D01*
X6201D01*
X9031Y9565D02*
X8831D01*
Y9665D01*
X8865Y9699D01*
X8931D01*
X8965Y9665D01*
Y9565D01*
Y9632D02*
X9031Y9699D01*
X8831Y9898D02*
Y9765D01*
X8931D01*
X8898Y9832D01*
Y9865D01*
X8931Y9898D01*
X8998D01*
X9031Y9865D01*
Y9799D01*
X8998Y9765D01*
X8865Y9965D02*
X8831Y9998D01*
Y10065D01*
X8865Y10098D01*
X8898D01*
X8931Y10065D01*
X8965Y10098D01*
X8998D01*
X9031Y10065D01*
Y9998D01*
X8998Y9965D01*
X8965D01*
X8931Y9998D01*
X8898Y9965D01*
X8865D01*
X8931Y9998D02*
Y10065D01*
X8976Y10866D02*
X8776D01*
Y10966D01*
X8810Y10999D01*
X8876D01*
X8910Y10966D01*
Y10866D01*
Y10933D02*
X8976Y10999D01*
X8776Y11199D02*
X8810Y11133D01*
X8876Y11066D01*
X8943D01*
X8976Y11099D01*
Y11166D01*
X8943Y11199D01*
X8910D01*
X8876Y11166D01*
Y11066D01*
X8976Y11266D02*
Y11333D01*
Y11299D01*
X8776D01*
X8810Y11266D01*
X8161Y9535D02*
X7961D01*
Y9635D01*
X7995Y9669D01*
X8061D01*
X8095Y9635D01*
Y9535D01*
Y9602D02*
X8161Y9669D01*
X7961Y9869D02*
X7995Y9802D01*
X8061Y9735D01*
X8128D01*
X8161Y9769D01*
Y9835D01*
X8128Y9869D01*
X8095D01*
X8061Y9835D01*
Y9735D01*
X7995Y9935D02*
X7961Y9968D01*
Y10035D01*
X7995Y10068D01*
X8028D01*
X8061Y10035D01*
Y10002D01*
Y10035D01*
X8095Y10068D01*
X8128D01*
X8161Y10035D01*
Y9968D01*
X8128Y9935D01*
X8631Y14355D02*
X8431D01*
Y14455D01*
X8465Y14489D01*
X8531D01*
X8565Y14455D01*
Y14355D01*
Y14422D02*
X8631Y14489D01*
X8431Y14689D02*
X8465Y14622D01*
X8531Y14555D01*
X8598D01*
X8631Y14589D01*
Y14655D01*
X8598Y14689D01*
X8565D01*
X8531Y14655D01*
Y14555D01*
X8631Y14855D02*
X8431D01*
X8531Y14755D01*
Y14888D01*
X8009Y12205D02*
Y12405D01*
X8109D01*
X8143Y12372D01*
Y12305D01*
X8109Y12272D01*
X8009D01*
X8076D02*
X8143Y12205D01*
X8342Y12405D02*
X8276Y12372D01*
X8209Y12305D01*
Y12239D01*
X8243Y12205D01*
X8309D01*
X8342Y12239D01*
Y12272D01*
X8309Y12305D01*
X8209D01*
X8542Y12405D02*
X8476Y12372D01*
X8409Y12305D01*
Y12239D01*
X8442Y12205D01*
X8509D01*
X8542Y12239D01*
Y12272D01*
X8509Y12305D01*
X8409D01*
X8031Y10827D02*
X7832D01*
Y10927D01*
X7865Y10960D01*
X7932D01*
X7965Y10927D01*
Y10827D01*
Y10893D02*
X8031Y10960D01*
X7832Y11027D02*
Y11160D01*
X7865D01*
X7998Y11027D01*
X8031D01*
Y11360D02*
Y11227D01*
X7898Y11360D01*
X7865D01*
X7832Y11327D01*
Y11260D01*
X7865Y11227D01*
X13543Y8031D02*
Y8231D01*
X13643D01*
X13677Y8198D01*
Y8131D01*
X13643Y8098D01*
X13543D01*
X13610D02*
X13677Y8031D01*
X13743Y8231D02*
X13877D01*
Y8198D01*
X13743Y8065D01*
Y8031D01*
X14043D02*
Y8231D01*
X13943Y8131D01*
X14076D01*
X14851Y10765D02*
X14651D01*
Y10865D01*
X14685Y10899D01*
X14751D01*
X14785Y10865D01*
Y10765D01*
Y10832D02*
X14851Y10899D01*
X14651Y10965D02*
Y11099D01*
X14685D01*
X14818Y10965D01*
X14851D01*
X14685Y11165D02*
X14651Y11198D01*
Y11265D01*
X14685Y11298D01*
X14718D01*
X14751Y11265D01*
X14785Y11298D01*
X14818D01*
X14851Y11265D01*
Y11198D01*
X14818Y11165D01*
X14785D01*
X14751Y11198D01*
X14718Y11165D01*
X14685D01*
X14751Y11198D02*
Y11265D01*
X12521Y9475D02*
X12321D01*
Y9575D01*
X12355Y9609D01*
X12421D01*
X12455Y9575D01*
Y9475D01*
Y9542D02*
X12521Y9609D01*
X12355Y9675D02*
X12321Y9709D01*
Y9775D01*
X12355Y9808D01*
X12388D01*
X12421Y9775D01*
X12455Y9808D01*
X12488D01*
X12521Y9775D01*
Y9709D01*
X12488Y9675D01*
X12455D01*
X12421Y9709D01*
X12388Y9675D01*
X12355D01*
X12421Y9709D02*
Y9775D01*
X12355Y9875D02*
X12321Y9908D01*
Y9975D01*
X12355Y10008D01*
X12488D01*
X12521Y9975D01*
Y9908D01*
X12488Y9875D01*
X12355D01*
X12981Y14315D02*
X12781D01*
Y14415D01*
X12815Y14449D01*
X12881D01*
X12915Y14415D01*
Y14315D01*
Y14382D02*
X12981Y14449D01*
X12815Y14515D02*
X12781Y14549D01*
Y14615D01*
X12815Y14648D01*
X12848D01*
X12881Y14615D01*
X12915Y14648D01*
X12948D01*
X12981Y14615D01*
Y14549D01*
X12948Y14515D01*
X12915D01*
X12881Y14549D01*
X12848Y14515D01*
X12815D01*
X12881Y14549D02*
Y14615D01*
X12981Y14848D02*
Y14715D01*
X12848Y14848D01*
X12815D01*
X12781Y14815D01*
Y14748D01*
X12815Y14715D01*
X12671Y12105D02*
Y12305D01*
X12771D01*
X12805Y12272D01*
Y12205D01*
X12771Y12172D01*
X12671D01*
X12738D02*
X12805Y12105D01*
X12871Y12272D02*
X12905Y12305D01*
X12971D01*
X13004Y12272D01*
Y12239D01*
X12971Y12205D01*
X13004Y12172D01*
Y12139D01*
X12971Y12105D01*
X12905D01*
X12871Y12139D01*
Y12172D01*
X12905Y12205D01*
X12871Y12239D01*
Y12272D01*
X12905Y12205D02*
X12971D01*
X13071Y12272D02*
X13104Y12305D01*
X13171D01*
X13204Y12272D01*
Y12239D01*
X13171Y12205D01*
X13138D01*
X13171D01*
X13204Y12172D01*
Y12139D01*
X13171Y12105D01*
X13104D01*
X13071Y12139D01*
X12480Y10787D02*
X12280D01*
Y10887D01*
X12314Y10921D01*
X12380D01*
X12414Y10887D01*
Y10787D01*
Y10854D02*
X12480Y10921D01*
X12314Y10987D02*
X12280Y11021D01*
Y11087D01*
X12314Y11121D01*
X12347D01*
X12380Y11087D01*
X12414Y11121D01*
X12447D01*
X12480Y11087D01*
Y11021D01*
X12447Y10987D01*
X12414D01*
X12380Y11021D01*
X12347Y10987D01*
X12314D01*
X12380Y11021D02*
Y11087D01*
X12280Y11321D02*
Y11187D01*
X12380D01*
X12347Y11254D01*
Y11287D01*
X12380Y11321D01*
X12447D01*
X12480Y11287D01*
Y11221D01*
X12447Y11187D01*
X15971Y12665D02*
Y12865D01*
X16071D01*
X16105Y12832D01*
Y12765D01*
X16071Y12732D01*
X15971D01*
X16038D02*
X16105Y12665D01*
X16171Y12832D02*
X16205Y12865D01*
X16271D01*
X16304Y12832D01*
Y12799D01*
X16271Y12765D01*
X16304Y12732D01*
Y12699D01*
X16271Y12665D01*
X16205D01*
X16171Y12699D01*
Y12732D01*
X16205Y12765D01*
X16171Y12799D01*
Y12832D01*
X16205Y12765D02*
X16271D01*
X16371Y12865D02*
X16504D01*
Y12832D01*
X16371Y12699D01*
Y12665D01*
X14771Y12745D02*
X14571D01*
Y12845D01*
X14605Y12879D01*
X14671D01*
X14705Y12845D01*
Y12745D01*
Y12812D02*
X14771Y12879D01*
X14605Y12945D02*
X14571Y12979D01*
Y13045D01*
X14605Y13079D01*
X14638D01*
X14671Y13045D01*
X14705Y13079D01*
X14738D01*
X14771Y13045D01*
Y12979D01*
X14738Y12945D01*
X14705D01*
X14671Y12979D01*
X14638Y12945D01*
X14605D01*
X14671Y12979D02*
Y13045D01*
X14605Y13145D02*
X14571Y13178D01*
Y13245D01*
X14605Y13278D01*
X14638D01*
X14671Y13245D01*
X14705Y13278D01*
X14738D01*
X14771Y13245D01*
Y13178D01*
X14738Y13145D01*
X14705D01*
X14671Y13178D01*
X14638Y13145D01*
X14605D01*
X14671Y13178D02*
Y13245D01*
X17458Y8182D02*
Y8382D01*
X17558D01*
X17591Y8349D01*
Y8282D01*
X17558Y8249D01*
X17458D01*
X17525D02*
X17591Y8182D01*
X17658Y8349D02*
X17691Y8382D01*
X17758D01*
X17791Y8349D01*
Y8315D01*
X17758Y8282D01*
X17791Y8249D01*
Y8215D01*
X17758Y8182D01*
X17691D01*
X17658Y8215D01*
Y8249D01*
X17691Y8282D01*
X17658Y8315D01*
Y8349D01*
X17691Y8282D02*
X17758D01*
X17858Y8215D02*
X17891Y8182D01*
X17958D01*
X17991Y8215D01*
Y8349D01*
X17958Y8382D01*
X17891D01*
X17858Y8349D01*
Y8315D01*
X17891Y8282D01*
X17991D01*
X17913Y10669D02*
X17713D01*
Y10769D01*
X17747Y10803D01*
X17813D01*
X17847Y10769D01*
Y10669D01*
Y10736D02*
X17913Y10803D01*
X17880Y10869D02*
X17913Y10903D01*
Y10969D01*
X17880Y11003D01*
X17747D01*
X17713Y10969D01*
Y10903D01*
X17747Y10869D01*
X17780D01*
X17813Y10903D01*
Y11003D01*
X17747Y11069D02*
X17713Y11102D01*
Y11169D01*
X17747Y11202D01*
X17880D01*
X17913Y11169D01*
Y11102D01*
X17880Y11069D01*
X17747D01*
X17281Y11815D02*
X17081D01*
Y11915D01*
X17115Y11949D01*
X17181D01*
X17215Y11915D01*
Y11815D01*
Y11882D02*
X17281Y11949D01*
X17248Y12015D02*
X17281Y12049D01*
Y12115D01*
X17248Y12148D01*
X17115D01*
X17081Y12115D01*
Y12049D01*
X17115Y12015D01*
X17148D01*
X17181Y12049D01*
Y12148D01*
X17281Y12348D02*
Y12215D01*
X17148Y12348D01*
X17115D01*
X17081Y12315D01*
Y12248D01*
X17115Y12215D01*
X17401Y9475D02*
X17201D01*
Y9575D01*
X17235Y9609D01*
X17301D01*
X17335Y9575D01*
Y9475D01*
Y9542D02*
X17401Y9609D01*
X17368Y9675D02*
X17401Y9709D01*
Y9775D01*
X17368Y9808D01*
X17235D01*
X17201Y9775D01*
Y9709D01*
X17235Y9675D01*
X17268D01*
X17301Y9709D01*
Y9808D01*
X17201Y10008D02*
Y9875D01*
X17301D01*
X17268Y9942D01*
Y9975D01*
X17301Y10008D01*
X17368D01*
X17401Y9975D01*
Y9908D01*
X17368Y9875D01*
X15551Y10745D02*
X15351D01*
Y10845D01*
X15385Y10879D01*
X15451D01*
X15485Y10845D01*
Y10745D01*
Y10812D02*
X15551Y10879D01*
X15518Y10945D02*
X15551Y10979D01*
Y11045D01*
X15518Y11078D01*
X15385D01*
X15351Y11045D01*
Y10979D01*
X15385Y10945D01*
X15418D01*
X15451Y10979D01*
Y11078D01*
X15351Y11278D02*
X15385Y11212D01*
X15451Y11145D01*
X15518D01*
X15551Y11178D01*
Y11245D01*
X15518Y11278D01*
X15485D01*
X15451Y11245D01*
Y11145D01*
X21535Y10709D02*
X21335D01*
Y10809D01*
X21369Y10842D01*
X21435D01*
X21469Y10809D01*
Y10709D01*
Y10775D02*
X21535Y10842D01*
Y10909D02*
Y10975D01*
Y10942D01*
X21335D01*
X21369Y10909D01*
Y11075D02*
X21335Y11109D01*
Y11175D01*
X21369Y11208D01*
X21502D01*
X21535Y11175D01*
Y11109D01*
X21502Y11075D01*
X21369D01*
X21335Y11408D02*
X21369Y11342D01*
X21435Y11275D01*
X21502D01*
X21535Y11308D01*
Y11375D01*
X21502Y11408D01*
X21469D01*
X21435Y11375D01*
Y11275D01*
X19201Y12595D02*
Y12795D01*
X19301D01*
X19335Y12762D01*
Y12695D01*
X19301Y12662D01*
X19201D01*
X19268D02*
X19335Y12595D01*
X19401D02*
X19468D01*
X19435D01*
Y12795D01*
X19401Y12762D01*
X19568D02*
X19601Y12795D01*
X19668D01*
X19701Y12762D01*
Y12629D01*
X19668Y12595D01*
X19601D01*
X19568Y12629D01*
Y12762D01*
X19768Y12629D02*
X19801Y12595D01*
X19868D01*
X19901Y12629D01*
Y12762D01*
X19868Y12795D01*
X19801D01*
X19768Y12762D01*
Y12729D01*
X19801Y12695D01*
X19901D01*
X20101Y12615D02*
Y12815D01*
X20201D01*
X20235Y12782D01*
Y12715D01*
X20201Y12682D01*
X20101D01*
X20168D02*
X20235Y12615D01*
X20301D02*
X20368D01*
X20335D01*
Y12815D01*
X20301Y12782D01*
X20468Y12615D02*
X20534D01*
X20501D01*
Y12815D01*
X20468Y12782D01*
X20634D02*
X20668Y12815D01*
X20734D01*
X20768Y12782D01*
Y12649D01*
X20734Y12615D01*
X20668D01*
X20634Y12649D01*
Y12782D01*
X19904Y8543D02*
X19704D01*
Y8643D01*
X19738Y8677D01*
X19804D01*
X19838Y8643D01*
Y8543D01*
Y8610D02*
X19904Y8677D01*
Y8743D02*
Y8810D01*
Y8777D01*
X19704D01*
X19738Y8743D01*
X19904Y8910D02*
Y8977D01*
Y8943D01*
X19704D01*
X19738Y8910D01*
X19904Y9076D02*
Y9143D01*
Y9110D01*
X19704D01*
X19738Y9076D01*
X34252Y2838D02*
Y2671D01*
X34285Y2638D01*
X34352D01*
X34385Y2671D01*
Y2838D01*
X34585Y2638D02*
X34452D01*
X34585Y2771D01*
Y2804D01*
X34552Y2838D01*
X34485D01*
X34452Y2804D01*
X28401Y17965D02*
Y17799D01*
X28435Y17765D01*
X28501D01*
X28535Y17799D01*
Y17965D01*
X28601Y17932D02*
X28635Y17965D01*
X28701D01*
X28734Y17932D01*
Y17899D01*
X28701Y17865D01*
X28668D01*
X28701D01*
X28734Y17832D01*
Y17799D01*
X28701Y17765D01*
X28635D01*
X28601Y17799D01*
X5551Y5672D02*
Y5506D01*
X5584Y5472D01*
X5651D01*
X5684Y5506D01*
Y5672D01*
X5851Y5472D02*
Y5672D01*
X5751Y5572D01*
X5884D01*
X14121Y5605D02*
Y5439D01*
X14155Y5405D01*
X14221D01*
X14255Y5439D01*
Y5605D01*
X14321Y5572D02*
X14355Y5605D01*
X14421D01*
X14454Y5572D01*
Y5539D01*
X14421Y5505D01*
X14454Y5472D01*
Y5439D01*
X14421Y5405D01*
X14355D01*
X14321Y5439D01*
Y5472D01*
X14355Y5505D01*
X14321Y5539D01*
Y5572D01*
X14355Y5505D02*
X14421D01*
X15891Y5745D02*
Y5579D01*
X15925Y5545D01*
X15991D01*
X16025Y5579D01*
Y5745D01*
X16091Y5579D02*
X16125Y5545D01*
X16191D01*
X16224Y5579D01*
Y5712D01*
X16191Y5745D01*
X16125D01*
X16091Y5712D01*
Y5679D01*
X16125Y5645D01*
X16224D01*
X22891Y5845D02*
Y5679D01*
X22925Y5645D01*
X22991D01*
X23025Y5679D01*
Y5845D01*
X23091Y5645D02*
X23158D01*
X23125D01*
Y5845D01*
X23091Y5812D01*
X23258D02*
X23291Y5845D01*
X23358D01*
X23391Y5812D01*
Y5679D01*
X23358Y5645D01*
X23291D01*
X23258Y5679D01*
Y5812D01*
X21535Y9629D02*
X21501Y9595D01*
Y9529D01*
X21535Y9495D01*
X21668D01*
X21701Y9529D01*
Y9595D01*
X21668Y9629D01*
X21701Y9695D02*
Y9762D01*
Y9729D01*
X21501D01*
X21535Y9695D01*
X21701Y9862D02*
Y9928D01*
Y9895D01*
X21501D01*
X21535Y9862D01*
X21701Y10128D02*
X21501D01*
X21601Y10028D01*
Y10162D01*
X19351Y14505D02*
X19551D01*
Y14639D01*
Y14839D02*
Y14705D01*
X19418Y14839D01*
X19385D01*
X19351Y14805D01*
Y14739D01*
X19385Y14705D01*
Y14905D02*
X19351Y14938D01*
Y15005D01*
X19385Y15038D01*
X19418D01*
X19451Y15005D01*
X19485Y15038D01*
X19518D01*
X19551Y15005D01*
Y14938D01*
X19518Y14905D01*
X19485D01*
X19451Y14938D01*
X19418Y14905D01*
X19385D01*
X19451Y14938D02*
Y15005D01*
X21751Y8185D02*
Y8385D01*
X21851D01*
X21885Y8352D01*
Y8285D01*
X21851Y8252D01*
X21751D01*
X21818D02*
X21885Y8185D01*
X21951D02*
X22018D01*
X21985D01*
Y8385D01*
X21951Y8352D01*
X22118D02*
X22151Y8385D01*
X22218D01*
X22251Y8352D01*
Y8219D01*
X22218Y8185D01*
X22151D01*
X22118Y8219D01*
Y8352D01*
X22318Y8185D02*
X22384D01*
X22351D01*
Y8385D01*
X22318Y8352D01*
X21261Y11555D02*
X21061D01*
Y11655D01*
X21095Y11689D01*
X21161D01*
X21195Y11655D01*
Y11555D01*
Y11622D02*
X21261Y11689D01*
Y11755D02*
Y11822D01*
Y11789D01*
X21061D01*
X21095Y11755D01*
Y11922D02*
X21061Y11955D01*
Y12022D01*
X21095Y12055D01*
X21228D01*
X21261Y12022D01*
Y11955D01*
X21228Y11922D01*
X21095D01*
Y12122D02*
X21061Y12155D01*
Y12222D01*
X21095Y12255D01*
X21128D01*
X21161Y12222D01*
Y12188D01*
Y12222D01*
X21195Y12255D01*
X21228D01*
X21261Y12222D01*
Y12155D01*
X21228Y12122D01*
X1901Y14495D02*
X2101D01*
Y14629D01*
X1901Y14828D02*
Y14695D01*
X2001D01*
X1968Y14762D01*
Y14795D01*
X2001Y14828D01*
X2068D01*
X2101Y14795D01*
Y14729D01*
X2068Y14695D01*
X19541Y19625D02*
X19491Y19675D01*
X19391D01*
X19341Y19625D01*
Y19425D01*
X19391Y19375D01*
X19491D01*
X19541Y19425D01*
X19841Y19375D02*
X19641D01*
X19841Y19575D01*
Y19625D01*
X19791Y19675D01*
X19691D01*
X19641Y19625D01*
X20141Y19375D02*
X19941D01*
X20141Y19575D01*
Y19625D01*
X20091Y19675D01*
X19991D01*
X19941Y19625D01*
X26221Y11095D02*
Y10929D01*
X26255Y10895D01*
X26321D01*
X26355Y10929D01*
Y11095D01*
X26421D02*
X26554D01*
Y11062D01*
X26421Y10929D01*
Y10895D01*
X24685Y13940D02*
Y13740D01*
X24785D01*
X24818Y13773D01*
Y13907D01*
X24785Y13940D01*
X24685D01*
X24885Y13740D02*
X24952D01*
X24918D01*
Y13940D01*
X24885Y13907D01*
X25152Y13740D02*
Y13940D01*
X25052Y13840D01*
X25185D01*
X24882Y15003D02*
Y14803D01*
X24982D01*
X25015Y14836D01*
Y14970D01*
X24982Y15003D01*
X24882D01*
X25082Y14803D02*
X25148D01*
X25115D01*
Y15003D01*
X25082Y14970D01*
X25382Y15003D02*
X25248D01*
Y14903D01*
X25315Y14936D01*
X25348D01*
X25382Y14903D01*
Y14836D01*
X25348Y14803D01*
X25282D01*
X25248Y14836D01*
X27638Y14449D02*
Y14649D01*
X27738D01*
X27771Y14615D01*
Y14549D01*
X27738Y14515D01*
X27638D01*
X27704D02*
X27771Y14449D01*
X27971Y14649D02*
X27904Y14615D01*
X27838Y14549D01*
Y14482D01*
X27871Y14449D01*
X27938D01*
X27971Y14482D01*
Y14515D01*
X27938Y14549D01*
X27838D01*
X28038Y14649D02*
X28171D01*
Y14615D01*
X28038Y14482D01*
Y14449D01*
X27677Y13819D02*
Y14019D01*
X27777D01*
X27810Y13986D01*
Y13919D01*
X27777Y13886D01*
X27677D01*
X27744D02*
X27810Y13819D01*
X28010Y14019D02*
X27944Y13986D01*
X27877Y13919D01*
Y13852D01*
X27910Y13819D01*
X27977D01*
X28010Y13852D01*
Y13886D01*
X27977Y13919D01*
X27877D01*
X28077Y13986D02*
X28110Y14019D01*
X28177D01*
X28210Y13986D01*
Y13952D01*
X28177Y13919D01*
X28210Y13886D01*
Y13852D01*
X28177Y13819D01*
X28110D01*
X28077Y13852D01*
Y13886D01*
X28110Y13919D01*
X28077Y13952D01*
Y13986D01*
X28110Y13919D02*
X28177D01*
X27025Y16542D02*
X26991Y16575D01*
X26925D01*
X26891Y16542D01*
Y16409D01*
X26925Y16375D01*
X26991D01*
X27025Y16409D01*
X27224Y16375D02*
X27091D01*
X27224Y16509D01*
Y16542D01*
X27191Y16575D01*
X27125D01*
X27091Y16542D01*
X27391Y16375D02*
Y16575D01*
X27291Y16475D01*
X27424D01*
D85*
X41752Y7539D02*
Y14626D01*
X39764Y14016D02*
X41142Y14016D01*
Y13071D02*
Y14016D01*
X39764Y13071D02*
X41142D01*
X39803Y12244D02*
X41142D01*
X41181Y12205D01*
Y11417D02*
Y12205D01*
X39803Y11417D02*
X41181D01*
X39764Y11378D02*
X39803Y11417D01*
X41142Y9685D02*
Y10472D01*
X41102Y9646D02*
X41142Y9685D01*
X39803Y9646D02*
X41102D01*
X39843Y8780D02*
X41220D01*
X39764Y12283D02*
X39764Y13071D01*
X39764Y12283D02*
X39803Y12244D01*
X39764Y10551D02*
X39764Y11378D01*
X39764Y10551D02*
X39803Y10512D01*
X41142Y10512D01*
Y10472D02*
Y10512D01*
X39803Y8819D02*
Y9646D01*
Y8819D02*
X39843Y8780D01*
X33780Y6693D02*
Y15512D01*
X39429Y14626D02*
X41752D01*
X39331Y7539D02*
X41752D01*
X39331Y7539D02*
Y14528D01*
X39429Y14626D01*
X33780Y15591D02*
X41752D01*
X41752Y14626D02*
X41752Y15591D01*
X41693Y6654D02*
X41752Y6713D01*
X33858Y6654D02*
X41693D01*
X41752Y6713D01*
Y7539D01*
X29911Y16025D02*
X38901D01*
X39356Y55D02*
Y15555D01*
X451Y15945D02*
X12381D01*
X-39Y165D02*
Y15425D01*
X29361Y16585D02*
Y25665D01*
X12857Y16405D02*
Y25605D01*
X13501Y26145D02*
X28811D01*
D86*
X11575Y2047D02*
X11732D01*
X11575Y1024D02*
Y2047D01*
Y1024D02*
X11732D01*
X12874D02*
X12992D01*
X13071D01*
Y2047D01*
X12913D02*
X13071D01*
X12205D02*
X12402D01*
X11732Y1339D02*
X11772D01*
X19016Y1178D02*
Y1886D01*
X19056Y1453D02*
X19331Y1178D01*
X19056Y1453D02*
Y1611D01*
X19331Y1886D01*
Y1178D02*
Y1886D01*
X17442Y2319D02*
X20709D01*
X20709Y745D01*
X20709Y745D02*
X20709Y745D01*
X20631Y745D02*
X20709D01*
X17442D02*
X20631D01*
X17442D02*
Y2319D01*
X17191Y1065D02*
Y2065D01*
X15191Y1065D02*
X17191D01*
X15191D02*
Y2065D01*
X17191D01*
X14843Y16980D02*
X17913D01*
X14843D02*
Y18673D01*
X17874D01*
X17913Y18634D01*
Y16980D02*
Y18634D01*
X33521Y12715D02*
Y13715D01*
X31521Y12715D02*
X33521D01*
X31521D02*
Y13715D01*
X33521D01*
X33468Y8398D02*
Y9398D01*
X31469Y8398D02*
X33468D01*
X31469D02*
Y9398D01*
X33468D01*
X33508Y9776D02*
Y10776D01*
X31508Y9776D02*
X33508D01*
X31508D02*
Y10776D01*
X33508D01*
X31521Y7145D02*
Y8145D01*
X33521D01*
Y7145D02*
Y8145D01*
X31521Y7145D02*
X33521D01*
Y11275D02*
Y12275D01*
X31521Y11275D02*
X33521D01*
X31521D02*
Y12275D01*
X33521D01*
X33511Y14175D02*
Y15175D01*
X31511Y14175D02*
X33511D01*
X31511D02*
Y15175D01*
X33511D01*
X30484Y10209D02*
X31484D01*
X30484D02*
Y15209D01*
X31484Y10209D02*
Y15209D01*
X30484D02*
X31484D01*
X32631Y2465D02*
Y3465D01*
X8631Y2465D02*
X32631D01*
X8631D02*
Y3465D01*
X9381D01*
X32631D01*
X33172Y3742D02*
X33290D01*
X33034Y3840D02*
X33231Y3643D01*
X33428Y3840D01*
X33034D02*
X33428D01*
X33113Y3801D02*
X33349D01*
X33034Y3604D02*
X33428D01*
X22731Y1045D02*
Y2045D01*
X20731Y1045D02*
X22731D01*
X20731D02*
Y2045D01*
X22731D01*
X27761Y15215D02*
Y16215D01*
X14761Y15215D02*
X27761D01*
X14761D02*
Y16215D01*
X15511D01*
X27761D01*
X28058Y17762D02*
X28226D01*
Y17929D01*
X26474Y17762D02*
Y17929D01*
Y17762D02*
X26641D01*
X26474Y19514D02*
X26641D01*
X26474Y19347D02*
Y19514D01*
X28058D02*
X28226D01*
Y19347D02*
Y19514D01*
X22861Y8185D02*
X23861D01*
X22861D02*
Y13185D01*
X23861Y8185D02*
Y13185D01*
X22861D02*
X23861D01*
X3298Y5762D02*
X3426D01*
X3298D02*
Y5890D01*
Y7809D02*
X3426D01*
X3298Y7681D02*
Y7809D01*
X5217D02*
X5345D01*
Y7681D02*
Y7809D01*
X5453Y5762D02*
Y5944D01*
X12028Y7779D02*
X12156D01*
X12028Y7651D02*
Y7779D01*
X13947D02*
X14075D01*
Y7651D02*
Y7779D01*
X13947Y5732D02*
X14075D01*
Y5860D01*
X16336Y5737D02*
X16464D01*
X16336D02*
Y5865D01*
Y7784D02*
X16464D01*
X16336Y7656D02*
Y7784D01*
X18255D02*
X18383D01*
Y7656D02*
Y7784D01*
X18255Y5737D02*
X18383D01*
Y5865D01*
X5217Y5762D02*
X5453D01*
X7656Y5727D02*
X7784D01*
X7656D02*
Y5855D01*
Y7774D02*
X7784D01*
X7656Y7646D02*
Y7774D01*
X9575D02*
X9703D01*
Y7646D02*
Y7774D01*
X9575Y5727D02*
X9703D01*
Y5855D01*
X20637Y5737D02*
X20765D01*
X20637D02*
Y5865D01*
Y7784D02*
X20765D01*
X20637Y7656D02*
Y7784D01*
X22556D02*
X22684D01*
Y7656D02*
Y7784D01*
X22556Y5737D02*
X22684D01*
Y5865D01*
X28581Y3715D02*
X28581Y4715D01*
X26581Y3715D02*
X28581Y3715D01*
X26581Y3715D02*
Y4715D01*
X28581D01*
X26596Y8711D02*
Y10680D01*
X27226Y8711D02*
Y10680D01*
X26596D02*
X27226D01*
X26596Y8711D02*
X27226D01*
D87*
X19131Y5045D02*
Y5125D01*
D88*
X15115Y5632D02*
X15081Y5665D01*
X15015D01*
X14981Y5632D01*
Y5499D01*
X15015Y5465D01*
X15081D01*
X15115Y5499D01*
X15181D02*
X15215Y5465D01*
X15281D01*
X15314Y5499D01*
Y5632D01*
X15281Y5665D01*
X15215D01*
X15181Y5632D01*
Y5599D01*
X15215Y5565D01*
X15314D01*
X15381Y5632D02*
X15414Y5665D01*
X15481D01*
X15514Y5632D01*
Y5599D01*
X15481Y5565D01*
X15514Y5532D01*
Y5499D01*
X15481Y5465D01*
X15414D01*
X15381Y5499D01*
Y5532D01*
X15414Y5565D01*
X15381Y5599D01*
Y5632D01*
X15414Y5565D02*
X15481D01*
D89*
X20286Y1544D02*
X20588D01*
X20437Y1695D02*
Y1394D01*
M02*
