M48
;Layer_Color=9474304
;FILE_FORMAT=2:4
INCH,LZ
;TYPE=PLATED
T1F00S00C0.0120
T2F00S00C0.0180
T3F00S00C0.0197
T4F00S00C0.0200
T5F00S00C0.0300
T6F00S00C0.0354
T7F00S00C0.0400
T8F00S00C0.0470
T9F00S00C0.0600
;TYPE=NON_PLATED
T10F00S00C0.1100
%
T01
X002691Y003855
Y004565
X003661Y004655
X003621Y005055
X004041Y005035
X003991Y005555
X003221Y005585
X002821Y005565
X002971Y006305
X002991Y006685
X001801Y006845
X002051Y005785
X002071Y005035
X001969Y008189
X002371Y008735
X003561Y009435
X003461Y010485
X002661Y010685
X001971Y010385
X004741Y009525
X004725Y008382
X005731Y008535
X006441Y008735
X007221Y008965
X006461Y010395
X006311Y007075
X006101Y005845
X006121Y005525
X006351Y005255
X006191Y004635
X005801Y004355
X005751Y004046
X004931Y004515
X005401Y005295
X007371Y004985
X007311Y004675
X006811Y003735
X006481Y002975
X004801Y002095
X005361Y007735
X007351Y006515
X007341Y006155
X007421Y005325
X008321Y005495
X009121Y004355
X008851Y004055
X009431Y003685
X008536Y0034
X008051Y003805
X007681
X011331Y004575
X011991Y004985
X012731Y004865
X012641Y005365
X013869Y005308
X014281Y004605
X013731Y004315
X013451Y004065
X012741Y003815
X012621Y002485
X011591Y002395
X011441Y001035
X012321Y001425
X013571Y001075
X015121Y000705
X014331Y002365
X014961Y003595
X015881Y003805
X015691Y004595
X015981Y005185
X016248Y00534
X015851Y006135
X015901Y007065
X014721Y007295
X014391Y007535
X014351Y007995
X013931Y008375
X013346Y00844
X011856Y00879
X010901Y007875
X010161Y007775
X009981Y007515
X010021Y006255
X011311Y005985
X011691Y006665
X014431Y006235
X015481Y008315
X018555Y008331
X018611Y007875
X018941Y007765
X018741Y007505
X019431Y008065
X020161Y007125
X02037Y006121
X020276Y004764
X020051Y004555
X019101Y004605
X019431Y003825
X018341Y003835
X018091Y004315
X017841Y004075
X017691Y003575
X017601Y004555
X017362Y005
X017581Y005245
X018751Y006265
X021241Y005465
X020956Y0041
X022361Y004075
X022761Y003815
X022911Y004315
X022671Y004915
X022831Y005635
X022971Y006275
X022731Y007755
X022961Y008295
X022471Y008345
X021951Y008245
X022761Y009205
X022271Y010453
X022131Y010735
X021453Y010453
X021141Y009365
X020291Y009505
X020031Y010845
X018511Y010795
X011671
X009681Y010775
X009345Y008449
X01752Y002165
X017323Y001532
X019551Y002345
X021461Y002325
X022131Y003575
X023261
X023623Y004485
X024331Y004055
X024961Y005075
X025316Y005233
X026339Y005784
X026071Y006495
X025748Y006772
X025749Y00713
X026341Y007045
X027081Y007185
X027681Y007175
X028071Y006926
X027931Y006575
X027301Y006435
X027281Y006735
X027351Y005205
X028571Y005335
X028861Y005475
X028771Y006395
X028898Y007201
X028581Y007385
X029161Y008095
X029521Y008105
X030041Y008065
X029761Y007695
X030951Y007785
X030311Y006265
X030301Y004775
X030721Y004855
X031641Y005045
X031551Y003725
X031051Y003985
X029051Y003805
X029571Y005035
X029875Y001659
X029141Y001495
X027881Y001605
X027131Y001485
X025881Y001585
X025121Y001495
X023861Y001565
X023131Y001545
X024141Y006855
X024571Y006495
X025197Y006772
X025011Y007135
X024881Y007945
X024591Y008195
X024041Y008765
X023891Y009065
X023981Y010075
X025241Y009975
Y009665
X025231Y010325
X025161Y010635
X025221Y008975
X025251Y008655
X025737Y008359
X026047Y008417
X026671Y008225
X026821Y008505
X027283Y008661
X027271Y008335
X027701Y008525
X028041Y008305
X028386Y008622
X028465Y009173
X027146Y00903
X026501Y008955
X027831Y010715
X028271Y010865
X029611Y010485
X031929Y009764
X032362
X033031Y008228
X033641Y006295
X033071Y005725
X033986Y00475
X034371Y004485
X034441Y003145
X034646Y002398
X035473Y002752
X035821Y001885
X035741Y001345
X035721Y000625
X03626Y000863
X03752Y00165
X037638Y003067
X036182Y005981
X034449Y001099
X034391Y000585
X032953Y001847
X031861Y001625
X031115Y001509
X03878Y003855
X033031Y011085
X031401Y011185
X030061Y011305
X030191Y012025
X029641Y012865
X029501Y014325
X029141Y014855
X027371
X026381Y014955
X026761Y014235
X026711Y013165
X026851Y012635
X027191
X026141Y012655
X026081Y013215
X025431Y013035
X025451Y012725
X025497Y011335
X025181Y011525
X026331Y011355
X026921Y011335
X027441Y011095
X027661Y011315
X028241Y011575
X028551Y012035
X028261Y012635
X027421Y013625
X025381Y014295
X024541Y013385
X023951Y013905
X024331Y01626
X024231Y016945
X023921
X024751Y016895
X025079Y016811
X024881Y017425
X024528Y017402
X024981Y017835
X024951Y018195
X025551Y018307
X026024Y017756
X026496Y017402
X026801Y017435
X026391Y016785
X025977Y01693
X025741Y016235
X026471Y016265
X027891Y016295
X028031Y016755
X028511Y016635
X028411Y017055
X028142Y017413
X028301Y017675
X028976Y017638
X028921Y018035
X029001Y018535
X028675Y018581
X027586Y018402
X027113
Y018874
X027586
X027941Y019785
X027821Y020305
X027611Y020625
X027205Y020981
X027281Y020155
X027091Y019885
X026379Y021335
X026694Y022241
X026969Y022398
X02754Y022793
X028386Y022913
X028425Y023701
X027245Y023815
X027009Y023461
X027481Y024367
X026975Y024951
X026379Y024682
X026418Y025351
X028977Y025311
X029001Y022415
X02815Y021847
X025039Y021614
X025079Y021099
X024882Y019843
X025041Y019145
X024451Y018855
X02378Y020787
X023504Y01626
X027383Y016934
X022638Y016811
X022591Y017645
X021457Y01748
X023011Y018695
X022171Y014125
X022291Y013335
X021501Y012755
X020551Y013065
X019201Y012595
X019431Y012305
X019281Y011845
X019131Y011555
X017651Y011985
X016951Y012645
X016571Y012725
X016581Y013385
X015861Y013255
X016001Y013925
X014681Y014135
X014801Y013355
X014731Y012535
X013541
X013411Y011905
X012071Y012745
X012205Y013937
X011621Y013915
X011083Y013795
X010431Y014125
X009381Y014215
X009011Y013195
X009371Y012565
X008691Y012235
X007771Y011835
Y012835
X010331Y013075
X010351Y012035
X010741Y011055
X013761Y014155
X018571Y013815
X019121Y013785
X019051Y014165
X018631Y013245
X016711Y011255
X021721Y011375
X022851Y011635
X019253Y021374
Y022162
Y022595
X019681Y023785
X006781Y013825
X006441Y013345
X006031Y014175
X004931Y013645
X004681Y013145
X004841Y012525
X004931Y011915
X002941Y012435
X002431Y012445
X002323Y013819
X001611Y013425
X002001Y014605
X006941Y012485
T02
X013425Y006378
T03
X015394Y017531
X015894
X016394
X016894
X017394
Y018032
X016894
X016394
X015894Y018031
X015394Y018032
T04
X004016Y001496
X006191Y001772
X004724Y006339
Y007165
X004321Y006785
X003898Y007165
Y006378
X00376Y008327
X001299Y009882
X001417Y010551
X001496Y006181
X001291Y004764
X008268Y006339
X00868Y006751
X009094Y006339
Y007205
X008268
X008228Y008268
X012677Y008228
X012677Y007205
X013465
X013051Y006755
X012677Y006378
X016968Y006339
X017756
X01736Y006761
X017756Y007165
X016929Y007205
X01685Y008307
X020176Y008147
X020472Y008386
X020878Y008394
X02122Y007165
X02166Y006761
X022126Y006378
Y007165
X02126Y006299
X009646Y001457
X034764Y003661
X035276
X034213Y008622
X034724Y009331
X036788Y008346
X035044Y012515
X035315Y013976
X034134Y013937
X02437Y020787
X020197Y016772
X019111Y017464
T05
X002402Y002677
X00378
X006693Y008189
X015191Y008765
X015871Y008775
X023341Y007445
X030941Y007155
X030881Y008305
X037087Y005709
Y005
X037795
Y005709
X037835Y004252
X037087
X023651Y018815
X024371Y019635
X01815Y012913
X018151Y012185
X016141Y012355
X014221Y012235
X014241Y013035
X011631Y012275
T06
X009131Y002965
X010131
X011131
X012131
X013131
X014131
X015131
X016131
X017131
X018131
X019131
X020131
X021131
X022131
X022231Y001545
X021231
X016691Y001565
X015691
X023131Y002965
X024131
X025131
X026131
X027131
X028131
X029131
X030131
X031131
X032131
X032021Y007645
X033021
X032968Y008898
X031969
X032008Y010276
X033008
X030984Y010709
X023361Y010685
Y009685
Y008685
X027081Y004215
X028081
X030984Y011709
Y012709
Y013709
Y014709
X032011Y014675
X033011
X033021Y013215
X032021
Y011775
X033021
X027261Y015715
X026261
X025261
X024261
X023261
X023361Y012685
Y011685
X022261Y015715
X021261
X020261
X019261
X018261
X017261
X016261
X015261
T07
X016361Y021655
X016361Y022655
Y023655
X016351Y024655
X017361Y024155
X017351Y023155
X017361Y022155
X017351Y021155
T08
X023281Y019875
X020781Y019835
T09
X019871Y018715
X020961
T10
X013951Y020605
Y025205
M30
