%FSLAX24Y24*%
%MOIN*%
G70*
G01*
G75*
G04 Layer_Physical_Order=3*
G04 Layer_Color=30967*
%ADD10R,0.0250X0.0200*%
%ADD11R,0.0362X0.0984*%
%ADD12R,0.0276X0.0394*%
%ADD13R,0.0689X0.1181*%
%ADD14R,0.0984X0.0866*%
%ADD15R,0.0200X0.0250*%
%ADD16R,0.0276X0.0394*%
%ADD17R,0.0315X0.0315*%
%ADD18R,0.0669X0.0492*%
%ADD19R,0.0300X0.0300*%
%ADD20R,0.0906X0.0906*%
%ADD21R,0.0600X0.0600*%
%ADD22R,0.0472X0.0354*%
%ADD23R,0.0472X0.0354*%
%ADD24R,0.0315X0.0315*%
%ADD25R,0.0236X0.0472*%
%ADD26O,0.0315X0.0098*%
%ADD27O,0.0098X0.0315*%
%ADD28O,0.0276X0.0098*%
%ADD29O,0.0098X0.0276*%
%ADD30R,0.1299X0.1299*%
%ADD31R,0.0750X0.0400*%
%ADD32R,0.1358X0.1358*%
%ADD33O,0.0984X0.0276*%
%ADD34C,0.0120*%
%ADD35C,0.0100*%
%ADD36C,0.0080*%
%ADD37C,0.0150*%
%ADD38C,0.0300*%
%ADD39C,0.0200*%
%ADD40C,0.0276*%
%ADD41C,0.0600*%
%ADD42C,0.0220*%
%ADD43C,0.0350*%
%ADD44C,0.0700*%
%ADD45C,0.1100*%
%ADD46R,0.0591X0.0591*%
%ADD47C,0.0591*%
%ADD48C,0.0320*%
%ADD49C,0.0354*%
%ADD50R,0.0591X0.0591*%
%ADD51R,0.0600X0.0600*%
%ADD52C,0.0710*%
%ADD53C,0.0900*%
%ADD54C,0.0400*%
G04:AMPARAMS|DCode=55|XSize=42mil|YSize=42mil|CornerRadius=0mil|HoleSize=0mil|Usage=FLASHONLY|Rotation=0.000|XOffset=0mil|YOffset=0mil|HoleType=Round|Shape=Relief|Width=5mil|Gap=5mil|Entries=4|*
%AMTHD55*
7,0,0,0.0420,0.0320,0.0050,45*
%
%ADD55THD55*%
%ADD56C,0.0420*%
%ADD57C,0.0500*%
%ADD58C,0.1400*%
%ADD59C,0.0654*%
%ADD60C,0.0497*%
G04:AMPARAMS|DCode=61|XSize=49.685mil|YSize=49.685mil|CornerRadius=0mil|HoleSize=0mil|Usage=FLASHONLY|Rotation=0.000|XOffset=0mil|YOffset=0mil|HoleType=Round|Shape=Relief|Width=5mil|Gap=5mil|Entries=4|*
%AMTHD61*
7,0,0,0.0497,0.0397,0.0050,45*
%
%ADD61THD61*%
G04:AMPARAMS|DCode=62|XSize=65.433mil|YSize=65.433mil|CornerRadius=0mil|HoleSize=0mil|Usage=FLASHONLY|Rotation=0.000|XOffset=0mil|YOffset=0mil|HoleType=Round|Shape=Relief|Width=5mil|Gap=5mil|Entries=4|*
%AMTHD62*
7,0,0,0.0654,0.0554,0.0050,45*
%
%ADD62THD62*%
G04:AMPARAMS|DCode=63|XSize=60mil|YSize=60mil|CornerRadius=0mil|HoleSize=0mil|Usage=FLASHONLY|Rotation=0.000|XOffset=0mil|YOffset=0mil|HoleType=Round|Shape=Relief|Width=5mil|Gap=5mil|Entries=4|*
%AMTHD63*
7,0,0,0.0600,0.0500,0.0050,45*
%
%ADD63THD63*%
%ADD64C,0.0770*%
%ADD65C,0.0480*%
%ADD66C,0.0090*%
G36*
X10821Y4209D02*
X10859Y4194D01*
X9223D01*
X9265Y4211D01*
X9267Y4217D01*
X10814D01*
X10821Y4209D01*
D02*
G37*
G36*
X8977Y4211D02*
X9020Y4194D01*
X8997D01*
X8995Y4199D01*
X8953Y4217D01*
X8975D01*
X8977Y4211D01*
D02*
G37*
G36*
X11847Y4841D02*
X11991Y4782D01*
X12004Y4787D01*
X12313Y4477D01*
X12389Y4446D01*
X11481D01*
X11535Y4575D01*
X11475Y4719D01*
X11331Y4779D01*
X11187Y4719D01*
X11128Y4575D01*
X11181Y4446D01*
X10977D01*
X10969Y4453D01*
X10871Y4494D01*
X9267D01*
X9265Y4499D01*
X9121Y4559D01*
X8977Y4499D01*
X8975Y4494D01*
X7364D01*
X7455Y4531D01*
X7515Y4675D01*
X7456Y4817D01*
X7515Y4841D01*
X7517Y4847D01*
X11845D01*
X11847Y4841D01*
D02*
G37*
G36*
X22750Y4214D02*
X22507D01*
X22505Y4219D01*
X22390Y4267D01*
X22728D01*
X22750Y4214D01*
D02*
G37*
G36*
X22558Y3815D02*
X22600Y3714D01*
X22277D01*
X22275Y3719D01*
X22131Y3779D01*
X21987Y3719D01*
X21947Y3622D01*
X21804D01*
X22119Y3937D01*
X22215D01*
X22217Y3931D01*
X22361Y3872D01*
X22505Y3931D01*
X22507Y3937D01*
X22608D01*
X22558Y3815D01*
D02*
G37*
G36*
X18138Y3835D02*
X18188Y3714D01*
X17837D01*
X17835Y3719D01*
X17691Y3779D01*
X17547Y3719D01*
X17541Y3704D01*
X16043D01*
X16085Y3805D01*
X16034Y3927D01*
X17709D01*
X17841Y3872D01*
X17985Y3931D01*
X17987Y3937D01*
X18180D01*
X18138Y3835D01*
D02*
G37*
G36*
X8707Y4199D02*
X8701Y4184D01*
X5897D01*
X5895Y4190D01*
X5894Y4190D01*
X5945Y4211D01*
X5947Y4217D01*
X8750D01*
X8707Y4199D01*
D02*
G37*
G36*
X7854Y3879D02*
X7842Y3907D01*
X7866D01*
X7854Y3879D01*
D02*
G37*
G36*
X6046Y4494D02*
X5947D01*
X5946Y4497D01*
X6045D01*
X6046Y4494D01*
D02*
G37*
G36*
X16104Y5484D02*
X16061Y5379D01*
X16031Y5392D01*
Y5185D01*
X15981D01*
Y5135D01*
X15775D01*
X15796Y5084D01*
X14121D01*
X14023Y5043D01*
X13694Y4714D01*
X12857D01*
X12875Y4721D01*
X12877Y4727D01*
X13591D01*
X13689Y4767D01*
X13899Y4977D01*
X13940Y5075D01*
Y5134D01*
X14013Y5164D01*
X14073Y5308D01*
X14013Y5452D01*
X13888Y5504D01*
X14249D01*
X14249Y5504D01*
X14249Y5504D01*
X16153D01*
X16104Y5484D01*
D02*
G37*
G36*
X20072Y4764D02*
X20079Y4747D01*
X20051Y4759D01*
X19907Y4699D01*
X19848Y4555D01*
X19890Y4454D01*
X19266D01*
X19308Y4555D01*
X18895D01*
X18937Y4454D01*
X18237D01*
X18235Y4459D01*
X18091Y4519D01*
X17947Y4459D01*
X17945Y4454D01*
X17787D01*
X17808Y4505D01*
X17395D01*
X17416Y4454D01*
X15836D01*
X15895Y4595D01*
X15835Y4739D01*
X15691Y4799D01*
X15547Y4739D01*
X15488Y4595D01*
X15546Y4454D01*
X14446D01*
X14488Y4555D01*
X14075D01*
X14117Y4454D01*
X13877D01*
X13875Y4459D01*
X13840Y4474D01*
X13849Y4477D01*
X14108Y4736D01*
X14075Y4655D01*
X14488D01*
X14442Y4766D01*
X14344Y4807D01*
X17282D01*
X17310Y4818D01*
X17362Y4797D01*
X17506Y4856D01*
X17509Y4863D01*
X20113D01*
X20072Y4764D01*
D02*
G37*
G36*
X5217Y7591D02*
X5361Y7532D01*
X5505Y7591D01*
X5507Y7597D01*
X7704D01*
X7873Y7427D01*
X7971Y7387D01*
X8062D01*
X8007Y7255D01*
X8528D01*
X8474Y7387D01*
X8888D01*
X8834Y7255D01*
X9355D01*
X9301Y7387D01*
X9831D01*
X9837Y7371D01*
X9981Y7312D01*
X10125Y7371D01*
X10128Y7377D01*
X12467D01*
X12416Y7255D01*
X12938D01*
X12887Y7377D01*
X13255D01*
X13204Y7255D01*
X13725D01*
X13675Y7377D01*
X14282D01*
X14391Y7332D01*
X14533Y7391D01*
X14515Y7345D01*
X14928D01*
X14907Y7397D01*
X16727D01*
X16668Y7255D01*
X17190D01*
X17131Y7397D01*
X17635D01*
X17557Y7364D01*
X17495Y7215D01*
X18017D01*
X17955Y7364D01*
X17877Y7397D01*
X18583D01*
X18597Y7361D01*
X18741Y7302D01*
X18885Y7361D01*
X18894Y7383D01*
X21051D01*
X21149Y7423D01*
X21159Y7433D01*
X21187D01*
X21187Y7433D01*
X21254D01*
X21254Y7433D01*
X21282D01*
X21292Y7423D01*
X21390Y7383D01*
X21956D01*
X22054Y7423D01*
X22064Y7433D01*
X22093D01*
X22092Y7433D01*
X22159D01*
X22159Y7433D01*
X22361D01*
X22399Y7341D01*
X22913Y6828D01*
X23011Y6787D01*
X23662D01*
X23760Y6828D01*
X24271Y7338D01*
X24449D01*
Y6648D01*
X24427Y6639D01*
X24368Y6495D01*
X24422Y6365D01*
X24280Y6507D01*
Y6709D01*
X24285Y6711D01*
X24345Y6855D01*
X24285Y6999D01*
X24141Y7059D01*
X23997Y6999D01*
X23938Y6855D01*
X23997Y6711D01*
X24003Y6709D01*
Y6449D01*
X24043Y6351D01*
X24311Y6083D01*
X24311Y6083D01*
X24340Y6071D01*
X24409Y6043D01*
X24409Y6043D01*
X24449D01*
Y5364D01*
X21844D01*
X21746Y5323D01*
X21506Y5084D01*
X20549D01*
X20533Y5100D01*
X20435Y5140D01*
X17741D01*
X17785Y5245D01*
X17725Y5389D01*
X17581Y5449D01*
X17437Y5389D01*
X17378Y5245D01*
X17402Y5187D01*
X17362Y5203D01*
X17218Y5144D01*
X17193Y5084D01*
X16167D01*
X16197Y5157D01*
X16248Y5136D01*
X16392Y5196D01*
X16452Y5340D01*
X16392Y5484D01*
X16343Y5504D01*
X18469D01*
X18469Y5504D01*
X18469Y5504D01*
X20609D01*
X20609Y5504D01*
X20715Y5548D01*
X20913Y5746D01*
X22650D01*
X22625Y5685D01*
X23038D01*
X22992Y5796D01*
X22958Y5810D01*
X23077Y5930D01*
X23077Y5930D01*
X23090Y5961D01*
X23121Y6035D01*
X23121Y6035D01*
Y6145D01*
X23175Y6275D01*
X23115Y6419D01*
X22971Y6479D01*
X22827Y6419D01*
X22768Y6275D01*
X22822Y6145D01*
Y6097D01*
X22769Y6045D01*
X21325D01*
X21459Y6100D01*
X21521Y6249D01*
X20999D01*
X21061Y6100D01*
X21195Y6045D01*
X20851D01*
X20851Y6045D01*
X20777Y6014D01*
X20746Y6001D01*
X20746Y6001D01*
X20547Y5803D01*
X18830D01*
X18857Y5830D01*
X18857Y5830D01*
X18901Y5935D01*
Y6135D01*
X18955Y6265D01*
X18895Y6409D01*
X18751Y6469D01*
X18607Y6409D01*
X18548Y6265D01*
X18602Y6135D01*
Y5997D01*
X18407Y5803D01*
X14567D01*
X14581Y5835D01*
X14581Y5835D01*
Y6105D01*
X14635Y6235D01*
X14575Y6379D01*
X14431Y6439D01*
X14287Y6379D01*
X14228Y6235D01*
X14282Y6105D01*
Y5897D01*
X14187Y5803D01*
X12639D01*
X12639Y5803D01*
X12619Y5795D01*
X11342D01*
X11455Y5841D01*
X11515Y5985D01*
X11455Y6129D01*
X11311Y6189D01*
X11167Y6129D01*
X11108Y5985D01*
X11167Y5841D01*
X11280Y5795D01*
X10273D01*
X10171Y5897D01*
Y6125D01*
X10225Y6255D01*
X10165Y6399D01*
X10021Y6459D01*
X9877Y6399D01*
X9818Y6255D01*
X9872Y6125D01*
Y5995D01*
X7445D01*
X7485Y6011D01*
X7545Y6155D01*
X7485Y6299D01*
X7403Y6333D01*
X7495Y6371D01*
X7555Y6515D01*
X7495Y6659D01*
X7351Y6719D01*
X7207Y6659D01*
X7148Y6515D01*
X7207Y6371D01*
X7290Y6337D01*
X7197Y6299D01*
X7138Y6155D01*
X7197Y6011D01*
X7238Y5995D01*
X6232D01*
X6101Y6049D01*
X5957Y5989D01*
X5898Y5845D01*
X5957Y5701D01*
X5978Y5693D01*
X5961Y5686D01*
X5915Y5575D01*
X6328D01*
X6282Y5686D01*
X6258Y5696D01*
X8314D01*
X8177Y5639D01*
X8118Y5495D01*
X8177Y5351D01*
X8321Y5292D01*
X8465Y5351D01*
X8525Y5495D01*
X8465Y5639D01*
X8328Y5696D01*
X9949D01*
X10106Y5540D01*
X10106Y5540D01*
X10137Y5527D01*
X10211Y5496D01*
X10211Y5496D01*
X12492D01*
X12438Y5365D01*
X12497Y5221D01*
X12641Y5162D01*
X12785Y5221D01*
X12845Y5365D01*
X12787Y5504D01*
X13850D01*
X13725Y5452D01*
X13666Y5308D01*
X13677Y5280D01*
X13663Y5245D01*
Y5133D01*
X13534Y5004D01*
X12877D01*
X12875Y5009D01*
X12731Y5069D01*
X12587Y5009D01*
X12528Y4865D01*
X12587Y4721D01*
X12606Y4714D01*
X12469D01*
X12193Y4989D01*
X12135Y5129D01*
X11991Y5189D01*
X11847Y5129D01*
X11845Y5124D01*
X7517D01*
X7515Y5129D01*
X7506Y5133D01*
X7582Y5165D01*
X7628Y5275D01*
X7215D01*
X7261Y5165D01*
X7287Y5154D01*
X7268Y5146D01*
X6509D01*
X6555Y5255D01*
X6495Y5399D01*
X6351Y5459D01*
X6315Y5444D01*
X6328Y5475D01*
X6171D01*
Y5319D01*
X6175Y5320D01*
X6148Y5255D01*
X6193Y5146D01*
X5532D01*
X5545Y5151D01*
X5605Y5295D01*
X5545Y5439D01*
X5401Y5499D01*
X5257Y5439D01*
X5198Y5295D01*
X5257Y5151D01*
X5271Y5146D01*
X5000D01*
Y6289D01*
X4724D01*
Y6389D01*
X5000D01*
Y7115D01*
X4724D01*
Y7215D01*
X5000D01*
Y7644D01*
X5196Y7644D01*
X5217Y7591D01*
D02*
G37*
G36*
X24449Y6342D02*
Y6338D01*
X24441Y6346D01*
X24449Y6342D01*
D02*
G37*
G36*
X20431Y4447D02*
X20470Y4353D01*
X20409Y4413D01*
X20311Y4454D01*
X20213D01*
X20255Y4555D01*
X20248Y4572D01*
X20276Y4560D01*
X20419Y4620D01*
X20431Y4647D01*
Y4447D01*
D02*
G37*
G36*
X7226Y4844D02*
X7167Y4819D01*
X7108Y4675D01*
X7167Y4531D01*
X7258Y4494D01*
X6336D01*
X6395Y4635D01*
X6335Y4779D01*
X6191Y4839D01*
X6047Y4779D01*
X6045Y4774D01*
X5611D01*
X5513Y4733D01*
X5174Y4394D01*
X5108D01*
X5138Y4465D01*
X4931D01*
Y4565D01*
X5138D01*
X5092Y4676D01*
X5000Y4714D01*
Y4869D01*
X7216D01*
X7226Y4844D01*
D02*
G37*
G36*
X14150Y4778D02*
X14179Y4807D01*
X14219D01*
X14150Y4778D01*
D02*
G37*
G36*
X24449Y4210D02*
X24331Y4259D01*
X24187Y4199D01*
X24170Y4158D01*
X24158Y4153D01*
X24156Y4151D01*
X23859D01*
X23761Y4110D01*
X23605Y3954D01*
X23254D01*
X23311Y3977D01*
X23617Y4283D01*
X23623Y4281D01*
X23767Y4341D01*
X23826Y4485D01*
X23767Y4629D01*
X23623Y4688D01*
X23479Y4629D01*
X23419Y4485D01*
X23421Y4479D01*
X23156Y4214D01*
X23073D01*
X23115Y4315D01*
X23055Y4459D01*
X22911Y4519D01*
X22897Y4513D01*
X22821Y4544D01*
X21891D01*
X21793Y4503D01*
X21254Y3964D01*
X21103D01*
X21160Y4100D01*
X21100Y4244D01*
X20956Y4304D01*
X20923Y4290D01*
X20708Y4505D01*
Y4807D01*
X21564D01*
X21662Y4847D01*
X21901Y5087D01*
X22594D01*
X22527Y5059D01*
X22468Y4915D01*
X22527Y4771D01*
X22671Y4712D01*
X22815Y4771D01*
X22875Y4915D01*
X22815Y5059D01*
X22749Y5087D01*
X24449D01*
Y4210D01*
D02*
G37*
G36*
X6535Y10612D02*
X6497Y10580D01*
X6461Y10587D01*
X6388Y10572D01*
X6326Y10531D01*
X6322Y10526D01*
X4251D01*
X4201Y10516D01*
X4159Y10488D01*
X3904Y10233D01*
X3858Y10252D01*
Y10715D01*
X6535D01*
Y10612D01*
D02*
G37*
G36*
X3858Y12226D02*
Y12205D01*
X6535D01*
Y11331D01*
X3858D01*
Y12205D01*
X3844Y12234D01*
X3858Y12226D01*
D02*
G37*
G36*
X6326Y10260D02*
X6388Y10218D01*
X6461Y10204D01*
X6497Y10211D01*
X6535Y10179D01*
Y9014D01*
X6447Y8926D01*
X6441Y8927D01*
X6368Y8912D01*
X6306Y8871D01*
X6264Y8809D01*
X6250Y8735D01*
X6264Y8662D01*
X6306Y8600D01*
X6368Y8558D01*
X6441Y8544D01*
X6459Y8547D01*
X6479Y8502D01*
X6423Y8459D01*
X6363Y8380D01*
X6325Y8288D01*
X6312Y8189D01*
X6315Y8161D01*
X6270Y8139D01*
X6260Y8150D01*
X4774D01*
X4769Y8199D01*
X4798Y8205D01*
X4861Y8247D01*
X4902Y8309D01*
X4917Y8382D01*
X4902Y8456D01*
X4861Y8518D01*
X4798Y8559D01*
X4725Y8574D01*
X4652Y8559D01*
X4590Y8518D01*
X4548Y8456D01*
X4533Y8382D01*
X4548Y8309D01*
X4590Y8247D01*
X4652Y8205D01*
X4681Y8199D01*
X4676Y8150D01*
X3923D01*
X3910Y8169D01*
X3897Y8194D01*
X3937Y8253D01*
X3952Y8327D01*
X3937Y8400D01*
X3895Y8462D01*
X3858Y8487D01*
Y9834D01*
X3861Y9835D01*
X3904Y9863D01*
X4305Y10265D01*
X6322D01*
X6326Y10260D01*
D02*
G37*
G36*
X19228Y3825D02*
X19274Y3714D01*
X18494D01*
X18545Y3835D01*
X18503Y3937D01*
X19274D01*
X19228Y3825D01*
D02*
G37*
G36*
X7478Y3805D02*
X7532Y3675D01*
Y3655D01*
X7532Y3655D01*
X7546Y3622D01*
X6968D01*
X7015Y3735D01*
X6955Y3879D01*
X6887Y3907D01*
X7520D01*
X7478Y3805D01*
D02*
G37*
G36*
X20366Y3683D02*
X20365Y3683D01*
X20291Y3714D01*
X19589D01*
X19635Y3825D01*
X19589Y3937D01*
X20112D01*
X20366Y3683D01*
D02*
G37*
G36*
X7874Y3685D02*
X7863D01*
X7843Y3705D01*
X7854Y3732D01*
X7874Y3685D01*
D02*
G37*
G36*
X5598Y4355D02*
X5657Y4211D01*
X5659Y4211D01*
X5607Y4190D01*
X5548Y4046D01*
X5607Y3902D01*
X5751Y3842D01*
X5895Y3902D01*
X5897Y3907D01*
X6735D01*
X6667Y3879D01*
X6608Y3735D01*
X6655Y3622D01*
X5404D01*
X5081Y3890D01*
X5000Y3957D01*
Y4117D01*
X5231D01*
X5329Y4157D01*
X5648Y4476D01*
X5598Y4355D01*
D02*
G37*
G36*
X22217Y4219D02*
X22215Y4214D01*
X22061D01*
X21963Y4173D01*
X21534Y3744D01*
X21426D01*
X21949Y4267D01*
X22332D01*
X22217Y4219D01*
D02*
G37*
G36*
X22932Y7445D02*
X23052Y7156D01*
X23273Y7064D01*
X23068D01*
X22652Y7480D01*
X22726Y7554D01*
X22731Y7552D01*
X22875Y7611D01*
X22901Y7675D01*
X23027Y7675D01*
X22932Y7445D01*
D02*
G37*
G36*
X24362Y7615D02*
X24213D01*
X24213Y7615D01*
X24115Y7575D01*
X23605Y7064D01*
X23409D01*
X23631Y7156D01*
X23750Y7445D01*
X23655Y7676D01*
X24287Y7677D01*
X24362Y7615D01*
D02*
G37*
G36*
X14237Y7654D02*
X11107D01*
X14239Y7660D01*
X14237Y7654D01*
D02*
G37*
G36*
X15678Y3805D02*
X15720Y3704D01*
X15120D01*
X15105Y3739D01*
X14961Y3799D01*
X14817Y3739D01*
X14815Y3734D01*
X13631D01*
X13594Y3718D01*
X13581Y3724D01*
X13421D01*
X13323Y3683D01*
X13303Y3663D01*
X13286Y3622D01*
X12766D01*
X12885Y3671D01*
X12945Y3815D01*
X12903Y3917D01*
X13319D01*
X13451Y3862D01*
X13595Y3921D01*
X13597Y3927D01*
X15728D01*
X15678Y3805D01*
D02*
G37*
G36*
X12538Y3815D02*
X12597Y3671D01*
X12716Y3622D01*
X9609D01*
X9635Y3685D01*
X9575Y3829D01*
X9431Y3889D01*
X9301Y3835D01*
X8411D01*
X8411Y3835D01*
X8337Y3804D01*
X8306Y3791D01*
X8306Y3791D01*
X8249Y3735D01*
X8258Y3755D01*
X8051D01*
Y3855D01*
X8258D01*
X8236Y3907D01*
X8717D01*
X8851Y3852D01*
X8995Y3911D01*
X8997Y3917D01*
X12580D01*
X12538Y3815D01*
D02*
G37*
G36*
X24449Y3622D02*
X23445D01*
X23423Y3677D01*
X23662D01*
X23760Y3717D01*
X23916Y3874D01*
X24213D01*
X24245Y3887D01*
X24331Y3852D01*
X24449Y3901D01*
Y3622D01*
D02*
G37*
G36*
X21003Y7669D02*
X20993Y7660D01*
X19125D01*
X19128Y7668D01*
X21008Y7671D01*
X21003Y7669D01*
D02*
G37*
G36*
X21909D02*
X21899Y7660D01*
X21447D01*
X21438Y7669D01*
X21431Y7672D01*
X21917Y7673D01*
X21909Y7669D01*
D02*
G37*
%LPC*%
G36*
X13375Y6328D02*
X13164D01*
X13226Y6179D01*
X13375Y6117D01*
Y6328D01*
D02*
G37*
G36*
X13686D02*
X13475D01*
Y6117D01*
X13624Y6179D01*
X13686Y6328D01*
D02*
G37*
G36*
X12938D02*
X12727D01*
Y6117D01*
X12876Y6179D01*
X12938Y6328D01*
D02*
G37*
G36*
X9355Y6289D02*
X9144D01*
Y6078D01*
X9293Y6140D01*
X9355Y6289D01*
D02*
G37*
G36*
X12627Y6328D02*
X12416D01*
X12478Y6179D01*
X12627Y6117D01*
Y6328D01*
D02*
G37*
G36*
X8528Y6289D02*
X8318D01*
Y6078D01*
X8467Y6140D01*
X8528Y6289D01*
D02*
G37*
G36*
X9044D02*
X8834D01*
X8895Y6140D01*
X9044Y6078D01*
Y6289D01*
D02*
G37*
G36*
X8318Y6599D02*
Y6389D01*
X8528D01*
X8467Y6538D01*
X8318Y6599D01*
D02*
G37*
G36*
X8218D02*
X8069Y6538D01*
X8007Y6389D01*
X8218D01*
Y6599D01*
D02*
G37*
G36*
X9144D02*
Y6389D01*
X9355D01*
X9293Y6538D01*
X9144Y6599D01*
D02*
G37*
G36*
X9044D02*
X8895Y6538D01*
X8834Y6389D01*
X9044D01*
Y6599D01*
D02*
G37*
G36*
X22387Y6328D02*
X22176D01*
Y6117D01*
X22325Y6179D01*
X22387Y6328D01*
D02*
G37*
G36*
X22076D02*
X21865D01*
X21927Y6179D01*
X22076Y6117D01*
Y6328D01*
D02*
G37*
G36*
X21310Y6560D02*
Y6349D01*
X21521D01*
X21459Y6498D01*
X21310Y6560D01*
D02*
G37*
G36*
X21210D02*
X21061Y6498D01*
X20999Y6349D01*
X21210D01*
Y6560D01*
D02*
G37*
G36*
X8218Y6289D02*
X8007D01*
X8069Y6140D01*
X8218Y6078D01*
Y6289D01*
D02*
G37*
G36*
X21241Y5669D02*
X21097Y5609D01*
X21038Y5465D01*
X21097Y5321D01*
X21241Y5262D01*
X21385Y5321D01*
X21445Y5465D01*
X21385Y5609D01*
X21241Y5669D01*
D02*
G37*
G36*
X15931Y5392D02*
X15821Y5346D01*
X15775Y5235D01*
X15931D01*
Y5392D01*
D02*
G37*
G36*
X7371Y5532D02*
X7261Y5486D01*
X7215Y5375D01*
X7371D01*
Y5532D01*
D02*
G37*
G36*
X6071Y5475D02*
X5915D01*
X5961Y5365D01*
X6071Y5319D01*
Y5475D01*
D02*
G37*
G36*
X17651Y4762D02*
Y4605D01*
X17808D01*
X17762Y4716D01*
X17651Y4762D01*
D02*
G37*
G36*
X17551D02*
X17441Y4716D01*
X17395Y4605D01*
X17551D01*
Y4762D01*
D02*
G37*
G36*
X19151Y4812D02*
Y4655D01*
X19308D01*
X19262Y4766D01*
X19151Y4812D01*
D02*
G37*
G36*
X19051D02*
X18941Y4766D01*
X18895Y4655D01*
X19051D01*
Y4812D01*
D02*
G37*
G36*
X7471Y5532D02*
Y5375D01*
X7628D01*
X7582Y5486D01*
X7471Y5532D01*
D02*
G37*
G36*
X17229Y6289D02*
X17019D01*
Y6078D01*
X17168Y6140D01*
X17229Y6289D01*
D02*
G37*
G36*
X16918D02*
X16708D01*
X16770Y6140D01*
X16918Y6078D01*
Y6289D01*
D02*
G37*
G36*
X18017D02*
X17806D01*
Y6078D01*
X17955Y6140D01*
X18017Y6289D01*
D02*
G37*
G36*
X17706D02*
X17495D01*
X17557Y6140D01*
X17706Y6078D01*
Y6289D01*
D02*
G37*
G36*
X23038Y5585D02*
X22881D01*
Y5429D01*
X22992Y5475D01*
X23038Y5585D01*
D02*
G37*
G36*
X22781D02*
X22625D01*
X22671Y5475D01*
X22781Y5429D01*
Y5585D01*
D02*
G37*
G36*
X15851Y6339D02*
X15707Y6279D01*
X15648Y6135D01*
X15707Y5991D01*
X15851Y5932D01*
X15995Y5991D01*
X16055Y6135D01*
X15995Y6279D01*
X15851Y6339D01*
D02*
G37*
G36*
X20370Y6325D02*
X20226Y6265D01*
X20166Y6121D01*
X20226Y5978D01*
X20370Y5918D01*
X20514Y5978D01*
X20573Y6121D01*
X20514Y6265D01*
X20370Y6325D01*
D02*
G37*
G36*
X12627Y7155D02*
X12416D01*
X12478Y7006D01*
X12627Y6944D01*
Y7155D01*
D02*
G37*
G36*
X9355D02*
X9144D01*
Y6944D01*
X9293Y7006D01*
X9355Y7155D01*
D02*
G37*
G36*
X9044D02*
X8834D01*
X8895Y7006D01*
X9044Y6944D01*
Y7155D01*
D02*
G37*
G36*
X12938D02*
X12727D01*
Y6944D01*
X12876Y7006D01*
X12938Y7155D01*
D02*
G37*
G36*
X16879D02*
X16668D01*
X16730Y7006D01*
X16879Y6944D01*
Y7155D01*
D02*
G37*
G36*
X13725D02*
X13515D01*
Y6944D01*
X13664Y7006D01*
X13725Y7155D01*
D02*
G37*
G36*
X13415D02*
X13204D01*
X13266Y7006D01*
X13415Y6944D01*
Y7155D01*
D02*
G37*
G36*
X22076Y7115D02*
X21865D01*
X21927Y6966D01*
X22076Y6905D01*
Y7115D01*
D02*
G37*
G36*
X21481D02*
X21270D01*
Y6905D01*
X21419Y6966D01*
X21481Y7115D01*
D02*
G37*
G36*
X21170D02*
X20960D01*
X21021Y6966D01*
X21170Y6905D01*
Y7115D01*
D02*
G37*
G36*
X22387D02*
X22176D01*
Y6905D01*
X22325Y6966D01*
X22387Y7115D01*
D02*
G37*
G36*
X8528Y7155D02*
X8318D01*
Y6944D01*
X8467Y7006D01*
X8528Y7155D01*
D02*
G37*
G36*
X8218D02*
X8007D01*
X8069Y7006D01*
X8218Y6944D01*
Y7155D01*
D02*
G37*
G36*
X20161Y7329D02*
X20017Y7269D01*
X19958Y7125D01*
X20017Y6981D01*
X20161Y6922D01*
X20305Y6981D01*
X20365Y7125D01*
X20305Y7269D01*
X20161Y7329D01*
D02*
G37*
G36*
X17190Y7155D02*
X16979D01*
Y6944D01*
X17128Y7006D01*
X17190Y7155D01*
D02*
G37*
G36*
X4741Y9717D02*
X4668Y9702D01*
X4606Y9661D01*
X4564Y9599D01*
X4550Y9525D01*
X4564Y9452D01*
X4606Y9390D01*
X4668Y9348D01*
X4741Y9334D01*
X4815Y9348D01*
X4877Y9390D01*
X4918Y9452D01*
X4933Y9525D01*
X4918Y9599D01*
X4877Y9661D01*
X4815Y9702D01*
X4741Y9717D01*
D02*
G37*
G36*
X5731Y8727D02*
X5658Y8712D01*
X5596Y8671D01*
X5554Y8609D01*
X5540Y8535D01*
X5554Y8462D01*
X5596Y8400D01*
X5658Y8358D01*
X5731Y8344D01*
X5805Y8358D01*
X5867Y8400D01*
X5908Y8462D01*
X5923Y8535D01*
X5908Y8609D01*
X5867Y8671D01*
X5805Y8712D01*
X5731Y8727D01*
D02*
G37*
G36*
X22176Y7426D02*
Y7215D01*
X22387D01*
X22325Y7364D01*
X22176Y7426D01*
D02*
G37*
G36*
X4881Y11865D02*
X4727D01*
X4733Y11833D01*
X4780Y11764D01*
X4849Y11717D01*
X4881Y11711D01*
Y11865D01*
D02*
G37*
G36*
X4981Y12119D02*
Y11965D01*
X5135D01*
X5129Y11997D01*
X5083Y12067D01*
X5013Y12113D01*
X4981Y12119D01*
D02*
G37*
G36*
X4881D02*
X4849Y12113D01*
X4780Y12067D01*
X4733Y11997D01*
X4727Y11965D01*
X4881D01*
Y12119D01*
D02*
G37*
G36*
X5135Y11865D02*
X4981D01*
Y11711D01*
X5013Y11717D01*
X5083Y11764D01*
X5129Y11833D01*
X5135Y11865D01*
D02*
G37*
G36*
X6261Y7282D02*
X6151Y7236D01*
X6105Y7125D01*
X6261D01*
Y7282D01*
D02*
G37*
G36*
X14928Y7245D02*
X14771D01*
Y7089D01*
X14882Y7135D01*
X14928Y7245D01*
D02*
G37*
G36*
X14671D02*
X14515D01*
X14561Y7135D01*
X14671Y7089D01*
Y7245D01*
D02*
G37*
G36*
X6361Y7282D02*
Y7125D01*
X6518D01*
X6472Y7236D01*
X6361Y7282D01*
D02*
G37*
G36*
X22076Y7426D02*
X21927Y7364D01*
X21865Y7215D01*
X22076D01*
Y7426D01*
D02*
G37*
G36*
X21270D02*
Y7215D01*
X21481D01*
X21419Y7364D01*
X21270Y7426D01*
D02*
G37*
G36*
X21170D02*
X21021Y7364D01*
X20960Y7215D01*
X21170D01*
Y7426D01*
D02*
G37*
G36*
X18017Y7115D02*
X17806D01*
Y6905D01*
X17955Y6966D01*
X18017Y7115D01*
D02*
G37*
G36*
X11691Y6869D02*
X11547Y6809D01*
X11488Y6665D01*
X11547Y6521D01*
X11691Y6462D01*
X11835Y6521D01*
X11895Y6665D01*
X11835Y6809D01*
X11691Y6869D01*
D02*
G37*
G36*
X22176Y6639D02*
Y6428D01*
X22387D01*
X22325Y6577D01*
X22176Y6639D01*
D02*
G37*
G36*
X22076D02*
X21927Y6577D01*
X21865Y6428D01*
X22076D01*
Y6639D01*
D02*
G37*
G36*
X8630Y6701D02*
X8419D01*
X8481Y6552D01*
X8630Y6490D01*
Y6701D01*
D02*
G37*
G36*
X21921Y6711D02*
X21710D01*
Y6500D01*
X21859Y6562D01*
X21921Y6711D01*
D02*
G37*
G36*
X21610D02*
X21400D01*
X21461Y6562D01*
X21610Y6500D01*
Y6711D01*
D02*
G37*
G36*
X8940Y6701D02*
X8730D01*
Y6490D01*
X8879Y6552D01*
X8940Y6701D01*
D02*
G37*
G36*
X17706Y6599D02*
X17557Y6538D01*
X17495Y6389D01*
X17706D01*
Y6599D01*
D02*
G37*
G36*
X17019D02*
Y6389D01*
X17229D01*
X17168Y6538D01*
X17019Y6599D01*
D02*
G37*
G36*
X16918D02*
X16770Y6538D01*
X16708Y6389D01*
X16918D01*
Y6599D01*
D02*
G37*
G36*
X17806D02*
Y6389D01*
X18017D01*
X17955Y6538D01*
X17806Y6599D01*
D02*
G37*
G36*
X13475Y6639D02*
Y6428D01*
X13686D01*
X13624Y6577D01*
X13475Y6639D01*
D02*
G37*
G36*
X13312Y6705D02*
X13101D01*
Y6495D01*
X13211Y6540D01*
X13164Y6428D01*
X13375D01*
Y6639D01*
X13266Y6593D01*
X13312Y6705D01*
D02*
G37*
G36*
X12627Y6639D02*
X12478Y6577D01*
X12416Y6428D01*
X12627D01*
Y6639D01*
D02*
G37*
G36*
X17310Y6711D02*
X17099D01*
X17161Y6562D01*
X17310Y6500D01*
Y6711D01*
D02*
G37*
G36*
X17410Y7021D02*
Y6811D01*
X17620D01*
X17559Y6960D01*
X17410Y7021D01*
D02*
G37*
G36*
X17310D02*
X17161Y6960D01*
X17099Y6811D01*
X17310D01*
Y7021D01*
D02*
G37*
G36*
X21710Y7021D02*
Y6811D01*
X21921D01*
X21859Y6960D01*
X21710Y7021D01*
D02*
G37*
G36*
X15901Y7269D02*
X15757Y7209D01*
X15698Y7065D01*
X15757Y6921D01*
X15901Y6862D01*
X16045Y6921D01*
X16105Y7065D01*
X16045Y7209D01*
X15901Y7269D01*
D02*
G37*
G36*
X17706Y7115D02*
X17495D01*
X17557Y6966D01*
X17706Y6905D01*
Y7115D01*
D02*
G37*
G36*
X6518Y7025D02*
X6361D01*
Y6869D01*
X6472Y6915D01*
X6518Y7025D01*
D02*
G37*
G36*
X6261D02*
X6105D01*
X6151Y6915D01*
X6261Y6869D01*
Y7025D01*
D02*
G37*
G36*
X8630Y7011D02*
X8481Y6950D01*
X8419Y6801D01*
X8630D01*
Y7011D01*
D02*
G37*
G36*
X13001Y6705D02*
X12791D01*
X12837Y6593D01*
X12727Y6639D01*
Y6428D01*
X12938D01*
X12891Y6540D01*
X13001Y6495D01*
Y6705D01*
D02*
G37*
G36*
X17620Y6711D02*
X17410D01*
Y6500D01*
X17559Y6562D01*
X17620Y6711D01*
D02*
G37*
G36*
X8730Y7011D02*
Y6801D01*
X8940D01*
X8879Y6950D01*
X8730Y7011D01*
D02*
G37*
G36*
X21610Y7021D02*
X21461Y6960D01*
X21400Y6811D01*
X21610D01*
Y7021D01*
D02*
G37*
G36*
X13101Y7016D02*
Y6805D01*
X13312D01*
X13250Y6954D01*
X13101Y7016D01*
D02*
G37*
G36*
X13001D02*
X12852Y6954D01*
X12791Y6805D01*
X13001D01*
Y7016D01*
D02*
G37*
%LPD*%
D34*
X9891Y8045D02*
X10161Y7775D01*
X8141Y8045D02*
X9891D01*
X7221Y8965D02*
X8141Y8045D01*
X19431Y8065D02*
X19621Y7875D01*
X18751Y5935D02*
Y6265D01*
X18469Y5653D02*
X18751Y5935D01*
X14249Y5653D02*
X18469D01*
X14431Y5835D02*
Y6235D01*
X14249Y5653D02*
X14431Y5835D01*
X10011Y5845D02*
X10211Y5645D01*
X10021Y5855D02*
Y6255D01*
X10011Y5845D02*
X10021Y5855D01*
X6101Y5845D02*
X10011D01*
X7801Y3535D02*
X8271D01*
X8411Y3685D02*
X9431D01*
X8271Y3545D02*
X8411Y3685D01*
X8271Y3535D02*
Y3545D01*
X7681Y3655D02*
X7801Y3535D01*
X10421Y14125D02*
X10431D01*
X7681Y3655D02*
Y3805D01*
X18469Y5653D02*
X20609D01*
X20851Y5895D01*
X22831D01*
X22971Y6035D01*
Y6275D01*
X12639Y5653D02*
X14249D01*
X10211Y5645D02*
X12631D01*
X12639Y5653D01*
D35*
X22323Y17185D02*
X24407D01*
X24429Y17164D01*
X21634Y17874D02*
X22323Y17185D01*
X18543Y17874D02*
X21634D01*
X21781Y17087D02*
X22362Y16505D01*
X16575Y17087D02*
X21781D01*
X16394Y17268D02*
X16575Y17087D01*
X18455Y8031D02*
X18611Y7875D01*
X15765Y8031D02*
X18455D01*
X15481Y8315D02*
X15765Y8031D01*
X17394Y18032D02*
X18386D01*
X16894D02*
Y18508D01*
X17047Y18661D01*
X18346D01*
X16394Y17268D02*
Y17531D01*
X16102Y16772D02*
X20197D01*
X15894Y16980D02*
X16102Y16772D01*
X15894Y16980D02*
Y17531D01*
X22362Y16505D02*
X27681D01*
X18386Y18032D02*
X18543Y17874D01*
X21299Y18071D02*
X21394Y18165D01*
X18937Y18071D02*
X21299D01*
X18346Y18661D02*
X18937Y18071D01*
X21394Y18165D02*
X23961D01*
X1297Y4770D02*
X1811Y4255D01*
X1291Y4764D02*
Y4775D01*
X1299Y9882D02*
X1305Y9887D01*
Y9955D01*
X22007Y7571D02*
X22447D01*
X22497Y7521D01*
X21956D02*
X22007Y7571D01*
X21390Y7521D02*
X21956D01*
X21340Y7571D02*
X21390Y7521D01*
X21101Y7571D02*
X21340D01*
X21051Y7521D02*
X21101Y7571D01*
X18757Y7521D02*
X21051D01*
X9982Y7516D02*
X14372D01*
X9981Y7515D02*
X9982Y7516D01*
X26315Y17185D02*
X26336Y17164D01*
X26595D01*
X26616Y17185D02*
X27671D01*
X26595Y17164D02*
X26616Y17185D01*
X24648D02*
X26315D01*
X24213Y4012D02*
X24256Y4055D01*
X23859Y4012D02*
X24213D01*
X24256Y4055D02*
X24331D01*
X27281Y22086D02*
Y23779D01*
X27245Y23815D02*
X27281Y23779D01*
X17362Y5002D02*
X20435D01*
X17362Y5000D02*
Y5002D01*
X14121Y4945D02*
X17282D01*
X13751Y4575D02*
X14121Y4945D01*
X20435Y5002D02*
X20491Y4945D01*
X24626Y17164D02*
X24648Y17185D01*
X24429Y17164D02*
X24626D01*
X11083Y13795D02*
Y13796D01*
X11083Y13796D01*
X12205Y13937D02*
X12286Y13855D01*
X12521D01*
X17520Y2157D02*
X17701Y1975D01*
X17520Y2157D02*
Y2165D01*
X24571Y6495D02*
X26071D01*
X26341Y7015D02*
X26371Y7045D01*
X26341Y7015D02*
Y7045D01*
Y6381D02*
Y7015D01*
X26142Y6181D02*
X26341Y6381D01*
X24409Y6181D02*
X26142D01*
X24141Y6449D02*
X24409Y6181D01*
X24141Y6449D02*
Y6855D01*
X28734Y7201D02*
X28898D01*
X28680Y7147D02*
X28734Y7201D01*
X28483Y7147D02*
X28680D01*
X27953Y6060D02*
X28308Y6414D01*
Y6577D01*
X28544Y6813D01*
X29100D01*
X21844Y5225D02*
X24811D01*
X21564Y4945D02*
X21844Y5225D01*
X20491Y4945D02*
X21564D01*
X1305Y9955D02*
X3811D01*
X2941Y12475D02*
X4791D01*
X6941Y12485D02*
X9291D01*
X8801Y10125D02*
X11799D01*
X8081Y10845D02*
X8801Y10125D01*
X3001Y10845D02*
X8081D01*
X9291Y12485D02*
X9371Y12565D01*
X26721Y8795D02*
X26911D01*
X26581Y8655D02*
X26721Y8795D01*
X25251Y8655D02*
X26581D01*
X26911Y8795D02*
X27146Y9030D01*
X29761Y7475D02*
Y7695D01*
X29100Y6813D02*
X29761Y7475D01*
X29521Y7955D02*
Y8105D01*
X28465Y5545D02*
X28565Y5445D01*
X22061Y4075D02*
X22361D01*
X21591Y3605D02*
X22061Y4075D01*
X20639Y3605D02*
X21591D01*
X21891Y4405D02*
X22821D01*
X21311Y3825D02*
X21891Y4405D01*
X20801Y3825D02*
X21311D01*
X22821Y4405D02*
X22911Y4315D01*
X20551Y2325D02*
X21461D01*
X20201Y1975D02*
X20551Y2325D01*
X17701Y1975D02*
X20201D01*
X12411Y4575D02*
X13751D01*
X12001Y4985D02*
X12411Y4575D01*
X11799Y10125D02*
X12211Y10537D01*
X11991Y11115D02*
X13701D01*
X11671Y10795D02*
X11991Y11115D01*
X13701D02*
X14241Y11655D01*
X11641Y13285D02*
X13231D01*
X13541Y12975D01*
X12501Y14405D02*
X13311Y15215D01*
X12111Y14405D02*
X12501D01*
X11621Y13915D02*
X12111Y14405D01*
X13311Y15215D02*
X19141D01*
X13631Y14965D02*
X20021D01*
X12521Y13855D02*
X13631Y14965D01*
X3811Y9955D02*
X4251Y10395D01*
X2841Y10685D02*
X3001Y10845D01*
X2661Y10685D02*
X2841D01*
X19261Y15335D02*
Y15715D01*
X19141Y15215D02*
X19261Y15335D01*
X20916Y4100D02*
X20956D01*
X20181Y4063D02*
X20639Y3605D01*
X20311Y4315D02*
X20801Y3825D01*
X20569Y4447D02*
X20916Y4100D01*
X18091Y4315D02*
X20311D01*
X17841Y4075D02*
X20181D01*
Y4063D02*
Y4075D01*
X20441Y3425D02*
X21981D01*
X20291Y3575D02*
X20441Y3425D01*
X17691Y3575D02*
X20291D01*
X29051Y3805D02*
X29231Y3985D01*
X31051D01*
X4069Y5007D02*
X7349D01*
X4041Y5035D02*
X4069Y5007D01*
X22497Y7439D02*
Y7521D01*
X29461Y12305D02*
X30581Y11185D01*
X28041Y12305D02*
X29461D01*
X30581Y11185D02*
X31401D01*
X27371Y14855D02*
X29141D01*
X26111Y12655D02*
X26141D01*
X26091Y12635D02*
X26111Y12655D01*
X27191Y12635D02*
Y12655D01*
X27681Y16505D02*
X27891Y16295D01*
X22261Y15145D02*
Y15715D01*
X21671Y14555D02*
X22261Y15145D01*
X17751Y14555D02*
X21671D01*
X16581Y13385D02*
X17751Y14555D01*
X16691Y14785D02*
X20821D01*
X16001Y14095D02*
X16691Y14785D01*
X22991Y13385D02*
X24541D01*
X20996Y11835D02*
X21326Y12165D01*
X13601Y3565D02*
X17681D01*
X13431D02*
X13601D01*
X13631Y3595D02*
X14961D01*
X13601Y3565D02*
X13631Y3595D01*
X13581Y3585D02*
X13601Y3565D01*
X13421Y3585D02*
X13581D01*
X13401Y3565D02*
X13421Y3585D01*
X13401Y3565D02*
X13431D01*
X14131Y2795D02*
Y2965D01*
X13821Y2485D02*
X14131Y2795D01*
X12621Y2485D02*
X13821D01*
X14241Y11655D02*
X17111D01*
X17581Y11185D01*
X11991Y4985D02*
X12001D01*
X22497Y7521D02*
X22731Y7755D01*
X18741Y7505D02*
X18757Y7521D01*
X18711Y7535D02*
X18741Y7505D01*
X14391Y7535D02*
X18711D01*
X14372Y7516D02*
X14391Y7535D01*
X9971Y7525D02*
X9981Y7515D01*
X7971Y7525D02*
X9971D01*
X7761Y7735D02*
X7971Y7525D01*
X5361Y7735D02*
X7761D01*
X17641Y11995D02*
X17651Y11985D01*
X17641Y11995D02*
Y12715D01*
X17391Y12965D02*
X17641Y12715D01*
X15191Y12965D02*
X17391D01*
X14801Y13355D02*
X15191Y12965D01*
X13731Y4315D02*
X18091D01*
X6441Y8735D02*
X7271Y9565D01*
X12441D01*
X13091Y10215D01*
X23841D02*
X23981Y10075D01*
X13091Y10215D02*
X23841D01*
X22831Y11655D02*
X22851Y11635D01*
X13266Y3400D02*
X13431Y3565D01*
X17681D02*
X17691Y3575D01*
X8536Y3400D02*
X13266D01*
X7371Y4985D02*
X11991D01*
X13731Y4309D02*
Y4315D01*
X13729Y4307D02*
X13731Y4309D01*
X10919Y4307D02*
X13729D01*
X10871Y4355D02*
X10919Y4307D01*
X13864Y5308D02*
X13869D01*
X13801Y5245D02*
X13864Y5308D01*
X13801Y5075D02*
Y5245D01*
X13591Y4865D02*
X13801Y5075D01*
X12731Y4865D02*
X13591D01*
X9121Y4355D02*
X10871D01*
X13541Y12535D02*
Y12975D01*
X12801Y11905D02*
X13411D01*
X12071Y12635D02*
X12801Y11905D01*
X12071Y12635D02*
Y12745D01*
X21261Y15225D02*
Y15715D01*
X20821Y14785D02*
X21261Y15225D01*
X20021Y14965D02*
X20261Y15205D01*
X16001Y13925D02*
Y14095D01*
X31081Y1475D02*
X31115Y1509D01*
X26091Y12635D02*
X26131Y12595D01*
X8851Y4055D02*
X13451D01*
X17831Y4065D02*
X17841Y4075D01*
X13451Y4065D02*
X17831D01*
X13451Y4055D02*
Y4065D01*
X5611Y4635D02*
X6191D01*
X5231Y4255D02*
X5611Y4635D01*
X1811Y4255D02*
X5231D01*
X7349Y5007D02*
X7371Y4985D01*
X4251Y10395D02*
X6461D01*
X7753Y12853D02*
X7771Y12835D01*
X7351Y6505D02*
Y6515D01*
X9121Y2975D02*
X9131Y2965D01*
X6481Y2975D02*
X9121D01*
X20261Y15205D02*
Y15715D01*
X5801Y4355D02*
X9121D01*
X5751Y4046D02*
X8842D01*
X8851Y4055D01*
X2971Y6305D02*
X3047D01*
X3037Y6315D02*
X3047Y6305D01*
X19291Y11835D02*
X20996D01*
X26131Y12125D02*
Y12595D01*
X27861Y12125D02*
X28041Y12305D01*
X26131Y12125D02*
X27861D01*
X24811Y5225D02*
X24961Y5075D01*
X27671Y17185D02*
X28031Y16825D01*
Y16755D02*
Y16825D01*
X27013Y18165D02*
X27015Y18164D01*
X27212D01*
X27214Y18165D01*
X27486D01*
X27487Y18164D01*
X27684D01*
X27686Y18165D01*
X25381Y14295D02*
X26691D01*
X26761Y14225D02*
Y14235D01*
X26691Y14295D02*
X26761Y14225D01*
X25741Y18775D02*
X26351Y18165D01*
X23961D02*
X24413Y18617D01*
X26351Y18165D02*
X27013D01*
X4791Y12475D02*
X4841Y12525D01*
X28716Y21980D02*
Y25208D01*
X28780Y25272D01*
X28977D01*
X27245Y23815D02*
X27245Y23815D01*
X26575Y5545D02*
X28465D01*
X26575D02*
Y5548D01*
X26339Y5784D02*
X26575Y5548D01*
X21981Y3425D02*
X22131Y3575D01*
X23261D01*
X22361Y4075D02*
X23213D01*
X23623Y4485D01*
X4725Y8376D02*
Y8382D01*
X11072Y13855D02*
X11641Y13285D01*
X24413Y18617D02*
X24881D01*
X25039Y18775D01*
X25741D01*
X28716Y21980D02*
X29001Y21695D01*
Y18535D02*
Y21695D01*
X27686Y18165D02*
X28210D01*
X28675Y18581D02*
Y20692D01*
X27281Y22086D02*
X28675Y20692D01*
X17581Y11185D02*
X20953D01*
X21423Y11655D01*
X22831D01*
X12211Y10537D02*
X20659D01*
X20857Y10735D01*
X22131D01*
X24545Y12162D02*
X25181Y11525D01*
X23623Y12165D02*
X23626Y12162D01*
X24545D01*
X21326Y12165D02*
X23623D01*
X25457Y10941D02*
X25917D01*
X26331Y11355D01*
X24922Y7477D02*
X25276Y7831D01*
X24213Y7477D02*
X24922D01*
X22497Y7439D02*
X23011Y6926D01*
X23662D01*
X24213Y7477D01*
X25011Y7135D02*
X25471Y7595D01*
X28035D01*
X28483Y7147D01*
X29397Y7831D02*
X29521Y7955D01*
X27054Y6735D02*
X27281D01*
X26930Y6611D02*
X27054Y6735D01*
X26930Y6217D02*
Y6611D01*
Y6217D02*
X27087Y6060D01*
X27953D01*
X22761Y3815D02*
X23662D01*
X23859Y4012D01*
X20491Y4945D02*
X20569Y4867D01*
Y4447D02*
Y4867D01*
X1611Y13425D02*
X4401D01*
X4681Y13145D01*
X6441Y13345D02*
X6518Y13422D01*
X8785D01*
X9011Y13195D01*
X30984Y10709D02*
X31551D01*
X30931Y10665D02*
X30984D01*
X32211Y11093D02*
X32219Y11085D01*
X33031D01*
X31551Y10709D02*
X31935Y11093D01*
X32211D01*
X28210Y18165D02*
X28771Y17604D01*
X28943D01*
X29001Y17545D01*
D36*
X26155Y16785D02*
X26451D01*
X26071Y16702D02*
X26155Y16785D01*
X25882Y16702D02*
X26071D01*
X25799Y16785D02*
X25882Y16702D01*
X25281Y16785D02*
X25799D01*
X25191Y16875D02*
X25281Y16785D01*
X25079Y16772D02*
Y16811D01*
Y16772D02*
X25079Y16772D01*
X25088D01*
X25191Y16875D01*
X27160Y17984D02*
X28509Y16635D01*
X25929Y17984D02*
X27160D01*
X25921Y17975D02*
X25929Y17984D01*
X25762Y17975D02*
X25921D01*
X25551Y18307D02*
Y18415D01*
X25601Y18465D01*
X31815Y12515D02*
X35044D01*
X31165Y13165D02*
X31815Y12515D01*
X26711Y13165D02*
X31165D01*
X30103Y8363D02*
X30671Y7795D01*
X28228Y11562D02*
X28241Y11575D01*
X28228Y11339D02*
Y11562D01*
X27977Y11087D02*
X28228Y11339D01*
X27449Y11087D02*
X27977D01*
X27441Y11095D02*
X27449Y11087D01*
X27594Y8998D02*
Y9153D01*
X27331Y8735D02*
X27594Y8998D01*
X27419Y9327D02*
X27594Y9153D01*
X28041Y8305D02*
X28099Y8363D01*
X25254Y8028D02*
X26546D01*
X25109Y8173D02*
X25254Y8028D01*
X26796D02*
X27504D01*
X25749Y7123D02*
X25749Y7123D01*
X26461Y12865D02*
X29641D01*
X26361Y12965D02*
X26461Y12865D01*
X26111Y12965D02*
X26361D01*
X30671Y7795D02*
X30941D01*
X30611Y4475D02*
X32841D01*
X30301Y4785D02*
X30611Y4475D01*
X19441Y2455D02*
X19551Y2345D01*
X15471Y2455D02*
X19441D01*
X14541Y1525D02*
X15471Y2455D01*
X26081Y12995D02*
Y13215D01*
Y12995D02*
X26111Y12965D01*
X30211Y4785D02*
X30301D01*
X30221Y4775D02*
X30301D01*
X30211Y4785D02*
X30221Y4775D01*
X32841Y4475D02*
X33641Y5275D01*
Y6295D01*
X23621Y8015D02*
X24041Y8435D01*
X22611Y8015D02*
X23621D01*
X22471Y7875D02*
X22611Y8015D01*
X19621Y7875D02*
X22471D01*
X11441Y1035D02*
X12651D01*
X13141Y1525D01*
X14541D01*
X21453Y10453D02*
X22271D01*
Y10446D02*
Y10453D01*
Y10446D02*
X22271Y10445D01*
X30941Y7795D02*
X30951Y7785D01*
X26471Y16293D02*
Y16337D01*
Y16265D02*
Y16293D01*
X27141Y14325D02*
X29501D01*
X21141Y9365D02*
Y9375D01*
X21451Y9685D01*
X22681D01*
X22341Y13385D02*
X22991D01*
X22291Y13335D02*
X22341Y13385D01*
X20951Y13845D02*
X21501Y13295D01*
X19121Y13845D02*
X20951D01*
X19121Y13785D02*
Y13845D01*
X24041Y8435D02*
X24851D01*
X25113Y8173D01*
X21501Y12755D02*
Y13295D01*
X28509Y16635D02*
X28511D01*
X25571Y18465D02*
X25601D01*
X25571Y18166D02*
Y18465D01*
Y18166D02*
X25762Y17975D01*
X28734Y18035D02*
X28921D01*
X27931Y18838D02*
X28734Y18035D01*
X27931Y18838D02*
Y19785D01*
X26772Y14694D02*
X27141Y14325D01*
X26772Y14694D02*
Y15992D01*
X26471Y16293D02*
X26772Y15992D01*
X22271Y10445D02*
X23004Y11178D01*
X23741D01*
X23977Y10941D01*
X25457D01*
X22681Y9685D02*
X23197Y9170D01*
X23430D01*
X23588Y9327D01*
X27419D01*
X27186Y7403D02*
X27830D01*
X25749Y7123D02*
X26029Y7403D01*
X26977D01*
X26546Y8028D02*
X26577Y7997D01*
X26766D01*
X26796Y8028D01*
X26977Y7403D02*
X26987Y7413D01*
X27176D01*
X27186Y7403D01*
X28071Y6926D02*
Y7162D01*
X27830Y7403D02*
X28071Y7162D01*
X27504Y8028D02*
X27701Y8225D01*
Y8525D01*
X28099Y8363D02*
X30103D01*
X27283Y8661D02*
X27331Y8709D01*
Y8735D01*
D37*
X1436Y10648D02*
X2190D01*
X2717Y11175D01*
X32821Y5475D02*
X33071Y5725D01*
X29371Y5475D02*
X32821D01*
X28671Y4775D02*
X29371Y5475D01*
X8791Y11175D02*
X9201Y10765D01*
X2717Y11175D02*
X8791D01*
X9671Y10765D02*
X9681Y10775D01*
X9201Y10765D02*
X9671D01*
X21231Y1545D02*
X21991Y2305D01*
X28381D01*
X28671Y2595D01*
Y4775D01*
D39*
X17323Y1532D02*
X18111Y745D01*
X33465D02*
X35473Y2752D01*
X18111Y745D02*
X33465D01*
D42*
X25079Y16811D02*
D03*
X25551Y18307D02*
D03*
X29521Y8105D02*
D03*
X35044Y12515D02*
D03*
X20197Y16772D02*
D03*
X1291Y4764D02*
D03*
X1299Y9882D02*
D03*
X1417Y10551D02*
D03*
X24331Y4055D02*
D03*
X27245Y23815D02*
D03*
X17362Y5000D02*
D03*
X11083Y13795D02*
D03*
X12205Y13937D02*
D03*
X17520Y2165D02*
D03*
X28898Y7201D02*
D03*
X28071Y6926D02*
D03*
X25749Y7130D02*
D03*
X1611Y13425D02*
D03*
X2941Y12435D02*
D03*
X7771Y12835D02*
D03*
X11621Y13915D02*
D03*
X20956Y4100D02*
D03*
X29051Y3805D02*
D03*
X6121Y5525D02*
D03*
X25181Y11525D02*
D03*
X26081Y13215D02*
D03*
X19431Y8065D02*
D03*
X26391Y16785D02*
D03*
X30301Y4775D02*
D03*
X33641Y6295D02*
D03*
X33071Y5725D02*
D03*
X29761Y7695D02*
D03*
X27281Y6735D02*
D03*
X21461Y2325D02*
D03*
X11441Y1035D02*
D03*
X19551Y2345D02*
D03*
X21453Y10453D02*
D03*
X22271D02*
D03*
X26331Y11355D02*
D03*
X33031Y11085D02*
D03*
X30951Y7785D02*
D03*
X29501Y14325D02*
D03*
X31401Y11185D02*
D03*
X29141Y14855D02*
D03*
X27371D02*
D03*
X27441Y11095D02*
D03*
X26141Y12655D02*
D03*
X21141Y9365D02*
D03*
X27191Y12635D02*
D03*
X29641Y12865D02*
D03*
X27891Y16295D02*
D03*
X22291Y13335D02*
D03*
X19121Y13785D02*
D03*
X24541Y13385D02*
D03*
X14961Y3595D02*
D03*
X12621Y2485D02*
D03*
X11671Y10795D02*
D03*
X17601Y4555D02*
D03*
X14721Y7295D02*
D03*
X22731Y7755D02*
D03*
X18741Y7505D02*
D03*
X14391Y7535D02*
D03*
X9981Y7515D02*
D03*
X5361Y7735D02*
D03*
X4931Y11915D02*
D03*
X17651Y11985D02*
D03*
X14801Y13355D02*
D03*
X7221Y8965D02*
D03*
X10161Y7775D02*
D03*
X22971Y6275D02*
D03*
X18751Y6265D02*
D03*
X14431Y6235D02*
D03*
X10021Y6255D02*
D03*
X6101Y5845D02*
D03*
X25011Y7135D02*
D03*
X24961Y5075D02*
D03*
X18091Y4315D02*
D03*
X22911D02*
D03*
X2661Y10685D02*
D03*
X22131Y10735D02*
D03*
X6441Y8735D02*
D03*
X22851Y11635D02*
D03*
X23981Y10075D02*
D03*
X17691Y3575D02*
D03*
X8536Y3400D02*
D03*
X11991Y4985D02*
D03*
X13731Y4315D02*
D03*
X13869Y5308D02*
D03*
X12731Y4865D02*
D03*
X14281Y4605D02*
D03*
X13541Y12535D02*
D03*
X13411Y11905D02*
D03*
X12071Y12745D02*
D03*
X16581Y13385D02*
D03*
X16001Y13925D02*
D03*
X26341Y7045D02*
D03*
X31115Y1509D02*
D03*
X31051Y3985D02*
D03*
X26071Y6495D02*
D03*
X24571D02*
D03*
X24141Y6855D02*
D03*
X28571Y5335D02*
D03*
X28241Y11575D02*
D03*
X22361Y4075D02*
D03*
X17841D02*
D03*
X13451Y4065D02*
D03*
X6191Y4635D02*
D03*
X7371Y4985D02*
D03*
X4041Y5035D02*
D03*
X6461Y10395D02*
D03*
X9681Y10775D02*
D03*
X10431Y14125D02*
D03*
X9431Y3685D02*
D03*
X7681Y3805D02*
D03*
X7421Y5325D02*
D03*
X8051Y3805D02*
D03*
X7351Y6515D02*
D03*
X6311Y7075D02*
D03*
X4681Y13145D02*
D03*
X9011Y13195D02*
D03*
X6441Y13345D02*
D03*
X9371Y12565D02*
D03*
X6941Y12485D02*
D03*
X5801Y4355D02*
D03*
X9121D02*
D03*
X5751Y4046D02*
D03*
X8851Y4055D02*
D03*
X2971Y6305D02*
D03*
X6481Y2975D02*
D03*
X4931Y4515D02*
D03*
X15481Y8315D02*
D03*
X18611Y7875D02*
D03*
X21501Y12755D02*
D03*
X19281Y11845D02*
D03*
X25251Y8655D02*
D03*
X27146Y9030D02*
D03*
X26711Y13165D02*
D03*
X19101Y4605D02*
D03*
X22831Y5635D02*
D03*
X28031Y16755D02*
D03*
X28675Y18581D02*
D03*
X29001Y18535D02*
D03*
X28921Y18035D02*
D03*
X27941Y19785D02*
D03*
X25381Y14295D02*
D03*
X26761Y14235D02*
D03*
X26471Y16265D02*
D03*
X28511Y16635D02*
D03*
X15981Y5185D02*
D03*
X4841Y12525D02*
D03*
X28977Y25311D02*
D03*
X26339Y5784D02*
D03*
X22131Y3575D02*
D03*
X22761Y3815D02*
D03*
X23261Y3575D02*
D03*
X23623Y4485D02*
D03*
X35473Y2752D02*
D03*
X17323Y1532D02*
D03*
X4725Y8382D02*
D03*
X27701Y8525D02*
D03*
X28041Y8305D02*
D03*
X27283Y8661D02*
D03*
X28976Y17638D02*
D03*
D46*
X9131Y2965D02*
D03*
X21231Y1545D02*
D03*
D47*
X14131Y2965D02*
D03*
X19261Y15715D02*
D03*
X20261D02*
D03*
X21261D02*
D03*
X22261D02*
D03*
D48*
X21660Y6761D02*
D03*
X17360Y6761D02*
D03*
X13051Y6755D02*
D03*
X8680Y6751D02*
D03*
X13425Y6378D02*
D03*
X12677D02*
D03*
Y7205D02*
D03*
X13465D02*
D03*
X21260Y6299D02*
D03*
X21220Y7165D02*
D03*
X22126D02*
D03*
Y6378D02*
D03*
X8268Y7205D02*
D03*
X9094D02*
D03*
X8268Y6339D02*
D03*
X9094D02*
D03*
X16929Y7205D02*
D03*
X16968Y6339D02*
D03*
X17756Y7165D02*
D03*
Y6339D02*
D03*
X4724Y7165D02*
D03*
Y6339D02*
D03*
D49*
X15894Y17531D02*
D03*
X16394D02*
D03*
X16894Y18032D02*
D03*
X17394D02*
D03*
D50*
X30984Y10709D02*
D03*
D66*
X25276Y7831D02*
X29397D01*
M02*
