%FSLAX24Y24*%
%MOIN*%
G70*
G01*
G75*
G04 Layer_Physical_Order=1*
G04 Layer_Color=255*
%ADD10R,0.0250X0.0200*%
%ADD11R,0.0362X0.0984*%
%ADD12R,0.0276X0.0394*%
%ADD13R,0.0689X0.1181*%
%ADD14R,0.0984X0.0866*%
%ADD15R,0.0200X0.0250*%
%ADD16R,0.0276X0.0394*%
%ADD17R,0.0315X0.0315*%
%ADD18R,0.0669X0.0492*%
%ADD19R,0.0300X0.0300*%
%ADD20R,0.0906X0.0906*%
%ADD21R,0.0600X0.0600*%
%ADD22R,0.0472X0.0354*%
%ADD23R,0.0472X0.0354*%
%ADD24R,0.0315X0.0315*%
%ADD25R,0.0236X0.0472*%
%ADD26O,0.0315X0.0098*%
%ADD27O,0.0098X0.0315*%
%ADD28O,0.0276X0.0098*%
%ADD29O,0.0098X0.0276*%
%ADD30R,0.1299X0.1299*%
%ADD31R,0.0750X0.0400*%
%ADD32R,0.1358X0.1358*%
%ADD33O,0.0984X0.0276*%
%ADD34C,0.0120*%
%ADD35C,0.0100*%
%ADD36C,0.0080*%
%ADD37C,0.0150*%
%ADD38C,0.0300*%
%ADD39C,0.0200*%
%ADD40C,0.0276*%
%ADD41C,0.0600*%
%ADD42C,0.0220*%
%ADD43C,0.0350*%
%ADD44C,0.0700*%
%ADD45C,0.1100*%
%ADD46R,0.0591X0.0591*%
%ADD47C,0.0591*%
%ADD48C,0.0320*%
%ADD49C,0.0354*%
%ADD50R,0.0591X0.0591*%
%ADD51R,0.0600X0.0600*%
%ADD52C,0.0710*%
%ADD53C,0.0900*%
G36*
X35315Y2862D02*
X35313Y2858D01*
Y3403D01*
X35315Y3404D01*
Y2862D01*
D02*
G37*
G36*
X37863Y2171D02*
X37743D01*
X37678Y2144D01*
X37429D01*
Y2268D01*
X37863D01*
Y2171D01*
D02*
G37*
G36*
X34547Y2827D02*
X34911D01*
X34845Y2762D01*
X34789Y2625D01*
Y2558D01*
X34752D01*
X34646Y2602D01*
X34502Y2542D01*
X34443Y2398D01*
X34502Y2254D01*
X34529Y2243D01*
X34543Y2229D01*
X34679Y2173D01*
X34803D01*
Y2162D01*
Y2131D01*
X34510D01*
X34391Y2249D01*
Y2962D01*
X34441Y2942D01*
X34524Y2976D01*
X34547D01*
Y2827D01*
D02*
G37*
G36*
X35082Y3468D02*
X35111Y3456D01*
X34929D01*
X34957Y3468D01*
X35020Y3618D01*
X35082Y3468D01*
D02*
G37*
G36*
X34547Y3851D02*
X34568D01*
X34490Y3661D01*
X34570Y3468D01*
X34599Y3456D01*
X34547D01*
Y3307D01*
X34542D01*
X34441Y3349D01*
X34391Y3328D01*
Y3965D01*
X34547D01*
Y3851D01*
D02*
G37*
G36*
X38701Y5827D02*
X38819Y5709D01*
Y5504D01*
X38386D01*
Y4167D01*
X38533D01*
Y3855D01*
X38606Y3680D01*
X38780Y3608D01*
X38819Y3624D01*
Y1260D01*
X38780D01*
X38619Y1100D01*
Y1543D01*
X38304D01*
Y1771D01*
X38247Y1907D01*
X38040Y2114D01*
X37985Y2137D01*
X38619D01*
Y2893D01*
X37885D01*
Y3067D01*
X37813Y3242D01*
X37638Y3314D01*
X37464Y3242D01*
X37392Y3067D01*
Y2893D01*
X36673D01*
Y2144D01*
X36397D01*
X36029Y2512D01*
X35892Y2568D01*
X35679D01*
Y2578D01*
X35629D01*
Y2638D01*
X35676Y2752D01*
X35645Y2827D01*
X35707D01*
Y3456D01*
X35440D01*
X35469Y3468D01*
X35549Y3661D01*
X35471Y3851D01*
X35687D01*
Y4480D01*
X35657D01*
Y4835D01*
X35608Y4952D01*
X35168Y5392D01*
X35489D01*
Y5571D01*
X35729Y5811D01*
X35729Y5811D01*
X35740Y5839D01*
X35769Y5909D01*
X35769Y5909D01*
Y6260D01*
X38268D01*
X38701Y5827D01*
D02*
G37*
G36*
X34673Y1302D02*
Y1141D01*
X34659Y1105D01*
X34673Y1070D01*
Y902D01*
X35029D01*
Y913D01*
X35093D01*
Y902D01*
X35139D01*
Y765D01*
X35195Y629D01*
X35234Y591D01*
X34593D01*
X34535Y729D01*
X34391Y789D01*
Y920D01*
X34449Y895D01*
X34593Y955D01*
X34653Y1099D01*
X34642Y1125D01*
Y1313D01*
X34673D01*
Y1302D01*
D02*
G37*
G36*
X34441Y1799D02*
X34803D01*
Y1762D01*
X34927D01*
X34981Y1740D01*
X35036Y1762D01*
X35116D01*
X35096Y1714D01*
Y1708D01*
X35093D01*
Y1524D01*
X35086Y1505D01*
X35093Y1487D01*
Y1302D01*
Y1298D01*
X35029D01*
Y1302D01*
Y1470D01*
X35044Y1505D01*
X35029Y1541D01*
Y1708D01*
X34673D01*
Y1698D01*
X34502D01*
X34391Y1652D01*
Y1820D01*
X34441Y1799D01*
D02*
G37*
G36*
X35329Y2609D02*
X35374Y2590D01*
Y2578D01*
X35323D01*
Y2411D01*
X35309Y2375D01*
X35323Y2340D01*
Y2172D01*
Y2010D01*
X35159Y1846D01*
Y2162D01*
Y2330D01*
X35174Y2365D01*
Y2545D01*
X35247Y2619D01*
X35286Y2712D01*
X35329Y2609D01*
D02*
G37*
G36*
X36153Y1842D02*
X36290Y1785D01*
X36355Y1812D01*
X37341D01*
X37335Y1798D01*
X37080Y1543D01*
X36673D01*
Y787D01*
X37429D01*
Y1194D01*
X37695Y1460D01*
X37767Y1634D01*
Y1650D01*
X37704Y1802D01*
X37743Y1785D01*
X37824D01*
X37918Y1691D01*
Y1543D01*
X37863D01*
Y787D01*
X38307D01*
X38071Y551D01*
X38031Y591D01*
X35910D01*
X35925Y625D01*
X35865Y769D01*
X35721Y829D01*
X35695Y818D01*
X35551D01*
X35524Y845D01*
Y1045D01*
X35473Y1168D01*
X35493Y1160D01*
X35698D01*
X35741Y1142D01*
X35885Y1201D01*
X35945Y1345D01*
X35885Y1489D01*
X35741Y1549D01*
X35602Y1491D01*
X35570D01*
X35449Y1611D01*
Y1668D01*
X35521Y1740D01*
X35682D01*
X35821Y1682D01*
X35965Y1741D01*
X36025Y1885D01*
X35965Y2029D01*
X35821Y2089D01*
X35778Y2071D01*
X35679D01*
Y2172D01*
Y2183D01*
X35813D01*
X36153Y1842D01*
D02*
G37*
G36*
X34553Y5792D02*
Y5392D01*
X34700D01*
X35326Y4767D01*
Y4480D01*
X35310D01*
Y4519D01*
X35253Y4656D01*
X35114Y4795D01*
Y4903D01*
X34947D01*
X34911Y4918D01*
X34876Y4903D01*
X34391D01*
Y5830D01*
X34553D01*
Y5792D01*
D02*
G37*
G36*
X34885Y4480D02*
X34572D01*
X34574Y4485D01*
X34567Y4501D01*
X34602Y4535D01*
X34607Y4547D01*
X34817D01*
X34885Y4480D01*
D02*
G37*
G36*
X35492Y5966D02*
X35489Y5963D01*
Y6198D01*
X35133D01*
Y6161D01*
X34909D01*
Y6198D01*
X34553D01*
Y6161D01*
X34391D01*
Y6202D01*
X34449Y6260D01*
X35492D01*
Y5966D01*
D02*
G37*
G36*
X35133Y5792D02*
Y5427D01*
X34909Y5651D01*
Y5792D01*
Y5830D01*
X35133D01*
Y5792D01*
D02*
G37*
G36*
X35020Y3705D02*
X34959Y3851D01*
X35080D01*
X35020Y3705D01*
D02*
G37*
G36*
X34547Y4350D02*
X34518D01*
X34547Y4419D01*
Y4350D01*
D02*
G37*
%LPC*%
G36*
X37795Y6118D02*
X37506Y5998D01*
X37441Y5841D01*
X37376Y5998D01*
X37087Y6118D01*
X36797Y5998D01*
X36677Y5709D01*
X36797Y5419D01*
X36954Y5354D01*
X36797Y5289D01*
X36677Y5000D01*
X36797Y4711D01*
X37002Y4626D01*
X36797Y4541D01*
X36677Y4252D01*
X36797Y3963D01*
X37087Y3843D01*
X37376Y3963D01*
X37433Y4100D01*
X37506Y3923D01*
X37795Y3803D01*
X38085Y3923D01*
X38204Y4213D01*
X38085Y4502D01*
X37833Y4606D01*
X38085Y4711D01*
X38204Y5000D01*
X38085Y5289D01*
X37928Y5354D01*
X38085Y5419D01*
X38204Y5709D01*
X38085Y5998D01*
X37795Y6118D01*
D02*
G37*
G36*
X36260Y1066D02*
X36117Y1007D01*
X36057Y863D01*
X36117Y719D01*
X36260Y659D01*
X36404Y719D01*
X36464Y863D01*
X36404Y1007D01*
X36260Y1066D01*
D02*
G37*
G36*
X36182Y6228D02*
X36007Y6155D01*
X35977Y6125D01*
X35904Y5950D01*
Y5514D01*
X35729D01*
Y4177D01*
X36574D01*
Y5514D01*
X36398D01*
Y5907D01*
X36429Y5981D01*
X36356Y6155D01*
X36182Y6228D01*
D02*
G37*
%LPD*%
G36*
X37506Y4711D02*
X37758Y4606D01*
X37506Y4502D01*
X37449Y4365D01*
X37376Y4541D01*
X37171Y4626D01*
X37376Y4711D01*
X37441Y4868D01*
X37506Y4711D01*
D02*
G37*
G36*
Y5419D02*
X37663Y5354D01*
X37506Y5289D01*
X37441Y5132D01*
X37376Y5289D01*
X37219Y5354D01*
X37376Y5419D01*
X37441Y5576D01*
X37506Y5419D01*
D02*
G37*
D10*
X23510Y16535D02*
D03*
X23110D02*
D03*
X25276Y17441D02*
D03*
X25676D02*
D03*
X25354Y20276D02*
D03*
X25754D02*
D03*
X25309Y19488D02*
D03*
X25709D02*
D03*
X25236Y16496D02*
D03*
X25636D02*
D03*
X23110Y16968D02*
D03*
X23510D02*
D03*
X15041Y6755D02*
D03*
X15441Y6755D02*
D03*
X15041Y6365D02*
D03*
X15441D02*
D03*
X34511Y4725D02*
D03*
X34911D02*
D03*
X2081Y7625D02*
D03*
X2481D02*
D03*
X2061Y6255D02*
D03*
X2461D02*
D03*
X2081Y6735D02*
D03*
X2481D02*
D03*
X2071Y7185D02*
D03*
X2471Y7185D02*
D03*
X33571Y1785D02*
D03*
X33971D02*
D03*
X1961Y13125D02*
D03*
X2361D02*
D03*
X3331Y13135D02*
D03*
X2931D02*
D03*
X7771Y13075D02*
D03*
X7371D02*
D03*
X6441D02*
D03*
X6841D02*
D03*
X6631Y7185D02*
D03*
X7031Y7185D02*
D03*
X6621Y6285D02*
D03*
X7021Y6285D02*
D03*
X6631Y7625D02*
D03*
X7031Y7625D02*
D03*
X6631Y6735D02*
D03*
X7031D02*
D03*
X10661Y13075D02*
D03*
X11061D02*
D03*
X11681Y13085D02*
D03*
X12081D02*
D03*
X10911Y6405D02*
D03*
X11311D02*
D03*
X10901Y6815D02*
D03*
X11301D02*
D03*
X10901Y7625D02*
D03*
X11301D02*
D03*
X10901Y7215D02*
D03*
X11301D02*
D03*
X15051Y13075D02*
D03*
X15451D02*
D03*
X16591Y13085D02*
D03*
X16191D02*
D03*
X19401Y7575D02*
D03*
X19801D02*
D03*
X19411Y6665D02*
D03*
X19811Y6665D02*
D03*
X19401Y7115D02*
D03*
X19801D02*
D03*
X20151Y13055D02*
D03*
X19751D02*
D03*
X18821D02*
D03*
X19221D02*
D03*
X25709Y19100D02*
D03*
X25309D02*
D03*
X25748Y19843D02*
D03*
X25348D02*
D03*
X25669Y17756D02*
D03*
X25269D02*
D03*
X25669Y17126D02*
D03*
X25269D02*
D03*
X25711Y18575D02*
D03*
X25311D02*
D03*
X24161Y17705D02*
D03*
X24561D02*
D03*
X24191Y18215D02*
D03*
X24591D02*
D03*
X29571Y4775D02*
D03*
X29971D02*
D03*
X15031Y7595D02*
D03*
X15431D02*
D03*
X27401Y13905D02*
D03*
X27001D02*
D03*
X27341Y14555D02*
D03*
X26941D02*
D03*
X15041Y7165D02*
D03*
X15441D02*
D03*
X16561Y5385D02*
D03*
X16961D02*
D03*
X15441Y5925D02*
D03*
X15041D02*
D03*
X19401Y4835D02*
D03*
X19801D02*
D03*
X19801Y5275D02*
D03*
X19401D02*
D03*
X19401Y5725D02*
D03*
X19801D02*
D03*
X19401Y6185D02*
D03*
X19801D02*
D03*
X20301Y5435D02*
D03*
X20701Y5435D02*
D03*
X20711Y5005D02*
D03*
X20311D02*
D03*
X26931Y4895D02*
D03*
X27331D02*
D03*
D11*
X38858Y14724D02*
D03*
X38268Y14724D02*
D03*
X37677D02*
D03*
X37087D02*
D03*
X36496Y14724D02*
D03*
X35906D02*
D03*
X35315D02*
D03*
X34724D02*
D03*
X34134D02*
D03*
Y7520D02*
D03*
X34724D02*
D03*
X35315D02*
D03*
X35906D02*
D03*
X36496D02*
D03*
X37087D02*
D03*
X37677D02*
D03*
X38268D02*
D03*
X38858D02*
D03*
D12*
X11929Y1063D02*
D03*
X12303D02*
D03*
X12677D02*
D03*
X11929Y2008D02*
D03*
X12677D02*
D03*
D13*
X38809Y4835D02*
D03*
X36151Y4845D02*
D03*
D14*
X18150Y1532D02*
D03*
X20001D02*
D03*
D15*
X28386Y20115D02*
D03*
Y20515D02*
D03*
X34131Y4165D02*
D03*
Y3765D02*
D03*
X18341Y22255D02*
D03*
Y21855D02*
D03*
X18331Y23245D02*
D03*
Y22845D02*
D03*
X18341Y20915D02*
D03*
Y21315D02*
D03*
X18371Y24175D02*
D03*
Y24575D02*
D03*
X6461Y10085D02*
D03*
Y9685D02*
D03*
X5411Y9135D02*
D03*
Y8735D02*
D03*
X4911Y8745D02*
D03*
Y9145D02*
D03*
X3411Y8735D02*
D03*
Y9135D02*
D03*
X35311Y5595D02*
D03*
Y5995D02*
D03*
X34091Y5595D02*
D03*
Y5995D02*
D03*
X9011Y8735D02*
D03*
Y9135D02*
D03*
X10031D02*
D03*
Y8735D02*
D03*
X4411Y8737D02*
D03*
Y9137D02*
D03*
X9521Y8735D02*
D03*
Y9135D02*
D03*
X8491D02*
D03*
Y8735D02*
D03*
X8581Y12635D02*
D03*
Y13035D02*
D03*
X8551Y13605D02*
D03*
Y14005D02*
D03*
X7981Y8735D02*
D03*
Y9135D02*
D03*
X13351Y9125D02*
D03*
Y8725D02*
D03*
X13801Y8735D02*
D03*
Y9135D02*
D03*
X14311D02*
D03*
Y8735D02*
D03*
X12891Y12615D02*
D03*
Y13015D02*
D03*
X12871Y9135D02*
D03*
Y8735D02*
D03*
X10941Y9665D02*
D03*
Y10065D02*
D03*
X18271Y8735D02*
D03*
Y9135D02*
D03*
X17791Y8735D02*
D03*
Y9135D02*
D03*
X18771Y9145D02*
D03*
Y8745D02*
D03*
X16791Y8735D02*
D03*
Y9135D02*
D03*
X17661Y13635D02*
D03*
Y14035D02*
D03*
X17291Y8735D02*
D03*
Y9135D02*
D03*
X17221Y12635D02*
D03*
Y13035D02*
D03*
X15361Y9665D02*
D03*
Y10065D02*
D03*
X22471Y9125D02*
D03*
Y8725D02*
D03*
X21171Y12905D02*
D03*
Y12505D02*
D03*
X22031Y8725D02*
D03*
X22031Y9125D02*
D03*
X21181Y13575D02*
D03*
Y13975D02*
D03*
X21611Y8725D02*
D03*
Y9125D02*
D03*
X20176Y8715D02*
D03*
Y9115D02*
D03*
X20669Y8694D02*
D03*
X20669Y9094D02*
D03*
X19621Y9685D02*
D03*
Y10085D02*
D03*
X27560Y21374D02*
D03*
Y20974D02*
D03*
X27953D02*
D03*
Y21374D02*
D03*
X28386Y20974D02*
D03*
Y21374D02*
D03*
X3921Y12695D02*
D03*
Y13095D02*
D03*
X4011Y14045D02*
D03*
Y13645D02*
D03*
X1721Y9685D02*
D03*
Y10085D02*
D03*
X33641Y5995D02*
D03*
Y5595D02*
D03*
X3911Y8737D02*
D03*
Y9137D02*
D03*
X12381Y8735D02*
D03*
Y9135D02*
D03*
X12891Y13575D02*
D03*
Y13975D02*
D03*
X34731Y5595D02*
D03*
Y5995D02*
D03*
X34981Y1965D02*
D03*
Y2365D02*
D03*
X35501Y1975D02*
D03*
Y2375D02*
D03*
X35271Y1505D02*
D03*
Y1105D02*
D03*
X34851D02*
D03*
Y1505D02*
D03*
X27671Y16565D02*
D03*
Y16965D02*
D03*
D16*
X13957Y1075D02*
D03*
D03*
X14331D02*
D03*
X14705Y1075D02*
D03*
X13957Y2020D02*
D03*
X14331D02*
D03*
X14705D02*
D03*
X31117Y1070D02*
D03*
D03*
X31491D02*
D03*
X31865D02*
D03*
X31117Y2015D02*
D03*
X31491D02*
D03*
X31865D02*
D03*
X29127Y1055D02*
D03*
D03*
X29501D02*
D03*
X29875D02*
D03*
X29127Y2000D02*
D03*
X29501D02*
D03*
X29875D02*
D03*
X27137Y1060D02*
D03*
D03*
X27511D02*
D03*
X27885D02*
D03*
X27137Y2005D02*
D03*
X27511D02*
D03*
X27885D02*
D03*
X25133Y1065D02*
D03*
D03*
X25507D02*
D03*
X25881D02*
D03*
X25133Y2010D02*
D03*
X25507D02*
D03*
X25881D02*
D03*
X23137Y1060D02*
D03*
D03*
X23511D02*
D03*
X23885D02*
D03*
X23137Y2005D02*
D03*
X23511D02*
D03*
X23885D02*
D03*
D17*
X31361Y5116D02*
D03*
Y4525D02*
D03*
D18*
X11701Y11315D02*
D03*
Y9965D02*
D03*
X20401Y11325D02*
D03*
Y9975D02*
D03*
X5161Y9975D02*
D03*
Y11325D02*
D03*
X9701Y9965D02*
D03*
Y11315D02*
D03*
X7251Y11335D02*
D03*
Y9985D02*
D03*
X14081Y9975D02*
D03*
Y11325D02*
D03*
X18541D02*
D03*
Y9975D02*
D03*
X2711Y11325D02*
D03*
Y9975D02*
D03*
X16121Y11305D02*
D03*
Y9955D02*
D03*
X22331Y11235D02*
D03*
Y9885D02*
D03*
D19*
X1971Y13625D02*
D03*
Y14175D02*
D03*
X20051Y13585D02*
D03*
Y14135D02*
D03*
X15081Y11985D02*
D03*
Y12535D02*
D03*
X2541Y13625D02*
D03*
Y14175D02*
D03*
X3041Y13625D02*
D03*
Y14175D02*
D03*
X7511Y13615D02*
D03*
Y14165D02*
D03*
X6981Y13615D02*
D03*
Y14165D02*
D03*
X6441Y13615D02*
D03*
Y14165D02*
D03*
X9061Y13635D02*
D03*
Y14185D02*
D03*
X8061Y13615D02*
D03*
Y14165D02*
D03*
X10711Y13585D02*
D03*
Y14135D02*
D03*
X11851Y13575D02*
D03*
Y14125D02*
D03*
X11271Y13585D02*
D03*
Y14135D02*
D03*
X6461Y12055D02*
D03*
Y12605D02*
D03*
X10681Y12575D02*
D03*
Y12025D02*
D03*
X13411Y13595D02*
D03*
Y14145D02*
D03*
X12420Y13585D02*
D03*
Y14135D02*
D03*
X16221Y13585D02*
D03*
Y14135D02*
D03*
X15641Y13585D02*
D03*
Y14135D02*
D03*
X15071Y13585D02*
D03*
Y14135D02*
D03*
X18121Y13605D02*
D03*
Y14155D02*
D03*
X16781Y14135D02*
D03*
Y13585D02*
D03*
X21761D02*
D03*
Y14135D02*
D03*
X19431Y13605D02*
D03*
Y14155D02*
D03*
X18771Y13605D02*
D03*
Y14155D02*
D03*
X20641Y13585D02*
D03*
Y14135D02*
D03*
X4591Y14175D02*
D03*
Y13625D02*
D03*
X1981Y12065D02*
D03*
Y12615D02*
D03*
X3551Y13625D02*
D03*
Y14175D02*
D03*
X18851Y12065D02*
D03*
Y12615D02*
D03*
D20*
X27350Y18638D02*
D03*
D21*
X38241Y1165D02*
D03*
Y2515D02*
D03*
X37051Y1165D02*
D03*
Y2515D02*
D03*
D22*
X33231Y4305D02*
D03*
D23*
Y3105D02*
D03*
D24*
X23623Y18186D02*
D03*
X23032D02*
D03*
X33391Y1235D02*
D03*
X33982D02*
D03*
X23623Y17516D02*
D03*
X23032D02*
D03*
X25821Y13875D02*
D03*
X26412D02*
D03*
X25811Y14575D02*
D03*
X26402D02*
D03*
D25*
X35491Y4165D02*
D03*
X35117D02*
D03*
X34743D02*
D03*
X35511Y3142D02*
D03*
X35117D02*
D03*
X34743D02*
D03*
D26*
X28137Y19130D02*
D03*
Y18933D02*
D03*
Y18736D02*
D03*
Y18539D02*
D03*
Y18343D02*
D03*
Y18146D02*
D03*
X26562D02*
D03*
Y18343D02*
D03*
Y18539D02*
D03*
Y18736D02*
D03*
Y19130D02*
D03*
Y18933D02*
D03*
D27*
X27842Y17850D02*
D03*
X27645D02*
D03*
X27251D02*
D03*
X27054D02*
D03*
X26858D02*
D03*
Y19425D02*
D03*
X27054D02*
D03*
X27251D02*
D03*
X27448D02*
D03*
X27638Y19485D02*
D03*
X27842Y19425D02*
D03*
X27448Y17850D02*
D03*
D28*
X5286Y6096D02*
D03*
Y6490D02*
D03*
Y6687D02*
D03*
Y6884D02*
D03*
Y7081D02*
D03*
Y7277D02*
D03*
Y7474D02*
D03*
X3357D02*
D03*
Y7277D02*
D03*
Y7081D02*
D03*
Y6884D02*
D03*
Y6687D02*
D03*
Y6490D02*
D03*
Y6293D02*
D03*
Y6096D02*
D03*
X14016Y6066D02*
D03*
Y6263D02*
D03*
Y6460D02*
D03*
Y6657D02*
D03*
Y6854D02*
D03*
Y7051D02*
D03*
Y7247D02*
D03*
Y7444D02*
D03*
X12087D02*
D03*
Y7247D02*
D03*
Y7051D02*
D03*
Y6854D02*
D03*
Y6657D02*
D03*
Y6460D02*
D03*
Y6263D02*
D03*
Y6066D02*
D03*
X18324Y6072D02*
D03*
Y6269D02*
D03*
Y6465D02*
D03*
Y6662D02*
D03*
Y6859D02*
D03*
Y7056D02*
D03*
Y7253D02*
D03*
Y7450D02*
D03*
X16395D02*
D03*
Y7253D02*
D03*
Y7056D02*
D03*
Y6859D02*
D03*
Y6662D02*
D03*
Y6465D02*
D03*
Y6269D02*
D03*
Y6072D02*
D03*
X5286Y6293D02*
D03*
X9644Y6062D02*
D03*
Y6259D02*
D03*
Y6455D02*
D03*
Y6652D02*
D03*
Y6849D02*
D03*
Y7046D02*
D03*
Y7243D02*
D03*
Y7440D02*
D03*
X7715D02*
D03*
Y7243D02*
D03*
Y7046D02*
D03*
Y6849D02*
D03*
Y6652D02*
D03*
Y6455D02*
D03*
Y6259D02*
D03*
Y6062D02*
D03*
X22625Y6072D02*
D03*
Y6269D02*
D03*
Y6465D02*
D03*
Y6662D02*
D03*
Y6859D02*
D03*
Y7056D02*
D03*
Y7253D02*
D03*
Y7450D02*
D03*
X20696D02*
D03*
Y7253D02*
D03*
Y7056D02*
D03*
Y6859D02*
D03*
Y6662D02*
D03*
Y6465D02*
D03*
Y6269D02*
D03*
Y6072D02*
D03*
D29*
X5010Y7750D02*
D03*
X4813D02*
D03*
X4617D02*
D03*
X4420D02*
D03*
X4223D02*
D03*
X4026D02*
D03*
X3829D02*
D03*
X3632D02*
D03*
Y5821D02*
D03*
X3829D02*
D03*
X4026D02*
D03*
X4223D02*
D03*
X4420D02*
D03*
X4617D02*
D03*
X4813D02*
D03*
X5010D02*
D03*
X13740Y7720D02*
D03*
X13543D02*
D03*
X13347D02*
D03*
X13150D02*
D03*
X12953D02*
D03*
X12756D02*
D03*
X12559D02*
D03*
X12362D02*
D03*
Y5791D02*
D03*
X12559D02*
D03*
X12756D02*
D03*
X12953D02*
D03*
X13150D02*
D03*
X13347D02*
D03*
X13543D02*
D03*
X13740D02*
D03*
X18049Y7725D02*
D03*
X17852D02*
D03*
X17655D02*
D03*
X17458D02*
D03*
X17261D02*
D03*
X17064D02*
D03*
X16868D02*
D03*
X16671D02*
D03*
Y5796D02*
D03*
X16868D02*
D03*
X17064D02*
D03*
X17261D02*
D03*
X17458D02*
D03*
X17655D02*
D03*
X17852D02*
D03*
X18049D02*
D03*
X9369Y7715D02*
D03*
X9172D02*
D03*
X8975D02*
D03*
X8778D02*
D03*
X8581D02*
D03*
X8384D02*
D03*
X7991D02*
D03*
Y5786D02*
D03*
X8188D02*
D03*
X8384D02*
D03*
X8581D02*
D03*
X8778D02*
D03*
X8975D02*
D03*
X9172D02*
D03*
X9369D02*
D03*
X22349Y7725D02*
D03*
X22152D02*
D03*
X21956D02*
D03*
X21759D02*
D03*
X21562D02*
D03*
X21168D02*
D03*
X20971D02*
D03*
Y5796D02*
D03*
X21168D02*
D03*
X21365D02*
D03*
X21562D02*
D03*
X21759D02*
D03*
X21956D02*
D03*
X22152D02*
D03*
X22349D02*
D03*
X8188Y7715D02*
D03*
X21365Y7725D02*
D03*
D30*
X4321Y6785D02*
D03*
X13051Y6755D02*
D03*
X17360Y6761D02*
D03*
D31*
X20299Y21074D02*
D03*
Y21874D02*
D03*
Y22674D02*
D03*
Y23874D02*
D03*
Y24674D02*
D03*
Y25474D02*
D03*
X25749D02*
D03*
Y24674D02*
D03*
Y23874D02*
D03*
Y22674D02*
D03*
Y21874D02*
D03*
Y21074D02*
D03*
D32*
X8680Y6751D02*
D03*
X21660Y6761D02*
D03*
D33*
X25947Y10445D02*
D03*
Y9945D02*
D03*
Y9445D02*
D03*
Y8945D02*
D03*
X27876Y10445D02*
D03*
Y9945D02*
D03*
Y9445D02*
D03*
Y8945D02*
D03*
D34*
X32677Y9370D02*
Y9882D01*
X32480Y9173D02*
X32677Y9370D01*
X9671Y1470D02*
Y3495D01*
X9646Y1457D02*
X9685D01*
X9671Y1470D02*
X9685Y1457D01*
X14405Y6262D02*
X14431Y6235D01*
X14016Y6262D02*
X14405D01*
X12677Y6339D02*
Y6378D01*
X12638Y6299D02*
X12677Y6339D01*
X12595Y6299D02*
X12638D01*
X12602Y7205D02*
X12677D01*
X12559Y7247D02*
X12602Y7205D01*
X12559Y6263D02*
X12595Y6299D01*
X3829Y7277D02*
X3937Y7170D01*
Y7165D02*
Y7170D01*
X4617Y6490D02*
X4768Y6339D01*
X4724D02*
X4768D01*
X1981Y12615D02*
X2151Y12445D01*
X2431D01*
X1971Y14175D02*
X2001Y14205D01*
Y14605D01*
X6411Y6805D02*
X6631D01*
X14551Y9669D02*
X14661Y9779D01*
X14441Y11325D02*
X14661Y11105D01*
Y9779D02*
Y11105D01*
X14551Y9135D02*
Y9669D01*
X25811Y15265D02*
X26261Y15715D01*
X25811Y14575D02*
Y15265D01*
Y14575D02*
X25821Y14565D01*
Y13875D02*
Y14565D01*
X18771Y14155D02*
X19051D01*
Y14165D01*
X14351Y7995D02*
X14551Y8195D01*
X14076Y7720D02*
X14351Y7995D01*
X15871Y8605D02*
Y8775D01*
Y9335D02*
X16071D01*
X15491D02*
X15871D01*
Y8775D02*
Y9335D01*
X16071Y8835D02*
X16111Y8795D01*
X10021Y3845D02*
Y6255D01*
X9671Y3495D02*
X10021Y3845D01*
X18324Y6269D02*
X18748D01*
X18751Y6265D01*
X9648Y6255D02*
X10021D01*
X6101Y5845D02*
Y6025D01*
X5833Y6293D02*
X6101Y6025D01*
X13347Y6460D02*
X14016D01*
X13051Y6755D02*
X13347Y6460D01*
X12559Y5791D02*
Y6263D01*
X12362Y5791D02*
X12559D01*
X12087Y6460D02*
X12756D01*
X13051Y6755D01*
X12953Y6854D02*
X13051Y6755D01*
X12087Y6854D02*
X12953D01*
X12087Y7247D02*
X12559D01*
X10901Y7625D02*
Y7875D01*
Y6415D02*
X10911Y6405D01*
X10901Y6415D02*
Y6815D01*
Y7215D01*
Y7625D01*
X6631Y6735D02*
Y6805D01*
X14081Y12095D02*
X14221Y12235D01*
X14081Y11325D02*
Y12095D01*
X24151Y2805D02*
Y2945D01*
X3721Y6185D02*
X3849Y6313D01*
X3721Y5915D02*
Y6185D01*
Y5915D02*
X3811Y5825D01*
X3652Y5821D02*
X3811Y5825D01*
X20641Y14135D02*
X20811Y14305D01*
X22131Y14125D02*
X22171D01*
X22121Y14135D02*
X22131Y14125D01*
X21761Y14135D02*
X22121D01*
X14081Y11325D02*
X14441D01*
X13751Y14145D02*
X13761Y14155D01*
X13411Y14145D02*
X13751D01*
X18121Y14155D02*
X18771D01*
X14731Y12535D02*
X15081D01*
Y14125D02*
X15641D01*
X14681Y14135D02*
X15071D01*
X16071Y9905D02*
X16121Y9955D01*
X16071Y9335D02*
Y9905D01*
X14551Y8195D02*
Y9135D01*
X15361Y9465D02*
Y9665D01*
Y9465D02*
X15491Y9335D01*
X14311Y9135D02*
X14551D01*
X13740Y7720D02*
X14076D01*
X11061Y13075D02*
X11681D01*
X10711Y13585D02*
X11061Y13235D01*
Y13075D02*
Y13235D01*
X10711Y14135D02*
X11271D01*
X10351Y12035D02*
X10361Y12025D01*
X10681D01*
X10431Y14125D02*
X10441Y14135D01*
X10711D01*
X7421Y5325D02*
X7431Y5335D01*
X8581Y6849D02*
X8680Y6751D01*
X6311Y7075D02*
X6331Y7055D01*
Y6885D02*
Y7055D01*
Y6885D02*
X6411Y6805D01*
X6631Y6805D02*
X6631Y6805D01*
X6631Y6805D02*
Y7175D01*
X6631Y7175D01*
Y7575D01*
X2361Y13125D02*
X2371Y13135D01*
X2931D01*
X3551Y13625D02*
X3921D01*
Y13228D02*
Y13493D01*
X4551Y13625D02*
X4911D01*
X4931Y13645D01*
X6031Y14165D02*
Y14175D01*
X6061Y12695D02*
X6151Y12605D01*
X6461D01*
X6441Y14165D02*
X6981D01*
X6031D02*
X6441D01*
X9051Y14205D02*
X9371D01*
X9381Y14215D01*
X2071Y6845D02*
Y7185D01*
X1801Y6845D02*
X2071D01*
Y7185D02*
Y7615D01*
X3357Y7277D02*
X3829D01*
X3357Y6490D02*
X3672D01*
X3357Y6884D02*
X4223D01*
X4321Y6785D01*
X3672Y6490D02*
X3849Y6313D01*
X27645Y19327D02*
Y19579D01*
X16541Y5385D02*
X16561D01*
X20811Y14305D02*
X21391D01*
X21561Y14135D01*
X21761D01*
X10381Y8965D02*
Y10535D01*
Y8965D02*
X10431Y8915D01*
Y8445D02*
Y8915D01*
X3921Y13095D02*
Y13228D01*
Y13493D02*
Y13625D01*
X1971Y14175D02*
X1978Y14182D01*
X2485D02*
X2491Y14175D01*
X1978Y14182D02*
X2485D01*
X2931Y13135D02*
Y13555D01*
X3001Y13625D01*
X6061Y12695D02*
Y14165D01*
X6441D01*
X32559Y10000D02*
Y11237D01*
Y10000D02*
X32677Y9882D01*
D35*
X32480Y8104D02*
Y9173D01*
X25712Y17781D02*
X26274Y18343D01*
X25712Y17756D02*
Y17781D01*
X25041Y19145D02*
X25264D01*
X25309Y19100D01*
X25080Y18073D02*
X25084Y18069D01*
X25073Y18073D02*
X25080D01*
X24951Y18195D02*
X25073Y18073D01*
X26197Y17593D02*
X26265D01*
X26181Y17577D02*
X26197Y17593D01*
X26181Y17008D02*
Y17577D01*
X26103Y16930D02*
X26181Y17008D01*
X26274Y18343D02*
X26562D01*
X24801Y18821D02*
Y19049D01*
Y18821D02*
X25039Y18583D01*
X25311D01*
X24677Y19173D02*
X24801Y19049D01*
X24992Y19488D02*
X25309D01*
X24677Y19173D02*
X24992Y19488D01*
X25041Y19843D02*
Y20077D01*
X24882Y19843D02*
X25041D01*
X24016Y19173D02*
X24677D01*
X25277Y17126D02*
X25416Y16987D01*
X25269Y17126D02*
X25277D01*
X25676Y16301D02*
X25741Y16235D01*
X25676Y16301D02*
Y16496D01*
X25429Y16734D02*
Y16960D01*
X25276Y16581D02*
X25429Y16734D01*
X25276Y16575D02*
Y16581D01*
X21496Y17402D02*
X21535Y17362D01*
X22559D01*
X22953Y16968D01*
X23110D01*
X22638Y16811D02*
X22913Y16535D01*
X23110D01*
X25105Y21074D02*
X25354Y20824D01*
X25079Y21099D02*
X25105Y21074D01*
X25354Y20276D02*
Y20824D01*
X25709Y19145D02*
X26101D01*
X25701D02*
X25709D01*
Y19488D01*
Y19055D02*
Y19145D01*
X25041Y19843D02*
X25348D01*
X25269Y17126D02*
X25276Y17132D01*
Y17441D01*
X25676Y17756D02*
X25712D01*
X25676Y17441D02*
Y17750D01*
X25977Y16930D02*
X26103D01*
X26265Y17593D02*
X26523Y17850D01*
X25102Y17126D02*
X25269D01*
X25681Y18069D02*
X26151Y18539D01*
X25084Y18069D02*
X25681D01*
X26151Y18539D02*
X26562D01*
X16571Y12745D02*
X16591Y12725D01*
Y13085D01*
X30191Y12025D02*
X30437Y11779D01*
X30311Y6275D02*
X30437Y6401D01*
Y11779D01*
X29489Y5316D02*
Y7674D01*
X29240Y7923D02*
X29489Y7674D01*
X29213Y5394D02*
Y7593D01*
X29101Y5282D02*
X29213Y5394D01*
X29101Y4315D02*
Y5282D01*
X29279Y5106D02*
X29489Y5316D01*
X29279Y4567D02*
Y5106D01*
X2833Y7875D02*
X3507D01*
X2591Y8117D02*
X2833Y7875D01*
X1961Y8117D02*
X2591D01*
X24370Y20748D02*
Y20787D01*
Y20748D02*
X25041Y20077D01*
X27948Y17385D02*
X28142D01*
X15331Y21645D02*
X16661Y20315D01*
X4016Y1496D02*
Y1575D01*
X4162Y1721D01*
X4901D01*
X4742Y8366D02*
X4911Y8535D01*
X35906Y6929D02*
Y7520D01*
X35631Y6654D02*
X35906Y6929D01*
X35631Y5909D02*
Y6654D01*
X38858Y14724D02*
X38858Y14724D01*
X38268Y14724D02*
X38858D01*
X38268Y12756D02*
Y14724D01*
X37287Y11775D02*
X38268Y12756D01*
X33021Y11775D02*
X37287D01*
X34134Y13937D02*
Y14724D01*
X35315Y13976D02*
Y14724D01*
X35906D01*
X37087Y7520D02*
Y8268D01*
X37008Y8346D02*
X37087Y8268D01*
X36788Y8346D02*
X37008D01*
X21220Y7266D02*
Y7283D01*
X21188Y7233D02*
X21220Y7266D01*
X22126Y6295D02*
Y6378D01*
Y6295D02*
X22133Y6288D01*
X8188Y6259D02*
X8268Y6339D01*
X8268D01*
X8975Y6455D02*
X9094Y6336D01*
Y6339D01*
X17655Y6465D02*
X17782Y6339D01*
X17756D02*
X17782D01*
X26435Y17402D02*
X26496D01*
X23780Y19409D02*
Y20787D01*
Y19409D02*
X24016Y19173D01*
X27728Y19908D02*
Y20212D01*
X27821Y20305D01*
X27703Y19652D02*
Y19884D01*
X27728Y19908D01*
X27645Y19594D02*
X27703Y19652D01*
X24111Y4200D02*
X24256Y4055D01*
X24111Y4200D02*
Y6365D01*
X24256Y4055D02*
X24331D01*
X27184Y23874D02*
X27245Y23813D01*
Y23815D01*
X17261Y5101D02*
X17362Y5000D01*
X17261Y5101D02*
Y5796D01*
X20311Y4799D02*
Y5005D01*
X24528Y17402D02*
Y17439D01*
X24521Y17445D02*
X24528Y17439D01*
X12205Y13937D02*
X12403Y14135D01*
X12420D01*
X2323Y13819D02*
X2541Y13625D01*
X25197Y6772D02*
X25354Y6929D01*
X25361D01*
X24959Y7083D02*
X25011Y7135D01*
X24959Y5078D02*
Y7083D01*
Y5078D02*
X24961Y5075D01*
X32661Y1165D02*
Y5805D01*
X32171Y675D02*
X32661Y1165D01*
X31641Y675D02*
X32171D01*
X26614Y7678D02*
X27271Y8335D01*
X26614Y6688D02*
Y7678D01*
X25621Y5695D02*
X26614Y6688D01*
X25102Y17126D02*
X25138Y17162D01*
X24646D02*
X25138D01*
X24521Y17287D02*
X24646Y17162D01*
X24521Y17287D02*
Y17445D01*
X23623Y18186D02*
X24162D01*
X23011Y18695D02*
X23032Y18674D01*
Y18186D02*
Y18674D01*
X23972Y17516D02*
X24161Y17705D01*
X23623Y17516D02*
X23972D01*
X22591Y17603D02*
X22678Y17516D01*
X23032D01*
X28158Y20115D02*
X28386D01*
X27968Y20305D02*
X28158Y20115D01*
X27821Y20305D02*
X27968D01*
X4223Y5660D02*
Y5821D01*
Y5660D02*
X4229Y5654D01*
Y5457D02*
Y5654D01*
X4223Y5450D02*
X4229Y5457D01*
X4223Y5237D02*
Y5450D01*
X4041Y5055D02*
X4223Y5237D01*
X28611Y21689D02*
Y21965D01*
X27193Y21874D02*
X27442Y22123D01*
X28454D02*
X28611Y21965D01*
X27442Y22123D02*
X28454D01*
X25749Y21874D02*
X27193D01*
X18331Y22845D02*
X18371Y22805D01*
Y22255D02*
Y22805D01*
X18001Y21465D02*
X18121Y21345D01*
X18311D01*
X18341Y21315D01*
X17481Y21155D02*
X17721Y20915D01*
X18341D01*
X17351Y23155D02*
X17441Y23245D01*
X18331D01*
X18371Y24175D02*
X18611Y23935D01*
Y23045D02*
Y23935D01*
X18411Y22845D02*
X18611Y23045D01*
X18331Y22845D02*
X18411D01*
X15921Y24655D02*
X16351D01*
X16361Y23655D02*
Y23925D01*
X17301Y23105D02*
X17351Y23155D01*
X16811Y23105D02*
X17301D01*
X16361Y22655D02*
X16811Y23105D01*
X16361Y21655D02*
X16861Y21155D01*
X17351D01*
X15331Y24065D02*
X15921Y24655D01*
X15331Y21645D02*
Y24065D01*
X2071Y5975D02*
X2461D01*
X2051Y5785D02*
X2071Y5805D01*
Y5975D01*
X8061Y12645D02*
Y13615D01*
X8009Y12593D02*
X8061Y12645D01*
X7771Y12835D02*
Y13075D01*
Y11835D02*
Y12835D01*
X8009Y9163D02*
Y12593D01*
X21759Y3988D02*
Y5796D01*
X28821Y4035D02*
X29051Y3805D01*
X28821Y4035D02*
Y5105D01*
X21956Y4531D02*
Y5796D01*
X22351Y5235D02*
Y5794D01*
Y5235D02*
X22671Y4915D01*
X21956Y4531D02*
X22361Y4125D01*
X21241Y5465D02*
X21345Y5569D01*
X21365D01*
X6301Y5255D02*
X6351D01*
X19277Y7699D02*
X19401Y7575D01*
X19007Y7699D02*
X19277D01*
X18941Y7765D02*
X19007Y7699D01*
X14921Y9335D02*
Y9815D01*
X14751Y9165D02*
X14921Y9335D01*
X14751Y8459D02*
Y9165D01*
X18071Y14525D02*
X18251Y14705D01*
X8301Y14525D02*
X18071D01*
X8061Y14285D02*
X8301Y14525D01*
X17081Y14785D02*
X17251Y14955D01*
X7731Y14785D02*
X17081D01*
X7511Y14565D02*
X7731Y14785D01*
X15971Y15025D02*
X16251Y15305D01*
X4001Y15025D02*
X15971D01*
X14311Y15345D02*
X14711Y15745D01*
X3741Y15345D02*
X14311D01*
X17655Y6465D02*
X18324D01*
X16868Y6269D02*
X16887Y6288D01*
X16868Y5796D02*
Y6269D01*
X16887Y7233D02*
X17261Y6859D01*
X16395D02*
X17261D01*
X31361Y5116D02*
X31571D01*
X31641Y5045D01*
X29571Y4775D02*
Y5035D01*
X25621Y2765D02*
Y5695D01*
X27631Y2795D02*
Y7135D01*
X27511Y2675D02*
X27631Y2795D01*
X24941Y8385D02*
X25361Y7965D01*
X24941Y8385D02*
Y9365D01*
X25241Y9665D01*
X22471Y9125D02*
Y9645D01*
X11701Y8945D02*
X11856Y8790D01*
X27931Y5135D02*
X28555Y4512D01*
Y849D02*
Y4512D01*
X11301Y7605D02*
X11331Y7635D01*
X30311Y6265D02*
Y6275D01*
X30581Y845D02*
Y3675D01*
X29279Y4567D02*
X29481Y4365D01*
X29891D01*
X30581Y3675D01*
X27341Y14825D02*
X27371Y14855D01*
X27341Y14555D02*
Y14825D01*
X27841Y12635D02*
X28261D01*
X27481Y12275D02*
X27841Y12635D01*
X27481Y11530D02*
Y12275D01*
X26402Y14575D02*
X26921D01*
X26442Y13905D02*
X27001D01*
X28261Y12635D02*
Y15275D01*
X27891Y15645D02*
Y16295D01*
Y15645D02*
X28261Y15275D01*
X25986Y9945D02*
X26501D01*
X25986Y10445D02*
X26401D01*
X26556Y10600D01*
X26811Y11335D02*
X26921D01*
X26556Y11080D02*
X26811Y11335D01*
X26556Y10600D02*
Y11080D01*
X21759Y3988D02*
X21931Y3815D01*
X22761D01*
X24111Y6365D02*
X24333Y6587D01*
Y6594D01*
X24381Y6642D01*
X19621Y10085D02*
Y10435D01*
X20031Y10845D01*
X13543Y4503D02*
Y5791D01*
X17601Y4555D02*
X17611D01*
X18049Y5796D02*
X18290D01*
X18341Y5745D01*
Y3835D02*
Y5745D01*
X16541Y5667D02*
X16671Y5796D01*
X17458Y5368D02*
X17581Y5245D01*
X17841Y4075D02*
Y5365D01*
X17852Y5654D02*
Y5796D01*
X16887Y6288D02*
Y6319D01*
X15851Y6135D02*
X15985Y6269D01*
X16395D01*
X14721Y7255D02*
Y7295D01*
Y7255D02*
X14811Y7165D01*
X15041D01*
X15041Y6035D02*
X15041Y6035D01*
Y6365D01*
Y6755D01*
Y7165D01*
X15031Y7175D02*
X15041Y7165D01*
X15031Y7175D02*
Y7595D01*
X22625Y7450D02*
Y7649D01*
X22731Y7755D01*
X18324Y7450D02*
X18686D01*
X18741Y7505D01*
X14016Y7444D02*
X14103Y7532D01*
X14388D01*
X14391Y7535D01*
X9644Y7440D02*
X9720Y7515D01*
X9981D01*
X5286Y7660D02*
X5361Y7735D01*
X5286Y7474D02*
Y7660D01*
X16395Y6465D02*
X16741D01*
X16887Y6319D01*
X16395Y7253D02*
X16634D01*
X16653Y7233D01*
X16887D01*
X16671Y5796D02*
X16868D01*
X17458Y5368D02*
Y5796D01*
X18250Y8025D02*
X18555Y8331D01*
X16571Y12725D02*
Y12745D01*
X18011Y12045D02*
X18151Y12185D01*
X18011Y11985D02*
Y12045D01*
X17941Y11915D02*
X18011Y11985D01*
X17941Y9705D02*
Y11915D01*
X19151Y9895D02*
Y11555D01*
X19131D02*
X19135Y11559D01*
X19147D01*
X19151Y11555D01*
X18541Y9975D02*
X19071D01*
X19151Y9895D01*
Y9025D02*
Y9895D01*
X18555Y8331D02*
X18761Y8537D01*
X19151Y8375D02*
Y9025D01*
X18049Y7725D02*
X18501D01*
X17941Y9705D02*
X18131Y9515D01*
X18431D01*
X18499Y9447D01*
Y8957D02*
Y9447D01*
X18277Y8735D02*
X18499Y8957D01*
X18271Y8735D02*
X18277D01*
X15051Y13305D02*
Y13565D01*
Y13075D02*
Y13305D01*
X17791Y9135D02*
Y9455D01*
X17651Y9595D02*
X17791Y9455D01*
X17651Y9595D02*
Y11985D01*
X14801Y13345D02*
Y13355D01*
Y13345D02*
X14841Y13305D01*
X15051D01*
X16711Y11255D02*
X16791Y11175D01*
Y9825D02*
Y11175D01*
X16551Y9585D02*
X16791Y9825D01*
X16551Y8905D02*
Y9585D01*
Y8905D02*
X16721Y8735D01*
X16791D01*
X16141Y12315D02*
X17031Y11425D01*
Y9375D02*
Y11425D01*
X16791Y9135D02*
X17031Y9375D01*
X14751Y8459D02*
X15295Y7915D01*
X18091Y13635D02*
X18121Y13605D01*
X17661Y13635D02*
X18091D01*
X17661Y12415D02*
Y13635D01*
X17291Y12045D02*
X17661Y12415D01*
X17291Y9135D02*
Y12045D01*
X5286Y6293D02*
X5833D01*
X23801Y8975D02*
X23891Y9065D01*
X24001Y8765D02*
X24061Y8705D01*
X23601Y6655D02*
X24061Y7115D01*
X23261Y6655D02*
X23801Y7195D01*
X23261Y3575D02*
Y6655D01*
X23951Y13145D02*
Y13905D01*
Y13145D02*
X24591Y12505D01*
Y10135D02*
Y12505D01*
X24141Y9685D02*
X24591Y10135D01*
X23361Y9685D02*
X24141D01*
X26491Y8945D02*
X26501Y8955D01*
X25986Y8945D02*
X26491D01*
X25986D02*
Y9445D01*
X13543Y4503D02*
X13731Y4315D01*
X13740Y5391D02*
X13846Y5285D01*
X13740Y5391D02*
Y5791D01*
X13846Y5285D02*
X13869Y5308D01*
X12756Y5420D02*
Y5791D01*
X11700Y6657D02*
X12087D01*
X11691Y6665D02*
X11700Y6657D01*
X11311Y5985D02*
X11481D01*
X11759Y6263D01*
X12087D01*
X11301Y6815D02*
X11311Y6805D01*
Y6405D02*
Y6805D01*
X11727Y7051D02*
X12087D01*
X11491Y6815D02*
X11727Y7051D01*
X11301Y6815D02*
X11491D01*
X11862Y7444D02*
X12087D01*
X11671Y7635D02*
X11862Y7444D01*
X11331Y7635D02*
X11671D01*
X6621Y6725D02*
X6631Y6735D01*
X6621Y6285D02*
Y6725D01*
X7031Y7185D02*
Y7625D01*
X12911Y12595D02*
X13011D01*
X12911Y12395D02*
Y12595D01*
Y12395D02*
X13011Y12295D01*
X13706Y8370D02*
X13801Y8465D01*
X13347Y8011D02*
X13706Y8370D01*
X13926D02*
X13931Y8375D01*
X13706Y8370D02*
X13926D01*
X13801Y8465D02*
Y8735D01*
X13347Y7720D02*
Y8011D01*
X14311Y8335D02*
Y8735D01*
X14031Y8055D02*
X14311Y8335D01*
X14921Y9815D02*
X15171Y10065D01*
X9371Y11875D02*
Y12565D01*
X9071Y11575D02*
X9371Y11875D01*
X9071Y10425D02*
Y11575D01*
Y10425D02*
X9531Y9965D01*
X9011Y12065D02*
Y13195D01*
Y9155D02*
Y9475D01*
X8711Y9775D02*
X9011Y9475D01*
X8711Y9775D02*
Y11765D01*
X9011Y12065D01*
X8581Y12235D02*
X8691D01*
X8341Y11995D02*
X8581Y12235D01*
X8341Y9729D02*
Y11995D01*
X13551Y11645D02*
X13761Y11855D01*
X13551Y10415D02*
Y11645D01*
Y10415D02*
X13991Y9975D01*
X13291Y11785D02*
X13411Y11905D01*
X13291Y9645D02*
Y11785D01*
Y9645D02*
X13801Y9135D01*
X13111Y8945D02*
Y9445D01*
X13011Y9545D02*
X13111Y9445D01*
X13011Y9545D02*
Y12295D01*
X13541Y12395D02*
Y12535D01*
Y12395D02*
X13761Y12175D01*
Y11855D02*
Y12175D01*
X11851Y13325D02*
X12086Y13090D01*
Y12760D02*
Y13090D01*
X12071Y12745D02*
X12086Y12760D01*
X10091Y12835D02*
X10331Y13075D01*
X12581Y9335D02*
Y12905D01*
X12401Y13085D02*
X12581Y12905D01*
X12401Y13085D02*
Y13585D01*
X13991Y9975D02*
X14081D01*
X11181Y13795D02*
X11271Y13705D01*
Y13585D02*
Y13705D01*
X11631Y12275D02*
X11841D01*
X12261Y11855D01*
Y10525D02*
Y11855D01*
X11701Y9965D02*
X12261Y10525D01*
X12381Y9135D02*
X12581Y9335D01*
X11091Y10705D02*
Y11325D01*
Y12505D01*
Y11325D02*
X11101Y11315D01*
X11701D01*
X10331Y13075D02*
X10661D01*
X13346Y8720D02*
X13351Y8725D01*
X13346Y8440D02*
Y8720D01*
X13351Y9125D02*
X13405D01*
X13795Y8735D01*
X13801D01*
X16191Y13555D02*
X16221Y13585D01*
X16191Y13085D02*
Y13555D01*
Y13025D02*
Y13085D01*
X15991Y12825D02*
X16191Y13025D01*
X15591Y12825D02*
X15991D01*
X16581Y13385D02*
X16781Y13585D01*
X16971Y14135D02*
X17221Y13885D01*
X16781Y14135D02*
X16971D01*
X16001Y13915D02*
X16221Y14135D01*
X16001Y13915D02*
Y13925D01*
Y13915D02*
X16001Y13915D01*
X24579Y873D02*
Y3324D01*
X29501Y815D02*
X29681Y635D01*
X29501Y815D02*
Y1055D01*
X29681Y635D02*
X30371D01*
X27511Y755D02*
Y1060D01*
X31491Y825D02*
X31641Y675D01*
X30371Y635D02*
X30581Y845D01*
X26371Y635D02*
X26621Y885D01*
X25507Y749D02*
X25621Y635D01*
X27671Y7175D02*
X27681D01*
X27631Y7135D02*
X27671Y7175D01*
X31861Y1625D02*
Y2011D01*
X31865Y2015D01*
X31117Y1070D02*
Y1509D01*
X31115D02*
X31117D01*
X29875Y1659D02*
Y2000D01*
X29141Y1069D02*
Y1495D01*
X29127Y1055D02*
X29141Y1069D01*
X27881Y1605D02*
X27885Y1609D01*
Y2005D01*
X27131Y1465D02*
Y1485D01*
Y1465D02*
X27137Y1459D01*
Y1060D02*
Y1459D01*
X25881Y1585D02*
Y2010D01*
X25121Y1495D02*
X25133Y1483D01*
Y1065D02*
Y1483D01*
X28571Y5335D02*
X28591D01*
X28821Y5105D01*
X31051Y3835D02*
X31631Y3255D01*
X29101Y4315D02*
X29631Y3785D01*
Y2795D02*
Y3785D01*
X29501Y2665D02*
X29631Y2795D01*
X29501Y2000D02*
Y2665D01*
X27511Y2005D02*
Y2675D01*
X25507Y2651D02*
X25621Y2765D01*
X25507Y2010D02*
Y2651D01*
X23891Y6605D02*
X24141Y6855D01*
X23891Y3925D02*
Y6605D01*
X23631Y3665D02*
X23891Y3925D01*
X31491Y825D02*
Y1070D01*
X27931Y5135D02*
Y6575D01*
X25507Y749D02*
Y1065D01*
X24571Y3332D02*
Y6495D01*
Y3332D02*
X24579Y3324D01*
X23511Y695D02*
Y1060D01*
X23631Y2835D02*
Y3665D01*
X23511Y2715D02*
X23631Y2835D01*
X23511Y2005D02*
Y2715D01*
X23861Y1565D02*
X23885Y1589D01*
Y2005D01*
X23131Y1545D02*
X23137Y1539D01*
Y1060D02*
Y1539D01*
X27831Y10715D02*
X27836Y10710D01*
Y10445D02*
Y10710D01*
X27451Y9445D02*
X27836D01*
X23601Y4485D02*
Y6655D01*
X22361Y4075D02*
Y4125D01*
X13347Y4400D02*
Y5791D01*
Y4400D02*
X13451Y4295D01*
Y4065D02*
Y4295D01*
X6191Y1772D02*
Y4115D01*
X5951Y4355D02*
X6191Y4115D01*
X5801Y4355D02*
X5951D01*
X7371Y4985D02*
X8201D01*
X7311Y4675D02*
X7421Y4565D01*
X8551D01*
X8341Y5495D02*
X8384Y5538D01*
X8321Y5495D02*
X8341D01*
X8975Y4669D02*
Y5786D01*
X8851Y4545D02*
X8975Y4669D01*
X8851Y4055D02*
Y4545D01*
X9121Y4355D02*
X9172Y4406D01*
X4041Y5035D02*
Y5055D01*
X3970Y5574D02*
X4026Y5630D01*
X3970Y5574D02*
X3972D01*
X3991Y5555D01*
X4026Y5630D02*
Y5821D01*
X2991Y6695D02*
X3000Y6687D01*
X2461Y6745D02*
X2681D01*
X2481Y6729D02*
Y6735D01*
X2061Y6309D02*
X2481Y6729D01*
X2061Y6285D02*
Y6309D01*
X3411Y9285D02*
X3561Y9435D01*
X3411Y9135D02*
Y9285D01*
X18271Y8615D02*
Y8735D01*
X17655Y7999D02*
X18271Y8615D01*
X21611Y8735D02*
X21981D01*
X20901Y9945D02*
Y13215D01*
X21181Y13495D01*
Y13575D01*
X21761Y13495D02*
Y13585D01*
X21171Y12905D02*
X21761Y13495D01*
X13411Y12995D02*
X14071D01*
X13011Y12595D02*
X13411Y12995D01*
X15641Y13465D02*
X15861Y13245D01*
X18511Y11295D02*
X18541Y11325D01*
X18511Y10795D02*
Y11295D01*
X15861Y13245D02*
Y13255D01*
X15641Y13465D02*
Y13575D01*
X15451Y12965D02*
X15591Y12825D01*
X15451Y12965D02*
Y13075D01*
X17371Y14035D02*
X17661D01*
X17221Y13885D02*
X17371Y14035D01*
X17221Y13035D02*
Y13885D01*
X15061Y11965D02*
X15081Y11985D01*
X15061Y11285D02*
Y11965D01*
Y11285D02*
X15361Y10985D01*
X16071Y11255D02*
X16121Y11305D01*
X15631Y11255D02*
X16071D01*
X15361Y10985D02*
X15631Y11255D01*
X15361Y10065D02*
Y10985D01*
X16501Y7725D02*
X16671D01*
X16311Y7915D02*
X16501Y7725D01*
X15295Y7915D02*
X16311D01*
X15171Y10065D02*
X15361D01*
X16791Y9135D02*
X16872D01*
X17272Y8735D01*
X17291D01*
X17261Y8705D02*
X17291Y8735D01*
X17261Y7725D02*
Y8705D01*
X17791Y8515D02*
Y8735D01*
X17458Y8182D02*
X17791Y8515D01*
X17458Y7725D02*
Y8182D01*
X18197Y9135D02*
X18271D01*
X17797Y8735D02*
X18197Y9135D01*
X17791Y8735D02*
X17797D01*
X17655Y7725D02*
Y7999D01*
X18761Y8735D02*
X18771Y8745D01*
X18761Y8537D02*
Y8735D01*
X17991Y8025D02*
X18250D01*
X17852Y7886D02*
X17991Y8025D01*
X17852Y7725D02*
Y7886D01*
X19031Y9145D02*
X19151Y9025D01*
X18771Y9145D02*
X19031D01*
X13151Y8245D02*
X13346Y8440D01*
X13150Y8245D02*
X13151D01*
X11851Y13325D02*
Y13575D01*
X12901Y8735D02*
X13111Y8945D01*
X12871Y8735D02*
X12901D01*
X12237Y7720D02*
X12362D01*
X10641Y9315D02*
X12237Y7720D01*
X10641Y9315D02*
Y9977D01*
X10689Y10025D01*
X10901D01*
X10941Y10065D01*
X11311Y9965D02*
X11701D01*
X11011Y9665D02*
X11311Y9965D01*
X10941Y9665D02*
X11011D01*
X11701Y8945D02*
Y9965D01*
X12381Y8735D02*
X12462D01*
X12862Y9135D01*
X12871D01*
X12874Y8425D02*
Y8732D01*
Y8425D02*
X12953Y8347D01*
Y7720D02*
Y8347D01*
X13150Y7720D02*
Y8245D01*
X14081Y8901D02*
Y9975D01*
Y8901D02*
X14247Y8735D01*
X14311D01*
X10921Y10535D02*
X11091Y10705D01*
X10921Y10075D02*
Y10535D01*
X12891Y13015D02*
Y13575D01*
X13391D01*
X12420Y13585D02*
X12810Y13975D01*
X12401Y13585D02*
X12420D01*
X11021Y12575D02*
X11091Y12505D01*
X10681Y12575D02*
X11021D01*
X24261Y15155D02*
Y15715D01*
X23751Y14645D02*
X24261Y15155D01*
X20291Y14645D02*
X23751D01*
X20051Y14405D02*
X20291Y14645D01*
X20051Y14135D02*
Y14405D01*
X23261Y15185D02*
Y15715D01*
X22961Y14885D02*
X23261Y15185D01*
X19771Y14885D02*
X22961D01*
X19431Y14545D02*
X19771Y14885D01*
X19431Y14155D02*
Y14545D01*
X7281Y7635D02*
X7477Y7440D01*
X7091Y7635D02*
X7281D01*
X9369Y3748D02*
X9431Y3685D01*
X9369Y3748D02*
Y5786D01*
X5010Y5821D02*
X5036D01*
X5401Y5455D01*
Y5295D02*
Y5455D01*
X8384Y5538D02*
Y5786D01*
X8188D02*
Y6259D01*
X7991Y5786D02*
X8188D01*
Y7243D02*
X8207Y7223D01*
X7715Y7243D02*
X8188D01*
X8465Y6536D02*
X8680Y6751D01*
X8100Y6536D02*
X8465D01*
X8020Y6455D02*
X8100Y6536D01*
X7715Y6455D02*
X8020D01*
X7715Y6849D02*
X8581D01*
X7445Y6259D02*
X7715D01*
X7341Y6155D02*
X7445Y6259D01*
X7351Y6515D02*
X7488Y6652D01*
X7715D01*
X7491Y7046D02*
X7715D01*
X7491Y7035D02*
Y7046D01*
X7261Y6805D02*
X7491Y7035D01*
X7477Y7440D02*
X7715D01*
X3661Y4655D02*
X3731Y4725D01*
X4181D01*
X4420Y4964D01*
Y5821D01*
X14711Y15745D02*
X15251D01*
X1961Y13125D02*
Y13615D01*
X1971Y13625D01*
X2371Y8735D02*
Y9245D01*
X4911Y8535D02*
Y8745D01*
X4813Y7750D02*
Y8127D01*
X5010Y7750D02*
Y8014D01*
X5421Y8425D01*
X5621D01*
X5731Y8535D01*
Y9045D01*
X5411Y9135D02*
X5641D01*
X4411Y8737D02*
X4422D01*
X4830Y9145D01*
X4911D01*
X3891Y8737D02*
X3911D01*
X3492Y9135D02*
X3891Y8737D01*
X3411Y9135D02*
X3492D01*
X5371Y8735D02*
X5411D01*
X5161Y8945D02*
X5371Y8735D01*
X5161Y8945D02*
Y9975D01*
X3911Y9137D02*
Y11965D01*
X4681Y12925D02*
Y13145D01*
X4011Y14005D02*
X4271D01*
X3391Y8755D02*
X3411Y8735D01*
X3201Y8755D02*
X3391D01*
X3021Y8935D02*
X3201Y8755D01*
X3021Y8935D02*
Y9435D01*
X3701Y10115D01*
Y12105D01*
X3901Y12305D01*
Y12675D01*
X3921Y12695D01*
X5201Y11365D02*
X5591D01*
X5161Y11325D02*
X5201Y11365D01*
X5131Y10005D02*
X5161Y9975D01*
X3331Y12275D02*
Y13135D01*
Y12275D02*
X3421Y12185D01*
Y10485D02*
X3461D01*
X3421D02*
Y12185D01*
X7511Y14165D02*
Y14565D01*
X17251Y14955D02*
Y15715D01*
X8061Y14165D02*
Y14285D01*
X18251Y14705D02*
Y15715D01*
X8061Y13615D02*
X8100D01*
X8520Y14035D01*
X8601D01*
X6841Y13075D02*
X7371D01*
X7511Y13215D01*
Y13615D01*
X8581Y13035D02*
Y13615D01*
X8601Y13635D01*
X9031D01*
X9051Y13655D01*
X5641Y9135D02*
X5721Y9055D01*
Y11235D01*
X5591Y11365D02*
X5721Y11235D01*
X7981Y9135D02*
X8009Y9163D01*
X8485Y9135D02*
X8491D01*
X8085Y8735D02*
X8485Y9135D01*
X7981Y8735D02*
X8085D01*
X8491D02*
X8541D01*
X8581Y12295D02*
Y12635D01*
X9011Y8735D02*
X9040D01*
X9440Y9135D01*
X9521D01*
X10031D02*
X10301D01*
X9369Y7715D02*
X9531D01*
X10121Y8305D01*
X10291D01*
X9521Y8625D02*
Y8735D01*
X8975Y7715D02*
Y8079D01*
X8778Y7715D02*
Y8502D01*
X9011Y8735D01*
X8581Y7715D02*
Y8415D01*
X8491Y8505D02*
X8581Y8415D01*
X8491Y8505D02*
Y8735D01*
X7231Y9965D02*
X7251Y9985D01*
X6461Y9245D02*
X7991Y7715D01*
X6441Y13075D02*
Y13345D01*
Y13615D01*
X9531Y9965D02*
X9701D01*
X6771Y13835D02*
X6781Y13825D01*
X8975Y8079D02*
X9345Y8449D01*
X9386Y8490D02*
X9521Y8625D01*
X10025Y8735D02*
X10031D01*
X3017Y7081D02*
X3357D01*
X3000Y6687D02*
X3357D01*
X2991Y6685D02*
Y6695D01*
X2481Y7185D02*
Y7465D01*
X3507Y7875D02*
X3632Y7750D01*
X2481Y7475D02*
Y7625D01*
X2871D01*
X2681Y6745D02*
X3017Y7081D01*
X4617Y6490D02*
X5286D01*
X4813Y5343D02*
Y5821D01*
Y5343D02*
X5801Y4355D01*
X4617Y5181D02*
Y5821D01*
Y5181D02*
X5751Y4046D01*
X9172Y4406D02*
Y5786D01*
X2971Y6305D02*
X2983Y6293D01*
X3357D01*
X2871Y7625D02*
X3022Y7474D01*
X3357D01*
X18501Y7725D02*
X19151Y8375D01*
X21411Y9135D02*
X21511D01*
X19371Y10065D02*
X19391Y10085D01*
X19621D01*
X18851Y12615D02*
X18871Y12595D01*
X19201D01*
X19371Y8615D02*
Y10065D01*
X20261Y7725D02*
X20971D01*
X19613Y8863D02*
Y9677D01*
X19621Y9685D01*
X21341Y9065D02*
X21411Y9135D01*
X20781Y9105D02*
X21041D01*
X19401Y7115D02*
Y7575D01*
X19401Y7115D02*
X19401Y7115D01*
X19401Y6675D02*
Y7115D01*
Y6675D02*
X19411Y6665D01*
Y6195D02*
Y6665D01*
X19401Y6185D02*
X19411Y6195D01*
X19401Y5725D02*
Y6185D01*
X19401Y5725D02*
X19401Y5725D01*
X19401Y5275D02*
Y5725D01*
Y5275D02*
X19401Y5275D01*
Y4835D02*
Y5275D01*
X19801Y7575D02*
X20131D01*
X19801Y7115D02*
Y7575D01*
X20515Y6269D02*
X20696D01*
X20370Y6124D02*
X20515Y6269D01*
X20370Y6121D02*
Y6124D01*
X19801Y6185D02*
X19971D01*
X21188Y6288D02*
Y6309D01*
X21031Y6465D02*
X21188Y6309D01*
X20696Y6465D02*
X21031D01*
X20993Y7233D02*
X21188D01*
X20974Y7253D02*
X20993Y7233D01*
X20696Y7253D02*
X20974D01*
X20131Y7575D02*
X20257Y7450D01*
X20696D01*
X19971Y6185D02*
X20448Y6662D01*
X20696D01*
X20967Y6859D02*
X21036Y6929D01*
X20696Y6859D02*
X20967D01*
X21036Y6929D02*
X21730D01*
X21828Y6691D02*
Y6830D01*
X21730Y6929D02*
X21828Y6830D01*
X21779Y6642D02*
X21828Y6691D01*
X20231Y7056D02*
X20696D01*
X8975Y6455D02*
X9644D01*
X21168Y5796D02*
Y6269D01*
X21188Y6288D01*
X20971Y5796D02*
X21168D01*
X22310Y6465D02*
X22625D01*
X22133Y6288D02*
X22310Y6465D01*
X20701Y5435D02*
Y5725D01*
X20772Y5796D01*
X20971D01*
X20711Y5005D02*
Y5425D01*
X20701Y5435D02*
X20711Y5425D01*
X20301Y5435D02*
Y6053D01*
X20370Y6121D01*
X19171Y4605D02*
X19401Y4835D01*
X19101Y4605D02*
X19171D01*
X19801Y4805D02*
Y4835D01*
Y4805D02*
X20051Y4555D01*
X21365Y5569D02*
Y5796D01*
X22349D02*
X22351Y5794D01*
X26056Y18736D02*
X26562D01*
X26101Y19145D02*
X26104Y19142D01*
X26141D01*
X26350Y18933D01*
X26562D01*
X28137Y18736D02*
X28494D01*
X28137Y18933D02*
X28369D01*
X28137Y18539D02*
X28635D01*
X27448Y19425D02*
Y19648D01*
X27645Y19579D02*
Y19594D01*
X26853Y19430D02*
X26858Y19425D01*
X25883Y20953D02*
X25891Y20945D01*
X27054Y17552D02*
Y17850D01*
X27645Y17688D02*
X27948Y17385D01*
X27645Y17688D02*
Y17850D01*
X27401Y13645D02*
Y13905D01*
X28635Y18539D02*
Y18541D01*
X28675Y18581D01*
X28137Y18343D02*
X28819D01*
X29001Y18525D01*
Y18535D01*
X26460Y17414D02*
X26481Y17435D01*
X26523Y17850D02*
X26858D01*
X27211Y17225D02*
Y17395D01*
X27054Y17552D02*
X27211Y17395D01*
X27383Y16934D02*
Y17053D01*
X27211Y17225D02*
X27383Y17053D01*
X27231Y9665D02*
X27451Y9445D01*
X2461Y5975D02*
Y6255D01*
X16541Y5385D02*
Y5667D01*
X28551Y12035D02*
X28781Y12265D01*
Y15425D01*
X29001Y15645D01*
X26481Y17105D02*
Y17435D01*
X24381Y6642D02*
Y7775D01*
X24581Y8635D02*
Y9686D01*
X25621Y635D02*
X26184D01*
X26371D01*
X23511Y695D02*
X23571Y635D01*
X24341D01*
X24579Y873D01*
X27511Y755D02*
X27611Y655D01*
X28361D01*
X28555Y849D01*
X22625Y6269D02*
X22631Y6275D01*
X22971D01*
X21721Y11375D02*
X22191D01*
X22331Y11235D01*
Y11125D02*
X22341D01*
X20031Y10845D02*
X20321D01*
X20421Y10945D01*
Y11305D01*
X20401Y11325D02*
X20421Y11305D01*
X20341Y11155D02*
Y11325D01*
X21181Y13975D02*
X21291D01*
X21681Y13585D01*
X21761D01*
X17852Y5654D02*
X18090Y5415D01*
X18091D01*
Y4305D02*
Y5415D01*
X17655Y5552D02*
Y5796D01*
Y5552D02*
X17841Y5365D01*
X12641D02*
X12701D01*
X12756Y5420D01*
X12800Y5127D02*
X12953Y5280D01*
Y5791D01*
X12449Y5127D02*
X12800D01*
X11991Y4985D02*
X12307D01*
X12449Y5127D01*
X12741Y3815D02*
Y4115D01*
X13150Y4524D01*
Y5791D01*
X16251Y15305D02*
Y15715D01*
X7021Y6285D02*
Y6725D01*
X7031Y6735D01*
Y6805D02*
X7261D01*
X24966Y10650D02*
X25146D01*
X25161Y10635D01*
X4841Y12525D02*
X4881Y12485D01*
X5131Y9855D02*
Y10465D01*
X4551Y11045D02*
X5131Y10465D01*
X4551Y11045D02*
Y11935D01*
X4881Y12265D01*
Y12485D01*
X9172Y7876D02*
X10031Y8735D01*
X9172Y7715D02*
Y7876D01*
X8201Y4985D02*
X8581Y5365D01*
Y5786D01*
X8551Y4565D02*
X8778Y4792D01*
Y5786D01*
X11621Y13915D02*
X11641D01*
X11851Y14125D01*
X10091Y11805D02*
Y12835D01*
Y11805D02*
X10741Y11155D01*
Y11055D02*
Y11155D01*
X13543Y7862D02*
X13736Y8055D01*
X13543Y7720D02*
Y7862D01*
X13736Y8055D02*
X14031D01*
X26931Y6402D02*
X27203Y6673D01*
X27219D01*
X27281Y6735D01*
X27081Y6872D02*
Y7185D01*
X26621Y6412D02*
X27081Y6872D01*
X26621Y885D02*
Y6412D01*
X26931Y4895D02*
Y6402D01*
X24291Y8345D02*
X24581Y8635D01*
X23801Y7195D02*
Y8975D01*
X24061Y7115D02*
Y8705D01*
X24291Y7865D02*
Y8345D01*
Y7865D02*
X24381Y7775D01*
X24231Y16945D02*
X24764Y16412D01*
X18341Y21315D02*
X18411Y21385D01*
X8541Y8735D02*
X8761Y8955D01*
Y9309D01*
X8341Y9729D02*
X8761Y9309D01*
X9781Y8979D02*
X10025Y8735D01*
X9781Y8979D02*
Y9885D01*
X9701Y9965D02*
X9781Y9885D01*
X10291Y8305D02*
X10431Y8445D01*
X5171Y3466D02*
X5751Y4046D01*
X4901Y1721D02*
X5171Y1991D01*
Y3466D01*
X25757Y24682D02*
X26379D01*
X25749Y24674D02*
X25757Y24682D01*
X25749Y23874D02*
X27184D01*
X25749Y22674D02*
X26694D01*
X26969Y22398D01*
X27540Y22793D02*
Y22812D01*
X28494Y18736D02*
X29001Y19244D01*
Y22415D01*
X28369Y18933D02*
X28820Y19384D01*
Y21481D01*
X28611Y21689D02*
X28820Y21481D01*
X26853Y19430D02*
Y21180D01*
X27048Y21374D01*
X27560D01*
X27205Y20981D02*
X27212Y20974D01*
X16661Y20315D02*
X20036D01*
X19681Y23785D02*
X20210D01*
X19141Y24575D02*
X19776D01*
X19875Y24674D01*
X20299D01*
X18372Y24575D02*
X19141D01*
X20299Y25474D02*
X20862D01*
X21142Y25193D01*
Y22437D02*
Y25193D01*
X20985Y22280D02*
X21142Y22437D01*
X19725Y22280D02*
X20985D01*
X19607Y22162D02*
X19725Y22280D01*
X19253Y22162D02*
X19607D01*
X19331Y22674D02*
X20299D01*
X19253Y22595D02*
X19331Y22674D01*
X18001Y21465D02*
Y22013D01*
X18244Y22255D01*
X18371D01*
X20036Y20315D02*
X20308Y20587D01*
Y21064D01*
X18411Y21385D02*
X19253D01*
X35311Y5595D02*
X35317D01*
X35631Y5909D01*
X1611Y13268D02*
Y13425D01*
Y13268D02*
X1754Y13125D01*
X1961D01*
X3583Y14175D02*
Y14607D01*
X4001Y15025D01*
X3001Y14175D02*
X3072Y14246D01*
Y14676D01*
X3741Y15345D01*
X4271Y14005D02*
X4441Y14175D01*
X4551D01*
X4617Y7750D02*
Y8274D01*
X4725Y8382D01*
X5411Y8725D02*
Y8735D01*
X4813Y8127D02*
X5411Y8725D01*
X4420Y7750D02*
Y8728D01*
X4411Y8737D02*
X4420Y8728D01*
X6761Y13835D02*
X6771D01*
X6761D02*
X6981Y13615D01*
X11083Y13795D02*
X11181D01*
X22152Y4931D02*
Y5796D01*
Y4931D02*
X22768Y4315D01*
X22911D01*
X20956Y4100D02*
X21562Y4706D01*
Y5796D01*
X21511Y9135D02*
X21611Y9235D01*
X20901Y9945D02*
X21611Y9235D01*
X24764Y14642D02*
Y16412D01*
Y14642D02*
X25111Y14295D01*
X25381D01*
X26381Y14955D02*
X26772Y15346D01*
Y16814D01*
X26481Y17105D02*
X26772Y16814D01*
X28402Y17185D02*
X28411Y17176D01*
Y17055D02*
Y17176D01*
X26501Y9945D02*
X26772Y10216D01*
Y10821D01*
X27481Y11530D01*
X24581Y9686D02*
X24883Y9987D01*
Y10567D01*
X24966Y10650D01*
X27661Y11212D02*
Y11315D01*
Y11212D02*
X27679Y11194D01*
X29161Y8095D02*
X29240Y8017D01*
Y7923D02*
Y8017D01*
X28190Y22871D02*
X28386D01*
X27442Y22123D02*
X28190Y22871D01*
X31051Y3835D02*
Y3985D01*
X31491Y2015D02*
Y2471D01*
X31631Y2611D01*
Y3255D01*
X27560Y21374D02*
X27953D01*
X25361Y6929D02*
Y7965D01*
X4026Y7750D02*
Y8061D01*
X3021Y8278D02*
Y8935D01*
Y8278D02*
X3228Y8071D01*
X3760Y8327D02*
X4026Y8061D01*
X3911Y8648D02*
Y8737D01*
Y8648D02*
X4223Y8336D01*
Y7750D02*
Y8336D01*
X3829Y7750D02*
Y7892D01*
X3228Y8071D02*
X3650D01*
X3829Y7892D01*
X7874Y8628D02*
X7981Y8735D01*
X8228Y8268D02*
X8386Y8110D01*
Y7717D02*
Y8110D01*
X7231Y8965D02*
Y9965D01*
X7874Y8228D02*
Y8628D01*
Y8228D02*
X8188Y7915D01*
Y7715D02*
Y7915D01*
X12408Y7986D02*
X12436D01*
X12559Y7720D02*
Y7862D01*
X12436Y7986D02*
X12559Y7862D01*
X12408Y7986D02*
Y8708D01*
X12381Y8735D02*
X12408Y8708D01*
X12431Y8685D01*
X12756Y7720D02*
Y8150D01*
X12677Y8228D02*
X12756Y8150D01*
X12677Y8228D02*
X12677D01*
X17064Y7725D02*
Y8093D01*
X16850Y8307D02*
X17064Y8093D01*
X21759Y7725D02*
Y8101D01*
X21713Y8147D02*
X21759Y8101D01*
X21713Y8147D02*
Y8217D01*
X21341Y8589D02*
Y9065D01*
Y8589D02*
X21713Y8217D01*
X21142Y8466D02*
Y9005D01*
X21041Y9105D02*
X21142Y9005D01*
X19371Y8615D02*
X20261Y7725D01*
X20176Y8147D02*
Y8250D01*
X19578Y8848D02*
X20176Y8250D01*
X28465Y8342D02*
X29213Y7593D01*
X28465Y8342D02*
Y8622D01*
X26991Y9545D02*
X27591Y8945D01*
X27876D01*
X26991Y9545D02*
Y10771D01*
X27316Y11095D01*
X27441D01*
X27231Y9665D02*
Y10538D01*
X27679Y10986D01*
Y11194D01*
X31491Y9257D02*
Y11105D01*
X31411Y11185D02*
X31491Y11105D01*
X29001Y15645D02*
Y17535D01*
X29006Y17541D01*
Y17608D01*
X28976Y17638D02*
X29006Y17608D01*
X31417Y7049D02*
X32661Y5805D01*
X31417Y7049D02*
Y9183D01*
X31491Y9257D01*
D36*
X25934Y18858D02*
X26056Y18736D01*
X25398Y18858D02*
X25934D01*
X25311Y18772D02*
X25398Y18858D01*
X25907Y17602D02*
X25919Y17590D01*
Y17292D02*
Y17590D01*
X25898Y17271D02*
X25919Y17292D01*
X26031Y17725D02*
Y17756D01*
X25907Y17602D02*
X26031Y17725D01*
X25907Y17602D02*
Y17602D01*
X25898Y17158D02*
Y17271D01*
X25701Y17158D02*
X25898D01*
X25669Y17126D02*
X25701Y17158D01*
X26024Y17756D02*
X26031D01*
X25311Y18583D02*
Y18772D01*
X24219Y16260D02*
X24331D01*
X23510Y16968D02*
X24219Y16260D01*
X25884Y19843D02*
X26562Y19164D01*
X25748Y19843D02*
X25884D01*
X25748D02*
X25754Y19849D01*
Y20276D01*
X25071Y17745D02*
X25259D01*
X25551Y18415D02*
X25711Y18575D01*
X25551Y18307D02*
Y18415D01*
X19751Y13285D02*
X20051Y13585D01*
X19751Y13055D02*
Y13285D01*
X27611Y20418D02*
Y20625D01*
X27593Y20400D02*
X27611Y20418D01*
X27593Y20315D02*
Y20400D01*
X27535Y20257D02*
X27593Y20315D01*
X27535Y19736D02*
Y20257D01*
X27251Y19709D02*
X27377Y19835D01*
X29641Y11285D02*
X30269Y10657D01*
Y6823D02*
Y10657D01*
X29951Y6505D02*
X30269Y6823D01*
X29641Y11285D02*
Y12865D01*
X20472Y8386D02*
Y8498D01*
Y8071D02*
Y8386D01*
X27284Y20177D02*
X27293Y20168D01*
X27281Y20155D02*
X27377Y20059D01*
Y19835D02*
Y20059D01*
X27448Y19648D02*
X27535Y19736D01*
X27941Y19525D02*
Y19785D01*
X27842Y19425D02*
X27941Y19525D01*
X25749Y7123D02*
Y7130D01*
X25749Y7130D01*
X18601Y21855D02*
X18682Y21775D01*
X18341Y21855D02*
X18601D01*
X21562Y7725D02*
Y8046D01*
X26391Y16785D02*
X26451D01*
X30221Y4775D02*
X30301D01*
X30211Y4785D02*
X30221Y4775D01*
X29971D02*
X30211D01*
X33641Y5995D02*
Y6295D01*
X30211Y4775D02*
Y4785D01*
X22761Y8135D02*
Y8255D01*
X22921D02*
X22961Y8295D01*
X22761Y8255D02*
X22921D01*
X22761D02*
Y8835D01*
X11913Y1035D02*
X11953Y1075D01*
X11441Y1035D02*
X11913D01*
X11301Y7605D02*
Y7625D01*
Y7215D02*
Y7605D01*
X29951Y4795D02*
X29971Y4775D01*
X29951Y4795D02*
Y6505D01*
X20641Y13335D02*
Y13585D01*
X19121Y13845D02*
X19361Y13605D01*
X19121Y13785D02*
Y13845D01*
X16961Y5385D02*
Y5525D01*
X15441Y6365D02*
X15441Y6365D01*
X15441Y6035D02*
Y6365D01*
X15984Y6662D02*
X16395D01*
X15891Y6755D02*
X15984Y6662D01*
X15961Y6545D02*
Y6685D01*
X15781Y6365D02*
X15961Y6545D01*
X15441Y6365D02*
X15781D01*
X15441Y6755D02*
X15891D01*
X16386Y7065D02*
X16395Y7056D01*
X15901Y7065D02*
X16386D01*
X15431Y7595D02*
X15441Y7585D01*
Y7165D02*
Y7585D01*
X16017Y7450D02*
X16395D01*
X15871Y7595D02*
X16017Y7450D01*
X15431Y7595D02*
X15871D01*
X16951Y12645D02*
X16961Y12635D01*
X17221D01*
X22471Y9125D02*
X22761Y8835D01*
X22351Y7725D02*
X22761Y8135D01*
X22349Y7725D02*
X22351D01*
X22152D02*
Y8026D01*
X22471Y8345D01*
X21956Y8321D02*
X22011Y8377D01*
Y8705D01*
X20176Y8715D02*
X20391D01*
X20161Y13065D02*
X20551D01*
X19221Y13055D02*
X19751D01*
X21181Y10185D02*
X22041Y9325D01*
X21181Y10185D02*
Y12495D01*
X20551Y13065D02*
Y13245D01*
X20641Y13335D01*
X19361Y13605D02*
X19431D01*
X21251Y12505D02*
X21501Y12755D01*
X21171Y12505D02*
X21251D01*
X18631Y13245D02*
X18821Y13055D01*
X18631Y13245D02*
X18631D01*
X22041Y9135D02*
Y9325D01*
X22031Y9125D02*
X22041Y9135D01*
X22471Y8345D02*
Y8725D01*
X21956Y7725D02*
Y8245D01*
X19199Y12073D02*
X19431Y12305D01*
X18851Y12065D02*
X18859Y12073D01*
X19199D01*
X19811Y6665D02*
X20111D01*
X20161Y6715D01*
Y7125D01*
X19801Y5725D02*
Y6185D01*
X19801Y5725D02*
X19801Y5725D01*
X19801Y5275D02*
Y5725D01*
Y5275D02*
X19801Y5275D01*
X20161Y7125D02*
X20231Y7056D01*
X26562Y19130D02*
Y19164D01*
X27054Y19425D02*
Y19848D01*
X27251Y19425D02*
Y19709D01*
Y17605D02*
Y17850D01*
X27842D02*
X28017Y17675D01*
X28291D01*
X27251Y17605D02*
X27671Y17185D01*
X27448Y17648D02*
Y17850D01*
X28137Y19130D02*
X28206D01*
X28137Y18146D02*
X28811D01*
X28921Y18035D01*
X26482Y18146D02*
X26562D01*
X26061Y17725D02*
X26482Y18146D01*
X28471Y16595D02*
X28511Y16635D01*
X28471Y16595D02*
Y16638D01*
X26801Y17435D02*
X26811Y17425D01*
X16248Y5340D02*
X16318Y5270D01*
Y5236D02*
Y5270D01*
X16953Y5385D02*
X16961D01*
X27759Y17027D02*
X28082D01*
X28471Y16638D01*
X27671Y16965D02*
Y17185D01*
Y16965D02*
X27711Y16925D01*
X27448Y17648D02*
X27911Y17185D01*
X16961Y5525D02*
X17064Y5628D01*
Y5796D01*
X16318Y5236D02*
X16419Y5135D01*
X16703D01*
X16953Y5385D01*
X3911Y11965D02*
X4271Y12325D01*
X4481Y12145D02*
Y12725D01*
X4681Y12925D01*
X4131Y9417D02*
X4411Y9137D01*
X4131Y9417D02*
Y11795D01*
X4481Y12145D01*
X28386Y21374D02*
X28505D01*
X28206Y19130D02*
X28604Y19528D01*
X28505Y21374D02*
X28604Y21275D01*
Y19528D02*
Y21275D01*
X18682Y21775D02*
X20200D01*
X34511Y4625D02*
Y4725D01*
X34371Y4485D02*
X34371D01*
X34511Y4625D01*
X35473Y2752D02*
Y3104D01*
X35511Y3142D01*
X35501Y2375D02*
Y2724D01*
X35473Y2752D02*
X35501Y2724D01*
X4271Y12325D02*
Y14005D01*
X27911Y17185D02*
X28402D01*
X16551Y8213D02*
X16868Y7896D01*
X16551Y8213D02*
Y8905D01*
X16868Y7725D02*
Y7896D01*
X20990Y8031D02*
X21168Y7853D01*
Y7725D02*
Y7853D01*
X20176Y9115D02*
Y9390D01*
X20291Y9505D01*
X20684Y9008D02*
X20781Y9105D01*
X20583Y9008D02*
X20684D01*
X20391Y8715D02*
Y8816D01*
X20583Y9008D01*
X21142Y8466D02*
X21562Y8046D01*
X20512Y8031D02*
X20990D01*
X20472Y8071D02*
X20512Y8031D01*
X20472Y8498D02*
X20669Y8694D01*
X20878Y8394D02*
X20964Y8308D01*
X21049D01*
X21365Y7992D01*
Y7725D02*
Y7992D01*
D37*
X24451Y18855D02*
X24591Y18715D01*
Y18215D02*
Y18715D01*
X23504Y16529D02*
X23510Y16535D01*
X23504Y16260D02*
Y16529D01*
X26257Y21457D02*
X26379Y21335D01*
X25276Y21457D02*
X26257D01*
X25118Y21614D02*
X25276Y21457D01*
X25039Y21614D02*
X25118D01*
X33661Y6614D02*
X35591D01*
X32402Y12756D02*
X34094D01*
X34724Y13386D02*
Y14724D01*
X34094Y12756D02*
X34724Y13386D01*
Y9331D02*
X34724Y9331D01*
Y7520D02*
Y9331D01*
X35315Y7520D02*
X35354Y7559D01*
Y9961D01*
X35010Y10305D02*
X35354Y9961D01*
X32981Y10305D02*
X35010D01*
X32021Y12376D02*
X32402Y12756D01*
X32021Y11775D02*
Y12376D01*
X33021Y7254D02*
X33661Y6614D01*
X33021Y7254D02*
Y7645D01*
X11591Y2070D02*
Y2395D01*
Y2070D02*
X11654Y2008D01*
X11929D01*
X35491Y4165D02*
Y4835D01*
X34731Y5595D02*
X35491Y4835D01*
X21218Y1532D02*
X21231Y1545D01*
X24561Y18185D02*
X24591Y18215D01*
X24561Y17705D02*
Y18185D01*
X28386Y20515D02*
Y20974D01*
X35261Y1557D02*
X35493Y1325D01*
X35711D01*
X35321Y1505D02*
X35501Y1325D01*
X35251Y1505D02*
X35321D01*
X1931Y9685D02*
X2371Y9245D01*
X1721Y9685D02*
X1931D01*
X33071Y5725D02*
X33201Y5595D01*
X33641D01*
X34441Y3145D02*
X34445Y3142D01*
X34743D01*
X27081Y4215D02*
Y4585D01*
X26931Y4735D02*
X27081Y4585D01*
X26931Y4735D02*
Y4895D01*
X14331Y775D02*
Y1075D01*
Y775D02*
X14401Y705D01*
X15111D01*
X14331Y2020D02*
Y2365D01*
X15681Y1555D02*
X15691Y1565D01*
X14121Y1555D02*
X15681D01*
X13957Y1719D02*
X14121Y1555D01*
X13957Y1719D02*
Y2020D01*
X31511Y14175D02*
X32011Y14675D01*
X30301Y14175D02*
X31511D01*
X30041Y13915D02*
X30301Y14175D01*
X30041Y13235D02*
Y13915D01*
Y13235D02*
X30611Y12665D01*
X30931D01*
X33011Y14675D02*
X33021Y14665D01*
Y13215D02*
Y14665D01*
X34731Y5995D02*
X35311D01*
X34091D02*
X34731D01*
X34091Y2315D02*
Y3285D01*
Y3725D01*
X33911Y3105D02*
X34091Y3285D01*
X33231Y3105D02*
X33911D01*
X29127Y2961D02*
X29131Y2965D01*
X27131D02*
X27137Y2959D01*
X1981Y11495D02*
Y12065D01*
Y11495D02*
X2151Y11325D01*
X2711D01*
X1721Y10085D02*
X1731Y10095D01*
X2371Y9245D02*
X2671Y9545D01*
Y9935D01*
X2711Y9975D01*
X6461Y11565D02*
Y12055D01*
Y11565D02*
X6691Y11335D01*
X7251D01*
X6461Y11535D02*
Y11565D01*
X6071Y11145D02*
X6461Y11535D01*
X6071Y9785D02*
Y11145D01*
Y9785D02*
X6171Y9685D01*
X6461D01*
Y9245D02*
Y9685D01*
X10431Y3665D02*
Y8445D01*
Y3665D02*
X11131Y2965D01*
X19874Y9897D02*
Y9918D01*
X19621Y9685D02*
X19663D01*
X19874Y9897D01*
Y9918D02*
X19931Y9975D01*
X20401D01*
X35711Y1325D02*
X35731Y1345D01*
X35741D01*
X33381Y1055D02*
X33851Y585D01*
X34391D01*
X35801Y1905D02*
X35821Y1885D01*
X27261Y15715D02*
Y16255D01*
X27536Y16530D01*
X27626D01*
X9681Y10775D02*
Y11295D01*
X9701Y11315D01*
X9681Y10775D02*
X10141D01*
X10381Y10535D01*
X27953Y20974D02*
X28386D01*
X27560D02*
X27953D01*
X27212D02*
X27560D01*
X1731Y10095D02*
Y10390D01*
X1981D01*
Y11495D01*
X34091Y2315D02*
X34441Y1965D01*
X34922D01*
X34981Y1905D01*
X35453D02*
X35801D01*
X35261Y1714D02*
X35453Y1905D01*
X35261Y1557D02*
Y1714D01*
X36290Y1978D02*
X37743D01*
X32021Y11775D02*
X32559Y11237D01*
X32981Y8955D02*
Y10305D01*
X32021Y7645D02*
X32480Y8104D01*
D38*
X14492Y17559D02*
X15394D01*
X14252Y17756D02*
X14476Y17531D01*
X14252Y17756D02*
Y18976D01*
X14449Y19173D01*
X18622D01*
X19080Y18715D01*
X19871D01*
X13571Y1075D02*
X13957D01*
X19871Y18715D02*
X20961D01*
Y19655D01*
X20781Y19835D02*
X20961Y19655D01*
X38780Y3855D02*
Y4807D01*
X38809Y4835D01*
X36151Y4845D02*
Y5950D01*
X36182Y5981D01*
X37638Y2515D02*
Y3067D01*
Y2515D02*
X38241D01*
X37051D02*
X37638D01*
X37520Y1634D02*
Y1650D01*
X37051Y1165D02*
X37520Y1634D01*
D39*
X32961Y1775D02*
X33581D01*
X32953Y1783D02*
Y1847D01*
X37904Y1978D02*
X38111Y1771D01*
X37743Y1978D02*
X37904D01*
X38111Y1296D02*
Y1771D01*
X35892Y2375D02*
X36290Y1978D01*
X35501Y2375D02*
X35892D01*
X20001Y1532D02*
X21218D01*
X17323D02*
X18150D01*
X34911Y4725D02*
X35117Y4519D01*
Y4165D02*
Y4519D01*
X33971Y1785D02*
X33972Y1785D01*
Y1235D02*
Y1785D01*
X33571Y1785D02*
X33581Y1775D01*
X34851Y1105D02*
X35271D01*
X35331Y1045D01*
Y765D02*
Y1045D01*
Y765D02*
X35471Y625D01*
X35721D01*
X31361Y3935D02*
X31561Y3735D01*
X31551Y3725D02*
X31561Y3735D01*
X31361Y3935D02*
Y4525D01*
X27331Y5185D02*
X27351Y5205D01*
X27331Y4895D02*
Y5185D01*
X12321Y1425D02*
X12327Y1419D01*
Y1075D02*
Y1419D01*
X35111Y2755D02*
Y3136D01*
X34981Y2625D02*
X35111Y2755D01*
X26131Y2805D02*
X26261Y2675D01*
Y1195D02*
Y2675D01*
X26131Y1065D02*
X26261Y1195D01*
X24151Y2805D02*
X24231Y2725D01*
Y1205D02*
Y2725D01*
X24086Y1060D02*
X24231Y1205D01*
X32131Y2965D02*
X32341Y2755D01*
Y1315D02*
Y2755D01*
X32096Y1070D02*
X32341Y1315D01*
X31865Y1070D02*
X32096D01*
X30131Y2965D02*
X30241Y2855D01*
Y1205D02*
Y2855D01*
X30091Y1055D02*
X30241Y1205D01*
X29875Y1055D02*
X30091D01*
X28131Y2965D02*
X28271Y2825D01*
Y1205D02*
Y2825D01*
X28126Y1060D02*
X28271Y1205D01*
X27885Y1060D02*
X28126D01*
X26131Y2805D02*
Y2965D01*
X25881Y1065D02*
X26131D01*
X23885Y1060D02*
X24086D01*
X31131Y2029D02*
Y2965D01*
X31117Y2015D02*
X31131Y2029D01*
X29127Y2000D02*
Y2961D01*
X27137Y2005D02*
Y2959D01*
X25133Y2010D02*
Y2963D01*
X23137Y2005D02*
Y2959D01*
X6461Y10085D02*
Y10395D01*
Y10085D02*
X7151D01*
X7251Y9985D01*
X34091Y4855D02*
Y5595D01*
X33986Y4750D02*
X34091Y4855D01*
X33231Y4305D02*
X33581Y4655D01*
X33891D01*
X26339Y25351D02*
X26418D01*
X26216Y25474D02*
X26339Y25351D01*
X25749Y25474D02*
X26216D01*
X32953Y1783D02*
X32961Y1775D01*
X34131Y4165D02*
X34139Y4157D01*
X34735D02*
X34743Y4165D01*
X34139Y4157D02*
X34735D01*
X38111Y1296D02*
X38241Y1165D01*
X34502Y1505D02*
X34851D01*
X34449Y1453D02*
X34502Y1505D01*
X34449Y1099D02*
Y1453D01*
X34981Y2365D02*
Y2625D01*
X34646Y2398D02*
X34679Y2365D01*
X34981D01*
D40*
X25105Y21074D02*
X25749D01*
D41*
X23651Y18815D02*
D03*
X6693Y8189D02*
D03*
X24371Y19635D02*
D03*
X23341Y7445D02*
D03*
X30941Y7155D02*
D03*
X30881Y8305D02*
D03*
X18150Y12913D02*
D03*
X18151Y12185D02*
D03*
X16141Y12355D02*
D03*
X15191Y8765D02*
D03*
X15871Y8775D02*
D03*
X14221Y12235D02*
D03*
X14241Y13035D02*
D03*
X11631Y12275D02*
D03*
X3780Y2677D02*
D03*
X37087Y5709D02*
D03*
Y5000D02*
D03*
X37795D02*
D03*
X37835Y4252D02*
D03*
X37087D02*
D03*
X37795Y5709D02*
D03*
D42*
X21457Y17480D02*
D03*
X23504Y16260D02*
D03*
X25079Y16811D02*
D03*
X26024Y17756D02*
D03*
X25977Y16930D02*
D03*
X24882Y19843D02*
D03*
X24331Y16260D02*
D03*
X22638Y16811D02*
D03*
X25551Y18307D02*
D03*
X24951Y18195D02*
D03*
X29521Y8105D02*
D03*
X30041Y8065D02*
D03*
X29161Y8095D02*
D03*
X20472Y8386D02*
D03*
X35044Y12515D02*
D03*
X24370Y20787D02*
D03*
X20197Y16772D02*
D03*
X19111Y17464D02*
D03*
X9646Y1457D02*
D03*
X6191Y1772D02*
D03*
X4016Y1496D02*
D03*
X1291Y4764D02*
D03*
X1496Y6181D02*
D03*
X1969Y8189D02*
D03*
X1299Y9882D02*
D03*
X1417Y10551D02*
D03*
X34213Y8622D02*
D03*
X26496Y17402D02*
D03*
X23780Y20787D02*
D03*
X25748Y6772D02*
D03*
X24331Y4055D02*
D03*
X27245Y23815D02*
D03*
X28425Y23701D02*
D03*
X17362Y5000D02*
D03*
X20276Y4764D02*
D03*
X24528Y17402D02*
D03*
X11083Y13795D02*
D03*
X12205Y13937D02*
D03*
X17520Y2165D02*
D03*
X25197Y6772D02*
D03*
X28898Y7201D02*
D03*
X28071Y6926D02*
D03*
X25749Y7130D02*
D03*
X19681Y23785D02*
D03*
X1971Y10385D02*
D03*
X1611Y13425D02*
D03*
X2941Y12435D02*
D03*
X2001Y14605D02*
D03*
X7771Y12835D02*
D03*
X11621Y13915D02*
D03*
X20956Y4100D02*
D03*
X29051Y3805D02*
D03*
X22671Y4915D02*
D03*
X6351Y5255D02*
D03*
X6121Y5525D02*
D03*
X18941Y7765D02*
D03*
X25161Y10635D02*
D03*
X25181Y11525D02*
D03*
X26081Y13215D02*
D03*
X19431Y8065D02*
D03*
X26391Y16785D02*
D03*
X24881Y17425D02*
D03*
X30301Y4775D02*
D03*
X33641Y6295D02*
D03*
X33071Y5725D02*
D03*
X34441Y3145D02*
D03*
X31551Y3725D02*
D03*
X31641Y5045D02*
D03*
X30721Y4855D02*
D03*
X29571Y5035D02*
D03*
X29761Y7695D02*
D03*
X27281Y6735D02*
D03*
X27351Y5205D02*
D03*
X25241Y9665D02*
D03*
X19431Y3825D02*
D03*
X21461Y2325D02*
D03*
X22961Y8295D02*
D03*
X11441Y1035D02*
D03*
X19551Y2345D02*
D03*
X21453Y10453D02*
D03*
X22271D02*
D03*
X26331Y11355D02*
D03*
X15121Y705D02*
D03*
X11591Y2395D02*
D03*
X12321Y1425D02*
D03*
X14331Y2365D02*
D03*
X13571Y1075D02*
D03*
X33031Y11085D02*
D03*
X29611Y10485D02*
D03*
X30951Y7785D02*
D03*
X29501Y14325D02*
D03*
X28581Y7385D02*
D03*
X30311Y6265D02*
D03*
X30191Y12025D02*
D03*
X31401Y11185D02*
D03*
X29141Y14855D02*
D03*
X27371D02*
D03*
X27441Y11095D02*
D03*
X26141Y12655D02*
D03*
X25431Y13035D02*
D03*
X21141Y9365D02*
D03*
X25451Y12725D02*
D03*
X27191Y12635D02*
D03*
X26851D02*
D03*
X29641Y12865D02*
D03*
X26381Y14955D02*
D03*
X27421Y13625D02*
D03*
X27891Y16295D02*
D03*
X28551Y12035D02*
D03*
X28261Y12635D02*
D03*
X26921Y11335D02*
D03*
X22291Y13335D02*
D03*
X19051Y14165D02*
D03*
X19121Y13785D02*
D03*
X24541Y13385D02*
D03*
X20031Y10845D02*
D03*
X14961Y3595D02*
D03*
X14351Y7995D02*
D03*
X12621Y2485D02*
D03*
X11856Y8790D02*
D03*
X12741Y3815D02*
D03*
X11671Y10795D02*
D03*
X17601Y4555D02*
D03*
X18341Y3835D02*
D03*
X15881Y3805D02*
D03*
X15851Y6135D02*
D03*
X14721Y7295D02*
D03*
X15901Y7065D02*
D03*
X30061Y11305D02*
D03*
X22731Y7755D02*
D03*
X18741Y7505D02*
D03*
X14391Y7535D02*
D03*
X9981Y7515D02*
D03*
X5361Y7735D02*
D03*
X4741Y9525D02*
D03*
X4931Y11915D02*
D03*
X17581Y5245D02*
D03*
X16571Y12725D02*
D03*
X19131Y11555D02*
D03*
X18555Y8331D02*
D03*
X17651Y11985D02*
D03*
X14801Y13355D02*
D03*
X16951Y12645D02*
D03*
X16711Y11255D02*
D03*
X7221Y8965D02*
D03*
X10161Y7775D02*
D03*
X22971Y6275D02*
D03*
X18751Y6265D02*
D03*
X14431Y6235D02*
D03*
X10021Y6255D02*
D03*
X6101Y5845D02*
D03*
X25011Y7135D02*
D03*
X24961Y5075D02*
D03*
X18091Y4315D02*
D03*
X22761Y9205D02*
D03*
X22911Y4315D02*
D03*
X24041Y8765D02*
D03*
X23891Y9065D02*
D03*
X2661Y10685D02*
D03*
X22131Y10735D02*
D03*
X6441Y8735D02*
D03*
X23951Y13905D02*
D03*
X22851Y11635D02*
D03*
X25241Y9975D02*
D03*
X25231Y10325D02*
D03*
X26501Y8955D02*
D03*
X23981Y10075D02*
D03*
X17691Y3575D02*
D03*
X8536Y3400D02*
D03*
X11991Y4985D02*
D03*
X13731Y4315D02*
D03*
X13869Y5308D02*
D03*
X12731Y4865D02*
D03*
X14281Y4605D02*
D03*
X11691Y6665D02*
D03*
X11311Y5985D02*
D03*
X10901Y7875D02*
D03*
X13931Y8375D02*
D03*
X13541Y12535D02*
D03*
X13411Y11905D02*
D03*
X12071Y12745D02*
D03*
X10741Y11055D02*
D03*
X10331Y13075D02*
D03*
X13346Y8440D02*
D03*
X16581Y13385D02*
D03*
X16001Y13925D02*
D03*
X28771Y6395D02*
D03*
X28861Y5475D02*
D03*
X25316Y5233D02*
D03*
X27301Y6435D02*
D03*
X26341Y7045D02*
D03*
X27931Y6575D02*
D03*
X27271Y8335D02*
D03*
X27081Y7185D02*
D03*
X27681Y7175D02*
D03*
X31861Y1625D02*
D03*
X31115Y1509D02*
D03*
X29875Y1659D02*
D03*
X29141Y1495D02*
D03*
X27881Y1605D02*
D03*
X27131Y1485D02*
D03*
X25881Y1585D02*
D03*
X25121Y1495D02*
D03*
X31051Y3985D02*
D03*
X26071Y6495D02*
D03*
X24571D02*
D03*
X24141Y6855D02*
D03*
X23861Y1565D02*
D03*
X23131Y1545D02*
D03*
X28571Y5335D02*
D03*
X25497Y11335D02*
D03*
X27831Y10715D02*
D03*
X27661Y11315D02*
D03*
X28241Y11575D02*
D03*
X26671Y8225D02*
D03*
X22361Y4075D02*
D03*
X17841D02*
D03*
X13451Y4065D02*
D03*
X6191Y4635D02*
D03*
X7371Y4985D02*
D03*
X7311Y4675D02*
D03*
X8321Y5495D02*
D03*
X4041Y5035D02*
D03*
X3991Y5555D02*
D03*
X2071Y5035D02*
D03*
X3561Y9435D02*
D03*
X6461Y10395D02*
D03*
X9681Y10775D02*
D03*
X8691Y12235D02*
D03*
X22171Y14125D02*
D03*
X13761Y14155D02*
D03*
X18511Y10795D02*
D03*
X15861Y13255D02*
D03*
X14731Y12535D02*
D03*
X14681Y14135D02*
D03*
X10351Y12035D02*
D03*
X10431Y14125D02*
D03*
X5401Y5295D02*
D03*
X9431Y3685D02*
D03*
X7681Y3805D02*
D03*
X7421Y5325D02*
D03*
X8051Y3805D02*
D03*
X7341Y6155D02*
D03*
X7351Y6515D02*
D03*
X6311Y7075D02*
D03*
X6811Y3735D02*
D03*
X3661Y4655D02*
D03*
X2691Y3855D02*
D03*
Y4565D02*
D03*
X2821Y5565D02*
D03*
X27113Y18402D02*
D03*
Y18874D02*
D03*
X27586Y18402D02*
D03*
Y18874D02*
D03*
X2431Y12445D02*
D03*
X4681Y13145D02*
D03*
X3461Y10485D02*
D03*
X4931Y13645D02*
D03*
X6031Y14175D02*
D03*
X9381Y14215D02*
D03*
X9011Y13195D02*
D03*
X6441Y13345D02*
D03*
X9371Y12565D02*
D03*
X6941Y12485D02*
D03*
X6781Y13825D02*
D03*
X7771Y11835D02*
D03*
X9345Y8449D02*
D03*
X2991Y6685D02*
D03*
X1801Y6845D02*
D03*
X2051Y5785D02*
D03*
X2371Y8735D02*
D03*
X4801Y2095D02*
D03*
X5801Y4355D02*
D03*
X9121D02*
D03*
X5751Y4046D02*
D03*
X8851Y4055D02*
D03*
X3221Y5585D02*
D03*
X2971Y6305D02*
D03*
X3621Y5055D02*
D03*
X5731Y8535D02*
D03*
X6481Y2975D02*
D03*
X4931Y4515D02*
D03*
X15481Y8315D02*
D03*
X18611Y7875D02*
D03*
X20291Y9505D02*
D03*
X20551Y13065D02*
D03*
X19201Y12595D02*
D03*
X19431Y12305D02*
D03*
X21721Y11375D02*
D03*
X21501Y12755D02*
D03*
X18631Y13245D02*
D03*
X18571Y13815D02*
D03*
X22471Y8345D02*
D03*
X21951Y8245D02*
D03*
X19281Y11845D02*
D03*
X25221Y8975D02*
D03*
X26821Y8505D02*
D03*
X25251Y8655D02*
D03*
X24881Y7945D02*
D03*
X26047Y8417D02*
D03*
X25737Y8359D02*
D03*
X27146Y9030D02*
D03*
X26711Y13165D02*
D03*
X20161Y7125D02*
D03*
X20370Y6121D02*
D03*
X19101Y4605D02*
D03*
X20051Y4555D02*
D03*
X22831Y5635D02*
D03*
X37638Y3067D02*
D03*
X34391Y585D02*
D03*
X33986Y4750D02*
D03*
X36182Y5981D02*
D03*
X27091Y19885D02*
D03*
X24451Y18855D02*
D03*
X27281Y20155D02*
D03*
X28031Y16755D02*
D03*
X28301Y17675D02*
D03*
X27383Y16934D02*
D03*
X28411Y17055D02*
D03*
X24981Y17835D02*
D03*
X25041Y19145D02*
D03*
X28142Y17413D02*
D03*
X29001Y22415D02*
D03*
X27611Y20625D02*
D03*
X22591Y17645D02*
D03*
X27821Y20305D02*
D03*
X23011Y18695D02*
D03*
X28675Y18581D02*
D03*
X29001Y18535D02*
D03*
X28921Y18035D02*
D03*
X27941Y19785D02*
D03*
X24231Y16945D02*
D03*
X25381Y14295D02*
D03*
X26761Y14235D02*
D03*
X26471Y16265D02*
D03*
X25741Y16235D02*
D03*
X28511Y16635D02*
D03*
X26801Y17435D02*
D03*
X23921Y16945D02*
D03*
X15981Y5185D02*
D03*
X16248Y5340D02*
D03*
X15691Y4595D02*
D03*
X12641Y5365D02*
D03*
X28271Y10865D02*
D03*
X21241Y5465D02*
D03*
X4841Y12525D02*
D03*
X11331Y4575D02*
D03*
X24591Y8195D02*
D03*
X24751Y16895D02*
D03*
X26975Y24951D02*
D03*
X28977Y25311D02*
D03*
X26418Y25351D02*
D03*
X27481Y24367D02*
D03*
X26379Y24682D02*
D03*
X27009Y23461D02*
D03*
X28150Y21847D02*
D03*
X26969Y22398D02*
D03*
X25079Y21099D02*
D03*
X27540Y22793D02*
D03*
X27205Y20981D02*
D03*
X19253Y22162D02*
D03*
Y22595D02*
D03*
Y21374D02*
D03*
X38780Y3855D02*
D03*
X37520Y1650D02*
D03*
X26339Y5784D02*
D03*
X22131Y3575D02*
D03*
X22761Y3815D02*
D03*
X23261Y3575D02*
D03*
X23623Y4485D02*
D03*
X32953Y1847D02*
D03*
X34371Y4485D02*
D03*
X35473Y2752D02*
D03*
X36260Y863D02*
D03*
X34449Y1099D02*
D03*
X35721Y625D02*
D03*
X35741Y1345D02*
D03*
X35821Y1885D02*
D03*
X34646Y2398D02*
D03*
X17323Y1532D02*
D03*
X2323Y13819D02*
D03*
X4725Y8382D02*
D03*
X25039Y21614D02*
D03*
X28386Y22913D02*
D03*
X26379Y21335D02*
D03*
X26694Y22241D02*
D03*
X3760Y8327D02*
D03*
X8228Y8268D02*
D03*
X12677Y8228D02*
D03*
X16850Y8307D02*
D03*
X20176Y8147D02*
D03*
X20878Y8394D02*
D03*
X27701Y8525D02*
D03*
X28041Y8305D02*
D03*
X28465Y9173D02*
D03*
X28386Y8622D02*
D03*
X27283Y8661D02*
D03*
X32362Y9764D02*
D03*
X31929D02*
D03*
X28976Y17638D02*
D03*
X33031Y8228D02*
D03*
D43*
X35276Y3661D02*
D03*
X34764D02*
D03*
D44*
X17361Y22155D02*
D03*
X16361Y21655D02*
D03*
X16361Y23655D02*
D03*
X17361Y24155D02*
D03*
X16361Y22655D02*
D03*
X17351Y21155D02*
D03*
X16351Y24655D02*
D03*
X17351Y23155D02*
D03*
D45*
X13951Y20605D02*
D03*
Y25205D02*
D03*
D46*
X15691Y1565D02*
D03*
X32021Y13215D02*
D03*
X31969Y8898D02*
D03*
X32008Y10276D02*
D03*
X33021Y7645D02*
D03*
X32021Y11775D02*
D03*
X32011Y14675D02*
D03*
X9131Y2965D02*
D03*
X21231Y1545D02*
D03*
X15261Y15715D02*
D03*
X27081Y4215D02*
D03*
D47*
X16691Y1565D02*
D03*
X33021Y13215D02*
D03*
X32968Y8898D02*
D03*
X33008Y10276D02*
D03*
X32021Y7645D02*
D03*
X33021Y11775D02*
D03*
X33011Y14675D02*
D03*
X30984Y14709D02*
D03*
Y13709D02*
D03*
Y12709D02*
D03*
Y11709D02*
D03*
X10131Y2965D02*
D03*
X11131D02*
D03*
X12131D02*
D03*
X13131D02*
D03*
X14131D02*
D03*
X15131D02*
D03*
X16131D02*
D03*
X17131D02*
D03*
X18131D02*
D03*
X19131D02*
D03*
X20131D02*
D03*
X21131D02*
D03*
X22131D02*
D03*
X23131D02*
D03*
X24131D02*
D03*
X25131D02*
D03*
X26131D02*
D03*
X27131D02*
D03*
X28131D02*
D03*
X29131D02*
D03*
X30131D02*
D03*
X31131D02*
D03*
X32131D02*
D03*
X22231Y1545D02*
D03*
X16261Y15715D02*
D03*
X17261D02*
D03*
X18261D02*
D03*
X19261D02*
D03*
X20261D02*
D03*
X21261D02*
D03*
X22261D02*
D03*
X23261D02*
D03*
X24261D02*
D03*
X25261D02*
D03*
X26261D02*
D03*
X27261D02*
D03*
X23361Y11685D02*
D03*
Y10685D02*
D03*
Y9685D02*
D03*
Y8685D02*
D03*
X28081Y4215D02*
D03*
D48*
X21660Y6761D02*
D03*
X17360Y6761D02*
D03*
X13051Y6755D02*
D03*
X8680Y6751D02*
D03*
X4321Y6785D02*
D03*
X34134Y13937D02*
D03*
X35315Y13976D02*
D03*
X34724Y9331D02*
D03*
X36788Y8346D02*
D03*
X13425Y6378D02*
D03*
X12677D02*
D03*
Y7205D02*
D03*
X13465D02*
D03*
X21260Y6299D02*
D03*
X21220Y7165D02*
D03*
X22126D02*
D03*
Y6378D02*
D03*
X8268Y7205D02*
D03*
X9094D02*
D03*
X8268Y6339D02*
D03*
X9094D02*
D03*
X16929Y7205D02*
D03*
X16968Y6339D02*
D03*
X17756Y7165D02*
D03*
Y6339D02*
D03*
X4724Y7165D02*
D03*
X3898D02*
D03*
Y6378D02*
D03*
X4724Y6339D02*
D03*
D49*
X15394Y17531D02*
D03*
X15894D02*
D03*
X16394D02*
D03*
X16894D02*
D03*
X17394D02*
D03*
X15394Y18032D02*
D03*
X15894Y18031D02*
D03*
X16394Y18032D02*
D03*
X16894D02*
D03*
X17394D02*
D03*
D50*
X30984Y10709D02*
D03*
X23361Y12685D02*
D03*
D51*
X2402Y2677D02*
D03*
D52*
X23281Y19875D02*
D03*
X20781Y19835D02*
D03*
D53*
X19871Y18715D02*
D03*
X20961D02*
D03*
M02*
