%FSLAX24Y24*%
%MOIN*%
G70*
G01*
G75*
G04 Layer_Color=16711935*
%ADD10R,0.0250X0.0200*%
%ADD11R,0.0362X0.0984*%
%ADD12R,0.0276X0.0394*%
%ADD13R,0.0689X0.1181*%
%ADD14R,0.0984X0.0866*%
%ADD15R,0.0200X0.0250*%
%ADD16R,0.0276X0.0394*%
%ADD17R,0.0315X0.0315*%
%ADD18R,0.0669X0.0492*%
%ADD19R,0.0300X0.0300*%
%ADD20R,0.0906X0.0906*%
%ADD21R,0.0600X0.0600*%
%ADD22R,0.0472X0.0354*%
%ADD23R,0.0472X0.0354*%
%ADD24R,0.0315X0.0315*%
%ADD25R,0.0236X0.0472*%
%ADD26O,0.0315X0.0098*%
%ADD27O,0.0098X0.0315*%
%ADD28O,0.0276X0.0098*%
%ADD29O,0.0098X0.0276*%
%ADD30R,0.1299X0.1299*%
%ADD31R,0.0750X0.0400*%
%ADD32R,0.1358X0.1358*%
%ADD33O,0.0984X0.0276*%
%ADD34C,0.0120*%
%ADD35C,0.0100*%
%ADD36C,0.0080*%
%ADD37C,0.0150*%
%ADD38C,0.0300*%
%ADD39C,0.0200*%
%ADD40C,0.0276*%
%ADD41C,0.0600*%
%ADD42C,0.0220*%
%ADD43C,0.0350*%
%ADD44C,0.0700*%
%ADD45C,0.1100*%
%ADD46R,0.0591X0.0591*%
%ADD47C,0.0591*%
%ADD48C,0.0320*%
%ADD49C,0.0354*%
%ADD50R,0.0591X0.0591*%
%ADD51R,0.0600X0.0600*%
%ADD52C,0.0710*%
%ADD53C,0.0900*%
%ADD54C,0.0400*%
G04:AMPARAMS|DCode=55|XSize=42mil|YSize=42mil|CornerRadius=0mil|HoleSize=0mil|Usage=FLASHONLY|Rotation=0.000|XOffset=0mil|YOffset=0mil|HoleType=Round|Shape=Relief|Width=5mil|Gap=5mil|Entries=4|*
%AMTHD55*
7,0,0,0.0420,0.0320,0.0050,45*
%
%ADD55THD55*%
%ADD56C,0.0420*%
%ADD57C,0.0500*%
%ADD58C,0.1400*%
%ADD59C,0.0654*%
%ADD60C,0.0497*%
G04:AMPARAMS|DCode=61|XSize=49.685mil|YSize=49.685mil|CornerRadius=0mil|HoleSize=0mil|Usage=FLASHONLY|Rotation=0.000|XOffset=0mil|YOffset=0mil|HoleType=Round|Shape=Relief|Width=5mil|Gap=5mil|Entries=4|*
%AMTHD61*
7,0,0,0.0497,0.0397,0.0050,45*
%
%ADD61THD61*%
G04:AMPARAMS|DCode=62|XSize=65.433mil|YSize=65.433mil|CornerRadius=0mil|HoleSize=0mil|Usage=FLASHONLY|Rotation=0.000|XOffset=0mil|YOffset=0mil|HoleType=Round|Shape=Relief|Width=5mil|Gap=5mil|Entries=4|*
%AMTHD62*
7,0,0,0.0654,0.0554,0.0050,45*
%
%ADD62THD62*%
G04:AMPARAMS|DCode=63|XSize=60mil|YSize=60mil|CornerRadius=0mil|HoleSize=0mil|Usage=FLASHONLY|Rotation=0.000|XOffset=0mil|YOffset=0mil|HoleType=Round|Shape=Relief|Width=5mil|Gap=5mil|Entries=4|*
%AMTHD63*
7,0,0,0.0600,0.0500,0.0050,45*
%
%ADD63THD63*%
%ADD64C,0.0770*%
%ADD65C,0.0480*%
%ADD66C,0.0090*%
G04:AMPARAMS|DCode=67|XSize=50mil|YSize=50mil|CornerRadius=0mil|HoleSize=0mil|Usage=FLASHONLY|Rotation=0.000|XOffset=0mil|YOffset=0mil|HoleType=Round|Shape=Relief|Width=5mil|Gap=5mil|Entries=4|*
%AMTHD67*
7,0,0,0.0500,0.0400,0.0050,45*
%
%ADD67THD67*%
G04:AMPARAMS|DCode=68|XSize=48mil|YSize=48mil|CornerRadius=0mil|HoleSize=0mil|Usage=FLASHONLY|Rotation=0.000|XOffset=0mil|YOffset=0mil|HoleType=Round|Shape=Relief|Width=5mil|Gap=5mil|Entries=4|*
%AMTHD68*
7,0,0,0.0480,0.0380,0.0050,45*
%
%ADD68THD68*%
%ADD69R,0.0709X0.0394*%
%ADD70R,0.0472X0.0551*%
%ADD71R,0.0394X0.0394*%
%ADD72R,0.0866X0.0984*%
%ADD73R,0.0551X0.0472*%
%ADD74O,0.0709X0.0118*%
%ADD75O,0.0118X0.0709*%
%ADD76R,0.0360X0.0360*%
%ADD77R,0.0360X0.0500*%
%ADD78R,0.0315X0.0354*%
%ADD79R,0.0300X0.0300*%
%ADD80R,0.0709X0.0433*%
%ADD81C,0.0040*%
%ADD82C,0.0098*%
%ADD83C,0.0060*%
%ADD84C,0.0050*%
%ADD85C,0.0197*%
%ADD86C,0.0079*%
%ADD87C,0.0157*%
%ADD88C,0.0030*%
%ADD89C,0.0059*%
%ADD90R,0.0330X0.0280*%
%ADD91R,0.0442X0.1064*%
%ADD92R,0.0356X0.0474*%
%ADD93R,0.0769X0.1261*%
%ADD94R,0.1064X0.0946*%
%ADD95R,0.0280X0.0330*%
%ADD96R,0.0356X0.0474*%
%ADD97R,0.0395X0.0395*%
%ADD98R,0.0749X0.0572*%
%ADD99R,0.0380X0.0380*%
%ADD100R,0.0986X0.0986*%
%ADD101R,0.0680X0.0680*%
%ADD102R,0.0552X0.0434*%
%ADD103R,0.0552X0.0434*%
%ADD104R,0.0395X0.0395*%
%ADD105R,0.0316X0.0552*%
%ADD106O,0.0395X0.0178*%
%ADD107O,0.0178X0.0395*%
%ADD108O,0.0356X0.0178*%
%ADD109O,0.0178X0.0356*%
%ADD110R,0.1379X0.1379*%
%ADD111R,0.0830X0.0480*%
%ADD112R,0.1438X0.1438*%
%ADD113O,0.1064X0.0356*%
%ADD114C,0.0680*%
%ADD115C,0.0300*%
%ADD116C,0.0430*%
%ADD117C,0.0780*%
%ADD118C,0.1180*%
%ADD119R,0.0671X0.0671*%
%ADD120C,0.0671*%
%ADD121C,0.0400*%
%ADD122C,0.0434*%
%ADD123R,0.0671X0.0671*%
%ADD124R,0.0680X0.0680*%
%ADD125C,0.0790*%
%ADD126C,0.0980*%
%ADD127R,0.0789X0.0474*%
%ADD128R,0.0552X0.0631*%
%ADD129R,0.0474X0.0474*%
%ADD130R,0.0946X0.1064*%
%ADD131R,0.0631X0.0552*%
%ADD132O,0.0789X0.0198*%
%ADD133O,0.0198X0.0789*%
%ADD134R,0.0440X0.0440*%
%ADD135R,0.0440X0.0580*%
%ADD136R,0.0395X0.0434*%
%ADD137R,0.0380X0.0380*%
%ADD138R,0.0789X0.0513*%
D90*
X12351Y5155D02*
D03*
X12751Y5155D02*
D03*
X11301Y5625D02*
D03*
X10901D02*
D03*
X7731Y5335D02*
D03*
X8131D02*
D03*
X13231Y4995D02*
D03*
X13631D02*
D03*
X10911Y6205D02*
D03*
X11311D02*
D03*
X10901Y6605D02*
D03*
X11301D02*
D03*
X10901Y7015D02*
D03*
X11301D02*
D03*
X10901Y7415D02*
D03*
X11301D02*
D03*
X7731Y4965D02*
D03*
X8131D02*
D03*
X6611Y5615D02*
D03*
X7011D02*
D03*
X6621Y6065D02*
D03*
X7021D02*
D03*
X6611Y6505D02*
D03*
X7011D02*
D03*
X6611Y7425D02*
D03*
X7011D02*
D03*
X6611Y6915D02*
D03*
X7011D02*
D03*
X2821Y5335D02*
D03*
X3221D02*
D03*
X2071Y6595D02*
D03*
X2471D02*
D03*
X2901Y4905D02*
D03*
X2501D02*
D03*
X2071Y7085D02*
D03*
X2471D02*
D03*
X2061Y6255D02*
D03*
X2461D02*
D03*
X3641Y5325D02*
D03*
X4041D02*
D03*
X4941Y5335D02*
D03*
X4541D02*
D03*
X4531Y4875D02*
D03*
X4931D02*
D03*
X16581Y4985D02*
D03*
X16981D02*
D03*
X18521Y4965D02*
D03*
X18121D02*
D03*
X30231Y11715D02*
D03*
X29831D02*
D03*
X25361Y6299D02*
D03*
X24961D02*
D03*
X32172Y9409D02*
D03*
X31772D02*
D03*
X30891Y5815D02*
D03*
X31291D02*
D03*
X25354Y5866D02*
D03*
X24954D02*
D03*
X32301Y3735D02*
D03*
X31901D02*
D03*
X29921Y8605D02*
D03*
X30321D02*
D03*
X30261Y10695D02*
D03*
X29861D02*
D03*
X7021Y5255D02*
D03*
X6621D02*
D03*
X2081Y5325D02*
D03*
X2481D02*
D03*
X26171Y19055D02*
D03*
X26571D02*
D03*
X26254Y21020D02*
D03*
X26654D02*
D03*
X30321Y5135D02*
D03*
X30721D02*
D03*
X15041Y6555D02*
D03*
X15441D02*
D03*
X15031Y5675D02*
D03*
X15431D02*
D03*
X15041Y6965D02*
D03*
X15441D02*
D03*
X15031Y7385D02*
D03*
X15431D02*
D03*
X19401Y7115D02*
D03*
X19801D02*
D03*
X21562Y5146D02*
D03*
X21162D02*
D03*
X22521Y5265D02*
D03*
X22121D02*
D03*
D92*
X12347Y4525D02*
D03*
X12721D02*
D03*
X13095D02*
D03*
X12347Y3580D02*
D03*
X13095D02*
D03*
X7307Y4345D02*
D03*
X7681D02*
D03*
X8055D02*
D03*
X7307Y3400D02*
D03*
X8055Y3400D02*
D03*
X3653Y4340D02*
D03*
X4027D02*
D03*
X4401D02*
D03*
X3653Y3395D02*
D03*
X4401D02*
D03*
X21071Y4590D02*
D03*
X21445Y4590D02*
D03*
X21819D02*
D03*
X21071Y3645D02*
D03*
X21819D02*
D03*
X16607Y4545D02*
D03*
X16981D02*
D03*
X17355D02*
D03*
X16607Y3600D02*
D03*
X17355D02*
D03*
D95*
X27301Y6145D02*
D03*
Y5745D02*
D03*
X20511Y4055D02*
D03*
Y4455D02*
D03*
X28791Y5735D02*
D03*
Y6135D02*
D03*
X11721Y4115D02*
D03*
Y4515D02*
D03*
X6541Y3735D02*
D03*
Y4135D02*
D03*
X3001Y3885D02*
D03*
Y4285D02*
D03*
X14041Y4595D02*
D03*
Y4995D02*
D03*
X8581Y4905D02*
D03*
Y5305D02*
D03*
X33071Y4875D02*
D03*
Y5275D02*
D03*
X33121Y6445D02*
D03*
Y6845D02*
D03*
X25775Y6279D02*
D03*
Y5879D02*
D03*
X28291Y5745D02*
D03*
Y6145D02*
D03*
X27717Y24367D02*
D03*
Y23967D02*
D03*
X27363Y24951D02*
D03*
Y25351D02*
D03*
X28150Y23061D02*
D03*
Y23461D02*
D03*
X27717Y22201D02*
D03*
Y22601D02*
D03*
X28583Y22595D02*
D03*
Y22195D02*
D03*
X28150Y22595D02*
D03*
Y22195D02*
D03*
X27323Y23467D02*
D03*
Y23067D02*
D03*
X27757Y23467D02*
D03*
Y23067D02*
D03*
X27811Y6145D02*
D03*
Y5745D02*
D03*
X4094Y10584D02*
D03*
Y10984D02*
D03*
X28150Y24367D02*
D03*
Y23967D02*
D03*
X28583D02*
D03*
Y24367D02*
D03*
X28662Y25351D02*
D03*
Y24951D02*
D03*
X28229Y25357D02*
D03*
Y24957D02*
D03*
X27796D02*
D03*
Y25357D02*
D03*
X28583Y23461D02*
D03*
Y23061D02*
D03*
X15941Y4125D02*
D03*
Y4525D02*
D03*
X26694Y21526D02*
D03*
Y21926D02*
D03*
D114*
X23651Y18815D02*
D03*
X6693Y8189D02*
D03*
X24371Y19635D02*
D03*
X23341Y7445D02*
D03*
X30941Y7155D02*
D03*
X30881Y8305D02*
D03*
X18150Y12913D02*
D03*
X18151Y12185D02*
D03*
X16141Y12355D02*
D03*
X15191Y8765D02*
D03*
X15871Y8775D02*
D03*
X14221Y12235D02*
D03*
X14241Y13035D02*
D03*
X11631Y12275D02*
D03*
X3780Y2677D02*
D03*
X37087Y5709D02*
D03*
Y5000D02*
D03*
X37795D02*
D03*
X37835Y4252D02*
D03*
X37087D02*
D03*
X37795Y5709D02*
D03*
D115*
X21457Y17480D02*
D03*
X23504Y16260D02*
D03*
X25079Y16811D02*
D03*
X26024Y17756D02*
D03*
X25977Y16930D02*
D03*
X24882Y19843D02*
D03*
X24331Y16260D02*
D03*
X22638Y16811D02*
D03*
X25551Y18307D02*
D03*
X24951Y18195D02*
D03*
X29521Y8105D02*
D03*
X30041Y8065D02*
D03*
X29161Y8095D02*
D03*
X20472Y8386D02*
D03*
X35044Y12515D02*
D03*
X24370Y20787D02*
D03*
X20197Y16772D02*
D03*
X19111Y17464D02*
D03*
X9646Y1457D02*
D03*
X6191Y1772D02*
D03*
X4016Y1496D02*
D03*
X1291Y4764D02*
D03*
X1496Y6181D02*
D03*
X1969Y8189D02*
D03*
X1299Y9882D02*
D03*
X1417Y10551D02*
D03*
X34213Y8622D02*
D03*
X26496Y17402D02*
D03*
X23780Y20787D02*
D03*
X25748Y6772D02*
D03*
X24331Y4055D02*
D03*
X27245Y23815D02*
D03*
X28425Y23701D02*
D03*
X17362Y5000D02*
D03*
X20276Y4764D02*
D03*
X24528Y17402D02*
D03*
X11083Y13795D02*
D03*
X12205Y13937D02*
D03*
X17520Y2165D02*
D03*
X25197Y6772D02*
D03*
X28898Y7201D02*
D03*
X28071Y6926D02*
D03*
X25749Y7130D02*
D03*
X19681Y23785D02*
D03*
X1971Y10385D02*
D03*
X1611Y13425D02*
D03*
X2941Y12435D02*
D03*
X2001Y14605D02*
D03*
X7771Y12835D02*
D03*
X11621Y13915D02*
D03*
X20956Y4100D02*
D03*
X29051Y3805D02*
D03*
X22671Y4915D02*
D03*
X6351Y5255D02*
D03*
X6121Y5525D02*
D03*
X18941Y7765D02*
D03*
X25161Y10635D02*
D03*
X25181Y11525D02*
D03*
X26081Y13215D02*
D03*
X19431Y8065D02*
D03*
X26391Y16785D02*
D03*
X24881Y17425D02*
D03*
X30301Y4775D02*
D03*
X33641Y6295D02*
D03*
X33071Y5725D02*
D03*
X34441Y3145D02*
D03*
X31551Y3725D02*
D03*
X31641Y5045D02*
D03*
X30721Y4855D02*
D03*
X29571Y5035D02*
D03*
X29761Y7695D02*
D03*
X27281Y6735D02*
D03*
X27351Y5205D02*
D03*
X25241Y9665D02*
D03*
X19431Y3825D02*
D03*
X21461Y2325D02*
D03*
X22961Y8295D02*
D03*
X11441Y1035D02*
D03*
X19551Y2345D02*
D03*
X21453Y10453D02*
D03*
X22271D02*
D03*
X26331Y11355D02*
D03*
X15121Y705D02*
D03*
X11591Y2395D02*
D03*
X12321Y1425D02*
D03*
X14331Y2365D02*
D03*
X13571Y1075D02*
D03*
X33031Y11085D02*
D03*
X29611Y10485D02*
D03*
X30951Y7785D02*
D03*
X29501Y14325D02*
D03*
X28581Y7385D02*
D03*
X30311Y6265D02*
D03*
X30191Y12025D02*
D03*
X31401Y11185D02*
D03*
X29141Y14855D02*
D03*
X27371D02*
D03*
X27441Y11095D02*
D03*
X26141Y12655D02*
D03*
X25431Y13035D02*
D03*
X21141Y9365D02*
D03*
X25451Y12725D02*
D03*
X27191Y12635D02*
D03*
X26851D02*
D03*
X29641Y12865D02*
D03*
X26381Y14955D02*
D03*
X27421Y13625D02*
D03*
X27891Y16295D02*
D03*
X28551Y12035D02*
D03*
X28261Y12635D02*
D03*
X26921Y11335D02*
D03*
X22291Y13335D02*
D03*
X19051Y14165D02*
D03*
X19121Y13785D02*
D03*
X24541Y13385D02*
D03*
X20031Y10845D02*
D03*
X14961Y3595D02*
D03*
X14351Y7995D02*
D03*
X12621Y2485D02*
D03*
X11856Y8790D02*
D03*
X12741Y3815D02*
D03*
X11671Y10795D02*
D03*
X17601Y4555D02*
D03*
X18341Y3835D02*
D03*
X15881Y3805D02*
D03*
X15851Y6135D02*
D03*
X14721Y7295D02*
D03*
X15901Y7065D02*
D03*
X30061Y11305D02*
D03*
X22731Y7755D02*
D03*
X18741Y7505D02*
D03*
X14391Y7535D02*
D03*
X9981Y7515D02*
D03*
X5361Y7735D02*
D03*
X4741Y9525D02*
D03*
X4931Y11915D02*
D03*
X17581Y5245D02*
D03*
X16571Y12725D02*
D03*
X19131Y11555D02*
D03*
X18555Y8331D02*
D03*
X17651Y11985D02*
D03*
X14801Y13355D02*
D03*
X16951Y12645D02*
D03*
X16711Y11255D02*
D03*
X7221Y8965D02*
D03*
X10161Y7775D02*
D03*
X22971Y6275D02*
D03*
X18751Y6265D02*
D03*
X14431Y6235D02*
D03*
X10021Y6255D02*
D03*
X6101Y5845D02*
D03*
X25011Y7135D02*
D03*
X24961Y5075D02*
D03*
X18091Y4315D02*
D03*
X22761Y9205D02*
D03*
X22911Y4315D02*
D03*
X24041Y8765D02*
D03*
X23891Y9065D02*
D03*
X2661Y10685D02*
D03*
X22131Y10735D02*
D03*
X6441Y8735D02*
D03*
X23951Y13905D02*
D03*
X22851Y11635D02*
D03*
X25241Y9975D02*
D03*
X25231Y10325D02*
D03*
X26501Y8955D02*
D03*
X23981Y10075D02*
D03*
X17691Y3575D02*
D03*
X8536Y3400D02*
D03*
X11991Y4985D02*
D03*
X13731Y4315D02*
D03*
X13869Y5308D02*
D03*
X12731Y4865D02*
D03*
X14281Y4605D02*
D03*
X11691Y6665D02*
D03*
X11311Y5985D02*
D03*
X10901Y7875D02*
D03*
X13931Y8375D02*
D03*
X13541Y12535D02*
D03*
X13411Y11905D02*
D03*
X12071Y12745D02*
D03*
X10741Y11055D02*
D03*
X10331Y13075D02*
D03*
X13346Y8440D02*
D03*
X16581Y13385D02*
D03*
X16001Y13925D02*
D03*
X28771Y6395D02*
D03*
X28861Y5475D02*
D03*
X25316Y5233D02*
D03*
X27301Y6435D02*
D03*
X26341Y7045D02*
D03*
X27931Y6575D02*
D03*
X27271Y8335D02*
D03*
X27081Y7185D02*
D03*
X27681Y7175D02*
D03*
X31861Y1625D02*
D03*
X31115Y1509D02*
D03*
X29875Y1659D02*
D03*
X29141Y1495D02*
D03*
X27881Y1605D02*
D03*
X27131Y1485D02*
D03*
X25881Y1585D02*
D03*
X25121Y1495D02*
D03*
X31051Y3985D02*
D03*
X26071Y6495D02*
D03*
X24571D02*
D03*
X24141Y6855D02*
D03*
X23861Y1565D02*
D03*
X23131Y1545D02*
D03*
X28571Y5335D02*
D03*
X25497Y11335D02*
D03*
X27831Y10715D02*
D03*
X27661Y11315D02*
D03*
X28241Y11575D02*
D03*
X26671Y8225D02*
D03*
X22361Y4075D02*
D03*
X17841D02*
D03*
X13451Y4065D02*
D03*
X6191Y4635D02*
D03*
X7371Y4985D02*
D03*
X7311Y4675D02*
D03*
X8321Y5495D02*
D03*
X4041Y5035D02*
D03*
X3991Y5555D02*
D03*
X2071Y5035D02*
D03*
X3561Y9435D02*
D03*
X6461Y10395D02*
D03*
X9681Y10775D02*
D03*
X8691Y12235D02*
D03*
X22171Y14125D02*
D03*
X13761Y14155D02*
D03*
X18511Y10795D02*
D03*
X15861Y13255D02*
D03*
X14731Y12535D02*
D03*
X14681Y14135D02*
D03*
X10351Y12035D02*
D03*
X10431Y14125D02*
D03*
X5401Y5295D02*
D03*
X9431Y3685D02*
D03*
X7681Y3805D02*
D03*
X7421Y5325D02*
D03*
X8051Y3805D02*
D03*
X7341Y6155D02*
D03*
X7351Y6515D02*
D03*
X6311Y7075D02*
D03*
X6811Y3735D02*
D03*
X3661Y4655D02*
D03*
X2691Y3855D02*
D03*
Y4565D02*
D03*
X2821Y5565D02*
D03*
X27113Y18402D02*
D03*
Y18874D02*
D03*
X27586Y18402D02*
D03*
Y18874D02*
D03*
X2431Y12445D02*
D03*
X4681Y13145D02*
D03*
X3461Y10485D02*
D03*
X4931Y13645D02*
D03*
X6031Y14175D02*
D03*
X9381Y14215D02*
D03*
X9011Y13195D02*
D03*
X6441Y13345D02*
D03*
X9371Y12565D02*
D03*
X6941Y12485D02*
D03*
X6781Y13825D02*
D03*
X7771Y11835D02*
D03*
X9345Y8449D02*
D03*
X2991Y6685D02*
D03*
X1801Y6845D02*
D03*
X2051Y5785D02*
D03*
X2371Y8735D02*
D03*
X4801Y2095D02*
D03*
X5801Y4355D02*
D03*
X9121D02*
D03*
X5751Y4046D02*
D03*
X8851Y4055D02*
D03*
X3221Y5585D02*
D03*
X2971Y6305D02*
D03*
X3621Y5055D02*
D03*
X5731Y8535D02*
D03*
X6481Y2975D02*
D03*
X4931Y4515D02*
D03*
X15481Y8315D02*
D03*
X18611Y7875D02*
D03*
X20291Y9505D02*
D03*
X20551Y13065D02*
D03*
X19201Y12595D02*
D03*
X19431Y12305D02*
D03*
X21721Y11375D02*
D03*
X21501Y12755D02*
D03*
X18631Y13245D02*
D03*
X18571Y13815D02*
D03*
X22471Y8345D02*
D03*
X21951Y8245D02*
D03*
X19281Y11845D02*
D03*
X25221Y8975D02*
D03*
X26821Y8505D02*
D03*
X25251Y8655D02*
D03*
X24881Y7945D02*
D03*
X26047Y8417D02*
D03*
X25737Y8359D02*
D03*
X27146Y9030D02*
D03*
X26711Y13165D02*
D03*
X20161Y7125D02*
D03*
X20370Y6121D02*
D03*
X19101Y4605D02*
D03*
X20051Y4555D02*
D03*
X22831Y5635D02*
D03*
X37638Y3067D02*
D03*
X34391Y585D02*
D03*
X33986Y4750D02*
D03*
X36182Y5981D02*
D03*
X27091Y19885D02*
D03*
X24451Y18855D02*
D03*
X27281Y20155D02*
D03*
X28031Y16755D02*
D03*
X28301Y17675D02*
D03*
X27383Y16934D02*
D03*
X28411Y17055D02*
D03*
X24981Y17835D02*
D03*
X25041Y19145D02*
D03*
X28142Y17413D02*
D03*
X29001Y22415D02*
D03*
X27611Y20625D02*
D03*
X22591Y17645D02*
D03*
X27821Y20305D02*
D03*
X23011Y18695D02*
D03*
X28675Y18581D02*
D03*
X29001Y18535D02*
D03*
X28921Y18035D02*
D03*
X27941Y19785D02*
D03*
X24231Y16945D02*
D03*
X25381Y14295D02*
D03*
X26761Y14235D02*
D03*
X26471Y16265D02*
D03*
X25741Y16235D02*
D03*
X28511Y16635D02*
D03*
X26801Y17435D02*
D03*
X23921Y16945D02*
D03*
X15981Y5185D02*
D03*
X16248Y5340D02*
D03*
X15691Y4595D02*
D03*
X12641Y5365D02*
D03*
X28271Y10865D02*
D03*
X21241Y5465D02*
D03*
X4841Y12525D02*
D03*
X11331Y4575D02*
D03*
X24591Y8195D02*
D03*
X24751Y16895D02*
D03*
X26975Y24951D02*
D03*
X28977Y25311D02*
D03*
X26418Y25351D02*
D03*
X27481Y24367D02*
D03*
X26379Y24682D02*
D03*
X27009Y23461D02*
D03*
X28150Y21847D02*
D03*
X26969Y22398D02*
D03*
X25079Y21099D02*
D03*
X27540Y22793D02*
D03*
X27205Y20981D02*
D03*
X19253Y22162D02*
D03*
Y22595D02*
D03*
Y21374D02*
D03*
X38780Y3855D02*
D03*
X37520Y1650D02*
D03*
X26339Y5784D02*
D03*
X22131Y3575D02*
D03*
X22761Y3815D02*
D03*
X23261Y3575D02*
D03*
X23623Y4485D02*
D03*
X32953Y1847D02*
D03*
X34371Y4485D02*
D03*
X35473Y2752D02*
D03*
X36260Y863D02*
D03*
X34449Y1099D02*
D03*
X35721Y625D02*
D03*
X35741Y1345D02*
D03*
X35821Y1885D02*
D03*
X34646Y2398D02*
D03*
X17323Y1532D02*
D03*
X2323Y13819D02*
D03*
X4725Y8382D02*
D03*
X25039Y21614D02*
D03*
X28386Y22913D02*
D03*
X26379Y21335D02*
D03*
X26694Y22241D02*
D03*
X3760Y8327D02*
D03*
X8228Y8268D02*
D03*
X12677Y8228D02*
D03*
X16850Y8307D02*
D03*
X20176Y8147D02*
D03*
X20878Y8394D02*
D03*
X27701Y8525D02*
D03*
X28041Y8305D02*
D03*
X28465Y9173D02*
D03*
X28386Y8622D02*
D03*
X27283Y8661D02*
D03*
X32362Y9764D02*
D03*
X31929D02*
D03*
X28976Y17638D02*
D03*
X33031Y8228D02*
D03*
D116*
X35276Y3661D02*
D03*
X34764D02*
D03*
D117*
X17361Y22155D02*
D03*
X16361Y21655D02*
D03*
X16361Y23655D02*
D03*
X17361Y24155D02*
D03*
X16361Y22655D02*
D03*
X17351Y21155D02*
D03*
X16351Y24655D02*
D03*
X17351Y23155D02*
D03*
D118*
X13951Y20605D02*
D03*
Y25205D02*
D03*
D119*
X15691Y1565D02*
D03*
X32021Y13215D02*
D03*
X31969Y8898D02*
D03*
X32008Y10276D02*
D03*
X33021Y7645D02*
D03*
X32021Y11775D02*
D03*
X32011Y14675D02*
D03*
X9131Y2965D02*
D03*
X21231Y1545D02*
D03*
X15261Y15715D02*
D03*
X27081Y4215D02*
D03*
D120*
X16691Y1565D02*
D03*
X33021Y13215D02*
D03*
X32968Y8898D02*
D03*
X33008Y10276D02*
D03*
X32021Y7645D02*
D03*
X33021Y11775D02*
D03*
X33011Y14675D02*
D03*
X30984Y14709D02*
D03*
Y13709D02*
D03*
Y12709D02*
D03*
Y11709D02*
D03*
X10131Y2965D02*
D03*
X11131D02*
D03*
X12131D02*
D03*
X13131D02*
D03*
X14131D02*
D03*
X15131D02*
D03*
X16131D02*
D03*
X17131D02*
D03*
X18131D02*
D03*
X19131D02*
D03*
X20131D02*
D03*
X21131D02*
D03*
X22131D02*
D03*
X23131D02*
D03*
X24131D02*
D03*
X25131D02*
D03*
X26131D02*
D03*
X27131D02*
D03*
X28131D02*
D03*
X29131D02*
D03*
X30131D02*
D03*
X31131D02*
D03*
X32131D02*
D03*
X22231Y1545D02*
D03*
X16261Y15715D02*
D03*
X17261D02*
D03*
X18261D02*
D03*
X19261D02*
D03*
X20261D02*
D03*
X21261D02*
D03*
X22261D02*
D03*
X23261D02*
D03*
X24261D02*
D03*
X25261D02*
D03*
X26261D02*
D03*
X27261D02*
D03*
X23361Y11685D02*
D03*
Y10685D02*
D03*
Y9685D02*
D03*
Y8685D02*
D03*
X28081Y4215D02*
D03*
D121*
X21660Y6761D02*
D03*
X17360Y6761D02*
D03*
X13051Y6755D02*
D03*
X8680Y6751D02*
D03*
X4321Y6785D02*
D03*
X34134Y13937D02*
D03*
X35315Y13976D02*
D03*
X34724Y9331D02*
D03*
X36788Y8346D02*
D03*
X13425Y6378D02*
D03*
X12677D02*
D03*
Y7205D02*
D03*
X13465D02*
D03*
X21260Y6299D02*
D03*
X21220Y7165D02*
D03*
X22126D02*
D03*
Y6378D02*
D03*
X8268Y7205D02*
D03*
X9094D02*
D03*
X8268Y6339D02*
D03*
X9094D02*
D03*
X16929Y7205D02*
D03*
X16968Y6339D02*
D03*
X17756Y7165D02*
D03*
Y6339D02*
D03*
X4724Y7165D02*
D03*
X3898D02*
D03*
Y6378D02*
D03*
X4724Y6339D02*
D03*
D122*
X15394Y17531D02*
D03*
X15894D02*
D03*
X16394D02*
D03*
X16894D02*
D03*
X17394D02*
D03*
X15394Y18032D02*
D03*
X15894Y18031D02*
D03*
X16394Y18032D02*
D03*
X16894D02*
D03*
X17394D02*
D03*
D123*
X30984Y10709D02*
D03*
X23361Y12685D02*
D03*
D124*
X2402Y2677D02*
D03*
D125*
X23281Y19875D02*
D03*
X20781Y19835D02*
D03*
D126*
X19871Y18715D02*
D03*
X20961D02*
D03*
D127*
X1142Y6850D02*
D03*
X1496Y1417D02*
D03*
X7441Y1220D02*
D03*
X6220Y1260D02*
D03*
X5000Y1260D02*
D03*
X8701Y1220D02*
D03*
X1457Y5472D02*
D03*
Y11220D02*
D03*
Y4016D02*
D03*
X23465Y5945D02*
D03*
X15079Y4921D02*
D03*
X10315Y4449D02*
D03*
X5669Y3268D02*
D03*
X28465Y14921D02*
D03*
Y16181D02*
D03*
X24055Y21339D02*
D03*
X28465Y15551D02*
D03*
X22795Y21339D02*
D03*
X1496Y7677D02*
D03*
X1457Y8583D02*
D03*
Y9488D02*
D03*
X1457Y12323D02*
D03*
X1417Y14291D02*
D03*
D128*
X5561Y10325D02*
D03*
Y11191D02*
D03*
X4891Y11191D02*
D03*
Y10325D02*
D03*
D129*
X32442Y4524D02*
D03*
Y5311D02*
D03*
D130*
X33662Y3934D02*
D03*
Y2083D02*
D03*
D131*
X31024Y10039D02*
D03*
X30157D02*
D03*
X30157Y9370D02*
D03*
X31024D02*
D03*
X25749Y19682D02*
D03*
X26615D02*
D03*
Y20351D02*
D03*
X25749D02*
D03*
D132*
X24591Y8425D02*
D03*
Y8622D02*
D03*
Y8819D02*
D03*
Y9016D02*
D03*
Y9213D02*
D03*
Y9410D02*
D03*
Y9606D02*
D03*
Y9803D02*
D03*
Y10000D02*
D03*
Y10197D02*
D03*
Y10394D02*
D03*
Y10591D02*
D03*
Y10788D02*
D03*
Y10984D02*
D03*
Y11181D02*
D03*
Y11378D02*
D03*
X28961D02*
D03*
Y11181D02*
D03*
Y10984D02*
D03*
Y10788D02*
D03*
Y10591D02*
D03*
Y10394D02*
D03*
Y10197D02*
D03*
Y10000D02*
D03*
Y9803D02*
D03*
Y9606D02*
D03*
Y9410D02*
D03*
Y9213D02*
D03*
Y9016D02*
D03*
Y8819D02*
D03*
Y8622D02*
D03*
Y8425D02*
D03*
D133*
X25300Y12087D02*
D03*
X25497D02*
D03*
X25694D02*
D03*
X25890D02*
D03*
X26087D02*
D03*
X26284D02*
D03*
X26481D02*
D03*
X26678D02*
D03*
X26875D02*
D03*
X27071D02*
D03*
X27268D02*
D03*
X27465D02*
D03*
X27662D02*
D03*
X27859D02*
D03*
X28056D02*
D03*
X28253D02*
D03*
Y7717D02*
D03*
X28056D02*
D03*
X27859D02*
D03*
X27662D02*
D03*
X27465D02*
D03*
X27268D02*
D03*
X27071D02*
D03*
X26875D02*
D03*
X26678D02*
D03*
X26481D02*
D03*
X26284D02*
D03*
X26087D02*
D03*
X25890D02*
D03*
X25694D02*
D03*
X25497D02*
D03*
X25300D02*
D03*
D134*
X32681Y5885D02*
D03*
X31931D02*
D03*
D135*
X32301Y6685D02*
D03*
D136*
X30309Y5925D02*
D03*
X29561D02*
D03*
X29935Y6713D02*
D03*
D137*
X27251Y21575D02*
D03*
X27801D02*
D03*
D138*
X26181Y5354D02*
D03*
X23740D02*
D03*
X26181Y3937D02*
D03*
X23740D02*
D03*
M02*
