%FSLAX24Y24*%
%MOIN*%
G70*
G01*
G75*
G04 Layer_Physical_Order=6*
G04 Layer_Color=48896*
%ADD10R,0.0250X0.0200*%
%ADD11R,0.0362X0.0984*%
%ADD12R,0.0276X0.0394*%
%ADD13R,0.0689X0.1181*%
%ADD14R,0.0984X0.0866*%
%ADD15R,0.0200X0.0250*%
%ADD16R,0.0276X0.0394*%
%ADD17R,0.0315X0.0315*%
%ADD18R,0.0669X0.0492*%
%ADD19R,0.0300X0.0300*%
%ADD20R,0.0906X0.0906*%
%ADD21R,0.0600X0.0600*%
%ADD22R,0.0472X0.0354*%
%ADD23R,0.0472X0.0354*%
%ADD24R,0.0315X0.0315*%
%ADD25R,0.0236X0.0472*%
%ADD26O,0.0315X0.0098*%
%ADD27O,0.0098X0.0315*%
%ADD28O,0.0276X0.0098*%
%ADD29O,0.0098X0.0276*%
%ADD30R,0.1299X0.1299*%
%ADD31R,0.0750X0.0400*%
%ADD32R,0.1358X0.1358*%
%ADD33O,0.0984X0.0276*%
%ADD34C,0.0120*%
%ADD35C,0.0100*%
%ADD36C,0.0080*%
%ADD37C,0.0150*%
%ADD38C,0.0300*%
%ADD39C,0.0200*%
%ADD40C,0.0276*%
%ADD41C,0.0600*%
%ADD42C,0.0220*%
%ADD43C,0.0350*%
%ADD44C,0.0700*%
%ADD45C,0.1100*%
%ADD46R,0.0591X0.0591*%
%ADD47C,0.0591*%
%ADD48C,0.0320*%
%ADD49C,0.0354*%
%ADD50R,0.0591X0.0591*%
%ADD51R,0.0600X0.0600*%
%ADD52C,0.0710*%
%ADD53C,0.0900*%
%ADD54C,0.0400*%
G04:AMPARAMS|DCode=55|XSize=42mil|YSize=42mil|CornerRadius=0mil|HoleSize=0mil|Usage=FLASHONLY|Rotation=0.000|XOffset=0mil|YOffset=0mil|HoleType=Round|Shape=Relief|Width=5mil|Gap=5mil|Entries=4|*
%AMTHD55*
7,0,0,0.0420,0.0320,0.0050,45*
%
%ADD55THD55*%
%ADD56C,0.0420*%
%ADD57C,0.0500*%
%ADD58C,0.1400*%
%ADD59C,0.0654*%
%ADD60C,0.0497*%
G04:AMPARAMS|DCode=61|XSize=49.685mil|YSize=49.685mil|CornerRadius=0mil|HoleSize=0mil|Usage=FLASHONLY|Rotation=0.000|XOffset=0mil|YOffset=0mil|HoleType=Round|Shape=Relief|Width=5mil|Gap=5mil|Entries=4|*
%AMTHD61*
7,0,0,0.0497,0.0397,0.0050,45*
%
%ADD61THD61*%
G04:AMPARAMS|DCode=62|XSize=65.433mil|YSize=65.433mil|CornerRadius=0mil|HoleSize=0mil|Usage=FLASHONLY|Rotation=0.000|XOffset=0mil|YOffset=0mil|HoleType=Round|Shape=Relief|Width=5mil|Gap=5mil|Entries=4|*
%AMTHD62*
7,0,0,0.0654,0.0554,0.0050,45*
%
%ADD62THD62*%
G04:AMPARAMS|DCode=63|XSize=60mil|YSize=60mil|CornerRadius=0mil|HoleSize=0mil|Usage=FLASHONLY|Rotation=0.000|XOffset=0mil|YOffset=0mil|HoleType=Round|Shape=Relief|Width=5mil|Gap=5mil|Entries=4|*
%AMTHD63*
7,0,0,0.0600,0.0500,0.0050,45*
%
%ADD63THD63*%
%ADD64C,0.0770*%
%ADD65C,0.0480*%
%ADD66C,0.0090*%
G04:AMPARAMS|DCode=67|XSize=50mil|YSize=50mil|CornerRadius=0mil|HoleSize=0mil|Usage=FLASHONLY|Rotation=0.000|XOffset=0mil|YOffset=0mil|HoleType=Round|Shape=Relief|Width=5mil|Gap=5mil|Entries=4|*
%AMTHD67*
7,0,0,0.0500,0.0400,0.0050,45*
%
%ADD67THD67*%
G04:AMPARAMS|DCode=68|XSize=48mil|YSize=48mil|CornerRadius=0mil|HoleSize=0mil|Usage=FLASHONLY|Rotation=0.000|XOffset=0mil|YOffset=0mil|HoleType=Round|Shape=Relief|Width=5mil|Gap=5mil|Entries=4|*
%AMTHD68*
7,0,0,0.0480,0.0380,0.0050,45*
%
%ADD68THD68*%
%ADD69R,0.0709X0.0394*%
%ADD70R,0.0472X0.0551*%
%ADD71R,0.0394X0.0394*%
%ADD72R,0.0866X0.0984*%
%ADD73R,0.0551X0.0472*%
%ADD74O,0.0709X0.0118*%
%ADD75O,0.0118X0.0709*%
%ADD76R,0.0360X0.0360*%
%ADD77R,0.0360X0.0500*%
%ADD78R,0.0315X0.0354*%
%ADD79R,0.0300X0.0300*%
%ADD80R,0.0709X0.0433*%
G36*
X25395Y20037D02*
D01*
Y20037D01*
X25376Y20018D01*
X25373D01*
Y19732D01*
X25749D01*
Y19682D01*
X25799D01*
Y19345D01*
X25917D01*
X25944Y19304D01*
X25937Y19286D01*
X25716D01*
X25716Y19286D01*
X25656Y19274D01*
X25606Y19240D01*
X25606Y19240D01*
X25377Y19011D01*
X25231D01*
X25207Y19055D01*
X25218Y19072D01*
X25233Y19145D01*
X25218Y19219D01*
X25177Y19281D01*
X25115Y19322D01*
X25041Y19337D01*
X24968Y19322D01*
X24906Y19281D01*
X24902Y19276D01*
X24601D01*
X24585Y19323D01*
X24641Y19366D01*
X24701Y19445D01*
X24740Y19537D01*
X24753Y19635D01*
X24751Y19649D01*
X24793Y19676D01*
X24809Y19665D01*
X24882Y19651D01*
X24955Y19665D01*
X25017Y19707D01*
X25059Y19769D01*
X25074Y19843D01*
X25059Y19916D01*
X25017Y19978D01*
X24955Y20020D01*
X24882Y20034D01*
X24809Y20020D01*
X24746Y19978D01*
X24705Y19916D01*
X24702Y19900D01*
X24678Y19895D01*
X24638Y19925D01*
X24636Y19956D01*
X24775Y20095D01*
X25395D01*
Y20037D01*
D02*
G37*
G36*
X25087Y21331D02*
X25079Y21291D01*
X25006Y21276D01*
X24944Y21234D01*
X24902Y21172D01*
X24888Y21099D01*
X24902Y21026D01*
X24944Y20963D01*
X25006Y20922D01*
X25079Y20907D01*
X25153Y20922D01*
X25215Y20963D01*
X25256Y21026D01*
X25267Y21077D01*
X25316Y21072D01*
Y21020D01*
X25328Y20960D01*
X25362Y20910D01*
X25413Y20876D01*
X25472Y20864D01*
X25855D01*
X25874Y20818D01*
X25721Y20665D01*
X25395D01*
Y20356D01*
X24721D01*
X24671Y20346D01*
X24629Y20318D01*
X24495Y20184D01*
X24449Y20203D01*
Y20614D01*
X24506Y20652D01*
X24547Y20714D01*
X24562Y20787D01*
X24547Y20861D01*
X24506Y20923D01*
X24449Y20961D01*
Y21020D01*
X24731Y21267D01*
X24849Y21369D01*
X25056D01*
X25087Y21331D01*
D02*
G37*
G36*
X28386Y9787D02*
Y9530D01*
X28026D01*
X27979Y9521D01*
X27940Y9495D01*
X27914Y9456D01*
X27905Y9410D01*
X27911Y9380D01*
X27364Y8834D01*
X27357Y8838D01*
X27314Y8847D01*
X27284Y8891D01*
X27282Y8896D01*
X27323Y8957D01*
X27338Y9030D01*
X27323Y9104D01*
X27282Y9166D01*
X27220Y9207D01*
X27146Y9222D01*
X27073Y9207D01*
X27011Y9166D01*
X26969Y9104D01*
X26955Y9030D01*
X26969Y8957D01*
X27011Y8895D01*
X27073Y8853D01*
X27116Y8845D01*
X27145Y8801D01*
X27147Y8796D01*
X27106Y8735D01*
X27092Y8661D01*
X27092Y8661D01*
X27060Y8622D01*
X26969D01*
X26957Y8641D01*
X26895Y8682D01*
X26821Y8697D01*
X26748Y8682D01*
X26686Y8641D01*
X26682Y8636D01*
X26471D01*
X26421Y8626D01*
X26416Y8622D01*
X25470D01*
X25443Y8655D01*
X25428Y8729D01*
X25387Y8791D01*
X25373Y8800D01*
X25363Y8849D01*
X25398Y8902D01*
X25413Y8975D01*
X25398Y9049D01*
X25357Y9111D01*
X25354Y9112D01*
Y9515D01*
X25377Y9530D01*
X25418Y9592D01*
X25433Y9665D01*
X25418Y9739D01*
X25377Y9801D01*
X25393Y9824D01*
X25393Y9824D01*
X25439Y9893D01*
X25452Y9959D01*
X28214D01*
X28386Y9787D01*
D02*
G37*
G36*
X28106Y11440D02*
X28168Y11398D01*
X28241Y11384D01*
X28315Y11398D01*
X28342Y11416D01*
X28386Y11393D01*
Y11064D01*
X28345Y11042D01*
X28271Y11057D01*
X28198Y11042D01*
X28136Y11001D01*
X28094Y10939D01*
X28080Y10865D01*
X28094Y10792D01*
X28136Y10730D01*
X28198Y10688D01*
X28271Y10674D01*
X28285Y10676D01*
X28299Y10667D01*
X28349Y10657D01*
X28386D01*
Y10524D01*
X28207D01*
X28022Y10709D01*
X28023Y10715D01*
X28008Y10789D01*
X27967Y10851D01*
X27905Y10892D01*
X27831Y10907D01*
X27758Y10892D01*
X27696Y10851D01*
X27654Y10789D01*
X27640Y10715D01*
X27654Y10642D01*
X27696Y10580D01*
X27758Y10538D01*
X27831Y10524D01*
X27837Y10525D01*
X28060Y10302D01*
X28103Y10273D01*
X28120Y10270D01*
X28115Y10220D01*
X25441D01*
X25410Y10259D01*
X25423Y10325D01*
X25408Y10399D01*
X25367Y10461D01*
X25354Y10469D01*
Y11151D01*
X25398Y11175D01*
X25423Y11158D01*
X25497Y11144D01*
X25570Y11158D01*
X25632Y11200D01*
X25674Y11262D01*
X25688Y11335D01*
X25674Y11409D01*
X25645Y11452D01*
X25668Y11496D01*
X26146D01*
X26170Y11452D01*
X26154Y11429D01*
X26140Y11355D01*
X26154Y11282D01*
X26196Y11220D01*
X26258Y11178D01*
X26331Y11164D01*
X26405Y11178D01*
X26467Y11220D01*
X26508Y11282D01*
X26522Y11352D01*
X26667Y11496D01*
X26750D01*
X26773Y11452D01*
X26744Y11409D01*
X26730Y11335D01*
X26744Y11262D01*
X26786Y11200D01*
X26848Y11158D01*
X26921Y11144D01*
X26995Y11158D01*
X27057Y11200D01*
X27060Y11205D01*
X27091D01*
X27141Y11215D01*
X27184Y11243D01*
X27364Y11423D01*
X27392Y11465D01*
X27398Y11496D01*
X27495D01*
X27526Y11451D01*
X27484Y11389D01*
X27470Y11315D01*
X27441Y11287D01*
X27368Y11272D01*
X27306Y11231D01*
X27264Y11169D01*
X27250Y11095D01*
X27264Y11022D01*
X27306Y10960D01*
X27368Y10918D01*
X27441Y10904D01*
X27515Y10918D01*
X27577Y10960D01*
X27618Y11022D01*
X27633Y11095D01*
X27661Y11124D01*
X27735Y11138D01*
X27797Y11180D01*
X27838Y11242D01*
X27853Y11315D01*
X27838Y11389D01*
X27797Y11451D01*
X27827Y11496D01*
X28068D01*
X28106Y11440D01*
D02*
G37*
G36*
X26221Y18855D02*
X26396D01*
Y18855D01*
X26407D01*
X26442Y18820D01*
Y18346D01*
X25792D01*
X25772Y18342D01*
X25730Y18369D01*
X25728Y18380D01*
X25687Y18443D01*
X25625Y18484D01*
X25551Y18499D01*
X25478Y18484D01*
X25416Y18443D01*
X25413Y18438D01*
X25363Y18434D01*
X25186Y18610D01*
X25147Y18636D01*
X25140Y18638D01*
X25101Y18646D01*
X24602D01*
X24597Y18659D01*
X24627Y18699D01*
X25441D01*
X25441Y18699D01*
X25501Y18711D01*
X25552Y18745D01*
X25781Y18974D01*
X25946D01*
Y18855D01*
X26121D01*
Y19055D01*
X26221D01*
Y18855D01*
D02*
G37*
G36*
X28824Y22342D02*
X28866Y22280D01*
X28928Y22238D01*
X29001Y22224D01*
X29073Y22238D01*
X29111Y22206D01*
Y18744D01*
X29073Y18713D01*
X29001Y18727D01*
X28928Y18712D01*
X28866Y18671D01*
X28821Y18701D01*
X28810Y18716D01*
X28748Y18758D01*
X28675Y18772D01*
X28602Y18758D01*
X28539Y18716D01*
X28498Y18654D01*
X28483Y18581D01*
X28498Y18507D01*
X28539Y18445D01*
X28602Y18404D01*
X28675Y18389D01*
X28748Y18404D01*
X28810Y18445D01*
X28856Y18415D01*
X28866Y18400D01*
X28928Y18358D01*
X29001Y18344D01*
X29073Y18358D01*
X29111Y18326D01*
Y18175D01*
X29064Y18161D01*
X29057Y18171D01*
X28995Y18212D01*
X28921Y18227D01*
X28848Y18212D01*
X28786Y18171D01*
X28744Y18109D01*
X28730Y18035D01*
X28738Y17991D01*
X28707Y17953D01*
X26683D01*
Y18225D01*
Y18877D01*
X26774D01*
Y18931D01*
X26871D01*
X26877Y18924D01*
X27113D01*
Y18824D01*
X26909D01*
X26916Y18792D01*
X26962Y18723D01*
X27032Y18676D01*
X27099Y18663D01*
Y18613D01*
X27032Y18599D01*
X26962Y18553D01*
X26916Y18484D01*
X26909Y18452D01*
X27113D01*
Y18402D01*
X27163D01*
Y18197D01*
X27195Y18204D01*
X27265Y18250D01*
X27311Y18320D01*
X27325Y18387D01*
X27375D01*
X27388Y18320D01*
X27434Y18250D01*
X27504Y18204D01*
X27536Y18197D01*
Y18402D01*
X27586D01*
Y18452D01*
X27790D01*
X27784Y18484D01*
X27737Y18553D01*
X27668Y18599D01*
X27600Y18613D01*
Y18663D01*
X27668Y18676D01*
X27737Y18723D01*
X27784Y18792D01*
X27790Y18824D01*
X27586D01*
Y18874D01*
X27536D01*
Y19078D01*
X27504Y19072D01*
X27434Y19025D01*
X27388Y18956D01*
X27375Y18889D01*
X27325D01*
X27311Y18956D01*
X27265Y19025D01*
X27195Y19072D01*
X27141Y19083D01*
X27127Y19131D01*
X27176Y19180D01*
X27202Y19219D01*
X27204Y19227D01*
X27212Y19265D01*
Y19740D01*
X27227Y19750D01*
X27268Y19812D01*
X27283Y19885D01*
X27275Y19926D01*
X27303Y19968D01*
X27355Y19978D01*
X27417Y20020D01*
X27458Y20082D01*
X27473Y20155D01*
X27458Y20229D01*
X27417Y20291D01*
X27412Y20294D01*
Y20499D01*
X27460Y20514D01*
X27476Y20490D01*
X27538Y20448D01*
X27611Y20434D01*
X27627Y20437D01*
X27655Y20395D01*
X27644Y20379D01*
X27630Y20305D01*
X27644Y20232D01*
X27686Y20170D01*
X27748Y20128D01*
X27821Y20114D01*
X27895Y20128D01*
X27946Y20163D01*
X27991Y20139D01*
Y20007D01*
X27952Y19975D01*
X27941Y19977D01*
X27868Y19962D01*
X27806Y19921D01*
X27764Y19859D01*
X27750Y19785D01*
X27764Y19712D01*
X27806Y19650D01*
X27868Y19608D01*
X27941Y19594D01*
X28015Y19608D01*
X28077Y19650D01*
X28118Y19712D01*
X28133Y19785D01*
X28129Y19803D01*
X28196Y19870D01*
X28222Y19909D01*
X28224Y19916D01*
X28231Y19955D01*
Y21092D01*
X28668Y21529D01*
X28686Y21555D01*
X28694Y21568D01*
X28704Y21614D01*
Y21992D01*
X28761D01*
Y22392D01*
Y22403D01*
X28811Y22408D01*
X28824Y22342D01*
D02*
G37*
G36*
X26872Y25673D02*
X29111D01*
Y25501D01*
X29067Y25477D01*
X29050Y25489D01*
X28977Y25503D01*
X28904Y25489D01*
X28893Y25481D01*
X28840D01*
Y25554D01*
X28484D01*
Y25416D01*
X28442Y25388D01*
X28429Y25394D01*
Y25582D01*
X28279D01*
Y25357D01*
X28179D01*
Y25582D01*
X28029D01*
Y25401D01*
X27987Y25373D01*
X27974Y25379D01*
Y25560D01*
X27618D01*
Y25532D01*
X27541D01*
Y25554D01*
X27185D01*
Y25532D01*
X26700D01*
X26683Y25579D01*
X26831Y25709D01*
X26872Y25673D01*
D02*
G37*
G36*
X27322Y24507D02*
X27283Y24449D01*
X27277Y24417D01*
X27481D01*
Y24317D01*
X27277D01*
X27283Y24285D01*
X27330Y24215D01*
X27399Y24169D01*
X27481Y24153D01*
D01*
X27513Y24143D01*
X27506Y24121D01*
X27482Y24097D01*
X27475D01*
X27425Y24087D01*
X27382Y24059D01*
X27316Y23993D01*
X27245Y24007D01*
X27171Y23992D01*
X27109Y23951D01*
X27068Y23889D01*
X27053Y23815D01*
X27068Y23742D01*
X27092Y23706D01*
X27064Y23664D01*
X27058Y23665D01*
Y23461D01*
Y23257D01*
X27090Y23263D01*
X27123Y23246D01*
Y23242D01*
X27145D01*
Y23049D01*
X27140Y23041D01*
X27139Y23034D01*
X27131Y22995D01*
Y22569D01*
X27087Y22546D01*
X27042Y22575D01*
X26969Y22590D01*
X26896Y22575D01*
X26834Y22534D01*
X26792Y22471D01*
X26788Y22450D01*
X26746Y22422D01*
X26694Y22432D01*
X26628Y22419D01*
X26590Y22451D01*
Y24551D01*
X27299D01*
X27322Y24507D01*
D02*
G37*
G36*
X27131Y22227D02*
Y21803D01*
X27023D01*
Y21347D01*
X27149D01*
X27166Y21322D01*
X27255Y21234D01*
X27231Y21190D01*
X27205Y21195D01*
X27123Y21179D01*
X27054Y21132D01*
X27008Y21063D01*
X27002Y21037D01*
X26955Y21022D01*
X26865Y21112D01*
X26857Y21117D01*
Y21198D01*
X26593D01*
X26569Y21242D01*
X26576Y21253D01*
X26586Y21301D01*
X26644D01*
Y21526D01*
X26694D01*
Y21576D01*
X26894D01*
Y21751D01*
X26872D01*
Y21908D01*
X26875Y21926D01*
Y22186D01*
X26914Y22217D01*
X26969Y22206D01*
X27042Y22221D01*
X27087Y22251D01*
X27131Y22227D01*
D02*
G37*
G36*
X28904Y25134D02*
X28977Y25120D01*
X29050Y25134D01*
X29067Y25146D01*
X29111Y25122D01*
Y22624D01*
X29073Y22593D01*
X29001Y22607D01*
X28995Y22606D01*
X28914Y22687D01*
X28872Y22716D01*
X28822Y22725D01*
X28761D01*
Y22798D01*
X28585D01*
X28576Y22815D01*
X28602Y22858D01*
X28761D01*
Y23236D01*
X28783D01*
Y23411D01*
X28583D01*
Y23511D01*
X28783D01*
Y23686D01*
X28724D01*
Y23697D01*
Y23742D01*
X28783D01*
Y23917D01*
X28583D01*
Y24017D01*
X28783D01*
Y24192D01*
X28761D01*
Y24382D01*
X28773Y24399D01*
X28775Y24407D01*
X28782Y24445D01*
Y24748D01*
X28840D01*
Y25124D01*
X28884Y25147D01*
X28904Y25134D01*
D02*
G37*
%LPC*%
G36*
X26551Y9159D02*
Y9005D01*
X26705D01*
X26699Y9037D01*
X26653Y9107D01*
X26583Y9153D01*
X26551Y9159D01*
D02*
G37*
G36*
X26705Y8905D02*
X26551D01*
Y8751D01*
X26583Y8757D01*
X26653Y8804D01*
X26699Y8873D01*
X26705Y8905D01*
D02*
G37*
G36*
X26451D02*
X26297D01*
X26303Y8873D01*
X26350Y8804D01*
X26419Y8757D01*
X26451Y8751D01*
Y8905D01*
D02*
G37*
G36*
Y9159D02*
X26419Y9153D01*
X26350Y9107D01*
X26303Y9037D01*
X26297Y9005D01*
X26451D01*
Y9159D01*
D02*
G37*
G36*
X27063Y18352D02*
X26909D01*
X26916Y18320D01*
X26962Y18250D01*
X27032Y18204D01*
X27063Y18197D01*
Y18352D01*
D02*
G37*
G36*
X26894Y21476D02*
X26744D01*
Y21301D01*
X26894D01*
Y21476D01*
D02*
G37*
G36*
X26958Y23411D02*
X26804D01*
X26811Y23379D01*
X26857Y23310D01*
X26927Y23263D01*
X26958Y23257D01*
Y23411D01*
D02*
G37*
G36*
Y23665D02*
X26927Y23659D01*
X26857Y23612D01*
X26811Y23543D01*
X26804Y23511D01*
X26958D01*
Y23665D01*
D02*
G37*
G36*
X27790Y18352D02*
X27636D01*
Y18197D01*
X27668Y18204D01*
X27737Y18250D01*
X27784Y18320D01*
X27790Y18352D01*
D02*
G37*
G36*
X27636Y19078D02*
Y18924D01*
X27790D01*
X27784Y18956D01*
X27737Y19025D01*
X27668Y19072D01*
X27636Y19078D01*
D02*
G37*
G36*
X25699Y19632D02*
X25373D01*
Y19345D01*
X25699D01*
Y19632D01*
D02*
G37*
%LPD*%
D10*
X12351Y5155D02*
D03*
X12751Y5155D02*
D03*
X11301Y5625D02*
D03*
X10901D02*
D03*
X7731Y5335D02*
D03*
X8131D02*
D03*
X13231Y4995D02*
D03*
X13631D02*
D03*
X10911Y6205D02*
D03*
X11311D02*
D03*
X10901Y6605D02*
D03*
X11301D02*
D03*
X10901Y7015D02*
D03*
X11301D02*
D03*
X10901Y7415D02*
D03*
X11301D02*
D03*
X7731Y4965D02*
D03*
X8131D02*
D03*
X6611Y5615D02*
D03*
X7011D02*
D03*
X6621Y6065D02*
D03*
X7021D02*
D03*
X6611Y6505D02*
D03*
X7011D02*
D03*
X6611Y7425D02*
D03*
X7011D02*
D03*
X6611Y6915D02*
D03*
X7011D02*
D03*
X2821Y5335D02*
D03*
X3221D02*
D03*
X2071Y6595D02*
D03*
X2471D02*
D03*
X2901Y4905D02*
D03*
X2501D02*
D03*
X2071Y7085D02*
D03*
X2471D02*
D03*
X2061Y6255D02*
D03*
X2461D02*
D03*
X3641Y5325D02*
D03*
X4041D02*
D03*
X4941Y5335D02*
D03*
X4541D02*
D03*
X4531Y4875D02*
D03*
X4931D02*
D03*
X16581Y4985D02*
D03*
X16981D02*
D03*
X18521Y4965D02*
D03*
X18121D02*
D03*
X30231Y11715D02*
D03*
X29831D02*
D03*
X25361Y6299D02*
D03*
X24961D02*
D03*
X32172Y9409D02*
D03*
X31772D02*
D03*
X30891Y5815D02*
D03*
X31291D02*
D03*
X25354Y5866D02*
D03*
X24954D02*
D03*
X32301Y3735D02*
D03*
X31901D02*
D03*
X29921Y8605D02*
D03*
X30321D02*
D03*
X30261Y10695D02*
D03*
X29861D02*
D03*
X7021Y5255D02*
D03*
X6621D02*
D03*
X2081Y5325D02*
D03*
X2481D02*
D03*
X26171Y19055D02*
D03*
X26571D02*
D03*
X26254Y21020D02*
D03*
X26654D02*
D03*
X30321Y5135D02*
D03*
X30721D02*
D03*
X15041Y6555D02*
D03*
X15441D02*
D03*
X15031Y5675D02*
D03*
X15431D02*
D03*
X15041Y6965D02*
D03*
X15441D02*
D03*
X15031Y7385D02*
D03*
X15431D02*
D03*
X19401Y7115D02*
D03*
X19801D02*
D03*
X21562Y5146D02*
D03*
X21162D02*
D03*
X22521Y5265D02*
D03*
X22121D02*
D03*
D12*
X12347Y4525D02*
D03*
X12721D02*
D03*
X13095D02*
D03*
X12347Y3580D02*
D03*
X13095D02*
D03*
X7307Y4345D02*
D03*
X7681D02*
D03*
X8055D02*
D03*
X7307Y3400D02*
D03*
X8055Y3400D02*
D03*
X3653Y4340D02*
D03*
X4027D02*
D03*
X4401D02*
D03*
X3653Y3395D02*
D03*
X4401D02*
D03*
X21071Y4590D02*
D03*
X21445Y4590D02*
D03*
X21819D02*
D03*
X21071Y3645D02*
D03*
X21819D02*
D03*
X16607Y4545D02*
D03*
X16981D02*
D03*
X17355D02*
D03*
X16607Y3600D02*
D03*
X17355D02*
D03*
D15*
X27301Y6145D02*
D03*
Y5745D02*
D03*
X20511Y4055D02*
D03*
Y4455D02*
D03*
X28791Y5735D02*
D03*
Y6135D02*
D03*
X11721Y4115D02*
D03*
Y4515D02*
D03*
X6541Y3735D02*
D03*
Y4135D02*
D03*
X3001Y3885D02*
D03*
Y4285D02*
D03*
X14041Y4595D02*
D03*
Y4995D02*
D03*
X8581Y4905D02*
D03*
Y5305D02*
D03*
X33071Y4875D02*
D03*
Y5275D02*
D03*
X33121Y6445D02*
D03*
Y6845D02*
D03*
X25775Y6279D02*
D03*
Y5879D02*
D03*
X28291Y5745D02*
D03*
Y6145D02*
D03*
X27717Y24367D02*
D03*
Y23967D02*
D03*
X27363Y24951D02*
D03*
Y25351D02*
D03*
X28150Y23061D02*
D03*
Y23461D02*
D03*
X27717Y22201D02*
D03*
Y22601D02*
D03*
X28583Y22595D02*
D03*
Y22195D02*
D03*
X28150Y22595D02*
D03*
Y22195D02*
D03*
X27323Y23467D02*
D03*
Y23067D02*
D03*
X27757Y23467D02*
D03*
Y23067D02*
D03*
X27811Y6145D02*
D03*
Y5745D02*
D03*
X4094Y10584D02*
D03*
Y10984D02*
D03*
X28150Y24367D02*
D03*
Y23967D02*
D03*
X28583D02*
D03*
Y24367D02*
D03*
X28662Y25351D02*
D03*
Y24951D02*
D03*
X28229Y25357D02*
D03*
Y24957D02*
D03*
X27796D02*
D03*
Y25357D02*
D03*
X28583Y23461D02*
D03*
Y23061D02*
D03*
X15941Y4125D02*
D03*
Y4525D02*
D03*
X26694Y21526D02*
D03*
Y21926D02*
D03*
D34*
X5236Y4646D02*
Y5040D01*
X5106Y4515D02*
X5236Y4646D01*
X4931Y4515D02*
X5106D01*
X4941Y5335D02*
X5236Y5040D01*
X8701Y1220D02*
X9409D01*
X9646Y1457D01*
Y1457D01*
X5665Y11191D02*
X6024Y10833D01*
Y8332D02*
Y10833D01*
X5791Y8099D02*
X6024Y8332D01*
X12677Y6339D02*
Y6378D01*
X12638Y6299D02*
X12677Y6339D01*
X12595Y6299D02*
X12638D01*
X12341Y6045D02*
X12595Y6299D01*
X28390Y23701D02*
X28425D01*
X28386Y23697D02*
X28390Y23701D01*
X6595Y8287D02*
X6693Y8189D01*
X5979Y8287D02*
X6595D01*
X32442Y4367D02*
X32729Y4079D01*
Y3567D02*
Y4079D01*
X1941Y14605D02*
X2001D01*
X6222Y5615D02*
X6611D01*
X6121Y5525D02*
X6132D01*
X6222Y5615D01*
X3621Y5055D02*
X3641Y5075D01*
Y5325D01*
X6311Y7075D02*
X6371Y7015D01*
Y6915D02*
Y7015D01*
Y6915D02*
X6611D01*
X23541Y11685D02*
X24045Y11181D01*
X23361Y11685D02*
X23541D01*
X30631Y8605D02*
X30881Y8355D01*
Y8305D02*
Y8355D01*
X25431Y13035D02*
X25441Y13045D01*
X30811Y8785D02*
Y9346D01*
X30321Y8605D02*
Y8625D01*
Y8605D02*
X30631D01*
X30811Y8785D01*
X2801Y5315D02*
X2811Y5325D01*
X13055Y4595D02*
X13931D01*
X14271D02*
X14281Y4605D01*
X14041Y4595D02*
X14271D01*
X12341Y5165D02*
Y6045D01*
X13095Y4859D02*
X13231Y4995D01*
X13055Y4595D02*
X13095Y4859D01*
X10901Y6195D02*
X10911Y6205D01*
X10901Y5625D02*
Y6195D01*
X10901Y6215D02*
X10911Y6205D01*
X10901Y6215D02*
Y6605D01*
Y7015D01*
Y7415D01*
X10901Y7875D02*
X10901Y7875D01*
Y7415D02*
Y7875D01*
X8531Y4905D02*
X8581D01*
X8341Y4715D02*
X8531Y4905D01*
X7831Y4715D02*
X8341D01*
X7731Y4815D02*
X7831Y4715D01*
X7731Y4815D02*
Y4965D01*
X7351Y5255D02*
X7421Y5325D01*
X7021Y5255D02*
X7351D01*
X1791Y6835D02*
X1801Y6845D01*
X1791Y6625D02*
Y6835D01*
Y6625D02*
X1831Y6585D01*
X2061D01*
Y6255D02*
Y6585D01*
Y7075D02*
X2071Y7065D01*
X1801Y6845D02*
Y6975D01*
X1911Y7085D01*
X2071D01*
X10351Y12035D02*
Y12045D01*
X7681Y3805D02*
Y4345D01*
X7421Y5325D02*
X7721D01*
X7731Y5335D01*
Y4965D02*
Y5335D01*
X8051Y3805D02*
X8055Y3809D01*
Y4345D01*
X6611Y6505D02*
Y6915D01*
Y7425D01*
X4931Y4445D02*
Y4515D01*
X4826Y4340D02*
X4931Y4445D01*
X4401Y4340D02*
X4826D01*
X2901Y4905D02*
Y5035D01*
X2821Y5115D02*
X2901Y5035D01*
X2821Y5115D02*
Y5335D01*
Y5565D01*
X2061Y6585D02*
X2071Y6595D01*
X4531Y4865D02*
Y4875D01*
X4401Y4735D02*
X4531Y4865D01*
X4401Y4340D02*
Y4735D01*
X5561Y11191D02*
X5665D01*
X5791Y6635D02*
Y8099D01*
Y6635D02*
X6101Y6325D01*
Y5845D02*
Y6325D01*
X16031Y4985D02*
X16581D01*
X15981Y5035D02*
Y5185D01*
Y5035D02*
X16031Y4985D01*
X18521Y4815D02*
Y4965D01*
Y4815D02*
X18731Y4605D01*
X19101D01*
X28386Y23697D02*
X28583D01*
Y23967D01*
X32729Y3567D02*
X33151Y3145D01*
X34441D01*
X26321Y20175D02*
X26741D01*
X28583Y23461D02*
Y23697D01*
X30984Y11709D02*
X31229D01*
X31595Y11342D01*
X31729D01*
X32008Y11063D01*
Y10394D02*
Y11063D01*
X30911Y9335D02*
X31580D01*
D35*
X25165Y16543D02*
X25591D01*
X24764Y16142D02*
X25165Y16543D01*
X25241Y9975D02*
X25356Y10090D01*
X28268D01*
X25367Y5879D02*
X25775D01*
X28465Y15551D02*
X28701D01*
X28465Y16181D02*
X28819Y16535D01*
X27544Y14567D02*
X27859Y14252D01*
X25630Y14567D02*
X27544D01*
X24764Y15433D02*
X25630Y14567D01*
X27859Y12087D02*
Y14252D01*
X24764Y15433D02*
Y16142D01*
X25591Y16543D02*
X25977Y16930D01*
X18941Y7765D02*
X19134Y7573D01*
Y7273D02*
Y7573D01*
Y7273D02*
X19291Y7115D01*
X20709Y8071D02*
X20878Y8240D01*
X20252Y8071D02*
X20709D01*
X20176Y8147D02*
X20252Y8071D01*
X20878Y8240D02*
Y8394D01*
X22864Y12155D02*
X24181D01*
X22501Y11793D02*
X22864Y12155D01*
X22501Y11145D02*
Y11793D01*
X22621Y4747D02*
Y4865D01*
X22119Y4245D02*
X22621Y4747D01*
X21541Y4245D02*
X22119D01*
X18012Y12185D02*
X18151D01*
X17244Y12953D02*
X18012Y12185D01*
X16772Y12953D02*
X17244D01*
X16571Y12752D02*
X16772Y12953D01*
X16571Y12725D02*
Y12752D01*
X1614Y11850D02*
X3976D01*
X1457Y12008D02*
X1614Y11850D01*
X1457Y12008D02*
Y12323D01*
X3976Y11850D02*
X4361Y12235D01*
X5401Y5295D02*
X5512Y5185D01*
Y4396D02*
Y5185D01*
X5075Y3959D02*
X5512Y4396D01*
X11513Y4135D02*
X11695D01*
X11331Y4317D02*
X11513Y4135D01*
X11331Y4317D02*
Y4575D01*
X11695Y3991D02*
Y4135D01*
Y3991D02*
X12106Y3580D01*
X11721Y4515D02*
Y4696D01*
X11496Y4921D02*
X11721Y4696D01*
X10551Y4921D02*
X11496D01*
X10315Y4685D02*
X10551Y4921D01*
X10315Y4449D02*
Y4685D01*
X11721Y4515D02*
X11731Y4525D01*
X12347D01*
Y4209D02*
X12741Y3815D01*
X12347Y4209D02*
Y4525D01*
X30001Y8065D02*
X30041D01*
X22795Y21024D02*
Y21339D01*
Y21024D02*
X22992Y20827D01*
X23268D01*
X23780Y20315D01*
Y19528D02*
Y20315D01*
Y19528D02*
X24162Y19145D01*
X25041D01*
X24055Y21063D02*
Y21339D01*
Y21063D02*
X24331Y20787D01*
X24370D01*
X27638Y17172D02*
X28294D01*
X26603D02*
X27638D01*
X28268Y15000D02*
X28465Y14921D01*
X27835Y15433D02*
X28268Y15000D01*
X27835Y15433D02*
Y15787D01*
X27638Y15984D02*
X27835Y15787D01*
X27638Y15984D02*
Y17172D01*
X15039Y17835D02*
X15236Y18032D01*
X15039Y16929D02*
Y17835D01*
Y16929D02*
X15733Y16235D01*
X15236Y18032D02*
X15394D01*
X4528Y2969D02*
X4831Y2665D01*
X4401Y3095D02*
X4528Y2969D01*
X7441Y1220D02*
Y1811D01*
X7126Y2126D02*
X7441Y1811D01*
X5906Y2126D02*
X7126D01*
X5472Y1693D02*
X5906Y2126D01*
X4606Y1693D02*
X5472D01*
X4528Y1772D02*
X4606Y1693D01*
X4528Y1772D02*
Y2969D01*
X9918Y2362D02*
X10131Y2575D01*
X5068Y2362D02*
X9918D01*
X4801Y2095D02*
X5068Y2362D01*
X6191Y1289D02*
X6220Y1260D01*
X6191Y1289D02*
Y1772D01*
X4198Y1235D02*
X4901D01*
X4016Y1417D02*
X4198Y1235D01*
X4016Y1417D02*
Y1496D01*
X1291Y4764D02*
Y5472D01*
X1281Y6815D02*
X1496Y6600D01*
Y6181D02*
Y6600D01*
X1301Y7675D02*
X1303Y7677D01*
X4020D01*
X4725Y8382D01*
X1291Y8555D02*
X1712Y8976D01*
X2087D01*
X2546Y9435D01*
X3561D01*
X1299Y9646D02*
X1457Y9488D01*
X4361Y12235D02*
X8691D01*
X1261Y13069D02*
Y14235D01*
Y13069D02*
X1495Y12835D01*
X7771D01*
X36513Y8622D02*
X36788Y8346D01*
X34213Y8622D02*
X36513D01*
X26595Y17164D02*
X26603Y17172D01*
X26397Y17164D02*
X26595D01*
X26389Y17172D02*
X26397Y17164D01*
X25008Y17172D02*
X26389D01*
X26435Y17402D02*
X26496D01*
X26423Y17414D02*
X26435Y17402D01*
X20321Y4715D02*
X20741Y5135D01*
X20311Y4705D02*
X20321Y4715D01*
X20331Y4705D01*
X20741Y5135D02*
X21121D01*
X20276Y4761D02*
Y4764D01*
X24921Y6496D02*
X25197Y6772D01*
X25197D02*
X25197D01*
X22761Y3815D02*
X23067D01*
X15941Y4545D02*
Y4649D01*
X15669Y4921D02*
X15941Y4649D01*
X15079Y4921D02*
X15669D01*
X15941Y4545D02*
X16607D01*
X15941Y4525D02*
Y4545D01*
X6340Y4135D02*
X6541D01*
X5669Y3465D02*
X6340Y4135D01*
X5669Y3268D02*
Y3465D01*
X1457Y4016D02*
X2047D01*
X2317Y4285D01*
X3001D01*
X19253Y22595D02*
Y23619D01*
X18716Y24155D02*
X19253Y23619D01*
X17361Y24155D02*
X18716D01*
X18549Y24918D02*
X19681Y23785D01*
X17284Y24918D02*
X18549D01*
X16829Y24463D02*
X17284Y24918D01*
X16829Y24123D02*
Y24463D01*
X16361Y23655D02*
X16829Y24123D01*
X32442Y4367D02*
Y4524D01*
X32363Y3797D02*
Y3894D01*
X31931Y4326D02*
X32363Y3894D01*
X31931Y4326D02*
Y5885D01*
X26641Y21020D02*
X26654D01*
X28465Y9213D02*
X28961D01*
X29294Y6768D02*
X29651Y7125D01*
X28628Y6768D02*
X29294D01*
X28056Y7341D02*
X28628Y6768D01*
X21876Y5626D02*
X22121Y5381D01*
X21382Y5626D02*
X21876D01*
X21231Y5475D02*
X21382Y5626D01*
X2071Y5315D02*
X2081Y5325D01*
X2071Y5035D02*
Y5315D01*
X23021Y10175D02*
X23505D01*
X22461Y10735D02*
X23021Y10175D01*
X22131Y10735D02*
X22461D01*
X22851Y11345D02*
Y11635D01*
X22961Y10685D02*
X23361D01*
X22501Y11145D02*
X22961Y10685D01*
X24551Y18195D02*
X24951D01*
X23921Y17565D02*
X24551Y18195D01*
X23921Y16945D02*
Y17565D01*
X22478Y16235D02*
X22771Y15942D01*
Y15085D02*
Y15942D01*
Y15085D02*
X23951Y13905D01*
X15511Y12895D02*
X15861Y13245D01*
X15511Y11385D02*
Y12895D01*
X16101Y10795D02*
X18511D01*
X15511Y11385D02*
X16101Y10795D01*
X21411Y4025D02*
X21999D01*
X21071Y4365D02*
X21411Y4025D01*
X21071Y4365D02*
Y4590D01*
X21521Y5125D02*
X21661Y4985D01*
X22181D01*
X6371Y5235D02*
X6391Y5255D01*
X6351D02*
X6371Y5235D01*
X6391Y5255D02*
X6621D01*
X21889Y3575D02*
X22131D01*
X21819Y3645D02*
X21889Y3575D01*
X19291Y7115D02*
X19401D01*
X25181Y11215D02*
Y11525D01*
X25074Y11108D02*
X25181Y11215D01*
X25161Y10635D02*
Y10745D01*
X25111Y10795D02*
X25161Y10745D01*
X27053Y16547D02*
X27391Y16885D01*
X26053Y16547D02*
X27053D01*
X24891Y17435D02*
X26481D01*
X24881Y17425D02*
X24891Y17435D01*
X32531Y6685D02*
X32681Y6835D01*
X32301Y6685D02*
X32531D01*
X31291Y5815D02*
X31541Y5565D01*
X32301Y6265D02*
X32681Y5885D01*
X31531Y6265D02*
X32301D01*
X31291Y6025D02*
X31531Y6265D01*
X31291Y5815D02*
Y6025D01*
X31641Y5045D02*
Y5095D01*
X31541Y5195D02*
X31641Y5095D01*
X31541Y5195D02*
Y5565D01*
X30721Y4855D02*
Y5135D01*
X25241Y9635D02*
Y9665D01*
X25212Y9606D02*
X25241Y9635D01*
X24591Y9606D02*
X25212D01*
X18131Y2965D02*
X18991Y3825D01*
X19431D01*
X26331Y11355D02*
X26341D01*
X26678Y11692D01*
Y12087D01*
X29611Y10485D02*
X29821Y10695D01*
X29861D01*
X29651Y7125D02*
X30291D01*
X28056Y7341D02*
Y7717D01*
X30321Y5135D02*
Y5913D01*
X29201Y5925D02*
X29561D01*
X28991Y6135D02*
X29201Y5925D01*
X28791Y6135D02*
X28991D01*
X30311Y5927D02*
Y6265D01*
X30231Y11715D02*
Y11985D01*
X30191Y12025D02*
X30231Y11985D01*
X26087Y12631D02*
X26111Y12655D01*
X26141D01*
X25694Y12087D02*
Y12553D01*
X25521Y12725D02*
X25694Y12553D01*
X28241Y12635D02*
X28261D01*
X28056Y12450D02*
X28241Y12635D01*
X28056Y12087D02*
Y12450D01*
X25451Y12725D02*
X25521D01*
X27191Y12635D02*
X27196Y12630D01*
Y12600D02*
Y12630D01*
X27071Y12476D02*
X27196Y12600D01*
X27071Y12087D02*
Y12476D01*
X26871Y12535D02*
Y12615D01*
X26851Y12635D02*
X26871Y12615D01*
X27271Y11515D02*
Y12084D01*
X27091Y11335D02*
X27271Y11515D01*
X26921Y11335D02*
X27091D01*
X28961Y11378D02*
X29299Y11715D01*
X29831D01*
X27421Y13625D02*
X27465Y13581D01*
Y12087D02*
Y13581D01*
X28500Y12087D02*
X28551Y12035D01*
X28253Y12087D02*
X28500D01*
X15733Y16235D02*
X22478D01*
X24541Y13385D02*
X24691Y13235D01*
X13110Y3595D02*
X14961D01*
X13095Y3580D02*
X13110Y3595D01*
X13331Y5515D02*
X13631Y5215D01*
X12851Y5515D02*
X13331D01*
X12741Y5405D02*
X12851Y5515D01*
X17355Y4545D02*
X17611D01*
X17601Y4555D02*
X17611Y4545D01*
X16981Y4185D02*
Y4545D01*
X15881Y3805D02*
X15921Y3765D01*
X16161D01*
X16562Y3555D02*
X16607Y3600D01*
X16371Y3555D02*
X16562D01*
X16161Y3765D02*
X16371Y3555D01*
X16161Y3765D02*
Y4125D01*
X15851Y5855D02*
Y6135D01*
X15671Y5675D02*
X15851Y5855D01*
X15431Y5675D02*
X15671D01*
X15031Y6545D02*
X15041Y6555D01*
X15031Y5675D02*
Y6545D01*
X14721Y7295D02*
X14811Y7385D01*
X15031D01*
X15041Y7375D01*
Y6965D02*
Y7375D01*
Y6555D02*
Y6965D01*
X11301Y7015D02*
Y7415D01*
X30051Y11295D02*
X30261Y11085D01*
X30051Y11295D02*
X30061Y11305D01*
X30261Y10695D02*
Y11085D01*
X28971Y9006D02*
X29334D01*
X28961Y9016D02*
X28971Y9006D01*
X4891Y11875D02*
X4931Y11915D01*
X28961Y8295D02*
Y8425D01*
Y8295D02*
X29161Y8095D01*
X2811Y5325D02*
X2821Y5335D01*
X2481Y5325D02*
X2811D01*
X23981Y8765D02*
X24041D01*
X23891Y9035D02*
Y9065D01*
Y9115D02*
X23989Y9213D01*
X24591D01*
X23981Y8765D02*
Y8795D01*
X24202Y9016D01*
X24591D01*
X24136Y10591D02*
X24591D01*
X23505Y10175D02*
X23877Y9803D01*
X24591D01*
X26087Y7717D02*
Y8121D01*
X25497Y7717D02*
Y8111D01*
X24591Y8622D02*
X25158D01*
X24591Y8819D02*
X25065D01*
X25221Y8975D01*
X25226Y9990D02*
X25241Y9975D01*
X24861Y9990D02*
X25226D01*
X25101Y10195D02*
X25231Y10325D01*
X25100Y10197D02*
X25101Y10195D01*
X24954Y10984D02*
X25074Y11104D01*
X24591Y10984D02*
X24954D01*
X25074Y11104D02*
Y11108D01*
X25111Y10785D02*
Y10795D01*
X25109Y10788D02*
X25111Y10785D01*
X24591Y10788D02*
X25109D01*
X23981Y10075D02*
X23993Y10087D01*
Y10215D01*
X24172Y10394D02*
X24591D01*
X23993Y10215D02*
X24172Y10394D01*
X17355Y3600D02*
X17380Y3575D01*
X17691D01*
X8055Y3400D02*
X8536D01*
X12721Y4525D02*
Y4865D01*
X12731D01*
X12741Y5405D02*
X12751Y5395D01*
Y5155D02*
Y5395D01*
X13631Y4995D02*
Y5215D01*
Y4995D02*
X14041D01*
X14041Y4995D01*
X12106Y3580D02*
X12347D01*
X11301Y5625D02*
X11331Y5655D01*
X11511D01*
X11691Y5835D01*
Y6665D01*
X11651Y6705D02*
X11691Y6665D01*
X11651Y6705D02*
Y6855D01*
X11491Y7015D02*
X11651Y6855D01*
X11301Y7015D02*
X11491D01*
X11311Y5985D02*
X11311Y5985D01*
X11311Y5985D02*
Y6205D01*
X11301Y6215D02*
X11311Y6205D01*
X11301Y6215D02*
Y6605D01*
X7011Y6075D02*
X7021Y6085D01*
X7011Y5615D02*
Y6075D01*
X7271Y6085D02*
X7341Y6155D01*
X7021Y6085D02*
X7271D01*
X6611Y6505D02*
X6621Y6495D01*
Y6085D02*
Y6495D01*
X28771Y6155D02*
Y6395D01*
Y6155D02*
X28781Y6145D01*
X28291D02*
X28781D01*
X27811D02*
X28291D01*
X28821Y5475D02*
X28861D01*
X28791Y5505D02*
X28821Y5475D01*
X28791Y5505D02*
Y5735D01*
X28781Y5745D02*
X28791Y5735D01*
X28291Y5745D02*
X28781D01*
X27811D02*
X28291D01*
X27301Y6145D02*
X27811D01*
X27301D02*
Y6435D01*
X27041Y5745D02*
X27301D01*
X26843Y5943D02*
X27041Y5745D01*
X26843Y5943D02*
Y7284D01*
X26875Y7315D01*
Y7717D01*
X26341Y7045D02*
X26481Y7185D01*
Y7717D01*
X26284Y7338D02*
Y7717D01*
X26071Y7125D02*
X26284Y7338D01*
X26071Y6495D02*
Y7125D01*
X27371Y7135D02*
X27931Y6575D01*
X27268Y7717D02*
X27271Y7720D01*
Y8335D01*
X27071Y7717D02*
X27081Y7707D01*
Y7185D02*
Y7707D01*
X28961Y8425D02*
X28971Y8415D01*
X27465Y7309D02*
Y7717D01*
X27371Y7215D02*
X27465Y7309D01*
X27662Y7194D02*
Y7717D01*
Y7194D02*
X27681Y7175D01*
X26087Y12087D02*
Y12631D01*
X25497Y11335D02*
Y12087D01*
X24691Y12525D02*
Y13235D01*
Y12525D02*
X25130Y12087D01*
X25300D01*
X28241Y11575D02*
X28253Y11587D01*
Y12087D01*
X27662Y11326D02*
Y12087D01*
X26871Y12535D02*
X26875Y12532D01*
Y12087D02*
Y12532D01*
X26671Y8225D02*
X26678Y8219D01*
Y7717D02*
Y8219D01*
X25071Y7905D02*
X25260Y7717D01*
X25300D01*
X24591Y10197D02*
X25100D01*
X24621Y11408D02*
Y11715D01*
X24181Y12155D02*
X24621Y11715D01*
X23361Y9685D02*
X23743D01*
X23822Y9606D01*
X24591D01*
X4831Y2665D02*
X7651D01*
X6981Y5615D02*
X7011D01*
X7307Y4345D02*
X7311Y4349D01*
Y4675D01*
X8321Y5495D02*
X8341D01*
X8371Y5525D01*
X8321D02*
X8371D01*
X3991Y5375D02*
X4041Y5325D01*
X3991Y5375D02*
Y5555D01*
X2471Y6595D02*
Y7085D01*
X2461Y6585D02*
X2471Y6595D01*
X2461Y6255D02*
Y6585D01*
X2811Y6685D02*
X2991D01*
X2721Y6595D02*
X2811Y6685D01*
X2471Y6595D02*
X2721D01*
X4041Y5325D02*
X4051Y5335D01*
X4541D01*
X8131D02*
X8321Y5525D01*
X8131Y5335D02*
X8551D01*
X8131Y4965D02*
Y5335D01*
X7301Y6105D02*
X7331Y6135D01*
X7011Y6505D02*
X7351D01*
X7011D02*
Y6915D01*
Y7425D01*
X6541Y3735D02*
X6811D01*
X6676Y3400D02*
X7307D01*
X6541Y3535D02*
X6676Y3400D01*
X6541Y3535D02*
Y3735D01*
X7651Y2665D02*
X8055Y3069D01*
Y3400D01*
X4401Y3095D02*
Y3395D01*
X4027Y3959D02*
X5075D01*
X4027D02*
Y4340D01*
X3653Y4647D02*
X3661Y4655D01*
X3653Y4340D02*
Y4647D01*
X3056Y4340D02*
X3653D01*
X3001Y4285D02*
X3056Y4340D01*
X2691Y3855D02*
X2721Y3885D01*
X3001D01*
X3653Y3395D02*
Y3713D01*
X3481Y3885D02*
X3653Y3713D01*
X3001Y3885D02*
X3481D01*
X2501Y4575D02*
X2691D01*
Y4565D02*
Y4575D01*
X2501D02*
Y4905D01*
X10131Y2575D02*
Y2965D01*
X3221Y5335D02*
Y5585D01*
X9121Y2975D02*
X9131Y2965D01*
X26471Y8505D02*
X26821D01*
X25221Y8685D02*
X25251Y8655D01*
X24591Y8195D02*
Y8355D01*
Y8195D02*
X24591Y8195D01*
X24911Y7905D02*
X25071D01*
X24881Y7935D02*
X24911Y7905D01*
X24881Y7935D02*
Y7945D01*
X26087Y8121D02*
X26471Y8505D01*
X25890Y7717D02*
Y8176D01*
X26071Y8357D01*
X26047Y8417D02*
X26055Y8425D01*
X26071D01*
Y8357D02*
Y8425D01*
X25737Y8351D02*
Y8359D01*
X25497Y8111D02*
X25737Y8351D01*
X28153Y10394D02*
X28961D01*
X27831Y10715D02*
X28153Y10394D01*
X20370Y6121D02*
X20411Y6163D01*
X20621Y4575D02*
X21056D01*
X22121Y5265D02*
Y5381D01*
X22351Y4985D02*
X22521Y5155D01*
Y5265D01*
Y5325D01*
X22831Y5635D01*
X21819Y4590D02*
X21864Y4635D01*
X22061D01*
X20621Y3845D02*
X20831Y3635D01*
X21061D01*
X22061Y4635D02*
X22181Y4755D01*
Y4985D01*
X22351D01*
X21445Y4341D02*
Y4590D01*
Y4341D02*
X21541Y4245D01*
X21999Y4025D02*
X22209Y3815D01*
X22761D01*
X24371Y19875D02*
X24721Y20225D01*
X24371Y19635D02*
Y19875D01*
X27391Y16885D02*
Y16926D01*
X27383Y16934D02*
X27391Y16926D01*
X28294Y17172D02*
X28411Y17055D01*
X26460Y17414D02*
X26481Y17435D01*
X26423Y17414D02*
X26460D01*
X22412Y19875D02*
X23281D01*
X15691Y4595D02*
X15871D01*
X15921Y4545D01*
X15941Y4525D01*
X15911Y4545D02*
X15921D01*
X15941Y4125D02*
X16161D01*
X28349Y10788D02*
X28961D01*
X28271Y10865D02*
X28349Y10788D01*
X24045Y11181D02*
X24591D01*
X21121Y5135D02*
Y5345D01*
X21241Y5465D01*
X16981Y4185D02*
X17071Y4095D01*
X17441D01*
X17701Y3835D01*
X18341D01*
X20051Y4385D02*
Y4555D01*
Y4385D02*
X20371Y4065D01*
X20621D01*
X20511Y4455D02*
Y4465D01*
X20621Y4575D01*
Y3845D02*
Y4065D01*
X32681Y6835D02*
X33111D01*
X33121Y6845D01*
X25741Y16235D02*
X26053Y16547D01*
X24741Y16905D02*
X25008Y17172D01*
X27796Y24957D02*
X27802D01*
X28202Y25357D01*
X28229D01*
X27369Y24957D02*
X27796D01*
X27363Y24951D02*
X27369Y24957D01*
X26975Y24951D02*
X27363D01*
X28229Y24957D02*
X28235D01*
X28629Y25351D02*
X28662D01*
X28898D01*
X28977Y25272D02*
Y25311D01*
X28977Y25311D02*
X28977Y25311D01*
X28898Y25351D02*
X28977Y25272D01*
X27481Y24367D02*
X27717D01*
X28229Y24800D02*
Y24957D01*
X28111Y24682D02*
X28229Y24800D01*
X26379Y24682D02*
X28111D01*
X28144Y24367D02*
X28150D01*
X27744Y23967D02*
X28144Y24367D01*
X27323Y23467D02*
X27757D01*
X27015D02*
X27323D01*
X27009Y23461D02*
X27015Y23467D01*
X27475Y23967D02*
X27717D01*
X27284Y23776D02*
X27475Y23967D01*
X27284Y23776D02*
X27284D01*
X27283Y23777D02*
X27284Y23776D01*
X27717Y22201D02*
X27723D01*
X28117Y22595D01*
X28150D01*
Y21808D02*
Y21847D01*
X27717Y22201D02*
X28111Y21808D01*
X28150D01*
Y22195D02*
X28156D01*
X28556Y22595D01*
X28583D01*
X27566Y22601D02*
X27717D01*
X27540Y22812D02*
X27560Y22831D01*
X27540Y22793D02*
Y22812D01*
X27717Y22601D02*
Y22696D01*
X27560Y22831D02*
X27582D01*
X27717Y22696D01*
X17361Y22155D02*
X19246D01*
X19646Y20705D02*
X21581D01*
X22412Y19875D01*
X19253Y21099D02*
X19646Y20705D01*
X19253Y21099D02*
Y21374D01*
X28583Y22595D02*
X28822D01*
X29001Y22415D01*
X27075Y4209D02*
X27081Y4215D01*
X6817Y4135D02*
X7009Y4327D01*
Y4341D01*
X6541Y4135D02*
X6817D01*
X7009Y4341D02*
X7297Y4335D01*
X25749Y20351D02*
Y20508D01*
X25985Y20745D01*
X26497D01*
X26615Y20863D01*
Y20994D01*
X26641Y21020D01*
X24721Y20225D02*
X25771D01*
X26654Y21020D02*
X26772D01*
X27281Y20511D01*
Y20155D02*
Y20511D01*
X25945Y19576D02*
Y19799D01*
X26321Y20175D01*
X28465Y8622D02*
X28961D01*
X28386Y22871D02*
Y23061D01*
X28373D02*
X28386Y23048D01*
X28150Y23061D02*
X28583D01*
X27371Y7135D02*
Y7215D01*
X30811Y6605D02*
X31580D01*
X32481Y7241D02*
Y8045D01*
X31856Y6881D02*
Y7078D01*
X31940Y7162D01*
X32402D02*
X32481Y7241D01*
X31940Y7162D02*
X32402D01*
X31580Y6605D02*
X31856Y6881D01*
X32301Y3735D02*
X32363Y3797D01*
X27442Y22015D02*
X27801Y21655D01*
X27442Y22015D02*
Y22477D01*
X27566Y22601D01*
X22791Y9235D02*
X23609D01*
X23784Y9410D01*
X24591D01*
X22851Y11345D02*
X23019Y11178D01*
X23549D01*
X24136Y10591D01*
X26569Y21526D02*
X26694D01*
X26379Y21335D02*
X26569Y21526D01*
X24921Y5866D02*
Y6496D01*
X25316Y5587D02*
Y5827D01*
X25775Y5879D02*
X25801Y5905D01*
X23067Y3815D02*
X23189Y3937D01*
Y5669D01*
X23465Y5945D01*
X26182Y4921D02*
X26893Y4209D01*
X27075D01*
X26182Y4921D02*
Y5354D01*
X26181Y5354D02*
X26182Y5354D01*
X2371Y8735D02*
X2719Y8388D01*
X2719Y8386D02*
X3701D01*
X3760Y8327D01*
X7221Y8965D02*
X7919Y8268D01*
X8228D01*
X12598Y8307D02*
X12677Y8228D01*
X12339Y8307D02*
X12598D01*
X11856Y8790D02*
X12339Y8307D01*
X15871Y8459D02*
Y8775D01*
Y8459D02*
X16024Y8307D01*
X16850D02*
X16850Y8307D01*
X16024Y8307D02*
X16850D01*
X28961Y10197D02*
X29763D01*
X28268Y10090D02*
X28554Y9803D01*
X28961D01*
X30039Y8027D02*
Y8487D01*
X29921Y8605D02*
X30039Y8487D01*
X28701Y15551D02*
X29016Y15866D01*
Y17047D01*
X29763Y10197D02*
X29861Y10099D01*
Y10695D01*
X30330Y9346D02*
Y9370D01*
X31000Y10039D01*
X31024D01*
X33021Y7645D02*
X33275D01*
X32165Y9488D02*
X32362Y9685D01*
Y9764D01*
X31024Y10039D02*
X31102D01*
X31378Y9764D01*
X29016Y17047D02*
X29017Y17204D01*
X31378Y9764D02*
X31929D01*
X31576Y9331D02*
X31765D01*
X28142Y17413D02*
X28453D01*
X28819Y17047D01*
Y16535D02*
Y17047D01*
X28301Y17675D02*
X28545D01*
X29017Y17204D01*
X32481Y8045D02*
X32664Y8228D01*
X33031D01*
D36*
X25646Y18079D02*
X25792Y18225D01*
X26562D01*
X25457Y18079D02*
X25646D01*
X25323Y18213D02*
X25457Y18079D01*
X25323Y18213D02*
Y18303D01*
X25101Y18525D02*
X25323Y18303D01*
X26381Y12573D02*
Y12949D01*
X26115Y13215D02*
X26381Y12949D01*
X26081Y13215D02*
X26115D01*
X28583Y21614D02*
Y22195D01*
X28111Y19955D02*
Y21142D01*
X27517D02*
X28111D01*
X27251Y21407D02*
X27517Y21142D01*
X17031Y5495D02*
X17491D01*
X16981Y5446D02*
X17031Y5495D01*
X16981Y4985D02*
Y5446D01*
X15894Y18335D02*
X15984Y18425D01*
X15894Y18031D02*
Y18335D01*
X18150Y18425D02*
X19111Y17464D01*
X15984Y18425D02*
X18150D01*
X30049Y8898D02*
X30321Y8625D01*
X27859Y8123D02*
X28041Y8305D01*
X25694Y7186D02*
X25749Y7130D01*
X25694Y7186D02*
Y7717D01*
X4541Y5265D02*
X4931Y4875D01*
X4541Y5265D02*
Y5335D01*
X30291Y7125D02*
X30811Y6605D01*
X30951Y7785D02*
X31391D01*
X27859Y7717D02*
Y8123D01*
X28571Y7395D02*
Y7605D01*
X28460Y7717D02*
X28571Y7605D01*
X28253Y7717D02*
X28460D01*
X30891Y5815D02*
X30931Y5855D01*
X26284Y12476D02*
X26381Y12573D01*
X26501Y12106D02*
Y12469D01*
X26284Y12087D02*
Y12476D01*
X25890Y12087D02*
Y12894D01*
X25740Y13045D02*
X25890Y12894D01*
X25441Y13045D02*
X25740D01*
X15671Y7385D02*
X15731Y7325D01*
Y7065D02*
Y7325D01*
Y7065D02*
X15901D01*
X15721Y7045D02*
X15741Y7065D01*
X15721Y6965D02*
Y7045D01*
X15441Y6965D02*
X15721D01*
X15441D02*
X15461Y6985D01*
X15431Y7385D02*
X15671D01*
X19431Y12305D02*
X19681D01*
X20671Y11315D01*
X21661D01*
X21721Y11375D01*
X21951Y8245D02*
X22111Y8085D01*
X22791D01*
X23341Y7535D01*
Y7445D02*
Y7535D01*
X26481Y12087D02*
X26501Y12106D01*
X19801Y7115D02*
X20151D01*
X20161Y7125D01*
X26562Y19124D02*
Y19481D01*
X27091Y19265D02*
Y19885D01*
X24041Y18525D02*
X25101D01*
X23751Y18815D02*
X24041Y18525D01*
X23651Y18815D02*
X23751D01*
X26562Y17884D02*
Y18225D01*
X17831Y5495D02*
X18121Y5205D01*
X16485Y5495D02*
X17491D01*
X17831D01*
X18121Y4965D02*
Y5205D01*
X16248Y5258D02*
Y5340D01*
Y5258D02*
X16485Y5495D01*
X31391Y7785D02*
X31511Y7905D01*
Y8595D01*
X28150Y23461D02*
Y23934D01*
X27757Y23067D02*
X28150Y23461D01*
Y23934D02*
X28583Y24367D01*
X28662Y24445D01*
Y24951D01*
X27323Y23067D02*
X27757D01*
X27251Y21575D02*
Y22995D01*
X27323Y23067D01*
X27941Y19785D02*
X28111Y19955D01*
X29935Y6713D02*
X30292D01*
X30931Y6074D01*
Y5855D02*
Y6074D01*
X28111Y21142D02*
X28583Y21614D01*
X26501Y12469D02*
X26575Y12544D01*
Y13165D01*
X26711D01*
X26562Y17884D02*
X26801Y17645D01*
Y17435D02*
Y17645D01*
X26562Y18225D02*
Y19052D01*
X26878D01*
X27091Y19265D01*
X27701Y8525D02*
X28019Y8843D01*
X28131D01*
X28213Y8925D01*
X28026Y9410D02*
X28961D01*
X28213Y8925D02*
X28402D01*
X27402Y8701D02*
X28096Y9395D01*
X28402Y8925D02*
X28508Y8819D01*
X28961D01*
X29449Y8178D02*
X29521Y8105D01*
X28961Y10000D02*
X28961Y10000D01*
X29761Y7695D02*
Y8270D01*
X29449Y9606D02*
X29606Y9449D01*
X28961Y9606D02*
X29449D01*
X29606Y8426D02*
X29761Y8270D01*
X29449Y8178D02*
Y8359D01*
X29448Y8360D02*
X29449Y8359D01*
X29448Y8360D02*
Y8892D01*
X29334Y9006D02*
X29448Y8892D01*
X29606Y8426D02*
Y9449D01*
X29764Y8898D02*
X30049D01*
X28961Y10000D02*
X29449D01*
X29764Y9685D01*
Y8898D02*
Y9685D01*
X31511Y8595D02*
X31871Y8955D01*
X31981D01*
D37*
X1281Y10687D02*
Y11220D01*
Y10687D02*
X1417Y10551D01*
X33021Y13215D02*
X34580D01*
X34724Y13071D01*
Y9331D02*
Y13071D01*
X25039Y21614D02*
X25472Y21181D01*
Y21020D02*
Y21181D01*
Y21020D02*
X26254D01*
X33662Y3934D02*
X33819D01*
X26162Y19130D02*
Y19347D01*
X26026Y19483D02*
X26162Y19347D01*
X33071Y5725D02*
Y6095D01*
Y5275D02*
Y5725D01*
X15111Y705D02*
X15121D01*
X26790Y20245D02*
X26811D01*
X25716Y19130D02*
X26162D01*
X25441Y18855D02*
X25716Y19130D01*
X24451Y18855D02*
X25441D01*
X33111Y6435D02*
X33121Y6445D01*
X33071Y6095D02*
X33121Y6145D01*
Y6445D01*
D38*
X32481Y1171D02*
X33229D01*
X22131Y2965D02*
X22189D01*
X36461Y1345D02*
X36861Y945D01*
X38469D01*
X38780Y1256D01*
Y3855D01*
X35981Y2375D02*
X36461Y1895D01*
Y1345D02*
Y1895D01*
X23032Y2122D02*
X24213D01*
X24607Y1729D01*
X22189Y2965D02*
X23032Y2122D01*
X24607Y1217D02*
Y1729D01*
Y1217D02*
X24804Y1020D01*
X31339D01*
X31453Y1134D01*
Y1171D01*
X32481D01*
D39*
X34377D02*
X34449Y1099D01*
X33412Y1171D02*
X34377D01*
X25316Y5827D02*
X25367Y5879D01*
X25316Y5233D02*
Y5827D01*
X25669Y6654D02*
X25748Y6732D01*
X25669Y6405D02*
Y6654D01*
Y6405D02*
X25775Y6299D01*
X2087Y2677D02*
X2402D01*
X1496Y2087D02*
X2087Y2677D01*
X1496Y1417D02*
Y2087D01*
X1299Y9646D02*
Y9882D01*
X25748Y6732D02*
Y6772D01*
X31551Y3425D02*
X31615Y3362D01*
Y2359D02*
Y3362D01*
Y2359D02*
X31969Y2004D01*
X32890Y4875D02*
X33071D01*
X32454Y5311D02*
X32890Y4875D01*
X32442Y5311D02*
X32454D01*
X35670Y3097D02*
Y4052D01*
X35512Y2752D02*
Y2940D01*
X35670Y3097D01*
X35237Y4485D02*
X35670Y4052D01*
X33819Y3934D02*
X34371Y4485D01*
X33229Y1171D02*
X33662Y1604D01*
Y2083D01*
X31551Y3425D02*
Y3725D01*
X31561Y3735D02*
X31901D01*
X31551Y3725D02*
X31561Y3735D01*
X15851Y6135D02*
Y6435D01*
X15731Y6555D02*
X15851Y6435D01*
X15441Y6555D02*
X15731D01*
X4751Y9515D02*
X4891Y9655D01*
X4741Y9525D02*
X4751Y9515D01*
X4891Y9655D02*
Y10325D01*
Y11191D02*
Y11875D01*
X4675Y10975D02*
X4891Y11191D01*
X4641Y10575D02*
X4891Y10325D01*
X5561D01*
X26418Y25351D02*
X27363D01*
X26182Y3858D02*
Y3934D01*
X25316Y4800D02*
X26182Y3934D01*
X25316Y4800D02*
Y5233D01*
X34371Y4485D02*
X35237D01*
X36210Y913D02*
X36260Y863D01*
X35296Y1079D02*
X35462Y913D01*
X36210D01*
X34669Y2375D02*
X35981D01*
X34646Y2398D02*
X34669Y2375D01*
X34449Y1079D02*
X35296D01*
X27363Y25351D02*
X27790D01*
X27796Y25357D01*
X26694Y21926D02*
Y22241D01*
X32245Y2004D02*
X32481Y1768D01*
Y1171D02*
Y1768D01*
X31969Y2004D02*
X32245D01*
X25775Y6279D02*
Y6299D01*
X25361D02*
X25775D01*
X4103Y10975D02*
X4675D01*
X4103Y10575D02*
X4641D01*
X4094Y10584D02*
X4103Y10575D01*
D41*
X23651Y18815D02*
D03*
X6693Y8189D02*
D03*
X24371Y19635D02*
D03*
X23341Y7445D02*
D03*
X30941Y7155D02*
D03*
X30881Y8305D02*
D03*
X18150Y12913D02*
D03*
X18151Y12185D02*
D03*
X16141Y12355D02*
D03*
X15191Y8765D02*
D03*
X15871Y8775D02*
D03*
X14221Y12235D02*
D03*
X14241Y13035D02*
D03*
X11631Y12275D02*
D03*
X3780Y2677D02*
D03*
X37087Y5709D02*
D03*
Y5000D02*
D03*
X37795D02*
D03*
X37835Y4252D02*
D03*
X37087D02*
D03*
X37795Y5709D02*
D03*
D42*
X21457Y17480D02*
D03*
X23504Y16260D02*
D03*
X25079Y16811D02*
D03*
X26024Y17756D02*
D03*
X25977Y16930D02*
D03*
X24882Y19843D02*
D03*
X24331Y16260D02*
D03*
X22638Y16811D02*
D03*
X25551Y18307D02*
D03*
X24951Y18195D02*
D03*
X29521Y8105D02*
D03*
X30041Y8065D02*
D03*
X29161Y8095D02*
D03*
X20472Y8386D02*
D03*
X35044Y12515D02*
D03*
X24370Y20787D02*
D03*
X20197Y16772D02*
D03*
X19111Y17464D02*
D03*
X9646Y1457D02*
D03*
X6191Y1772D02*
D03*
X4016Y1496D02*
D03*
X1291Y4764D02*
D03*
X1496Y6181D02*
D03*
X1969Y8189D02*
D03*
X1299Y9882D02*
D03*
X1417Y10551D02*
D03*
X34213Y8622D02*
D03*
X26496Y17402D02*
D03*
X23780Y20787D02*
D03*
X25748Y6772D02*
D03*
X24331Y4055D02*
D03*
X27245Y23815D02*
D03*
X28425Y23701D02*
D03*
X17362Y5000D02*
D03*
X20276Y4764D02*
D03*
X24528Y17402D02*
D03*
X11083Y13795D02*
D03*
X12205Y13937D02*
D03*
X17520Y2165D02*
D03*
X25197Y6772D02*
D03*
X28898Y7201D02*
D03*
X28071Y6926D02*
D03*
X25749Y7130D02*
D03*
X19681Y23785D02*
D03*
X1971Y10385D02*
D03*
X1611Y13425D02*
D03*
X2941Y12435D02*
D03*
X2001Y14605D02*
D03*
X7771Y12835D02*
D03*
X11621Y13915D02*
D03*
X20956Y4100D02*
D03*
X29051Y3805D02*
D03*
X22671Y4915D02*
D03*
X6351Y5255D02*
D03*
X6121Y5525D02*
D03*
X18941Y7765D02*
D03*
X25161Y10635D02*
D03*
X25181Y11525D02*
D03*
X26081Y13215D02*
D03*
X19431Y8065D02*
D03*
X26391Y16785D02*
D03*
X24881Y17425D02*
D03*
X30301Y4775D02*
D03*
X33641Y6295D02*
D03*
X33071Y5725D02*
D03*
X34441Y3145D02*
D03*
X31551Y3725D02*
D03*
X31641Y5045D02*
D03*
X30721Y4855D02*
D03*
X29571Y5035D02*
D03*
X29761Y7695D02*
D03*
X27281Y6735D02*
D03*
X27351Y5205D02*
D03*
X25241Y9665D02*
D03*
X19431Y3825D02*
D03*
X21461Y2325D02*
D03*
X22961Y8295D02*
D03*
X11441Y1035D02*
D03*
X19551Y2345D02*
D03*
X21453Y10453D02*
D03*
X22271D02*
D03*
X26331Y11355D02*
D03*
X15121Y705D02*
D03*
X11591Y2395D02*
D03*
X12321Y1425D02*
D03*
X14331Y2365D02*
D03*
X13571Y1075D02*
D03*
X33031Y11085D02*
D03*
X29611Y10485D02*
D03*
X30951Y7785D02*
D03*
X29501Y14325D02*
D03*
X28581Y7385D02*
D03*
X30311Y6265D02*
D03*
X30191Y12025D02*
D03*
X31401Y11185D02*
D03*
X29141Y14855D02*
D03*
X27371D02*
D03*
X27441Y11095D02*
D03*
X26141Y12655D02*
D03*
X25431Y13035D02*
D03*
X21141Y9365D02*
D03*
X25451Y12725D02*
D03*
X27191Y12635D02*
D03*
X26851D02*
D03*
X29641Y12865D02*
D03*
X26381Y14955D02*
D03*
X27421Y13625D02*
D03*
X27891Y16295D02*
D03*
X28551Y12035D02*
D03*
X28261Y12635D02*
D03*
X26921Y11335D02*
D03*
X22291Y13335D02*
D03*
X19051Y14165D02*
D03*
X19121Y13785D02*
D03*
X24541Y13385D02*
D03*
X20031Y10845D02*
D03*
X14961Y3595D02*
D03*
X14351Y7995D02*
D03*
X12621Y2485D02*
D03*
X11856Y8790D02*
D03*
X12741Y3815D02*
D03*
X11671Y10795D02*
D03*
X17601Y4555D02*
D03*
X18341Y3835D02*
D03*
X15881Y3805D02*
D03*
X15851Y6135D02*
D03*
X14721Y7295D02*
D03*
X15901Y7065D02*
D03*
X30061Y11305D02*
D03*
X22731Y7755D02*
D03*
X18741Y7505D02*
D03*
X14391Y7535D02*
D03*
X9981Y7515D02*
D03*
X5361Y7735D02*
D03*
X4741Y9525D02*
D03*
X4931Y11915D02*
D03*
X17581Y5245D02*
D03*
X16571Y12725D02*
D03*
X19131Y11555D02*
D03*
X18555Y8331D02*
D03*
X17651Y11985D02*
D03*
X14801Y13355D02*
D03*
X16951Y12645D02*
D03*
X16711Y11255D02*
D03*
X7221Y8965D02*
D03*
X10161Y7775D02*
D03*
X22971Y6275D02*
D03*
X18751Y6265D02*
D03*
X14431Y6235D02*
D03*
X10021Y6255D02*
D03*
X6101Y5845D02*
D03*
X25011Y7135D02*
D03*
X24961Y5075D02*
D03*
X18091Y4315D02*
D03*
X22761Y9205D02*
D03*
X22911Y4315D02*
D03*
X24041Y8765D02*
D03*
X23891Y9065D02*
D03*
X2661Y10685D02*
D03*
X22131Y10735D02*
D03*
X6441Y8735D02*
D03*
X23951Y13905D02*
D03*
X22851Y11635D02*
D03*
X25241Y9975D02*
D03*
X25231Y10325D02*
D03*
X26501Y8955D02*
D03*
X23981Y10075D02*
D03*
X17691Y3575D02*
D03*
X8536Y3400D02*
D03*
X11991Y4985D02*
D03*
X13731Y4315D02*
D03*
X13869Y5308D02*
D03*
X12731Y4865D02*
D03*
X14281Y4605D02*
D03*
X11691Y6665D02*
D03*
X11311Y5985D02*
D03*
X10901Y7875D02*
D03*
X13931Y8375D02*
D03*
X13541Y12535D02*
D03*
X13411Y11905D02*
D03*
X12071Y12745D02*
D03*
X10741Y11055D02*
D03*
X10331Y13075D02*
D03*
X13346Y8440D02*
D03*
X16581Y13385D02*
D03*
X16001Y13925D02*
D03*
X28771Y6395D02*
D03*
X28861Y5475D02*
D03*
X25316Y5233D02*
D03*
X27301Y6435D02*
D03*
X26341Y7045D02*
D03*
X27931Y6575D02*
D03*
X27271Y8335D02*
D03*
X27081Y7185D02*
D03*
X27681Y7175D02*
D03*
X31861Y1625D02*
D03*
X31115Y1509D02*
D03*
X29875Y1659D02*
D03*
X29141Y1495D02*
D03*
X27881Y1605D02*
D03*
X27131Y1485D02*
D03*
X25881Y1585D02*
D03*
X25121Y1495D02*
D03*
X31051Y3985D02*
D03*
X26071Y6495D02*
D03*
X24571D02*
D03*
X24141Y6855D02*
D03*
X23861Y1565D02*
D03*
X23131Y1545D02*
D03*
X28571Y5335D02*
D03*
X25497Y11335D02*
D03*
X27831Y10715D02*
D03*
X27661Y11315D02*
D03*
X28241Y11575D02*
D03*
X26671Y8225D02*
D03*
X22361Y4075D02*
D03*
X17841D02*
D03*
X13451Y4065D02*
D03*
X6191Y4635D02*
D03*
X7371Y4985D02*
D03*
X7311Y4675D02*
D03*
X8321Y5495D02*
D03*
X4041Y5035D02*
D03*
X3991Y5555D02*
D03*
X2071Y5035D02*
D03*
X3561Y9435D02*
D03*
X6461Y10395D02*
D03*
X9681Y10775D02*
D03*
X8691Y12235D02*
D03*
X22171Y14125D02*
D03*
X13761Y14155D02*
D03*
X18511Y10795D02*
D03*
X15861Y13255D02*
D03*
X14731Y12535D02*
D03*
X14681Y14135D02*
D03*
X10351Y12035D02*
D03*
X10431Y14125D02*
D03*
X5401Y5295D02*
D03*
X9431Y3685D02*
D03*
X7681Y3805D02*
D03*
X7421Y5325D02*
D03*
X8051Y3805D02*
D03*
X7341Y6155D02*
D03*
X7351Y6515D02*
D03*
X6311Y7075D02*
D03*
X6811Y3735D02*
D03*
X3661Y4655D02*
D03*
X2691Y3855D02*
D03*
Y4565D02*
D03*
X2821Y5565D02*
D03*
X27113Y18402D02*
D03*
Y18874D02*
D03*
X27586Y18402D02*
D03*
Y18874D02*
D03*
X2431Y12445D02*
D03*
X4681Y13145D02*
D03*
X3461Y10485D02*
D03*
X4931Y13645D02*
D03*
X6031Y14175D02*
D03*
X9381Y14215D02*
D03*
X9011Y13195D02*
D03*
X6441Y13345D02*
D03*
X9371Y12565D02*
D03*
X6941Y12485D02*
D03*
X6781Y13825D02*
D03*
X7771Y11835D02*
D03*
X9345Y8449D02*
D03*
X2991Y6685D02*
D03*
X1801Y6845D02*
D03*
X2051Y5785D02*
D03*
X2371Y8735D02*
D03*
X4801Y2095D02*
D03*
X5801Y4355D02*
D03*
X9121D02*
D03*
X5751Y4046D02*
D03*
X8851Y4055D02*
D03*
X3221Y5585D02*
D03*
X2971Y6305D02*
D03*
X3621Y5055D02*
D03*
X5731Y8535D02*
D03*
X6481Y2975D02*
D03*
X4931Y4515D02*
D03*
X15481Y8315D02*
D03*
X18611Y7875D02*
D03*
X20291Y9505D02*
D03*
X20551Y13065D02*
D03*
X19201Y12595D02*
D03*
X19431Y12305D02*
D03*
X21721Y11375D02*
D03*
X21501Y12755D02*
D03*
X18631Y13245D02*
D03*
X18571Y13815D02*
D03*
X22471Y8345D02*
D03*
X21951Y8245D02*
D03*
X19281Y11845D02*
D03*
X25221Y8975D02*
D03*
X26821Y8505D02*
D03*
X25251Y8655D02*
D03*
X24881Y7945D02*
D03*
X26047Y8417D02*
D03*
X25737Y8359D02*
D03*
X27146Y9030D02*
D03*
X26711Y13165D02*
D03*
X20161Y7125D02*
D03*
X20370Y6121D02*
D03*
X19101Y4605D02*
D03*
X20051Y4555D02*
D03*
X22831Y5635D02*
D03*
X37638Y3067D02*
D03*
X34391Y585D02*
D03*
X33986Y4750D02*
D03*
X36182Y5981D02*
D03*
X27091Y19885D02*
D03*
X24451Y18855D02*
D03*
X27281Y20155D02*
D03*
X28031Y16755D02*
D03*
X28301Y17675D02*
D03*
X27383Y16934D02*
D03*
X28411Y17055D02*
D03*
X24981Y17835D02*
D03*
X25041Y19145D02*
D03*
X28142Y17413D02*
D03*
X29001Y22415D02*
D03*
X27611Y20625D02*
D03*
X22591Y17645D02*
D03*
X27821Y20305D02*
D03*
X23011Y18695D02*
D03*
X28675Y18581D02*
D03*
X29001Y18535D02*
D03*
X28921Y18035D02*
D03*
X27941Y19785D02*
D03*
X24231Y16945D02*
D03*
X25381Y14295D02*
D03*
X26761Y14235D02*
D03*
X26471Y16265D02*
D03*
X25741Y16235D02*
D03*
X28511Y16635D02*
D03*
X26801Y17435D02*
D03*
X23921Y16945D02*
D03*
X15981Y5185D02*
D03*
X16248Y5340D02*
D03*
X15691Y4595D02*
D03*
X12641Y5365D02*
D03*
X28271Y10865D02*
D03*
X21241Y5465D02*
D03*
X4841Y12525D02*
D03*
X11331Y4575D02*
D03*
X24591Y8195D02*
D03*
X24751Y16895D02*
D03*
X26975Y24951D02*
D03*
X28977Y25311D02*
D03*
X26418Y25351D02*
D03*
X27481Y24367D02*
D03*
X26379Y24682D02*
D03*
X27009Y23461D02*
D03*
X28150Y21847D02*
D03*
X26969Y22398D02*
D03*
X25079Y21099D02*
D03*
X27540Y22793D02*
D03*
X27205Y20981D02*
D03*
X19253Y22162D02*
D03*
Y22595D02*
D03*
Y21374D02*
D03*
X38780Y3855D02*
D03*
X37520Y1650D02*
D03*
X26339Y5784D02*
D03*
X22131Y3575D02*
D03*
X22761Y3815D02*
D03*
X23261Y3575D02*
D03*
X23623Y4485D02*
D03*
X32953Y1847D02*
D03*
X34371Y4485D02*
D03*
X35473Y2752D02*
D03*
X36260Y863D02*
D03*
X34449Y1099D02*
D03*
X35721Y625D02*
D03*
X35741Y1345D02*
D03*
X35821Y1885D02*
D03*
X34646Y2398D02*
D03*
X17323Y1532D02*
D03*
X2323Y13819D02*
D03*
X4725Y8382D02*
D03*
X25039Y21614D02*
D03*
X28386Y22913D02*
D03*
X26379Y21335D02*
D03*
X26694Y22241D02*
D03*
X3760Y8327D02*
D03*
X8228Y8268D02*
D03*
X12677Y8228D02*
D03*
X16850Y8307D02*
D03*
X20176Y8147D02*
D03*
X20878Y8394D02*
D03*
X27701Y8525D02*
D03*
X28041Y8305D02*
D03*
X28465Y9173D02*
D03*
X28386Y8622D02*
D03*
X27283Y8661D02*
D03*
X32362Y9764D02*
D03*
X31929D02*
D03*
X28976Y17638D02*
D03*
X33031Y8228D02*
D03*
D43*
X35276Y3661D02*
D03*
X34764D02*
D03*
D44*
X17361Y22155D02*
D03*
X16361Y21655D02*
D03*
X16361Y23655D02*
D03*
X17361Y24155D02*
D03*
X16361Y22655D02*
D03*
X17351Y21155D02*
D03*
X16351Y24655D02*
D03*
X17351Y23155D02*
D03*
D45*
X13951Y20605D02*
D03*
Y25205D02*
D03*
D46*
X15691Y1565D02*
D03*
X32021Y13215D02*
D03*
X31969Y8898D02*
D03*
X32008Y10276D02*
D03*
X33021Y7645D02*
D03*
X32021Y11775D02*
D03*
X32011Y14675D02*
D03*
X9131Y2965D02*
D03*
X21231Y1545D02*
D03*
X15261Y15715D02*
D03*
X27081Y4215D02*
D03*
D47*
X16691Y1565D02*
D03*
X33021Y13215D02*
D03*
X32968Y8898D02*
D03*
X33008Y10276D02*
D03*
X32021Y7645D02*
D03*
X33021Y11775D02*
D03*
X33011Y14675D02*
D03*
X30984Y14709D02*
D03*
Y13709D02*
D03*
Y12709D02*
D03*
Y11709D02*
D03*
X10131Y2965D02*
D03*
X11131D02*
D03*
X12131D02*
D03*
X13131D02*
D03*
X14131D02*
D03*
X15131D02*
D03*
X16131D02*
D03*
X17131D02*
D03*
X18131D02*
D03*
X19131D02*
D03*
X20131D02*
D03*
X21131D02*
D03*
X22131D02*
D03*
X23131D02*
D03*
X24131D02*
D03*
X25131D02*
D03*
X26131D02*
D03*
X27131D02*
D03*
X28131D02*
D03*
X29131D02*
D03*
X30131D02*
D03*
X31131D02*
D03*
X32131D02*
D03*
X22231Y1545D02*
D03*
X16261Y15715D02*
D03*
X17261D02*
D03*
X18261D02*
D03*
X19261D02*
D03*
X20261D02*
D03*
X21261D02*
D03*
X22261D02*
D03*
X23261D02*
D03*
X24261D02*
D03*
X25261D02*
D03*
X26261D02*
D03*
X27261D02*
D03*
X23361Y11685D02*
D03*
Y10685D02*
D03*
Y9685D02*
D03*
Y8685D02*
D03*
X28081Y4215D02*
D03*
D48*
X21660Y6761D02*
D03*
X17360Y6761D02*
D03*
X13051Y6755D02*
D03*
X8680Y6751D02*
D03*
X4321Y6785D02*
D03*
X34134Y13937D02*
D03*
X35315Y13976D02*
D03*
X34724Y9331D02*
D03*
X36788Y8346D02*
D03*
X13425Y6378D02*
D03*
X12677D02*
D03*
Y7205D02*
D03*
X13465D02*
D03*
X21260Y6299D02*
D03*
X21220Y7165D02*
D03*
X22126D02*
D03*
Y6378D02*
D03*
X8268Y7205D02*
D03*
X9094D02*
D03*
X8268Y6339D02*
D03*
X9094D02*
D03*
X16929Y7205D02*
D03*
X16968Y6339D02*
D03*
X17756Y7165D02*
D03*
Y6339D02*
D03*
X4724Y7165D02*
D03*
X3898D02*
D03*
Y6378D02*
D03*
X4724Y6339D02*
D03*
D49*
X15394Y17531D02*
D03*
X15894D02*
D03*
X16394D02*
D03*
X16894D02*
D03*
X17394D02*
D03*
X15394Y18032D02*
D03*
X15894Y18031D02*
D03*
X16394Y18032D02*
D03*
X16894D02*
D03*
X17394D02*
D03*
D50*
X30984Y10709D02*
D03*
X23361Y12685D02*
D03*
D51*
X2402Y2677D02*
D03*
D52*
X23281Y19875D02*
D03*
X20781Y19835D02*
D03*
D53*
X19871Y18715D02*
D03*
X20961D02*
D03*
D66*
X28235Y24957D02*
X28629Y25351D01*
D69*
X1142Y6850D02*
D03*
X1496Y1417D02*
D03*
X7441Y1220D02*
D03*
X6220Y1260D02*
D03*
X5000Y1260D02*
D03*
X8701Y1220D02*
D03*
X1457Y5472D02*
D03*
Y11220D02*
D03*
Y4016D02*
D03*
X23465Y5945D02*
D03*
X15079Y4921D02*
D03*
X10315Y4449D02*
D03*
X5669Y3268D02*
D03*
X28465Y14921D02*
D03*
Y16181D02*
D03*
X24055Y21339D02*
D03*
X28465Y15551D02*
D03*
X22795Y21339D02*
D03*
X1496Y7677D02*
D03*
X1457Y8583D02*
D03*
Y9488D02*
D03*
X1457Y12323D02*
D03*
X1417Y14291D02*
D03*
D70*
X5561Y10325D02*
D03*
Y11191D02*
D03*
X4891Y11191D02*
D03*
Y10325D02*
D03*
D71*
X32442Y4524D02*
D03*
Y5311D02*
D03*
D72*
X33662Y3934D02*
D03*
Y2083D02*
D03*
D73*
X31024Y10039D02*
D03*
X30157D02*
D03*
X30157Y9370D02*
D03*
X31024D02*
D03*
X25749Y19682D02*
D03*
X26615D02*
D03*
Y20351D02*
D03*
X25749D02*
D03*
D74*
X24591Y8425D02*
D03*
Y8622D02*
D03*
Y8819D02*
D03*
Y9016D02*
D03*
Y9213D02*
D03*
Y9410D02*
D03*
Y9606D02*
D03*
Y9803D02*
D03*
Y10000D02*
D03*
Y10197D02*
D03*
Y10394D02*
D03*
Y10591D02*
D03*
Y10788D02*
D03*
Y10984D02*
D03*
Y11181D02*
D03*
Y11378D02*
D03*
X28961D02*
D03*
Y11181D02*
D03*
Y10984D02*
D03*
Y10788D02*
D03*
Y10591D02*
D03*
Y10394D02*
D03*
Y10197D02*
D03*
Y10000D02*
D03*
Y9803D02*
D03*
Y9606D02*
D03*
Y9410D02*
D03*
Y9213D02*
D03*
Y9016D02*
D03*
Y8819D02*
D03*
Y8622D02*
D03*
Y8425D02*
D03*
D75*
X25300Y12087D02*
D03*
X25497D02*
D03*
X25694D02*
D03*
X25890D02*
D03*
X26087D02*
D03*
X26284D02*
D03*
X26481D02*
D03*
X26678D02*
D03*
X26875D02*
D03*
X27071D02*
D03*
X27268D02*
D03*
X27465D02*
D03*
X27662D02*
D03*
X27859D02*
D03*
X28056D02*
D03*
X28253D02*
D03*
Y7717D02*
D03*
X28056D02*
D03*
X27859D02*
D03*
X27662D02*
D03*
X27465D02*
D03*
X27268D02*
D03*
X27071D02*
D03*
X26875D02*
D03*
X26678D02*
D03*
X26481D02*
D03*
X26284D02*
D03*
X26087D02*
D03*
X25890D02*
D03*
X25694D02*
D03*
X25497D02*
D03*
X25300D02*
D03*
D76*
X32681Y5885D02*
D03*
X31931D02*
D03*
D77*
X32301Y6685D02*
D03*
D78*
X30309Y5925D02*
D03*
X29561D02*
D03*
X29935Y6713D02*
D03*
D79*
X27251Y21575D02*
D03*
X27801D02*
D03*
D80*
X26181Y5354D02*
D03*
X23740D02*
D03*
X26181Y3937D02*
D03*
X23740D02*
D03*
M02*
