%FSLAX24Y24*%
%MOIN*%
G70*
G01*
G75*
G04 Layer_Color=16711935*
%ADD10R,0.0250X0.0200*%
%ADD11R,0.0362X0.0984*%
%ADD12R,0.0276X0.0394*%
%ADD13R,0.0689X0.1181*%
%ADD14R,0.0984X0.0866*%
%ADD15R,0.0200X0.0250*%
%ADD16R,0.0276X0.0394*%
%ADD17R,0.0315X0.0315*%
%ADD18R,0.0669X0.0492*%
%ADD19R,0.0300X0.0300*%
%ADD20R,0.0906X0.0906*%
%ADD21R,0.0600X0.0600*%
%ADD22R,0.0472X0.0354*%
%ADD23R,0.0472X0.0354*%
%ADD24R,0.0315X0.0315*%
%ADD25R,0.0236X0.0472*%
%ADD26O,0.0315X0.0098*%
%ADD27O,0.0098X0.0315*%
%ADD28O,0.0276X0.0098*%
%ADD29O,0.0098X0.0276*%
%ADD30R,0.1299X0.1299*%
%ADD31R,0.0750X0.0400*%
%ADD32R,0.1358X0.1358*%
%ADD33O,0.0984X0.0276*%
%ADD34C,0.0120*%
%ADD35C,0.0100*%
%ADD36C,0.0080*%
%ADD37C,0.0150*%
%ADD38C,0.0300*%
%ADD39C,0.0200*%
%ADD40C,0.0276*%
%ADD41C,0.0600*%
%ADD42C,0.0220*%
%ADD43C,0.0350*%
%ADD44C,0.0700*%
%ADD45C,0.1100*%
%ADD46R,0.0591X0.0591*%
%ADD47C,0.0591*%
%ADD48C,0.0320*%
%ADD49C,0.0354*%
%ADD50R,0.0591X0.0591*%
%ADD51R,0.0600X0.0600*%
%ADD52C,0.0710*%
%ADD53C,0.0900*%
%ADD54C,0.0400*%
G04:AMPARAMS|DCode=55|XSize=42mil|YSize=42mil|CornerRadius=0mil|HoleSize=0mil|Usage=FLASHONLY|Rotation=0.000|XOffset=0mil|YOffset=0mil|HoleType=Round|Shape=Relief|Width=5mil|Gap=5mil|Entries=4|*
%AMTHD55*
7,0,0,0.0420,0.0320,0.0050,45*
%
%ADD55THD55*%
%ADD56C,0.0420*%
%ADD57C,0.0500*%
%ADD58C,0.1400*%
%ADD59C,0.0654*%
%ADD60C,0.0497*%
G04:AMPARAMS|DCode=61|XSize=49.685mil|YSize=49.685mil|CornerRadius=0mil|HoleSize=0mil|Usage=FLASHONLY|Rotation=0.000|XOffset=0mil|YOffset=0mil|HoleType=Round|Shape=Relief|Width=5mil|Gap=5mil|Entries=4|*
%AMTHD61*
7,0,0,0.0497,0.0397,0.0050,45*
%
%ADD61THD61*%
G04:AMPARAMS|DCode=62|XSize=65.433mil|YSize=65.433mil|CornerRadius=0mil|HoleSize=0mil|Usage=FLASHONLY|Rotation=0.000|XOffset=0mil|YOffset=0mil|HoleType=Round|Shape=Relief|Width=5mil|Gap=5mil|Entries=4|*
%AMTHD62*
7,0,0,0.0654,0.0554,0.0050,45*
%
%ADD62THD62*%
G04:AMPARAMS|DCode=63|XSize=60mil|YSize=60mil|CornerRadius=0mil|HoleSize=0mil|Usage=FLASHONLY|Rotation=0.000|XOffset=0mil|YOffset=0mil|HoleType=Round|Shape=Relief|Width=5mil|Gap=5mil|Entries=4|*
%AMTHD63*
7,0,0,0.0600,0.0500,0.0050,45*
%
%ADD63THD63*%
%ADD64C,0.0770*%
%ADD65C,0.0480*%
%ADD66C,0.0090*%
G04:AMPARAMS|DCode=67|XSize=50mil|YSize=50mil|CornerRadius=0mil|HoleSize=0mil|Usage=FLASHONLY|Rotation=0.000|XOffset=0mil|YOffset=0mil|HoleType=Round|Shape=Relief|Width=5mil|Gap=5mil|Entries=4|*
%AMTHD67*
7,0,0,0.0500,0.0400,0.0050,45*
%
%ADD67THD67*%
G04:AMPARAMS|DCode=68|XSize=48mil|YSize=48mil|CornerRadius=0mil|HoleSize=0mil|Usage=FLASHONLY|Rotation=0.000|XOffset=0mil|YOffset=0mil|HoleType=Round|Shape=Relief|Width=5mil|Gap=5mil|Entries=4|*
%AMTHD68*
7,0,0,0.0480,0.0380,0.0050,45*
%
%ADD68THD68*%
%ADD69R,0.0709X0.0394*%
%ADD70R,0.0472X0.0551*%
%ADD71R,0.0394X0.0394*%
%ADD72R,0.0866X0.0984*%
%ADD73R,0.0551X0.0472*%
%ADD74O,0.0709X0.0118*%
%ADD75O,0.0118X0.0709*%
%ADD76R,0.0360X0.0360*%
%ADD77R,0.0360X0.0500*%
%ADD78R,0.0315X0.0354*%
%ADD79R,0.0300X0.0300*%
%ADD80R,0.0709X0.0433*%
%ADD81C,0.0040*%
%ADD82C,0.0098*%
%ADD83C,0.0060*%
%ADD84C,0.0050*%
%ADD85C,0.0197*%
%ADD86C,0.0079*%
%ADD87C,0.0157*%
%ADD88C,0.0030*%
%ADD89C,0.0059*%
%ADD90R,0.0330X0.0280*%
%ADD91R,0.0442X0.1064*%
%ADD92R,0.0356X0.0474*%
%ADD93R,0.0769X0.1261*%
%ADD94R,0.1064X0.0946*%
%ADD95R,0.0280X0.0330*%
%ADD96R,0.0356X0.0474*%
%ADD97R,0.0395X0.0395*%
%ADD98R,0.0749X0.0572*%
%ADD99R,0.0380X0.0380*%
%ADD100R,0.0986X0.0986*%
%ADD101R,0.0680X0.0680*%
%ADD102R,0.0552X0.0434*%
%ADD103R,0.0552X0.0434*%
%ADD104R,0.0395X0.0395*%
%ADD105R,0.0316X0.0552*%
%ADD106O,0.0395X0.0178*%
%ADD107O,0.0178X0.0395*%
%ADD108O,0.0356X0.0178*%
%ADD109O,0.0178X0.0356*%
%ADD110R,0.1379X0.1379*%
%ADD111R,0.0830X0.0480*%
%ADD112R,0.1438X0.1438*%
%ADD113O,0.1064X0.0356*%
%ADD114C,0.0680*%
%ADD115C,0.0300*%
%ADD116C,0.0430*%
%ADD117C,0.0780*%
%ADD118C,0.1180*%
%ADD119R,0.0671X0.0671*%
%ADD120C,0.0671*%
%ADD121C,0.0400*%
%ADD122C,0.0434*%
%ADD123R,0.0671X0.0671*%
%ADD124R,0.0680X0.0680*%
%ADD125C,0.0790*%
%ADD126C,0.0980*%
%ADD127R,0.0789X0.0474*%
%ADD128R,0.0552X0.0631*%
%ADD129R,0.0474X0.0474*%
%ADD130R,0.0946X0.1064*%
%ADD131R,0.0631X0.0552*%
%ADD132O,0.0789X0.0198*%
%ADD133O,0.0198X0.0789*%
%ADD134R,0.0440X0.0440*%
%ADD135R,0.0440X0.0580*%
%ADD136R,0.0395X0.0434*%
%ADD137R,0.0380X0.0380*%
%ADD138R,0.0789X0.0513*%
%ADD139C,0.0000*%
%ADD140C,0.0394*%
G36*
X7975Y1850D02*
X7928D01*
Y2129D01*
X7975D01*
Y1850D01*
D02*
G37*
G36*
X8096D02*
X8048D01*
Y2235D01*
X8096D01*
Y1850D01*
D02*
G37*
G36*
X7169Y2135D02*
X7179Y2134D01*
X7188Y2131D01*
X7197Y2128D01*
X7205Y2125D01*
X7212Y2121D01*
X7218Y2117D01*
X7225Y2112D01*
X7230Y2108D01*
X7234Y2104D01*
X7238Y2100D01*
X7241Y2096D01*
X7244Y2093D01*
X7246Y2091D01*
X7246Y2090D01*
X7247Y2089D01*
Y2129D01*
X7290D01*
Y1850D01*
X7242D01*
Y2002D01*
Y2012D01*
X7241Y2021D01*
X7240Y2029D01*
X7239Y2036D01*
X7237Y2043D01*
X7235Y2049D01*
X7233Y2054D01*
X7231Y2059D01*
X7229Y2063D01*
X7228Y2066D01*
X7224Y2071D01*
X7222Y2074D01*
X7221Y2075D01*
X7212Y2081D01*
X7203Y2086D01*
X7195Y2090D01*
X7187Y2092D01*
X7179Y2093D01*
X7174Y2094D01*
X7168D01*
X7161Y2094D01*
X7156Y2093D01*
X7150Y2091D01*
X7145Y2090D01*
X7141Y2088D01*
X7138Y2087D01*
X7136Y2086D01*
X7136Y2086D01*
X7131Y2082D01*
X7127Y2078D01*
X7123Y2074D01*
X7121Y2070D01*
X7119Y2067D01*
X7118Y2065D01*
X7116Y2063D01*
Y2062D01*
X7115Y2056D01*
X7113Y2050D01*
X7112Y2042D01*
X7111Y2036D01*
X7111Y2029D01*
Y2024D01*
Y2021D01*
Y2020D01*
Y2019D01*
Y1850D01*
X7063D01*
Y2021D01*
Y2033D01*
X7064Y2042D01*
X7064Y2050D01*
Y2057D01*
X7065Y2062D01*
X7066Y2065D01*
X7066Y2067D01*
Y2067D01*
X7068Y2074D01*
X7070Y2081D01*
X7073Y2087D01*
X7075Y2092D01*
X7077Y2096D01*
X7079Y2100D01*
X7080Y2101D01*
X7081Y2102D01*
X7085Y2107D01*
X7090Y2112D01*
X7095Y2116D01*
X7101Y2119D01*
X7105Y2122D01*
X7109Y2124D01*
X7111Y2125D01*
X7112Y2126D01*
X7121Y2129D01*
X7128Y2131D01*
X7136Y2133D01*
X7143Y2134D01*
X7149Y2135D01*
X7154Y2135D01*
X7159D01*
X7169Y2135D01*
D02*
G37*
G36*
X4687D02*
X4693Y2134D01*
X4698Y2132D01*
X4702Y2131D01*
X4706Y2128D01*
X4709Y2127D01*
X4711Y2126D01*
X4711Y2125D01*
X4717Y2121D01*
X4721Y2115D01*
X4727Y2109D01*
X4731Y2103D01*
X4735Y2097D01*
X4738Y2091D01*
X4740Y2088D01*
X4741Y2087D01*
Y2129D01*
X4783D01*
Y1850D01*
X4736D01*
Y1996D01*
X4735Y2007D01*
X4735Y2017D01*
X4734Y2026D01*
X4732Y2035D01*
X4731Y2042D01*
X4730Y2047D01*
X4729Y2050D01*
X4728Y2051D01*
X4726Y2057D01*
X4724Y2062D01*
X4721Y2067D01*
X4718Y2070D01*
X4716Y2073D01*
X4713Y2076D01*
X4712Y2077D01*
X4711Y2077D01*
X4707Y2080D01*
X4702Y2083D01*
X4697Y2084D01*
X4693Y2086D01*
X4689Y2086D01*
X4686Y2087D01*
X4684D01*
X4678Y2086D01*
X4671Y2085D01*
X4665Y2083D01*
X4660Y2081D01*
X4656Y2080D01*
X4652Y2078D01*
X4650Y2077D01*
X4649Y2076D01*
X4632Y2119D01*
X4642Y2125D01*
X4651Y2129D01*
X4659Y2131D01*
X4666Y2134D01*
X4672Y2135D01*
X4677Y2135D01*
X4681D01*
X4687Y2135D01*
D02*
G37*
G36*
X5558D02*
X5568Y2134D01*
X5577Y2131D01*
X5585Y2128D01*
X5594Y2125D01*
X5601Y2121D01*
X5607Y2117D01*
X5614Y2112D01*
X5619Y2108D01*
X5623Y2104D01*
X5627Y2100D01*
X5630Y2096D01*
X5633Y2093D01*
X5635Y2091D01*
X5635Y2090D01*
X5636Y2089D01*
Y2129D01*
X5678D01*
Y1850D01*
X5631D01*
Y2002D01*
Y2012D01*
X5630Y2021D01*
X5629Y2029D01*
X5628Y2036D01*
X5626Y2043D01*
X5624Y2049D01*
X5622Y2054D01*
X5620Y2059D01*
X5618Y2063D01*
X5616Y2066D01*
X5613Y2071D01*
X5611Y2074D01*
X5609Y2075D01*
X5601Y2081D01*
X5592Y2086D01*
X5584Y2090D01*
X5576Y2092D01*
X5568Y2093D01*
X5563Y2094D01*
X5557D01*
X5550Y2094D01*
X5545Y2093D01*
X5539Y2091D01*
X5534Y2090D01*
X5530Y2088D01*
X5527Y2087D01*
X5525Y2086D01*
X5525Y2086D01*
X5520Y2082D01*
X5516Y2078D01*
X5512Y2074D01*
X5509Y2070D01*
X5508Y2067D01*
X5506Y2065D01*
X5505Y2063D01*
Y2062D01*
X5504Y2056D01*
X5502Y2050D01*
X5501Y2042D01*
X5500Y2036D01*
X5499Y2029D01*
Y2024D01*
Y2021D01*
Y2020D01*
Y2019D01*
Y1850D01*
X5452D01*
Y2021D01*
Y2033D01*
X5453Y2042D01*
X5453Y2050D01*
Y2057D01*
X5454Y2062D01*
X5454Y2065D01*
X5455Y2067D01*
Y2067D01*
X5457Y2074D01*
X5459Y2081D01*
X5461Y2087D01*
X5464Y2092D01*
X5466Y2096D01*
X5468Y2100D01*
X5469Y2101D01*
X5470Y2102D01*
X5474Y2107D01*
X5479Y2112D01*
X5484Y2116D01*
X5490Y2119D01*
X5494Y2122D01*
X5498Y2124D01*
X5500Y2125D01*
X5501Y2126D01*
X5509Y2129D01*
X5517Y2131D01*
X5525Y2133D01*
X5532Y2134D01*
X5538Y2135D01*
X5543Y2135D01*
X5547D01*
X5558Y2135D01*
D02*
G37*
G36*
X6619D02*
X6629Y2134D01*
X6638Y2132D01*
X6647Y2129D01*
X6656Y2126D01*
X6664Y2123D01*
X6671Y2119D01*
X6677Y2116D01*
X6683Y2112D01*
X6688Y2108D01*
X6692Y2105D01*
X6696Y2103D01*
X6699Y2100D01*
X6700Y2098D01*
X6702Y2097D01*
X6702Y2096D01*
X6709Y2088D01*
X6714Y2080D01*
X6719Y2072D01*
X6723Y2063D01*
X6726Y2053D01*
X6729Y2045D01*
X6733Y2027D01*
X6735Y2019D01*
X6736Y2011D01*
X6737Y2004D01*
X6737Y1998D01*
X6738Y1994D01*
Y1990D01*
Y1987D01*
Y1987D01*
X6737Y1974D01*
X6736Y1963D01*
X6734Y1952D01*
X6732Y1942D01*
X6730Y1932D01*
X6727Y1924D01*
X6723Y1916D01*
X6720Y1909D01*
X6717Y1902D01*
X6713Y1897D01*
X6710Y1892D01*
X6707Y1888D01*
X6706Y1885D01*
X6704Y1883D01*
X6703Y1882D01*
X6702Y1881D01*
X6695Y1875D01*
X6688Y1869D01*
X6680Y1864D01*
X6672Y1860D01*
X6664Y1856D01*
X6656Y1853D01*
X6641Y1849D01*
X6633Y1847D01*
X6627Y1846D01*
X6621Y1845D01*
X6616Y1845D01*
X6612Y1844D01*
X6606D01*
X6588Y1845D01*
X6573Y1847D01*
X6559Y1852D01*
X6548Y1856D01*
X6543Y1858D01*
X6538Y1860D01*
X6535Y1862D01*
X6532Y1864D01*
X6529Y1865D01*
X6527Y1866D01*
X6527Y1867D01*
X6526D01*
X6516Y1877D01*
X6506Y1888D01*
X6499Y1899D01*
X6493Y1909D01*
X6489Y1919D01*
X6487Y1924D01*
X6486Y1927D01*
X6485Y1930D01*
X6484Y1932D01*
X6483Y1933D01*
Y1934D01*
X6532Y1940D01*
X6537Y1930D01*
X6541Y1921D01*
X6546Y1913D01*
X6551Y1907D01*
X6555Y1902D01*
X6558Y1899D01*
X6561Y1897D01*
X6561Y1896D01*
X6568Y1891D01*
X6576Y1888D01*
X6583Y1886D01*
X6590Y1884D01*
X6596Y1883D01*
X6601Y1883D01*
X6606D01*
X6618Y1884D01*
X6629Y1886D01*
X6639Y1890D01*
X6648Y1895D01*
X6654Y1899D01*
X6660Y1903D01*
X6662Y1905D01*
X6664Y1907D01*
X6671Y1917D01*
X6678Y1928D01*
X6682Y1940D01*
X6685Y1951D01*
X6688Y1962D01*
X6688Y1966D01*
X6689Y1970D01*
Y1973D01*
X6689Y1976D01*
Y1977D01*
Y1977D01*
X6482D01*
X6482Y1983D01*
Y1987D01*
Y1989D01*
Y1990D01*
X6482Y2002D01*
X6483Y2014D01*
X6485Y2025D01*
X6487Y2035D01*
X6490Y2045D01*
X6493Y2054D01*
X6496Y2062D01*
X6499Y2069D01*
X6503Y2076D01*
X6506Y2081D01*
X6509Y2086D01*
X6512Y2090D01*
X6514Y2093D01*
X6516Y2095D01*
X6517Y2096D01*
X6517Y2097D01*
X6524Y2104D01*
X6531Y2110D01*
X6539Y2115D01*
X6547Y2119D01*
X6554Y2123D01*
X6562Y2126D01*
X6576Y2131D01*
X6583Y2132D01*
X6589Y2134D01*
X6595Y2134D01*
X6599Y2135D01*
X6603Y2135D01*
X6609D01*
X6619Y2135D01*
D02*
G37*
G36*
X7484D02*
X7494Y2134D01*
X7504Y2132D01*
X7512Y2129D01*
X7521Y2126D01*
X7529Y2123D01*
X7536Y2119D01*
X7542Y2116D01*
X7548Y2112D01*
X7553Y2108D01*
X7557Y2105D01*
X7561Y2103D01*
X7564Y2100D01*
X7566Y2098D01*
X7567Y2097D01*
X7567Y2096D01*
X7574Y2088D01*
X7579Y2080D01*
X7584Y2072D01*
X7588Y2063D01*
X7591Y2053D01*
X7594Y2045D01*
X7598Y2027D01*
X7600Y2019D01*
X7601Y2011D01*
X7602Y2004D01*
X7603Y1998D01*
X7603Y1994D01*
Y1990D01*
Y1987D01*
Y1987D01*
X7603Y1974D01*
X7601Y1963D01*
X7600Y1952D01*
X7597Y1942D01*
X7595Y1932D01*
X7592Y1924D01*
X7588Y1916D01*
X7585Y1909D01*
X7582Y1902D01*
X7579Y1897D01*
X7576Y1892D01*
X7573Y1888D01*
X7571Y1885D01*
X7569Y1883D01*
X7568Y1882D01*
X7567Y1881D01*
X7560Y1875D01*
X7553Y1869D01*
X7545Y1864D01*
X7537Y1860D01*
X7529Y1856D01*
X7521Y1853D01*
X7506Y1849D01*
X7498Y1847D01*
X7492Y1846D01*
X7486Y1845D01*
X7481Y1845D01*
X7477Y1844D01*
X7471D01*
X7453Y1845D01*
X7438Y1847D01*
X7424Y1852D01*
X7413Y1856D01*
X7408Y1858D01*
X7404Y1860D01*
X7400Y1862D01*
X7397Y1864D01*
X7394Y1865D01*
X7393Y1866D01*
X7392Y1867D01*
X7391D01*
X7381Y1877D01*
X7371Y1888D01*
X7364Y1899D01*
X7359Y1909D01*
X7354Y1919D01*
X7352Y1924D01*
X7351Y1927D01*
X7350Y1930D01*
X7349Y1932D01*
X7349Y1933D01*
Y1934D01*
X7397Y1940D01*
X7402Y1930D01*
X7407Y1921D01*
X7411Y1913D01*
X7416Y1907D01*
X7420Y1902D01*
X7424Y1899D01*
X7426Y1897D01*
X7426Y1896D01*
X7433Y1891D01*
X7441Y1888D01*
X7449Y1886D01*
X7456Y1884D01*
X7462Y1883D01*
X7466Y1883D01*
X7471D01*
X7483Y1884D01*
X7494Y1886D01*
X7504Y1890D01*
X7513Y1895D01*
X7519Y1899D01*
X7525Y1903D01*
X7528Y1905D01*
X7529Y1907D01*
X7536Y1917D01*
X7543Y1928D01*
X7547Y1940D01*
X7550Y1951D01*
X7553Y1962D01*
X7553Y1966D01*
X7554Y1970D01*
Y1973D01*
X7555Y1976D01*
Y1977D01*
Y1977D01*
X7347D01*
X7347Y1983D01*
Y1987D01*
Y1989D01*
Y1990D01*
X7347Y2002D01*
X7349Y2014D01*
X7350Y2025D01*
X7352Y2035D01*
X7355Y2045D01*
X7358Y2054D01*
X7362Y2062D01*
X7364Y2069D01*
X7368Y2076D01*
X7371Y2081D01*
X7374Y2086D01*
X7377Y2090D01*
X7379Y2093D01*
X7381Y2095D01*
X7382Y2096D01*
X7383Y2097D01*
X7390Y2104D01*
X7397Y2110D01*
X7404Y2115D01*
X7412Y2119D01*
X7419Y2123D01*
X7427Y2126D01*
X7441Y2131D01*
X7448Y2132D01*
X7454Y2134D01*
X7460Y2134D01*
X7464Y2135D01*
X7469Y2135D01*
X7474D01*
X7484Y2135D01*
D02*
G37*
G36*
X4978D02*
X4988Y2134D01*
X4998Y2132D01*
X5006Y2129D01*
X5015Y2126D01*
X5023Y2123D01*
X5030Y2119D01*
X5036Y2116D01*
X5042Y2112D01*
X5047Y2108D01*
X5051Y2105D01*
X5055Y2103D01*
X5058Y2100D01*
X5060Y2098D01*
X5061Y2097D01*
X5061Y2096D01*
X5068Y2088D01*
X5073Y2080D01*
X5078Y2072D01*
X5082Y2063D01*
X5085Y2053D01*
X5088Y2045D01*
X5092Y2027D01*
X5094Y2019D01*
X5095Y2011D01*
X5096Y2004D01*
X5096Y1998D01*
X5097Y1994D01*
Y1990D01*
Y1987D01*
Y1987D01*
X5096Y1974D01*
X5095Y1963D01*
X5093Y1952D01*
X5091Y1942D01*
X5089Y1932D01*
X5086Y1924D01*
X5082Y1916D01*
X5079Y1909D01*
X5076Y1902D01*
X5072Y1897D01*
X5069Y1892D01*
X5067Y1888D01*
X5065Y1885D01*
X5063Y1883D01*
X5062Y1882D01*
X5061Y1881D01*
X5054Y1875D01*
X5047Y1869D01*
X5039Y1864D01*
X5031Y1860D01*
X5023Y1856D01*
X5015Y1853D01*
X5000Y1849D01*
X4992Y1847D01*
X4986Y1846D01*
X4980Y1845D01*
X4975Y1845D01*
X4971Y1844D01*
X4965D01*
X4947Y1845D01*
X4932Y1847D01*
X4918Y1852D01*
X4907Y1856D01*
X4902Y1858D01*
X4897Y1860D01*
X4894Y1862D01*
X4891Y1864D01*
X4888Y1865D01*
X4886Y1866D01*
X4886Y1867D01*
X4885D01*
X4875Y1877D01*
X4865Y1888D01*
X4858Y1899D01*
X4852Y1909D01*
X4848Y1919D01*
X4846Y1924D01*
X4845Y1927D01*
X4844Y1930D01*
X4843Y1932D01*
X4843Y1933D01*
Y1934D01*
X4891Y1940D01*
X4896Y1930D01*
X4900Y1921D01*
X4905Y1913D01*
X4910Y1907D01*
X4914Y1902D01*
X4917Y1899D01*
X4920Y1897D01*
X4920Y1896D01*
X4927Y1891D01*
X4935Y1888D01*
X4943Y1886D01*
X4950Y1884D01*
X4955Y1883D01*
X4960Y1883D01*
X4965D01*
X4977Y1884D01*
X4988Y1886D01*
X4998Y1890D01*
X5007Y1895D01*
X5013Y1899D01*
X5019Y1903D01*
X5022Y1905D01*
X5023Y1907D01*
X5030Y1917D01*
X5037Y1928D01*
X5041Y1940D01*
X5044Y1951D01*
X5047Y1962D01*
X5047Y1966D01*
X5048Y1970D01*
Y1973D01*
X5048Y1976D01*
Y1977D01*
Y1977D01*
X4841D01*
X4841Y1983D01*
Y1987D01*
Y1989D01*
Y1990D01*
X4841Y2002D01*
X4843Y2014D01*
X4844Y2025D01*
X4846Y2035D01*
X4849Y2045D01*
X4852Y2054D01*
X4855Y2062D01*
X4858Y2069D01*
X4862Y2076D01*
X4865Y2081D01*
X4868Y2086D01*
X4871Y2090D01*
X4873Y2093D01*
X4875Y2095D01*
X4876Y2096D01*
X4876Y2097D01*
X4883Y2104D01*
X4890Y2110D01*
X4898Y2115D01*
X4906Y2119D01*
X4913Y2123D01*
X4921Y2126D01*
X4935Y2131D01*
X4942Y2132D01*
X4948Y2134D01*
X4954Y2134D01*
X4958Y2135D01*
X4962Y2135D01*
X4968D01*
X4978Y2135D01*
D02*
G37*
G36*
X9071D02*
X9077Y2134D01*
X9083Y2132D01*
X9087Y2131D01*
X9091Y2128D01*
X9094Y2127D01*
X9095Y2126D01*
X9096Y2125D01*
X9101Y2121D01*
X9106Y2115D01*
X9111Y2109D01*
X9116Y2103D01*
X9119Y2097D01*
X9122Y2091D01*
X9125Y2088D01*
X9125Y2087D01*
Y2129D01*
X9168D01*
Y1850D01*
X9121D01*
Y1996D01*
X9120Y2007D01*
X9119Y2017D01*
X9118Y2026D01*
X9117Y2035D01*
X9115Y2042D01*
X9114Y2047D01*
X9114Y2050D01*
X9113Y2051D01*
X9111Y2057D01*
X9108Y2062D01*
X9105Y2067D01*
X9102Y2070D01*
X9100Y2073D01*
X9098Y2076D01*
X9097Y2077D01*
X9096Y2077D01*
X9091Y2080D01*
X9087Y2083D01*
X9082Y2084D01*
X9078Y2086D01*
X9074Y2086D01*
X9071Y2087D01*
X9069D01*
X9062Y2086D01*
X9056Y2085D01*
X9050Y2083D01*
X9045Y2081D01*
X9040Y2080D01*
X9037Y2078D01*
X9035Y2077D01*
X9034Y2076D01*
X9017Y2119D01*
X9026Y2125D01*
X9035Y2129D01*
X9043Y2131D01*
X9050Y2134D01*
X9057Y2135D01*
X9062Y2135D01*
X9066D01*
X9071Y2135D01*
D02*
G37*
G36*
X9853D02*
X9863Y2134D01*
X9872Y2131D01*
X9881Y2128D01*
X9889Y2125D01*
X9896Y2121D01*
X9902Y2117D01*
X9909Y2112D01*
X9914Y2108D01*
X9918Y2104D01*
X9922Y2100D01*
X9925Y2096D01*
X9928Y2093D01*
X9930Y2091D01*
X9930Y2090D01*
X9931Y2089D01*
Y2129D01*
X9974D01*
Y1850D01*
X9926D01*
Y2002D01*
Y2012D01*
X9925Y2021D01*
X9924Y2029D01*
X9923Y2036D01*
X9921Y2043D01*
X9919Y2049D01*
X9917Y2054D01*
X9915Y2059D01*
X9913Y2063D01*
X9912Y2066D01*
X9908Y2071D01*
X9906Y2074D01*
X9905Y2075D01*
X9896Y2081D01*
X9887Y2086D01*
X9879Y2090D01*
X9871Y2092D01*
X9863Y2093D01*
X9858Y2094D01*
X9852D01*
X9845Y2094D01*
X9840Y2093D01*
X9834Y2091D01*
X9829Y2090D01*
X9825Y2088D01*
X9822Y2087D01*
X9820Y2086D01*
X9820Y2086D01*
X9815Y2082D01*
X9811Y2078D01*
X9807Y2074D01*
X9804Y2070D01*
X9803Y2067D01*
X9802Y2065D01*
X9800Y2063D01*
Y2062D01*
X9799Y2056D01*
X9797Y2050D01*
X9796Y2042D01*
X9795Y2036D01*
X9795Y2029D01*
Y2024D01*
Y2021D01*
Y2020D01*
Y2019D01*
Y1850D01*
X9747D01*
Y2021D01*
Y2033D01*
X9748Y2042D01*
X9748Y2050D01*
Y2057D01*
X9749Y2062D01*
X9749Y2065D01*
X9750Y2067D01*
Y2067D01*
X9752Y2074D01*
X9754Y2081D01*
X9757Y2087D01*
X9759Y2092D01*
X9761Y2096D01*
X9763Y2100D01*
X9764Y2101D01*
X9765Y2102D01*
X9769Y2107D01*
X9774Y2112D01*
X9779Y2116D01*
X9785Y2119D01*
X9789Y2122D01*
X9793Y2124D01*
X9795Y2125D01*
X9796Y2126D01*
X9804Y2129D01*
X9812Y2131D01*
X9820Y2133D01*
X9827Y2134D01*
X9833Y2135D01*
X9838Y2135D01*
X9843D01*
X9853Y2135D01*
D02*
G37*
G36*
X3499Y1850D02*
X3339D01*
X3327Y1852D01*
X3317Y1852D01*
X3307Y1853D01*
X3300Y1854D01*
X3295Y1855D01*
X3292Y1856D01*
X3291D01*
X3282Y1859D01*
X3274Y1862D01*
X3266Y1865D01*
X3260Y1868D01*
X3255Y1871D01*
X3251Y1873D01*
X3249Y1874D01*
X3248Y1875D01*
X3243Y1880D01*
X3237Y1886D01*
X3232Y1892D01*
X3228Y1898D01*
X3225Y1903D01*
X3222Y1907D01*
X3221Y1910D01*
X3220Y1911D01*
X3216Y1920D01*
X3213Y1929D01*
X3212Y1938D01*
X3210Y1945D01*
X3209Y1952D01*
X3209Y1957D01*
Y1960D01*
Y1962D01*
X3209Y1974D01*
X3212Y1985D01*
X3214Y1994D01*
X3218Y2003D01*
X3222Y2010D01*
X3225Y2015D01*
X3227Y2018D01*
X3228Y2019D01*
X3236Y2028D01*
X3244Y2035D01*
X3253Y2041D01*
X3262Y2046D01*
X3269Y2050D01*
X3276Y2053D01*
X3278Y2053D01*
X3280Y2054D01*
X3281Y2055D01*
X3282D01*
X3272Y2060D01*
X3264Y2066D01*
X3257Y2071D01*
X3251Y2077D01*
X3247Y2081D01*
X3243Y2086D01*
X3241Y2088D01*
X3241Y2089D01*
X3236Y2097D01*
X3233Y2106D01*
X3231Y2114D01*
X3229Y2121D01*
X3228Y2127D01*
X3227Y2132D01*
Y2135D01*
Y2136D01*
X3228Y2146D01*
X3230Y2155D01*
X3232Y2163D01*
X3235Y2171D01*
X3238Y2177D01*
X3240Y2183D01*
X3242Y2186D01*
X3243Y2187D01*
X3249Y2196D01*
X3255Y2203D01*
X3262Y2209D01*
X3269Y2214D01*
X3275Y2218D01*
X3280Y2221D01*
X3283Y2222D01*
X3284Y2223D01*
X3285D01*
X3295Y2227D01*
X3307Y2230D01*
X3319Y2232D01*
X3330Y2234D01*
X3340Y2234D01*
X3344D01*
X3348Y2235D01*
X3499D01*
Y1850D01*
D02*
G37*
G36*
X6248Y2097D02*
X6252Y2103D01*
X6258Y2108D01*
X6263Y2113D01*
X6268Y2117D01*
X6273Y2120D01*
X6276Y2122D01*
X6279Y2124D01*
X6280Y2124D01*
X6287Y2128D01*
X6295Y2131D01*
X6303Y2132D01*
X6309Y2134D01*
X6316Y2135D01*
X6320Y2135D01*
X6324D01*
X6337Y2135D01*
X6348Y2132D01*
X6359Y2129D01*
X6368Y2127D01*
X6376Y2123D01*
X6382Y2120D01*
X6385Y2118D01*
X6386Y2117D01*
X6386D01*
X6396Y2110D01*
X6404Y2101D01*
X6411Y2093D01*
X6417Y2084D01*
X6422Y2076D01*
X6425Y2070D01*
X6426Y2068D01*
X6427Y2066D01*
X6428Y2065D01*
Y2065D01*
X6433Y2052D01*
X6435Y2038D01*
X6438Y2026D01*
X6440Y2014D01*
X6441Y2004D01*
Y2000D01*
X6441Y1996D01*
Y1993D01*
Y1991D01*
Y1990D01*
Y1989D01*
X6441Y1973D01*
X6439Y1959D01*
X6437Y1946D01*
X6434Y1935D01*
X6431Y1926D01*
X6430Y1922D01*
X6428Y1919D01*
X6427Y1917D01*
X6427Y1915D01*
X6426Y1914D01*
Y1913D01*
X6420Y1901D01*
X6413Y1891D01*
X6406Y1883D01*
X6399Y1876D01*
X6393Y1870D01*
X6388Y1866D01*
X6385Y1863D01*
X6384Y1862D01*
X6383D01*
X6373Y1856D01*
X6362Y1852D01*
X6352Y1849D01*
X6342Y1846D01*
X6334Y1845D01*
X6328Y1845D01*
X6325Y1844D01*
X6322D01*
X6313Y1845D01*
X6304Y1846D01*
X6296Y1847D01*
X6288Y1850D01*
X6282Y1853D01*
X6275Y1857D01*
X6269Y1861D01*
X6264Y1864D01*
X6259Y1869D01*
X6255Y1872D01*
X6252Y1876D01*
X6249Y1878D01*
X6247Y1881D01*
X6245Y1883D01*
X6245Y1884D01*
X6244Y1885D01*
Y1850D01*
X6200D01*
Y2235D01*
X6248D01*
Y2097D01*
D02*
G37*
G36*
X6916Y2134D02*
X6922Y2134D01*
X6929Y2132D01*
X6934Y2131D01*
X6937Y2131D01*
X6940Y2129D01*
X6941D01*
X6947Y2127D01*
X6953Y2125D01*
X6958Y2122D01*
X6963Y2120D01*
X6966Y2118D01*
X6968Y2117D01*
X6970Y2116D01*
X6971Y2115D01*
X6976Y2111D01*
X6981Y2107D01*
X6985Y2103D01*
X6988Y2098D01*
X6991Y2095D01*
X6992Y2092D01*
X6994Y2090D01*
X6994Y2089D01*
X6997Y2083D01*
X6999Y2077D01*
X7001Y2071D01*
X7001Y2066D01*
X7002Y2062D01*
X7002Y2057D01*
Y2055D01*
Y2055D01*
X7002Y2047D01*
X7001Y2040D01*
X6999Y2033D01*
X6997Y2028D01*
X6995Y2024D01*
X6994Y2020D01*
X6993Y2018D01*
X6992Y2017D01*
X6988Y2011D01*
X6983Y2006D01*
X6978Y2001D01*
X6973Y1998D01*
X6969Y1995D01*
X6965Y1993D01*
X6963Y1991D01*
X6962Y1991D01*
X6958Y1989D01*
X6953Y1987D01*
X6942Y1983D01*
X6930Y1980D01*
X6918Y1976D01*
X6907Y1973D01*
X6902Y1971D01*
X6898Y1970D01*
X6894Y1969D01*
X6892Y1969D01*
X6890Y1968D01*
X6889D01*
X6882Y1966D01*
X6876Y1964D01*
X6871Y1963D01*
X6865Y1962D01*
X6857Y1959D01*
X6851Y1957D01*
X6846Y1955D01*
X6843Y1953D01*
X6841Y1953D01*
X6841Y1952D01*
X6836Y1949D01*
X6833Y1945D01*
X6830Y1940D01*
X6829Y1936D01*
X6827Y1932D01*
X6827Y1930D01*
Y1928D01*
Y1927D01*
X6827Y1921D01*
X6829Y1915D01*
X6832Y1909D01*
X6834Y1904D01*
X6837Y1901D01*
X6840Y1898D01*
X6842Y1896D01*
X6843Y1895D01*
X6849Y1891D01*
X6857Y1888D01*
X6865Y1885D01*
X6873Y1884D01*
X6880Y1883D01*
X6886Y1883D01*
X6891D01*
X6902Y1883D01*
X6913Y1885D01*
X6921Y1887D01*
X6929Y1890D01*
X6934Y1893D01*
X6938Y1895D01*
X6941Y1897D01*
X6941Y1897D01*
X6947Y1904D01*
X6953Y1911D01*
X6956Y1918D01*
X6959Y1925D01*
X6961Y1931D01*
X6963Y1936D01*
X6963Y1940D01*
Y1940D01*
Y1941D01*
X7010Y1933D01*
X7006Y1918D01*
X7001Y1904D01*
X6995Y1893D01*
X6989Y1883D01*
X6984Y1876D01*
X6979Y1870D01*
X6975Y1867D01*
X6975Y1866D01*
X6974D01*
X6968Y1862D01*
X6963Y1859D01*
X6949Y1853D01*
X6936Y1849D01*
X6922Y1847D01*
X6910Y1845D01*
X6905Y1845D01*
X6900D01*
X6896Y1844D01*
X6891D01*
X6879Y1845D01*
X6868Y1846D01*
X6858Y1847D01*
X6850Y1850D01*
X6843Y1852D01*
X6837Y1853D01*
X6834Y1854D01*
X6833Y1855D01*
X6823Y1860D01*
X6815Y1865D01*
X6808Y1870D01*
X6803Y1876D01*
X6798Y1880D01*
X6795Y1884D01*
X6793Y1886D01*
X6792Y1887D01*
X6788Y1895D01*
X6784Y1903D01*
X6782Y1911D01*
X6780Y1918D01*
X6779Y1923D01*
X6778Y1928D01*
Y1931D01*
Y1932D01*
X6779Y1940D01*
X6780Y1948D01*
X6782Y1955D01*
X6784Y1961D01*
X6786Y1966D01*
X6788Y1969D01*
X6789Y1971D01*
X6790Y1972D01*
X6795Y1978D01*
X6799Y1983D01*
X6805Y1987D01*
X6810Y1991D01*
X6814Y1993D01*
X6817Y1995D01*
X6820Y1996D01*
X6821Y1997D01*
X6825Y1998D01*
X6830Y2000D01*
X6840Y2004D01*
X6852Y2008D01*
X6864Y2011D01*
X6874Y2014D01*
X6879Y2015D01*
X6883Y2017D01*
X6887Y2018D01*
X6889Y2018D01*
X6891Y2019D01*
X6891D01*
X6898Y2021D01*
X6903Y2022D01*
X6912Y2025D01*
X6920Y2027D01*
X6925Y2029D01*
X6929Y2030D01*
X6932Y2031D01*
X6933Y2031D01*
X6933D01*
X6937Y2033D01*
X6941Y2035D01*
X6944Y2037D01*
X6947Y2039D01*
X6950Y2042D01*
X6951Y2043D01*
X6951Y2043D01*
X6954Y2049D01*
X6956Y2055D01*
Y2057D01*
X6957Y2059D01*
Y2060D01*
Y2060D01*
X6956Y2066D01*
X6954Y2070D01*
X6953Y2075D01*
X6950Y2079D01*
X6947Y2081D01*
X6946Y2084D01*
X6944Y2085D01*
X6943Y2086D01*
X6937Y2089D01*
X6930Y2092D01*
X6922Y2094D01*
X6915Y2096D01*
X6908Y2096D01*
X6902Y2097D01*
X6896D01*
X6887Y2096D01*
X6878Y2095D01*
X6871Y2093D01*
X6865Y2091D01*
X6860Y2088D01*
X6857Y2086D01*
X6854Y2085D01*
X6854Y2084D01*
X6848Y2080D01*
X6844Y2074D01*
X6841Y2069D01*
X6839Y2063D01*
X6837Y2059D01*
X6836Y2055D01*
X6835Y2052D01*
Y2051D01*
X6789Y2057D01*
X6791Y2067D01*
X6793Y2075D01*
X6796Y2083D01*
X6799Y2088D01*
X6802Y2093D01*
X6804Y2097D01*
X6805Y2099D01*
X6806Y2100D01*
X6810Y2105D01*
X6816Y2111D01*
X6823Y2115D01*
X6829Y2119D01*
X6834Y2121D01*
X6839Y2124D01*
X6841Y2125D01*
X6842Y2125D01*
X6843D01*
X6852Y2129D01*
X6862Y2131D01*
X6871Y2133D01*
X6881Y2134D01*
X6888Y2135D01*
X6895Y2135D01*
X6908D01*
X6916Y2134D01*
D02*
G37*
G36*
X5203Y2097D02*
X5208Y2103D01*
X5213Y2108D01*
X5219Y2113D01*
X5224Y2117D01*
X5229Y2120D01*
X5232Y2122D01*
X5234Y2124D01*
X5236Y2124D01*
X5243Y2128D01*
X5251Y2131D01*
X5258Y2132D01*
X5265Y2134D01*
X5271Y2135D01*
X5276Y2135D01*
X5280D01*
X5292Y2135D01*
X5304Y2132D01*
X5315Y2129D01*
X5324Y2127D01*
X5332Y2123D01*
X5337Y2120D01*
X5341Y2118D01*
X5342Y2117D01*
X5342D01*
X5352Y2110D01*
X5360Y2101D01*
X5367Y2093D01*
X5373Y2084D01*
X5378Y2076D01*
X5381Y2070D01*
X5382Y2068D01*
X5383Y2066D01*
X5384Y2065D01*
Y2065D01*
X5388Y2052D01*
X5391Y2038D01*
X5394Y2026D01*
X5395Y2014D01*
X5397Y2004D01*
Y2000D01*
X5397Y1996D01*
Y1993D01*
Y1991D01*
Y1990D01*
Y1989D01*
X5397Y1973D01*
X5395Y1959D01*
X5392Y1946D01*
X5389Y1935D01*
X5387Y1926D01*
X5385Y1922D01*
X5384Y1919D01*
X5383Y1917D01*
X5382Y1915D01*
X5382Y1914D01*
Y1913D01*
X5375Y1901D01*
X5369Y1891D01*
X5361Y1883D01*
X5355Y1876D01*
X5349Y1870D01*
X5344Y1866D01*
X5340Y1863D01*
X5340Y1862D01*
X5339D01*
X5329Y1856D01*
X5318Y1852D01*
X5308Y1849D01*
X5298Y1846D01*
X5290Y1845D01*
X5284Y1845D01*
X5281Y1844D01*
X5278D01*
X5268Y1845D01*
X5260Y1846D01*
X5251Y1847D01*
X5244Y1850D01*
X5237Y1853D01*
X5231Y1857D01*
X5225Y1861D01*
X5220Y1864D01*
X5215Y1869D01*
X5211Y1872D01*
X5208Y1876D01*
X5205Y1878D01*
X5203Y1881D01*
X5201Y1883D01*
X5201Y1884D01*
X5200Y1885D01*
Y1850D01*
X5156D01*
Y2235D01*
X5203D01*
Y2097D01*
D02*
G37*
G36*
X10457Y2135D02*
X10466Y2134D01*
X10473Y2132D01*
X10480Y2130D01*
X10485Y2128D01*
X10490Y2126D01*
X10492Y2125D01*
X10493Y2124D01*
X10500Y2120D01*
X10506Y2115D01*
X10512Y2110D01*
X10517Y2104D01*
X10521Y2100D01*
X10525Y2096D01*
X10526Y2094D01*
X10527Y2093D01*
Y2129D01*
X10570D01*
Y1744D01*
X10523D01*
Y1878D01*
X10518Y1873D01*
X10513Y1868D01*
X10508Y1864D01*
X10503Y1860D01*
X10499Y1857D01*
X10495Y1855D01*
X10493Y1854D01*
X10492Y1853D01*
X10485Y1850D01*
X10478Y1848D01*
X10471Y1846D01*
X10464Y1845D01*
X10459Y1845D01*
X10454Y1844D01*
X10450D01*
X10439Y1845D01*
X10427Y1847D01*
X10417Y1850D01*
X10408Y1853D01*
X10400Y1856D01*
X10394Y1859D01*
X10392Y1860D01*
X10390Y1862D01*
X10389Y1862D01*
X10389D01*
X10378Y1870D01*
X10370Y1878D01*
X10362Y1887D01*
X10356Y1895D01*
X10351Y1902D01*
X10347Y1908D01*
X10346Y1911D01*
X10345Y1912D01*
X10344Y1914D01*
Y1914D01*
X10339Y1928D01*
X10335Y1941D01*
X10333Y1954D01*
X10330Y1966D01*
X10329Y1976D01*
Y1980D01*
X10329Y1984D01*
Y1987D01*
Y1990D01*
Y1991D01*
Y1991D01*
X10329Y2006D01*
X10331Y2019D01*
X10333Y2032D01*
X10336Y2043D01*
X10338Y2052D01*
X10339Y2056D01*
X10340Y2059D01*
X10342Y2061D01*
X10342Y2063D01*
X10343Y2064D01*
Y2065D01*
X10349Y2077D01*
X10355Y2087D01*
X10362Y2096D01*
X10368Y2103D01*
X10375Y2109D01*
X10380Y2113D01*
X10383Y2116D01*
X10384Y2117D01*
X10384D01*
X10395Y2123D01*
X10405Y2128D01*
X10416Y2131D01*
X10426Y2133D01*
X10434Y2134D01*
X10441Y2135D01*
X10447D01*
X10457Y2135D01*
D02*
G37*
G36*
X2484Y2241D02*
X2497Y2239D01*
X2509Y2237D01*
X2519Y2235D01*
X2528Y2232D01*
X2531Y2231D01*
X2534Y2230D01*
X2537Y2229D01*
X2539Y2228D01*
X2539Y2228D01*
X2540D01*
X2551Y2222D01*
X2561Y2216D01*
X2569Y2210D01*
X2576Y2204D01*
X2581Y2198D01*
X2585Y2193D01*
X2587Y2190D01*
X2588Y2190D01*
Y2189D01*
X2593Y2180D01*
X2597Y2170D01*
X2600Y2161D01*
X2602Y2152D01*
X2603Y2145D01*
X2604Y2140D01*
Y2138D01*
Y2136D01*
Y2135D01*
Y2135D01*
X2604Y2125D01*
X2602Y2116D01*
X2600Y2108D01*
X2597Y2101D01*
X2595Y2095D01*
X2593Y2091D01*
X2591Y2088D01*
X2591Y2087D01*
X2585Y2079D01*
X2579Y2072D01*
X2572Y2066D01*
X2565Y2061D01*
X2559Y2057D01*
X2555Y2054D01*
X2551Y2052D01*
X2550Y2051D01*
X2550D01*
X2546Y2049D01*
X2541Y2047D01*
X2529Y2043D01*
X2517Y2039D01*
X2505Y2035D01*
X2494Y2032D01*
X2489Y2031D01*
X2485Y2029D01*
X2481Y2028D01*
X2479Y2028D01*
X2477Y2027D01*
X2476D01*
X2467Y2025D01*
X2458Y2022D01*
X2450Y2021D01*
X2443Y2019D01*
X2437Y2017D01*
X2431Y2015D01*
X2426Y2014D01*
X2422Y2013D01*
X2418Y2012D01*
X2415Y2011D01*
X2411Y2010D01*
X2408Y2009D01*
X2408Y2008D01*
X2400Y2005D01*
X2392Y2001D01*
X2386Y1997D01*
X2381Y1994D01*
X2378Y1990D01*
X2375Y1988D01*
X2374Y1986D01*
X2373Y1986D01*
X2370Y1980D01*
X2367Y1975D01*
X2365Y1970D01*
X2364Y1964D01*
X2363Y1960D01*
X2363Y1957D01*
Y1955D01*
Y1954D01*
X2363Y1947D01*
X2364Y1942D01*
X2366Y1936D01*
X2368Y1931D01*
X2370Y1927D01*
X2372Y1924D01*
X2373Y1922D01*
X2374Y1921D01*
X2378Y1916D01*
X2384Y1911D01*
X2389Y1907D01*
X2395Y1904D01*
X2400Y1901D01*
X2404Y1899D01*
X2406Y1898D01*
X2407Y1897D01*
X2416Y1894D01*
X2425Y1893D01*
X2433Y1891D01*
X2441Y1890D01*
X2448Y1890D01*
X2453Y1889D01*
X2458D01*
X2470Y1890D01*
X2481Y1891D01*
X2491Y1893D01*
X2500Y1895D01*
X2507Y1897D01*
X2512Y1898D01*
X2516Y1900D01*
X2517Y1900D01*
X2517D01*
X2526Y1905D01*
X2534Y1909D01*
X2541Y1915D01*
X2546Y1919D01*
X2550Y1924D01*
X2553Y1927D01*
X2555Y1929D01*
X2556Y1930D01*
X2560Y1938D01*
X2563Y1945D01*
X2566Y1953D01*
X2568Y1961D01*
X2569Y1968D01*
X2570Y1973D01*
X2571Y1977D01*
Y1977D01*
Y1978D01*
X2619Y1974D01*
X2618Y1960D01*
X2615Y1947D01*
X2612Y1935D01*
X2608Y1925D01*
X2605Y1916D01*
X2603Y1912D01*
X2601Y1909D01*
X2600Y1907D01*
X2599Y1905D01*
X2598Y1905D01*
Y1904D01*
X2590Y1894D01*
X2581Y1884D01*
X2572Y1877D01*
X2563Y1870D01*
X2555Y1865D01*
X2549Y1862D01*
X2546Y1860D01*
X2545Y1859D01*
X2543Y1859D01*
X2543D01*
X2529Y1854D01*
X2514Y1850D01*
X2500Y1847D01*
X2486Y1846D01*
X2480Y1845D01*
X2474Y1845D01*
X2469D01*
X2464Y1844D01*
X2456D01*
X2440Y1845D01*
X2427Y1846D01*
X2414Y1849D01*
X2404Y1852D01*
X2394Y1854D01*
X2391Y1855D01*
X2388Y1856D01*
X2386Y1857D01*
X2384Y1858D01*
X2383Y1859D01*
X2382D01*
X2370Y1865D01*
X2360Y1871D01*
X2351Y1878D01*
X2344Y1885D01*
X2338Y1891D01*
X2335Y1896D01*
X2332Y1900D01*
X2331Y1901D01*
X2325Y1911D01*
X2321Y1921D01*
X2318Y1931D01*
X2316Y1940D01*
X2315Y1947D01*
X2314Y1953D01*
Y1956D01*
Y1957D01*
Y1958D01*
Y1959D01*
X2314Y1970D01*
X2316Y1980D01*
X2319Y1990D01*
X2322Y1997D01*
X2325Y2004D01*
X2328Y2009D01*
X2329Y2012D01*
X2330Y2013D01*
X2336Y2021D01*
X2344Y2029D01*
X2352Y2036D01*
X2360Y2042D01*
X2368Y2046D01*
X2374Y2049D01*
X2376Y2050D01*
X2377Y2052D01*
X2378Y2052D01*
X2379D01*
X2384Y2054D01*
X2390Y2056D01*
X2395Y2059D01*
X2402Y2060D01*
X2417Y2065D01*
X2431Y2069D01*
X2443Y2072D01*
X2449Y2073D01*
X2455Y2074D01*
X2459Y2076D01*
X2462Y2076D01*
X2464Y2077D01*
X2464D01*
X2476Y2080D01*
X2486Y2082D01*
X2494Y2084D01*
X2503Y2087D01*
X2510Y2090D01*
X2515Y2091D01*
X2521Y2094D01*
X2525Y2096D01*
X2529Y2098D01*
X2533Y2099D01*
X2535Y2101D01*
X2537Y2102D01*
X2540Y2104D01*
X2541Y2104D01*
X2545Y2110D01*
X2549Y2115D01*
X2552Y2121D01*
X2553Y2126D01*
X2555Y2131D01*
X2555Y2135D01*
Y2137D01*
Y2138D01*
X2554Y2147D01*
X2552Y2155D01*
X2549Y2162D01*
X2545Y2167D01*
X2541Y2173D01*
X2538Y2176D01*
X2535Y2179D01*
X2535Y2179D01*
X2531Y2182D01*
X2526Y2185D01*
X2515Y2189D01*
X2504Y2192D01*
X2493Y2194D01*
X2483Y2196D01*
X2479D01*
X2475Y2196D01*
X2467D01*
X2452Y2196D01*
X2438Y2193D01*
X2426Y2190D01*
X2417Y2187D01*
X2410Y2183D01*
X2405Y2180D01*
X2402Y2178D01*
X2401Y2177D01*
X2393Y2170D01*
X2387Y2161D01*
X2382Y2152D01*
X2378Y2143D01*
X2376Y2135D01*
X2375Y2129D01*
X2374Y2127D01*
X2374Y2125D01*
Y2124D01*
Y2123D01*
X2325Y2127D01*
X2326Y2139D01*
X2329Y2150D01*
X2332Y2160D01*
X2336Y2169D01*
X2339Y2176D01*
X2342Y2182D01*
X2344Y2186D01*
X2345Y2187D01*
X2352Y2196D01*
X2360Y2204D01*
X2368Y2211D01*
X2376Y2217D01*
X2384Y2221D01*
X2390Y2225D01*
X2392Y2226D01*
X2394Y2227D01*
X2394Y2227D01*
X2395D01*
X2407Y2232D01*
X2420Y2235D01*
X2433Y2238D01*
X2445Y2239D01*
X2455Y2241D01*
X2459D01*
X2463Y2241D01*
X2470D01*
X2484Y2241D01*
D02*
G37*
G36*
X11238Y2240D02*
X11256Y2237D01*
X11272Y2233D01*
X11287Y2228D01*
X11293Y2226D01*
X11300Y2224D01*
X11304Y2221D01*
X11309Y2220D01*
X11313Y2218D01*
X11315Y2217D01*
X11317Y2216D01*
X11317Y2215D01*
X11334Y2205D01*
X11349Y2193D01*
X11361Y2181D01*
X11372Y2169D01*
X11380Y2159D01*
X11383Y2154D01*
X11386Y2150D01*
X11388Y2147D01*
X11390Y2145D01*
X11390Y2143D01*
X11391Y2142D01*
X11396Y2134D01*
X11400Y2124D01*
X11406Y2107D01*
X11411Y2090D01*
X11414Y2075D01*
X11415Y2068D01*
X11416Y2062D01*
X11417Y2056D01*
Y2052D01*
X11417Y2048D01*
Y2045D01*
Y2043D01*
Y2043D01*
X11417Y2033D01*
X11416Y2024D01*
X11413Y2006D01*
X11409Y1990D01*
X11407Y1982D01*
X11404Y1974D01*
X11402Y1968D01*
X11400Y1962D01*
X11397Y1957D01*
X11396Y1953D01*
X11394Y1949D01*
X11393Y1947D01*
X11392Y1945D01*
Y1945D01*
X11381Y1928D01*
X11369Y1914D01*
X11357Y1901D01*
X11345Y1891D01*
X11335Y1882D01*
X11330Y1879D01*
X11326Y1876D01*
X11323Y1874D01*
X11320Y1873D01*
X11319Y1872D01*
X11318Y1871D01*
X11310Y1867D01*
X11300Y1863D01*
X11283Y1857D01*
X11266Y1852D01*
X11251Y1849D01*
X11245Y1848D01*
X11238Y1847D01*
X11233Y1846D01*
X11228D01*
X11225Y1846D01*
X11220D01*
X11210Y1846D01*
X11200Y1847D01*
X11183Y1850D01*
X11166Y1854D01*
X11158Y1856D01*
X11151Y1859D01*
X11145Y1861D01*
X11139Y1863D01*
X11134Y1866D01*
X11129Y1867D01*
X11126Y1869D01*
X11124Y1870D01*
X11122Y1871D01*
X11121D01*
X11105Y1882D01*
X11090Y1894D01*
X11077Y1906D01*
X11067Y1918D01*
X11059Y1928D01*
X11056Y1933D01*
X11053Y1937D01*
X11051Y1940D01*
X11049Y1943D01*
X11048Y1944D01*
Y1945D01*
X11044Y1953D01*
X11039Y1963D01*
X11033Y1980D01*
X11028Y1997D01*
X11025Y2011D01*
X11024Y2018D01*
X11023Y2024D01*
X11022Y2029D01*
Y2034D01*
X11022Y2038D01*
Y2041D01*
Y2042D01*
Y2043D01*
Y2053D01*
X11023Y2062D01*
X11026Y2080D01*
X11031Y2097D01*
X11033Y2105D01*
X11035Y2112D01*
X11038Y2119D01*
X11040Y2125D01*
X11042Y2130D01*
X11045Y2134D01*
X11046Y2138D01*
X11048Y2140D01*
X11048Y2142D01*
X11049Y2142D01*
X11059Y2159D01*
X11072Y2174D01*
X11084Y2186D01*
X11096Y2197D01*
X11106Y2205D01*
X11111Y2208D01*
X11115Y2211D01*
X11118Y2213D01*
X11120Y2214D01*
X11122Y2215D01*
X11122D01*
X11131Y2220D01*
X11140Y2224D01*
X11158Y2230D01*
X11174Y2235D01*
X11189Y2238D01*
X11196Y2239D01*
X11201Y2240D01*
X11207Y2241D01*
X11211D01*
X11215Y2241D01*
X11229D01*
X11238Y2240D01*
D02*
G37*
G36*
X2286Y1850D02*
X2232D01*
X2191Y1967D01*
X2029D01*
X1985Y1850D01*
X1927D01*
X2084Y2235D01*
X2139D01*
X2286Y1850D01*
D02*
G37*
G36*
X10828Y2241D02*
X10842Y2239D01*
X10856Y2236D01*
X10868Y2233D01*
X10880Y2228D01*
X10891Y2224D01*
X10901Y2219D01*
X10910Y2214D01*
X10918Y2209D01*
X10925Y2204D01*
X10931Y2200D01*
X10936Y2196D01*
X10941Y2192D01*
X10943Y2189D01*
X10945Y2187D01*
X10946Y2187D01*
X10955Y2176D01*
X10963Y2165D01*
X10969Y2153D01*
X10975Y2141D01*
X10980Y2128D01*
X10984Y2116D01*
X10987Y2104D01*
X10990Y2092D01*
X10993Y2080D01*
X10994Y2070D01*
X10995Y2061D01*
X10996Y2053D01*
Y2046D01*
X10997Y2041D01*
Y2038D01*
Y2037D01*
X10996Y2018D01*
X10993Y2001D01*
X10990Y1984D01*
X10988Y1977D01*
X10986Y1970D01*
X10984Y1964D01*
X10982Y1958D01*
X10980Y1953D01*
X10979Y1949D01*
X10977Y1946D01*
X10976Y1943D01*
X10975Y1942D01*
Y1941D01*
X10966Y1925D01*
X10956Y1911D01*
X10945Y1899D01*
X10934Y1888D01*
X10925Y1880D01*
X10921Y1877D01*
X10917Y1874D01*
X10914Y1873D01*
X10912Y1871D01*
X10911Y1870D01*
X10910Y1870D01*
X10902Y1865D01*
X10894Y1862D01*
X10877Y1855D01*
X10860Y1850D01*
X10846Y1847D01*
X10839Y1846D01*
X10832Y1845D01*
X10827Y1845D01*
X10822D01*
X10818Y1844D01*
X10813D01*
X10795Y1845D01*
X10777Y1847D01*
X10762Y1852D01*
X10748Y1856D01*
X10742Y1858D01*
X10736Y1860D01*
X10732Y1862D01*
X10728Y1864D01*
X10724Y1865D01*
X10722Y1866D01*
X10721Y1867D01*
X10720D01*
X10705Y1877D01*
X10691Y1888D01*
X10680Y1900D01*
X10670Y1911D01*
X10663Y1921D01*
X10660Y1926D01*
X10657Y1929D01*
X10656Y1933D01*
X10654Y1935D01*
X10653Y1936D01*
Y1937D01*
X10645Y1955D01*
X10639Y1973D01*
X10635Y1990D01*
X10632Y2007D01*
X10631Y2014D01*
X10631Y2021D01*
X10630Y2026D01*
Y2032D01*
X10629Y2036D01*
Y2039D01*
Y2041D01*
Y2042D01*
X10631Y2063D01*
X10633Y2082D01*
X10636Y2100D01*
X10639Y2107D01*
X10640Y2115D01*
X10643Y2121D01*
X10645Y2127D01*
X10647Y2132D01*
X10649Y2136D01*
X10650Y2140D01*
X10651Y2142D01*
X10652Y2144D01*
Y2145D01*
X10661Y2161D01*
X10671Y2175D01*
X10683Y2187D01*
X10693Y2197D01*
X10702Y2205D01*
X10707Y2208D01*
X10710Y2211D01*
X10713Y2213D01*
X10715Y2214D01*
X10716Y2215D01*
X10717D01*
X10725Y2220D01*
X10733Y2224D01*
X10750Y2230D01*
X10766Y2235D01*
X10781Y2238D01*
X10788Y2239D01*
X10794Y2240D01*
X10800Y2241D01*
X10804D01*
X10808Y2241D01*
X10813D01*
X10828Y2241D01*
D02*
G37*
G36*
X8886Y2135D02*
X8895Y2134D01*
X8912Y2131D01*
X8928Y2125D01*
X8934Y2122D01*
X8940Y2120D01*
X8946Y2117D01*
X8950Y2114D01*
X8954Y2111D01*
X8958Y2109D01*
X8961Y2107D01*
X8963Y2105D01*
X8964Y2105D01*
X8964Y2104D01*
X8972Y2097D01*
X8978Y2088D01*
X8984Y2080D01*
X8989Y2070D01*
X8993Y2061D01*
X8997Y2052D01*
X9000Y2042D01*
X9002Y2033D01*
X9004Y2024D01*
X9005Y2016D01*
X9006Y2009D01*
X9007Y2002D01*
Y1997D01*
X9007Y1993D01*
Y1991D01*
Y1990D01*
X9007Y1977D01*
X9005Y1964D01*
X9004Y1953D01*
X9001Y1943D01*
X8999Y1933D01*
X8996Y1924D01*
X8992Y1917D01*
X8989Y1909D01*
X8986Y1902D01*
X8983Y1897D01*
X8980Y1893D01*
X8977Y1888D01*
X8975Y1885D01*
X8973Y1883D01*
X8972Y1882D01*
X8971Y1881D01*
X8964Y1875D01*
X8957Y1869D01*
X8949Y1864D01*
X8941Y1860D01*
X8933Y1856D01*
X8925Y1853D01*
X8911Y1849D01*
X8904Y1847D01*
X8897Y1846D01*
X8891Y1845D01*
X8887Y1845D01*
X8883Y1844D01*
X8877D01*
X8863Y1845D01*
X8851Y1847D01*
X8840Y1849D01*
X8830Y1853D01*
X8822Y1856D01*
X8815Y1859D01*
X8813Y1859D01*
X8811Y1860D01*
X8811Y1861D01*
X8810D01*
X8799Y1868D01*
X8789Y1876D01*
X8781Y1883D01*
X8775Y1891D01*
X8770Y1898D01*
X8766Y1903D01*
X8763Y1907D01*
X8763Y1908D01*
Y1908D01*
X8757Y1921D01*
X8753Y1935D01*
X8750Y1949D01*
X8748Y1962D01*
X8747Y1969D01*
X8747Y1974D01*
Y1980D01*
X8746Y1984D01*
Y1988D01*
Y1991D01*
Y1993D01*
Y1993D01*
X8747Y2005D01*
X8748Y2017D01*
X8750Y2028D01*
X8752Y2038D01*
X8755Y2047D01*
X8758Y2055D01*
X8761Y2063D01*
X8764Y2070D01*
X8768Y2076D01*
X8771Y2082D01*
X8774Y2087D01*
X8777Y2090D01*
X8780Y2093D01*
X8781Y2096D01*
X8782Y2097D01*
X8783Y2097D01*
X8790Y2104D01*
X8798Y2110D01*
X8805Y2115D01*
X8813Y2119D01*
X8821Y2123D01*
X8829Y2126D01*
X8843Y2131D01*
X8850Y2132D01*
X8857Y2134D01*
X8862Y2134D01*
X8867Y2135D01*
X8871Y2135D01*
X8877D01*
X8886Y2135D01*
D02*
G37*
G36*
X9551Y2241D02*
X9564Y2239D01*
X9576Y2237D01*
X9586Y2235D01*
X9594Y2232D01*
X9598Y2231D01*
X9601Y2230D01*
X9604Y2229D01*
X9606Y2228D01*
X9606Y2228D01*
X9607D01*
X9618Y2222D01*
X9628Y2216D01*
X9636Y2210D01*
X9642Y2204D01*
X9648Y2198D01*
X9652Y2193D01*
X9654Y2190D01*
X9655Y2190D01*
Y2189D01*
X9660Y2180D01*
X9664Y2170D01*
X9667Y2161D01*
X9669Y2152D01*
X9670Y2145D01*
X9671Y2140D01*
Y2138D01*
Y2136D01*
Y2135D01*
Y2135D01*
X9671Y2125D01*
X9669Y2116D01*
X9667Y2108D01*
X9664Y2101D01*
X9662Y2095D01*
X9660Y2091D01*
X9658Y2088D01*
X9658Y2087D01*
X9652Y2079D01*
X9645Y2072D01*
X9639Y2066D01*
X9632Y2061D01*
X9626Y2057D01*
X9621Y2054D01*
X9618Y2052D01*
X9617Y2051D01*
X9617D01*
X9613Y2049D01*
X9607Y2047D01*
X9596Y2043D01*
X9584Y2039D01*
X9572Y2035D01*
X9561Y2032D01*
X9556Y2031D01*
X9552Y2029D01*
X9548Y2028D01*
X9545Y2028D01*
X9544Y2027D01*
X9543D01*
X9534Y2025D01*
X9525Y2022D01*
X9517Y2021D01*
X9510Y2019D01*
X9504Y2017D01*
X9498Y2015D01*
X9493Y2014D01*
X9489Y2013D01*
X9485Y2012D01*
X9482Y2011D01*
X9477Y2010D01*
X9475Y2009D01*
X9475Y2008D01*
X9466Y2005D01*
X9459Y2001D01*
X9453Y1997D01*
X9448Y1994D01*
X9445Y1990D01*
X9442Y1988D01*
X9441Y1986D01*
X9440Y1986D01*
X9437Y1980D01*
X9434Y1975D01*
X9432Y1970D01*
X9431Y1964D01*
X9430Y1960D01*
X9429Y1957D01*
Y1955D01*
Y1954D01*
X9430Y1947D01*
X9431Y1942D01*
X9433Y1936D01*
X9435Y1931D01*
X9437Y1927D01*
X9439Y1924D01*
X9440Y1922D01*
X9441Y1921D01*
X9445Y1916D01*
X9451Y1911D01*
X9456Y1907D01*
X9462Y1904D01*
X9466Y1901D01*
X9470Y1899D01*
X9473Y1898D01*
X9474Y1897D01*
X9483Y1894D01*
X9492Y1893D01*
X9500Y1891D01*
X9508Y1890D01*
X9514Y1890D01*
X9520Y1889D01*
X9525D01*
X9537Y1890D01*
X9548Y1891D01*
X9558Y1893D01*
X9566Y1895D01*
X9574Y1897D01*
X9579Y1898D01*
X9583Y1900D01*
X9583Y1900D01*
X9584D01*
X9593Y1905D01*
X9601Y1909D01*
X9607Y1915D01*
X9613Y1919D01*
X9617Y1924D01*
X9620Y1927D01*
X9622Y1929D01*
X9623Y1930D01*
X9627Y1938D01*
X9630Y1945D01*
X9632Y1953D01*
X9635Y1961D01*
X9636Y1968D01*
X9637Y1973D01*
X9638Y1977D01*
Y1977D01*
Y1978D01*
X9686Y1974D01*
X9685Y1960D01*
X9682Y1947D01*
X9679Y1935D01*
X9675Y1925D01*
X9672Y1916D01*
X9670Y1912D01*
X9668Y1909D01*
X9667Y1907D01*
X9666Y1905D01*
X9665Y1905D01*
Y1904D01*
X9657Y1894D01*
X9648Y1884D01*
X9639Y1877D01*
X9630Y1870D01*
X9622Y1865D01*
X9616Y1862D01*
X9613Y1860D01*
X9611Y1859D01*
X9610Y1859D01*
X9610D01*
X9596Y1854D01*
X9581Y1850D01*
X9566Y1847D01*
X9553Y1846D01*
X9546Y1845D01*
X9541Y1845D01*
X9535D01*
X9531Y1844D01*
X9523D01*
X9507Y1845D01*
X9494Y1846D01*
X9481Y1849D01*
X9470Y1852D01*
X9461Y1854D01*
X9458Y1855D01*
X9455Y1856D01*
X9452Y1857D01*
X9451Y1858D01*
X9449Y1859D01*
X9449D01*
X9437Y1865D01*
X9427Y1871D01*
X9418Y1878D01*
X9411Y1885D01*
X9405Y1891D01*
X9401Y1896D01*
X9398Y1900D01*
X9398Y1901D01*
X9392Y1911D01*
X9388Y1921D01*
X9384Y1931D01*
X9383Y1940D01*
X9382Y1947D01*
X9380Y1953D01*
Y1956D01*
Y1957D01*
Y1958D01*
Y1959D01*
X9381Y1970D01*
X9383Y1980D01*
X9386Y1990D01*
X9389Y1997D01*
X9391Y2004D01*
X9394Y2009D01*
X9396Y2012D01*
X9397Y2013D01*
X9403Y2021D01*
X9411Y2029D01*
X9419Y2036D01*
X9427Y2042D01*
X9435Y2046D01*
X9441Y2049D01*
X9443Y2050D01*
X9444Y2052D01*
X9445Y2052D01*
X9446D01*
X9451Y2054D01*
X9456Y2056D01*
X9462Y2059D01*
X9469Y2060D01*
X9483Y2065D01*
X9497Y2069D01*
X9510Y2072D01*
X9516Y2073D01*
X9521Y2074D01*
X9525Y2076D01*
X9528Y2076D01*
X9531Y2077D01*
X9531D01*
X9542Y2080D01*
X9552Y2082D01*
X9561Y2084D01*
X9569Y2087D01*
X9576Y2090D01*
X9582Y2091D01*
X9587Y2094D01*
X9592Y2096D01*
X9596Y2098D01*
X9600Y2099D01*
X9602Y2101D01*
X9604Y2102D01*
X9607Y2104D01*
X9607Y2104D01*
X9612Y2110D01*
X9616Y2115D01*
X9618Y2121D01*
X9620Y2126D01*
X9621Y2131D01*
X9622Y2135D01*
Y2137D01*
Y2138D01*
X9621Y2147D01*
X9618Y2155D01*
X9616Y2162D01*
X9611Y2167D01*
X9608Y2173D01*
X9604Y2176D01*
X9602Y2179D01*
X9601Y2179D01*
X9597Y2182D01*
X9593Y2185D01*
X9582Y2189D01*
X9571Y2192D01*
X9560Y2194D01*
X9550Y2196D01*
X9545D01*
X9542Y2196D01*
X9534D01*
X9518Y2196D01*
X9505Y2193D01*
X9493Y2190D01*
X9484Y2187D01*
X9477Y2183D01*
X9472Y2180D01*
X9469Y2178D01*
X9468Y2177D01*
X9460Y2170D01*
X9453Y2161D01*
X9449Y2152D01*
X9445Y2143D01*
X9443Y2135D01*
X9442Y2129D01*
X9441Y2127D01*
X9441Y2125D01*
Y2124D01*
Y2123D01*
X9392Y2127D01*
X9393Y2139D01*
X9396Y2150D01*
X9399Y2160D01*
X9403Y2169D01*
X9406Y2176D01*
X9408Y2182D01*
X9411Y2186D01*
X9411Y2187D01*
X9418Y2196D01*
X9427Y2204D01*
X9435Y2211D01*
X9443Y2217D01*
X9451Y2221D01*
X9456Y2225D01*
X9459Y2226D01*
X9460Y2227D01*
X9461Y2227D01*
X9462D01*
X9474Y2232D01*
X9487Y2235D01*
X9500Y2238D01*
X9511Y2239D01*
X9521Y2241D01*
X9525D01*
X9530Y2241D01*
X9537D01*
X9551Y2241D01*
D02*
G37*
G36*
X7757Y2135D02*
X7769Y2133D01*
X7781Y2130D01*
X7790Y2127D01*
X7799Y2124D01*
X7805Y2121D01*
X7807Y2120D01*
X7809Y2119D01*
X7810Y2118D01*
X7810D01*
X7821Y2111D01*
X7830Y2103D01*
X7838Y2095D01*
X7844Y2087D01*
X7849Y2079D01*
X7852Y2073D01*
X7854Y2071D01*
X7855Y2069D01*
X7855Y2068D01*
Y2067D01*
X7860Y2055D01*
X7863Y2041D01*
X7866Y2028D01*
X7868Y2015D01*
X7869Y2004D01*
Y2000D01*
X7870Y1996D01*
Y1993D01*
Y1990D01*
Y1989D01*
Y1988D01*
X7869Y1976D01*
X7868Y1964D01*
X7867Y1952D01*
X7865Y1942D01*
X7862Y1932D01*
X7859Y1924D01*
X7856Y1915D01*
X7852Y1908D01*
X7849Y1902D01*
X7846Y1897D01*
X7844Y1892D01*
X7841Y1888D01*
X7838Y1885D01*
X7837Y1883D01*
X7836Y1881D01*
X7835Y1881D01*
X7828Y1874D01*
X7821Y1869D01*
X7814Y1864D01*
X7807Y1860D01*
X7799Y1856D01*
X7791Y1853D01*
X7777Y1849D01*
X7770Y1847D01*
X7764Y1846D01*
X7758Y1845D01*
X7753Y1845D01*
X7749Y1844D01*
X7744D01*
X7736Y1845D01*
X7728Y1845D01*
X7713Y1848D01*
X7700Y1853D01*
X7689Y1857D01*
X7680Y1862D01*
X7676Y1864D01*
X7673Y1867D01*
X7670Y1869D01*
X7669Y1870D01*
X7668Y1871D01*
X7667D01*
X7657Y1882D01*
X7648Y1894D01*
X7641Y1907D01*
X7636Y1918D01*
X7632Y1929D01*
X7631Y1934D01*
X7630Y1938D01*
X7629Y1941D01*
X7629Y1943D01*
X7628Y1945D01*
Y1946D01*
X7674Y1952D01*
X7677Y1940D01*
X7680Y1929D01*
X7684Y1920D01*
X7689Y1912D01*
X7692Y1907D01*
X7696Y1903D01*
X7698Y1900D01*
X7698Y1900D01*
X7706Y1894D01*
X7713Y1890D01*
X7721Y1887D01*
X7728Y1885D01*
X7735Y1884D01*
X7740Y1883D01*
X7745D01*
X7751Y1883D01*
X7757Y1884D01*
X7768Y1887D01*
X7777Y1891D01*
X7785Y1895D01*
X7791Y1900D01*
X7796Y1904D01*
X7799Y1907D01*
X7800Y1908D01*
X7804Y1913D01*
X7807Y1919D01*
X7813Y1931D01*
X7816Y1945D01*
X7818Y1959D01*
X7820Y1970D01*
X7821Y1976D01*
Y1980D01*
X7821Y1984D01*
Y1987D01*
Y1989D01*
Y1990D01*
Y2000D01*
X7820Y2009D01*
X7820Y2018D01*
X7818Y2026D01*
X7816Y2033D01*
X7814Y2040D01*
X7813Y2046D01*
X7810Y2051D01*
X7808Y2056D01*
X7807Y2060D01*
X7805Y2063D01*
X7803Y2066D01*
X7801Y2068D01*
X7801Y2070D01*
X7800Y2071D01*
X7796Y2076D01*
X7791Y2080D01*
X7781Y2086D01*
X7772Y2090D01*
X7762Y2094D01*
X7754Y2096D01*
X7748Y2096D01*
X7745Y2097D01*
X7742D01*
X7734Y2096D01*
X7725Y2094D01*
X7719Y2092D01*
X7713Y2090D01*
X7708Y2087D01*
X7705Y2084D01*
X7703Y2083D01*
X7702Y2082D01*
X7696Y2076D01*
X7691Y2070D01*
X7687Y2063D01*
X7684Y2056D01*
X7682Y2049D01*
X7680Y2045D01*
X7679Y2041D01*
X7679Y2041D01*
Y2040D01*
X7633Y2047D01*
X7637Y2062D01*
X7642Y2075D01*
X7648Y2086D01*
X7655Y2096D01*
X7660Y2103D01*
X7665Y2108D01*
X7669Y2111D01*
X7669Y2112D01*
X7670D01*
X7681Y2119D01*
X7693Y2125D01*
X7706Y2129D01*
X7718Y2132D01*
X7728Y2134D01*
X7732Y2135D01*
X7736D01*
X7739Y2135D01*
X7744D01*
X7757Y2135D01*
D02*
G37*
G36*
X4302Y2240D02*
X4320Y2238D01*
X4335Y2234D01*
X4342Y2232D01*
X4349Y2229D01*
X4355Y2227D01*
X4360Y2225D01*
X4365Y2223D01*
X4369Y2221D01*
X4372Y2220D01*
X4375Y2219D01*
X4376Y2218D01*
X4376D01*
X4391Y2208D01*
X4404Y2197D01*
X4415Y2186D01*
X4424Y2175D01*
X4432Y2165D01*
X4435Y2161D01*
X4437Y2158D01*
X4439Y2154D01*
X4440Y2152D01*
X4441Y2150D01*
Y2150D01*
X4449Y2133D01*
X4455Y2115D01*
X4458Y2097D01*
X4461Y2081D01*
X4462Y2073D01*
X4463Y2067D01*
X4463Y2060D01*
Y2055D01*
X4464Y2051D01*
Y2048D01*
Y2046D01*
Y2045D01*
X4463Y2025D01*
X4461Y2006D01*
X4458Y1988D01*
X4456Y1980D01*
X4454Y1973D01*
X4452Y1966D01*
X4451Y1960D01*
X4449Y1955D01*
X4447Y1950D01*
X4446Y1947D01*
X4445Y1945D01*
X4444Y1943D01*
Y1942D01*
X4436Y1925D01*
X4426Y1911D01*
X4417Y1898D01*
X4407Y1888D01*
X4398Y1880D01*
X4391Y1874D01*
X4389Y1872D01*
X4387Y1870D01*
X4386Y1870D01*
X4385Y1869D01*
X4377Y1864D01*
X4369Y1861D01*
X4353Y1854D01*
X4336Y1850D01*
X4320Y1847D01*
X4313Y1846D01*
X4305Y1845D01*
X4300Y1845D01*
X4294D01*
X4290Y1844D01*
X4284D01*
X4273Y1845D01*
X4262Y1845D01*
X4243Y1849D01*
X4234Y1852D01*
X4225Y1854D01*
X4218Y1857D01*
X4211Y1860D01*
X4204Y1863D01*
X4199Y1866D01*
X4194Y1869D01*
X4190Y1871D01*
X4187Y1874D01*
X4184Y1876D01*
X4183Y1876D01*
X4183Y1877D01*
X4175Y1883D01*
X4168Y1890D01*
X4156Y1905D01*
X4146Y1921D01*
X4138Y1937D01*
X4135Y1944D01*
X4132Y1950D01*
X4130Y1957D01*
X4128Y1962D01*
X4126Y1966D01*
X4125Y1969D01*
X4125Y1971D01*
Y1972D01*
X4176Y1985D01*
X4180Y1968D01*
X4186Y1953D01*
X4193Y1940D01*
X4200Y1930D01*
X4206Y1922D01*
X4211Y1917D01*
X4215Y1913D01*
X4215Y1912D01*
X4216Y1912D01*
X4228Y1904D01*
X4239Y1898D01*
X4252Y1893D01*
X4263Y1890D01*
X4273Y1888D01*
X4277Y1888D01*
X4281D01*
X4284Y1887D01*
X4288D01*
X4301Y1888D01*
X4313Y1890D01*
X4324Y1893D01*
X4334Y1896D01*
X4342Y1900D01*
X4348Y1902D01*
X4351Y1903D01*
X4352Y1904D01*
X4353Y1905D01*
X4353D01*
X4364Y1912D01*
X4373Y1921D01*
X4380Y1930D01*
X4387Y1939D01*
X4391Y1947D01*
X4394Y1954D01*
X4396Y1956D01*
X4397Y1958D01*
X4397Y1959D01*
Y1960D01*
X4402Y1974D01*
X4406Y1988D01*
X4408Y2003D01*
X4410Y2017D01*
X4410Y2022D01*
X4411Y2028D01*
Y2033D01*
X4411Y2037D01*
Y2041D01*
Y2043D01*
Y2045D01*
Y2045D01*
X4411Y2059D01*
X4410Y2073D01*
X4408Y2085D01*
X4406Y2096D01*
X4403Y2105D01*
X4403Y2110D01*
X4401Y2112D01*
X4401Y2115D01*
X4400Y2117D01*
X4400Y2118D01*
Y2119D01*
X4394Y2132D01*
X4388Y2143D01*
X4381Y2153D01*
X4375Y2161D01*
X4368Y2167D01*
X4363Y2172D01*
X4359Y2175D01*
X4359Y2176D01*
X4358D01*
X4346Y2183D01*
X4334Y2189D01*
X4322Y2193D01*
X4310Y2195D01*
X4300Y2197D01*
X4296Y2197D01*
X4291D01*
X4289Y2198D01*
X4284D01*
X4270Y2197D01*
X4258Y2195D01*
X4247Y2192D01*
X4238Y2189D01*
X4231Y2184D01*
X4225Y2182D01*
X4222Y2179D01*
X4221Y2179D01*
X4211Y2170D01*
X4204Y2161D01*
X4197Y2150D01*
X4191Y2141D01*
X4187Y2132D01*
X4186Y2128D01*
X4184Y2124D01*
X4183Y2121D01*
X4182Y2119D01*
X4181Y2118D01*
Y2117D01*
X4131Y2129D01*
X4138Y2148D01*
X4142Y2156D01*
X4146Y2164D01*
X4151Y2172D01*
X4156Y2179D01*
X4160Y2184D01*
X4164Y2190D01*
X4169Y2195D01*
X4173Y2199D01*
X4177Y2203D01*
X4180Y2206D01*
X4183Y2208D01*
X4184Y2210D01*
X4186Y2211D01*
X4186Y2211D01*
X4194Y2217D01*
X4201Y2221D01*
X4210Y2225D01*
X4218Y2229D01*
X4234Y2234D01*
X4249Y2238D01*
X4256Y2239D01*
X4263Y2239D01*
X4269Y2240D01*
X4273Y2241D01*
X4277Y2241D01*
X4283D01*
X4302Y2240D01*
D02*
G37*
G36*
X3915D02*
X3932Y2238D01*
X3948Y2234D01*
X3955Y2232D01*
X3961Y2229D01*
X3967Y2227D01*
X3973Y2225D01*
X3978Y2223D01*
X3981Y2221D01*
X3985Y2220D01*
X3987Y2219D01*
X3988Y2218D01*
X3989D01*
X4004Y2208D01*
X4017Y2197D01*
X4028Y2186D01*
X4037Y2175D01*
X4045Y2165D01*
X4047Y2161D01*
X4050Y2158D01*
X4052Y2154D01*
X4053Y2152D01*
X4054Y2150D01*
Y2150D01*
X4062Y2133D01*
X4067Y2115D01*
X4071Y2097D01*
X4074Y2081D01*
X4075Y2073D01*
X4076Y2067D01*
X4076Y2060D01*
Y2055D01*
X4077Y2051D01*
Y2048D01*
Y2046D01*
Y2045D01*
X4076Y2025D01*
X4074Y2006D01*
X4070Y1988D01*
X4069Y1980D01*
X4067Y1973D01*
X4065Y1966D01*
X4063Y1960D01*
X4062Y1955D01*
X4060Y1950D01*
X4059Y1947D01*
X4057Y1945D01*
X4057Y1943D01*
Y1942D01*
X4049Y1925D01*
X4039Y1911D01*
X4029Y1898D01*
X4019Y1888D01*
X4011Y1880D01*
X4004Y1874D01*
X4001Y1872D01*
X4000Y1870D01*
X3998Y1870D01*
X3998Y1869D01*
X3990Y1864D01*
X3982Y1861D01*
X3966Y1854D01*
X3949Y1850D01*
X3932Y1847D01*
X3925Y1846D01*
X3918Y1845D01*
X3912Y1845D01*
X3907D01*
X3902Y1844D01*
X3897D01*
X3885Y1845D01*
X3875Y1845D01*
X3856Y1849D01*
X3847Y1852D01*
X3838Y1854D01*
X3830Y1857D01*
X3823Y1860D01*
X3817Y1863D01*
X3812Y1866D01*
X3807Y1869D01*
X3803Y1871D01*
X3799Y1874D01*
X3797Y1876D01*
X3796Y1876D01*
X3795Y1877D01*
X3788Y1883D01*
X3781Y1890D01*
X3769Y1905D01*
X3758Y1921D01*
X3751Y1937D01*
X3747Y1944D01*
X3745Y1950D01*
X3743Y1957D01*
X3740Y1962D01*
X3739Y1966D01*
X3738Y1969D01*
X3737Y1971D01*
Y1972D01*
X3788Y1985D01*
X3793Y1968D01*
X3799Y1953D01*
X3806Y1940D01*
X3812Y1930D01*
X3819Y1922D01*
X3824Y1917D01*
X3828Y1913D01*
X3828Y1912D01*
X3829Y1912D01*
X3840Y1904D01*
X3852Y1898D01*
X3864Y1893D01*
X3875Y1890D01*
X3885Y1888D01*
X3890Y1888D01*
X3894D01*
X3897Y1887D01*
X3901D01*
X3914Y1888D01*
X3926Y1890D01*
X3937Y1893D01*
X3946Y1896D01*
X3954Y1900D01*
X3961Y1902D01*
X3963Y1903D01*
X3965Y1904D01*
X3966Y1905D01*
X3966D01*
X3977Y1912D01*
X3985Y1921D01*
X3993Y1930D01*
X4000Y1939D01*
X4004Y1947D01*
X4007Y1954D01*
X4008Y1956D01*
X4009Y1958D01*
X4010Y1959D01*
Y1960D01*
X4015Y1974D01*
X4018Y1988D01*
X4021Y2003D01*
X4022Y2017D01*
X4023Y2022D01*
X4024Y2028D01*
Y2033D01*
X4024Y2037D01*
Y2041D01*
Y2043D01*
Y2045D01*
Y2045D01*
X4024Y2059D01*
X4022Y2073D01*
X4021Y2085D01*
X4018Y2096D01*
X4016Y2105D01*
X4015Y2110D01*
X4014Y2112D01*
X4014Y2115D01*
X4013Y2117D01*
X4012Y2118D01*
Y2119D01*
X4007Y2132D01*
X4001Y2143D01*
X3994Y2153D01*
X3987Y2161D01*
X3981Y2167D01*
X3976Y2172D01*
X3972Y2175D01*
X3971Y2176D01*
X3971D01*
X3959Y2183D01*
X3947Y2189D01*
X3935Y2193D01*
X3923Y2195D01*
X3912Y2197D01*
X3908Y2197D01*
X3904D01*
X3901Y2198D01*
X3897D01*
X3883Y2197D01*
X3871Y2195D01*
X3860Y2192D01*
X3851Y2189D01*
X3843Y2184D01*
X3838Y2182D01*
X3835Y2179D01*
X3833Y2179D01*
X3824Y2170D01*
X3816Y2161D01*
X3809Y2150D01*
X3804Y2141D01*
X3800Y2132D01*
X3798Y2128D01*
X3797Y2124D01*
X3795Y2121D01*
X3795Y2119D01*
X3794Y2118D01*
Y2117D01*
X3744Y2129D01*
X3751Y2148D01*
X3755Y2156D01*
X3759Y2164D01*
X3764Y2172D01*
X3768Y2179D01*
X3773Y2184D01*
X3777Y2190D01*
X3781Y2195D01*
X3785Y2199D01*
X3790Y2203D01*
X3792Y2206D01*
X3795Y2208D01*
X3797Y2210D01*
X3798Y2211D01*
X3799Y2211D01*
X3806Y2217D01*
X3814Y2221D01*
X3822Y2225D01*
X3830Y2229D01*
X3847Y2234D01*
X3862Y2238D01*
X3869Y2239D01*
X3875Y2239D01*
X3881Y2240D01*
X3886Y2241D01*
X3890Y2241D01*
X3896D01*
X3915Y2240D01*
D02*
G37*
G36*
X5977Y1956D02*
Y1945D01*
X5977Y1936D01*
Y1929D01*
X5976Y1922D01*
X5976Y1918D01*
Y1915D01*
X5975Y1912D01*
Y1912D01*
X5973Y1904D01*
X5971Y1898D01*
X5969Y1892D01*
X5966Y1887D01*
X5964Y1883D01*
X5962Y1879D01*
X5961Y1877D01*
X5960Y1877D01*
X5956Y1871D01*
X5951Y1867D01*
X5946Y1863D01*
X5941Y1860D01*
X5936Y1857D01*
X5932Y1855D01*
X5930Y1854D01*
X5929Y1853D01*
X5921Y1850D01*
X5912Y1848D01*
X5905Y1846D01*
X5898Y1845D01*
X5891Y1845D01*
X5887Y1844D01*
X5883D01*
X5873Y1845D01*
X5863Y1846D01*
X5854Y1848D01*
X5845Y1852D01*
X5838Y1855D01*
X5830Y1859D01*
X5824Y1863D01*
X5818Y1867D01*
X5812Y1871D01*
X5808Y1876D01*
X5804Y1880D01*
X5800Y1884D01*
X5798Y1887D01*
X5796Y1889D01*
X5795Y1890D01*
X5794Y1891D01*
Y1850D01*
X5752D01*
Y2129D01*
X5800D01*
Y1979D01*
X5800Y1967D01*
X5801Y1956D01*
X5802Y1946D01*
X5804Y1939D01*
X5805Y1932D01*
X5807Y1928D01*
X5807Y1926D01*
X5808Y1925D01*
X5811Y1918D01*
X5815Y1912D01*
X5819Y1907D01*
X5824Y1903D01*
X5828Y1900D01*
X5831Y1897D01*
X5834Y1895D01*
X5834Y1895D01*
X5841Y1891D01*
X5848Y1889D01*
X5855Y1887D01*
X5860Y1885D01*
X5866Y1885D01*
X5870Y1884D01*
X5873D01*
X5881Y1885D01*
X5888Y1886D01*
X5894Y1888D01*
X5899Y1890D01*
X5903Y1891D01*
X5906Y1893D01*
X5908Y1894D01*
X5909Y1895D01*
X5914Y1899D01*
X5918Y1904D01*
X5921Y1909D01*
X5924Y1914D01*
X5925Y1918D01*
X5927Y1921D01*
X5928Y1924D01*
Y1924D01*
X5928Y1930D01*
X5929Y1938D01*
X5929Y1946D01*
Y1954D01*
X5930Y1962D01*
Y1968D01*
Y1970D01*
Y1972D01*
Y1973D01*
Y1974D01*
Y2129D01*
X5977D01*
Y1956D01*
D02*
G37*
G36*
X3699Y1966D02*
X3555D01*
Y2013D01*
X3699D01*
Y1966D01*
D02*
G37*
G36*
X2805D02*
X2660D01*
Y2013D01*
X2805D01*
Y1966D01*
D02*
G37*
G36*
X9309Y2197D02*
Y2129D01*
X9344D01*
Y2092D01*
X9309D01*
Y1932D01*
Y1924D01*
Y1917D01*
X9308Y1911D01*
Y1905D01*
X9308Y1900D01*
X9307Y1895D01*
X9306Y1888D01*
X9305Y1882D01*
X9304Y1878D01*
X9304Y1876D01*
Y1876D01*
X9301Y1871D01*
X9298Y1867D01*
X9295Y1863D01*
X9291Y1860D01*
X9289Y1858D01*
X9286Y1856D01*
X9284Y1855D01*
X9284Y1854D01*
X9278Y1852D01*
X9272Y1850D01*
X9265Y1849D01*
X9258Y1848D01*
X9252Y1847D01*
X9248Y1847D01*
X9243D01*
X9231Y1847D01*
X9225Y1848D01*
X9220Y1849D01*
X9215Y1850D01*
X9211Y1850D01*
X9209Y1851D01*
X9208D01*
X9214Y1893D01*
X9223Y1891D01*
X9226D01*
X9229Y1891D01*
X9235D01*
X9242Y1891D01*
X9248Y1893D01*
X9250Y1893D01*
X9252Y1894D01*
X9255Y1897D01*
X9258Y1900D01*
X9259Y1902D01*
X9259Y1903D01*
X9260Y1906D01*
X9260Y1909D01*
X9261Y1918D01*
X9262Y1922D01*
Y1926D01*
Y1928D01*
Y1929D01*
Y2092D01*
X9214D01*
Y2129D01*
X9262D01*
Y2226D01*
X9309Y2197D01*
D02*
G37*
G36*
X8574Y2135D02*
X8584Y2134D01*
X8592Y2131D01*
X8600Y2129D01*
X8606Y2127D01*
X8610Y2124D01*
X8613Y2123D01*
X8615Y2122D01*
X8622Y2118D01*
X8629Y2112D01*
X8635Y2107D01*
X8640Y2101D01*
X8644Y2097D01*
X8647Y2093D01*
X8649Y2091D01*
X8649Y2090D01*
Y2129D01*
X8691D01*
Y1850D01*
X8644D01*
Y1995D01*
X8643Y2008D01*
X8643Y2020D01*
X8641Y2030D01*
X8640Y2038D01*
X8639Y2045D01*
X8637Y2049D01*
X8637Y2052D01*
X8636Y2053D01*
X8633Y2060D01*
X8629Y2066D01*
X8625Y2072D01*
X8621Y2076D01*
X8618Y2079D01*
X8615Y2082D01*
X8612Y2083D01*
X8612Y2084D01*
X8605Y2087D01*
X8599Y2090D01*
X8592Y2092D01*
X8587Y2093D01*
X8582Y2094D01*
X8578Y2094D01*
X8575D01*
X8565Y2094D01*
X8558Y2092D01*
X8551Y2089D01*
X8546Y2087D01*
X8542Y2084D01*
X8540Y2081D01*
X8538Y2079D01*
X8537Y2079D01*
X8533Y2072D01*
X8530Y2065D01*
X8529Y2057D01*
X8527Y2049D01*
X8526Y2042D01*
X8526Y2036D01*
Y2034D01*
Y2032D01*
Y2032D01*
Y2031D01*
Y1850D01*
X8478D01*
Y2012D01*
X8478Y2027D01*
X8475Y2040D01*
X8472Y2050D01*
X8468Y2059D01*
X8465Y2066D01*
X8462Y2071D01*
X8460Y2073D01*
X8459Y2074D01*
X8451Y2081D01*
X8443Y2086D01*
X8434Y2090D01*
X8427Y2092D01*
X8420Y2093D01*
X8415Y2094D01*
X8410D01*
X8404Y2094D01*
X8399Y2093D01*
X8393Y2092D01*
X8389Y2091D01*
X8386Y2089D01*
X8384Y2088D01*
X8382Y2087D01*
X8382Y2087D01*
X8378Y2084D01*
X8374Y2080D01*
X8371Y2077D01*
X8369Y2074D01*
X8367Y2071D01*
X8366Y2069D01*
X8365Y2067D01*
Y2066D01*
X8363Y2061D01*
X8362Y2055D01*
X8361Y2041D01*
X8360Y2035D01*
Y2030D01*
Y2026D01*
Y2026D01*
Y2025D01*
Y1850D01*
X8313D01*
Y2041D01*
Y2050D01*
X8314Y2058D01*
X8316Y2073D01*
X8320Y2084D01*
X8324Y2094D01*
X8329Y2102D01*
X8332Y2108D01*
X8334Y2111D01*
X8336Y2112D01*
X8345Y2119D01*
X8355Y2125D01*
X8365Y2129D01*
X8376Y2132D01*
X8385Y2134D01*
X8389Y2135D01*
X8392D01*
X8395Y2135D01*
X8399D01*
X8409Y2135D01*
X8418Y2133D01*
X8427Y2131D01*
X8435Y2128D01*
X8450Y2119D01*
X8457Y2115D01*
X8462Y2111D01*
X8468Y2106D01*
X8472Y2102D01*
X8477Y2098D01*
X8480Y2094D01*
X8482Y2091D01*
X8484Y2088D01*
X8485Y2087D01*
X8486Y2086D01*
X8489Y2094D01*
X8493Y2102D01*
X8498Y2108D01*
X8503Y2113D01*
X8507Y2117D01*
X8510Y2120D01*
X8513Y2122D01*
X8514Y2122D01*
X8522Y2127D01*
X8530Y2130D01*
X8539Y2132D01*
X8546Y2134D01*
X8553Y2135D01*
X8559Y2135D01*
X8564D01*
X8574Y2135D01*
D02*
G37*
G36*
X10168D02*
X10178Y2134D01*
X10188Y2132D01*
X10196Y2129D01*
X10205Y2126D01*
X10213Y2123D01*
X10220Y2119D01*
X10226Y2116D01*
X10232Y2112D01*
X10237Y2108D01*
X10241Y2105D01*
X10245Y2103D01*
X10248Y2100D01*
X10250Y2098D01*
X10251Y2097D01*
X10251Y2096D01*
X10258Y2088D01*
X10263Y2080D01*
X10268Y2072D01*
X10272Y2063D01*
X10275Y2053D01*
X10278Y2045D01*
X10282Y2027D01*
X10284Y2019D01*
X10285Y2011D01*
X10286Y2004D01*
X10287Y1998D01*
X10287Y1994D01*
Y1990D01*
Y1987D01*
Y1987D01*
X10287Y1974D01*
X10285Y1963D01*
X10284Y1952D01*
X10281Y1942D01*
X10279Y1932D01*
X10276Y1924D01*
X10272Y1916D01*
X10269Y1909D01*
X10266Y1902D01*
X10263Y1897D01*
X10260Y1892D01*
X10257Y1888D01*
X10255Y1885D01*
X10253Y1883D01*
X10252Y1882D01*
X10251Y1881D01*
X10244Y1875D01*
X10237Y1869D01*
X10229Y1864D01*
X10221Y1860D01*
X10213Y1856D01*
X10205Y1853D01*
X10190Y1849D01*
X10182Y1847D01*
X10176Y1846D01*
X10170Y1845D01*
X10165Y1845D01*
X10161Y1844D01*
X10155D01*
X10137Y1845D01*
X10122Y1847D01*
X10108Y1852D01*
X10097Y1856D01*
X10092Y1858D01*
X10088Y1860D01*
X10084Y1862D01*
X10081Y1864D01*
X10078Y1865D01*
X10077Y1866D01*
X10076Y1867D01*
X10075D01*
X10065Y1877D01*
X10055Y1888D01*
X10048Y1899D01*
X10043Y1909D01*
X10038Y1919D01*
X10036Y1924D01*
X10035Y1927D01*
X10034Y1930D01*
X10033Y1932D01*
X10033Y1933D01*
Y1934D01*
X10081Y1940D01*
X10086Y1930D01*
X10091Y1921D01*
X10095Y1913D01*
X10100Y1907D01*
X10104Y1902D01*
X10108Y1899D01*
X10110Y1897D01*
X10110Y1896D01*
X10117Y1891D01*
X10125Y1888D01*
X10133Y1886D01*
X10140Y1884D01*
X10146Y1883D01*
X10150Y1883D01*
X10155D01*
X10167Y1884D01*
X10178Y1886D01*
X10188Y1890D01*
X10197Y1895D01*
X10203Y1899D01*
X10209Y1903D01*
X10212Y1905D01*
X10213Y1907D01*
X10220Y1917D01*
X10227Y1928D01*
X10231Y1940D01*
X10234Y1951D01*
X10237Y1962D01*
X10237Y1966D01*
X10238Y1970D01*
Y1973D01*
X10239Y1976D01*
Y1977D01*
Y1977D01*
X10031D01*
X10031Y1983D01*
Y1987D01*
Y1989D01*
Y1990D01*
X10031Y2002D01*
X10033Y2014D01*
X10034Y2025D01*
X10036Y2035D01*
X10039Y2045D01*
X10042Y2054D01*
X10045Y2062D01*
X10048Y2069D01*
X10052Y2076D01*
X10055Y2081D01*
X10058Y2086D01*
X10061Y2090D01*
X10063Y2093D01*
X10065Y2095D01*
X10066Y2096D01*
X10067Y2097D01*
X10074Y2104D01*
X10081Y2110D01*
X10088Y2115D01*
X10096Y2119D01*
X10103Y2123D01*
X10111Y2126D01*
X10125Y2131D01*
X10132Y2132D01*
X10138Y2134D01*
X10144Y2134D01*
X10148Y2135D01*
X10153Y2135D01*
X10158D01*
X10168Y2135D01*
D02*
G37*
G36*
X7975Y2181D02*
X7928D01*
Y2235D01*
X7975D01*
Y2181D01*
D02*
G37*
G36*
X3031Y2013D02*
Y1850D01*
X2980D01*
Y2013D01*
X2827Y2235D01*
X2886D01*
X2960Y2121D01*
X2969Y2108D01*
X2977Y2095D01*
X2985Y2083D01*
X2990Y2073D01*
X2996Y2065D01*
X2999Y2059D01*
X3000Y2056D01*
X3002Y2055D01*
X3002Y2054D01*
Y2053D01*
X3009Y2066D01*
X3016Y2077D01*
X3023Y2088D01*
X3028Y2098D01*
X3034Y2107D01*
X3038Y2113D01*
X3039Y2115D01*
X3040Y2117D01*
X3041Y2118D01*
Y2118D01*
X3117Y2235D01*
X3179D01*
X3031Y2013D01*
D02*
G37*
%LPC*%
G36*
X4970Y2097D02*
X4967D01*
X4961Y2096D01*
X4954Y2096D01*
X4943Y2093D01*
X4933Y2088D01*
X4924Y2083D01*
X4918Y2077D01*
X4913Y2073D01*
X4910Y2070D01*
X4909Y2069D01*
Y2069D01*
X4903Y2062D01*
X4900Y2053D01*
X4896Y2044D01*
X4894Y2036D01*
X4892Y2028D01*
X4891Y2022D01*
Y2019D01*
X4890Y2018D01*
Y2017D01*
Y2016D01*
X5046D01*
X5044Y2029D01*
X5041Y2041D01*
X5037Y2050D01*
X5033Y2059D01*
X5029Y2066D01*
X5026Y2070D01*
X5023Y2073D01*
X5022Y2074D01*
X5013Y2082D01*
X5004Y2087D01*
X4995Y2091D01*
X4986Y2094D01*
X4979Y2096D01*
X4972Y2096D01*
X4970Y2097D01*
D02*
G37*
G36*
X10160D02*
X10157D01*
X10151Y2096D01*
X10144Y2096D01*
X10133Y2093D01*
X10123Y2088D01*
X10115Y2083D01*
X10108Y2077D01*
X10103Y2073D01*
X10100Y2070D01*
X10099Y2069D01*
Y2069D01*
X10093Y2062D01*
X10090Y2053D01*
X10086Y2044D01*
X10084Y2036D01*
X10082Y2028D01*
X10081Y2022D01*
Y2019D01*
X10081Y2018D01*
Y2017D01*
Y2016D01*
X10236D01*
X10234Y2029D01*
X10232Y2041D01*
X10227Y2050D01*
X10223Y2059D01*
X10219Y2066D01*
X10216Y2070D01*
X10213Y2073D01*
X10212Y2074D01*
X10203Y2082D01*
X10194Y2087D01*
X10185Y2091D01*
X10177Y2094D01*
X10169Y2096D01*
X10163Y2096D01*
X10160Y2097D01*
D02*
G37*
G36*
X7476D02*
X7473D01*
X7467Y2096D01*
X7460Y2096D01*
X7449Y2093D01*
X7439Y2088D01*
X7431Y2083D01*
X7424Y2077D01*
X7419Y2073D01*
X7416Y2070D01*
X7415Y2069D01*
Y2069D01*
X7409Y2062D01*
X7406Y2053D01*
X7402Y2044D01*
X7400Y2036D01*
X7398Y2028D01*
X7397Y2022D01*
Y2019D01*
X7397Y2018D01*
Y2017D01*
Y2016D01*
X7552D01*
X7550Y2029D01*
X7548Y2041D01*
X7543Y2050D01*
X7539Y2059D01*
X7535Y2066D01*
X7532Y2070D01*
X7529Y2073D01*
X7528Y2074D01*
X7519Y2082D01*
X7510Y2087D01*
X7501Y2091D01*
X7493Y2094D01*
X7485Y2096D01*
X7479Y2096D01*
X7476Y2097D01*
D02*
G37*
G36*
X3448Y2190D02*
X3357D01*
X3345Y2189D01*
X3335Y2188D01*
X3327Y2187D01*
X3321Y2186D01*
X3317Y2185D01*
X3314Y2184D01*
X3313D01*
X3307Y2182D01*
X3302Y2179D01*
X3298Y2175D01*
X3294Y2172D01*
X3291Y2169D01*
X3289Y2166D01*
X3288Y2165D01*
X3287Y2164D01*
X3284Y2158D01*
X3282Y2152D01*
X3280Y2147D01*
X3279Y2142D01*
X3278Y2137D01*
X3278Y2134D01*
Y2131D01*
Y2130D01*
X3278Y2122D01*
X3279Y2116D01*
X3281Y2110D01*
X3282Y2105D01*
X3285Y2101D01*
X3286Y2098D01*
X3287Y2097D01*
X3288Y2096D01*
X3292Y2091D01*
X3296Y2087D01*
X3301Y2084D01*
X3306Y2081D01*
X3310Y2079D01*
X3314Y2078D01*
X3316Y2077D01*
X3317Y2077D01*
X3323Y2076D01*
X3330Y2074D01*
X3338Y2074D01*
X3347Y2073D01*
X3354Y2073D01*
X3448D01*
Y2190D01*
D02*
G37*
G36*
X6611Y2097D02*
X6608D01*
X6602Y2096D01*
X6595Y2096D01*
X6584Y2093D01*
X6574Y2088D01*
X6565Y2083D01*
X6559Y2077D01*
X6554Y2073D01*
X6551Y2070D01*
X6550Y2069D01*
Y2069D01*
X6544Y2062D01*
X6541Y2053D01*
X6537Y2044D01*
X6535Y2036D01*
X6533Y2028D01*
X6532Y2022D01*
Y2019D01*
X6531Y2018D01*
Y2017D01*
Y2016D01*
X6687D01*
X6685Y2029D01*
X6682Y2041D01*
X6678Y2050D01*
X6674Y2059D01*
X6670Y2066D01*
X6667Y2070D01*
X6664Y2073D01*
X6663Y2074D01*
X6654Y2082D01*
X6645Y2087D01*
X6636Y2091D01*
X6627Y2094D01*
X6620Y2096D01*
X6613Y2096D01*
X6611Y2097D01*
D02*
G37*
G36*
X2113Y2195D02*
X2109Y2182D01*
X2105Y2169D01*
X2100Y2155D01*
X2095Y2142D01*
X2092Y2131D01*
X2090Y2127D01*
X2088Y2122D01*
X2087Y2119D01*
X2086Y2117D01*
X2085Y2115D01*
Y2114D01*
X2046Y2008D01*
X2176D01*
X2134Y2121D01*
X2129Y2134D01*
X2125Y2148D01*
X2122Y2160D01*
X2119Y2172D01*
X2116Y2181D01*
X2115Y2185D01*
X2114Y2189D01*
X2113Y2191D01*
Y2193D01*
X2113Y2194D01*
Y2195D01*
D02*
G37*
G36*
X5278Y2096D02*
X5270D01*
X5264Y2095D01*
X5253Y2092D01*
X5244Y2087D01*
X5236Y2083D01*
X5230Y2078D01*
X5225Y2073D01*
X5222Y2070D01*
X5221Y2070D01*
Y2069D01*
X5217Y2064D01*
X5213Y2058D01*
X5208Y2045D01*
X5204Y2031D01*
X5202Y2017D01*
X5200Y2004D01*
X5199Y1999D01*
Y1994D01*
X5199Y1990D01*
Y1987D01*
Y1986D01*
Y1985D01*
Y1976D01*
X5200Y1967D01*
X5201Y1959D01*
X5202Y1951D01*
X5204Y1944D01*
X5206Y1938D01*
X5208Y1932D01*
X5209Y1927D01*
X5212Y1922D01*
X5213Y1918D01*
X5215Y1915D01*
X5217Y1912D01*
X5219Y1911D01*
X5219Y1909D01*
X5220Y1908D01*
Y1908D01*
X5225Y1903D01*
X5229Y1900D01*
X5238Y1893D01*
X5247Y1889D01*
X5255Y1885D01*
X5262Y1884D01*
X5268Y1883D01*
X5270Y1883D01*
X5273D01*
X5279Y1883D01*
X5284Y1884D01*
X5295Y1887D01*
X5303Y1891D01*
X5311Y1896D01*
X5318Y1901D01*
X5322Y1905D01*
X5325Y1908D01*
X5326Y1909D01*
X5330Y1914D01*
X5334Y1920D01*
X5339Y1932D01*
X5343Y1946D01*
X5346Y1959D01*
X5347Y1971D01*
X5348Y1976D01*
Y1980D01*
X5349Y1984D01*
Y1987D01*
Y1988D01*
Y1989D01*
Y1999D01*
X5347Y2008D01*
X5347Y2017D01*
X5345Y2025D01*
X5344Y2032D01*
X5342Y2039D01*
X5340Y2045D01*
X5338Y2050D01*
X5336Y2055D01*
X5334Y2059D01*
X5332Y2063D01*
X5331Y2066D01*
X5329Y2067D01*
X5329Y2069D01*
X5327Y2070D01*
X5323Y2075D01*
X5319Y2079D01*
X5311Y2085D01*
X5302Y2090D01*
X5294Y2093D01*
X5287Y2095D01*
X5281Y2096D01*
X5278Y2096D01*
D02*
G37*
G36*
X10454Y2098D02*
X10446D01*
X10440Y2097D01*
X10430Y2094D01*
X10422Y2090D01*
X10414Y2085D01*
X10408Y2080D01*
X10404Y2076D01*
X10401Y2073D01*
X10399Y2072D01*
Y2072D01*
X10395Y2066D01*
X10392Y2060D01*
X10387Y2048D01*
X10382Y2035D01*
X10380Y2022D01*
X10378Y2010D01*
X10378Y2005D01*
Y2000D01*
X10377Y1997D01*
Y1994D01*
Y1992D01*
Y1991D01*
Y1981D01*
X10378Y1972D01*
X10380Y1963D01*
X10381Y1955D01*
X10382Y1947D01*
X10384Y1941D01*
X10387Y1935D01*
X10388Y1929D01*
X10391Y1925D01*
X10393Y1921D01*
X10395Y1917D01*
X10396Y1914D01*
X10398Y1912D01*
X10399Y1910D01*
X10400Y1909D01*
Y1909D01*
X10404Y1904D01*
X10409Y1900D01*
X10418Y1894D01*
X10426Y1889D01*
X10435Y1886D01*
X10442Y1884D01*
X10448Y1883D01*
X10450Y1883D01*
X10453D01*
X10459Y1883D01*
X10464Y1884D01*
X10474Y1887D01*
X10484Y1891D01*
X10491Y1895D01*
X10497Y1900D01*
X10502Y1904D01*
X10505Y1907D01*
X10506Y1908D01*
X10509Y1914D01*
X10513Y1919D01*
X10518Y1932D01*
X10522Y1945D01*
X10524Y1958D01*
X10526Y1970D01*
X10526Y1974D01*
Y1979D01*
X10527Y1983D01*
Y1986D01*
Y1987D01*
Y1988D01*
Y1998D01*
X10526Y2007D01*
X10525Y2015D01*
X10523Y2024D01*
X10522Y2031D01*
X10520Y2038D01*
X10518Y2043D01*
X10515Y2049D01*
X10513Y2054D01*
X10511Y2058D01*
X10509Y2062D01*
X10508Y2065D01*
X10506Y2067D01*
X10505Y2069D01*
X10504Y2069D01*
Y2070D01*
X10500Y2075D01*
X10495Y2079D01*
X10491Y2083D01*
X10486Y2086D01*
X10477Y2091D01*
X10469Y2095D01*
X10461Y2097D01*
X10456Y2098D01*
X10454Y2098D01*
D02*
G37*
G36*
X8880Y2096D02*
X8870D01*
X8864Y2095D01*
X8853Y2092D01*
X8843Y2087D01*
X8835Y2083D01*
X8828Y2078D01*
X8823Y2073D01*
X8820Y2070D01*
X8819Y2070D01*
Y2069D01*
X8811Y2058D01*
X8805Y2046D01*
X8801Y2032D01*
X8798Y2020D01*
X8796Y2008D01*
X8795Y2004D01*
Y2000D01*
X8795Y1995D01*
Y1993D01*
Y1991D01*
Y1991D01*
Y1981D01*
X8796Y1971D01*
X8797Y1963D01*
X8798Y1955D01*
X8800Y1947D01*
X8802Y1940D01*
X8804Y1935D01*
X8806Y1929D01*
X8809Y1925D01*
X8811Y1921D01*
X8813Y1917D01*
X8815Y1914D01*
X8816Y1912D01*
X8817Y1910D01*
X8818Y1909D01*
Y1909D01*
X8823Y1904D01*
X8828Y1900D01*
X8837Y1894D01*
X8847Y1889D01*
X8856Y1886D01*
X8864Y1884D01*
X8871Y1883D01*
X8873Y1883D01*
X8877D01*
X8883Y1883D01*
X8890Y1884D01*
X8901Y1887D01*
X8911Y1891D01*
X8919Y1896D01*
X8926Y1901D01*
X8932Y1905D01*
X8935Y1908D01*
X8936Y1909D01*
X8940Y1914D01*
X8943Y1920D01*
X8949Y1933D01*
X8953Y1946D01*
X8956Y1959D01*
X8957Y1971D01*
X8958Y1976D01*
Y1980D01*
X8959Y1984D01*
Y1987D01*
Y1988D01*
Y1989D01*
Y1999D01*
X8957Y2008D01*
X8956Y2017D01*
X8955Y2024D01*
X8953Y2032D01*
X8952Y2038D01*
X8949Y2044D01*
X8947Y2049D01*
X8945Y2054D01*
X8943Y2058D01*
X8941Y2062D01*
X8939Y2065D01*
X8938Y2066D01*
X8937Y2068D01*
X8936Y2069D01*
X8931Y2074D01*
X8926Y2078D01*
X8916Y2085D01*
X8906Y2090D01*
X8897Y2093D01*
X8889Y2095D01*
X8883Y2096D01*
X8880Y2096D01*
D02*
G37*
G36*
X6323D02*
X6314D01*
X6308Y2095D01*
X6297Y2092D01*
X6288Y2087D01*
X6280Y2083D01*
X6274Y2078D01*
X6269Y2073D01*
X6266Y2070D01*
X6265Y2070D01*
Y2069D01*
X6261Y2064D01*
X6258Y2058D01*
X6252Y2045D01*
X6248Y2031D01*
X6246Y2017D01*
X6244Y2004D01*
X6244Y1999D01*
Y1994D01*
X6243Y1990D01*
Y1987D01*
Y1986D01*
Y1985D01*
Y1976D01*
X6244Y1967D01*
X6245Y1959D01*
X6247Y1951D01*
X6248Y1944D01*
X6250Y1938D01*
X6252Y1932D01*
X6254Y1927D01*
X6256Y1922D01*
X6258Y1918D01*
X6259Y1915D01*
X6261Y1912D01*
X6263Y1911D01*
X6263Y1909D01*
X6265Y1908D01*
Y1908D01*
X6269Y1903D01*
X6273Y1900D01*
X6282Y1893D01*
X6291Y1889D01*
X6299Y1885D01*
X6306Y1884D01*
X6312Y1883D01*
X6314Y1883D01*
X6317D01*
X6323Y1883D01*
X6328Y1884D01*
X6339Y1887D01*
X6348Y1891D01*
X6355Y1896D01*
X6362Y1901D01*
X6366Y1905D01*
X6369Y1908D01*
X6371Y1909D01*
X6375Y1914D01*
X6378Y1920D01*
X6383Y1932D01*
X6387Y1946D01*
X6390Y1959D01*
X6392Y1971D01*
X6392Y1976D01*
Y1980D01*
X6393Y1984D01*
Y1987D01*
Y1988D01*
Y1989D01*
Y1999D01*
X6392Y2008D01*
X6391Y2017D01*
X6389Y2025D01*
X6388Y2032D01*
X6386Y2039D01*
X6384Y2045D01*
X6382Y2050D01*
X6380Y2055D01*
X6378Y2059D01*
X6376Y2063D01*
X6375Y2066D01*
X6373Y2067D01*
X6373Y2069D01*
X6372Y2070D01*
X6368Y2075D01*
X6364Y2079D01*
X6355Y2085D01*
X6346Y2090D01*
X6338Y2093D01*
X6331Y2095D01*
X6325Y2096D01*
X6323Y2096D01*
D02*
G37*
G36*
X3448Y2028D02*
X3347D01*
X3335Y2026D01*
X3326Y2026D01*
X3317Y2025D01*
X3312Y2024D01*
X3307Y2022D01*
X3305Y2022D01*
X3303Y2021D01*
X3296Y2018D01*
X3291Y2015D01*
X3285Y2011D01*
X3281Y2007D01*
X3278Y2004D01*
X3275Y2001D01*
X3274Y1999D01*
X3273Y1998D01*
X3269Y1993D01*
X3266Y1986D01*
X3264Y1980D01*
X3262Y1974D01*
X3262Y1969D01*
X3261Y1965D01*
Y1963D01*
Y1962D01*
X3262Y1955D01*
X3262Y1949D01*
X3264Y1943D01*
X3265Y1938D01*
X3267Y1934D01*
X3268Y1931D01*
X3268Y1929D01*
X3269Y1929D01*
X3272Y1924D01*
X3275Y1919D01*
X3278Y1916D01*
X3282Y1913D01*
X3285Y1910D01*
X3286Y1908D01*
X3288Y1908D01*
X3289Y1907D01*
X3298Y1902D01*
X3307Y1900D01*
X3312Y1898D01*
X3315Y1898D01*
X3317Y1897D01*
X3318D01*
X3322Y1897D01*
X3327Y1896D01*
X3339Y1895D01*
X3448D01*
Y2028D01*
D02*
G37*
G36*
X10818Y2197D02*
X10813D01*
X10799Y2197D01*
X10786Y2194D01*
X10774Y2191D01*
X10764Y2188D01*
X10756Y2184D01*
X10750Y2181D01*
X10747Y2180D01*
X10746Y2179D01*
X10745Y2178D01*
X10745D01*
X10734Y2170D01*
X10725Y2162D01*
X10716Y2152D01*
X10710Y2143D01*
X10705Y2136D01*
X10701Y2129D01*
X10700Y2127D01*
X10699Y2125D01*
X10698Y2124D01*
Y2124D01*
X10693Y2110D01*
X10689Y2096D01*
X10686Y2082D01*
X10684Y2070D01*
X10683Y2059D01*
Y2053D01*
X10682Y2049D01*
Y2046D01*
Y2044D01*
Y2042D01*
Y2042D01*
X10683Y2028D01*
X10684Y2015D01*
X10685Y2004D01*
X10688Y1993D01*
X10691Y1982D01*
X10694Y1973D01*
X10697Y1964D01*
X10701Y1956D01*
X10704Y1950D01*
X10708Y1944D01*
X10711Y1939D01*
X10714Y1935D01*
X10716Y1931D01*
X10718Y1929D01*
X10719Y1928D01*
X10719Y1927D01*
X10726Y1920D01*
X10734Y1914D01*
X10742Y1909D01*
X10750Y1904D01*
X10757Y1900D01*
X10766Y1897D01*
X10780Y1893D01*
X10787Y1891D01*
X10794Y1890D01*
X10799Y1888D01*
X10804Y1888D01*
X10808Y1887D01*
X10814D01*
X10824Y1888D01*
X10833Y1889D01*
X10843Y1891D01*
X10852Y1894D01*
X10860Y1897D01*
X10868Y1900D01*
X10875Y1904D01*
X10881Y1907D01*
X10887Y1911D01*
X10893Y1915D01*
X10897Y1918D01*
X10900Y1921D01*
X10903Y1924D01*
X10905Y1925D01*
X10907Y1926D01*
X10907Y1927D01*
X10914Y1935D01*
X10919Y1943D01*
X10924Y1952D01*
X10928Y1961D01*
X10932Y1970D01*
X10935Y1979D01*
X10939Y1997D01*
X10941Y2005D01*
X10942Y2012D01*
X10943Y2019D01*
X10943Y2025D01*
X10944Y2030D01*
Y2033D01*
Y2036D01*
Y2036D01*
X10943Y2052D01*
X10942Y2067D01*
X10941Y2080D01*
X10938Y2092D01*
X10935Y2104D01*
X10932Y2114D01*
X10928Y2122D01*
X10925Y2131D01*
X10921Y2138D01*
X10918Y2143D01*
X10914Y2149D01*
X10911Y2153D01*
X10909Y2156D01*
X10907Y2158D01*
X10906Y2159D01*
X10905Y2160D01*
X10898Y2166D01*
X10890Y2172D01*
X10883Y2177D01*
X10874Y2182D01*
X10867Y2185D01*
X10859Y2188D01*
X10845Y2193D01*
X10838Y2194D01*
X10832Y2196D01*
X10826Y2196D01*
X10822Y2197D01*
X10818Y2197D01*
D02*
G37*
G36*
X11224Y2208D02*
X11220D01*
X11204Y2207D01*
X11189Y2205D01*
X11176Y2201D01*
X11163Y2198D01*
X11158Y2196D01*
X11153Y2194D01*
X11149Y2192D01*
X11146Y2190D01*
X11143Y2189D01*
X11141Y2188D01*
X11139Y2187D01*
X11139D01*
X11125Y2178D01*
X11113Y2168D01*
X11102Y2158D01*
X11093Y2148D01*
X11086Y2139D01*
X11083Y2135D01*
X11081Y2132D01*
X11079Y2129D01*
X11078Y2127D01*
X11077Y2126D01*
Y2125D01*
X11069Y2111D01*
X11064Y2096D01*
X11060Y2082D01*
X11058Y2069D01*
X11056Y2064D01*
X11056Y2059D01*
X11055Y2054D01*
Y2050D01*
X11055Y2047D01*
Y2045D01*
Y2043D01*
Y2043D01*
X11056Y2027D01*
X11058Y2012D01*
X11062Y1998D01*
X11066Y1986D01*
X11068Y1980D01*
X11070Y1976D01*
X11072Y1971D01*
X11073Y1968D01*
X11075Y1965D01*
X11076Y1963D01*
X11077Y1962D01*
Y1961D01*
X11086Y1947D01*
X11096Y1935D01*
X11106Y1925D01*
X11115Y1916D01*
X11124Y1909D01*
X11128Y1907D01*
X11131Y1904D01*
X11134Y1902D01*
X11136Y1901D01*
X11137Y1900D01*
X11138D01*
X11152Y1893D01*
X11167Y1888D01*
X11181Y1884D01*
X11193Y1881D01*
X11199Y1880D01*
X11204Y1880D01*
X11208Y1879D01*
X11213D01*
X11215Y1878D01*
X11220D01*
X11235Y1880D01*
X11251Y1882D01*
X11265Y1885D01*
X11277Y1890D01*
X11282Y1891D01*
X11287Y1893D01*
X11292Y1895D01*
X11295Y1897D01*
X11298Y1898D01*
X11300Y1899D01*
X11301Y1900D01*
X11302D01*
X11316Y1909D01*
X11328Y1919D01*
X11338Y1929D01*
X11347Y1939D01*
X11354Y1947D01*
X11356Y1951D01*
X11359Y1955D01*
X11361Y1957D01*
X11362Y1959D01*
X11363Y1960D01*
Y1961D01*
X11370Y1976D01*
X11375Y1990D01*
X11379Y2004D01*
X11382Y2017D01*
X11383Y2022D01*
X11383Y2027D01*
X11384Y2032D01*
Y2036D01*
X11385Y2039D01*
Y2041D01*
Y2042D01*
Y2043D01*
X11383Y2059D01*
X11381Y2074D01*
X11378Y2088D01*
X11373Y2100D01*
X11371Y2106D01*
X11369Y2111D01*
X11368Y2115D01*
X11366Y2118D01*
X11364Y2121D01*
X11364Y2124D01*
X11362Y2125D01*
Y2125D01*
X11354Y2139D01*
X11344Y2152D01*
X11333Y2162D01*
X11323Y2171D01*
X11314Y2178D01*
X11311Y2180D01*
X11307Y2183D01*
X11304Y2184D01*
X11303Y2186D01*
X11301Y2187D01*
X11301D01*
X11286Y2194D01*
X11272Y2199D01*
X11258Y2203D01*
X11245Y2205D01*
X11240Y2207D01*
X11235Y2207D01*
X11231Y2208D01*
X11227D01*
X11224Y2208D01*
D02*
G37*
%LPD*%
G36*
X11228Y2154D02*
X11239Y2152D01*
X11248Y2150D01*
X11256Y2148D01*
X11263Y2145D01*
X11269Y2143D01*
X11272Y2142D01*
X11273Y2141D01*
X11282Y2136D01*
X11289Y2129D01*
X11296Y2123D01*
X11301Y2117D01*
X11305Y2111D01*
X11308Y2107D01*
X11310Y2104D01*
X11310Y2103D01*
Y2103D01*
X11314Y2093D01*
X11318Y2083D01*
X11320Y2073D01*
X11321Y2063D01*
X11323Y2055D01*
X11323Y2048D01*
Y2046D01*
Y2044D01*
Y2043D01*
Y2042D01*
X11323Y2033D01*
X11322Y2024D01*
X11318Y2007D01*
X11317Y2000D01*
X11314Y1993D01*
X11311Y1987D01*
X11309Y1981D01*
X11306Y1976D01*
X11303Y1972D01*
X11301Y1969D01*
X11299Y1965D01*
X11297Y1963D01*
X11296Y1961D01*
X11295Y1960D01*
X11294Y1960D01*
X11289Y1955D01*
X11283Y1950D01*
X11277Y1946D01*
X11270Y1943D01*
X11258Y1937D01*
X11247Y1933D01*
X11236Y1932D01*
X11231Y1931D01*
X11227Y1931D01*
X11224Y1930D01*
X11220D01*
X11206Y1931D01*
X11194Y1933D01*
X11184Y1936D01*
X11175Y1940D01*
X11168Y1943D01*
X11162Y1946D01*
X11159Y1949D01*
X11158Y1949D01*
X11149Y1957D01*
X11141Y1966D01*
X11135Y1974D01*
X11131Y1983D01*
X11128Y1990D01*
X11125Y1997D01*
X11125Y1999D01*
X11124Y2001D01*
X11124Y2001D01*
Y2002D01*
X11156Y2011D01*
X11159Y2003D01*
X11162Y1995D01*
X11166Y1989D01*
X11170Y1984D01*
X11174Y1979D01*
X11177Y1976D01*
X11179Y1974D01*
X11180Y1974D01*
X11187Y1969D01*
X11194Y1966D01*
X11201Y1964D01*
X11207Y1962D01*
X11213Y1961D01*
X11217Y1960D01*
X11221D01*
X11232Y1962D01*
X11241Y1964D01*
X11249Y1967D01*
X11256Y1971D01*
X11262Y1974D01*
X11266Y1978D01*
X11268Y1980D01*
X11269Y1981D01*
X11275Y1990D01*
X11280Y1999D01*
X11283Y2009D01*
X11285Y2019D01*
X11286Y2028D01*
X11287Y2032D01*
Y2035D01*
X11287Y2038D01*
Y2040D01*
Y2041D01*
Y2042D01*
X11287Y2056D01*
X11285Y2069D01*
X11282Y2079D01*
X11278Y2088D01*
X11274Y2095D01*
X11271Y2100D01*
X11269Y2103D01*
X11268Y2104D01*
X11261Y2111D01*
X11252Y2116D01*
X11244Y2120D01*
X11235Y2122D01*
X11228Y2124D01*
X11223Y2125D01*
X11221Y2125D01*
X11218D01*
X11210Y2125D01*
X11204Y2124D01*
X11197Y2122D01*
X11192Y2120D01*
X11188Y2118D01*
X11185Y2116D01*
X11183Y2115D01*
X11182Y2114D01*
X11176Y2110D01*
X11172Y2105D01*
X11168Y2100D01*
X11164Y2096D01*
X11162Y2091D01*
X11160Y2087D01*
X11159Y2085D01*
X11158Y2084D01*
X11127Y2093D01*
X11131Y2103D01*
X11136Y2111D01*
X11141Y2119D01*
X11146Y2126D01*
X11152Y2131D01*
X11155Y2135D01*
X11158Y2137D01*
X11159Y2138D01*
X11168Y2143D01*
X11178Y2148D01*
X11187Y2150D01*
X11197Y2152D01*
X11205Y2154D01*
X11211Y2155D01*
X11217D01*
X11228Y2154D01*
D02*
G37*
D35*
X24955Y8145D02*
G03*
X24955Y8145I-63J0D01*
G01*
X4458Y10010D02*
Y11664D01*
Y10010D02*
X4576Y9892D01*
X4970D01*
X5364D02*
X5954D01*
X4458Y11664D02*
X5954Y11664D01*
Y9892D02*
Y11664D01*
X4970Y9892D02*
X5364D01*
X29685Y8937D02*
X31339Y8937D01*
X31457Y9055D01*
Y9449D01*
Y10433D02*
X31457Y9843D01*
X29685Y8937D02*
Y10433D01*
X31457D01*
Y9449D02*
X31457Y9843D01*
X25434Y20784D02*
X27087D01*
X25316Y20666D02*
X25434Y20784D01*
X25316Y20272D02*
Y20666D01*
Y19288D02*
Y19878D01*
X27087Y19288D02*
Y20784D01*
X25316Y19288D02*
X27087D01*
X25316Y19878D02*
Y20272D01*
X18513Y20085D02*
X18646D01*
X18580D01*
Y19752D01*
X18646Y19685D01*
X18713D01*
X18780Y19752D01*
X18380Y19685D02*
X18246D01*
X18313D01*
Y20085D01*
X18380Y20018D01*
D81*
X32166Y5587D02*
X32706D01*
X32172Y4244D02*
Y5584D01*
X32712Y4244D02*
Y5584D01*
X32172Y4244D02*
X32712D01*
X31681Y5636D02*
Y6986D01*
Y5636D02*
X32931D01*
Y6986D01*
X31681D02*
X32931D01*
X32831Y5636D02*
X32931Y5736D01*
X32831Y5636D02*
X32931D01*
Y5786D01*
X32871Y5636D02*
X32931Y5696D01*
X32791Y5636D02*
X32801D01*
X32841Y5676D01*
X22504Y5836D02*
X22538Y5869D01*
X22604D01*
X22638Y5836D01*
Y5703D01*
X22604Y5669D01*
X22538D01*
X22504Y5703D01*
X22438Y5669D02*
X22371D01*
X22405D01*
Y5869D01*
X22438Y5836D01*
X22271Y5669D02*
X22205D01*
X22238D01*
Y5869D01*
X22271Y5836D01*
X21971Y5669D02*
X22105D01*
X21971Y5803D01*
Y5836D01*
X22005Y5869D01*
X22071D01*
X22105Y5836D01*
X20828Y5602D02*
X20861Y5635D01*
X20928D01*
X20961Y5602D01*
Y5469D01*
X20928Y5435D01*
X20861D01*
X20828Y5469D01*
X20761Y5435D02*
X20695D01*
X20728D01*
Y5635D01*
X20761Y5602D01*
X20595Y5435D02*
X20528D01*
X20561D01*
Y5635D01*
X20595Y5602D01*
X20428D02*
X20395Y5635D01*
X20328D01*
X20295Y5602D01*
Y5569D01*
X20328Y5535D01*
X20361D01*
X20328D01*
X20295Y5502D01*
Y5469D01*
X20328Y5435D01*
X20395D01*
X20428Y5469D01*
D82*
X24640Y8150D02*
G03*
X24640Y8150I-49J0D01*
G01*
D83*
X3858Y1417D02*
Y1717D01*
X3708D01*
X3658Y1667D01*
Y1567D01*
X3708Y1517D01*
X3858D01*
X3758D02*
X3658Y1417D01*
X3408D02*
X3508D01*
X3558Y1467D01*
Y1567D01*
X3508Y1617D01*
X3408D01*
X3358Y1567D01*
Y1517D01*
X3558D01*
X3258Y1617D02*
X3158Y1417D01*
X3059Y1617D01*
X2959Y1417D02*
Y1467D01*
X2909D01*
Y1417D01*
X2959D01*
X2709Y1667D02*
X2659Y1717D01*
X2559D01*
X2509Y1667D01*
Y1617D01*
X2559Y1567D01*
X2609D01*
X2559D01*
X2509Y1517D01*
Y1467D01*
X2559Y1417D01*
X2659D01*
X2709Y1467D01*
X2409Y1417D02*
Y1467D01*
X2359D01*
Y1417D01*
X2409D01*
X2159Y1667D02*
X2109Y1717D01*
X2009D01*
X1959Y1667D01*
Y1467D01*
X2009Y1417D01*
X2109D01*
X2159Y1467D01*
Y1667D01*
D84*
X12141Y4965D02*
X12961Y4965D01*
X12141Y4965D02*
X12141Y5345D01*
X12961D01*
Y4965D02*
Y5345D01*
X11511Y5435D02*
Y5815D01*
X10691D02*
X11511D01*
X10691Y5435D02*
Y5815D01*
Y5435D02*
X11511D01*
X27111Y5535D02*
Y6355D01*
X27491D01*
Y5535D02*
Y6355D01*
X27111Y5535D02*
X27491D01*
X20321Y3845D02*
X20701D01*
Y4665D01*
X20321D02*
X20701D01*
X20321Y3845D02*
Y4665D01*
X28981Y5525D02*
Y6345D01*
X28601Y5525D02*
X28981D01*
X28601D02*
Y6345D01*
X28981D01*
X7521Y5145D02*
X8341D01*
X7521D02*
Y5525D01*
X8341D01*
Y5145D02*
Y5525D01*
X11531Y3905D02*
X11911D01*
Y4725D01*
X11531D02*
X11911D01*
X11531Y3905D02*
Y4725D01*
X6351Y3525D02*
X6731D01*
Y4345D01*
X6351D02*
X6731D01*
X6351Y3525D02*
Y4345D01*
X2811Y3675D02*
X3191D01*
Y4495D01*
X2811D02*
X3191D01*
X2811Y3675D02*
Y4495D01*
X14231Y4385D02*
Y5205D01*
X13851Y4385D02*
X14231D01*
X13851D02*
Y5205D01*
X14231D01*
X13021Y4805D02*
X13841D01*
X13021D02*
Y5185D01*
X13841D01*
Y4805D02*
Y5185D01*
X10701Y6015D02*
X11521D01*
X10701D02*
Y6395D01*
X11521D01*
Y6015D02*
Y6395D01*
X10691Y6415D02*
X11511D01*
X10691D02*
Y6795D01*
X11511D01*
Y6415D02*
Y6795D01*
X10691Y6825D02*
X11511D01*
X10691D02*
Y7205D01*
X11511D01*
Y6825D02*
Y7205D01*
X10691Y7225D02*
X11511D01*
X10691D02*
Y7605D01*
X11511D01*
Y7225D02*
Y7605D01*
X8771Y4695D02*
Y5515D01*
X8391Y4695D02*
X8771D01*
X8391D02*
Y5515D01*
X8771D01*
X7521Y4775D02*
X8341D01*
X7521D02*
Y5155D01*
X8341D01*
Y4775D02*
Y5155D01*
X6401Y5425D02*
X7221D01*
X6401D02*
Y5805D01*
X7221D01*
Y5425D02*
Y5805D01*
X6411Y5875D02*
X7231D01*
X6411D02*
Y6255D01*
X7231D01*
Y5875D02*
Y6255D01*
X6401Y6315D02*
X7221D01*
X6401D02*
Y6695D01*
X7221D01*
Y6315D02*
Y6695D01*
X6401Y7235D02*
X7221D01*
X6401D02*
Y7615D01*
X7221D01*
Y7235D02*
Y7615D01*
X6401Y6725D02*
X7221D01*
X6401D02*
Y7105D01*
X7221D01*
Y6725D02*
Y7105D01*
X2611Y5145D02*
X3431D01*
X2611D02*
Y5525D01*
X3431D01*
Y5145D02*
Y5525D01*
X1861Y6405D02*
X2681D01*
X1861D02*
Y6785D01*
X2681D01*
Y6405D02*
Y6785D01*
X2291Y5095D02*
X3111D01*
Y4715D02*
Y5095D01*
X2291Y4715D02*
X3111D01*
X2291D02*
Y5095D01*
X1861Y6895D02*
X2681D01*
X1861D02*
Y7275D01*
X2681D01*
Y6895D02*
Y7275D01*
X1851Y6065D02*
X2671D01*
X1851D02*
Y6445D01*
X2671D01*
Y6065D02*
Y6445D01*
X3431Y5135D02*
X4251D01*
X3431D02*
Y5515D01*
X4251D01*
Y5135D02*
Y5515D01*
X4331Y5525D02*
X5151D01*
Y5145D02*
Y5525D01*
X4331Y5145D02*
X5151D01*
X4331D02*
Y5525D01*
X4321Y4685D02*
X5141D01*
X4321D02*
Y5065D01*
X5141D01*
Y4685D02*
Y5065D01*
X16371Y4795D02*
X17191D01*
X16371D02*
Y5175D01*
X17191Y5175D01*
Y4795D02*
Y5175D01*
X17911Y5155D02*
X18731Y5155D01*
Y4775D02*
Y5155D01*
X17911Y4775D02*
X18731Y4775D01*
X17911Y4775D02*
Y5155D01*
X30441Y11525D02*
Y11905D01*
X29621D02*
X30441D01*
X29621Y11525D02*
Y11905D01*
Y11525D02*
X30441D01*
X24751Y6489D02*
X25571D01*
Y6109D02*
Y6489D01*
X24751Y6109D02*
X25571D01*
X24751D02*
Y6489D01*
X32382Y9219D02*
Y9599D01*
X31562D02*
X32382D01*
X31562Y9219D02*
Y9599D01*
Y9219D02*
X32382D01*
X30681Y5625D02*
Y6005D01*
Y5625D02*
X31501D01*
Y6005D01*
X30681D02*
X31501D01*
X32881Y4665D02*
X33261D01*
Y5485D01*
X32881D02*
X33261D01*
X32881Y4665D02*
Y5485D01*
X32931Y6235D02*
X33311D01*
Y7055D01*
X32931D02*
X33311D01*
X32931Y6235D02*
Y7055D01*
X24744Y6056D02*
X25564D01*
Y5676D02*
Y6056D01*
X24744Y5676D02*
X25564D01*
X24744D02*
Y6056D01*
X32511Y3545D02*
Y3925D01*
X31691D02*
X32511D01*
X31691Y3545D02*
Y3925D01*
Y3545D02*
X32511D01*
X29711Y8415D02*
X30531D01*
X29711D02*
Y8795D01*
X30531D01*
Y8415D02*
Y8795D01*
X29651Y10885D02*
X30471D01*
Y10505D02*
Y10885D01*
X29651Y10505D02*
X30471D01*
X29651D02*
Y10885D01*
X25585Y5669D02*
Y6489D01*
X25965D01*
Y5669D02*
Y6489D01*
X25585Y5669D02*
X25965D01*
X28481Y5535D02*
Y6355D01*
X28101Y5535D02*
X28481D01*
X28101D02*
Y6355D01*
X28481D01*
X7231Y5065D02*
Y5445D01*
X6411D02*
X7231D01*
X6411Y5065D02*
Y5445D01*
Y5065D02*
X7231D01*
X1871Y5135D02*
X2691D01*
X1871D02*
Y5515D01*
X2691D01*
Y5135D02*
Y5515D01*
X25961Y18865D02*
X26781D01*
X25961D02*
Y19245D01*
X26781D01*
Y18865D02*
Y19245D01*
X27527Y23757D02*
Y24577D01*
X27907D01*
Y23757D02*
Y24577D01*
X27527Y23757D02*
X27907D01*
X27553Y24741D02*
Y25561D01*
X27173Y24741D02*
X27553D01*
X27173D02*
Y25561D01*
X27553D01*
X27960Y22851D02*
X28340D01*
Y23671D01*
X27960D02*
X28340D01*
X27960Y22851D02*
Y23671D01*
X27527Y21991D02*
X27907D01*
Y22811D01*
X27527D02*
X27907D01*
X27527Y21991D02*
Y22811D01*
X28393Y22805D02*
X28773D01*
X28393Y21985D02*
Y22805D01*
Y21985D02*
X28773D01*
Y22805D01*
X27960Y21985D02*
Y22805D01*
X28340D01*
Y21985D02*
Y22805D01*
X27960Y21985D02*
X28340D01*
X27133Y22857D02*
Y23677D01*
X27513D01*
Y22857D02*
Y23677D01*
X27133Y22857D02*
X27513D01*
X27567D02*
Y23677D01*
X27947D01*
Y22857D02*
Y23677D01*
X27567Y22857D02*
X27947D01*
X26044Y20830D02*
X26864D01*
X26044D02*
Y21210D01*
X26864D01*
Y20830D02*
Y21210D01*
X27621Y5535D02*
Y6355D01*
X28001D01*
Y5535D02*
Y6355D01*
X27621Y5535D02*
X28001D01*
X30111Y4945D02*
X30931D01*
X30111D02*
Y5325D01*
X30931D01*
Y4945D02*
Y5325D01*
X29246Y5650D02*
X29266Y5630D01*
X30624D01*
X29246Y5650D02*
Y6319D01*
X30231D02*
Y6988D01*
Y6319D02*
X30624D01*
Y6201D02*
Y6319D01*
Y5630D02*
Y6201D01*
X29246Y6319D02*
X29601D01*
Y6988D01*
Y6988D01*
X30231D01*
X4284Y10374D02*
Y11194D01*
X3904Y10374D02*
X4284D01*
X3904D02*
Y11194D01*
X4284D01*
X27960Y24577D02*
X28340D01*
X27960Y23757D02*
Y24577D01*
Y23757D02*
X28340D01*
Y24577D01*
X28031Y21345D02*
Y21805D01*
X27021Y21345D02*
Y21805D01*
Y21345D02*
X28031D01*
X27021Y21805D02*
X28031D01*
X28773Y23757D02*
Y24577D01*
X28393Y23757D02*
X28773D01*
X28393D02*
Y24577D01*
X28773D01*
X28472Y25561D02*
X28852D01*
X28472Y24741D02*
Y25561D01*
Y24741D02*
X28852D01*
Y25561D01*
X28039Y24747D02*
Y25567D01*
X28419D01*
Y24747D02*
Y25567D01*
X28039Y24747D02*
X28419D01*
X27986D02*
Y25567D01*
X27606Y24747D02*
X27986D01*
X27606D02*
Y25567D01*
X27986D01*
X28393Y22851D02*
Y23671D01*
X28773D01*
Y22851D02*
Y23671D01*
X28393Y22851D02*
X28773D01*
X15751Y3915D02*
X16131D01*
Y4735D01*
X15751D02*
X16131D01*
X15751Y3915D02*
X15751Y4735D01*
X14831Y6365D02*
X15651D01*
X14831D02*
Y6745D01*
X15651D01*
Y6365D02*
Y6745D01*
X14821Y5485D02*
X15641D01*
X14821D02*
X14821Y5865D01*
X15641D01*
Y5485D02*
Y5865D01*
X14831Y6775D02*
X15651D01*
X14831D02*
Y7155D01*
X15651D01*
Y6775D02*
Y7155D01*
X14821Y7195D02*
X15641Y7195D01*
X14821Y7195D02*
Y7575D01*
X15641Y7575D01*
Y7195D02*
Y7575D01*
X19191Y6925D02*
X20011Y6925D01*
X19191Y6925D02*
Y7305D01*
X20011D01*
Y6925D02*
Y7305D01*
X20952Y5336D02*
X21772Y5336D01*
Y4956D02*
Y5336D01*
X20952Y4956D02*
X21772Y4956D01*
X20952Y4956D02*
Y5336D01*
X21911Y5455D02*
X22731D01*
Y5075D02*
Y5455D01*
X21911Y5075D02*
X22731D01*
X21911D02*
Y5455D01*
X26884Y21316D02*
Y22136D01*
X26504Y21316D02*
X26884D01*
X26504D02*
Y22136D01*
X26884D01*
X4419Y9895D02*
Y9862D01*
X4352Y9795D01*
X4286Y9862D01*
Y9895D01*
X4352Y9795D02*
Y9695D01*
X4086D02*
X4219D01*
X4086Y9829D01*
Y9862D01*
X4119Y9895D01*
X4186D01*
X4219Y9862D01*
X32087Y4685D02*
Y4485D01*
X31987D01*
X31954Y4518D01*
Y4651D01*
X31987Y4685D01*
X32087D01*
X31754D02*
X31821Y4651D01*
X31887Y4585D01*
Y4518D01*
X31854Y4485D01*
X31787D01*
X31754Y4518D01*
Y4551D01*
X31787Y4585D01*
X31887D01*
X34435Y5134D02*
Y4934D01*
X34335D01*
X34302Y4968D01*
Y5101D01*
X34335Y5134D01*
X34435D01*
X34235Y4934D02*
X34169D01*
X34202D01*
Y5134D01*
X34235Y5101D01*
X33936Y5134D02*
X34002Y5101D01*
X34069Y5034D01*
Y4968D01*
X34035Y4934D01*
X33969D01*
X33936Y4968D01*
Y5001D01*
X33969Y5034D01*
X34069D01*
X11178Y5332D02*
X11211Y5365D01*
X11278D01*
X11311Y5332D01*
Y5199D01*
X11278Y5165D01*
X11211D01*
X11178Y5199D01*
X11111Y5365D02*
X10978D01*
Y5332D01*
X11111Y5199D01*
Y5165D01*
X10911Y5332D02*
X10878Y5365D01*
X10811D01*
X10778Y5332D01*
Y5299D01*
X10811Y5265D01*
X10778Y5232D01*
Y5199D01*
X10811Y5165D01*
X10878D01*
X10911Y5199D01*
Y5232D01*
X10878Y5265D01*
X10911Y5299D01*
Y5332D01*
X10878Y5265D02*
X10811D01*
X22921Y3665D02*
Y3499D01*
X22888Y3465D01*
X22821D01*
X22788Y3499D01*
Y3665D01*
X22588Y3465D02*
X22721D01*
X22588Y3599D01*
Y3632D01*
X22621Y3665D01*
X22688D01*
X22721Y3632D01*
X22521D02*
X22488Y3665D01*
X22421D01*
X22388Y3632D01*
Y3499D01*
X22421Y3465D01*
X22488D01*
X22521Y3499D01*
Y3632D01*
X18386Y3704D02*
Y3537D01*
X18353Y3504D01*
X18286D01*
X18253Y3537D01*
Y3704D01*
X18186Y3504D02*
X18119D01*
X18153D01*
Y3704D01*
X18186Y3671D01*
X18019Y3537D02*
X17986Y3504D01*
X17919D01*
X17886Y3537D01*
Y3671D01*
X17919Y3704D01*
X17986D01*
X18019Y3671D01*
Y3637D01*
X17986Y3604D01*
X17886D01*
X14094Y3783D02*
Y3616D01*
X14061Y3583D01*
X13995D01*
X13961Y3616D01*
Y3783D01*
X13895Y3583D02*
X13828D01*
X13861D01*
Y3783D01*
X13895Y3749D01*
X13728D02*
X13695Y3783D01*
X13628D01*
X13595Y3749D01*
Y3716D01*
X13628Y3683D01*
X13595Y3649D01*
Y3616D01*
X13628Y3583D01*
X13695D01*
X13728Y3616D01*
Y3649D01*
X13695Y3683D01*
X13728Y3716D01*
Y3749D01*
X13695Y3683D02*
X13628D01*
X9101Y3635D02*
Y3469D01*
X9068Y3435D01*
X9001D01*
X8968Y3469D01*
Y3635D01*
X8901Y3435D02*
X8835D01*
X8868D01*
Y3635D01*
X8901Y3602D01*
X8735Y3635D02*
X8601D01*
Y3602D01*
X8735Y3469D01*
Y3435D01*
X5394Y4098D02*
Y3931D01*
X5360Y3898D01*
X5294D01*
X5260Y3931D01*
Y4098D01*
X5194Y3898D02*
X5127D01*
X5160D01*
Y4098D01*
X5194Y4064D01*
X4894Y4098D02*
X4961Y4064D01*
X5027Y3998D01*
Y3931D01*
X4994Y3898D01*
X4927D01*
X4894Y3931D01*
Y3964D01*
X4927Y3998D01*
X5027D01*
X20231Y4255D02*
X20031D01*
Y4155D01*
X20065Y4122D01*
X20131D01*
X20165Y4155D01*
Y4255D01*
Y4189D02*
X20231Y4122D01*
Y4055D02*
Y3989D01*
Y4022D01*
X20031D01*
X20065Y4055D01*
X20231Y3889D02*
Y3822D01*
Y3855D01*
X20031D01*
X20065Y3889D01*
X20031Y3722D02*
Y3589D01*
X20065D01*
X20198Y3722D01*
X20231D01*
X15561Y4505D02*
X15361D01*
Y4405D01*
X15395Y4372D01*
X15461D01*
X15495Y4405D01*
Y4505D01*
Y4439D02*
X15561Y4372D01*
Y4305D02*
Y4239D01*
Y4272D01*
X15361D01*
X15395Y4305D01*
X15561Y4139D02*
Y4072D01*
Y4105D01*
X15361D01*
X15395Y4139D01*
X15361Y3839D02*
X15395Y3905D01*
X15461Y3972D01*
X15528D01*
X15561Y3939D01*
Y3872D01*
X15528Y3839D01*
X15495D01*
X15461Y3872D01*
Y3972D01*
X11311Y4255D02*
X11111D01*
Y4155D01*
X11145Y4122D01*
X11211D01*
X11245Y4155D01*
Y4255D01*
Y4189D02*
X11311Y4122D01*
Y4055D02*
Y3989D01*
Y4022D01*
X11111D01*
X11145Y4055D01*
X11311Y3889D02*
Y3822D01*
Y3855D01*
X11111D01*
X11145Y3889D01*
X11111Y3589D02*
Y3722D01*
X11211D01*
X11178Y3655D01*
Y3622D01*
X11211Y3589D01*
X11278D01*
X11311Y3622D01*
Y3689D01*
X11278Y3722D01*
X6171Y4295D02*
X5971D01*
Y4195D01*
X6005Y4162D01*
X6071D01*
X6105Y4195D01*
Y4295D01*
Y4229D02*
X6171Y4162D01*
Y4095D02*
Y4029D01*
Y4062D01*
X5971D01*
X6005Y4095D01*
X6171Y3929D02*
Y3862D01*
Y3895D01*
X5971D01*
X6005Y3929D01*
X6171Y3662D02*
X5971D01*
X6071Y3762D01*
Y3629D01*
X2541Y4355D02*
X2341D01*
Y4255D01*
X2375Y4222D01*
X2441D01*
X2475Y4255D01*
Y4355D01*
Y4289D02*
X2541Y4222D01*
Y4155D02*
Y4089D01*
Y4122D01*
X2341D01*
X2375Y4155D01*
X2541Y3989D02*
Y3922D01*
Y3955D01*
X2341D01*
X2375Y3989D01*
Y3822D02*
X2341Y3789D01*
Y3722D01*
X2375Y3689D01*
X2408D01*
X2441Y3722D01*
Y3755D01*
Y3722D01*
X2475Y3689D01*
X2508D01*
X2541Y3722D01*
Y3789D01*
X2508Y3822D01*
X27363Y24485D02*
X27163D01*
Y24385D01*
X27196Y24351D01*
X27263D01*
X27296Y24385D01*
Y24485D01*
Y24418D02*
X27363Y24351D01*
Y24151D02*
Y24285D01*
X27230Y24151D01*
X27196D01*
X27163Y24185D01*
Y24251D01*
X27196Y24285D01*
Y24085D02*
X27163Y24052D01*
Y23985D01*
X27196Y23952D01*
X27230D01*
X27263Y23985D01*
Y24018D01*
Y23985D01*
X27296Y23952D01*
X27330D01*
X27363Y23985D01*
Y24052D01*
X27330Y24085D01*
X28929Y24312D02*
X28895Y24345D01*
Y24412D01*
X28929Y24445D01*
X29062D01*
X29095Y24412D01*
Y24345D01*
X29062Y24312D01*
X29095Y24245D02*
Y24179D01*
Y24212D01*
X28895D01*
X28929Y24245D01*
X29095Y24079D02*
Y24012D01*
Y24045D01*
X28895D01*
X28929Y24079D01*
X26251Y22068D02*
X26218Y22101D01*
Y22168D01*
X26251Y22201D01*
X26385D01*
X26418Y22168D01*
Y22101D01*
X26385Y22068D01*
X26418Y22001D02*
Y21935D01*
Y21968D01*
X26218D01*
X26251Y22001D01*
Y21835D02*
X26218Y21801D01*
Y21735D01*
X26251Y21701D01*
X26285D01*
X26318Y21735D01*
Y21768D01*
Y21735D01*
X26351Y21701D01*
X26385D01*
X26418Y21735D01*
Y21801D01*
X26385Y21835D01*
X26881Y24312D02*
X26848Y24345D01*
Y24412D01*
X26881Y24445D01*
X27015D01*
X27048Y24412D01*
Y24345D01*
X27015Y24312D01*
X27048Y24245D02*
Y24179D01*
Y24212D01*
X26848D01*
X26881Y24245D01*
Y24079D02*
X26848Y24045D01*
Y23979D01*
X26881Y23946D01*
X26915D01*
X26948Y23979D01*
X26981Y23946D01*
X27015D01*
X27048Y23979D01*
Y24045D01*
X27015Y24079D01*
X26981D01*
X26948Y24045D01*
X26915Y24079D01*
X26881D01*
X26948Y24045D02*
Y23979D01*
X28371Y25872D02*
X28405Y25905D01*
X28471D01*
X28505Y25872D01*
Y25739D01*
X28471Y25705D01*
X28405D01*
X28371Y25739D01*
X28305Y25705D02*
X28238D01*
X28271D01*
Y25905D01*
X28305Y25872D01*
X28138Y25739D02*
X28105Y25705D01*
X28038D01*
X28005Y25739D01*
Y25872D01*
X28038Y25905D01*
X28105D01*
X28138Y25872D01*
Y25838D01*
X28105Y25805D01*
X28005D01*
X28929Y23446D02*
X28895Y23479D01*
Y23546D01*
X28929Y23579D01*
X29062D01*
X29095Y23546D01*
Y23479D01*
X29062Y23446D01*
X29095Y23246D02*
Y23379D01*
X28962Y23246D01*
X28929D01*
X28895Y23279D01*
Y23346D01*
X28929Y23379D01*
Y23179D02*
X28895Y23146D01*
Y23079D01*
X28929Y23046D01*
X29062D01*
X29095Y23079D01*
Y23146D01*
X29062Y23179D01*
X28929D01*
X28220Y21753D02*
X28187Y21786D01*
Y21853D01*
X28220Y21886D01*
X28353D01*
X28386Y21853D01*
Y21786D01*
X28353Y21753D01*
X28386Y21553D02*
Y21686D01*
X28253Y21553D01*
X28220D01*
X28187Y21586D01*
Y21653D01*
X28220Y21686D01*
X28386Y21486D02*
Y21420D01*
Y21453D01*
X28187D01*
X28220Y21486D01*
X27663Y25872D02*
X27696Y25905D01*
X27763D01*
X27796Y25872D01*
Y25739D01*
X27763Y25705D01*
X27696D01*
X27663Y25739D01*
X27463Y25705D02*
X27596D01*
X27463Y25838D01*
Y25872D01*
X27496Y25905D01*
X27563D01*
X27596Y25872D01*
X27396D02*
X27363Y25905D01*
X27296D01*
X27263Y25872D01*
Y25838D01*
X27296Y25805D01*
X27329D01*
X27296D01*
X27263Y25772D01*
Y25739D01*
X27296Y25705D01*
X27363D01*
X27396Y25739D01*
X26167Y21462D02*
X26200Y21496D01*
X26267D01*
X26300Y21462D01*
Y21329D01*
X26267Y21296D01*
X26200D01*
X26167Y21329D01*
X25967Y21296D02*
X26100D01*
X25967Y21429D01*
Y21462D01*
X26000Y21496D01*
X26067D01*
X26100Y21462D01*
X25767Y21496D02*
X25900D01*
Y21396D01*
X25833Y21429D01*
X25800D01*
X25767Y21396D01*
Y21329D01*
X25800Y21296D01*
X25867D01*
X25900Y21329D01*
X26717Y18707D02*
X26750Y18740D01*
X26817D01*
X26850Y18707D01*
Y18574D01*
X26817Y18541D01*
X26750D01*
X26717Y18574D01*
X26517Y18541D02*
X26650D01*
X26517Y18674D01*
Y18707D01*
X26550Y18740D01*
X26617D01*
X26650Y18707D01*
X26317Y18740D02*
X26384Y18707D01*
X26450Y18641D01*
Y18574D01*
X26417Y18541D01*
X26350D01*
X26317Y18574D01*
Y18607D01*
X26350Y18641D01*
X26450D01*
X5588Y4912D02*
X5621Y4945D01*
X5688D01*
X5721Y4912D01*
Y4779D01*
X5688Y4745D01*
X5621D01*
X5588Y4779D01*
X5388Y4745D02*
X5521D01*
X5388Y4879D01*
Y4912D01*
X5421Y4945D01*
X5488D01*
X5521Y4912D01*
X5321Y4945D02*
X5188D01*
Y4912D01*
X5321Y4779D01*
Y4745D01*
X1520Y6111D02*
X1554Y6145D01*
X1620D01*
X1654Y6111D01*
Y5978D01*
X1620Y5945D01*
X1554D01*
X1520Y5978D01*
X1320Y5945D02*
X1454D01*
X1320Y6078D01*
Y6111D01*
X1354Y6145D01*
X1420D01*
X1454Y6111D01*
X1254D02*
X1220Y6145D01*
X1154D01*
X1120Y6111D01*
Y6078D01*
X1154Y6045D01*
X1120Y6012D01*
Y5978D01*
X1154Y5945D01*
X1220D01*
X1254Y5978D01*
Y6012D01*
X1220Y6045D01*
X1254Y6078D01*
Y6111D01*
X1220Y6045D02*
X1154D01*
X3016Y5875D02*
X3050Y5909D01*
X3116D01*
X3150Y5875D01*
Y5742D01*
X3116Y5709D01*
X3050D01*
X3016Y5742D01*
X2816Y5709D02*
X2950D01*
X2816Y5842D01*
Y5875D01*
X2850Y5909D01*
X2916D01*
X2950Y5875D01*
X2750Y5742D02*
X2716Y5709D01*
X2650D01*
X2616Y5742D01*
Y5875D01*
X2650Y5909D01*
X2716D01*
X2750Y5875D01*
Y5842D01*
X2716Y5809D01*
X2616D01*
X2071Y4891D02*
X2105Y4924D01*
X2171D01*
X2205Y4891D01*
Y4758D01*
X2171Y4724D01*
X2105D01*
X2071Y4758D01*
X2005Y4891D02*
X1971Y4924D01*
X1905D01*
X1872Y4891D01*
Y4858D01*
X1905Y4824D01*
X1938D01*
X1905D01*
X1872Y4791D01*
Y4758D01*
X1905Y4724D01*
X1971D01*
X2005Y4758D01*
X1805Y4891D02*
X1772Y4924D01*
X1705D01*
X1672Y4891D01*
Y4758D01*
X1705Y4724D01*
X1772D01*
X1805Y4758D01*
Y4891D01*
X1638Y7293D02*
X1672Y7326D01*
X1738D01*
X1772Y7293D01*
Y7159D01*
X1738Y7126D01*
X1672D01*
X1638Y7159D01*
X1572Y7293D02*
X1538Y7326D01*
X1472D01*
X1438Y7293D01*
Y7259D01*
X1472Y7226D01*
X1505D01*
X1472D01*
X1438Y7193D01*
Y7159D01*
X1472Y7126D01*
X1538D01*
X1572Y7159D01*
X1238Y7126D02*
X1372D01*
X1238Y7259D01*
Y7293D01*
X1272Y7326D01*
X1338D01*
X1372Y7293D01*
X4867Y5875D02*
X4900Y5909D01*
X4967D01*
X5000Y5875D01*
Y5742D01*
X4967Y5709D01*
X4900D01*
X4867Y5742D01*
X4800Y5875D02*
X4767Y5909D01*
X4700D01*
X4667Y5875D01*
Y5842D01*
X4700Y5809D01*
X4733D01*
X4700D01*
X4667Y5775D01*
Y5742D01*
X4700Y5709D01*
X4767D01*
X4800Y5742D01*
X4600Y5875D02*
X4567Y5909D01*
X4500D01*
X4467Y5875D01*
Y5842D01*
X4500Y5809D01*
X4533D01*
X4500D01*
X4467Y5775D01*
Y5742D01*
X4500Y5709D01*
X4567D01*
X4600Y5742D01*
X1560Y6505D02*
X1593Y6539D01*
X1660D01*
X1693Y6505D01*
Y6372D01*
X1660Y6339D01*
X1593D01*
X1560Y6372D01*
X1493Y6505D02*
X1460Y6539D01*
X1393D01*
X1360Y6505D01*
Y6472D01*
X1393Y6439D01*
X1426D01*
X1393D01*
X1360Y6405D01*
Y6372D01*
X1393Y6339D01*
X1460D01*
X1493Y6372D01*
X1160Y6539D02*
X1226Y6505D01*
X1293Y6439D01*
Y6372D01*
X1260Y6339D01*
X1193D01*
X1160Y6372D01*
Y6405D01*
X1193Y6439D01*
X1293D01*
X6208Y5249D02*
X6241Y5215D01*
X6308D01*
X6341Y5249D01*
Y5382D01*
X6308Y5415D01*
X6241D01*
X6208Y5382D01*
X6141Y5249D02*
X6108Y5215D01*
X6041D01*
X6008Y5249D01*
Y5282D01*
X6041Y5315D01*
X6075D01*
X6041D01*
X6008Y5349D01*
Y5382D01*
X6041Y5415D01*
X6108D01*
X6141Y5382D01*
X5941Y5215D02*
X5808D01*
Y5249D01*
X5941Y5382D01*
Y5415D01*
X28225Y5202D02*
X28191Y5235D01*
Y5302D01*
X28225Y5335D01*
X28358D01*
X28391Y5302D01*
Y5235D01*
X28358Y5202D01*
X28391Y5035D02*
X28191D01*
X28291Y5135D01*
Y5002D01*
X28225Y4935D02*
X28191Y4902D01*
Y4835D01*
X28225Y4802D01*
X28358D01*
X28391Y4835D01*
Y4902D01*
X28358Y4935D01*
X28225D01*
X3725Y5875D02*
X3758Y5909D01*
X3825D01*
X3858Y5875D01*
Y5742D01*
X3825Y5709D01*
X3758D01*
X3725Y5742D01*
X3658Y5875D02*
X3625Y5909D01*
X3558D01*
X3525Y5875D01*
Y5842D01*
X3558Y5809D01*
X3592D01*
X3558D01*
X3525Y5775D01*
Y5742D01*
X3558Y5709D01*
X3625D01*
X3658Y5742D01*
X3458D02*
X3425Y5709D01*
X3358D01*
X3325Y5742D01*
Y5875D01*
X3358Y5909D01*
X3425D01*
X3458Y5875D01*
Y5842D01*
X3425Y5809D01*
X3325D01*
X2218Y5802D02*
X2251Y5835D01*
X2318D01*
X2351Y5802D01*
Y5669D01*
X2318Y5635D01*
X2251D01*
X2218Y5669D01*
X2051Y5635D02*
Y5835D01*
X2151Y5735D01*
X2018D01*
X1951Y5635D02*
X1885D01*
X1918D01*
Y5835D01*
X1951Y5802D01*
X30228Y8362D02*
X30261Y8395D01*
X30328D01*
X30361Y8362D01*
Y8229D01*
X30328Y8195D01*
X30261D01*
X30228Y8229D01*
X30061Y8195D02*
Y8395D01*
X30161Y8295D01*
X30028D01*
X29828Y8195D02*
X29961D01*
X29828Y8329D01*
Y8362D01*
X29861Y8395D01*
X29928D01*
X29961Y8362D01*
X27236Y22501D02*
X27202Y22534D01*
Y22601D01*
X27236Y22634D01*
X27369D01*
X27402Y22601D01*
Y22534D01*
X27369Y22501D01*
X27402Y22334D02*
X27202D01*
X27302Y22434D01*
Y22301D01*
X27402Y22134D02*
X27202D01*
X27302Y22234D01*
Y22101D01*
X26128Y6296D02*
X26095Y6329D01*
Y6396D01*
X26128Y6429D01*
X26262D01*
X26295Y6396D01*
Y6329D01*
X26262Y6296D01*
X26295Y6129D02*
X26095D01*
X26195Y6229D01*
Y6096D01*
X26095Y5896D02*
Y6029D01*
X26195D01*
X26162Y5962D01*
Y5929D01*
X26195Y5896D01*
X26262D01*
X26295Y5929D01*
Y5996D01*
X26262Y6029D01*
X30178Y11132D02*
X30211Y11165D01*
X30278D01*
X30311Y11132D01*
Y10999D01*
X30278Y10965D01*
X30211D01*
X30178Y10999D01*
X30011Y10965D02*
Y11165D01*
X30111Y11065D01*
X29978D01*
X29911Y11165D02*
X29778D01*
Y11132D01*
X29911Y10999D01*
Y10965D01*
X6218Y5692D02*
X6251Y5725D01*
X6318D01*
X6351Y5692D01*
Y5559D01*
X6318Y5525D01*
X6251D01*
X6218Y5559D01*
X6018Y5725D02*
X6151D01*
Y5625D01*
X6085Y5659D01*
X6051D01*
X6018Y5625D01*
Y5559D01*
X6051Y5525D01*
X6118D01*
X6151Y5559D01*
X5818Y5725D02*
X5885Y5692D01*
X5951Y5625D01*
Y5559D01*
X5918Y5525D01*
X5851D01*
X5818Y5559D01*
Y5592D01*
X5851Y5625D01*
X5951D01*
X6218Y6152D02*
X6251Y6185D01*
X6318D01*
X6351Y6152D01*
Y6019D01*
X6318Y5985D01*
X6251D01*
X6218Y6019D01*
X6018Y6185D02*
X6151D01*
Y6085D01*
X6085Y6119D01*
X6051D01*
X6018Y6085D01*
Y6019D01*
X6051Y5985D01*
X6118D01*
X6151Y6019D01*
X5951Y6185D02*
X5818D01*
Y6152D01*
X5951Y6019D01*
Y5985D01*
X6208Y6922D02*
X6241Y6955D01*
X6308D01*
X6341Y6922D01*
Y6789D01*
X6308Y6755D01*
X6241D01*
X6208Y6789D01*
X6008Y6955D02*
X6141D01*
Y6855D01*
X6075Y6889D01*
X6041D01*
X6008Y6855D01*
Y6789D01*
X6041Y6755D01*
X6108D01*
X6141Y6789D01*
X5941D02*
X5908Y6755D01*
X5841D01*
X5808Y6789D01*
Y6922D01*
X5841Y6955D01*
X5908D01*
X5941Y6922D01*
Y6889D01*
X5908Y6855D01*
X5808D01*
X7128Y4922D02*
X7161Y4955D01*
X7228D01*
X7261Y4922D01*
Y4789D01*
X7228Y4755D01*
X7161D01*
X7128Y4789D01*
X6928Y4955D02*
X6995Y4922D01*
X7061Y4855D01*
Y4789D01*
X7028Y4755D01*
X6961D01*
X6928Y4789D01*
Y4822D01*
X6961Y4855D01*
X7061D01*
X6861Y4922D02*
X6828Y4955D01*
X6761D01*
X6728Y4922D01*
Y4789D01*
X6761Y4755D01*
X6828D01*
X6861Y4789D01*
Y4922D01*
X8915Y5312D02*
X8881Y5345D01*
Y5412D01*
X8915Y5445D01*
X9048D01*
X9081Y5412D01*
Y5345D01*
X9048Y5312D01*
X8881Y5112D02*
X8915Y5179D01*
X8981Y5245D01*
X9048D01*
X9081Y5212D01*
Y5145D01*
X9048Y5112D01*
X9015D01*
X8981Y5145D01*
Y5245D01*
X9081Y5045D02*
Y4979D01*
Y5012D01*
X8881D01*
X8915Y5045D01*
X6198Y7432D02*
X6231Y7465D01*
X6298D01*
X6331Y7432D01*
Y7299D01*
X6298Y7265D01*
X6231D01*
X6198Y7299D01*
X5998Y7465D02*
X6065Y7432D01*
X6131Y7365D01*
Y7299D01*
X6098Y7265D01*
X6031D01*
X5998Y7299D01*
Y7332D01*
X6031Y7365D01*
X6131D01*
X5798Y7265D02*
X5931D01*
X5798Y7399D01*
Y7432D01*
X5831Y7465D01*
X5898D01*
X5931Y7432D01*
X6208Y6582D02*
X6241Y6615D01*
X6308D01*
X6341Y6582D01*
Y6449D01*
X6308Y6415D01*
X6241D01*
X6208Y6449D01*
X6008Y6615D02*
X6075Y6582D01*
X6141Y6515D01*
Y6449D01*
X6108Y6415D01*
X6041D01*
X6008Y6449D01*
Y6482D01*
X6041Y6515D01*
X6141D01*
X5941Y6582D02*
X5908Y6615D01*
X5841D01*
X5808Y6582D01*
Y6549D01*
X5841Y6515D01*
X5875D01*
X5841D01*
X5808Y6482D01*
Y6449D01*
X5841Y6415D01*
X5908D01*
X5941Y6449D01*
X24451Y5933D02*
X24484Y5966D01*
X24551D01*
X24584Y5933D01*
Y5799D01*
X24551Y5766D01*
X24484D01*
X24451Y5799D01*
X24251Y5966D02*
X24318Y5933D01*
X24384Y5866D01*
Y5799D01*
X24351Y5766D01*
X24284D01*
X24251Y5799D01*
Y5833D01*
X24284Y5866D01*
X24384D01*
X24184Y5966D02*
X24051D01*
Y5933D01*
X24184Y5799D01*
Y5766D01*
X10457Y6072D02*
X10491Y6105D01*
X10557D01*
X10591Y6072D01*
Y5939D01*
X10557Y5906D01*
X10491D01*
X10457Y5939D01*
X10391Y6105D02*
X10257D01*
Y6072D01*
X10391Y5939D01*
Y5906D01*
X10091D02*
Y6105D01*
X10191Y6005D01*
X10057D01*
X10478Y6602D02*
X10511Y6635D01*
X10578D01*
X10611Y6602D01*
Y6469D01*
X10578Y6435D01*
X10511D01*
X10478Y6469D01*
X10411Y6635D02*
X10278D01*
Y6602D01*
X10411Y6469D01*
Y6435D01*
X10078Y6635D02*
X10211D01*
Y6535D01*
X10145Y6569D01*
X10111D01*
X10078Y6535D01*
Y6469D01*
X10111Y6435D01*
X10178D01*
X10211Y6469D01*
X14365Y5162D02*
X14331Y5195D01*
Y5262D01*
X14365Y5295D01*
X14498D01*
X14531Y5262D01*
Y5195D01*
X14498Y5162D01*
X14331Y5095D02*
Y4962D01*
X14365D01*
X14498Y5095D01*
X14531D01*
X14331Y4895D02*
Y4762D01*
X14365D01*
X14498Y4895D01*
X14531D01*
X11938Y5302D02*
X11971Y5335D01*
X12038D01*
X12071Y5302D01*
Y5169D01*
X12038Y5135D01*
X11971D01*
X11938Y5169D01*
X11871Y5335D02*
X11738D01*
Y5302D01*
X11871Y5169D01*
Y5135D01*
X11671Y5169D02*
X11638Y5135D01*
X11571D01*
X11538Y5169D01*
Y5302D01*
X11571Y5335D01*
X11638D01*
X11671Y5302D01*
Y5269D01*
X11638Y5235D01*
X11538D01*
X10478Y7022D02*
X10511Y7055D01*
X10578D01*
X10611Y7022D01*
Y6889D01*
X10578Y6855D01*
X10511D01*
X10478Y6889D01*
X10411Y7022D02*
X10378Y7055D01*
X10311D01*
X10278Y7022D01*
Y6989D01*
X10311Y6955D01*
X10278Y6922D01*
Y6889D01*
X10311Y6855D01*
X10378D01*
X10411Y6889D01*
Y6922D01*
X10378Y6955D01*
X10411Y6989D01*
Y7022D01*
X10378Y6955D02*
X10311D01*
X10211Y7022D02*
X10178Y7055D01*
X10111D01*
X10078Y7022D01*
Y6889D01*
X10111Y6855D01*
X10178D01*
X10211Y6889D01*
Y7022D01*
X13488Y5462D02*
X13521Y5495D01*
X13588D01*
X13621Y5462D01*
Y5329D01*
X13588Y5295D01*
X13521D01*
X13488Y5329D01*
X13421Y5462D02*
X13388Y5495D01*
X13321D01*
X13288Y5462D01*
Y5429D01*
X13321Y5395D01*
X13288Y5362D01*
Y5329D01*
X13321Y5295D01*
X13388D01*
X13421Y5329D01*
Y5362D01*
X13388Y5395D01*
X13421Y5429D01*
Y5462D01*
X13388Y5395D02*
X13321D01*
X13221Y5295D02*
X13155D01*
X13188D01*
Y5495D01*
X13221Y5462D01*
X10478Y7412D02*
X10511Y7445D01*
X10578D01*
X10611Y7412D01*
Y7279D01*
X10578Y7245D01*
X10511D01*
X10478Y7279D01*
X10411Y7412D02*
X10378Y7445D01*
X10311D01*
X10278Y7412D01*
Y7379D01*
X10311Y7345D01*
X10278Y7312D01*
Y7279D01*
X10311Y7245D01*
X10378D01*
X10411Y7279D01*
Y7312D01*
X10378Y7345D01*
X10411Y7379D01*
Y7412D01*
X10378Y7345D02*
X10311D01*
X10078Y7245D02*
X10211D01*
X10078Y7379D01*
Y7412D01*
X10111Y7445D01*
X10178D01*
X10211Y7412D01*
X14558Y5752D02*
X14591Y5785D01*
X14658D01*
X14691Y5752D01*
Y5619D01*
X14658Y5585D01*
X14591D01*
X14558Y5619D01*
X14491D02*
X14458Y5585D01*
X14391D01*
X14358Y5619D01*
Y5752D01*
X14391Y5785D01*
X14458D01*
X14491Y5752D01*
Y5719D01*
X14458Y5685D01*
X14358D01*
X14158Y5785D02*
X14291D01*
Y5685D01*
X14225Y5719D01*
X14191D01*
X14158Y5685D01*
Y5619D01*
X14191Y5585D01*
X14258D01*
X14291Y5619D01*
X16118Y5042D02*
X16151Y5075D01*
X16218D01*
X16251Y5042D01*
Y4909D01*
X16218Y4875D01*
X16151D01*
X16118Y4909D01*
X16051D02*
X16018Y4875D01*
X15951D01*
X15918Y4909D01*
Y5042D01*
X15951Y5075D01*
X16018D01*
X16051Y5042D01*
Y5009D01*
X16018Y4975D01*
X15918D01*
X15718Y5075D02*
X15785Y5042D01*
X15851Y4975D01*
Y4909D01*
X15818Y4875D01*
X15751D01*
X15718Y4909D01*
Y4942D01*
X15751Y4975D01*
X15851D01*
X14438Y6489D02*
X14471Y6455D01*
X14538D01*
X14571Y6489D01*
Y6622D01*
X14538Y6655D01*
X14471D01*
X14438Y6622D01*
X14371D02*
X14338Y6655D01*
X14271D01*
X14238Y6622D01*
Y6489D01*
X14271Y6455D01*
X14338D01*
X14371Y6489D01*
Y6522D01*
X14338Y6555D01*
X14238D01*
X14171Y6455D02*
X14038D01*
Y6489D01*
X14171Y6622D01*
Y6655D01*
X19218Y5042D02*
X19251Y5075D01*
X19318D01*
X19351Y5042D01*
Y4909D01*
X19318Y4875D01*
X19251D01*
X19218Y4909D01*
X19151D02*
X19118Y4875D01*
X19051D01*
X19018Y4909D01*
Y5042D01*
X19051Y5075D01*
X19118D01*
X19151Y5042D01*
Y5009D01*
X19118Y4975D01*
X19018D01*
X18951Y4909D02*
X18918Y4875D01*
X18851D01*
X18818Y4909D01*
Y5042D01*
X18851Y5075D01*
X18918D01*
X18951Y5042D01*
Y5009D01*
X18918Y4975D01*
X18818D01*
X14418Y7002D02*
X14451Y7035D01*
X14518D01*
X14551Y7002D01*
Y6869D01*
X14518Y6835D01*
X14451D01*
X14418Y6869D01*
X14351Y6835D02*
X14285D01*
X14318D01*
Y7035D01*
X14351Y7002D01*
X14185D02*
X14151Y7035D01*
X14085D01*
X14051Y7002D01*
Y6869D01*
X14085Y6835D01*
X14151D01*
X14185Y6869D01*
Y7002D01*
X13885Y6835D02*
Y7035D01*
X13985Y6935D01*
X13851D01*
X14468Y7392D02*
X14501Y7425D01*
X14568D01*
X14601Y7392D01*
Y7259D01*
X14568Y7225D01*
X14501D01*
X14468Y7259D01*
X14401Y7225D02*
X14335D01*
X14368D01*
Y7425D01*
X14401Y7392D01*
X14235D02*
X14201Y7425D01*
X14135D01*
X14101Y7392D01*
Y7259D01*
X14135Y7225D01*
X14201D01*
X14235Y7259D01*
Y7392D01*
X13901Y7425D02*
X14035D01*
Y7325D01*
X13968Y7359D01*
X13935D01*
X13901Y7325D01*
Y7259D01*
X13935Y7225D01*
X14001D01*
X14035Y7259D01*
X19788Y7568D02*
X19821Y7602D01*
X19888D01*
X19921Y7568D01*
Y7435D01*
X19888Y7402D01*
X19821D01*
X19788Y7435D01*
X19721Y7402D02*
X19655D01*
X19688D01*
Y7602D01*
X19721Y7568D01*
X19421Y7402D02*
X19555D01*
X19421Y7535D01*
Y7568D01*
X19455Y7602D01*
X19521D01*
X19555Y7568D01*
X19355D02*
X19321Y7602D01*
X19255D01*
X19221Y7568D01*
Y7535D01*
X19255Y7502D01*
X19288D01*
X19255D01*
X19221Y7468D01*
Y7435D01*
X19255Y7402D01*
X19321D01*
X19355Y7435D01*
X27835Y21220D02*
Y21020D01*
X27702D01*
X27635Y21187D02*
X27602Y21220D01*
X27535D01*
X27502Y21187D01*
Y21153D01*
X27535Y21120D01*
X27569D01*
X27535D01*
X27502Y21087D01*
Y21053D01*
X27535Y21020D01*
X27602D01*
X27635Y21053D01*
X32347Y7120D02*
Y7253D01*
X32380Y7287D01*
X32447D01*
X32480Y7253D01*
Y7120D01*
X32447Y7087D01*
X32380D01*
X32414Y7153D02*
X32347Y7087D01*
X32380D02*
X32347Y7120D01*
X32280Y7087D02*
X32214D01*
X32247D01*
Y7287D01*
X32280Y7253D01*
X32047Y4016D02*
Y4216D01*
X31947D01*
X31914Y4182D01*
Y4116D01*
X31947Y4082D01*
X32047D01*
X31981D02*
X31914Y4016D01*
X31747D02*
Y4216D01*
X31847Y4116D01*
X31714D01*
X31241Y6115D02*
Y6315D01*
X31141D01*
X31108Y6282D01*
Y6215D01*
X31141Y6182D01*
X31241D01*
X31175D02*
X31108Y6115D01*
X31041Y6149D02*
X31008Y6115D01*
X30941D01*
X30908Y6149D01*
Y6282D01*
X30941Y6315D01*
X31008D01*
X31041Y6282D01*
Y6249D01*
X31008Y6215D01*
X30908D01*
X33591Y6955D02*
X33391D01*
Y6855D01*
X33425Y6822D01*
X33491D01*
X33525Y6855D01*
Y6955D01*
Y6889D02*
X33591Y6822D01*
Y6755D02*
Y6689D01*
Y6722D01*
X33391D01*
X33425Y6755D01*
Y6589D02*
X33391Y6555D01*
Y6489D01*
X33425Y6455D01*
X33558D01*
X33591Y6489D01*
Y6555D01*
X33558Y6589D01*
X33425D01*
X33561Y5255D02*
X33361D01*
Y5155D01*
X33395Y5122D01*
X33461D01*
X33495Y5155D01*
Y5255D01*
Y5189D02*
X33561Y5122D01*
Y5055D02*
Y4989D01*
Y5022D01*
X33361D01*
X33395Y5055D01*
X33561Y4889D02*
Y4822D01*
Y4855D01*
X33361D01*
X33395Y4889D01*
X30039Y12047D02*
Y12247D01*
X29939D01*
X29906Y12214D01*
Y12147D01*
X29939Y12114D01*
X30039D01*
X29973D02*
X29906Y12047D01*
X29839D02*
X29773D01*
X29806D01*
Y12247D01*
X29839Y12214D01*
X29673D02*
X29639Y12247D01*
X29573D01*
X29540Y12214D01*
Y12181D01*
X29573Y12147D01*
X29606D01*
X29573D01*
X29540Y12114D01*
Y12081D01*
X29573Y12047D01*
X29639D01*
X29673Y12081D01*
X29134Y25233D02*
X28935D01*
Y25133D01*
X28968Y25099D01*
X29035D01*
X29068Y25133D01*
Y25233D01*
Y25166D02*
X29134Y25099D01*
Y24900D02*
Y25033D01*
X29001Y24900D01*
X28968D01*
X28935Y24933D01*
Y24999D01*
X28968Y25033D01*
X29134Y24733D02*
X28935D01*
X29035Y24833D01*
Y24700D01*
X27048Y23382D02*
X26848D01*
Y23282D01*
X26881Y23249D01*
X26948D01*
X26981Y23282D01*
Y23382D01*
Y23316D02*
X27048Y23249D01*
Y23049D02*
Y23182D01*
X26915Y23049D01*
X26881D01*
X26848Y23082D01*
Y23149D01*
X26881Y23182D01*
X26848Y22849D02*
Y22982D01*
X26948D01*
X26915Y22916D01*
Y22883D01*
X26948Y22849D01*
X27015D01*
X27048Y22883D01*
Y22949D01*
X27015Y22982D01*
X29016Y21926D02*
X28816D01*
Y21826D01*
X28850Y21792D01*
X28916D01*
X28950Y21826D01*
Y21926D01*
Y21859D02*
X29016Y21792D01*
Y21592D02*
Y21726D01*
X28883Y21592D01*
X28850D01*
X28816Y21626D01*
Y21692D01*
X28850Y21726D01*
X28816Y21393D02*
X28850Y21459D01*
X28916Y21526D01*
X28983D01*
X29016Y21492D01*
Y21426D01*
X28983Y21393D01*
X28950D01*
X28916Y21426D01*
Y21526D01*
X33152Y9259D02*
Y9459D01*
X33052D01*
X33018Y9426D01*
Y9359D01*
X33052Y9326D01*
X33152D01*
X33085D02*
X33018Y9259D01*
X32852D02*
Y9459D01*
X32952Y9359D01*
X32818D01*
X32618Y9459D02*
X32685Y9426D01*
X32752Y9359D01*
Y9293D01*
X32718Y9259D01*
X32652D01*
X32618Y9293D01*
Y9326D01*
X32652Y9359D01*
X32752D01*
X24581Y6199D02*
Y6399D01*
X24481D01*
X24447Y6366D01*
Y6299D01*
X24481Y6266D01*
X24581D01*
X24514D02*
X24447Y6199D01*
X24247Y6399D02*
X24381D01*
Y6299D01*
X24314Y6332D01*
X24281D01*
X24247Y6299D01*
Y6233D01*
X24281Y6199D01*
X24347D01*
X24381Y6233D01*
X24181D02*
X24147Y6199D01*
X24081D01*
X24047Y6233D01*
Y6366D01*
X24081Y6399D01*
X24147D01*
X24181Y6366D01*
Y6332D01*
X24147Y6299D01*
X24047D01*
X26173Y23170D02*
X26139Y23204D01*
Y23270D01*
X26173Y23304D01*
X26306D01*
X26339Y23270D01*
Y23204D01*
X26306Y23170D01*
X26339Y23104D02*
Y23037D01*
Y23070D01*
X26139D01*
X26173Y23104D01*
X26339Y22804D02*
Y22937D01*
X26206Y22804D01*
X26173D01*
X26139Y22837D01*
Y22904D01*
X26173Y22937D01*
X26527Y23170D02*
X26494Y23204D01*
Y23270D01*
X26527Y23304D01*
X26660D01*
X26694Y23270D01*
Y23204D01*
X26660Y23170D01*
X26694Y23104D02*
Y23037D01*
Y23070D01*
X26494D01*
X26527Y23104D01*
X26694Y22837D02*
X26494D01*
X26594Y22937D01*
Y22804D01*
X26881Y25454D02*
X26848Y25487D01*
Y25554D01*
X26881Y25587D01*
X27015D01*
X27048Y25554D01*
Y25487D01*
X27015Y25454D01*
X27048Y25387D02*
Y25321D01*
Y25354D01*
X26848D01*
X26881Y25387D01*
X26848Y25087D02*
Y25221D01*
X26948D01*
X26915Y25154D01*
Y25121D01*
X26948Y25087D01*
X27015D01*
X27048Y25121D01*
Y25187D01*
X27015Y25221D01*
X24961Y7680D02*
Y7514D01*
X24927Y7480D01*
X24861D01*
X24827Y7514D01*
Y7680D01*
X24627D02*
X24761D01*
Y7580D01*
X24694Y7614D01*
X24661D01*
X24627Y7580D01*
Y7514D01*
X24661Y7480D01*
X24727D01*
X24761Y7514D01*
X27755Y5232D02*
X27721Y5265D01*
Y5332D01*
X27755Y5365D01*
X27888D01*
X27921Y5332D01*
Y5265D01*
X27888Y5232D01*
X27755Y5165D02*
X27721Y5132D01*
Y5065D01*
X27755Y5032D01*
X27788D01*
X27821Y5065D01*
Y5099D01*
Y5065D01*
X27855Y5032D01*
X27888D01*
X27921Y5065D01*
Y5132D01*
X27888Y5165D01*
X27755Y4965D02*
X27721Y4932D01*
Y4865D01*
X27755Y4832D01*
X27788D01*
X27821Y4865D01*
X27855Y4832D01*
X27888D01*
X27921Y4865D01*
Y4932D01*
X27888Y4965D01*
X27855D01*
X27821Y4932D01*
X27788Y4965D01*
X27755D01*
X27821Y4932D02*
Y4865D01*
X31001Y5385D02*
Y5585D01*
X30901D01*
X30868Y5552D01*
Y5485D01*
X30901Y5452D01*
X31001D01*
X30935D02*
X30868Y5385D01*
X30801D02*
X30735D01*
X30768D01*
Y5585D01*
X30801Y5552D01*
X30501Y5585D02*
X30568Y5552D01*
X30635Y5485D01*
Y5419D01*
X30601Y5385D01*
X30535D01*
X30501Y5419D01*
Y5452D01*
X30535Y5485D01*
X30635D01*
X29945Y7120D02*
Y7253D01*
X29979Y7287D01*
X30045D01*
X30079Y7253D01*
Y7120D01*
X30045Y7087D01*
X29979D01*
X30012Y7153D02*
X29945Y7087D01*
X29979D02*
X29945Y7120D01*
X29746Y7087D02*
X29879D01*
X29746Y7220D01*
Y7253D01*
X29779Y7287D01*
X29845D01*
X29879Y7253D01*
X3741Y10568D02*
X3774Y10534D01*
Y10468D01*
X3741Y10434D01*
X3608D01*
X3574Y10468D01*
Y10534D01*
X3608Y10568D01*
X3574Y10634D02*
Y10701D01*
Y10668D01*
X3774D01*
X3741Y10634D01*
X3574Y10934D02*
Y10801D01*
X3708Y10934D01*
X3741D01*
X3774Y10901D01*
Y10834D01*
X3741Y10801D01*
X3774Y11134D02*
Y11001D01*
X3674D01*
X3708Y11067D01*
Y11101D01*
X3674Y11134D01*
X3608D01*
X3574Y11101D01*
Y11034D01*
X3608Y11001D01*
X26905Y5362D02*
X26871Y5395D01*
Y5462D01*
X26905Y5495D01*
X27038D01*
X27071Y5462D01*
Y5395D01*
X27038Y5362D01*
X27071Y5195D02*
X26871D01*
X26971Y5295D01*
Y5162D01*
X26871Y4962D02*
X26905Y5029D01*
X26971Y5095D01*
X27038D01*
X27071Y5062D01*
Y4995D01*
X27038Y4962D01*
X27005D01*
X26971Y4995D01*
Y5095D01*
X28745Y5192D02*
X28711Y5225D01*
Y5292D01*
X28745Y5325D01*
X28878D01*
X28911Y5292D01*
Y5225D01*
X28878Y5192D01*
X28745Y5125D02*
X28711Y5092D01*
Y5025D01*
X28745Y4992D01*
X28778D01*
X28811Y5025D01*
Y5059D01*
Y5025D01*
X28845Y4992D01*
X28878D01*
X28911Y5025D01*
Y5092D01*
X28878Y5125D01*
X28911Y4825D02*
X28711D01*
X28811Y4925D01*
Y4792D01*
X27459Y19511D02*
Y19477D01*
X27392Y19411D01*
X27325Y19477D01*
Y19511D01*
X27392Y19411D02*
Y19311D01*
X27259D02*
X27192D01*
X27225D01*
Y19511D01*
X27259Y19477D01*
X24434Y5521D02*
X24467Y5554D01*
X24534D01*
X24567Y5521D01*
Y5488D01*
X24534Y5454D01*
X24467D01*
X24434Y5421D01*
Y5388D01*
X24467Y5354D01*
X24534D01*
X24567Y5388D01*
X24367Y5354D02*
X24300D01*
X24334D01*
Y5554D01*
X24367Y5521D01*
X29409Y16224D02*
X29276D01*
X29343D01*
Y16024D01*
X29210D02*
Y16224D01*
X29110D01*
X29076Y16190D01*
Y16124D01*
X29110Y16090D01*
X29210D01*
X28876Y16224D02*
X29010D01*
Y16124D01*
X28943Y16157D01*
X28910D01*
X28876Y16124D01*
Y16057D01*
X28910Y16024D01*
X28976D01*
X29010Y16057D01*
X28810Y16190D02*
X28776Y16224D01*
X28710D01*
X28676Y16190D01*
Y16057D01*
X28710Y16024D01*
X28776D01*
X28810Y16057D01*
Y16190D01*
X1850Y1145D02*
X1717D01*
X1784D01*
Y945D01*
X1650D02*
Y1145D01*
X1550D01*
X1517Y1111D01*
Y1045D01*
X1550Y1012D01*
X1650D01*
X1451Y945D02*
X1384D01*
X1417D01*
Y1145D01*
X1451Y1111D01*
X6457Y987D02*
X6323D01*
X6390D01*
Y787D01*
X6257D02*
Y987D01*
X6157D01*
X6123Y954D01*
Y887D01*
X6157Y854D01*
X6257D01*
X6057Y821D02*
X6023Y787D01*
X5957D01*
X5924Y821D01*
Y954D01*
X5957Y987D01*
X6023D01*
X6057Y954D01*
Y921D01*
X6023Y887D01*
X5924D01*
X7756Y948D02*
X7623D01*
X7689D01*
Y748D01*
X7556D02*
Y948D01*
X7456D01*
X7423Y915D01*
Y848D01*
X7456Y815D01*
X7556D01*
X7356Y748D02*
X7289D01*
X7323D01*
Y948D01*
X7356Y915D01*
X7189D02*
X7156Y948D01*
X7089D01*
X7056Y915D01*
Y781D01*
X7089Y748D01*
X7156D01*
X7189Y781D01*
Y915D01*
X5276Y987D02*
X5142D01*
X5209D01*
Y787D01*
X5076D02*
Y987D01*
X4976D01*
X4942Y954D01*
Y887D01*
X4976Y854D01*
X5076D01*
X4876Y954D02*
X4842Y987D01*
X4776D01*
X4742Y954D01*
Y921D01*
X4776Y887D01*
X4742Y854D01*
Y821D01*
X4776Y787D01*
X4842D01*
X4876Y821D01*
Y854D01*
X4842Y887D01*
X4876Y921D01*
Y954D01*
X4842Y887D02*
X4776D01*
X7008Y-7871D02*
X6875D01*
X6941D01*
Y-8071D01*
X6808D02*
Y-7871D01*
X6708D01*
X6675Y-7904D01*
Y-7971D01*
X6708Y-8004D01*
X6808D01*
X6475Y-8071D02*
X6608D01*
X6475Y-7938D01*
Y-7904D01*
X6508Y-7871D01*
X6575D01*
X6608Y-7904D01*
X6275Y-7871D02*
X6341Y-7904D01*
X6408Y-7971D01*
Y-8038D01*
X6375Y-8071D01*
X6308D01*
X6275Y-8038D01*
Y-8004D01*
X6308Y-7971D01*
X6408D01*
X8976Y909D02*
X8843D01*
X8910D01*
Y709D01*
X8776D02*
Y909D01*
X8676D01*
X8643Y875D01*
Y809D01*
X8676Y775D01*
X8776D01*
X8577Y909D02*
X8443D01*
Y875D01*
X8577Y742D01*
Y709D01*
X827Y5594D02*
X693D01*
X760D01*
Y5394D01*
X627D02*
Y5594D01*
X527D01*
X494Y5560D01*
Y5494D01*
X527Y5460D01*
X627D01*
X294Y5594D02*
X427D01*
Y5494D01*
X360Y5527D01*
X327D01*
X294Y5494D01*
Y5427D01*
X327Y5394D01*
X394D01*
X427Y5427D01*
X787Y6932D02*
X654D01*
X721D01*
Y6732D01*
X587D02*
Y6932D01*
X487D01*
X454Y6899D01*
Y6832D01*
X487Y6799D01*
X587D01*
X388Y6932D02*
X254D01*
Y6899D01*
X388Y6766D01*
Y6732D01*
X945Y11263D02*
X812D01*
X878D01*
Y11063D01*
X745D02*
Y11263D01*
X645D01*
X612Y11230D01*
Y11163D01*
X645Y11130D01*
X745D01*
X545Y11063D02*
X478D01*
X512D01*
Y11263D01*
X545Y11230D01*
X245Y11263D02*
X378D01*
Y11163D01*
X312Y11196D01*
X278D01*
X245Y11163D01*
Y11096D01*
X278Y11063D01*
X345D01*
X378Y11096D01*
X827Y14846D02*
X693D01*
X760D01*
Y14646D01*
X627D02*
Y14846D01*
X527D01*
X494Y14812D01*
Y14746D01*
X527Y14712D01*
X627D01*
X427Y14646D02*
X360D01*
X394D01*
Y14846D01*
X427Y14812D01*
X160Y14646D02*
Y14846D01*
X260Y14746D01*
X127D01*
X23819Y6578D02*
X23686D01*
X23752D01*
Y6378D01*
X23619D02*
Y6578D01*
X23519D01*
X23486Y6545D01*
Y6478D01*
X23519Y6445D01*
X23619D01*
X23419Y6545D02*
X23386Y6578D01*
X23319D01*
X23286Y6545D01*
Y6511D01*
X23319Y6478D01*
X23352D01*
X23319D01*
X23286Y6445D01*
Y6411D01*
X23319Y6378D01*
X23386D01*
X23419Y6411D01*
X23219Y6545D02*
X23186Y6578D01*
X23119D01*
X23086Y6545D01*
Y6411D01*
X23119Y6378D01*
X23186D01*
X23219Y6411D01*
Y6545D01*
X15315Y4570D02*
X15182D01*
X15248D01*
Y4370D01*
X15115D02*
Y4570D01*
X15015D01*
X14982Y4537D01*
Y4470D01*
X15015Y4437D01*
X15115D01*
X14782Y4370D02*
X14915D01*
X14782Y4503D01*
Y4537D01*
X14815Y4570D01*
X14882D01*
X14915Y4537D01*
X14715Y4403D02*
X14682Y4370D01*
X14615D01*
X14582Y4403D01*
Y4537D01*
X14615Y4570D01*
X14682D01*
X14715Y4537D01*
Y4503D01*
X14682Y4470D01*
X14582D01*
X10669Y4176D02*
X10536D01*
X10603D01*
Y3976D01*
X10469D02*
Y4176D01*
X10369D01*
X10336Y4143D01*
Y4076D01*
X10369Y4043D01*
X10469D01*
X10136Y3976D02*
X10269D01*
X10136Y4110D01*
Y4143D01*
X10169Y4176D01*
X10236D01*
X10269Y4143D01*
X10069D02*
X10036Y4176D01*
X9970D01*
X9936Y4143D01*
Y4110D01*
X9970Y4076D01*
X9936Y4043D01*
Y4010D01*
X9970Y3976D01*
X10036D01*
X10069Y4010D01*
Y4043D01*
X10036Y4076D01*
X10069Y4110D01*
Y4143D01*
X10036Y4076D02*
X9970D01*
X6024Y2916D02*
X5890D01*
X5957D01*
Y2717D01*
X5824D02*
Y2916D01*
X5724D01*
X5690Y2883D01*
Y2817D01*
X5724Y2783D01*
X5824D01*
X5490Y2717D02*
X5624D01*
X5490Y2850D01*
Y2883D01*
X5524Y2916D01*
X5590D01*
X5624Y2883D01*
X5424Y2916D02*
X5291D01*
Y2883D01*
X5424Y2750D01*
Y2717D01*
X1929Y3743D02*
X1796D01*
X1862D01*
Y3543D01*
X1729D02*
Y3743D01*
X1629D01*
X1596Y3710D01*
Y3643D01*
X1629Y3610D01*
X1729D01*
X1396Y3543D02*
X1529D01*
X1396Y3677D01*
Y3710D01*
X1429Y3743D01*
X1496D01*
X1529Y3710D01*
X1196Y3743D02*
X1263Y3710D01*
X1329Y3643D01*
Y3577D01*
X1296Y3543D01*
X1229D01*
X1196Y3577D01*
Y3610D01*
X1229Y3643D01*
X1329D01*
X26651Y18165D02*
X26518D01*
X26585D01*
Y17965D01*
X26451D02*
Y18165D01*
X26351D01*
X26318Y18132D01*
Y18065D01*
X26351Y18032D01*
X26451D01*
X26118Y18165D02*
X26251D01*
Y18065D01*
X26185Y18099D01*
X26151D01*
X26118Y18065D01*
Y17999D01*
X26151Y17965D01*
X26218D01*
X26251Y17999D01*
X29488Y15161D02*
X29355D01*
X29422D01*
Y14961D01*
X29288D02*
Y15161D01*
X29188D01*
X29155Y15127D01*
Y15061D01*
X29188Y15027D01*
X29288D01*
X28955Y15161D02*
X29088D01*
Y15061D01*
X29022Y15094D01*
X28988D01*
X28955Y15061D01*
Y14994D01*
X28988Y14961D01*
X29055D01*
X29088Y14994D01*
X28755Y14961D02*
X28888D01*
X28755Y15094D01*
Y15127D01*
X28788Y15161D01*
X28855D01*
X28888Y15127D01*
X29449Y15672D02*
X29316D01*
X29382D01*
Y15472D01*
X29249D02*
Y15672D01*
X29149D01*
X29116Y15639D01*
Y15572D01*
X29149Y15539D01*
X29249D01*
X28916Y15672D02*
X29049D01*
Y15572D01*
X28982Y15606D01*
X28949D01*
X28916Y15572D01*
Y15506D01*
X28949Y15472D01*
X29016D01*
X29049Y15506D01*
X28849Y15472D02*
X28782D01*
X28816D01*
Y15672D01*
X28849Y15639D01*
X24409Y21775D02*
X24276D01*
X24343D01*
Y21575D01*
X24210D02*
Y21775D01*
X24110D01*
X24076Y21741D01*
Y21675D01*
X24110Y21641D01*
X24210D01*
X23876Y21775D02*
X24010D01*
Y21675D01*
X23943Y21708D01*
X23910D01*
X23876Y21675D01*
Y21608D01*
X23910Y21575D01*
X23976D01*
X24010Y21608D01*
X23710Y21575D02*
Y21775D01*
X23810Y21675D01*
X23676D01*
X23110Y21814D02*
X22977D01*
X23044D01*
Y21614D01*
X22910D02*
Y21814D01*
X22810D01*
X22777Y21781D01*
Y21714D01*
X22810Y21681D01*
X22910D01*
X22577Y21814D02*
X22710D01*
Y21714D01*
X22644Y21747D01*
X22610D01*
X22577Y21714D01*
Y21648D01*
X22610Y21614D01*
X22677D01*
X22710Y21648D01*
X22510Y21781D02*
X22477Y21814D01*
X22410D01*
X22377Y21781D01*
Y21747D01*
X22410Y21714D01*
X22444D01*
X22410D01*
X22377Y21681D01*
Y21648D01*
X22410Y21614D01*
X22477D01*
X22510Y21648D01*
X827Y7641D02*
X693D01*
X760D01*
Y7441D01*
X627D02*
Y7641D01*
X527D01*
X494Y7608D01*
Y7541D01*
X527Y7508D01*
X627D01*
X327Y7441D02*
Y7641D01*
X427Y7541D01*
X294D01*
X787Y8665D02*
X654D01*
X721D01*
Y8465D01*
X587D02*
Y8665D01*
X487D01*
X454Y8631D01*
Y8565D01*
X487Y8531D01*
X587D01*
X254Y8665D02*
X321Y8631D01*
X388Y8565D01*
Y8498D01*
X354Y8465D01*
X288D01*
X254Y8498D01*
Y8531D01*
X288Y8565D01*
X388D01*
X945Y9413D02*
X812D01*
X878D01*
Y9213D01*
X745D02*
Y9413D01*
X645D01*
X612Y9379D01*
Y9313D01*
X645Y9279D01*
X745D01*
X545Y9213D02*
X478D01*
X512D01*
Y9413D01*
X545Y9379D01*
X378Y9413D02*
X245D01*
Y9379D01*
X378Y9246D01*
Y9213D01*
X906Y12877D02*
X772D01*
X839D01*
Y12677D01*
X706D02*
Y12877D01*
X606D01*
X572Y12844D01*
Y12777D01*
X606Y12744D01*
X706D01*
X506Y12677D02*
X439D01*
X472D01*
Y12877D01*
X506Y12844D01*
X206Y12877D02*
X272Y12844D01*
X339Y12777D01*
Y12710D01*
X306Y12677D01*
X239D01*
X206Y12710D01*
Y12744D01*
X239Y12777D01*
X339D01*
D86*
X32442Y4977D02*
X32599Y4820D01*
X32284Y4820D02*
X32599Y4820D01*
X32287Y5004D02*
X32602Y5004D01*
X32363Y4898D02*
X32520D01*
X32284Y4820D02*
X32442Y4977D01*
X33308Y3067D02*
X34016D01*
X33741Y3028D02*
X34016Y2752D01*
X33583Y3028D02*
X33741D01*
X33308Y2752D02*
X33583Y3028D01*
X33308Y2752D02*
X34016D01*
X32875Y1374D02*
Y4642D01*
Y1374D02*
X34449Y1374D01*
X34449Y1374D01*
Y1453D01*
Y4642D01*
X32875D02*
X34449D01*
X11993Y3541D02*
X12150D01*
X11993D02*
Y4565D01*
X12150D01*
X13292D02*
X13410D01*
X13489D01*
X13489Y3541D02*
X13489Y4565D01*
X13332Y3541D02*
X13489D01*
X12623D02*
X12820D01*
X12150Y4250D02*
X12190D01*
X6953Y3361D02*
X7110D01*
X6953D02*
Y4385D01*
X7110D01*
X8252D02*
X8370D01*
X8449D01*
Y3361D02*
Y4385D01*
X8292Y3361D02*
X8449D01*
X7583D02*
X7780D01*
X7110Y4070D02*
X7150D01*
X3299Y3356D02*
X3456D01*
X3299D02*
Y4380D01*
X3456D01*
X4598D02*
X4716D01*
X4795D01*
X4795Y3356D02*
X4795Y4380D01*
X4637Y3356D02*
X4795D01*
X3929D02*
X4126D01*
X3456Y4065D02*
X3496D01*
X20717Y3606D02*
X20874D01*
X20717D02*
Y4630D01*
X20874D01*
X22016D02*
X22134D01*
X22213D01*
Y3606D02*
Y4630D01*
X22056Y3606D02*
X22213Y3606D01*
X21347Y3606D02*
X21544Y3606D01*
X20874Y4315D02*
X20914D01*
X16253Y3561D02*
X16410D01*
X16253D02*
Y4585D01*
X16410D01*
X17552Y4585D02*
X17670Y4585D01*
X17749Y4585D01*
X17749Y3561D02*
X17749Y4585D01*
X17592Y3561D02*
X17749D01*
X16883D02*
X17080Y3561D01*
X16410Y4270D02*
X16450D01*
D139*
X2165Y1378D02*
G03*
X2165Y1378I-591J0D01*
G01*
X8031Y1181D02*
G03*
X8031Y1181I-591J0D01*
G01*
X6811D02*
G03*
X6811Y1181I-591J0D01*
G01*
X5630D02*
G03*
X5630Y1181I-591J0D01*
G01*
X9291Y1181D02*
G03*
X9291Y1181I-591J0D01*
G01*
X2047Y5433D02*
G03*
X2047Y5433I-591J0D01*
G01*
X1614Y6850D02*
G03*
X1614Y6850I-591J0D01*
G01*
X2047Y14331D02*
G03*
X2047Y14331I-591J0D01*
G01*
X2165Y3976D02*
G03*
X2165Y3976I-591J0D01*
G01*
X24055Y5984D02*
G03*
X24055Y5984I-591J0D01*
G01*
X15679Y4921D02*
G03*
X15679Y4921I-630J0D01*
G01*
X10906Y4449D02*
G03*
X10906Y4449I-591J0D01*
G01*
X6299Y3228D02*
G03*
X6299Y3228I-591J0D01*
G01*
X2087Y7638D02*
G03*
X2087Y7638I-591J0D01*
G01*
X2008Y8543D02*
G03*
X2008Y8543I-591J0D01*
G01*
X2008Y9449D02*
G03*
X2008Y9449I-591J0D01*
G01*
X2047Y11181D02*
G03*
X2047Y11181I-591J0D01*
G01*
X2008Y12362D02*
G03*
X2008Y12362I-591J0D01*
G01*
D140*
X25470Y4636D02*
G03*
X25470Y4636I-490J0D01*
G01*
M02*
