%FSLAX23Y23*%
%MOIN*%
G70*
G01*
G75*
G04 Layer_Physical_Order=4*
G04 Layer_Color=48896*
%ADD10C,0.031*%
%ADD11C,0.197*%
%ADD12C,0.236*%
%ADD13C,0.165*%
%ADD14C,0.157*%
%ADD15C,0.059*%
%ADD16R,0.059X0.059*%
G04:AMPARAMS|DCode=17|XSize=236mil|YSize=236mil|CornerRadius=59mil|HoleSize=0mil|Usage=FLASHONLY|Rotation=0.000|XOffset=0mil|YOffset=0mil|HoleType=Round|Shape=RoundedRectangle|*
%AMROUNDEDRECTD17*
21,1,0.236,0.118,0,0,0.0*
21,1,0.118,0.236,0,0,0.0*
1,1,0.118,0.059,-0.059*
1,1,0.118,-0.059,-0.059*
1,1,0.118,-0.059,0.059*
1,1,0.118,0.059,0.059*
%
%ADD17ROUNDEDRECTD17*%
%ADD18C,0.157*%
G04:AMPARAMS|DCode=19|XSize=236mil|YSize=236mil|CornerRadius=59mil|HoleSize=0mil|Usage=FLASHONLY|Rotation=270.000|XOffset=0mil|YOffset=0mil|HoleType=Round|Shape=RoundedRectangle|*
%AMROUNDEDRECTD19*
21,1,0.236,0.118,0,0,270.0*
21,1,0.118,0.236,0,0,270.0*
1,1,0.118,-0.059,-0.059*
1,1,0.118,-0.059,0.059*
1,1,0.118,0.059,0.059*
1,1,0.118,0.059,-0.059*
%
%ADD19ROUNDEDRECTD19*%
%ADD20C,0.079*%
%ADD21C,0.050*%
%ADD22C,0.079*%
%ADD23C,0.039*%
%ADD24C,0.071*%
%ADD25C,0.059*%
%ADD26R,0.031X0.024*%
%ADD27R,0.060X0.100*%
%ADD28R,0.100X0.060*%
%ADD29C,0.118*%
D10*
X2567Y7213D02*
X2569Y7216D01*
X2567Y7088D02*
Y7213D01*
X2467D02*
X2469Y7216D01*
X2467Y7088D02*
Y7213D01*
X2367D02*
X2369Y7216D01*
X2367Y7088D02*
Y7213D01*
X2267D02*
X2269Y7216D01*
X2267Y7088D02*
Y7213D01*
X2167D02*
X2169Y7216D01*
X2167Y7088D02*
Y7213D01*
X2067D02*
X2069Y7216D01*
X2067Y7088D02*
Y7213D01*
X1967D02*
X1969Y7216D01*
X1967Y7088D02*
Y7213D01*
X1667D02*
X1669Y7216D01*
X1667Y7088D02*
Y7213D01*
X1567D02*
X1569Y7216D01*
X1567Y7088D02*
Y7213D01*
X1467D02*
X1469Y7216D01*
X1467Y7088D02*
Y7213D01*
X1367D02*
X1369Y7216D01*
X1367Y7088D02*
Y7213D01*
X1267D02*
X1269Y7216D01*
X1267Y7088D02*
Y7213D01*
X1167D02*
X1169Y7216D01*
X1167Y7088D02*
Y7213D01*
X1067D02*
X1069Y7216D01*
X1067Y7088D02*
Y7213D01*
X967D02*
X969Y7216D01*
X967Y7088D02*
Y7213D01*
X867D02*
X869Y7216D01*
X867Y7088D02*
Y7213D01*
X767Y7205D02*
X767Y7205D01*
Y7088D02*
Y7205D01*
X2242Y861D02*
Y997D01*
Y603D02*
Y794D01*
X1697Y671D02*
Y871D01*
Y937D02*
Y1069D01*
X2229Y1984D02*
Y2217D01*
Y1815D02*
X2232Y1819D01*
Y1914D01*
X1682Y1881D02*
Y2019D01*
Y2086D02*
Y2282D01*
X2232Y3246D02*
Y3410D01*
Y3022D02*
Y3179D01*
X1697Y3336D02*
Y3476D01*
X1686Y3085D02*
Y3258D01*
X1772Y4246D02*
Y6156D01*
X1487Y3961D02*
X1772Y4246D01*
X1487Y3681D02*
Y3961D01*
X967Y6961D02*
X1772Y6156D01*
X2237Y4471D02*
X2242Y4466D01*
Y4396D02*
Y4466D01*
X1672Y4446D02*
Y4534D01*
X2242Y4239D02*
Y4329D01*
X1672Y4601D02*
Y4699D01*
X1677Y5511D02*
Y5664D01*
Y5731D02*
Y5912D01*
X2087Y5586D02*
X2217D01*
X2242Y5611D01*
Y5641D01*
Y5707D02*
Y5835D01*
X1857Y3001D02*
Y6166D01*
X1462Y2606D02*
X1857Y3001D01*
X1462Y2466D02*
Y2606D01*
X1487Y5411D02*
Y5616D01*
X1492Y5756D02*
Y5946D01*
Y6081D02*
Y6201D01*
X1802Y6426D02*
X2037Y6191D01*
X2397D01*
X2432Y5246D02*
X2447Y5261D01*
X2342Y5246D02*
X2432D01*
X2222Y4111D02*
X2332D01*
X2157Y2831D02*
X2317D01*
X2147Y2821D02*
X2157Y2831D01*
X2202Y1626D02*
X2337D01*
X1477Y1241D02*
Y1381D01*
X1517Y1421D01*
X1672D01*
X1942Y1691D01*
Y6186D01*
X1167Y6961D02*
X1942Y6186D01*
X1067Y6956D02*
X1857Y6166D01*
X1522Y4891D02*
Y5051D01*
X1602Y5131D01*
Y6231D01*
X867Y6966D02*
X1602Y6231D01*
X767Y7088D02*
X767Y7087D01*
X867Y7088D02*
X867Y7087D01*
X967Y7088D02*
X967Y7087D01*
X1067Y7088D02*
X1067Y7087D01*
X1167Y7088D02*
X1167Y7087D01*
Y6961D02*
Y7087D01*
X1067Y6956D02*
Y7087D01*
X967Y6961D02*
Y7087D01*
X867Y6966D02*
Y7087D01*
X1033Y6660D02*
X1492Y6201D01*
X767Y6927D02*
Y7087D01*
Y6927D02*
X1025Y6669D01*
D11*
X3377Y6501D02*
X3777D01*
X2837Y5289D02*
Y5551D01*
X2972Y5686D01*
X3377D01*
X2757Y5986D02*
X2857Y6086D01*
X3377D01*
X2842Y4133D02*
Y4391D01*
X2932Y4481D01*
X3377D01*
X2822Y4881D02*
X3377D01*
X2743Y3566D02*
X2753D01*
X2847Y3661D01*
X3367D01*
X2837Y2866D02*
Y3176D01*
X2922Y3261D01*
X3367D01*
X2733Y2381D02*
X2807Y2441D01*
X3347D01*
X2827Y1666D02*
Y1956D01*
X2912Y2041D01*
X3347D01*
X3352Y1231D02*
X3357Y1226D01*
X2822Y1231D02*
X3352D01*
X2742Y1151D02*
X2822Y1231D01*
X2837Y450D02*
Y695D01*
X2967Y826D01*
X3357D01*
X572Y5686D02*
X947D01*
X1079Y5817D01*
X572Y5286D02*
X1098D01*
X1173Y5361D01*
X1079Y5817D02*
Y6062D01*
X562Y4476D02*
X917D01*
X562Y4076D02*
X1083D01*
X1162Y4155D01*
X547Y3256D02*
X927D01*
X1077Y3406D01*
Y3626D01*
X547Y2856D02*
X1092D01*
X1172Y2936D01*
X547Y2051D02*
X997D01*
X1082Y2136D01*
Y2430D01*
X547Y1651D02*
X1098D01*
X1178Y1731D01*
X542Y836D02*
X992D01*
X1097Y941D01*
Y1221D01*
X542Y436D02*
X1108D01*
X1192Y520D01*
X2742Y4801D02*
X2822Y4881D01*
X917Y4476D02*
X1062Y4621D01*
Y4851D01*
D12*
X3377Y6086D02*
X3777D01*
X3377Y5686D02*
X3777D01*
X3145Y5285D02*
X3146Y5286D01*
X3377D01*
X3777D01*
X3149Y4129D02*
X3198Y4081D01*
X3377D01*
X3777D01*
X3377Y4481D02*
X3777D01*
X3377Y4881D02*
X3777D01*
X3367Y3661D02*
X3767D01*
X3367Y3261D02*
X3767D01*
X3141Y2866D02*
X3146Y2861D01*
X3367D01*
X3767D01*
X3347Y2441D02*
X3747D01*
X3347Y2041D02*
X3747D01*
X3131Y1666D02*
X3156Y1641D01*
X3347D01*
X3747D01*
X3357Y1226D02*
X3757D01*
X3357Y826D02*
X3757D01*
X3140Y450D02*
X3164Y426D01*
X3357D01*
X3757D01*
X172Y6086D02*
X572D01*
X752D01*
X172Y5686D02*
X572D01*
X172Y5286D02*
X572D01*
X162Y4476D02*
X562D01*
X162Y4076D02*
X562D01*
X162Y4876D02*
X562D01*
X731D01*
X147Y3656D02*
X547D01*
X766D01*
X785Y3636D01*
X147Y3256D02*
X547D01*
X147Y2856D02*
X547D01*
X147Y2451D02*
X547D01*
X762D01*
X781Y2432D01*
X147Y2051D02*
X547D01*
X147Y1651D02*
X547D01*
X142Y1236D02*
X542D01*
X779D01*
X794Y1221D01*
X142Y836D02*
X542D01*
X142Y436D02*
X542D01*
D13*
X2837Y5289D02*
X2842Y5285D01*
X2842Y4133D02*
X2846Y4129D01*
X1082Y2430D02*
X1084Y2432D01*
D15*
X869Y7216D02*
D03*
X969D02*
D03*
X1069D02*
D03*
X1169D02*
D03*
X1269D02*
D03*
X1369D02*
D03*
X1469D02*
D03*
X1569D02*
D03*
X1669D02*
D03*
X1769D02*
D03*
X1869D02*
D03*
X1969D02*
D03*
X2069D02*
D03*
X2169D02*
D03*
X2269D02*
D03*
X2369D02*
D03*
X2469D02*
D03*
X2569D02*
D03*
X2669D02*
D03*
X2769D02*
D03*
X2869D02*
D03*
X2969D02*
D03*
X3069D02*
D03*
X867Y7088D02*
D03*
X967D02*
D03*
X1067D02*
D03*
X1167D02*
D03*
X1267D02*
D03*
X1367D02*
D03*
X1467D02*
D03*
X1567D02*
D03*
X1667D02*
D03*
X1767D02*
D03*
X1867D02*
D03*
X1967D02*
D03*
X2067D02*
D03*
X2167D02*
D03*
X2267D02*
D03*
X2367D02*
D03*
X2467D02*
D03*
X2567D02*
D03*
X2667D02*
D03*
X2767D02*
D03*
X2867D02*
D03*
X2967D02*
D03*
X3067D02*
D03*
D16*
X767Y7216D02*
D03*
X767Y7088D02*
D03*
D17*
X3370Y6941D02*
D03*
X3770D02*
D03*
X3377Y6501D02*
D03*
X3777D02*
D03*
D18*
X1767Y2681D02*
D03*
X2202Y2676D02*
D03*
X2128Y3881D02*
D03*
X1617D02*
D03*
X1162Y4155D02*
D03*
X1067Y4856D02*
D03*
X764D02*
D03*
X1173Y5361D02*
D03*
X1079Y6062D02*
D03*
X776D02*
D03*
X2747Y5986D02*
D03*
X2842Y5285D02*
D03*
X3145D02*
D03*
X2746Y4790D02*
D03*
X2841Y4089D02*
D03*
X3144D02*
D03*
X1182Y2936D02*
D03*
X1088Y3636D02*
D03*
X785D02*
D03*
X2743Y3566D02*
D03*
X2837Y2866D02*
D03*
X3141D02*
D03*
X1178Y1731D02*
D03*
X1084Y2432D02*
D03*
X781D02*
D03*
X2733Y2366D02*
D03*
X2827Y1666D02*
D03*
X3131D02*
D03*
X1192Y520D02*
D03*
X1097Y1221D02*
D03*
X794D02*
D03*
X2742Y1151D02*
D03*
X2837Y450D02*
D03*
X3140D02*
D03*
X3052Y6316D02*
D03*
X548Y6395D02*
D03*
X1498Y338D02*
D03*
X2561D02*
D03*
D19*
X172Y6086D02*
D03*
Y5686D02*
D03*
X572Y6086D02*
D03*
Y5686D02*
D03*
Y5286D02*
D03*
X172D02*
D03*
X162Y4876D02*
D03*
Y4476D02*
D03*
X562Y4876D02*
D03*
Y4476D02*
D03*
Y4076D02*
D03*
X162D02*
D03*
X147Y3656D02*
D03*
Y3256D02*
D03*
X547Y3656D02*
D03*
Y3256D02*
D03*
Y2856D02*
D03*
X147D02*
D03*
Y2451D02*
D03*
Y2051D02*
D03*
X547Y2451D02*
D03*
Y2051D02*
D03*
Y1651D02*
D03*
X147D02*
D03*
X142Y1236D02*
D03*
Y836D02*
D03*
X542Y1236D02*
D03*
Y836D02*
D03*
Y436D02*
D03*
X142D02*
D03*
X3757Y426D02*
D03*
Y826D02*
D03*
X3357Y426D02*
D03*
Y826D02*
D03*
Y1226D02*
D03*
X3757D02*
D03*
X3747Y1641D02*
D03*
Y2041D02*
D03*
X3347Y1641D02*
D03*
Y2041D02*
D03*
Y2441D02*
D03*
X3747D02*
D03*
X3767Y2861D02*
D03*
Y3261D02*
D03*
X3367Y2861D02*
D03*
Y3261D02*
D03*
Y3661D02*
D03*
X3767D02*
D03*
X3777Y4081D02*
D03*
Y4481D02*
D03*
X3377Y4081D02*
D03*
Y4481D02*
D03*
Y4881D02*
D03*
X3777D02*
D03*
Y5286D02*
D03*
Y5686D02*
D03*
X3377Y5286D02*
D03*
Y5686D02*
D03*
Y6086D02*
D03*
X3777D02*
D03*
D20*
X1666Y4304D02*
D03*
Y4706D02*
D03*
X1677Y5511D02*
D03*
Y5912D02*
D03*
X2243Y5836D02*
D03*
Y5434D02*
D03*
X2242Y4641D02*
D03*
Y4239D02*
D03*
X1686Y3085D02*
D03*
Y3487D02*
D03*
X2239Y3417D02*
D03*
Y3015D02*
D03*
X1682Y1881D02*
D03*
Y2282D02*
D03*
X2229Y2217D02*
D03*
Y1815D02*
D03*
X1696Y669D02*
D03*
Y1071D02*
D03*
X2238Y1001D02*
D03*
Y599D02*
D03*
X1738Y299D02*
D03*
X1938D02*
D03*
X2344Y302D02*
D03*
X2144D02*
D03*
D21*
X2237Y4471D02*
D03*
X1672Y4446D02*
D03*
X1802Y6426D02*
D03*
X2102Y5246D02*
D03*
X2087Y5586D02*
D03*
X2342Y5246D02*
D03*
X2222Y4111D02*
D03*
X2147Y2821D02*
D03*
X2202Y1626D02*
D03*
D22*
X2747Y5846D02*
Y5986D01*
X2607Y1151D02*
X2742D01*
X2597Y2381D02*
X2733D01*
X1238Y1791D02*
X1327D01*
X1237Y2991D02*
X1327D01*
X1218Y5406D02*
X1337D01*
X2662Y5761D02*
X2747Y5846D01*
X2597Y3576D02*
X2734D01*
X1213Y4206D02*
X1347D01*
X1192Y520D02*
X1283Y611D01*
X1312D01*
X2692Y4801D02*
X2742D01*
X2602Y4791D02*
X2746D01*
X2746Y4790D01*
D23*
X2767Y7088D02*
Y7213D01*
X3067Y7088D02*
Y7213D01*
X2967Y7088D02*
Y7213D01*
X2867Y7088D02*
Y7213D01*
X2667Y7088D02*
Y7213D01*
X1477Y961D02*
Y1106D01*
X1487Y616D02*
Y816D01*
X2462Y1441D02*
Y1616D01*
X2457Y1156D02*
Y1301D01*
X2442Y2666D02*
Y2821D01*
X2447Y2381D02*
Y2526D01*
X1477Y1791D02*
Y1966D01*
X1178Y1731D02*
X1238Y1791D01*
X1462Y2126D02*
Y2331D01*
X1182Y2936D02*
X1237Y2991D01*
X1477D02*
Y3211D01*
X1487Y3356D02*
Y3546D01*
X1497Y4226D02*
Y4426D01*
X1512Y4576D02*
Y4746D01*
X2537Y6041D02*
Y6186D01*
X2512Y5746D02*
Y5886D01*
X2447Y4866D02*
X2522Y4941D01*
X2447Y4791D02*
Y4866D01*
X2482Y3916D02*
Y4086D01*
X2452Y3576D02*
Y3761D01*
X2522Y5116D02*
Y5146D01*
X2577Y5201D01*
Y5256D01*
X1162Y4155D02*
X1213Y4206D01*
D24*
X2767Y7213D02*
X2769Y7216D01*
D25*
X3067Y7213D02*
X3069Y7216D01*
X2967Y7213D02*
X2969Y7216D01*
X2867Y7213D02*
X2869Y7216D01*
X2667Y7213D02*
X2669Y7216D01*
D26*
X2242Y794D02*
D03*
Y861D02*
D03*
X1697Y937D02*
D03*
Y871D02*
D03*
X2232Y1914D02*
D03*
Y1981D02*
D03*
X1682Y2086D02*
D03*
Y2019D02*
D03*
X2232Y3179D02*
D03*
Y3246D02*
D03*
X1697Y3336D02*
D03*
Y3269D02*
D03*
X2242Y4329D02*
D03*
Y4396D02*
D03*
X1672Y4601D02*
D03*
Y4534D02*
D03*
X2242Y5641D02*
D03*
Y5707D02*
D03*
X1677Y5731D02*
D03*
Y5664D02*
D03*
D27*
X2582Y5261D02*
D03*
X2447D02*
D03*
X2537Y6191D02*
D03*
X2402D02*
D03*
X2472Y1626D02*
D03*
X2337D02*
D03*
X2452Y2831D02*
D03*
X2317D02*
D03*
X2482Y4096D02*
D03*
X2347D02*
D03*
X1347Y5406D02*
D03*
X1482D02*
D03*
X1362Y4206D02*
D03*
X1497D02*
D03*
X1342Y2991D02*
D03*
X1477D02*
D03*
X1342Y1791D02*
D03*
X1477D02*
D03*
X1352Y616D02*
D03*
X1487D02*
D03*
X2592Y1156D02*
D03*
X2457D02*
D03*
X2582Y2381D02*
D03*
X2447D02*
D03*
X2587Y3576D02*
D03*
X2452D02*
D03*
X2582Y4791D02*
D03*
X2447D02*
D03*
X2647Y5746D02*
D03*
X2512D02*
D03*
D28*
X1492Y5946D02*
D03*
Y6081D02*
D03*
X1487Y5616D02*
D03*
Y5751D02*
D03*
X1512Y4746D02*
D03*
Y4881D02*
D03*
X1497Y4426D02*
D03*
Y4561D02*
D03*
X1487Y3546D02*
D03*
Y3681D02*
D03*
X1477Y3211D02*
D03*
Y3346D02*
D03*
X1462Y2331D02*
D03*
Y2466D02*
D03*
X1457Y1986D02*
D03*
Y2121D02*
D03*
X1477Y1106D02*
D03*
Y1241D02*
D03*
Y826D02*
D03*
Y961D02*
D03*
X2462Y1306D02*
D03*
Y1441D02*
D03*
X2442Y2531D02*
D03*
Y2666D02*
D03*
X2472Y3781D02*
D03*
Y3916D02*
D03*
X2522Y4981D02*
D03*
Y5116D02*
D03*
X2532Y5906D02*
D03*
Y6041D02*
D03*
D29*
X1815Y7066D02*
Y7194D01*
X1811Y7198D02*
X1815Y7194D01*
X1822Y6636D02*
X1957Y6501D01*
X3377D01*
X1822Y6636D02*
Y7059D01*
X1815Y7066D02*
X1822Y7059D01*
M02*
