%FSLAX23Y23*%
%MOIN*%
G70*
G01*
G75*
%ADD10C,0.031*%
%ADD11C,0.197*%
%ADD12C,0.236*%
%ADD13C,0.165*%
%ADD14C,0.157*%
%ADD15C,0.059*%
%ADD16R,0.059X0.059*%
G04:AMPARAMS|DCode=17|XSize=236mil|YSize=236mil|CornerRadius=59mil|HoleSize=0mil|Usage=FLASHONLY|Rotation=0.000|XOffset=0mil|YOffset=0mil|HoleType=Round|Shape=RoundedRectangle|*
%AMROUNDEDRECTD17*
21,1,0.236,0.118,0,0,0.0*
21,1,0.118,0.236,0,0,0.0*
1,1,0.118,0.059,-0.059*
1,1,0.118,-0.059,-0.059*
1,1,0.118,-0.059,0.059*
1,1,0.118,0.059,0.059*
%
%ADD17ROUNDEDRECTD17*%
%ADD18C,0.157*%
G04:AMPARAMS|DCode=19|XSize=236mil|YSize=236mil|CornerRadius=59mil|HoleSize=0mil|Usage=FLASHONLY|Rotation=270.000|XOffset=0mil|YOffset=0mil|HoleType=Round|Shape=RoundedRectangle|*
%AMROUNDEDRECTD19*
21,1,0.236,0.118,0,0,270.0*
21,1,0.118,0.236,0,0,270.0*
1,1,0.118,-0.059,-0.059*
1,1,0.118,-0.059,0.059*
1,1,0.118,0.059,0.059*
1,1,0.118,0.059,-0.059*
%
%ADD19ROUNDEDRECTD19*%
%ADD20C,0.079*%
%ADD21C,0.050*%
%ADD22C,0.079*%
%ADD23C,0.039*%
%ADD24C,0.071*%
%ADD25C,0.059*%
%ADD26R,0.031X0.024*%
%ADD27R,0.060X0.100*%
%ADD28R,0.100X0.060*%
%ADD29C,0.118*%
%ADD30C,0.008*%
%ADD31C,0.010*%
%ADD32C,0.006*%
%ADD33C,0.067*%
%ADD34R,0.067X0.067*%
G04:AMPARAMS|DCode=35|XSize=244mil|YSize=244mil|CornerRadius=63mil|HoleSize=0mil|Usage=FLASHONLY|Rotation=0.000|XOffset=0mil|YOffset=0mil|HoleType=Round|Shape=RoundedRectangle|*
%AMROUNDEDRECTD35*
21,1,0.244,0.118,0,0,0.0*
21,1,0.118,0.244,0,0,0.0*
1,1,0.126,0.059,-0.059*
1,1,0.126,-0.059,-0.059*
1,1,0.126,-0.059,0.059*
1,1,0.126,0.059,0.059*
%
%ADD35ROUNDEDRECTD35*%
%ADD36C,0.165*%
G04:AMPARAMS|DCode=37|XSize=244mil|YSize=244mil|CornerRadius=63mil|HoleSize=0mil|Usage=FLASHONLY|Rotation=270.000|XOffset=0mil|YOffset=0mil|HoleType=Round|Shape=RoundedRectangle|*
%AMROUNDEDRECTD37*
21,1,0.244,0.118,0,0,270.0*
21,1,0.118,0.244,0,0,270.0*
1,1,0.126,-0.059,-0.059*
1,1,0.126,-0.059,0.059*
1,1,0.126,0.059,0.059*
1,1,0.126,0.059,-0.059*
%
%ADD37ROUNDEDRECTD37*%
%ADD38C,0.087*%
%ADD39C,0.008*%
%ADD40C,0.058*%
%ADD41R,0.039X0.032*%
%ADD42R,0.068X0.108*%
%ADD43R,0.108X0.068*%
%ADD44C,0.005*%
%ADD45C,0.007*%
D44*
X852Y7216D02*
X887D01*
X869Y7198D02*
Y7234D01*
X952Y7216D02*
X987D01*
X969Y7198D02*
Y7234D01*
X1052Y7216D02*
X1087D01*
X1069Y7198D02*
Y7234D01*
X1152Y7216D02*
X1187D01*
X1169Y7198D02*
Y7234D01*
X1252Y7216D02*
X1287D01*
X1269Y7198D02*
Y7234D01*
X1352Y7216D02*
X1387D01*
X1369Y7198D02*
Y7234D01*
X1452Y7216D02*
X1487D01*
X1469Y7198D02*
Y7234D01*
X1552Y7216D02*
X1587D01*
X1569Y7198D02*
Y7234D01*
X1652Y7216D02*
X1687D01*
X1669Y7198D02*
Y7234D01*
X1752Y7216D02*
X1787D01*
X1769Y7198D02*
Y7234D01*
X1852Y7216D02*
X1887D01*
X1869Y7198D02*
Y7234D01*
X1952Y7216D02*
X1987D01*
X1969Y7198D02*
Y7234D01*
X2052Y7216D02*
X2087D01*
X2069Y7198D02*
Y7234D01*
X2152Y7216D02*
X2187D01*
X2169Y7198D02*
Y7234D01*
X2252Y7216D02*
X2287D01*
X2269Y7198D02*
Y7234D01*
X2352Y7216D02*
X2387D01*
X2369Y7198D02*
Y7234D01*
X2452Y7216D02*
X2487D01*
X2469Y7198D02*
Y7234D01*
X2552Y7216D02*
X2587D01*
X2569Y7198D02*
Y7234D01*
X2652Y7216D02*
X2687D01*
X2669Y7198D02*
Y7234D01*
X2752Y7216D02*
X2787D01*
X2769Y7198D02*
Y7234D01*
X2852Y7216D02*
X2887D01*
X2869Y7198D02*
Y7234D01*
X2952Y7216D02*
X2987D01*
X2969Y7198D02*
Y7234D01*
X3052Y7216D02*
X3087D01*
X3069Y7198D02*
Y7234D01*
X749Y7216D02*
X784D01*
X767Y7198D02*
Y7234D01*
X3327Y6941D02*
X3414D01*
X3370Y6897D02*
Y6984D01*
X3727Y6941D02*
X3814D01*
X3770Y6897D02*
Y6984D01*
X1689Y2681D02*
X1846D01*
X1767Y2602D02*
Y2759D01*
X2124Y2676D02*
X2281D01*
X2202Y2597D02*
Y2754D01*
X2050Y3881D02*
X2207D01*
X2128Y3803D02*
Y3960D01*
X1538Y3881D02*
X1695D01*
X1617Y3803D02*
Y3960D01*
X849Y7088D02*
X884D01*
X867Y7070D02*
Y7106D01*
X949Y7088D02*
X984D01*
X967Y7070D02*
Y7106D01*
X1049Y7088D02*
X1084D01*
X1067Y7070D02*
Y7106D01*
X1149Y7088D02*
X1184D01*
X1167Y7070D02*
Y7106D01*
X1249Y7088D02*
X1284D01*
X1267Y7070D02*
Y7106D01*
X1349Y7088D02*
X1384D01*
X1367Y7070D02*
Y7106D01*
X1449Y7088D02*
X1484D01*
X1467Y7070D02*
Y7106D01*
X1549Y7088D02*
X1584D01*
X1567Y7070D02*
Y7106D01*
X1649Y7088D02*
X1684D01*
X1667Y7070D02*
Y7106D01*
X1749Y7088D02*
X1784D01*
X1767Y7070D02*
Y7106D01*
X1849Y7088D02*
X1884D01*
X1867Y7070D02*
Y7106D01*
X1949Y7088D02*
X1984D01*
X1967Y7070D02*
Y7106D01*
X2049Y7088D02*
X2084D01*
X2067Y7070D02*
Y7106D01*
X2149Y7088D02*
X2184D01*
X2167Y7070D02*
Y7106D01*
X2249Y7088D02*
X2284D01*
X2267Y7070D02*
Y7106D01*
X2349Y7088D02*
X2384D01*
X2367Y7070D02*
Y7106D01*
X2449Y7088D02*
X2484D01*
X2467Y7070D02*
Y7106D01*
X2549Y7088D02*
X2584D01*
X2567Y7070D02*
Y7106D01*
X2649Y7088D02*
X2684D01*
X2667Y7070D02*
Y7106D01*
X2749Y7088D02*
X2784D01*
X2767Y7070D02*
Y7106D01*
X2849Y7088D02*
X2884D01*
X2867Y7070D02*
Y7106D01*
X2949Y7088D02*
X2984D01*
X2967Y7070D02*
Y7106D01*
X3049Y7088D02*
X3084D01*
X3067Y7070D02*
Y7106D01*
X749Y7088D02*
X784D01*
X767Y7070D02*
Y7106D01*
X129Y6086D02*
X216D01*
X172Y6042D02*
Y6129D01*
X129Y5686D02*
X216D01*
X172Y5642D02*
Y5729D01*
X529Y6086D02*
X616D01*
X572Y6042D02*
Y6129D01*
X529Y5686D02*
X616D01*
X572Y5642D02*
Y5729D01*
X529Y5286D02*
X616D01*
X572Y5242D02*
Y5329D01*
X129Y5286D02*
X216D01*
X172Y5242D02*
Y5329D01*
X119Y4876D02*
X206D01*
X162Y4832D02*
Y4919D01*
X119Y4476D02*
X206D01*
X162Y4432D02*
Y4519D01*
X519Y4876D02*
X606D01*
X562Y4832D02*
Y4919D01*
X519Y4476D02*
X606D01*
X562Y4432D02*
Y4519D01*
X519Y4076D02*
X606D01*
X562Y4032D02*
Y4119D01*
X119Y4076D02*
X206D01*
X162Y4032D02*
Y4119D01*
X1122Y4155D02*
X1201D01*
X1162Y4115D02*
Y4194D01*
X1028Y4856D02*
X1107D01*
X1067Y4816D02*
Y4895D01*
X725Y4856D02*
X804D01*
X764Y4816D02*
Y4895D01*
X1646Y4304D02*
X1685D01*
X1666Y4285D02*
Y4324D01*
X1646Y4706D02*
X1685D01*
X1666Y4686D02*
Y4726D01*
X1134Y5361D02*
X1213D01*
X1173Y5322D02*
Y5400D01*
X1040Y6062D02*
X1118D01*
X1079Y6022D02*
Y6101D01*
X736Y6062D02*
X815D01*
X776Y6022D02*
Y6101D01*
X1658Y5511D02*
X1697D01*
X1677Y5491D02*
Y5530D01*
X1658Y5912D02*
X1697D01*
X1677Y5892D02*
Y5932D01*
X2708Y5986D02*
X2787D01*
X2747Y5946D02*
Y6025D01*
X2802Y5285D02*
X2881D01*
X2842Y5245D02*
Y5324D01*
X3106Y5285D02*
X3184D01*
X3145Y5245D02*
Y5324D01*
X2224Y5836D02*
X2263D01*
X2243Y5816D02*
Y5856D01*
X2224Y5434D02*
X2263D01*
X2243Y5415D02*
Y5454D01*
X2707Y4790D02*
X2786D01*
X2746Y4751D02*
Y4830D01*
X2801Y4089D02*
X2880D01*
X2841Y4050D02*
Y4129D01*
X3105Y4089D02*
X3183D01*
X3144Y4050D02*
Y4129D01*
X2223Y4641D02*
X2262D01*
X2242Y4621D02*
Y4660D01*
X2223Y4239D02*
X2262D01*
X2242Y4219D02*
Y4259D01*
X1143Y2936D02*
X1222D01*
X1182Y2896D02*
Y2975D01*
X1049Y3636D02*
X1127D01*
X1088Y3597D02*
Y3676D01*
X745Y3636D02*
X824D01*
X785Y3597D02*
Y3676D01*
X1667Y3085D02*
X1706D01*
X1686Y3065D02*
Y3105D01*
X1667Y3487D02*
X1706D01*
X1686Y3467D02*
Y3506D01*
X2704Y3566D02*
X2782D01*
X2743Y3527D02*
Y3606D01*
X2798Y2866D02*
X2877D01*
X2837Y2826D02*
Y2905D01*
X3101Y2866D02*
X3180D01*
X3141Y2826D02*
Y2905D01*
X2219Y3417D02*
X2259D01*
X2239Y3397D02*
Y3436D01*
X2219Y3015D02*
X2259D01*
X2239Y2995D02*
Y3035D01*
X104Y3656D02*
X191D01*
X147Y3612D02*
Y3699D01*
X104Y3256D02*
X191D01*
X147Y3212D02*
Y3299D01*
X504Y3656D02*
X591D01*
X547Y3612D02*
Y3699D01*
X504Y3256D02*
X591D01*
X547Y3212D02*
Y3299D01*
X504Y2856D02*
X591D01*
X547Y2812D02*
Y2899D01*
X104Y2856D02*
X191D01*
X147Y2812D02*
Y2899D01*
X1139Y1731D02*
X1218D01*
X1178Y1692D02*
Y1770D01*
X1045Y2432D02*
X1123D01*
X1084Y2392D02*
Y2471D01*
X741Y2432D02*
X820D01*
X781Y2392D02*
Y2471D01*
X1663Y1881D02*
X1702D01*
X1682Y1861D02*
Y1900D01*
X1663Y2282D02*
X1702D01*
X1682Y2262D02*
Y2302D01*
X2694Y2366D02*
X2772D01*
X2733Y2327D02*
Y2406D01*
X2788Y1666D02*
X2867D01*
X2827Y1626D02*
Y1705D01*
X3091Y1666D02*
X3170D01*
X3131Y1626D02*
Y1705D01*
X2209Y2217D02*
X2249D01*
X2229Y2197D02*
Y2236D01*
X2209Y1815D02*
X2249D01*
X2229Y1795D02*
Y1835D01*
X104Y2451D02*
X191D01*
X147Y2407D02*
Y2494D01*
X104Y2051D02*
X191D01*
X147Y2007D02*
Y2094D01*
X504Y2451D02*
X591D01*
X547Y2407D02*
Y2494D01*
X504Y2051D02*
X591D01*
X547Y2007D02*
Y2094D01*
X504Y1651D02*
X591D01*
X547Y1607D02*
Y1694D01*
X104Y1651D02*
X191D01*
X147Y1607D02*
Y1694D01*
X1152Y520D02*
X1231D01*
X1192Y480D02*
Y559D01*
X1058Y1221D02*
X1137D01*
X1097Y1181D02*
Y1260D01*
X755Y1221D02*
X834D01*
X794Y1181D02*
Y1260D01*
X1676Y669D02*
X1715D01*
X1696Y650D02*
Y689D01*
X1676Y1071D02*
X1715D01*
X1696Y1051D02*
Y1091D01*
X2703Y1151D02*
X2782D01*
X2742Y1111D02*
Y1190D01*
X2797Y450D02*
X2876D01*
X2837Y410D02*
Y489D01*
X3101Y450D02*
X3179D01*
X3140Y410D02*
Y489D01*
X2219Y1001D02*
X2258D01*
X2238Y981D02*
Y1021D01*
X2219Y599D02*
X2258D01*
X2238Y580D02*
Y619D01*
X99Y1236D02*
X186D01*
X142Y1192D02*
Y1279D01*
X99Y836D02*
X186D01*
X142Y792D02*
Y879D01*
X499Y1236D02*
X586D01*
X542Y1192D02*
Y1279D01*
X499Y836D02*
X586D01*
X542Y792D02*
Y879D01*
X499Y436D02*
X586D01*
X542Y392D02*
Y479D01*
X99Y436D02*
X186D01*
X142Y392D02*
Y479D01*
X3714Y426D02*
X3801D01*
X3757Y382D02*
Y469D01*
X3714Y826D02*
X3801D01*
X3757Y782D02*
Y869D01*
X3314Y426D02*
X3401D01*
X3357Y382D02*
Y469D01*
X3314Y826D02*
X3401D01*
X3357Y782D02*
Y869D01*
X3314Y1226D02*
X3401D01*
X3357Y1182D02*
Y1269D01*
X3714Y1226D02*
X3801D01*
X3757Y1182D02*
Y1269D01*
X3704Y1641D02*
X3791D01*
X3747Y1597D02*
Y1684D01*
X3704Y2041D02*
X3791D01*
X3747Y1997D02*
Y2084D01*
X3304Y1641D02*
X3391D01*
X3347Y1597D02*
Y1684D01*
X3304Y2041D02*
X3391D01*
X3347Y1997D02*
Y2084D01*
X3304Y2441D02*
X3391D01*
X3347Y2397D02*
Y2484D01*
X3704Y2441D02*
X3791D01*
X3747Y2397D02*
Y2484D01*
X3724Y2861D02*
X3811D01*
X3767Y2817D02*
Y2904D01*
X3724Y3261D02*
X3811D01*
X3767Y3217D02*
Y3304D01*
X3324Y2861D02*
X3411D01*
X3367Y2817D02*
Y2904D01*
X3324Y3261D02*
X3411D01*
X3367Y3217D02*
Y3304D01*
X3324Y3661D02*
X3411D01*
X3367Y3617D02*
Y3704D01*
X3724Y3661D02*
X3811D01*
X3767Y3617D02*
Y3704D01*
X3734Y4081D02*
X3821D01*
X3777Y4037D02*
Y4124D01*
X3734Y4481D02*
X3821D01*
X3777Y4437D02*
Y4524D01*
X3334Y4081D02*
X3421D01*
X3377Y4037D02*
Y4124D01*
X3334Y4481D02*
X3421D01*
X3377Y4437D02*
Y4524D01*
X3334Y4881D02*
X3421D01*
X3377Y4837D02*
Y4924D01*
X3734Y4881D02*
X3821D01*
X3777Y4837D02*
Y4924D01*
X3734Y5286D02*
X3821D01*
X3777Y5242D02*
Y5329D01*
X3734Y5686D02*
X3821D01*
X3777Y5642D02*
Y5729D01*
X3334Y5286D02*
X3421D01*
X3377Y5242D02*
Y5329D01*
X3334Y5686D02*
X3421D01*
X3377Y5642D02*
Y5729D01*
X3334Y6086D02*
X3421D01*
X3377Y6042D02*
Y6129D01*
X3734Y6086D02*
X3821D01*
X3777Y6042D02*
Y6129D01*
X3334Y6501D02*
X3421D01*
X3377Y6457D02*
Y6544D01*
X3734Y6501D02*
X3821D01*
X3777Y6457D02*
Y6544D01*
X2974Y6316D02*
X3131D01*
X3052Y6237D02*
Y6394D01*
X469Y6395D02*
X627D01*
X548Y6316D02*
Y6473D01*
X1420Y338D02*
X1577D01*
X1498Y259D02*
Y417D01*
X2483Y338D02*
X2640D01*
X2561Y259D02*
Y417D01*
X1713Y299D02*
X1764D01*
X1738Y274D02*
Y325D01*
X1913Y299D02*
X1964D01*
X1938Y274D02*
Y325D01*
X2319Y302D02*
X2370D01*
X2344Y277D02*
Y328D01*
X2119Y302D02*
X2170D01*
X2144Y277D02*
Y328D01*
X2223Y4471D02*
X2251D01*
X2237Y4457D02*
Y4485D01*
X1658Y4446D02*
X1686D01*
X1672Y4432D02*
Y4460D01*
X1788Y6426D02*
X1816D01*
X1802Y6412D02*
Y6440D01*
X2088Y5246D02*
X2116D01*
X2102Y5232D02*
Y5260D01*
X2073Y5586D02*
X2101D01*
X2087Y5572D02*
Y5600D01*
X2328Y5246D02*
X2356D01*
X2342Y5232D02*
Y5260D01*
X2208Y4111D02*
X2236D01*
X2222Y4097D02*
Y4125D01*
X2133Y2821D02*
X2161D01*
X2147Y2807D02*
Y2835D01*
X2188Y1626D02*
X2216D01*
X2202Y1612D02*
Y1640D01*
M02*
