M48
;Layer_Color=9474304
;FILE_FORMAT=2:3
INCH,LZ
;TYPE=PLATED
T1F00S00C0.028
T2F00S00C0.035
T3F00S00C0.039
T4F00S00C0.051
T5F00S00C0.079
T6F00S00C0.087
T7F00S00C0.157
%
T01
X02202Y01626
X02147Y02821
X02222Y04111
X02237Y04471
X01672Y04446
X01802Y06426
X02087Y05586
X02102Y05246
X02342
T02
X01867Y07088
X01967
X02067
X02167
X02267
X02367
X02467
X02567
X02667
X02767
X02867
X02967
X03067
X03069Y07216
X02969
X02869
X02769
X02669
X02569
X02469
X02369
X02269
X02169
X02069
X01969
X01869
X01769
X01669
X01569
X01469
X01369
X01269
X01169
X01069
X00969
X00869
X00767Y07216
X00767Y07088
X00867
X00967
X01067
X01167
X01267
X01367
X01467
X01567
X01667
X01767
T03
X02238Y00599
Y01001
X02229Y01815
X01682Y01881
X01696Y01071
Y00669
X01682Y02282
X01686Y03085
Y03487
X02239Y03417
Y03015
X02229Y02217
X02242Y04239
Y04641
X01666Y04706
Y04304
X01677Y05511
Y05912
X02243Y05836
Y05434
T04
X01738Y00299
X01938
X02144Y00302
X02344
T05
X02837Y0045
X0314
X02742Y01151
X02827Y01666
X03131
X01178Y01731
X01097Y01221
X00794
X01192Y0052
X01084Y02432
X00781
X01182Y02936
X02837Y02866
X03141
X02733Y02366
X02743Y03566
X02841Y04089
X03144
X02746Y0479
X01067Y04856
X00764
X01162Y04155
X01088Y03636
X00785
X01173Y05361
X01079Y06062
X00776
X02747Y05986
X02842Y05285
X03145
T06
X03757Y00426
Y00826
Y01226
X03747Y01641
X03347
X03357Y01226
Y00826
Y00426
X00542Y00436
Y00836
Y01236
X00547Y01651
X00147
X00142Y01236
Y00836
Y00436
X00147Y02051
Y02451
Y02856
Y03256
X00547
Y02856
Y02451
Y02051
X03347Y02041
Y02441
X03367Y02861
Y03261
X03767
Y02861
X03747Y02441
Y02041
X03767Y03661
X03777Y04081
Y04481
Y04881
X03377
Y04481
Y04081
X03367Y03661
X00547Y03656
X00562Y04076
Y04476
Y04876
X00162
Y04476
Y04076
X00147Y03656
X00172Y05286
Y05686
Y06086
X00572
Y05686
Y05286
X03377
Y05686
Y06086
Y06501
X03777
Y06086
Y05686
Y05286
X0377Y06941
X0337
T07
X01498Y00338
X02561
X01767Y02681
X02202Y02676
X02128Y03881
X01617
X00548Y06395
X03052Y06316
M30
