%FSLAX23Y23*%
%MOIN*%
G70*
G01*
G75*
G04 Layer_Color=16711935*
%ADD10C,0.031*%
%ADD11C,0.197*%
%ADD12C,0.236*%
%ADD13C,0.165*%
%ADD14C,0.157*%
%ADD15C,0.059*%
%ADD16R,0.059X0.059*%
G04:AMPARAMS|DCode=17|XSize=236mil|YSize=236mil|CornerRadius=59mil|HoleSize=0mil|Usage=FLASHONLY|Rotation=0.000|XOffset=0mil|YOffset=0mil|HoleType=Round|Shape=RoundedRectangle|*
%AMROUNDEDRECTD17*
21,1,0.236,0.118,0,0,0.0*
21,1,0.118,0.236,0,0,0.0*
1,1,0.118,0.059,-0.059*
1,1,0.118,-0.059,-0.059*
1,1,0.118,-0.059,0.059*
1,1,0.118,0.059,0.059*
%
%ADD17ROUNDEDRECTD17*%
%ADD18C,0.157*%
G04:AMPARAMS|DCode=19|XSize=236mil|YSize=236mil|CornerRadius=59mil|HoleSize=0mil|Usage=FLASHONLY|Rotation=270.000|XOffset=0mil|YOffset=0mil|HoleType=Round|Shape=RoundedRectangle|*
%AMROUNDEDRECTD19*
21,1,0.236,0.118,0,0,270.0*
21,1,0.118,0.236,0,0,270.0*
1,1,0.118,-0.059,-0.059*
1,1,0.118,-0.059,0.059*
1,1,0.118,0.059,0.059*
1,1,0.118,0.059,-0.059*
%
%ADD19ROUNDEDRECTD19*%
%ADD20C,0.079*%
%ADD21C,0.050*%
%ADD22C,0.079*%
%ADD23C,0.039*%
%ADD24C,0.071*%
%ADD25C,0.059*%
%ADD26R,0.031X0.024*%
%ADD27R,0.060X0.100*%
%ADD28R,0.100X0.060*%
%ADD29C,0.118*%
%ADD30C,0.008*%
%ADD31C,0.010*%
%ADD32C,0.006*%
%ADD33C,0.067*%
%ADD34R,0.067X0.067*%
G04:AMPARAMS|DCode=35|XSize=244mil|YSize=244mil|CornerRadius=63mil|HoleSize=0mil|Usage=FLASHONLY|Rotation=0.000|XOffset=0mil|YOffset=0mil|HoleType=Round|Shape=RoundedRectangle|*
%AMROUNDEDRECTD35*
21,1,0.244,0.118,0,0,0.0*
21,1,0.118,0.244,0,0,0.0*
1,1,0.126,0.059,-0.059*
1,1,0.126,-0.059,-0.059*
1,1,0.126,-0.059,0.059*
1,1,0.126,0.059,0.059*
%
%ADD35ROUNDEDRECTD35*%
%ADD36C,0.165*%
G04:AMPARAMS|DCode=37|XSize=244mil|YSize=244mil|CornerRadius=63mil|HoleSize=0mil|Usage=FLASHONLY|Rotation=270.000|XOffset=0mil|YOffset=0mil|HoleType=Round|Shape=RoundedRectangle|*
%AMROUNDEDRECTD37*
21,1,0.244,0.118,0,0,270.0*
21,1,0.118,0.244,0,0,270.0*
1,1,0.126,-0.059,-0.059*
1,1,0.126,-0.059,0.059*
1,1,0.126,0.059,0.059*
1,1,0.126,0.059,-0.059*
%
%ADD37ROUNDEDRECTD37*%
%ADD38C,0.087*%
%ADD39C,0.008*%
%ADD40C,0.058*%
%ADD41R,0.039X0.032*%
%ADD42R,0.068X0.108*%
%ADD43R,0.108X0.068*%
D33*
X869Y7216D02*
D03*
X969D02*
D03*
X1069D02*
D03*
X1169D02*
D03*
X1269D02*
D03*
X1369D02*
D03*
X1469D02*
D03*
X1569D02*
D03*
X1669D02*
D03*
X1769D02*
D03*
X1869D02*
D03*
X1969D02*
D03*
X2069D02*
D03*
X2169D02*
D03*
X2269D02*
D03*
X2369D02*
D03*
X2469D02*
D03*
X2569D02*
D03*
X2669D02*
D03*
X2769D02*
D03*
X2869D02*
D03*
X2969D02*
D03*
X3069D02*
D03*
X867Y7088D02*
D03*
X967D02*
D03*
X1067D02*
D03*
X1167D02*
D03*
X1267D02*
D03*
X1367D02*
D03*
X1467D02*
D03*
X1567D02*
D03*
X1667D02*
D03*
X1767D02*
D03*
X1867D02*
D03*
X1967D02*
D03*
X2067D02*
D03*
X2167D02*
D03*
X2267D02*
D03*
X2367D02*
D03*
X2467D02*
D03*
X2567D02*
D03*
X2667D02*
D03*
X2767D02*
D03*
X2867D02*
D03*
X2967D02*
D03*
X3067D02*
D03*
D34*
X767Y7216D02*
D03*
X767Y7088D02*
D03*
D35*
X3370Y6941D02*
D03*
X3770D02*
D03*
X3377Y6501D02*
D03*
X3777D02*
D03*
D36*
X1767Y2681D02*
D03*
X2202Y2676D02*
D03*
X2128Y3881D02*
D03*
X1617D02*
D03*
X1162Y4155D02*
D03*
X1067Y4856D02*
D03*
X764D02*
D03*
X1173Y5361D02*
D03*
X1079Y6062D02*
D03*
X776D02*
D03*
X2747Y5986D02*
D03*
X2842Y5285D02*
D03*
X3145D02*
D03*
X2746Y4790D02*
D03*
X2841Y4089D02*
D03*
X3144D02*
D03*
X1182Y2936D02*
D03*
X1088Y3636D02*
D03*
X785D02*
D03*
X2743Y3566D02*
D03*
X2837Y2866D02*
D03*
X3141D02*
D03*
X1178Y1731D02*
D03*
X1084Y2432D02*
D03*
X781D02*
D03*
X2733Y2366D02*
D03*
X2827Y1666D02*
D03*
X3131D02*
D03*
X1192Y520D02*
D03*
X1097Y1221D02*
D03*
X794D02*
D03*
X2742Y1151D02*
D03*
X2837Y450D02*
D03*
X3140D02*
D03*
X3052Y6316D02*
D03*
X548Y6395D02*
D03*
X1498Y338D02*
D03*
X2561D02*
D03*
D37*
X172Y6086D02*
D03*
Y5686D02*
D03*
X572Y6086D02*
D03*
Y5686D02*
D03*
Y5286D02*
D03*
X172D02*
D03*
X162Y4876D02*
D03*
Y4476D02*
D03*
X562Y4876D02*
D03*
Y4476D02*
D03*
Y4076D02*
D03*
X162D02*
D03*
X147Y3656D02*
D03*
Y3256D02*
D03*
X547Y3656D02*
D03*
Y3256D02*
D03*
Y2856D02*
D03*
X147D02*
D03*
Y2451D02*
D03*
Y2051D02*
D03*
X547Y2451D02*
D03*
Y2051D02*
D03*
Y1651D02*
D03*
X147D02*
D03*
X142Y1236D02*
D03*
Y836D02*
D03*
X542Y1236D02*
D03*
Y836D02*
D03*
Y436D02*
D03*
X142D02*
D03*
X3757Y426D02*
D03*
Y826D02*
D03*
X3357Y426D02*
D03*
Y826D02*
D03*
Y1226D02*
D03*
X3757D02*
D03*
X3747Y1641D02*
D03*
Y2041D02*
D03*
X3347Y1641D02*
D03*
Y2041D02*
D03*
Y2441D02*
D03*
X3747D02*
D03*
X3767Y2861D02*
D03*
Y3261D02*
D03*
X3367Y2861D02*
D03*
Y3261D02*
D03*
Y3661D02*
D03*
X3767D02*
D03*
X3777Y4081D02*
D03*
Y4481D02*
D03*
X3377Y4081D02*
D03*
Y4481D02*
D03*
Y4881D02*
D03*
X3777D02*
D03*
Y5286D02*
D03*
Y5686D02*
D03*
X3377Y5286D02*
D03*
Y5686D02*
D03*
Y6086D02*
D03*
X3777D02*
D03*
D38*
X1666Y4304D02*
D03*
Y4706D02*
D03*
X1677Y5511D02*
D03*
Y5912D02*
D03*
X2243Y5836D02*
D03*
Y5434D02*
D03*
X2242Y4641D02*
D03*
Y4239D02*
D03*
X1686Y3085D02*
D03*
Y3487D02*
D03*
X2239Y3417D02*
D03*
Y3015D02*
D03*
X1682Y1881D02*
D03*
Y2282D02*
D03*
X2229Y2217D02*
D03*
Y1815D02*
D03*
X1696Y669D02*
D03*
Y1071D02*
D03*
X2238Y1001D02*
D03*
Y599D02*
D03*
X1738Y299D02*
D03*
X1938D02*
D03*
X2344Y302D02*
D03*
X2144D02*
D03*
D39*
X1760Y4505D02*
D03*
X1772Y5711D02*
D03*
X2149Y5635D02*
D03*
X2148Y4440D02*
D03*
X1781Y3286D02*
D03*
X2144Y3216D02*
D03*
X1777Y2081D02*
D03*
X2134Y2016D02*
D03*
X1790Y870D02*
D03*
X2144Y800D02*
D03*
D40*
X2237Y4471D02*
D03*
X1672Y4446D02*
D03*
X1802Y6426D02*
D03*
X2102Y5246D02*
D03*
X2087Y5586D02*
D03*
X2342Y5246D02*
D03*
X2222Y4111D02*
D03*
X2147Y2821D02*
D03*
X2202Y1626D02*
D03*
D41*
X2242Y794D02*
D03*
Y861D02*
D03*
X1697Y937D02*
D03*
Y871D02*
D03*
X2232Y1914D02*
D03*
Y1981D02*
D03*
X1682Y2086D02*
D03*
Y2019D02*
D03*
X2232Y3179D02*
D03*
Y3246D02*
D03*
X1697Y3336D02*
D03*
Y3269D02*
D03*
X2242Y4329D02*
D03*
Y4396D02*
D03*
X1672Y4601D02*
D03*
Y4534D02*
D03*
X2242Y5641D02*
D03*
Y5707D02*
D03*
X1677Y5731D02*
D03*
Y5664D02*
D03*
D42*
X2582Y5261D02*
D03*
X2447D02*
D03*
X2537Y6191D02*
D03*
X2402D02*
D03*
X2472Y1626D02*
D03*
X2337D02*
D03*
X2452Y2831D02*
D03*
X2317D02*
D03*
X2482Y4096D02*
D03*
X2347D02*
D03*
X1347Y5406D02*
D03*
X1482D02*
D03*
X1362Y4206D02*
D03*
X1497D02*
D03*
X1342Y2991D02*
D03*
X1477D02*
D03*
X1342Y1791D02*
D03*
X1477D02*
D03*
X1352Y616D02*
D03*
X1487D02*
D03*
X2592Y1156D02*
D03*
X2457D02*
D03*
X2582Y2381D02*
D03*
X2447D02*
D03*
X2587Y3576D02*
D03*
X2452D02*
D03*
X2582Y4791D02*
D03*
X2447D02*
D03*
X2647Y5746D02*
D03*
X2512D02*
D03*
D43*
X1492Y5946D02*
D03*
Y6081D02*
D03*
X1487Y5616D02*
D03*
Y5751D02*
D03*
X1512Y4746D02*
D03*
Y4881D02*
D03*
X1497Y4426D02*
D03*
Y4561D02*
D03*
X1487Y3546D02*
D03*
Y3681D02*
D03*
X1477Y3211D02*
D03*
Y3346D02*
D03*
X1462Y2331D02*
D03*
Y2466D02*
D03*
X1457Y1986D02*
D03*
Y2121D02*
D03*
X1477Y1106D02*
D03*
Y1241D02*
D03*
Y826D02*
D03*
Y961D02*
D03*
X2462Y1306D02*
D03*
Y1441D02*
D03*
X2442Y2531D02*
D03*
Y2666D02*
D03*
X2472Y3781D02*
D03*
Y3916D02*
D03*
X2522Y4981D02*
D03*
Y5116D02*
D03*
X2532Y5906D02*
D03*
Y6041D02*
D03*
M02*
