%FSLAX23Y23*%
%MOIN*%
G70*
G01*
G75*
G04 Layer_Color=2752767*
%ADD10C,0.031*%
%ADD11C,0.197*%
%ADD12C,0.236*%
%ADD13C,0.165*%
%ADD14C,0.157*%
%ADD15C,0.059*%
%ADD16R,0.059X0.059*%
G04:AMPARAMS|DCode=17|XSize=236mil|YSize=236mil|CornerRadius=59mil|HoleSize=0mil|Usage=FLASHONLY|Rotation=0.000|XOffset=0mil|YOffset=0mil|HoleType=Round|Shape=RoundedRectangle|*
%AMROUNDEDRECTD17*
21,1,0.236,0.118,0,0,0.0*
21,1,0.118,0.236,0,0,0.0*
1,1,0.118,0.059,-0.059*
1,1,0.118,-0.059,-0.059*
1,1,0.118,-0.059,0.059*
1,1,0.118,0.059,0.059*
%
%ADD17ROUNDEDRECTD17*%
%ADD18C,0.157*%
G04:AMPARAMS|DCode=19|XSize=236mil|YSize=236mil|CornerRadius=59mil|HoleSize=0mil|Usage=FLASHONLY|Rotation=270.000|XOffset=0mil|YOffset=0mil|HoleType=Round|Shape=RoundedRectangle|*
%AMROUNDEDRECTD19*
21,1,0.236,0.118,0,0,270.0*
21,1,0.118,0.236,0,0,270.0*
1,1,0.118,-0.059,-0.059*
1,1,0.118,-0.059,0.059*
1,1,0.118,0.059,0.059*
1,1,0.118,0.059,-0.059*
%
%ADD19ROUNDEDRECTD19*%
%ADD20C,0.079*%
%ADD21C,0.050*%
%ADD22C,0.079*%
%ADD23C,0.039*%
%ADD24C,0.071*%
%ADD25C,0.059*%
%ADD26R,0.031X0.024*%
%ADD27R,0.060X0.100*%
%ADD28R,0.100X0.060*%
%ADD29C,0.118*%
%ADD30C,0.008*%
%ADD31C,0.010*%
%ADD32C,0.006*%
%ADD33C,0.067*%
%ADD34R,0.067X0.067*%
G04:AMPARAMS|DCode=35|XSize=244mil|YSize=244mil|CornerRadius=63mil|HoleSize=0mil|Usage=FLASHONLY|Rotation=0.000|XOffset=0mil|YOffset=0mil|HoleType=Round|Shape=RoundedRectangle|*
%AMROUNDEDRECTD35*
21,1,0.244,0.118,0,0,0.0*
21,1,0.118,0.244,0,0,0.0*
1,1,0.126,0.059,-0.059*
1,1,0.126,-0.059,-0.059*
1,1,0.126,-0.059,0.059*
1,1,0.126,0.059,0.059*
%
%ADD35ROUNDEDRECTD35*%
%ADD36C,0.165*%
G04:AMPARAMS|DCode=37|XSize=244mil|YSize=244mil|CornerRadius=63mil|HoleSize=0mil|Usage=FLASHONLY|Rotation=270.000|XOffset=0mil|YOffset=0mil|HoleType=Round|Shape=RoundedRectangle|*
%AMROUNDEDRECTD37*
21,1,0.244,0.118,0,0,270.0*
21,1,0.118,0.244,0,0,270.0*
1,1,0.126,-0.059,-0.059*
1,1,0.126,-0.059,0.059*
1,1,0.126,0.059,0.059*
1,1,0.126,0.059,-0.059*
%
%ADD37ROUNDEDRECTD37*%
%ADD38C,0.087*%
%ADD39C,0.008*%
%ADD40C,0.058*%
%ADD41R,0.039X0.032*%
%ADD42R,0.068X0.108*%
%ADD43R,0.108X0.068*%
%ADD44C,0.005*%
%ADD45C,0.007*%
D44*
X849Y7196D02*
Y7236D01*
X889D01*
Y7196D01*
X849D01*
X949D02*
Y7236D01*
X989D01*
Y7196D01*
X949D01*
X1049D02*
Y7236D01*
X1089D01*
Y7196D01*
X1049D01*
X1149D02*
Y7236D01*
X1189D01*
Y7196D01*
X1149D01*
X1249D02*
Y7236D01*
X1289D01*
Y7196D01*
X1249D01*
X1349D02*
Y7236D01*
X1389D01*
Y7196D01*
X1349D01*
X1449D02*
Y7236D01*
X1489D01*
Y7196D01*
X1449D01*
X1549D02*
Y7236D01*
X1589D01*
Y7196D01*
X1549D01*
X1649D02*
Y7236D01*
X1689D01*
Y7196D01*
X1649D01*
X1749D02*
Y7236D01*
X1789D01*
Y7196D01*
X1749D01*
X1849D02*
Y7236D01*
X1889D01*
Y7196D01*
X1849D01*
X1949D02*
Y7236D01*
X1989D01*
Y7196D01*
X1949D01*
X2049D02*
Y7236D01*
X2089D01*
Y7196D01*
X2049D01*
X2149D02*
Y7236D01*
X2189D01*
Y7196D01*
X2149D01*
X2249D02*
Y7236D01*
X2289D01*
Y7196D01*
X2249D01*
X2349D02*
Y7236D01*
X2389D01*
Y7196D01*
X2349D01*
X2449D02*
Y7236D01*
X2489D01*
Y7196D01*
X2449D01*
X2549D02*
Y7236D01*
X2589D01*
Y7196D01*
X2549D01*
X2649D02*
Y7236D01*
X2689D01*
Y7196D01*
X2649D01*
X2749D02*
Y7236D01*
X2789D01*
Y7196D01*
X2749D01*
X2849D02*
Y7236D01*
X2889D01*
Y7196D01*
X2849D01*
X2949D02*
Y7236D01*
X2989D01*
Y7196D01*
X2949D01*
X3049D02*
Y7236D01*
X3089D01*
Y7196D01*
X3049D01*
X747Y7196D02*
Y7236D01*
X787D01*
Y7196D01*
X747D01*
X1767Y2661D02*
X1747Y2701D01*
X1787D01*
X1767Y2661D01*
X2202Y2656D02*
X2182Y2696D01*
X2222D01*
X2202Y2656D01*
X2128Y3861D02*
X2108Y3901D01*
X2148D01*
X2128Y3861D01*
X1617D02*
X1597Y3901D01*
X1637D01*
X1617Y3861D01*
X847Y7068D02*
Y7108D01*
X887D01*
Y7068D01*
X847D01*
X947D02*
Y7108D01*
X987D01*
Y7068D01*
X947D01*
X1047D02*
Y7108D01*
X1087D01*
Y7068D01*
X1047D01*
X1147D02*
Y7108D01*
X1187D01*
Y7068D01*
X1147D01*
X1247D02*
Y7108D01*
X1287D01*
Y7068D01*
X1247D01*
X1347D02*
Y7108D01*
X1387D01*
Y7068D01*
X1347D01*
X1447D02*
Y7108D01*
X1487D01*
Y7068D01*
X1447D01*
X1547D02*
Y7108D01*
X1587D01*
Y7068D01*
X1547D01*
X1647D02*
Y7108D01*
X1687D01*
Y7068D01*
X1647D01*
X1747D02*
Y7108D01*
X1787D01*
Y7068D01*
X1747D01*
X1847D02*
Y7108D01*
X1887D01*
Y7068D01*
X1847D01*
X1947D02*
Y7108D01*
X1987D01*
Y7068D01*
X1947D01*
X2047D02*
Y7108D01*
X2087D01*
Y7068D01*
X2047D01*
X2147D02*
Y7108D01*
X2187D01*
Y7068D01*
X2147D01*
X2247D02*
Y7108D01*
X2287D01*
Y7068D01*
X2247D01*
X2347D02*
Y7108D01*
X2387D01*
Y7068D01*
X2347D01*
X2447D02*
Y7108D01*
X2487D01*
Y7068D01*
X2447D01*
X2547D02*
Y7108D01*
X2587D01*
Y7068D01*
X2547D01*
X2647D02*
Y7108D01*
X2687D01*
Y7068D01*
X2647D01*
X2747D02*
Y7108D01*
X2787D01*
Y7068D01*
X2747D01*
X2847D02*
Y7108D01*
X2887D01*
Y7068D01*
X2847D01*
X2947D02*
Y7108D01*
X2987D01*
Y7068D01*
X2947D01*
X3047D02*
Y7108D01*
X3087D01*
Y7068D01*
X3047D01*
X747D02*
Y7108D01*
X787D01*
Y7068D01*
X747D01*
X1162Y4135D02*
X1172Y4145D01*
X1182D01*
X1172Y4155D01*
X1182Y4165D01*
X1172D01*
X1162Y4175D01*
X1152Y4165D01*
X1142D01*
X1152Y4155D01*
X1142Y4145D01*
X1152D01*
X1162Y4135D01*
X1067Y4836D02*
X1077Y4846D01*
X1087D01*
X1077Y4856D01*
X1087Y4866D01*
X1077D01*
X1067Y4876D01*
X1057Y4866D01*
X1047D01*
X1057Y4856D01*
X1047Y4846D01*
X1057D01*
X1067Y4836D01*
X764D02*
X774Y4846D01*
X784D01*
X774Y4856D01*
X784Y4866D01*
X774D01*
X764Y4876D01*
X754Y4866D01*
X744D01*
X754Y4856D01*
X744Y4846D01*
X754D01*
X764Y4836D01*
X1646Y4284D02*
X1656Y4304D01*
X1646Y4324D01*
X1666Y4314D01*
X1686Y4324D01*
X1676Y4304D01*
X1686Y4284D01*
X1666Y4294D01*
X1646Y4284D01*
Y4686D02*
X1656Y4706D01*
X1646Y4726D01*
X1666Y4716D01*
X1686Y4726D01*
X1676Y4706D01*
X1686Y4686D01*
X1666Y4696D01*
X1646Y4686D01*
X1173Y5341D02*
X1183Y5351D01*
X1193D01*
X1183Y5361D01*
X1193Y5371D01*
X1183D01*
X1173Y5381D01*
X1163Y5371D01*
X1153D01*
X1163Y5361D01*
X1153Y5351D01*
X1163D01*
X1173Y5341D01*
X1079Y6042D02*
X1089Y6052D01*
X1099D01*
X1089Y6062D01*
X1099Y6072D01*
X1089D01*
X1079Y6082D01*
X1069Y6072D01*
X1059D01*
X1069Y6062D01*
X1059Y6052D01*
X1069D01*
X1079Y6042D01*
X776D02*
X786Y6052D01*
X796D01*
X786Y6062D01*
X796Y6072D01*
X786D01*
X776Y6082D01*
X766Y6072D01*
X756D01*
X766Y6062D01*
X756Y6052D01*
X766D01*
X776Y6042D01*
X1657Y5491D02*
X1667Y5511D01*
X1657Y5531D01*
X1677Y5521D01*
X1697Y5531D01*
X1687Y5511D01*
X1697Y5491D01*
X1677Y5501D01*
X1657Y5491D01*
Y5892D02*
X1667Y5912D01*
X1657Y5932D01*
X1677Y5922D01*
X1697Y5932D01*
X1687Y5912D01*
X1697Y5892D01*
X1677Y5902D01*
X1657Y5892D01*
X2747Y5966D02*
X2757Y5976D01*
X2767D01*
X2757Y5986D01*
X2767Y5996D01*
X2757D01*
X2747Y6006D01*
X2737Y5996D01*
X2727D01*
X2737Y5986D01*
X2727Y5976D01*
X2737D01*
X2747Y5966D01*
X2842Y5265D02*
X2852Y5275D01*
X2862D01*
X2852Y5285D01*
X2862Y5295D01*
X2852D01*
X2842Y5305D01*
X2832Y5295D01*
X2822D01*
X2832Y5285D01*
X2822Y5275D01*
X2832D01*
X2842Y5265D01*
X3145D02*
X3155Y5275D01*
X3165D01*
X3155Y5285D01*
X3165Y5295D01*
X3155D01*
X3145Y5305D01*
X3135Y5295D01*
X3125D01*
X3135Y5285D01*
X3125Y5275D01*
X3135D01*
X3145Y5265D01*
X2223Y5816D02*
X2233Y5836D01*
X2223Y5856D01*
X2243Y5846D01*
X2263Y5856D01*
X2253Y5836D01*
X2263Y5816D01*
X2243Y5826D01*
X2223Y5816D01*
Y5414D02*
X2233Y5434D01*
X2223Y5454D01*
X2243Y5444D01*
X2263Y5454D01*
X2253Y5434D01*
X2263Y5414D01*
X2243Y5424D01*
X2223Y5414D01*
X2746Y4770D02*
X2756Y4780D01*
X2766D01*
X2756Y4790D01*
X2766Y4800D01*
X2756D01*
X2746Y4810D01*
X2736Y4800D01*
X2726D01*
X2736Y4790D01*
X2726Y4780D01*
X2736D01*
X2746Y4770D01*
X2841Y4069D02*
X2851Y4079D01*
X2861D01*
X2851Y4089D01*
X2861Y4099D01*
X2851D01*
X2841Y4109D01*
X2831Y4099D01*
X2821D01*
X2831Y4089D01*
X2821Y4079D01*
X2831D01*
X2841Y4069D01*
X3144D02*
X3154Y4079D01*
X3164D01*
X3154Y4089D01*
X3164Y4099D01*
X3154D01*
X3144Y4109D01*
X3134Y4099D01*
X3124D01*
X3134Y4089D01*
X3124Y4079D01*
X3134D01*
X3144Y4069D01*
X2222Y4621D02*
X2232Y4641D01*
X2222Y4661D01*
X2242Y4651D01*
X2262Y4661D01*
X2252Y4641D01*
X2262Y4621D01*
X2242Y4631D01*
X2222Y4621D01*
Y4219D02*
X2232Y4239D01*
X2222Y4259D01*
X2242Y4249D01*
X2262Y4259D01*
X2252Y4239D01*
X2262Y4219D01*
X2242Y4229D01*
X2222Y4219D01*
X1182Y2916D02*
X1192Y2926D01*
X1202D01*
X1192Y2936D01*
X1202Y2946D01*
X1192D01*
X1182Y2956D01*
X1172Y2946D01*
X1162D01*
X1172Y2936D01*
X1162Y2926D01*
X1172D01*
X1182Y2916D01*
X1088Y3616D02*
X1098Y3626D01*
X1108D01*
X1098Y3636D01*
X1108Y3646D01*
X1098D01*
X1088Y3656D01*
X1078Y3646D01*
X1068D01*
X1078Y3636D01*
X1068Y3626D01*
X1078D01*
X1088Y3616D01*
X785D02*
X795Y3626D01*
X805D01*
X795Y3636D01*
X805Y3646D01*
X795D01*
X785Y3656D01*
X775Y3646D01*
X765D01*
X775Y3636D01*
X765Y3626D01*
X775D01*
X785Y3616D01*
X1666Y3065D02*
X1676Y3085D01*
X1666Y3105D01*
X1686Y3095D01*
X1706Y3105D01*
X1696Y3085D01*
X1706Y3065D01*
X1686Y3075D01*
X1666Y3065D01*
Y3467D02*
X1676Y3487D01*
X1666Y3507D01*
X1686Y3497D01*
X1706Y3507D01*
X1696Y3487D01*
X1706Y3467D01*
X1686Y3477D01*
X1666Y3467D01*
X2743Y3546D02*
X2753Y3556D01*
X2763D01*
X2753Y3566D01*
X2763Y3576D01*
X2753D01*
X2743Y3586D01*
X2733Y3576D01*
X2723D01*
X2733Y3566D01*
X2723Y3556D01*
X2733D01*
X2743Y3546D01*
X2837Y2846D02*
X2847Y2856D01*
X2857D01*
X2847Y2866D01*
X2857Y2876D01*
X2847D01*
X2837Y2886D01*
X2827Y2876D01*
X2817D01*
X2827Y2866D01*
X2817Y2856D01*
X2827D01*
X2837Y2846D01*
X3141D02*
X3151Y2856D01*
X3161D01*
X3151Y2866D01*
X3161Y2876D01*
X3151D01*
X3141Y2886D01*
X3131Y2876D01*
X3121D01*
X3131Y2866D01*
X3121Y2856D01*
X3131D01*
X3141Y2846D01*
X2219Y3397D02*
X2229Y3417D01*
X2219Y3437D01*
X2239Y3427D01*
X2259Y3437D01*
X2249Y3417D01*
X2259Y3397D01*
X2239Y3407D01*
X2219Y3397D01*
Y2995D02*
X2229Y3015D01*
X2219Y3035D01*
X2239Y3025D01*
X2259Y3035D01*
X2249Y3015D01*
X2259Y2995D01*
X2239Y3005D01*
X2219Y2995D01*
X1178Y1711D02*
X1188Y1721D01*
X1198D01*
X1188Y1731D01*
X1198Y1741D01*
X1188D01*
X1178Y1751D01*
X1168Y1741D01*
X1158D01*
X1168Y1731D01*
X1158Y1721D01*
X1168D01*
X1178Y1711D01*
X1084Y2412D02*
X1094Y2422D01*
X1104D01*
X1094Y2432D01*
X1104Y2442D01*
X1094D01*
X1084Y2452D01*
X1074Y2442D01*
X1064D01*
X1074Y2432D01*
X1064Y2422D01*
X1074D01*
X1084Y2412D01*
X781D02*
X791Y2422D01*
X801D01*
X791Y2432D01*
X801Y2442D01*
X791D01*
X781Y2452D01*
X771Y2442D01*
X761D01*
X771Y2432D01*
X761Y2422D01*
X771D01*
X781Y2412D01*
X1662Y1861D02*
X1672Y1881D01*
X1662Y1901D01*
X1682Y1891D01*
X1702Y1901D01*
X1692Y1881D01*
X1702Y1861D01*
X1682Y1871D01*
X1662Y1861D01*
Y2262D02*
X1672Y2282D01*
X1662Y2302D01*
X1682Y2292D01*
X1702Y2302D01*
X1692Y2282D01*
X1702Y2262D01*
X1682Y2272D01*
X1662Y2262D01*
X2733Y2346D02*
X2743Y2356D01*
X2753D01*
X2743Y2366D01*
X2753Y2376D01*
X2743D01*
X2733Y2386D01*
X2723Y2376D01*
X2713D01*
X2723Y2366D01*
X2713Y2356D01*
X2723D01*
X2733Y2346D01*
X2827Y1646D02*
X2837Y1656D01*
X2847D01*
X2837Y1666D01*
X2847Y1676D01*
X2837D01*
X2827Y1686D01*
X2817Y1676D01*
X2807D01*
X2817Y1666D01*
X2807Y1656D01*
X2817D01*
X2827Y1646D01*
X3131D02*
X3141Y1656D01*
X3151D01*
X3141Y1666D01*
X3151Y1676D01*
X3141D01*
X3131Y1686D01*
X3121Y1676D01*
X3111D01*
X3121Y1666D01*
X3111Y1656D01*
X3121D01*
X3131Y1646D01*
X2209Y2197D02*
X2219Y2217D01*
X2209Y2237D01*
X2229Y2227D01*
X2249Y2237D01*
X2239Y2217D01*
X2249Y2197D01*
X2229Y2207D01*
X2209Y2197D01*
Y1795D02*
X2219Y1815D01*
X2209Y1835D01*
X2229Y1825D01*
X2249Y1835D01*
X2239Y1815D01*
X2249Y1795D01*
X2229Y1805D01*
X2209Y1795D01*
X1192Y500D02*
X1202Y510D01*
X1212D01*
X1202Y520D01*
X1212Y530D01*
X1202D01*
X1192Y540D01*
X1182Y530D01*
X1172D01*
X1182Y520D01*
X1172Y510D01*
X1182D01*
X1192Y500D01*
X1097Y1201D02*
X1107Y1211D01*
X1117D01*
X1107Y1221D01*
X1117Y1231D01*
X1107D01*
X1097Y1241D01*
X1087Y1231D01*
X1077D01*
X1087Y1221D01*
X1077Y1211D01*
X1087D01*
X1097Y1201D01*
X794D02*
X804Y1211D01*
X814D01*
X804Y1221D01*
X814Y1231D01*
X804D01*
X794Y1241D01*
X784Y1231D01*
X774D01*
X784Y1221D01*
X774Y1211D01*
X784D01*
X794Y1201D01*
X1676Y649D02*
X1686Y669D01*
X1676Y689D01*
X1696Y679D01*
X1716Y689D01*
X1706Y669D01*
X1716Y649D01*
X1696Y659D01*
X1676Y649D01*
Y1051D02*
X1686Y1071D01*
X1676Y1091D01*
X1696Y1081D01*
X1716Y1091D01*
X1706Y1071D01*
X1716Y1051D01*
X1696Y1061D01*
X1676Y1051D01*
X2742Y1131D02*
X2752Y1141D01*
X2762D01*
X2752Y1151D01*
X2762Y1161D01*
X2752D01*
X2742Y1171D01*
X2732Y1161D01*
X2722D01*
X2732Y1151D01*
X2722Y1141D01*
X2732D01*
X2742Y1131D01*
X2837Y430D02*
X2847Y440D01*
X2857D01*
X2847Y450D01*
X2857Y460D01*
X2847D01*
X2837Y470D01*
X2827Y460D01*
X2817D01*
X2827Y450D01*
X2817Y440D01*
X2827D01*
X2837Y430D01*
X3140D02*
X3150Y440D01*
X3160D01*
X3150Y450D01*
X3160Y460D01*
X3150D01*
X3140Y470D01*
X3130Y460D01*
X3120D01*
X3130Y450D01*
X3120Y440D01*
X3130D01*
X3140Y430D01*
X2218Y981D02*
X2228Y1001D01*
X2218Y1021D01*
X2238Y1011D01*
X2258Y1021D01*
X2248Y1001D01*
X2258Y981D01*
X2238Y991D01*
X2218Y981D01*
Y579D02*
X2228Y599D01*
X2218Y619D01*
X2238Y609D01*
X2258Y619D01*
X2248Y599D01*
X2258Y579D01*
X2238Y589D01*
X2218Y579D01*
X3052Y6296D02*
X3032Y6336D01*
X3072D01*
X3052Y6296D01*
X548Y6375D02*
X528Y6415D01*
X568D01*
X548Y6375D01*
X1498Y318D02*
X1478Y358D01*
X1518D01*
X1498Y318D01*
X2561D02*
X2541Y358D01*
X2581D01*
X2561Y318D01*
X1728Y289D02*
Y279D01*
X1748D01*
Y289D01*
X1758D01*
Y309D01*
X1748D01*
Y319D01*
X1728D01*
Y309D01*
X1718D01*
Y289D01*
X1728D01*
X1928D02*
Y279D01*
X1948D01*
Y289D01*
X1958D01*
Y309D01*
X1948D01*
Y319D01*
X1928D01*
Y309D01*
X1918D01*
Y289D01*
X1928D01*
X2334Y292D02*
Y282D01*
X2354D01*
Y292D01*
X2364D01*
Y312D01*
X2354D01*
Y322D01*
X2334D01*
Y312D01*
X2324D01*
Y292D01*
X2334D01*
X2134D02*
Y282D01*
X2154D01*
Y292D01*
X2164D01*
Y312D01*
X2154D01*
Y322D01*
X2134D01*
Y312D01*
X2124D01*
Y292D01*
X2134D01*
X2217Y4451D02*
X2227D01*
X2237Y4461D01*
X2247Y4451D01*
X2257D01*
Y4461D01*
X2247Y4471D01*
X2257Y4481D01*
Y4491D01*
X2247D01*
X2237Y4481D01*
X2227Y4491D01*
X2217D01*
Y4481D01*
X2227Y4471D01*
X2217Y4461D01*
Y4451D01*
X1652Y4426D02*
X1662D01*
X1672Y4436D01*
X1682Y4426D01*
X1692D01*
Y4436D01*
X1682Y4446D01*
X1692Y4456D01*
Y4466D01*
X1682D01*
X1672Y4456D01*
X1662Y4466D01*
X1652D01*
Y4456D01*
X1662Y4446D01*
X1652Y4436D01*
Y4426D01*
X1782Y6406D02*
X1792D01*
X1802Y6416D01*
X1812Y6406D01*
X1822D01*
Y6416D01*
X1812Y6426D01*
X1822Y6436D01*
Y6446D01*
X1812D01*
X1802Y6436D01*
X1792Y6446D01*
X1782D01*
Y6436D01*
X1792Y6426D01*
X1782Y6416D01*
Y6406D01*
X2082Y5226D02*
X2092D01*
X2102Y5236D01*
X2112Y5226D01*
X2122D01*
Y5236D01*
X2112Y5246D01*
X2122Y5256D01*
Y5266D01*
X2112D01*
X2102Y5256D01*
X2092Y5266D01*
X2082D01*
Y5256D01*
X2092Y5246D01*
X2082Y5236D01*
Y5226D01*
X2067Y5566D02*
X2077D01*
X2087Y5576D01*
X2097Y5566D01*
X2107D01*
Y5576D01*
X2097Y5586D01*
X2107Y5596D01*
Y5606D01*
X2097D01*
X2087Y5596D01*
X2077Y5606D01*
X2067D01*
Y5596D01*
X2077Y5586D01*
X2067Y5576D01*
Y5566D01*
X2322Y5226D02*
X2332D01*
X2342Y5236D01*
X2352Y5226D01*
X2362D01*
Y5236D01*
X2352Y5246D01*
X2362Y5256D01*
Y5266D01*
X2352D01*
X2342Y5256D01*
X2332Y5266D01*
X2322D01*
Y5256D01*
X2332Y5246D01*
X2322Y5236D01*
Y5226D01*
X2202Y4091D02*
X2212D01*
X2222Y4101D01*
X2232Y4091D01*
X2242D01*
Y4101D01*
X2232Y4111D01*
X2242Y4121D01*
Y4131D01*
X2232D01*
X2222Y4121D01*
X2212Y4131D01*
X2202D01*
Y4121D01*
X2212Y4111D01*
X2202Y4101D01*
Y4091D01*
X2127Y2801D02*
X2137D01*
X2147Y2811D01*
X2157Y2801D01*
X2167D01*
Y2811D01*
X2157Y2821D01*
X2167Y2831D01*
Y2841D01*
X2157D01*
X2147Y2831D01*
X2137Y2841D01*
X2127D01*
Y2831D01*
X2137Y2821D01*
X2127Y2811D01*
Y2801D01*
X2182Y1606D02*
X2192D01*
X2202Y1616D01*
X2212Y1606D01*
X2222D01*
Y1616D01*
X2212Y1626D01*
X2222Y1636D01*
Y1646D01*
X2212D01*
X2202Y1636D01*
X2192Y1646D01*
X2182D01*
Y1636D01*
X2192Y1626D01*
X2182Y1616D01*
Y1606D01*
D45*
X3390Y6941D02*
G03*
X3390Y6941I-20J0D01*
G01*
X3790D02*
G03*
X3790Y6941I-20J0D01*
G01*
X192Y6086D02*
G03*
X192Y6086I-20J0D01*
G01*
Y5686D02*
G03*
X192Y5686I-20J0D01*
G01*
X592Y6086D02*
G03*
X592Y6086I-20J0D01*
G01*
Y5686D02*
G03*
X592Y5686I-20J0D01*
G01*
Y5286D02*
G03*
X592Y5286I-20J0D01*
G01*
X192D02*
G03*
X192Y5286I-20J0D01*
G01*
X182Y4876D02*
G03*
X182Y4876I-20J0D01*
G01*
Y4476D02*
G03*
X182Y4476I-20J0D01*
G01*
X582Y4876D02*
G03*
X582Y4876I-20J0D01*
G01*
Y4476D02*
G03*
X582Y4476I-20J0D01*
G01*
Y4076D02*
G03*
X582Y4076I-20J0D01*
G01*
X182D02*
G03*
X182Y4076I-20J0D01*
G01*
X167Y3656D02*
G03*
X167Y3656I-20J0D01*
G01*
Y3256D02*
G03*
X167Y3256I-20J0D01*
G01*
X567Y3656D02*
G03*
X567Y3656I-20J0D01*
G01*
Y3256D02*
G03*
X567Y3256I-20J0D01*
G01*
Y2856D02*
G03*
X567Y2856I-20J0D01*
G01*
X167D02*
G03*
X167Y2856I-20J0D01*
G01*
Y2451D02*
G03*
X167Y2451I-20J0D01*
G01*
Y2051D02*
G03*
X167Y2051I-20J0D01*
G01*
X567Y2451D02*
G03*
X567Y2451I-20J0D01*
G01*
Y2051D02*
G03*
X567Y2051I-20J0D01*
G01*
Y1651D02*
G03*
X567Y1651I-20J0D01*
G01*
X167D02*
G03*
X167Y1651I-20J0D01*
G01*
X162Y1236D02*
G03*
X162Y1236I-20J0D01*
G01*
Y836D02*
G03*
X162Y836I-20J0D01*
G01*
X562Y1236D02*
G03*
X562Y1236I-20J0D01*
G01*
Y836D02*
G03*
X562Y836I-20J0D01*
G01*
Y436D02*
G03*
X562Y436I-20J0D01*
G01*
X162D02*
G03*
X162Y436I-20J0D01*
G01*
X3777Y426D02*
G03*
X3777Y426I-20J0D01*
G01*
Y826D02*
G03*
X3777Y826I-20J0D01*
G01*
X3377Y426D02*
G03*
X3377Y426I-20J0D01*
G01*
Y826D02*
G03*
X3377Y826I-20J0D01*
G01*
Y1226D02*
G03*
X3377Y1226I-20J0D01*
G01*
X3777D02*
G03*
X3777Y1226I-20J0D01*
G01*
X3767Y1641D02*
G03*
X3767Y1641I-20J0D01*
G01*
Y2041D02*
G03*
X3767Y2041I-20J0D01*
G01*
X3367Y1641D02*
G03*
X3367Y1641I-20J0D01*
G01*
Y2041D02*
G03*
X3367Y2041I-20J0D01*
G01*
Y2441D02*
G03*
X3367Y2441I-20J0D01*
G01*
X3767D02*
G03*
X3767Y2441I-20J0D01*
G01*
X3787Y2861D02*
G03*
X3787Y2861I-20J0D01*
G01*
Y3261D02*
G03*
X3787Y3261I-20J0D01*
G01*
X3387Y2861D02*
G03*
X3387Y2861I-20J0D01*
G01*
Y3261D02*
G03*
X3387Y3261I-20J0D01*
G01*
Y3661D02*
G03*
X3387Y3661I-20J0D01*
G01*
X3787D02*
G03*
X3787Y3661I-20J0D01*
G01*
X3797Y4081D02*
G03*
X3797Y4081I-20J0D01*
G01*
Y4481D02*
G03*
X3797Y4481I-20J0D01*
G01*
X3397Y4081D02*
G03*
X3397Y4081I-20J0D01*
G01*
Y4481D02*
G03*
X3397Y4481I-20J0D01*
G01*
Y4881D02*
G03*
X3397Y4881I-20J0D01*
G01*
X3797D02*
G03*
X3797Y4881I-20J0D01*
G01*
Y5286D02*
G03*
X3797Y5286I-20J0D01*
G01*
Y5686D02*
G03*
X3797Y5686I-20J0D01*
G01*
X3397Y5286D02*
G03*
X3397Y5286I-20J0D01*
G01*
Y5686D02*
G03*
X3397Y5686I-20J0D01*
G01*
Y6086D02*
G03*
X3397Y6086I-20J0D01*
G01*
X3797D02*
G03*
X3797Y6086I-20J0D01*
G01*
X3397Y6501D02*
G03*
X3397Y6501I-20J0D01*
G01*
X3797D02*
G03*
X3797Y6501I-20J0D01*
G01*
M02*
