%FSLAX23Y23*%
%MOIN*%
G70*
G01*
G75*
G04 Layer_Physical_Order=1*
G04 Layer_Color=255*
%ADD10C,0.031*%
%ADD11C,0.197*%
%ADD12C,0.236*%
%ADD13C,0.165*%
%ADD14C,0.157*%
%ADD15C,0.059*%
%ADD16R,0.059X0.059*%
G04:AMPARAMS|DCode=17|XSize=236mil|YSize=236mil|CornerRadius=59mil|HoleSize=0mil|Usage=FLASHONLY|Rotation=0.000|XOffset=0mil|YOffset=0mil|HoleType=Round|Shape=RoundedRectangle|*
%AMROUNDEDRECTD17*
21,1,0.236,0.118,0,0,0.0*
21,1,0.118,0.236,0,0,0.0*
1,1,0.118,0.059,-0.059*
1,1,0.118,-0.059,-0.059*
1,1,0.118,-0.059,0.059*
1,1,0.118,0.059,0.059*
%
%ADD17ROUNDEDRECTD17*%
%ADD18C,0.157*%
G04:AMPARAMS|DCode=19|XSize=236mil|YSize=236mil|CornerRadius=59mil|HoleSize=0mil|Usage=FLASHONLY|Rotation=270.000|XOffset=0mil|YOffset=0mil|HoleType=Round|Shape=RoundedRectangle|*
%AMROUNDEDRECTD19*
21,1,0.236,0.118,0,0,270.0*
21,1,0.118,0.236,0,0,270.0*
1,1,0.118,-0.059,-0.059*
1,1,0.118,-0.059,0.059*
1,1,0.118,0.059,0.059*
1,1,0.118,0.059,-0.059*
%
%ADD19ROUNDEDRECTD19*%
%ADD20C,0.079*%
%ADD21C,0.050*%
D10*
X2123Y5956D02*
X2243Y5836D01*
X1677Y5511D02*
X2123Y5956D01*
X1697Y871D02*
X1812D01*
Y786D02*
Y871D01*
X1696Y669D02*
X1812Y786D01*
X2127Y871D02*
X2242Y986D01*
X2067Y2378D02*
X2232Y2213D01*
X2140D02*
X2232D01*
X1807Y1881D02*
X2140Y2213D01*
X1682Y1881D02*
X1807D01*
X2067Y3417D02*
X2239D01*
X2009D02*
X2067D01*
Y2378D02*
Y3417D01*
X1686Y3085D02*
X1852Y3251D01*
X1672Y4442D02*
X2119D01*
X1672D02*
Y4446D01*
Y4311D02*
Y4442D01*
X2142Y4466D02*
X2237D01*
X2242Y4471D02*
Y4641D01*
X2092Y5586D02*
X2243Y5434D01*
X2239Y3417D02*
Y3964D01*
X2112Y4091D02*
X2239Y3964D01*
X2112Y4091D02*
Y4436D01*
X1667Y5902D02*
X1677Y5912D01*
X2242Y5835D02*
X2243Y5836D01*
X1587Y906D02*
Y1691D01*
X1682Y1786D01*
Y1881D01*
X1696Y1071D02*
X1697Y1069D01*
X1696Y869D02*
X1697Y871D01*
X1677Y2277D02*
X1682Y2282D01*
X1686Y3487D02*
X1692Y3481D01*
X2237Y3017D02*
X2239Y3015D01*
X1666Y4706D02*
X1667Y4704D01*
X1677Y4901D02*
Y5511D01*
X2067Y6012D02*
X2243Y5836D01*
X2087Y5586D02*
X2092D01*
X2102Y5246D02*
X2342D01*
X1852Y3261D02*
X2009Y3417D01*
X1667Y5521D02*
X1677Y5511D01*
X1527Y4751D02*
X1677Y4901D01*
X2112Y4436D02*
X2119Y4442D01*
X2142Y4466D01*
X1587Y906D02*
X1622Y871D01*
X1697D01*
X2238Y599D02*
X2242Y603D01*
X2067Y6012D02*
Y7087D01*
X2067Y7088D02*
X2067Y7087D01*
X1527Y4610D02*
Y4751D01*
Y4610D02*
X1666Y4472D01*
Y4304D02*
Y4472D01*
X1966Y327D02*
Y871D01*
X1812D02*
X1966D01*
X2127D01*
X1460Y594D02*
Y4451D01*
X1393Y4518D02*
X1460Y4451D01*
X1393Y4518D02*
Y4825D01*
X1493Y4925D01*
Y6231D01*
X1967Y6705D01*
Y7088D01*
X1460Y594D02*
X1579Y474D01*
X1674D01*
X1734Y415D01*
Y299D02*
Y415D01*
D11*
X3377Y6501D02*
X3777D01*
X2842Y5285D02*
Y5555D01*
X2972Y5686D01*
X3377D01*
X2767Y5986D02*
X2867Y6086D01*
X3377D01*
X2751Y4830D02*
X2802Y4881D01*
X3377D01*
X2847Y4131D02*
Y4381D01*
X2947Y4481D01*
X3377D01*
X2743Y3566D02*
X2768D01*
X2862Y3661D01*
X3367D01*
X2837Y2866D02*
Y3181D01*
X2917Y3261D01*
X3367D01*
X2733Y2366D02*
X2807Y2441D01*
X3347D01*
X2822Y1671D02*
Y1936D01*
X2927Y2041D01*
X3347D01*
X2837Y450D02*
Y695D01*
X2967Y826D01*
X3357D01*
X2742Y1151D02*
X2817Y1226D01*
X3357D01*
X572Y5286D02*
X1098D01*
X572Y5686D02*
X947D01*
X1079Y5817D01*
Y6062D01*
X1098Y5286D02*
X1173Y5361D01*
X562Y4476D02*
X912D01*
X1067Y4631D01*
Y4856D01*
X562Y4076D02*
X1083D01*
X1162Y4155D01*
X547Y3256D02*
X937D01*
X1088Y3406D01*
Y3636D01*
X547Y2856D02*
X1102D01*
X1182Y2936D01*
X547Y1651D02*
X1097D01*
X1178Y1731D01*
X1178D01*
X547Y2051D02*
X997D01*
X1082Y2136D01*
Y2430D01*
X542Y836D02*
X987D01*
X1097Y946D01*
Y1221D01*
X542Y436D02*
X1108D01*
X1192Y520D01*
D12*
X3377Y6086D02*
X3777D01*
X3377Y5686D02*
X3777D01*
X3146Y5286D02*
X3377D01*
X3777D01*
X3377Y4881D02*
X3777D01*
X3377Y4481D02*
X3777D01*
X3149Y4129D02*
X3198Y4081D01*
X3377D01*
X3777D01*
X3367Y3661D02*
X3767D01*
X3367Y3261D02*
X3767D01*
X3141Y2866D02*
X3146Y2861D01*
X3367D01*
X3767D01*
X3347Y2441D02*
X3747D01*
X3347Y2041D02*
X3747D01*
X3131Y1666D02*
X3156Y1641D01*
X3347D01*
X3747D01*
X3140Y450D02*
X3164Y426D01*
X3357D01*
X3757D01*
X3357Y826D02*
X3757D01*
X3357Y1226D02*
X3757D01*
X172Y6086D02*
X572D01*
X752D01*
X172Y5686D02*
X572D01*
X172Y5286D02*
X572D01*
X162Y4876D02*
X562D01*
X744D01*
X162Y4476D02*
X562D01*
X162Y4076D02*
X562D01*
X147Y3656D02*
X547D01*
X766D01*
X147Y3256D02*
X547D01*
X147Y2856D02*
X547D01*
X147Y1651D02*
X547D01*
X147Y2051D02*
X547D01*
X147Y2451D02*
X547D01*
X762D01*
X781Y2432D01*
X142Y1236D02*
X542D01*
X779D01*
X794Y1221D01*
X142Y836D02*
X542D01*
X142Y436D02*
X542D01*
D13*
X2846Y4129D02*
X2847Y4131D01*
X2822Y1671D02*
X2827Y1666D01*
X1082Y2430D02*
X1084Y2432D01*
D14*
X3370Y6941D02*
X3770D01*
D15*
X869Y7216D02*
D03*
X969D02*
D03*
X1069D02*
D03*
X1169D02*
D03*
X1269D02*
D03*
X1369D02*
D03*
X1469D02*
D03*
X1569D02*
D03*
X1669D02*
D03*
X1769D02*
D03*
X1869D02*
D03*
X1969D02*
D03*
X2069D02*
D03*
X2169D02*
D03*
X2269D02*
D03*
X2369D02*
D03*
X2469D02*
D03*
X2569D02*
D03*
X2669D02*
D03*
X2769D02*
D03*
X2869D02*
D03*
X2969D02*
D03*
X3069D02*
D03*
X867Y7088D02*
D03*
X967D02*
D03*
X1067D02*
D03*
X1167D02*
D03*
X1267D02*
D03*
X1367D02*
D03*
X1467D02*
D03*
X1567D02*
D03*
X1667D02*
D03*
X1767D02*
D03*
X1867D02*
D03*
X1967D02*
D03*
X2067D02*
D03*
X2167D02*
D03*
X2267D02*
D03*
X2367D02*
D03*
X2467D02*
D03*
X2567D02*
D03*
X2667D02*
D03*
X2767D02*
D03*
X2867D02*
D03*
X2967D02*
D03*
X3067D02*
D03*
D16*
X767Y7216D02*
D03*
X767Y7088D02*
D03*
D17*
X3370Y6941D02*
D03*
X3770D02*
D03*
X3377Y6501D02*
D03*
X3777D02*
D03*
D18*
X1767Y2681D02*
D03*
X2202Y2676D02*
D03*
X2128Y3881D02*
D03*
X1617D02*
D03*
X1162Y4155D02*
D03*
X1067Y4856D02*
D03*
X764D02*
D03*
X1173Y5361D02*
D03*
X1079Y6062D02*
D03*
X776D02*
D03*
X2747Y5986D02*
D03*
X2842Y5285D02*
D03*
X3145D02*
D03*
X2746Y4790D02*
D03*
X2841Y4089D02*
D03*
X3144D02*
D03*
X1182Y2936D02*
D03*
X1088Y3636D02*
D03*
X785D02*
D03*
X2743Y3566D02*
D03*
X2837Y2866D02*
D03*
X3141D02*
D03*
X1178Y1731D02*
D03*
X1084Y2432D02*
D03*
X781D02*
D03*
X2733Y2366D02*
D03*
X2827Y1666D02*
D03*
X3131D02*
D03*
X1192Y520D02*
D03*
X1097Y1221D02*
D03*
X794D02*
D03*
X2742Y1151D02*
D03*
X2837Y450D02*
D03*
X3140D02*
D03*
X3052Y6316D02*
D03*
X548Y6395D02*
D03*
X1498Y338D02*
D03*
X2561D02*
D03*
D19*
X172Y6086D02*
D03*
Y5686D02*
D03*
X572Y6086D02*
D03*
Y5686D02*
D03*
Y5286D02*
D03*
X172D02*
D03*
X162Y4876D02*
D03*
Y4476D02*
D03*
X562Y4876D02*
D03*
Y4476D02*
D03*
Y4076D02*
D03*
X162D02*
D03*
X147Y3656D02*
D03*
Y3256D02*
D03*
X547Y3656D02*
D03*
Y3256D02*
D03*
Y2856D02*
D03*
X147D02*
D03*
Y2451D02*
D03*
Y2051D02*
D03*
X547Y2451D02*
D03*
Y2051D02*
D03*
Y1651D02*
D03*
X147D02*
D03*
X142Y1236D02*
D03*
Y836D02*
D03*
X542Y1236D02*
D03*
Y836D02*
D03*
Y436D02*
D03*
X142D02*
D03*
X3757Y426D02*
D03*
Y826D02*
D03*
X3357Y426D02*
D03*
Y826D02*
D03*
Y1226D02*
D03*
X3757D02*
D03*
X3747Y1641D02*
D03*
Y2041D02*
D03*
X3347Y1641D02*
D03*
Y2041D02*
D03*
Y2441D02*
D03*
X3747D02*
D03*
X3767Y2861D02*
D03*
Y3261D02*
D03*
X3367Y2861D02*
D03*
Y3261D02*
D03*
Y3661D02*
D03*
X3767D02*
D03*
X3777Y4081D02*
D03*
Y4481D02*
D03*
X3377Y4081D02*
D03*
Y4481D02*
D03*
Y4881D02*
D03*
X3777D02*
D03*
Y5286D02*
D03*
Y5686D02*
D03*
X3377Y5286D02*
D03*
Y5686D02*
D03*
Y6086D02*
D03*
X3777D02*
D03*
D20*
X1666Y4304D02*
D03*
Y4706D02*
D03*
X1677Y5511D02*
D03*
Y5912D02*
D03*
X2243Y5836D02*
D03*
Y5434D02*
D03*
X2242Y4641D02*
D03*
Y4239D02*
D03*
X1686Y3085D02*
D03*
Y3487D02*
D03*
X2239Y3417D02*
D03*
Y3015D02*
D03*
X1682Y1881D02*
D03*
Y2282D02*
D03*
X2229Y2217D02*
D03*
Y1815D02*
D03*
X1696Y669D02*
D03*
Y1071D02*
D03*
X2238Y1001D02*
D03*
Y599D02*
D03*
X1738Y299D02*
D03*
X1938D02*
D03*
X2344Y302D02*
D03*
X2144D02*
D03*
D21*
X2237Y4471D02*
D03*
X1672Y4446D02*
D03*
X1802Y6426D02*
D03*
X2102Y5246D02*
D03*
X2087Y5586D02*
D03*
X2342Y5246D02*
D03*
X2222Y4111D02*
D03*
X2147Y2821D02*
D03*
X2202Y1626D02*
D03*
M02*
