%FSLAX23Y23*%
%MOIN*%
G70*
G01*
G75*
G04 Layer_Physical_Order=3*
G04 Layer_Color=30967*
%ADD10C,0.031*%
%ADD11C,0.197*%
%ADD12C,0.236*%
%ADD13C,0.165*%
%ADD14C,0.157*%
%ADD15C,0.059*%
%ADD16R,0.059X0.059*%
G04:AMPARAMS|DCode=17|XSize=236mil|YSize=236mil|CornerRadius=59mil|HoleSize=0mil|Usage=FLASHONLY|Rotation=0.000|XOffset=0mil|YOffset=0mil|HoleType=Round|Shape=RoundedRectangle|*
%AMROUNDEDRECTD17*
21,1,0.236,0.118,0,0,0.0*
21,1,0.118,0.236,0,0,0.0*
1,1,0.118,0.059,-0.059*
1,1,0.118,-0.059,-0.059*
1,1,0.118,-0.059,0.059*
1,1,0.118,0.059,0.059*
%
%ADD17ROUNDEDRECTD17*%
%ADD18C,0.157*%
G04:AMPARAMS|DCode=19|XSize=236mil|YSize=236mil|CornerRadius=59mil|HoleSize=0mil|Usage=FLASHONLY|Rotation=270.000|XOffset=0mil|YOffset=0mil|HoleType=Round|Shape=RoundedRectangle|*
%AMROUNDEDRECTD19*
21,1,0.236,0.118,0,0,270.0*
21,1,0.118,0.236,0,0,270.0*
1,1,0.118,-0.059,-0.059*
1,1,0.118,-0.059,0.059*
1,1,0.118,0.059,0.059*
1,1,0.118,0.059,-0.059*
%
%ADD19ROUNDEDRECTD19*%
%ADD20C,0.079*%
%ADD21C,0.050*%
%ADD22C,0.079*%
%ADD23C,0.039*%
%ADD24C,0.071*%
%ADD25C,0.059*%
D10*
X1757Y2916D02*
Y5971D01*
X1587Y2746D02*
X1757Y2916D01*
X1587Y2116D02*
Y2746D01*
X1667Y6561D02*
X1802Y6426D01*
X2042Y4111D02*
X2222D01*
X2032Y2821D02*
X2147D01*
X1857Y2996D02*
X2032Y2821D01*
X1857Y2996D02*
Y6001D01*
X1367Y6491D02*
X1857Y6001D01*
X1367Y6491D02*
Y7087D01*
X2077Y1626D02*
X2202D01*
X1587Y2116D02*
X2077Y1626D01*
X1267Y6461D02*
X1757Y5971D01*
X1937Y4216D02*
X2042Y4111D01*
X1937Y4216D02*
Y6066D01*
X1467Y6536D02*
X1937Y6066D01*
X2007Y5341D02*
X2102Y5246D01*
X2007Y5341D02*
Y6111D01*
X1567Y6551D02*
X2007Y6111D01*
X1267Y6461D02*
Y7087D01*
X1267Y7088D02*
X1267Y7087D01*
X1367Y7088D02*
X1367Y7087D01*
X1467Y6536D02*
Y7087D01*
X1467Y7088D02*
X1467Y7087D01*
X1567Y6551D02*
Y7087D01*
X1567Y7088D02*
X1567Y7087D01*
X1667Y6561D02*
Y7087D01*
X1667Y7088D02*
X1667Y7087D01*
X2667Y7088D02*
X2667Y7087D01*
D15*
X1267Y7088D02*
D03*
X1367D02*
D03*
X1467D02*
D03*
X1567D02*
D03*
X1667D02*
D03*
X2667D02*
D03*
X2767D02*
D03*
X2867D02*
D03*
X2967D02*
D03*
X3067D02*
D03*
D17*
X3370Y6941D02*
D03*
D20*
X2242Y4239D02*
D03*
X2239Y3015D02*
D03*
X2229Y1815D02*
D03*
X2238Y599D02*
D03*
X2144Y302D02*
D03*
D21*
X1802Y6426D02*
D03*
X2102Y5246D02*
D03*
X2087Y5586D02*
D03*
X2222Y4111D02*
D03*
X2147Y2821D02*
D03*
X2202Y1626D02*
D03*
D22*
X3370Y6941D02*
X3565Y6746D01*
Y1060D02*
Y6746D01*
X3498Y993D02*
X3565Y1060D01*
X2873Y993D02*
X3498D01*
X2183Y467D02*
X2346D01*
X2873Y993D01*
X2142Y425D02*
X2183Y467D01*
X2142Y302D02*
Y425D01*
D23*
X2347Y5383D02*
Y6306D01*
X2272Y5307D02*
X2347Y5383D01*
X2272Y5121D02*
Y5307D01*
X2767Y6911D02*
Y7088D01*
X2157Y6302D02*
X2767Y6911D01*
X3067Y6661D02*
Y7088D01*
X2554Y6149D02*
X3067Y6661D01*
X2867Y6825D02*
Y7088D01*
X2347Y6306D02*
X2867Y6825D01*
X2157Y5615D02*
Y6302D01*
X2272Y5121D02*
X2337Y5056D01*
X2132Y5121D02*
X2181Y5171D01*
X2132Y4349D02*
Y5121D01*
X2239Y3015D02*
X2337Y3114D01*
Y5056D01*
X2158Y5556D02*
Y5615D01*
X2157Y5361D02*
Y5556D01*
X2159Y5360D02*
X2181Y5337D01*
Y5171D02*
Y5337D01*
X2667Y6961D02*
Y7087D01*
X2967Y6749D02*
Y7087D01*
X2238Y599D02*
X2554Y915D01*
Y6149D01*
X2229Y1815D02*
X2455Y2041D01*
Y6236D01*
X2967Y6749D01*
X2079Y5594D02*
Y6372D01*
X2667Y6961D01*
D24*
X2132Y4349D02*
X2242Y4239D01*
X2967Y7088D02*
X2967Y7087D01*
D25*
X2079Y5594D02*
X2087Y5586D01*
M02*
