%FSLAX23Y23*%
%MOIN*%
G70*
G01*
G75*
G04 Layer_Color=65535*
%ADD10C,0.031*%
%ADD11C,0.197*%
%ADD12C,0.236*%
%ADD13C,0.165*%
%ADD14C,0.157*%
%ADD15C,0.059*%
%ADD16R,0.059X0.059*%
G04:AMPARAMS|DCode=17|XSize=236mil|YSize=236mil|CornerRadius=59mil|HoleSize=0mil|Usage=FLASHONLY|Rotation=0.000|XOffset=0mil|YOffset=0mil|HoleType=Round|Shape=RoundedRectangle|*
%AMROUNDEDRECTD17*
21,1,0.236,0.118,0,0,0.0*
21,1,0.118,0.236,0,0,0.0*
1,1,0.118,0.059,-0.059*
1,1,0.118,-0.059,-0.059*
1,1,0.118,-0.059,0.059*
1,1,0.118,0.059,0.059*
%
%ADD17ROUNDEDRECTD17*%
%ADD18C,0.157*%
G04:AMPARAMS|DCode=19|XSize=236mil|YSize=236mil|CornerRadius=59mil|HoleSize=0mil|Usage=FLASHONLY|Rotation=270.000|XOffset=0mil|YOffset=0mil|HoleType=Round|Shape=RoundedRectangle|*
%AMROUNDEDRECTD19*
21,1,0.236,0.118,0,0,270.0*
21,1,0.118,0.236,0,0,270.0*
1,1,0.118,-0.059,-0.059*
1,1,0.118,-0.059,0.059*
1,1,0.118,0.059,0.059*
1,1,0.118,0.059,-0.059*
%
%ADD19ROUNDEDRECTD19*%
%ADD20C,0.079*%
%ADD21C,0.050*%
%ADD22C,0.079*%
%ADD23C,0.039*%
%ADD24C,0.071*%
%ADD25C,0.059*%
%ADD26R,0.031X0.024*%
%ADD27R,0.060X0.100*%
%ADD28R,0.100X0.060*%
%ADD29C,0.118*%
%ADD30C,0.008*%
%ADD31C,0.010*%
%ADD32C,0.006*%
G36*
X401Y7355D02*
X401Y7354D01*
X402Y7354D01*
X403Y7354D01*
X405Y7354D01*
X407Y7353D01*
X408Y7353D01*
X409Y7352D01*
X411Y7351D01*
X412Y7350D01*
X413Y7349D01*
X414Y7348D01*
X414Y7348D01*
X415Y7348D01*
X415Y7347D01*
X415Y7347D01*
X416Y7346D01*
X416Y7346D01*
X417Y7345D01*
X417Y7344D01*
X418Y7342D01*
X418Y7341D01*
X419Y7340D01*
X419Y7338D01*
X420Y7336D01*
X420Y7334D01*
X420Y7332D01*
X420Y7330D01*
Y7330D01*
Y7330D01*
Y7329D01*
X420Y7328D01*
X386D01*
Y7328D01*
Y7328D01*
X386Y7327D01*
Y7327D01*
X386Y7326D01*
X386Y7326D01*
X386Y7324D01*
X387Y7322D01*
X388Y7320D01*
X389Y7318D01*
X390Y7316D01*
X390Y7316D01*
X391Y7316D01*
X391Y7315D01*
X393Y7315D01*
X394Y7314D01*
X396Y7313D01*
X398Y7313D01*
X400Y7312D01*
X400D01*
X401Y7313D01*
X402Y7313D01*
X403Y7313D01*
X405Y7313D01*
X406Y7314D01*
X407Y7315D01*
X407Y7315D01*
X408Y7315D01*
X408Y7316D01*
X409Y7317D01*
X410Y7318D01*
X410Y7319D01*
X411Y7320D01*
X412Y7322D01*
X420Y7321D01*
Y7321D01*
X420Y7321D01*
X420Y7320D01*
X420Y7320D01*
X419Y7319D01*
X419Y7319D01*
X418Y7317D01*
X417Y7315D01*
X416Y7313D01*
X415Y7311D01*
X413Y7310D01*
X413D01*
X413Y7310D01*
X412Y7310D01*
X412Y7309D01*
X411Y7309D01*
X411Y7309D01*
X410Y7308D01*
X409Y7308D01*
X407Y7307D01*
X405Y7307D01*
X403Y7306D01*
X400Y7306D01*
X399D01*
X398Y7306D01*
X397Y7306D01*
X396Y7306D01*
X395Y7307D01*
X394Y7307D01*
X391Y7308D01*
X390Y7308D01*
X389Y7309D01*
X387Y7309D01*
X386Y7310D01*
X385Y7311D01*
X383Y7312D01*
X383Y7312D01*
X383Y7313D01*
X383Y7313D01*
X383Y7313D01*
X382Y7314D01*
X382Y7315D01*
X381Y7316D01*
X381Y7317D01*
X380Y7318D01*
X379Y7319D01*
X379Y7321D01*
X379Y7322D01*
X378Y7324D01*
X378Y7326D01*
X378Y7328D01*
X378Y7330D01*
Y7330D01*
Y7330D01*
Y7331D01*
X378Y7332D01*
X378Y7333D01*
X378Y7334D01*
X378Y7335D01*
X378Y7337D01*
X379Y7339D01*
X379Y7341D01*
X380Y7343D01*
X381Y7344D01*
X382Y7345D01*
X382Y7347D01*
X383Y7348D01*
X384Y7348D01*
X384Y7348D01*
X384Y7349D01*
X385Y7349D01*
X385Y7350D01*
X386Y7350D01*
X387Y7351D01*
X388Y7351D01*
X389Y7352D01*
X390Y7353D01*
X391Y7353D01*
X393Y7354D01*
X394Y7354D01*
X396Y7354D01*
X397Y7355D01*
X399Y7355D01*
X400D01*
X401Y7355D01*
D02*
G37*
G36*
X291Y7372D02*
X292D01*
X293Y7372D01*
X294Y7372D01*
X295Y7372D01*
X298Y7371D01*
X300Y7370D01*
X303Y7369D01*
X304Y7369D01*
X306Y7368D01*
X306D01*
X306Y7368D01*
X306Y7368D01*
X307Y7367D01*
X308Y7367D01*
X308Y7366D01*
X310Y7365D01*
X312Y7363D01*
X313Y7361D01*
X315Y7359D01*
X317Y7356D01*
Y7356D01*
X317Y7356D01*
X317Y7355D01*
X317Y7355D01*
X318Y7354D01*
X318Y7353D01*
X318Y7352D01*
X319Y7351D01*
X319Y7350D01*
X319Y7349D01*
X320Y7346D01*
X320Y7343D01*
X320Y7339D01*
Y7339D01*
Y7339D01*
Y7338D01*
X320Y7337D01*
Y7336D01*
X320Y7335D01*
X320Y7334D01*
X320Y7333D01*
X319Y7330D01*
X319Y7327D01*
X318Y7324D01*
X316Y7322D01*
Y7321D01*
X316Y7321D01*
X316Y7321D01*
X316Y7320D01*
X315Y7320D01*
X315Y7319D01*
X314Y7317D01*
X312Y7315D01*
X310Y7313D01*
X308Y7312D01*
X305Y7310D01*
X305D01*
X305Y7310D01*
X305Y7310D01*
X304Y7309D01*
X303Y7309D01*
X303Y7309D01*
X302Y7308D01*
X301Y7308D01*
X298Y7307D01*
X296Y7307D01*
X293Y7306D01*
X290Y7306D01*
X289D01*
X288Y7306D01*
X287D01*
X287Y7306D01*
X286Y7306D01*
X284Y7307D01*
X282Y7307D01*
X279Y7308D01*
X276Y7309D01*
X275Y7310D01*
X274Y7310D01*
X273Y7310D01*
X273Y7311D01*
X273Y7311D01*
X272Y7311D01*
X272Y7312D01*
X271Y7312D01*
X270Y7313D01*
X268Y7315D01*
X266Y7317D01*
X264Y7320D01*
X263Y7322D01*
Y7322D01*
X263Y7323D01*
X262Y7323D01*
X262Y7324D01*
X262Y7324D01*
X262Y7325D01*
X261Y7326D01*
X261Y7327D01*
X261Y7328D01*
X260Y7329D01*
X260Y7332D01*
X259Y7335D01*
X259Y7338D01*
Y7338D01*
Y7339D01*
X259Y7340D01*
Y7341D01*
X259Y7342D01*
X260Y7344D01*
X260Y7345D01*
X260Y7347D01*
X261Y7349D01*
X261Y7351D01*
X262Y7353D01*
X263Y7355D01*
X264Y7358D01*
X265Y7360D01*
X266Y7361D01*
X268Y7363D01*
X268Y7363D01*
X268Y7364D01*
X269Y7364D01*
X269Y7365D01*
X270Y7365D01*
X271Y7366D01*
X272Y7367D01*
X274Y7368D01*
X275Y7369D01*
X277Y7369D01*
X279Y7370D01*
X281Y7371D01*
X283Y7371D01*
X285Y7372D01*
X287Y7372D01*
X290Y7372D01*
X291D01*
X291Y7372D01*
D02*
G37*
G36*
X614Y7355D02*
X615Y7354D01*
X616Y7354D01*
X617Y7354D01*
X618Y7354D01*
X621Y7353D01*
X622Y7353D01*
X623Y7352D01*
X625Y7351D01*
X626Y7350D01*
X627Y7349D01*
X628Y7348D01*
X629Y7348D01*
X629Y7348D01*
X629Y7348D01*
X629Y7347D01*
X630Y7347D01*
X630Y7346D01*
X631Y7345D01*
X632Y7344D01*
X632Y7343D01*
X633Y7341D01*
X633Y7340D01*
X634Y7338D01*
X634Y7337D01*
X634Y7335D01*
X635Y7333D01*
X635Y7331D01*
Y7331D01*
Y7331D01*
Y7330D01*
Y7329D01*
X635Y7329D01*
Y7328D01*
X634Y7327D01*
X634Y7326D01*
X634Y7323D01*
X633Y7321D01*
X633Y7319D01*
X632Y7317D01*
Y7317D01*
X632Y7317D01*
X631Y7316D01*
X631Y7315D01*
X630Y7314D01*
X629Y7313D01*
X627Y7311D01*
X626Y7310D01*
X624Y7309D01*
X624D01*
X624Y7309D01*
X623Y7309D01*
X623Y7308D01*
X622Y7308D01*
X621Y7307D01*
X619Y7307D01*
X617Y7307D01*
X615Y7306D01*
X613Y7306D01*
X612D01*
X611Y7306D01*
X610Y7306D01*
X609Y7306D01*
X608Y7307D01*
X607Y7307D01*
X605Y7308D01*
X603Y7308D01*
X602Y7309D01*
X601Y7309D01*
X599Y7310D01*
X598Y7311D01*
X597Y7312D01*
X597Y7312D01*
X597Y7313D01*
X596Y7313D01*
X596Y7313D01*
X596Y7314D01*
X595Y7315D01*
X595Y7316D01*
X594Y7317D01*
X594Y7318D01*
X593Y7319D01*
X592Y7321D01*
X592Y7323D01*
X592Y7324D01*
X591Y7326D01*
X591Y7328D01*
X591Y7330D01*
Y7331D01*
Y7331D01*
X591Y7332D01*
Y7332D01*
X591Y7334D01*
X591Y7335D01*
X592Y7336D01*
X592Y7338D01*
X592Y7339D01*
X593Y7341D01*
X593Y7342D01*
X594Y7344D01*
X595Y7345D01*
X596Y7347D01*
X597Y7348D01*
X598Y7349D01*
X598Y7350D01*
X599Y7350D01*
X599Y7350D01*
X599Y7350D01*
X600Y7351D01*
X601Y7351D01*
X601Y7352D01*
X602Y7352D01*
X603Y7352D01*
X604Y7353D01*
X607Y7354D01*
X610Y7354D01*
X611Y7355D01*
X613Y7355D01*
X614D01*
X614Y7355D01*
D02*
G37*
G36*
X1134Y7307D02*
X1127D01*
Y7314D01*
X1127Y7314D01*
X1127Y7314D01*
X1127Y7313D01*
X1126Y7313D01*
X1126Y7312D01*
X1125Y7311D01*
X1124Y7311D01*
X1123Y7310D01*
X1122Y7309D01*
X1121Y7308D01*
X1120Y7308D01*
X1119Y7307D01*
X1117Y7307D01*
X1116Y7306D01*
X1114Y7306D01*
X1112Y7306D01*
X1112D01*
X1111Y7306D01*
X1110Y7306D01*
X1109Y7306D01*
X1107Y7307D01*
X1106Y7307D01*
X1105Y7308D01*
X1104Y7308D01*
X1104Y7308D01*
X1103Y7308D01*
X1103Y7309D01*
X1102Y7309D01*
X1101Y7310D01*
X1100Y7311D01*
X1099Y7311D01*
X1099Y7312D01*
X1099Y7312D01*
X1099Y7312D01*
X1099Y7313D01*
X1098Y7314D01*
X1098Y7315D01*
X1097Y7316D01*
X1097Y7317D01*
Y7317D01*
X1097Y7318D01*
Y7318D01*
X1097Y7319D01*
X1097Y7320D01*
Y7321D01*
X1097Y7323D01*
Y7325D01*
Y7354D01*
X1104D01*
Y7328D01*
Y7328D01*
Y7327D01*
Y7327D01*
Y7327D01*
Y7326D01*
X1105Y7324D01*
Y7323D01*
X1105Y7322D01*
X1105Y7320D01*
X1105Y7319D01*
Y7319D01*
X1105Y7319D01*
X1105Y7318D01*
X1106Y7318D01*
X1106Y7317D01*
X1107Y7316D01*
X1107Y7315D01*
X1108Y7315D01*
X1108Y7314D01*
X1108Y7314D01*
X1109Y7314D01*
X1110Y7314D01*
X1111Y7313D01*
X1111Y7313D01*
X1113Y7313D01*
X1114Y7313D01*
X1115D01*
X1115Y7313D01*
X1116Y7313D01*
X1117Y7313D01*
X1118Y7314D01*
X1119Y7314D01*
X1120Y7315D01*
X1121Y7315D01*
X1121Y7315D01*
X1122Y7315D01*
X1122Y7316D01*
X1123Y7317D01*
X1124Y7317D01*
X1124Y7318D01*
X1125Y7319D01*
X1125Y7320D01*
X1125Y7320D01*
X1125Y7321D01*
X1126Y7322D01*
X1126Y7323D01*
X1126Y7325D01*
X1126Y7327D01*
X1126Y7329D01*
Y7354D01*
X1134D01*
Y7307D01*
D02*
G37*
G36*
X1501Y7326D02*
X1477D01*
Y7334D01*
X1501D01*
Y7326D01*
D02*
G37*
G36*
X2116Y7297D02*
X2108D01*
X2091Y7344D01*
X2099D01*
X2109Y7316D01*
X2109Y7316D01*
X2109Y7315D01*
X2110Y7314D01*
X2110Y7313D01*
X2110Y7312D01*
X2111Y7310D01*
X2112Y7308D01*
X2112Y7307D01*
X2112Y7307D01*
X2112Y7307D01*
X2112Y7308D01*
X2113Y7309D01*
X2113Y7310D01*
X2114Y7312D01*
X2114Y7313D01*
X2115Y7315D01*
X2125Y7344D01*
X2133D01*
X2116Y7297D01*
D02*
G37*
G36*
X2152D02*
X2143D01*
Y7306D01*
X2152D01*
Y7297D01*
D02*
G37*
G36*
X1650Y7326D02*
X1626D01*
Y7334D01*
X1650D01*
Y7326D01*
D02*
G37*
G36*
X2185Y7362D02*
X2186Y7361D01*
X2188Y7361D01*
X2189Y7361D01*
X2191Y7360D01*
X2193Y7359D01*
X2193D01*
X2193Y7359D01*
X2193Y7359D01*
X2194Y7358D01*
X2195Y7358D01*
X2196Y7357D01*
X2197Y7356D01*
X2199Y7355D01*
X2200Y7353D01*
X2200Y7353D01*
X2200Y7352D01*
X2200Y7352D01*
X2201Y7351D01*
X2201Y7349D01*
X2201Y7348D01*
X2202Y7347D01*
X2202Y7345D01*
Y7345D01*
Y7344D01*
X2202Y7344D01*
X2202Y7343D01*
X2201Y7341D01*
X2201Y7340D01*
X2200Y7339D01*
X2200Y7337D01*
X2200Y7337D01*
X2199Y7337D01*
X2199Y7336D01*
X2198Y7336D01*
X2197Y7335D01*
X2196Y7334D01*
X2195Y7333D01*
X2193Y7332D01*
X2193D01*
X2193Y7332D01*
X2194D01*
X2194Y7332D01*
X2195Y7331D01*
X2196Y7331D01*
X2198Y7330D01*
X2199Y7329D01*
X2201Y7328D01*
X2202Y7327D01*
X2202Y7326D01*
X2202Y7326D01*
X2203Y7325D01*
X2203Y7324D01*
X2204Y7322D01*
X2205Y7320D01*
X2205Y7318D01*
X2205Y7316D01*
Y7316D01*
Y7316D01*
Y7315D01*
X2205Y7315D01*
X2205Y7314D01*
X2205Y7313D01*
X2205Y7312D01*
X2204Y7311D01*
X2204Y7309D01*
X2203Y7308D01*
X2202Y7307D01*
X2202Y7305D01*
X2201Y7304D01*
X2200Y7303D01*
X2199Y7302D01*
X2199Y7302D01*
X2199Y7302D01*
X2198Y7301D01*
X2198Y7301D01*
X2197Y7301D01*
X2196Y7300D01*
X2196Y7300D01*
X2195Y7299D01*
X2194Y7299D01*
X2192Y7298D01*
X2191Y7298D01*
X2190Y7297D01*
X2188Y7297D01*
X2187Y7296D01*
X2185Y7296D01*
X2183Y7296D01*
X2183D01*
X2182Y7296D01*
X2181Y7296D01*
X2181Y7296D01*
X2180Y7297D01*
X2179Y7297D01*
X2176Y7297D01*
X2174Y7298D01*
X2173Y7299D01*
X2172Y7299D01*
X2171Y7300D01*
X2169Y7301D01*
X2169Y7301D01*
X2169Y7301D01*
X2169Y7302D01*
X2169Y7302D01*
X2168Y7303D01*
X2168Y7303D01*
X2167Y7304D01*
X2167Y7305D01*
X2165Y7307D01*
X2165Y7309D01*
X2164Y7311D01*
X2163Y7313D01*
X2163Y7314D01*
X2171Y7315D01*
Y7315D01*
X2171Y7315D01*
Y7315D01*
X2171Y7314D01*
X2172Y7313D01*
X2172Y7312D01*
X2173Y7310D01*
X2173Y7308D01*
X2174Y7307D01*
X2176Y7306D01*
X2176Y7306D01*
X2176Y7305D01*
X2177Y7305D01*
X2178Y7304D01*
X2179Y7304D01*
X2180Y7303D01*
X2182Y7303D01*
X2183Y7303D01*
X2184D01*
X2184Y7303D01*
X2185Y7303D01*
X2187Y7303D01*
X2188Y7304D01*
X2190Y7304D01*
X2191Y7305D01*
X2193Y7307D01*
X2193Y7307D01*
X2193Y7307D01*
X2194Y7308D01*
X2195Y7309D01*
X2195Y7311D01*
X2196Y7312D01*
X2196Y7314D01*
X2197Y7316D01*
Y7316D01*
Y7316D01*
Y7317D01*
X2197Y7317D01*
X2196Y7318D01*
X2196Y7319D01*
X2196Y7321D01*
X2195Y7322D01*
X2194Y7324D01*
X2193Y7325D01*
X2193Y7325D01*
X2192Y7326D01*
X2192Y7326D01*
X2191Y7327D01*
X2189Y7327D01*
X2188Y7328D01*
X2186Y7328D01*
X2184Y7328D01*
X2183D01*
X2183Y7328D01*
X2182Y7328D01*
X2181Y7328D01*
X2180Y7328D01*
X2179Y7328D01*
X2179Y7335D01*
X2180D01*
X2180Y7335D01*
X2182D01*
X2182Y7335D01*
X2184Y7335D01*
X2185Y7335D01*
X2187Y7336D01*
X2188Y7336D01*
X2190Y7337D01*
X2190Y7337D01*
X2190Y7338D01*
X2191Y7338D01*
X2192Y7339D01*
X2193Y7340D01*
X2193Y7342D01*
X2194Y7343D01*
X2194Y7345D01*
Y7345D01*
Y7345D01*
Y7346D01*
X2194Y7347D01*
X2193Y7348D01*
X2193Y7349D01*
X2193Y7350D01*
X2192Y7351D01*
X2191Y7352D01*
X2191Y7352D01*
X2190Y7353D01*
X2190Y7353D01*
X2189Y7354D01*
X2188Y7354D01*
X2186Y7355D01*
X2185Y7355D01*
X2183Y7355D01*
X2183D01*
X2182Y7355D01*
X2181Y7355D01*
X2179Y7355D01*
X2178Y7354D01*
X2177Y7353D01*
X2176Y7352D01*
X2176Y7352D01*
X2175Y7352D01*
X2175Y7351D01*
X2174Y7350D01*
X2173Y7349D01*
X2173Y7348D01*
X2172Y7346D01*
X2172Y7344D01*
X2164Y7345D01*
Y7345D01*
X2164Y7345D01*
X2164Y7346D01*
X2164Y7346D01*
X2164Y7347D01*
X2165Y7348D01*
X2165Y7350D01*
X2166Y7352D01*
X2167Y7354D01*
X2169Y7356D01*
X2170Y7357D01*
X2170Y7357D01*
X2171Y7357D01*
X2171Y7358D01*
X2171Y7358D01*
X2172Y7358D01*
X2172Y7359D01*
X2174Y7360D01*
X2176Y7360D01*
X2178Y7361D01*
X2180Y7361D01*
X2182Y7362D01*
X2184D01*
X2185Y7362D01*
D02*
G37*
G36*
X771Y7307D02*
X763D01*
Y7354D01*
X771D01*
Y7307D01*
D02*
G37*
G36*
X1536Y7371D02*
X1537D01*
X1538Y7371D01*
X1540Y7371D01*
X1542Y7370D01*
X1544Y7370D01*
X1546Y7369D01*
X1546D01*
X1546Y7369D01*
X1547Y7369D01*
X1547Y7368D01*
X1548Y7368D01*
X1550Y7367D01*
X1551Y7366D01*
X1552Y7365D01*
X1553Y7363D01*
X1553Y7363D01*
X1553Y7363D01*
X1554Y7362D01*
X1554Y7361D01*
X1555Y7359D01*
X1555Y7358D01*
X1555Y7356D01*
X1555Y7355D01*
Y7355D01*
Y7354D01*
X1555Y7353D01*
X1555Y7352D01*
X1555Y7351D01*
X1554Y7350D01*
X1554Y7348D01*
X1553Y7347D01*
X1553Y7347D01*
X1553Y7346D01*
X1552Y7346D01*
X1551Y7345D01*
X1550Y7344D01*
X1549Y7343D01*
X1548Y7342D01*
X1546Y7341D01*
X1546D01*
X1547Y7341D01*
X1547Y7341D01*
X1547Y7341D01*
X1548Y7340D01*
X1550Y7340D01*
X1551Y7339D01*
X1553Y7338D01*
X1554Y7337D01*
X1555Y7335D01*
X1555Y7335D01*
X1556Y7335D01*
X1556Y7334D01*
X1557Y7333D01*
X1558Y7331D01*
X1558Y7330D01*
X1558Y7328D01*
X1559Y7326D01*
Y7325D01*
Y7325D01*
X1558Y7324D01*
X1558Y7323D01*
X1558Y7322D01*
X1558Y7320D01*
X1557Y7319D01*
X1557Y7317D01*
X1556Y7317D01*
X1556Y7317D01*
X1556Y7316D01*
X1555Y7315D01*
X1555Y7314D01*
X1554Y7313D01*
X1553Y7312D01*
X1552Y7311D01*
X1552Y7311D01*
X1551Y7311D01*
X1551Y7311D01*
X1550Y7310D01*
X1549Y7310D01*
X1548Y7309D01*
X1546Y7309D01*
X1545Y7308D01*
X1545D01*
X1544Y7308D01*
X1543Y7308D01*
X1542Y7308D01*
X1540Y7307D01*
X1539Y7307D01*
X1537Y7307D01*
X1510D01*
Y7371D01*
X1535D01*
X1536Y7371D01*
D02*
G37*
G36*
X549Y7354D02*
X557D01*
Y7347D01*
X549D01*
Y7320D01*
Y7320D01*
Y7320D01*
Y7319D01*
X549Y7318D01*
X549Y7317D01*
X549Y7316D01*
X549Y7316D01*
X549Y7316D01*
X549Y7315D01*
X550Y7315D01*
X550Y7314D01*
X550Y7314D01*
X551Y7314D01*
X552Y7314D01*
X553Y7314D01*
X554D01*
X554Y7314D01*
X555D01*
X557Y7314D01*
X558Y7307D01*
X557D01*
X557Y7307D01*
X556Y7307D01*
X556Y7307D01*
X555Y7307D01*
X554Y7307D01*
X552Y7307D01*
X551D01*
X550Y7307D01*
X549Y7307D01*
X548Y7307D01*
X547Y7307D01*
X546Y7307D01*
X545Y7308D01*
X545Y7308D01*
X545Y7308D01*
X544Y7308D01*
X544Y7309D01*
X543Y7309D01*
X543Y7310D01*
X542Y7311D01*
X542Y7311D01*
Y7311D01*
X542Y7312D01*
X541Y7312D01*
X541Y7313D01*
X541Y7315D01*
X541Y7315D01*
X541Y7316D01*
Y7317D01*
X541Y7318D01*
Y7319D01*
Y7321D01*
Y7347D01*
X535D01*
Y7354D01*
X541D01*
Y7365D01*
X549Y7370D01*
Y7354D01*
D02*
G37*
G36*
X751Y7307D02*
X743D01*
Y7371D01*
X751D01*
Y7307D01*
D02*
G37*
G36*
X1772D02*
X1763D01*
X1755Y7327D01*
X1728D01*
X1721Y7307D01*
X1712D01*
X1737Y7371D01*
X1746D01*
X1772Y7307D01*
D02*
G37*
G36*
X993Y7355D02*
X994Y7354D01*
X995Y7354D01*
X996Y7354D01*
X997Y7354D01*
X999Y7353D01*
X1000Y7353D01*
X1002Y7352D01*
X1003Y7351D01*
X1004Y7350D01*
X1005Y7349D01*
X1006Y7348D01*
X1007Y7348D01*
X1007Y7348D01*
X1007Y7347D01*
X1007Y7347D01*
X1008Y7346D01*
X1008Y7346D01*
X1009Y7345D01*
X1010Y7344D01*
X1010Y7342D01*
X1011Y7341D01*
X1011Y7340D01*
X1012Y7338D01*
X1012Y7336D01*
X1012Y7334D01*
X1012Y7332D01*
X1012Y7330D01*
Y7330D01*
Y7330D01*
Y7329D01*
X1012Y7328D01*
X978D01*
Y7328D01*
Y7328D01*
X978Y7327D01*
Y7327D01*
X978Y7326D01*
X978Y7326D01*
X978Y7324D01*
X979Y7322D01*
X980Y7320D01*
X981Y7318D01*
X982Y7316D01*
X982Y7316D01*
X983Y7316D01*
X984Y7315D01*
X985Y7315D01*
X986Y7314D01*
X988Y7313D01*
X990Y7313D01*
X992Y7312D01*
X993D01*
X993Y7313D01*
X994Y7313D01*
X995Y7313D01*
X997Y7313D01*
X998Y7314D01*
X999Y7315D01*
X999Y7315D01*
X1000Y7315D01*
X1000Y7316D01*
X1001Y7317D01*
X1002Y7318D01*
X1002Y7319D01*
X1003Y7320D01*
X1004Y7322D01*
X1012Y7321D01*
Y7321D01*
X1012Y7321D01*
X1012Y7320D01*
X1012Y7320D01*
X1012Y7319D01*
X1011Y7319D01*
X1010Y7317D01*
X1010Y7315D01*
X1008Y7313D01*
X1007Y7311D01*
X1005Y7310D01*
X1005D01*
X1005Y7310D01*
X1005Y7310D01*
X1004Y7309D01*
X1004Y7309D01*
X1003Y7309D01*
X1002Y7308D01*
X1001Y7308D01*
X1000Y7307D01*
X997Y7307D01*
X995Y7306D01*
X992Y7306D01*
X991D01*
X990Y7306D01*
X989Y7306D01*
X988Y7306D01*
X987Y7307D01*
X986Y7307D01*
X983Y7308D01*
X982Y7308D01*
X981Y7309D01*
X979Y7309D01*
X978Y7310D01*
X977Y7311D01*
X976Y7312D01*
X976Y7312D01*
X975Y7313D01*
X975Y7313D01*
X975Y7313D01*
X974Y7314D01*
X974Y7315D01*
X973Y7316D01*
X973Y7317D01*
X972Y7318D01*
X972Y7319D01*
X971Y7321D01*
X971Y7322D01*
X970Y7324D01*
X970Y7326D01*
X970Y7328D01*
X970Y7330D01*
Y7330D01*
Y7330D01*
Y7331D01*
X970Y7332D01*
X970Y7333D01*
X970Y7334D01*
X970Y7335D01*
X970Y7337D01*
X971Y7339D01*
X972Y7341D01*
X972Y7343D01*
X973Y7344D01*
X974Y7345D01*
X975Y7347D01*
X976Y7348D01*
X976Y7348D01*
X976Y7348D01*
X976Y7349D01*
X977Y7349D01*
X977Y7350D01*
X978Y7350D01*
X979Y7351D01*
X980Y7351D01*
X981Y7352D01*
X982Y7353D01*
X983Y7353D01*
X985Y7354D01*
X986Y7354D01*
X988Y7354D01*
X989Y7355D01*
X991Y7355D01*
X992D01*
X993Y7355D01*
D02*
G37*
G36*
X848D02*
X849Y7354D01*
X850Y7354D01*
X851Y7354D01*
X852Y7354D01*
X855Y7353D01*
X856Y7353D01*
X857Y7352D01*
X859Y7351D01*
X860Y7350D01*
X861Y7349D01*
X862Y7348D01*
X862Y7348D01*
X862Y7348D01*
X863Y7347D01*
X863Y7347D01*
X863Y7346D01*
X864Y7346D01*
X865Y7345D01*
X865Y7344D01*
X866Y7342D01*
X866Y7341D01*
X867Y7340D01*
X867Y7338D01*
X867Y7336D01*
X868Y7334D01*
X868Y7332D01*
X868Y7330D01*
Y7330D01*
Y7330D01*
Y7329D01*
X868Y7328D01*
X833D01*
Y7328D01*
Y7328D01*
X834Y7327D01*
Y7327D01*
X834Y7326D01*
X834Y7326D01*
X834Y7324D01*
X835Y7322D01*
X835Y7320D01*
X836Y7318D01*
X838Y7316D01*
X838Y7316D01*
X838Y7316D01*
X839Y7315D01*
X840Y7315D01*
X842Y7314D01*
X843Y7313D01*
X845Y7313D01*
X847Y7312D01*
X848D01*
X849Y7313D01*
X850Y7313D01*
X851Y7313D01*
X852Y7313D01*
X854Y7314D01*
X855Y7315D01*
X855Y7315D01*
X855Y7315D01*
X856Y7316D01*
X857Y7317D01*
X857Y7318D01*
X858Y7319D01*
X859Y7320D01*
X860Y7322D01*
X868Y7321D01*
Y7321D01*
X868Y7321D01*
X868Y7320D01*
X867Y7320D01*
X867Y7319D01*
X867Y7319D01*
X866Y7317D01*
X865Y7315D01*
X864Y7313D01*
X862Y7311D01*
X861Y7310D01*
X861D01*
X860Y7310D01*
X860Y7310D01*
X860Y7309D01*
X859Y7309D01*
X859Y7309D01*
X858Y7308D01*
X857Y7308D01*
X855Y7307D01*
X853Y7307D01*
X850Y7306D01*
X847Y7306D01*
X846D01*
X846Y7306D01*
X845Y7306D01*
X844Y7306D01*
X843Y7307D01*
X842Y7307D01*
X839Y7308D01*
X838Y7308D01*
X836Y7309D01*
X835Y7309D01*
X834Y7310D01*
X832Y7311D01*
X831Y7312D01*
X831Y7312D01*
X831Y7313D01*
X831Y7313D01*
X830Y7313D01*
X830Y7314D01*
X829Y7315D01*
X829Y7316D01*
X828Y7317D01*
X828Y7318D01*
X827Y7319D01*
X827Y7321D01*
X826Y7322D01*
X826Y7324D01*
X826Y7326D01*
X825Y7328D01*
X825Y7330D01*
Y7330D01*
Y7330D01*
Y7331D01*
X825Y7332D01*
X826Y7333D01*
X826Y7334D01*
X826Y7335D01*
X826Y7337D01*
X827Y7339D01*
X827Y7341D01*
X828Y7343D01*
X829Y7344D01*
X829Y7345D01*
X830Y7347D01*
X831Y7348D01*
X831Y7348D01*
X832Y7348D01*
X832Y7349D01*
X832Y7349D01*
X833Y7350D01*
X834Y7350D01*
X835Y7351D01*
X835Y7351D01*
X837Y7352D01*
X838Y7353D01*
X839Y7353D01*
X840Y7354D01*
X842Y7354D01*
X843Y7354D01*
X845Y7355D01*
X847Y7355D01*
X848D01*
X848Y7355D01*
D02*
G37*
G36*
X223Y7372D02*
X224D01*
X225Y7372D01*
X226Y7372D01*
X227Y7372D01*
X230Y7371D01*
X232Y7370D01*
X235Y7369D01*
X237Y7369D01*
X238Y7368D01*
X238D01*
X239Y7368D01*
X239Y7368D01*
X239Y7367D01*
X240Y7367D01*
X241Y7366D01*
X243Y7365D01*
X245Y7363D01*
X247Y7361D01*
X249Y7359D01*
X250Y7356D01*
X251Y7356D01*
X251Y7355D01*
X251Y7355D01*
X251Y7354D01*
X252Y7354D01*
X252Y7353D01*
X252Y7352D01*
X253Y7351D01*
X253Y7350D01*
X253Y7348D01*
X254Y7345D01*
X255Y7342D01*
X255Y7341D01*
Y7339D01*
Y7339D01*
Y7339D01*
Y7338D01*
X255Y7338D01*
Y7337D01*
X255Y7336D01*
X255Y7335D01*
X254Y7334D01*
X254Y7331D01*
X253Y7329D01*
X252Y7326D01*
X251Y7324D01*
X251Y7323D01*
Y7323D01*
X250Y7323D01*
X250Y7322D01*
X250Y7322D01*
X249Y7321D01*
X249Y7320D01*
X247Y7318D01*
X246Y7316D01*
X244Y7314D01*
X241Y7312D01*
X238Y7311D01*
X238D01*
X238Y7310D01*
X238Y7310D01*
X237Y7310D01*
X236Y7310D01*
X235Y7309D01*
X234Y7309D01*
X233Y7308D01*
X232Y7308D01*
X231Y7308D01*
X228Y7307D01*
X225Y7307D01*
X224Y7306D01*
X222Y7306D01*
X221D01*
X221Y7306D01*
X220D01*
X219Y7307D01*
X218Y7307D01*
X217Y7307D01*
X214Y7307D01*
X211Y7308D01*
X208Y7309D01*
X207Y7310D01*
X205Y7311D01*
X205Y7311D01*
X205Y7311D01*
X205Y7311D01*
X204Y7311D01*
X204Y7312D01*
X203Y7312D01*
X201Y7314D01*
X199Y7315D01*
X197Y7318D01*
X195Y7320D01*
X193Y7323D01*
Y7323D01*
X193Y7323D01*
X193Y7324D01*
X193Y7324D01*
X192Y7325D01*
X192Y7326D01*
X192Y7327D01*
X191Y7328D01*
X191Y7329D01*
X190Y7330D01*
X190Y7333D01*
X189Y7336D01*
X189Y7338D01*
X189Y7339D01*
Y7339D01*
Y7340D01*
Y7340D01*
X189Y7341D01*
Y7341D01*
X189Y7342D01*
X189Y7343D01*
X190Y7345D01*
X190Y7347D01*
X191Y7350D01*
X192Y7353D01*
X193Y7354D01*
X193Y7356D01*
X193Y7356D01*
X194Y7356D01*
X194Y7357D01*
X194Y7357D01*
X195Y7358D01*
X195Y7359D01*
X197Y7360D01*
X198Y7362D01*
X200Y7364D01*
X203Y7366D01*
X206Y7368D01*
X206Y7368D01*
X206Y7368D01*
X206Y7368D01*
X207Y7369D01*
X208Y7369D01*
X209Y7369D01*
X210Y7370D01*
X211Y7370D01*
X213Y7371D01*
X216Y7372D01*
X219Y7372D01*
X220Y7372D01*
X223D01*
X223Y7372D01*
D02*
G37*
G36*
X1267Y7355D02*
X1267Y7354D01*
X1268Y7354D01*
X1269Y7354D01*
X1270Y7354D01*
X1273Y7353D01*
X1274Y7353D01*
X1275Y7352D01*
X1277Y7351D01*
X1278Y7350D01*
X1279Y7349D01*
X1280Y7348D01*
X1280Y7348D01*
X1281Y7348D01*
X1281Y7347D01*
X1281Y7347D01*
X1282Y7346D01*
X1282Y7346D01*
X1283Y7345D01*
X1283Y7344D01*
X1284Y7342D01*
X1284Y7341D01*
X1285Y7340D01*
X1285Y7338D01*
X1286Y7336D01*
X1286Y7334D01*
X1286Y7332D01*
X1286Y7330D01*
Y7330D01*
Y7330D01*
Y7329D01*
X1286Y7328D01*
X1252D01*
Y7328D01*
Y7328D01*
X1252Y7327D01*
Y7327D01*
X1252Y7326D01*
X1252Y7326D01*
X1252Y7324D01*
X1253Y7322D01*
X1253Y7320D01*
X1255Y7318D01*
X1256Y7316D01*
X1256Y7316D01*
X1257Y7316D01*
X1257Y7315D01*
X1258Y7315D01*
X1260Y7314D01*
X1262Y7313D01*
X1263Y7313D01*
X1266Y7312D01*
X1266D01*
X1267Y7313D01*
X1268Y7313D01*
X1269Y7313D01*
X1270Y7313D01*
X1272Y7314D01*
X1273Y7315D01*
X1273Y7315D01*
X1273Y7315D01*
X1274Y7316D01*
X1275Y7317D01*
X1275Y7318D01*
X1276Y7319D01*
X1277Y7320D01*
X1278Y7322D01*
X1286Y7321D01*
Y7321D01*
X1286Y7321D01*
X1286Y7320D01*
X1286Y7320D01*
X1285Y7319D01*
X1285Y7319D01*
X1284Y7317D01*
X1283Y7315D01*
X1282Y7313D01*
X1281Y7311D01*
X1279Y7310D01*
X1279D01*
X1279Y7310D01*
X1278Y7310D01*
X1278Y7309D01*
X1277Y7309D01*
X1277Y7309D01*
X1276Y7308D01*
X1275Y7308D01*
X1273Y7307D01*
X1271Y7307D01*
X1268Y7306D01*
X1266Y7306D01*
X1265D01*
X1264Y7306D01*
X1263Y7306D01*
X1262Y7306D01*
X1261Y7307D01*
X1260Y7307D01*
X1257Y7308D01*
X1256Y7308D01*
X1254Y7309D01*
X1253Y7309D01*
X1252Y7310D01*
X1251Y7311D01*
X1249Y7312D01*
X1249Y7312D01*
X1249Y7313D01*
X1249Y7313D01*
X1249Y7313D01*
X1248Y7314D01*
X1248Y7315D01*
X1247Y7316D01*
X1246Y7317D01*
X1246Y7318D01*
X1245Y7319D01*
X1245Y7321D01*
X1244Y7322D01*
X1244Y7324D01*
X1244Y7326D01*
X1244Y7328D01*
X1243Y7330D01*
Y7330D01*
Y7330D01*
Y7331D01*
X1244Y7332D01*
X1244Y7333D01*
X1244Y7334D01*
X1244Y7335D01*
X1244Y7337D01*
X1245Y7339D01*
X1245Y7341D01*
X1246Y7343D01*
X1247Y7344D01*
X1247Y7345D01*
X1248Y7347D01*
X1249Y7348D01*
X1249Y7348D01*
X1250Y7348D01*
X1250Y7349D01*
X1250Y7349D01*
X1251Y7350D01*
X1252Y7350D01*
X1253Y7351D01*
X1254Y7351D01*
X1255Y7352D01*
X1256Y7353D01*
X1257Y7353D01*
X1259Y7354D01*
X1260Y7354D01*
X1262Y7354D01*
X1263Y7355D01*
X1265Y7355D01*
X1266D01*
X1267Y7355D01*
D02*
G37*
G36*
X803D02*
X804D01*
X804Y7354D01*
X806Y7354D01*
X808Y7354D01*
X810Y7353D01*
X812Y7352D01*
X814Y7351D01*
X814D01*
X814Y7351D01*
X815Y7350D01*
X816Y7349D01*
X817Y7348D01*
X818Y7346D01*
X819Y7345D01*
X820Y7342D01*
X820Y7340D01*
X813Y7339D01*
Y7339D01*
X813Y7339D01*
X813Y7339D01*
X812Y7340D01*
X812Y7341D01*
X811Y7343D01*
X811Y7344D01*
X810Y7345D01*
X809Y7346D01*
X809Y7346D01*
X808Y7346D01*
X808Y7347D01*
X807Y7347D01*
X806Y7347D01*
X805Y7348D01*
X804Y7348D01*
X802Y7348D01*
X802D01*
X801Y7348D01*
X800Y7348D01*
X799Y7348D01*
X797Y7347D01*
X796Y7346D01*
X794Y7345D01*
X793Y7345D01*
X793Y7344D01*
X792Y7344D01*
X792Y7343D01*
X792Y7343D01*
X792Y7343D01*
X791Y7342D01*
X791Y7341D01*
X791Y7341D01*
X790Y7340D01*
X790Y7339D01*
X790Y7338D01*
X790Y7336D01*
X789Y7335D01*
X789Y7334D01*
X789Y7332D01*
Y7330D01*
Y7330D01*
Y7330D01*
Y7329D01*
X789Y7329D01*
Y7328D01*
X789Y7327D01*
X789Y7325D01*
X790Y7323D01*
X790Y7321D01*
X791Y7319D01*
X792Y7318D01*
X792Y7317D01*
X793Y7316D01*
X793Y7316D01*
X794Y7315D01*
X795Y7315D01*
X796Y7314D01*
X798Y7313D01*
X800Y7313D01*
X801Y7313D01*
X802Y7312D01*
X802D01*
X803Y7313D01*
X804Y7313D01*
X806Y7313D01*
X807Y7314D01*
X808Y7314D01*
X809Y7315D01*
X810Y7315D01*
X810Y7316D01*
X810Y7316D01*
X811Y7317D01*
X812Y7319D01*
X812Y7320D01*
X813Y7322D01*
X813Y7324D01*
X821Y7323D01*
Y7323D01*
X821Y7323D01*
X821Y7322D01*
X821Y7322D01*
X821Y7321D01*
X820Y7320D01*
X820Y7318D01*
X819Y7316D01*
X818Y7314D01*
X816Y7312D01*
X815Y7311D01*
X814D01*
X814Y7310D01*
X814Y7310D01*
X814Y7310D01*
X813Y7309D01*
X813Y7309D01*
X811Y7308D01*
X809Y7307D01*
X807Y7307D01*
X805Y7306D01*
X803Y7306D01*
X802Y7306D01*
X801D01*
X800Y7306D01*
X799Y7306D01*
X798Y7306D01*
X798Y7307D01*
X796Y7307D01*
X794Y7307D01*
X793Y7308D01*
X791Y7309D01*
X790Y7309D01*
X789Y7310D01*
X788Y7311D01*
X787Y7312D01*
X786Y7312D01*
X786Y7312D01*
X786Y7313D01*
X786Y7313D01*
X785Y7314D01*
X785Y7315D01*
X784Y7316D01*
X784Y7317D01*
X783Y7318D01*
X783Y7319D01*
X782Y7321D01*
X782Y7322D01*
X781Y7324D01*
X781Y7326D01*
X781Y7328D01*
X781Y7330D01*
Y7330D01*
Y7330D01*
Y7331D01*
Y7331D01*
X781Y7332D01*
Y7333D01*
X781Y7335D01*
X781Y7337D01*
X782Y7339D01*
X782Y7341D01*
X783Y7343D01*
Y7343D01*
X783Y7344D01*
X784Y7344D01*
X784Y7344D01*
X784Y7345D01*
X785Y7347D01*
X786Y7348D01*
X787Y7349D01*
X789Y7351D01*
X791Y7352D01*
X791D01*
X791Y7352D01*
X791Y7352D01*
X792Y7352D01*
X793Y7353D01*
X794Y7353D01*
X796Y7354D01*
X798Y7354D01*
X800Y7355D01*
X802Y7355D01*
X803D01*
X803Y7355D01*
D02*
G37*
G36*
X1059Y7307D02*
X1052D01*
Y7313D01*
X1052Y7313D01*
X1052Y7313D01*
X1052Y7312D01*
X1051Y7312D01*
X1051Y7311D01*
X1050Y7311D01*
X1050Y7310D01*
X1049Y7309D01*
X1048Y7309D01*
X1047Y7308D01*
X1046Y7308D01*
X1045Y7307D01*
X1043Y7307D01*
X1042Y7306D01*
X1041Y7306D01*
X1039Y7306D01*
X1038D01*
X1038Y7306D01*
X1037Y7306D01*
X1036Y7306D01*
X1034Y7307D01*
X1032Y7307D01*
X1031Y7308D01*
X1029Y7309D01*
X1029D01*
X1029Y7309D01*
X1028Y7310D01*
X1027Y7310D01*
X1026Y7311D01*
X1025Y7312D01*
X1024Y7314D01*
X1023Y7316D01*
X1022Y7318D01*
Y7318D01*
X1022Y7318D01*
X1022Y7318D01*
X1021Y7319D01*
X1021Y7319D01*
X1021Y7320D01*
X1020Y7321D01*
X1020Y7323D01*
X1020Y7325D01*
X1019Y7328D01*
X1019Y7330D01*
Y7330D01*
Y7331D01*
Y7331D01*
Y7331D01*
X1019Y7332D01*
Y7333D01*
X1019Y7334D01*
X1020Y7336D01*
X1020Y7338D01*
X1021Y7341D01*
X1021Y7343D01*
Y7343D01*
X1022Y7343D01*
X1022Y7343D01*
X1022Y7344D01*
X1022Y7345D01*
X1023Y7346D01*
X1024Y7347D01*
X1025Y7349D01*
X1027Y7350D01*
X1028Y7352D01*
X1028D01*
X1029Y7352D01*
X1029Y7352D01*
X1030Y7353D01*
X1031Y7353D01*
X1033Y7354D01*
X1035Y7354D01*
X1037Y7355D01*
X1039Y7355D01*
X1039D01*
X1040Y7355D01*
X1041Y7354D01*
X1042Y7354D01*
X1044Y7354D01*
X1045Y7353D01*
X1046Y7353D01*
X1046Y7353D01*
X1047Y7352D01*
X1047Y7352D01*
X1048Y7351D01*
X1049Y7351D01*
X1050Y7350D01*
X1051Y7349D01*
X1051Y7348D01*
Y7371D01*
X1059D01*
Y7307D01*
D02*
G37*
G36*
X1234D02*
X1226D01*
Y7313D01*
X1226Y7313D01*
X1226Y7313D01*
X1226Y7312D01*
X1225Y7312D01*
X1225Y7311D01*
X1224Y7311D01*
X1224Y7310D01*
X1223Y7309D01*
X1222Y7309D01*
X1221Y7308D01*
X1220Y7308D01*
X1219Y7307D01*
X1218Y7307D01*
X1216Y7306D01*
X1215Y7306D01*
X1213Y7306D01*
X1213D01*
X1212Y7306D01*
X1211Y7306D01*
X1210Y7306D01*
X1208Y7307D01*
X1207Y7307D01*
X1205Y7308D01*
X1203Y7309D01*
X1203D01*
X1203Y7309D01*
X1202Y7310D01*
X1201Y7310D01*
X1200Y7311D01*
X1199Y7312D01*
X1198Y7314D01*
X1197Y7316D01*
X1196Y7318D01*
Y7318D01*
X1196Y7318D01*
X1196Y7318D01*
X1196Y7319D01*
X1195Y7319D01*
X1195Y7320D01*
X1195Y7321D01*
X1194Y7323D01*
X1194Y7325D01*
X1193Y7328D01*
X1193Y7330D01*
Y7330D01*
Y7331D01*
Y7331D01*
Y7331D01*
X1193Y7332D01*
Y7333D01*
X1194Y7334D01*
X1194Y7336D01*
X1194Y7338D01*
X1195Y7341D01*
X1196Y7343D01*
Y7343D01*
X1196Y7343D01*
X1196Y7343D01*
X1196Y7344D01*
X1197Y7345D01*
X1197Y7346D01*
X1198Y7347D01*
X1200Y7349D01*
X1201Y7350D01*
X1203Y7352D01*
X1203D01*
X1203Y7352D01*
X1203Y7352D01*
X1204Y7353D01*
X1206Y7353D01*
X1207Y7354D01*
X1209Y7354D01*
X1211Y7355D01*
X1213Y7355D01*
X1214D01*
X1214Y7355D01*
X1215Y7354D01*
X1217Y7354D01*
X1218Y7354D01*
X1219Y7353D01*
X1220Y7353D01*
X1221Y7353D01*
X1221Y7352D01*
X1221Y7352D01*
X1222Y7351D01*
X1223Y7351D01*
X1224Y7350D01*
X1225Y7349D01*
X1226Y7348D01*
Y7371D01*
X1234D01*
Y7307D01*
D02*
G37*
G36*
X353Y7354D02*
X354Y7354D01*
X356Y7354D01*
X358Y7353D01*
X360Y7353D01*
X361Y7351D01*
X361D01*
X362Y7351D01*
X362Y7351D01*
X363Y7350D01*
X364Y7349D01*
X365Y7348D01*
X366Y7347D01*
X367Y7345D01*
X368Y7343D01*
Y7343D01*
X368Y7343D01*
X368Y7342D01*
X369Y7342D01*
X369Y7341D01*
X369Y7341D01*
X369Y7339D01*
X370Y7337D01*
X370Y7335D01*
X371Y7333D01*
X371Y7331D01*
Y7331D01*
Y7330D01*
Y7330D01*
Y7329D01*
X371Y7329D01*
Y7328D01*
X370Y7326D01*
X370Y7324D01*
X370Y7322D01*
X369Y7320D01*
X368Y7318D01*
Y7318D01*
X368Y7317D01*
X368Y7317D01*
X367Y7317D01*
X367Y7316D01*
X366Y7315D01*
X365Y7313D01*
X364Y7312D01*
X362Y7310D01*
X361Y7309D01*
X360D01*
X360Y7309D01*
X360Y7309D01*
X360Y7309D01*
X359Y7308D01*
X357Y7308D01*
X356Y7307D01*
X354Y7307D01*
X352Y7306D01*
X350Y7306D01*
X350D01*
X349Y7306D01*
X348Y7306D01*
X347Y7306D01*
X346Y7307D01*
X344Y7307D01*
X343Y7308D01*
X343Y7308D01*
X343Y7308D01*
X342Y7308D01*
X342Y7309D01*
X341Y7309D01*
X340Y7310D01*
X339Y7311D01*
X338Y7312D01*
Y7289D01*
X330D01*
Y7354D01*
X338D01*
Y7347D01*
X338Y7348D01*
X338Y7348D01*
X338Y7349D01*
X339Y7349D01*
X340Y7350D01*
X341Y7351D01*
X342Y7352D01*
X343Y7353D01*
X343Y7353D01*
X344Y7353D01*
X344Y7353D01*
X345Y7354D01*
X347Y7354D01*
X348Y7354D01*
X349Y7355D01*
X351Y7355D01*
X352D01*
X353Y7354D01*
D02*
G37*
G36*
X901Y7355D02*
X902Y7354D01*
X903Y7354D01*
X905Y7354D01*
X906Y7354D01*
X907Y7353D01*
X907Y7353D01*
X908Y7353D01*
X908Y7352D01*
X909Y7352D01*
X910Y7351D01*
X911Y7351D01*
X912Y7350D01*
X912Y7349D01*
X913Y7349D01*
X913Y7349D01*
X913Y7348D01*
X913Y7347D01*
X914Y7347D01*
X914Y7346D01*
X915Y7344D01*
X915Y7343D01*
Y7343D01*
X915Y7343D01*
X915Y7342D01*
X915Y7342D01*
Y7340D01*
X915Y7339D01*
X915Y7338D01*
Y7336D01*
Y7307D01*
X908D01*
Y7335D01*
Y7335D01*
Y7335D01*
Y7336D01*
Y7337D01*
X907Y7338D01*
X907Y7339D01*
X907Y7340D01*
X907Y7341D01*
X907Y7342D01*
Y7343D01*
X906Y7343D01*
X906Y7343D01*
X906Y7344D01*
X905Y7344D01*
X905Y7345D01*
X904Y7346D01*
X903Y7346D01*
X903Y7346D01*
X903Y7347D01*
X902Y7347D01*
X902Y7347D01*
X901Y7347D01*
X900Y7348D01*
X899Y7348D01*
X898Y7348D01*
X897D01*
X896Y7348D01*
X895Y7347D01*
X893Y7347D01*
X892Y7346D01*
X891Y7346D01*
X889Y7345D01*
X889Y7344D01*
X889Y7344D01*
X888Y7343D01*
X888Y7343D01*
X887Y7342D01*
X887Y7341D01*
X887Y7340D01*
X886Y7339D01*
X886Y7338D01*
X886Y7337D01*
X886Y7335D01*
X886Y7334D01*
Y7332D01*
Y7307D01*
X878D01*
Y7354D01*
X885D01*
Y7347D01*
X885Y7347D01*
X885Y7347D01*
X885Y7348D01*
X886Y7348D01*
X886Y7349D01*
X887Y7349D01*
X888Y7350D01*
X888Y7351D01*
X890Y7351D01*
X891Y7352D01*
X892Y7353D01*
X893Y7353D01*
X895Y7354D01*
X896Y7354D01*
X898Y7355D01*
X900Y7355D01*
X900D01*
X901Y7355D01*
D02*
G37*
G36*
X1170D02*
X1171Y7354D01*
X1172Y7354D01*
X1173Y7354D01*
X1175Y7354D01*
X1176Y7353D01*
X1176Y7353D01*
X1177Y7353D01*
X1177Y7352D01*
X1178Y7352D01*
X1179Y7351D01*
X1180Y7351D01*
X1181Y7350D01*
X1181Y7349D01*
X1181Y7349D01*
X1182Y7349D01*
X1182Y7348D01*
X1182Y7347D01*
X1183Y7347D01*
X1183Y7346D01*
X1183Y7344D01*
X1184Y7343D01*
Y7343D01*
X1184Y7343D01*
X1184Y7342D01*
X1184Y7342D01*
Y7340D01*
X1184Y7339D01*
X1184Y7338D01*
Y7336D01*
Y7307D01*
X1176D01*
Y7335D01*
Y7335D01*
Y7335D01*
Y7336D01*
Y7337D01*
X1176Y7338D01*
X1176Y7339D01*
X1176Y7340D01*
X1176Y7341D01*
X1175Y7342D01*
Y7343D01*
X1175Y7343D01*
X1175Y7343D01*
X1175Y7344D01*
X1174Y7344D01*
X1174Y7345D01*
X1173Y7346D01*
X1172Y7346D01*
X1172Y7346D01*
X1172Y7347D01*
X1171Y7347D01*
X1171Y7347D01*
X1170Y7347D01*
X1169Y7348D01*
X1168Y7348D01*
X1167Y7348D01*
X1166D01*
X1165Y7348D01*
X1164Y7347D01*
X1162Y7347D01*
X1161Y7346D01*
X1159Y7346D01*
X1158Y7345D01*
X1158Y7344D01*
X1157Y7344D01*
X1157Y7343D01*
X1156Y7343D01*
X1156Y7342D01*
X1156Y7341D01*
X1156Y7340D01*
X1155Y7339D01*
X1155Y7338D01*
X1155Y7337D01*
X1155Y7335D01*
X1154Y7334D01*
Y7332D01*
Y7307D01*
X1146D01*
Y7354D01*
X1154D01*
Y7347D01*
X1154Y7347D01*
X1154Y7347D01*
X1154Y7348D01*
X1155Y7348D01*
X1155Y7349D01*
X1156Y7349D01*
X1156Y7350D01*
X1157Y7351D01*
X1158Y7351D01*
X1159Y7352D01*
X1161Y7353D01*
X1162Y7353D01*
X1163Y7354D01*
X1165Y7354D01*
X1167Y7355D01*
X1168Y7355D01*
X1169D01*
X1170Y7355D01*
D02*
G37*
G36*
X1684Y7372D02*
X1684D01*
X1686Y7372D01*
X1688Y7372D01*
X1690Y7371D01*
X1692Y7371D01*
X1694Y7370D01*
X1694D01*
X1694Y7370D01*
X1695Y7370D01*
X1695Y7370D01*
X1696Y7369D01*
X1697Y7368D01*
X1699Y7367D01*
X1700Y7366D01*
X1701Y7365D01*
X1703Y7363D01*
X1703Y7363D01*
X1703Y7362D01*
X1704Y7361D01*
X1704Y7360D01*
X1705Y7359D01*
X1705Y7357D01*
X1706Y7355D01*
X1706Y7353D01*
X1698Y7353D01*
Y7353D01*
Y7353D01*
X1698Y7353D01*
X1698Y7354D01*
X1697Y7355D01*
X1697Y7356D01*
X1696Y7357D01*
X1696Y7359D01*
X1695Y7360D01*
X1693Y7362D01*
X1693Y7362D01*
X1693Y7362D01*
X1692Y7363D01*
X1691Y7363D01*
X1689Y7364D01*
X1687Y7364D01*
X1685Y7365D01*
X1682Y7365D01*
X1681D01*
X1680Y7365D01*
X1680D01*
X1678Y7364D01*
X1676Y7364D01*
X1674Y7364D01*
X1672Y7363D01*
X1672Y7362D01*
X1671Y7362D01*
X1671Y7362D01*
X1670Y7361D01*
X1670Y7361D01*
X1669Y7360D01*
X1669Y7359D01*
X1668Y7358D01*
X1668Y7357D01*
X1668Y7355D01*
Y7355D01*
Y7355D01*
X1668Y7354D01*
X1668Y7353D01*
X1668Y7352D01*
X1669Y7351D01*
X1669Y7350D01*
X1670Y7349D01*
X1670Y7349D01*
X1671Y7349D01*
X1671Y7349D01*
X1671Y7349D01*
X1672Y7348D01*
X1672Y7348D01*
X1673Y7348D01*
X1674Y7347D01*
X1675Y7347D01*
X1676Y7347D01*
X1678Y7346D01*
X1679Y7346D01*
X1681Y7345D01*
X1683Y7345D01*
X1683D01*
X1683Y7345D01*
X1684Y7345D01*
X1684Y7344D01*
X1685Y7344D01*
X1686Y7344D01*
X1688Y7343D01*
X1691Y7343D01*
X1693Y7342D01*
X1694Y7342D01*
X1695Y7341D01*
X1696Y7341D01*
X1697Y7341D01*
X1697D01*
X1697Y7341D01*
X1697Y7340D01*
X1698Y7340D01*
X1699Y7340D01*
X1700Y7339D01*
X1701Y7338D01*
X1703Y7337D01*
X1704Y7336D01*
X1705Y7334D01*
X1705Y7334D01*
X1705Y7334D01*
X1706Y7333D01*
X1706Y7332D01*
X1707Y7330D01*
X1707Y7329D01*
X1708Y7327D01*
X1708Y7325D01*
Y7325D01*
Y7325D01*
Y7325D01*
Y7324D01*
X1708Y7323D01*
X1707Y7322D01*
X1707Y7321D01*
X1707Y7319D01*
X1706Y7317D01*
X1705Y7315D01*
X1705Y7315D01*
X1704Y7315D01*
X1704Y7314D01*
X1703Y7313D01*
X1702Y7312D01*
X1700Y7311D01*
X1698Y7310D01*
X1696Y7308D01*
X1696D01*
X1696Y7308D01*
X1696Y7308D01*
X1695Y7308D01*
X1695Y7308D01*
X1694Y7308D01*
X1693Y7307D01*
X1691Y7307D01*
X1689Y7306D01*
X1687Y7306D01*
X1684Y7306D01*
X1683D01*
X1682Y7306D01*
X1681D01*
X1680Y7306D01*
X1679Y7306D01*
X1677Y7307D01*
X1674Y7307D01*
X1672Y7308D01*
X1670Y7308D01*
X1669D01*
X1669Y7309D01*
X1669Y7309D01*
X1669Y7309D01*
X1668Y7310D01*
X1666Y7310D01*
X1665Y7311D01*
X1663Y7313D01*
X1662Y7314D01*
X1660Y7316D01*
Y7316D01*
X1660Y7316D01*
X1660Y7317D01*
X1660Y7317D01*
X1660Y7317D01*
X1659Y7318D01*
X1659Y7319D01*
X1658Y7321D01*
X1657Y7323D01*
X1657Y7325D01*
X1657Y7328D01*
X1665Y7328D01*
Y7328D01*
Y7328D01*
X1665Y7328D01*
X1665Y7327D01*
X1665Y7326D01*
X1666Y7324D01*
X1666Y7323D01*
X1667Y7322D01*
X1667Y7320D01*
X1668Y7320D01*
X1668Y7320D01*
X1668Y7319D01*
X1669Y7319D01*
X1670Y7318D01*
X1671Y7317D01*
X1672Y7316D01*
X1674Y7315D01*
X1674D01*
X1674Y7315D01*
X1675Y7315D01*
X1676Y7315D01*
X1677Y7315D01*
X1678Y7314D01*
X1680Y7314D01*
X1682Y7314D01*
X1684Y7314D01*
X1685D01*
X1685Y7314D01*
X1687Y7314D01*
X1688Y7314D01*
X1689Y7314D01*
X1691Y7314D01*
X1692Y7315D01*
X1692Y7315D01*
X1693Y7315D01*
X1693Y7315D01*
X1694Y7316D01*
X1695Y7317D01*
X1696Y7317D01*
X1697Y7318D01*
X1698Y7319D01*
X1698Y7319D01*
X1698Y7319D01*
X1698Y7320D01*
X1699Y7321D01*
X1699Y7321D01*
X1699Y7322D01*
X1700Y7323D01*
X1700Y7324D01*
Y7324D01*
Y7325D01*
X1700Y7325D01*
X1699Y7326D01*
X1699Y7327D01*
X1699Y7328D01*
X1698Y7329D01*
X1698Y7330D01*
X1698Y7330D01*
X1698Y7330D01*
X1697Y7330D01*
X1697Y7331D01*
X1696Y7332D01*
X1695Y7332D01*
X1693Y7333D01*
X1692Y7333D01*
X1692Y7334D01*
X1692Y7334D01*
X1691Y7334D01*
X1690Y7334D01*
X1690Y7334D01*
X1689Y7334D01*
X1688Y7335D01*
X1687Y7335D01*
X1686Y7335D01*
X1685Y7335D01*
X1684Y7336D01*
X1682Y7336D01*
X1681Y7337D01*
X1681D01*
X1680Y7337D01*
X1680Y7337D01*
X1679Y7337D01*
X1679Y7337D01*
X1678Y7337D01*
X1676Y7338D01*
X1674Y7339D01*
X1672Y7339D01*
X1670Y7340D01*
X1669Y7340D01*
X1668Y7341D01*
X1668D01*
X1668Y7341D01*
X1668Y7341D01*
X1667Y7342D01*
X1666Y7342D01*
X1665Y7343D01*
X1664Y7344D01*
X1663Y7345D01*
X1662Y7347D01*
X1661Y7347D01*
X1661Y7347D01*
X1661Y7348D01*
X1660Y7349D01*
X1660Y7350D01*
X1660Y7351D01*
X1659Y7353D01*
X1659Y7355D01*
Y7355D01*
Y7355D01*
Y7355D01*
Y7355D01*
X1660Y7356D01*
X1660Y7357D01*
X1660Y7359D01*
X1660Y7360D01*
X1661Y7362D01*
X1662Y7364D01*
Y7364D01*
X1662Y7364D01*
X1663Y7364D01*
X1663Y7365D01*
X1664Y7366D01*
X1665Y7367D01*
X1667Y7368D01*
X1668Y7369D01*
X1670Y7370D01*
X1670D01*
X1670Y7370D01*
X1671Y7370D01*
X1671Y7370D01*
X1672Y7371D01*
X1672Y7371D01*
X1673Y7371D01*
X1675Y7372D01*
X1677Y7372D01*
X1679Y7372D01*
X1682Y7372D01*
X1683D01*
X1684Y7372D01*
D02*
G37*
G36*
X771Y7362D02*
X763D01*
Y7371D01*
X771D01*
Y7362D01*
D02*
G37*
G36*
X505Y7372D02*
X505D01*
X507Y7372D01*
X509Y7372D01*
X511Y7371D01*
X513Y7371D01*
X515Y7370D01*
X515D01*
X515Y7370D01*
X516Y7370D01*
X516Y7370D01*
X517Y7369D01*
X518Y7368D01*
X520Y7367D01*
X521Y7366D01*
X522Y7365D01*
X524Y7363D01*
X524Y7363D01*
X524Y7362D01*
X525Y7361D01*
X525Y7360D01*
X526Y7359D01*
X526Y7357D01*
X527Y7355D01*
X527Y7353D01*
X519Y7353D01*
Y7353D01*
Y7353D01*
X519Y7353D01*
X519Y7354D01*
X518Y7355D01*
X518Y7356D01*
X517Y7357D01*
X517Y7359D01*
X516Y7360D01*
X514Y7362D01*
X514Y7362D01*
X514Y7362D01*
X513Y7363D01*
X512Y7363D01*
X510Y7364D01*
X508Y7364D01*
X506Y7365D01*
X503Y7365D01*
X502D01*
X501Y7365D01*
X501D01*
X499Y7364D01*
X497Y7364D01*
X495Y7364D01*
X493Y7363D01*
X493Y7362D01*
X492Y7362D01*
X492Y7362D01*
X491Y7361D01*
X491Y7361D01*
X490Y7360D01*
X490Y7359D01*
X489Y7358D01*
X489Y7357D01*
X489Y7355D01*
Y7355D01*
Y7355D01*
X489Y7354D01*
X489Y7353D01*
X489Y7352D01*
X490Y7351D01*
X490Y7350D01*
X491Y7349D01*
X491Y7349D01*
X492Y7349D01*
X492Y7349D01*
X492Y7349D01*
X493Y7348D01*
X493Y7348D01*
X494Y7348D01*
X495Y7347D01*
X496Y7347D01*
X497Y7347D01*
X499Y7346D01*
X500Y7346D01*
X502Y7345D01*
X504Y7345D01*
X504D01*
X504Y7345D01*
X505Y7345D01*
X505Y7344D01*
X506Y7344D01*
X507Y7344D01*
X509Y7343D01*
X512Y7343D01*
X514Y7342D01*
X515Y7342D01*
X516Y7341D01*
X517Y7341D01*
X518Y7341D01*
X518D01*
X518Y7341D01*
X518Y7340D01*
X519Y7340D01*
X520Y7340D01*
X521Y7339D01*
X522Y7338D01*
X524Y7337D01*
X525Y7336D01*
X526Y7334D01*
X526Y7334D01*
X526Y7334D01*
X527Y7333D01*
X527Y7332D01*
X528Y7330D01*
X528Y7329D01*
X529Y7327D01*
X529Y7325D01*
Y7325D01*
Y7325D01*
Y7325D01*
Y7324D01*
X529Y7323D01*
X528Y7322D01*
X528Y7321D01*
X528Y7319D01*
X527Y7317D01*
X526Y7315D01*
X526Y7315D01*
X525Y7315D01*
X525Y7314D01*
X524Y7313D01*
X523Y7312D01*
X521Y7311D01*
X519Y7310D01*
X517Y7308D01*
X517D01*
X517Y7308D01*
X517Y7308D01*
X516Y7308D01*
X516Y7308D01*
X515Y7308D01*
X514Y7307D01*
X512Y7307D01*
X510Y7306D01*
X508Y7306D01*
X505Y7306D01*
X504D01*
X503Y7306D01*
X502D01*
X501Y7306D01*
X500Y7306D01*
X498Y7307D01*
X495Y7307D01*
X493Y7308D01*
X491Y7308D01*
X490D01*
X490Y7309D01*
X490Y7309D01*
X490Y7309D01*
X489Y7310D01*
X487Y7310D01*
X486Y7311D01*
X484Y7313D01*
X483Y7314D01*
X481Y7316D01*
Y7316D01*
X481Y7316D01*
X481Y7317D01*
X481Y7317D01*
X481Y7317D01*
X480Y7318D01*
X480Y7319D01*
X479Y7321D01*
X478Y7323D01*
X478Y7325D01*
X478Y7328D01*
X486Y7328D01*
Y7328D01*
Y7328D01*
X486Y7328D01*
X486Y7327D01*
X486Y7326D01*
X487Y7324D01*
X487Y7323D01*
X488Y7322D01*
X488Y7320D01*
X489Y7320D01*
X489Y7320D01*
X489Y7319D01*
X490Y7319D01*
X491Y7318D01*
X492Y7317D01*
X493Y7316D01*
X495Y7315D01*
X495D01*
X495Y7315D01*
X496Y7315D01*
X497Y7315D01*
X498Y7315D01*
X499Y7314D01*
X501Y7314D01*
X503Y7314D01*
X505Y7314D01*
X505D01*
X506Y7314D01*
X508Y7314D01*
X509Y7314D01*
X510Y7314D01*
X512Y7314D01*
X513Y7315D01*
X513Y7315D01*
X514Y7315D01*
X514Y7315D01*
X515Y7316D01*
X516Y7317D01*
X517Y7317D01*
X518Y7318D01*
X519Y7319D01*
X519Y7319D01*
X519Y7319D01*
X519Y7320D01*
X520Y7321D01*
X520Y7321D01*
X520Y7322D01*
X521Y7323D01*
X521Y7324D01*
Y7324D01*
Y7325D01*
X521Y7325D01*
X520Y7326D01*
X520Y7327D01*
X520Y7328D01*
X519Y7329D01*
X519Y7330D01*
X519Y7330D01*
X519Y7330D01*
X518Y7330D01*
X517Y7331D01*
X517Y7332D01*
X516Y7332D01*
X514Y7333D01*
X513Y7333D01*
X513Y7334D01*
X513Y7334D01*
X512Y7334D01*
X511Y7334D01*
X511Y7334D01*
X510Y7334D01*
X509Y7335D01*
X508Y7335D01*
X507Y7335D01*
X506Y7335D01*
X505Y7336D01*
X503Y7336D01*
X502Y7337D01*
X502D01*
X501Y7337D01*
X501Y7337D01*
X500Y7337D01*
X500Y7337D01*
X499Y7337D01*
X497Y7338D01*
X495Y7339D01*
X493Y7339D01*
X491Y7340D01*
X490Y7340D01*
X489Y7341D01*
X489D01*
X489Y7341D01*
X489Y7341D01*
X488Y7342D01*
X487Y7342D01*
X486Y7343D01*
X485Y7344D01*
X484Y7345D01*
X483Y7347D01*
X482Y7347D01*
X482Y7347D01*
X482Y7348D01*
X481Y7349D01*
X481Y7350D01*
X481Y7351D01*
X480Y7353D01*
X480Y7355D01*
Y7355D01*
Y7355D01*
Y7355D01*
Y7355D01*
X481Y7356D01*
X481Y7357D01*
X481Y7359D01*
X481Y7360D01*
X482Y7362D01*
X483Y7364D01*
Y7364D01*
X483Y7364D01*
X484Y7364D01*
X484Y7365D01*
X485Y7366D01*
X486Y7367D01*
X488Y7368D01*
X489Y7369D01*
X491Y7370D01*
X491D01*
X491Y7370D01*
X492Y7370D01*
X492Y7370D01*
X493Y7371D01*
X493Y7371D01*
X494Y7371D01*
X496Y7372D01*
X498Y7372D01*
X500Y7372D01*
X503Y7372D01*
X504D01*
X505Y7372D01*
D02*
G37*
G36*
X1381D02*
X1382Y7372D01*
X1383Y7372D01*
X1384Y7372D01*
X1385Y7372D01*
X1387Y7371D01*
X1390Y7370D01*
X1392Y7370D01*
X1393Y7369D01*
X1394Y7368D01*
X1395Y7367D01*
X1396Y7367D01*
X1396Y7367D01*
X1396Y7367D01*
X1396Y7366D01*
X1397Y7366D01*
X1398Y7365D01*
X1398Y7365D01*
X1399Y7364D01*
X1400Y7363D01*
X1400Y7362D01*
X1401Y7361D01*
X1402Y7359D01*
X1403Y7358D01*
X1403Y7357D01*
X1405Y7354D01*
X1396Y7352D01*
Y7352D01*
X1396Y7352D01*
X1396Y7352D01*
X1396Y7353D01*
X1396Y7353D01*
X1395Y7354D01*
X1395Y7355D01*
X1394Y7357D01*
X1392Y7359D01*
X1391Y7360D01*
X1390Y7362D01*
X1389Y7362D01*
X1389Y7362D01*
X1388Y7363D01*
X1387Y7363D01*
X1385Y7364D01*
X1383Y7365D01*
X1381Y7365D01*
X1379Y7365D01*
X1378D01*
X1378Y7365D01*
X1377D01*
X1376Y7365D01*
X1375Y7365D01*
X1373Y7364D01*
X1371Y7363D01*
X1369Y7363D01*
X1367Y7361D01*
X1367D01*
X1367Y7361D01*
X1366Y7361D01*
X1365Y7360D01*
X1364Y7359D01*
X1363Y7358D01*
X1362Y7356D01*
X1361Y7354D01*
X1360Y7352D01*
Y7352D01*
X1360Y7352D01*
X1360Y7351D01*
X1359Y7351D01*
X1359Y7350D01*
X1359Y7350D01*
X1359Y7348D01*
X1358Y7346D01*
X1358Y7344D01*
X1358Y7342D01*
X1358Y7340D01*
Y7339D01*
Y7339D01*
Y7339D01*
Y7338D01*
X1358Y7338D01*
Y7337D01*
X1358Y7336D01*
X1358Y7335D01*
X1358Y7333D01*
X1359Y7330D01*
X1359Y7328D01*
X1360Y7325D01*
Y7325D01*
X1360Y7325D01*
X1360Y7325D01*
X1361Y7324D01*
X1361Y7323D01*
X1362Y7322D01*
X1363Y7320D01*
X1364Y7319D01*
X1366Y7317D01*
X1367Y7316D01*
X1368D01*
X1368Y7316D01*
X1368Y7316D01*
X1368Y7316D01*
X1369Y7315D01*
X1371Y7315D01*
X1372Y7314D01*
X1374Y7314D01*
X1376Y7313D01*
X1378Y7313D01*
X1379D01*
X1380Y7313D01*
X1380D01*
X1381Y7313D01*
X1383Y7314D01*
X1384Y7314D01*
X1387Y7315D01*
X1388Y7316D01*
X1390Y7317D01*
X1391Y7317D01*
X1391Y7318D01*
X1391Y7318D01*
X1392Y7319D01*
X1393Y7320D01*
X1394Y7322D01*
X1395Y7324D01*
X1396Y7327D01*
X1397Y7330D01*
X1406Y7327D01*
Y7327D01*
X1406Y7327D01*
X1405Y7326D01*
X1405Y7326D01*
X1405Y7325D01*
X1404Y7324D01*
X1404Y7323D01*
X1403Y7322D01*
X1402Y7319D01*
X1400Y7316D01*
X1398Y7314D01*
X1397Y7313D01*
X1396Y7311D01*
X1396Y7311D01*
X1396Y7311D01*
X1395Y7311D01*
X1395Y7311D01*
X1394Y7310D01*
X1393Y7310D01*
X1392Y7309D01*
X1391Y7309D01*
X1390Y7308D01*
X1389Y7308D01*
X1387Y7307D01*
X1386Y7307D01*
X1383Y7306D01*
X1381Y7306D01*
X1379Y7306D01*
X1378D01*
X1377Y7306D01*
X1376D01*
X1375Y7306D01*
X1374Y7306D01*
X1373Y7307D01*
X1370Y7307D01*
X1368Y7308D01*
X1365Y7309D01*
X1363Y7309D01*
X1362Y7310D01*
X1362Y7310D01*
X1362Y7310D01*
X1362Y7311D01*
X1361Y7311D01*
X1360Y7312D01*
X1359Y7313D01*
X1357Y7315D01*
X1355Y7317D01*
X1354Y7320D01*
X1352Y7322D01*
Y7323D01*
X1352Y7323D01*
X1352Y7323D01*
X1352Y7324D01*
X1352Y7325D01*
X1351Y7325D01*
X1351Y7326D01*
X1351Y7328D01*
X1350Y7329D01*
X1350Y7330D01*
X1350Y7333D01*
X1349Y7336D01*
X1349Y7340D01*
Y7340D01*
Y7340D01*
Y7341D01*
X1349Y7341D01*
Y7342D01*
X1349Y7343D01*
X1349Y7344D01*
X1350Y7346D01*
X1350Y7348D01*
X1351Y7351D01*
X1352Y7354D01*
X1353Y7357D01*
Y7357D01*
X1353Y7357D01*
X1353Y7358D01*
X1354Y7358D01*
X1354Y7359D01*
X1354Y7360D01*
X1356Y7361D01*
X1357Y7363D01*
X1359Y7365D01*
X1361Y7367D01*
X1364Y7368D01*
X1364D01*
X1364Y7369D01*
X1364Y7369D01*
X1365Y7369D01*
X1366Y7369D01*
X1366Y7370D01*
X1367Y7370D01*
X1368Y7370D01*
X1369Y7371D01*
X1371Y7371D01*
X1373Y7372D01*
X1376Y7372D01*
X1379Y7372D01*
X1380D01*
X1381Y7372D01*
D02*
G37*
G36*
X1445D02*
X1446Y7372D01*
X1447Y7372D01*
X1448Y7372D01*
X1449Y7372D01*
X1452Y7371D01*
X1455Y7370D01*
X1456Y7370D01*
X1457Y7369D01*
X1459Y7368D01*
X1460Y7367D01*
X1460Y7367D01*
X1460Y7367D01*
X1461Y7367D01*
X1461Y7366D01*
X1462Y7366D01*
X1462Y7365D01*
X1463Y7365D01*
X1464Y7364D01*
X1464Y7363D01*
X1465Y7362D01*
X1466Y7361D01*
X1467Y7359D01*
X1467Y7358D01*
X1468Y7357D01*
X1469Y7354D01*
X1461Y7352D01*
Y7352D01*
X1461Y7352D01*
X1461Y7352D01*
X1460Y7353D01*
X1460Y7353D01*
X1460Y7354D01*
X1459Y7355D01*
X1458Y7357D01*
X1457Y7359D01*
X1456Y7360D01*
X1454Y7362D01*
X1454Y7362D01*
X1453Y7362D01*
X1453Y7363D01*
X1451Y7363D01*
X1450Y7364D01*
X1448Y7365D01*
X1446Y7365D01*
X1444Y7365D01*
X1443D01*
X1442Y7365D01*
X1442D01*
X1441Y7365D01*
X1439Y7365D01*
X1437Y7364D01*
X1435Y7363D01*
X1433Y7363D01*
X1431Y7361D01*
X1431D01*
X1431Y7361D01*
X1431Y7361D01*
X1430Y7360D01*
X1429Y7359D01*
X1428Y7358D01*
X1426Y7356D01*
X1425Y7354D01*
X1424Y7352D01*
Y7352D01*
X1424Y7352D01*
X1424Y7351D01*
X1424Y7351D01*
X1424Y7350D01*
X1424Y7350D01*
X1423Y7348D01*
X1423Y7346D01*
X1423Y7344D01*
X1423Y7342D01*
X1422Y7340D01*
Y7339D01*
Y7339D01*
Y7339D01*
Y7338D01*
X1423Y7338D01*
Y7337D01*
X1423Y7336D01*
X1423Y7335D01*
X1423Y7333D01*
X1423Y7330D01*
X1424Y7328D01*
X1425Y7325D01*
Y7325D01*
X1425Y7325D01*
X1425Y7325D01*
X1425Y7324D01*
X1426Y7323D01*
X1427Y7322D01*
X1428Y7320D01*
X1429Y7319D01*
X1430Y7317D01*
X1432Y7316D01*
X1432D01*
X1432Y7316D01*
X1433Y7316D01*
X1433Y7316D01*
X1434Y7315D01*
X1435Y7315D01*
X1437Y7314D01*
X1439Y7314D01*
X1441Y7313D01*
X1443Y7313D01*
X1444D01*
X1444Y7313D01*
X1445D01*
X1446Y7313D01*
X1447Y7314D01*
X1449Y7314D01*
X1451Y7315D01*
X1453Y7316D01*
X1455Y7317D01*
X1455Y7317D01*
X1455Y7318D01*
X1456Y7318D01*
X1457Y7319D01*
X1458Y7320D01*
X1459Y7322D01*
X1460Y7324D01*
X1461Y7327D01*
X1462Y7330D01*
X1470Y7327D01*
Y7327D01*
X1470Y7327D01*
X1470Y7326D01*
X1470Y7326D01*
X1469Y7325D01*
X1469Y7324D01*
X1469Y7323D01*
X1468Y7322D01*
X1467Y7319D01*
X1465Y7316D01*
X1463Y7314D01*
X1462Y7313D01*
X1461Y7311D01*
X1461Y7311D01*
X1460Y7311D01*
X1460Y7311D01*
X1459Y7311D01*
X1459Y7310D01*
X1458Y7310D01*
X1457Y7309D01*
X1456Y7309D01*
X1455Y7308D01*
X1453Y7308D01*
X1452Y7307D01*
X1451Y7307D01*
X1447Y7306D01*
X1446Y7306D01*
X1444Y7306D01*
X1443D01*
X1442Y7306D01*
X1441D01*
X1440Y7306D01*
X1439Y7306D01*
X1438Y7307D01*
X1435Y7307D01*
X1432Y7308D01*
X1429Y7309D01*
X1428Y7309D01*
X1427Y7310D01*
X1427Y7310D01*
X1427Y7310D01*
X1426Y7311D01*
X1426Y7311D01*
X1425Y7312D01*
X1423Y7313D01*
X1422Y7315D01*
X1420Y7317D01*
X1418Y7320D01*
X1417Y7322D01*
Y7323D01*
X1417Y7323D01*
X1417Y7323D01*
X1416Y7324D01*
X1416Y7325D01*
X1416Y7325D01*
X1416Y7326D01*
X1415Y7328D01*
X1415Y7329D01*
X1415Y7330D01*
X1414Y7333D01*
X1414Y7336D01*
X1414Y7340D01*
Y7340D01*
Y7340D01*
Y7341D01*
X1414Y7341D01*
Y7342D01*
X1414Y7343D01*
X1414Y7344D01*
X1414Y7346D01*
X1415Y7348D01*
X1415Y7351D01*
X1416Y7354D01*
X1417Y7357D01*
Y7357D01*
X1418Y7357D01*
X1418Y7358D01*
X1418Y7358D01*
X1419Y7359D01*
X1419Y7360D01*
X1420Y7361D01*
X1422Y7363D01*
X1424Y7365D01*
X1426Y7367D01*
X1428Y7368D01*
X1428D01*
X1429Y7369D01*
X1429Y7369D01*
X1430Y7369D01*
X1430Y7369D01*
X1431Y7370D01*
X1432Y7370D01*
X1433Y7370D01*
X1434Y7371D01*
X1435Y7371D01*
X1438Y7372D01*
X1441Y7372D01*
X1444Y7372D01*
X1445D01*
X1445Y7372D01*
D02*
G37*
G36*
X2013Y7361D02*
X2014D01*
X2016Y7361D01*
X2018Y7361D01*
X2020Y7361D01*
X2022Y7360D01*
X2023Y7360D01*
X2024Y7360D01*
X2024D01*
X2024Y7360D01*
X2024Y7359D01*
X2025Y7359D01*
X2026Y7358D01*
X2027Y7357D01*
X2029Y7356D01*
X2030Y7355D01*
X2031Y7353D01*
X2031Y7353D01*
X2031Y7353D01*
X2032Y7352D01*
X2032Y7351D01*
X2033Y7349D01*
X2033Y7348D01*
X2033Y7346D01*
X2034Y7344D01*
Y7344D01*
Y7344D01*
Y7343D01*
X2033Y7343D01*
Y7342D01*
X2033Y7341D01*
X2033Y7340D01*
X2032Y7338D01*
X2032Y7336D01*
X2030Y7334D01*
X2030Y7333D01*
X2029Y7332D01*
X2029Y7332D01*
X2029Y7332D01*
X2028Y7332D01*
X2028Y7331D01*
X2027Y7331D01*
X2026Y7330D01*
X2026Y7330D01*
X2025Y7329D01*
X2024Y7329D01*
X2023Y7328D01*
X2021Y7328D01*
X2020Y7327D01*
X2019Y7327D01*
X2017Y7327D01*
X2015Y7326D01*
X2016Y7326D01*
X2016Y7326D01*
X2017Y7326D01*
X2017Y7325D01*
X2019Y7324D01*
X2020Y7324D01*
X2021Y7323D01*
X2021Y7323D01*
X2021Y7323D01*
X2022Y7322D01*
X2023Y7321D01*
X2024Y7320D01*
X2025Y7318D01*
X2026Y7316D01*
X2028Y7315D01*
X2039Y7297D01*
X2028D01*
X2020Y7311D01*
Y7311D01*
X2019Y7311D01*
X2019Y7311D01*
X2019Y7311D01*
X2018Y7312D01*
X2017Y7314D01*
X2016Y7315D01*
X2015Y7317D01*
X2014Y7318D01*
X2013Y7319D01*
X2013Y7319D01*
X2013Y7320D01*
X2013Y7320D01*
X2012Y7321D01*
X2011Y7322D01*
X2010Y7323D01*
X2009Y7324D01*
X2009Y7324D01*
X2009Y7324D01*
X2008Y7324D01*
X2008Y7324D01*
X2007Y7325D01*
X2005Y7325D01*
X2005D01*
X2005Y7325D01*
X2005D01*
X2004Y7326D01*
X2003Y7326D01*
X2003D01*
X2002Y7326D01*
X1991D01*
Y7297D01*
X1982D01*
Y7361D01*
X2012D01*
X2013Y7361D01*
D02*
G37*
G36*
X2066Y7345D02*
X2067Y7345D01*
X2068Y7344D01*
X2069Y7344D01*
X2070Y7344D01*
X2073Y7343D01*
X2074Y7343D01*
X2075Y7342D01*
X2076Y7341D01*
X2078Y7340D01*
X2079Y7340D01*
X2080Y7338D01*
X2080Y7338D01*
X2080Y7338D01*
X2081Y7338D01*
X2081Y7337D01*
X2081Y7336D01*
X2082Y7336D01*
X2082Y7335D01*
X2083Y7334D01*
X2083Y7332D01*
X2084Y7331D01*
X2085Y7330D01*
X2085Y7328D01*
X2085Y7326D01*
X2086Y7325D01*
X2086Y7323D01*
X2086Y7320D01*
Y7320D01*
Y7320D01*
Y7319D01*
X2086Y7318D01*
X2051D01*
Y7318D01*
Y7318D01*
X2051Y7318D01*
Y7317D01*
X2051Y7316D01*
X2052Y7316D01*
X2052Y7314D01*
X2053Y7312D01*
X2053Y7310D01*
X2054Y7308D01*
X2056Y7307D01*
X2056Y7306D01*
X2056Y7306D01*
X2057Y7305D01*
X2058Y7305D01*
X2060Y7304D01*
X2061Y7303D01*
X2063Y7303D01*
X2065Y7303D01*
X2066D01*
X2067Y7303D01*
X2068Y7303D01*
X2069Y7303D01*
X2070Y7304D01*
X2071Y7304D01*
X2073Y7305D01*
X2073Y7305D01*
X2073Y7305D01*
X2074Y7306D01*
X2074Y7307D01*
X2075Y7308D01*
X2076Y7309D01*
X2077Y7311D01*
X2078Y7312D01*
X2086Y7311D01*
Y7311D01*
X2086Y7311D01*
X2085Y7311D01*
X2085Y7310D01*
X2085Y7309D01*
X2085Y7309D01*
X2084Y7307D01*
X2083Y7305D01*
X2082Y7303D01*
X2080Y7302D01*
X2079Y7300D01*
X2078D01*
X2078Y7300D01*
X2078Y7300D01*
X2078Y7299D01*
X2077Y7299D01*
X2076Y7299D01*
X2076Y7299D01*
X2075Y7298D01*
X2073Y7297D01*
X2071Y7297D01*
X2068Y7296D01*
X2065Y7296D01*
X2064D01*
X2064Y7296D01*
X2063Y7296D01*
X2062Y7296D01*
X2061Y7297D01*
X2059Y7297D01*
X2057Y7298D01*
X2055Y7298D01*
X2054Y7299D01*
X2053Y7299D01*
X2052Y7300D01*
X2050Y7301D01*
X2049Y7302D01*
X2049Y7303D01*
X2049Y7303D01*
X2049Y7303D01*
X2048Y7304D01*
X2048Y7304D01*
X2047Y7305D01*
X2047Y7306D01*
X2046Y7307D01*
X2046Y7308D01*
X2045Y7309D01*
X2045Y7311D01*
X2044Y7312D01*
X2044Y7314D01*
X2043Y7316D01*
X2043Y7318D01*
X2043Y7320D01*
Y7320D01*
Y7320D01*
Y7321D01*
X2043Y7322D01*
X2043Y7323D01*
X2043Y7324D01*
X2044Y7325D01*
X2044Y7327D01*
X2045Y7330D01*
X2045Y7331D01*
X2046Y7333D01*
X2046Y7334D01*
X2047Y7336D01*
X2048Y7337D01*
X2049Y7338D01*
X2049Y7338D01*
X2049Y7339D01*
X2050Y7339D01*
X2050Y7339D01*
X2051Y7340D01*
X2052Y7340D01*
X2052Y7341D01*
X2053Y7342D01*
X2054Y7342D01*
X2056Y7343D01*
X2057Y7343D01*
X2058Y7344D01*
X2060Y7344D01*
X2061Y7344D01*
X2063Y7345D01*
X2065Y7345D01*
X2066D01*
X2066Y7345D01*
D02*
G37*
G36*
X945Y7355D02*
X946Y7354D01*
X947Y7354D01*
X949Y7354D01*
X951Y7354D01*
X952Y7353D01*
X952D01*
X952Y7353D01*
X953Y7353D01*
X954Y7352D01*
X955Y7352D01*
X956Y7351D01*
X957Y7351D01*
X958Y7350D01*
X958Y7349D01*
X958Y7349D01*
X959Y7348D01*
X959Y7348D01*
X960Y7347D01*
X960Y7346D01*
X960Y7345D01*
X961Y7343D01*
X961Y7342D01*
X953Y7341D01*
Y7341D01*
X953Y7341D01*
X953Y7342D01*
X953Y7343D01*
X953Y7343D01*
X952Y7344D01*
X951Y7345D01*
X950Y7346D01*
X950Y7346D01*
X950Y7346D01*
X949Y7347D01*
X948Y7347D01*
X948Y7347D01*
X946Y7348D01*
X945Y7348D01*
X943Y7348D01*
X942D01*
X941Y7348D01*
X940Y7348D01*
X939Y7348D01*
X938Y7347D01*
X936Y7347D01*
X935Y7346D01*
X935Y7346D01*
X935Y7346D01*
X935Y7346D01*
X934Y7345D01*
X934Y7345D01*
X934Y7344D01*
X933Y7343D01*
X933Y7342D01*
Y7342D01*
Y7342D01*
X933Y7342D01*
Y7341D01*
X934Y7340D01*
X934Y7339D01*
X934Y7339D01*
X934Y7339D01*
X935Y7339D01*
X935Y7338D01*
X936Y7338D01*
X936Y7338D01*
X937Y7337D01*
X937D01*
X937Y7337D01*
X938Y7337D01*
X938Y7337D01*
X939Y7337D01*
X941Y7336D01*
X942Y7336D01*
X943Y7335D01*
X944Y7335D01*
X944D01*
X944Y7335D01*
X945Y7335D01*
X945Y7335D01*
X946Y7335D01*
X947Y7334D01*
X949Y7334D01*
X951Y7333D01*
X953Y7333D01*
X954Y7332D01*
X955Y7332D01*
X956Y7331D01*
X956Y7331D01*
X956Y7331D01*
X957Y7331D01*
X958Y7331D01*
X959Y7330D01*
X959Y7329D01*
X960Y7328D01*
X961Y7327D01*
X961Y7327D01*
X961Y7327D01*
X962Y7326D01*
X962Y7326D01*
X962Y7325D01*
X963Y7323D01*
X963Y7322D01*
X963Y7321D01*
Y7320D01*
Y7320D01*
X963Y7319D01*
X963Y7318D01*
X962Y7317D01*
X962Y7316D01*
X961Y7315D01*
X961Y7313D01*
X961Y7313D01*
X960Y7313D01*
X960Y7312D01*
X959Y7311D01*
X958Y7310D01*
X957Y7310D01*
X955Y7309D01*
X954Y7308D01*
X954Y7308D01*
X953Y7308D01*
X952Y7307D01*
X951Y7307D01*
X950Y7307D01*
X948Y7306D01*
X946Y7306D01*
X944Y7306D01*
X943D01*
X943Y7306D01*
X942D01*
X941Y7306D01*
X939Y7307D01*
X937Y7307D01*
X934Y7308D01*
X932Y7308D01*
X931Y7309D01*
X930Y7310D01*
X930D01*
X930Y7310D01*
X929Y7310D01*
X929Y7311D01*
X928Y7313D01*
X927Y7314D01*
X926Y7316D01*
X925Y7318D01*
X924Y7321D01*
X932Y7322D01*
Y7322D01*
Y7322D01*
X932Y7321D01*
X932Y7321D01*
X933Y7319D01*
X933Y7318D01*
X934Y7317D01*
X935Y7316D01*
X936Y7315D01*
X936Y7315D01*
X936Y7315D01*
X937Y7314D01*
X938Y7314D01*
X939Y7313D01*
X940Y7313D01*
X942Y7313D01*
X944Y7312D01*
X945D01*
X946Y7313D01*
X947Y7313D01*
X948Y7313D01*
X950Y7313D01*
X951Y7314D01*
X952Y7315D01*
X952Y7315D01*
X953Y7315D01*
X953Y7315D01*
X954Y7316D01*
X954Y7317D01*
X954Y7318D01*
X955Y7319D01*
X955Y7320D01*
Y7320D01*
Y7320D01*
X955Y7321D01*
X955Y7321D01*
X954Y7322D01*
X954Y7323D01*
X953Y7323D01*
X953Y7324D01*
X952Y7324D01*
X952Y7324D01*
X952Y7324D01*
X951Y7325D01*
X950Y7325D01*
X948Y7326D01*
X948Y7326D01*
X947Y7326D01*
X946Y7326D01*
X944Y7327D01*
X944D01*
X944Y7327D01*
X944Y7327D01*
X943Y7327D01*
X942Y7327D01*
X941Y7327D01*
X940Y7328D01*
X938Y7329D01*
X936Y7329D01*
X934Y7330D01*
X933Y7330D01*
X932Y7331D01*
X932Y7331D01*
X932Y7331D01*
X931Y7331D01*
X930Y7332D01*
X930Y7332D01*
X929Y7333D01*
X928Y7334D01*
X927Y7335D01*
X927Y7335D01*
X927Y7335D01*
X927Y7336D01*
X926Y7337D01*
X926Y7338D01*
X926Y7339D01*
X926Y7340D01*
X926Y7341D01*
Y7341D01*
Y7342D01*
X926Y7342D01*
X926Y7343D01*
X926Y7344D01*
X926Y7345D01*
X926Y7346D01*
X927Y7347D01*
X927Y7347D01*
X927Y7347D01*
X928Y7348D01*
X928Y7348D01*
X928Y7349D01*
X929Y7350D01*
X930Y7351D01*
X931Y7351D01*
X931Y7351D01*
X931Y7351D01*
X932Y7352D01*
X932Y7352D01*
X933Y7352D01*
X934Y7353D01*
X935Y7353D01*
X936Y7354D01*
X936D01*
X936Y7354D01*
X937Y7354D01*
X938Y7354D01*
X939Y7354D01*
X940Y7354D01*
X941Y7355D01*
X944D01*
X945Y7355D01*
D02*
G37*
G36*
X1597Y7334D02*
Y7307D01*
X1588D01*
Y7334D01*
X1563Y7371D01*
X1574D01*
X1586Y7352D01*
Y7352D01*
X1587Y7352D01*
X1587Y7351D01*
X1587Y7351D01*
X1588Y7350D01*
X1589Y7348D01*
X1590Y7347D01*
X1591Y7345D01*
X1592Y7343D01*
X1593Y7341D01*
Y7341D01*
X1593Y7341D01*
X1593Y7341D01*
X1593Y7342D01*
X1594Y7343D01*
X1595Y7344D01*
X1596Y7346D01*
X1597Y7348D01*
X1599Y7350D01*
X1600Y7352D01*
X1612Y7371D01*
X1622D01*
X1597Y7334D01*
D02*
G37*
G36*
X453Y7355D02*
X454Y7354D01*
X455Y7354D01*
X457Y7354D01*
X458Y7354D01*
X459Y7353D01*
X460Y7353D01*
X460Y7353D01*
X461Y7352D01*
X461Y7352D01*
X462Y7351D01*
X463Y7351D01*
X464Y7350D01*
X465Y7349D01*
X465Y7349D01*
X465Y7349D01*
X465Y7348D01*
X466Y7347D01*
X466Y7347D01*
X466Y7346D01*
X467Y7344D01*
X467Y7343D01*
Y7343D01*
X467Y7343D01*
X467Y7342D01*
X467Y7342D01*
Y7340D01*
X468Y7339D01*
X468Y7338D01*
Y7336D01*
Y7307D01*
X460D01*
Y7335D01*
Y7335D01*
Y7335D01*
Y7336D01*
Y7337D01*
X460Y7338D01*
X460Y7339D01*
X459Y7340D01*
X459Y7341D01*
X459Y7342D01*
Y7343D01*
X459Y7343D01*
X458Y7343D01*
X458Y7344D01*
X458Y7344D01*
X457Y7345D01*
X456Y7346D01*
X456Y7346D01*
X455Y7346D01*
X455Y7347D01*
X455Y7347D01*
X454Y7347D01*
X453Y7347D01*
X452Y7348D01*
X451Y7348D01*
X450Y7348D01*
X449D01*
X448Y7348D01*
X447Y7347D01*
X446Y7347D01*
X444Y7346D01*
X443Y7346D01*
X441Y7345D01*
X441Y7344D01*
X441Y7344D01*
X440Y7343D01*
X440Y7343D01*
X440Y7342D01*
X439Y7341D01*
X439Y7340D01*
X439Y7339D01*
X438Y7338D01*
X438Y7337D01*
X438Y7335D01*
X438Y7334D01*
Y7332D01*
Y7307D01*
X430D01*
Y7354D01*
X437D01*
Y7347D01*
X437Y7347D01*
X437Y7347D01*
X437Y7348D01*
X438Y7348D01*
X438Y7349D01*
X439Y7349D01*
X440Y7350D01*
X441Y7351D01*
X442Y7351D01*
X443Y7352D01*
X444Y7353D01*
X445Y7353D01*
X447Y7354D01*
X448Y7354D01*
X450Y7355D01*
X452Y7355D01*
X452D01*
X453Y7355D01*
D02*
G37*
G36*
X1314D02*
X1315Y7354D01*
X1317Y7354D01*
X1318Y7354D01*
X1319Y7353D01*
X1321Y7352D01*
X1318Y7345D01*
X1318Y7345D01*
X1318Y7345D01*
X1317Y7345D01*
X1316Y7346D01*
X1315Y7346D01*
X1314Y7346D01*
X1313Y7346D01*
X1312Y7347D01*
X1312D01*
X1311Y7346D01*
X1311Y7346D01*
X1310Y7346D01*
X1309Y7346D01*
X1309Y7345D01*
X1308Y7345D01*
X1308Y7345D01*
X1307Y7345D01*
X1307Y7344D01*
X1307Y7344D01*
X1306Y7343D01*
X1306Y7342D01*
X1305Y7342D01*
X1305Y7341D01*
X1305Y7340D01*
X1305Y7340D01*
X1305Y7339D01*
X1304Y7338D01*
X1304Y7336D01*
X1304Y7335D01*
X1304Y7333D01*
X1304Y7331D01*
Y7307D01*
X1296D01*
Y7354D01*
X1303D01*
Y7347D01*
X1303Y7347D01*
X1303Y7347D01*
X1304Y7348D01*
X1304Y7349D01*
X1305Y7350D01*
X1306Y7351D01*
X1307Y7352D01*
X1308Y7353D01*
X1308Y7353D01*
X1308Y7353D01*
X1309Y7353D01*
X1309Y7354D01*
X1310Y7354D01*
X1311Y7354D01*
X1312Y7355D01*
X1313Y7355D01*
X1314D01*
X1314Y7355D01*
D02*
G37*
G36*
X694D02*
X694D01*
X695Y7354D01*
X696Y7354D01*
X698Y7354D01*
X700Y7353D01*
X702Y7352D01*
X703Y7351D01*
X703Y7351D01*
X704Y7350D01*
X704Y7349D01*
X705Y7348D01*
X706Y7346D01*
X706Y7344D01*
X707Y7342D01*
X707Y7340D01*
Y7339D01*
Y7307D01*
X699D01*
Y7336D01*
Y7336D01*
Y7336D01*
Y7337D01*
Y7338D01*
X699Y7339D01*
X699Y7341D01*
X699Y7342D01*
X698Y7343D01*
Y7343D01*
X698Y7343D01*
X698Y7344D01*
X698Y7344D01*
X697Y7345D01*
X697Y7345D01*
X696Y7346D01*
X695Y7347D01*
X695Y7347D01*
X695Y7347D01*
X695Y7347D01*
X694Y7347D01*
X693Y7347D01*
X693Y7348D01*
X692Y7348D01*
X691Y7348D01*
X690D01*
X689Y7348D01*
X688Y7347D01*
X687Y7347D01*
X685Y7346D01*
X684Y7346D01*
X683Y7344D01*
X682Y7344D01*
X682Y7344D01*
X682Y7343D01*
X681Y7342D01*
X680Y7340D01*
X680Y7339D01*
X679Y7337D01*
X679Y7334D01*
Y7307D01*
X671D01*
Y7337D01*
Y7337D01*
Y7337D01*
Y7338D01*
Y7338D01*
X671Y7339D01*
X671Y7340D01*
X671Y7342D01*
X671Y7343D01*
X670Y7344D01*
X669Y7345D01*
X669Y7345D01*
X669Y7346D01*
X669Y7346D01*
X668Y7347D01*
X667Y7347D01*
X666Y7347D01*
X665Y7348D01*
X663Y7348D01*
X663D01*
X662Y7348D01*
X661Y7348D01*
X660Y7347D01*
X659Y7347D01*
X658Y7347D01*
X657Y7346D01*
X657Y7346D01*
X657Y7346D01*
X656Y7345D01*
X656Y7345D01*
X655Y7344D01*
X654Y7343D01*
X654Y7342D01*
X653Y7341D01*
X653Y7341D01*
X653Y7340D01*
X653Y7339D01*
X652Y7338D01*
X652Y7337D01*
X652Y7335D01*
X652Y7333D01*
X652Y7331D01*
Y7307D01*
X644D01*
Y7354D01*
X651D01*
Y7347D01*
X651Y7347D01*
X651Y7348D01*
X652Y7348D01*
X652Y7349D01*
X653Y7350D01*
X654Y7351D01*
X655Y7352D01*
X657Y7352D01*
X657Y7353D01*
X657Y7353D01*
X658Y7353D01*
X659Y7354D01*
X660Y7354D01*
X662Y7354D01*
X663Y7355D01*
X665Y7355D01*
X666D01*
X667Y7355D01*
X668Y7354D01*
X669Y7354D01*
X671Y7354D01*
X672Y7353D01*
X673Y7352D01*
X674Y7352D01*
X674Y7352D01*
X675Y7352D01*
X675Y7351D01*
X676Y7350D01*
X677Y7349D01*
X677Y7348D01*
X678Y7346D01*
X678Y7347D01*
X678Y7347D01*
X679Y7347D01*
X679Y7348D01*
X680Y7348D01*
X680Y7349D01*
X681Y7350D01*
X682Y7351D01*
X683Y7351D01*
X684Y7352D01*
X687Y7353D01*
X688Y7354D01*
X689Y7354D01*
X691Y7355D01*
X692Y7355D01*
X693D01*
X694Y7355D01*
D02*
G37*
G36*
X583D02*
X584Y7354D01*
X585Y7354D01*
X586Y7354D01*
X588Y7353D01*
X589Y7352D01*
X587Y7345D01*
X587Y7345D01*
X586Y7345D01*
X586Y7345D01*
X585Y7346D01*
X584Y7346D01*
X583Y7346D01*
X582Y7346D01*
X581Y7347D01*
X580D01*
X580Y7346D01*
X579Y7346D01*
X579Y7346D01*
X578Y7346D01*
X577Y7345D01*
X576Y7345D01*
X576Y7345D01*
X576Y7345D01*
X576Y7344D01*
X575Y7344D01*
X575Y7343D01*
X574Y7342D01*
X574Y7342D01*
X573Y7341D01*
X573Y7340D01*
X573Y7340D01*
X573Y7339D01*
X573Y7338D01*
X573Y7336D01*
X572Y7335D01*
X572Y7333D01*
X572Y7331D01*
Y7307D01*
X564D01*
Y7354D01*
X571D01*
Y7347D01*
X571Y7347D01*
X572Y7347D01*
X572Y7348D01*
X573Y7349D01*
X574Y7350D01*
X575Y7351D01*
X575Y7352D01*
X576Y7353D01*
X576Y7353D01*
X577Y7353D01*
X577Y7353D01*
X578Y7354D01*
X578Y7354D01*
X579Y7354D01*
X580Y7355D01*
X581Y7355D01*
X582D01*
X583Y7355D01*
D02*
G37*
%LPC*%
G36*
X2011Y7354D02*
X1991D01*
Y7333D01*
X2010D01*
X2011Y7333D01*
X2012Y7333D01*
X2014Y7333D01*
X2015Y7334D01*
X2017Y7334D01*
X2018Y7334D01*
X2018Y7334D01*
X2019Y7334D01*
X2019Y7335D01*
X2020Y7335D01*
X2021Y7336D01*
X2022Y7336D01*
X2022Y7337D01*
X2023Y7338D01*
X2023Y7338D01*
X2023Y7339D01*
X2024Y7339D01*
X2024Y7340D01*
X2024Y7341D01*
X2024Y7342D01*
X2025Y7343D01*
X2025Y7344D01*
Y7344D01*
Y7344D01*
Y7345D01*
X2025Y7345D01*
X2024Y7346D01*
X2024Y7348D01*
X2023Y7349D01*
X2022Y7350D01*
X2021Y7351D01*
X2021Y7351D01*
X2021Y7352D01*
X2020Y7352D01*
X2019Y7353D01*
X2017Y7353D01*
X2016Y7354D01*
X2014Y7354D01*
X2011Y7354D01*
D02*
G37*
G36*
X2065Y7338D02*
X2064D01*
X2064Y7338D01*
X2063Y7338D01*
X2062Y7338D01*
X2060Y7337D01*
X2059Y7337D01*
X2057Y7336D01*
X2056Y7335D01*
X2055Y7334D01*
X2055Y7334D01*
X2055Y7333D01*
X2054Y7332D01*
X2053Y7331D01*
X2052Y7329D01*
X2052Y7327D01*
X2052Y7325D01*
X2078D01*
Y7325D01*
Y7325D01*
X2078Y7325D01*
Y7326D01*
X2077Y7327D01*
X2077Y7328D01*
X2077Y7330D01*
X2076Y7331D01*
X2075Y7332D01*
X2075Y7334D01*
Y7334D01*
X2074Y7334D01*
X2074Y7334D01*
X2073Y7335D01*
X2072Y7336D01*
X2071Y7337D01*
X2069Y7338D01*
X2067Y7338D01*
X2066Y7338D01*
X2065Y7338D01*
D02*
G37*
G36*
X847Y7348D02*
X847D01*
X846Y7348D01*
X845Y7348D01*
X844Y7348D01*
X842Y7347D01*
X841Y7347D01*
X839Y7346D01*
X838Y7344D01*
X838Y7344D01*
X837Y7344D01*
X837Y7343D01*
X836Y7342D01*
X835Y7340D01*
X835Y7339D01*
X834Y7337D01*
X834Y7335D01*
X860D01*
Y7335D01*
Y7335D01*
X860Y7335D01*
Y7336D01*
X859Y7337D01*
X859Y7338D01*
X859Y7339D01*
X858Y7341D01*
X858Y7342D01*
X857Y7343D01*
Y7344D01*
X857Y7344D01*
X856Y7344D01*
X855Y7345D01*
X854Y7346D01*
X853Y7347D01*
X851Y7347D01*
X849Y7348D01*
X848Y7348D01*
X847Y7348D01*
D02*
G37*
G36*
X399D02*
X399D01*
X398Y7348D01*
X397Y7348D01*
X396Y7348D01*
X395Y7347D01*
X393Y7347D01*
X391Y7346D01*
X390Y7344D01*
X390Y7344D01*
X389Y7344D01*
X389Y7343D01*
X388Y7342D01*
X387Y7340D01*
X387Y7339D01*
X386Y7337D01*
X386Y7335D01*
X412D01*
Y7335D01*
Y7335D01*
X412Y7335D01*
Y7336D01*
X412Y7337D01*
X411Y7338D01*
X411Y7339D01*
X410Y7341D01*
X410Y7342D01*
X409Y7343D01*
Y7344D01*
X409Y7344D01*
X408Y7344D01*
X407Y7345D01*
X406Y7346D01*
X405Y7347D01*
X403Y7347D01*
X401Y7348D01*
X400Y7348D01*
X399Y7348D01*
D02*
G37*
G36*
X1741Y7365D02*
Y7364D01*
X1741Y7364D01*
Y7364D01*
X1741Y7363D01*
X1741Y7363D01*
X1741Y7362D01*
X1740Y7361D01*
X1740Y7359D01*
X1739Y7357D01*
X1739Y7354D01*
X1738Y7352D01*
X1731Y7333D01*
X1753D01*
X1746Y7351D01*
Y7351D01*
X1746Y7351D01*
X1746Y7352D01*
X1745Y7352D01*
X1745Y7353D01*
X1745Y7354D01*
X1744Y7356D01*
X1743Y7358D01*
X1743Y7360D01*
X1742Y7362D01*
X1741Y7365D01*
D02*
G37*
G36*
X1534Y7364D02*
X1519D01*
Y7344D01*
X1534D01*
X1535Y7344D01*
X1537Y7344D01*
X1538Y7344D01*
X1539Y7345D01*
X1540Y7345D01*
X1541Y7345D01*
X1541Y7345D01*
X1542Y7345D01*
X1542Y7346D01*
X1543Y7346D01*
X1544Y7347D01*
X1545Y7347D01*
X1545Y7348D01*
X1545Y7348D01*
X1546Y7348D01*
X1546Y7349D01*
X1546Y7350D01*
X1546Y7350D01*
X1547Y7351D01*
X1547Y7352D01*
X1547Y7354D01*
Y7354D01*
Y7354D01*
X1547Y7355D01*
X1547Y7356D01*
X1547Y7357D01*
X1546Y7357D01*
X1546Y7358D01*
X1545Y7359D01*
X1545Y7359D01*
X1545Y7360D01*
X1545Y7360D01*
X1544Y7361D01*
X1544Y7361D01*
X1543Y7362D01*
X1542Y7362D01*
X1541Y7363D01*
X1541D01*
X1540Y7363D01*
X1540Y7363D01*
X1539Y7363D01*
X1537Y7363D01*
X1536Y7363D01*
X1534Y7364D01*
D02*
G37*
G36*
X1265Y7348D02*
X1265D01*
X1264Y7348D01*
X1263Y7348D01*
X1262Y7348D01*
X1260Y7347D01*
X1259Y7347D01*
X1257Y7346D01*
X1256Y7344D01*
X1256Y7344D01*
X1255Y7344D01*
X1255Y7343D01*
X1254Y7342D01*
X1253Y7340D01*
X1253Y7339D01*
X1252Y7337D01*
X1252Y7335D01*
X1278D01*
Y7335D01*
Y7335D01*
X1278Y7335D01*
Y7336D01*
X1278Y7337D01*
X1277Y7338D01*
X1277Y7339D01*
X1276Y7341D01*
X1276Y7342D01*
X1275Y7343D01*
Y7344D01*
X1275Y7344D01*
X1274Y7344D01*
X1273Y7345D01*
X1272Y7346D01*
X1271Y7347D01*
X1269Y7347D01*
X1267Y7348D01*
X1266Y7348D01*
X1265Y7348D01*
D02*
G37*
G36*
X991D02*
X991D01*
X990Y7348D01*
X989Y7348D01*
X988Y7348D01*
X987Y7347D01*
X985Y7347D01*
X984Y7346D01*
X982Y7344D01*
X982Y7344D01*
X982Y7344D01*
X981Y7343D01*
X980Y7342D01*
X980Y7340D01*
X979Y7339D01*
X978Y7337D01*
X978Y7335D01*
X1004D01*
Y7335D01*
Y7335D01*
X1004Y7335D01*
Y7336D01*
X1004Y7337D01*
X1004Y7338D01*
X1003Y7339D01*
X1003Y7341D01*
X1002Y7342D01*
X1001Y7343D01*
Y7344D01*
X1001Y7344D01*
X1000Y7344D01*
X1000Y7345D01*
X998Y7346D01*
X997Y7347D01*
X995Y7347D01*
X993Y7348D01*
X992Y7348D01*
X991Y7348D01*
D02*
G37*
G36*
X1535Y7337D02*
X1519D01*
Y7315D01*
X1537D01*
X1539Y7315D01*
X1540Y7315D01*
X1540Y7315D01*
X1540D01*
X1541Y7315D01*
X1541Y7315D01*
X1542Y7315D01*
X1544Y7316D01*
X1545Y7317D01*
X1545Y7317D01*
X1546Y7317D01*
X1546Y7317D01*
X1546Y7318D01*
X1547Y7318D01*
X1547Y7319D01*
X1548Y7319D01*
X1548Y7320D01*
X1549Y7320D01*
X1549Y7321D01*
X1549Y7321D01*
X1549Y7322D01*
X1549Y7323D01*
X1550Y7323D01*
X1550Y7324D01*
X1550Y7326D01*
Y7326D01*
Y7326D01*
X1550Y7327D01*
X1550Y7328D01*
X1549Y7329D01*
X1549Y7330D01*
X1548Y7331D01*
X1548Y7332D01*
X1548Y7332D01*
X1547Y7332D01*
X1547Y7333D01*
X1546Y7333D01*
X1546Y7334D01*
X1545Y7335D01*
X1544Y7335D01*
X1543Y7336D01*
X1542Y7336D01*
X1542Y7336D01*
X1541Y7336D01*
X1540Y7336D01*
X1539Y7336D01*
X1537Y7336D01*
X1535Y7337D01*
D02*
G37*
G36*
X614Y7348D02*
X612D01*
X612Y7348D01*
X611Y7348D01*
X609Y7347D01*
X608Y7347D01*
X606Y7346D01*
X605Y7345D01*
X604Y7344D01*
X603Y7344D01*
X603Y7343D01*
X603Y7343D01*
X602Y7343D01*
X602Y7342D01*
X602Y7342D01*
X601Y7341D01*
X601Y7340D01*
X601Y7339D01*
X600Y7338D01*
X600Y7337D01*
X600Y7336D01*
X600Y7335D01*
X599Y7333D01*
X599Y7332D01*
Y7330D01*
Y7330D01*
Y7330D01*
Y7329D01*
X599Y7329D01*
Y7328D01*
X599Y7327D01*
X600Y7325D01*
X600Y7323D01*
X601Y7321D01*
X602Y7319D01*
X602Y7318D01*
X603Y7317D01*
X603Y7317D01*
X604Y7316D01*
X605Y7315D01*
X606Y7315D01*
X607Y7314D01*
X609Y7313D01*
X611Y7313D01*
X612Y7313D01*
X613Y7312D01*
X613D01*
X614Y7313D01*
X615Y7313D01*
X616Y7313D01*
X618Y7314D01*
X619Y7314D01*
X621Y7315D01*
X622Y7316D01*
X623Y7317D01*
Y7317D01*
X623Y7317D01*
X623Y7317D01*
X623Y7318D01*
X623Y7318D01*
X624Y7319D01*
X624Y7319D01*
X625Y7320D01*
X625Y7321D01*
X625Y7322D01*
X626Y7323D01*
X626Y7325D01*
X626Y7326D01*
X626Y7327D01*
X627Y7329D01*
Y7331D01*
Y7331D01*
Y7331D01*
Y7331D01*
X626Y7332D01*
Y7333D01*
X626Y7333D01*
X626Y7335D01*
X626Y7337D01*
X625Y7340D01*
X624Y7342D01*
X623Y7344D01*
Y7344D01*
X622Y7344D01*
X622Y7344D01*
X621Y7345D01*
X620Y7346D01*
X618Y7347D01*
X617Y7347D01*
X615Y7348D01*
X614Y7348D01*
D02*
G37*
G36*
X351Y7348D02*
X350D01*
X349Y7348D01*
X348Y7348D01*
X347Y7348D01*
X346Y7347D01*
X344Y7346D01*
X344Y7346D01*
X343Y7345D01*
X342Y7345D01*
X341Y7344D01*
Y7344D01*
X341Y7343D01*
X341Y7343D01*
X341Y7343D01*
X340Y7342D01*
X340Y7342D01*
X340Y7341D01*
X339Y7340D01*
X339Y7339D01*
X339Y7338D01*
X338Y7337D01*
X338Y7336D01*
X338Y7335D01*
X338Y7333D01*
X338Y7332D01*
Y7330D01*
Y7330D01*
Y7330D01*
Y7329D01*
X338Y7329D01*
Y7328D01*
X338Y7327D01*
X338Y7325D01*
X338Y7323D01*
X339Y7321D01*
X340Y7319D01*
X340Y7318D01*
X341Y7317D01*
X341Y7317D01*
X342Y7316D01*
X343Y7315D01*
X343Y7315D01*
X345Y7314D01*
X346Y7313D01*
X348Y7313D01*
X349Y7313D01*
X350Y7312D01*
X350D01*
X351Y7313D01*
X352Y7313D01*
X353Y7313D01*
X354Y7314D01*
X356Y7314D01*
X357Y7315D01*
X358Y7316D01*
X359Y7317D01*
Y7317D01*
X359Y7317D01*
X359Y7317D01*
X359Y7318D01*
X360Y7318D01*
X360Y7319D01*
X360Y7319D01*
X361Y7320D01*
X361Y7321D01*
X361Y7322D01*
X362Y7323D01*
X362Y7325D01*
X362Y7326D01*
X362Y7327D01*
X363Y7329D01*
Y7331D01*
Y7331D01*
Y7331D01*
Y7331D01*
X362Y7332D01*
Y7333D01*
X362Y7334D01*
X362Y7336D01*
X362Y7338D01*
X361Y7340D01*
X360Y7342D01*
X359Y7343D01*
X359Y7344D01*
Y7344D01*
X359Y7344D01*
X358Y7345D01*
X357Y7345D01*
X356Y7346D01*
X355Y7347D01*
X354Y7348D01*
X352Y7348D01*
X351Y7348D01*
D02*
G37*
G36*
X222Y7367D02*
X221D01*
X221Y7367D01*
X220D01*
X219Y7367D01*
X219Y7367D01*
X218Y7366D01*
X216Y7366D01*
X213Y7365D01*
X211Y7364D01*
X208Y7363D01*
X208D01*
X208Y7363D01*
X208Y7363D01*
X207Y7363D01*
X207Y7362D01*
X206Y7362D01*
X205Y7361D01*
X203Y7359D01*
X201Y7357D01*
X200Y7355D01*
X198Y7353D01*
Y7353D01*
X198Y7353D01*
X198Y7352D01*
X198Y7352D01*
X197Y7351D01*
X197Y7351D01*
X197Y7350D01*
X196Y7349D01*
X196Y7347D01*
X195Y7344D01*
X195Y7342D01*
X194Y7339D01*
Y7339D01*
Y7339D01*
Y7339D01*
X195Y7338D01*
Y7337D01*
X195Y7337D01*
X195Y7336D01*
X195Y7335D01*
X195Y7333D01*
X196Y7330D01*
X197Y7328D01*
X198Y7326D01*
Y7325D01*
X198Y7325D01*
X198Y7325D01*
X199Y7324D01*
X199Y7324D01*
X200Y7323D01*
X201Y7322D01*
X202Y7320D01*
X204Y7319D01*
X206Y7317D01*
X208Y7315D01*
X208D01*
X208Y7315D01*
X209Y7315D01*
X209Y7315D01*
X210Y7315D01*
X211Y7314D01*
X212Y7314D01*
X212Y7314D01*
X214Y7313D01*
X217Y7312D01*
X219Y7312D01*
X222Y7312D01*
X223D01*
X223Y7312D01*
X224D01*
X225Y7312D01*
X225Y7312D01*
X226Y7312D01*
X228Y7313D01*
X231Y7313D01*
X233Y7314D01*
X236Y7315D01*
X236D01*
X236Y7316D01*
X236Y7316D01*
X237Y7316D01*
X237Y7316D01*
X238Y7317D01*
X239Y7318D01*
X241Y7319D01*
X243Y7321D01*
X244Y7323D01*
X246Y7326D01*
Y7326D01*
X246Y7326D01*
X246Y7326D01*
X246Y7327D01*
X247Y7327D01*
X247Y7328D01*
X247Y7329D01*
X248Y7330D01*
X248Y7332D01*
X249Y7334D01*
X249Y7337D01*
X249Y7339D01*
Y7339D01*
Y7339D01*
Y7340D01*
X249Y7340D01*
Y7341D01*
X249Y7342D01*
X249Y7343D01*
X249Y7344D01*
X249Y7346D01*
X248Y7348D01*
X247Y7351D01*
X246Y7353D01*
Y7353D01*
X246Y7353D01*
X245Y7354D01*
X245Y7354D01*
X245Y7355D01*
X244Y7355D01*
X243Y7357D01*
X242Y7358D01*
X240Y7360D01*
X238Y7362D01*
X235Y7363D01*
X235D01*
X235Y7363D01*
X235Y7363D01*
X234Y7364D01*
X234Y7364D01*
X233Y7364D01*
X232Y7365D01*
X231Y7365D01*
X229Y7366D01*
X227Y7366D01*
X225Y7367D01*
X222Y7367D01*
D02*
G37*
G36*
X290Y7365D02*
X289D01*
X288Y7365D01*
X288Y7365D01*
X287Y7365D01*
X286Y7364D01*
X285Y7364D01*
X282Y7363D01*
X281Y7363D01*
X280Y7362D01*
X278Y7362D01*
X277Y7361D01*
X276Y7360D01*
X274Y7359D01*
X274Y7359D01*
X274Y7358D01*
X274Y7358D01*
X273Y7358D01*
X273Y7357D01*
X272Y7356D01*
X272Y7355D01*
X271Y7354D01*
X271Y7352D01*
X270Y7351D01*
X269Y7349D01*
X269Y7347D01*
X269Y7345D01*
X268Y7343D01*
X268Y7341D01*
X268Y7338D01*
Y7338D01*
Y7338D01*
Y7337D01*
X268Y7336D01*
X268Y7335D01*
X268Y7334D01*
X268Y7333D01*
X269Y7331D01*
X269Y7329D01*
X270Y7327D01*
X271Y7326D01*
X271Y7324D01*
X272Y7323D01*
X273Y7321D01*
X274Y7320D01*
X274Y7320D01*
X274Y7320D01*
X275Y7319D01*
X275Y7319D01*
X276Y7318D01*
X277Y7318D01*
X277Y7317D01*
X278Y7317D01*
X279Y7316D01*
X281Y7315D01*
X282Y7315D01*
X283Y7314D01*
X285Y7314D01*
X286Y7314D01*
X288Y7313D01*
X290Y7313D01*
X291D01*
X291Y7313D01*
X292Y7313D01*
X293Y7314D01*
X294Y7314D01*
X295Y7314D01*
X298Y7315D01*
X299Y7315D01*
X300Y7316D01*
X302Y7317D01*
X303Y7318D01*
X304Y7319D01*
X305Y7320D01*
X306Y7320D01*
X306Y7320D01*
X306Y7321D01*
X306Y7321D01*
X307Y7322D01*
X307Y7323D01*
X308Y7324D01*
X309Y7325D01*
X309Y7326D01*
X310Y7327D01*
X310Y7329D01*
X311Y7331D01*
X311Y7333D01*
X311Y7335D01*
X312Y7337D01*
X312Y7339D01*
Y7339D01*
Y7339D01*
Y7340D01*
Y7340D01*
X312Y7341D01*
Y7342D01*
X311Y7344D01*
X311Y7346D01*
X310Y7348D01*
X310Y7350D01*
X309Y7353D01*
Y7353D01*
X309Y7353D01*
X309Y7353D01*
X308Y7354D01*
X308Y7355D01*
X307Y7356D01*
X306Y7357D01*
X305Y7359D01*
X303Y7360D01*
X301Y7362D01*
X301D01*
X301Y7362D01*
X301Y7362D01*
X300Y7362D01*
X299Y7363D01*
X298Y7363D01*
X296Y7364D01*
X294Y7364D01*
X292Y7365D01*
X290Y7365D01*
D02*
G37*
G36*
X1215Y7348D02*
X1213D01*
X1213Y7348D01*
X1212Y7348D01*
X1211Y7348D01*
X1209Y7347D01*
X1208Y7346D01*
X1206Y7345D01*
X1206Y7345D01*
X1205Y7344D01*
X1205Y7344D01*
X1205Y7343D01*
X1204Y7343D01*
X1204Y7343D01*
X1204Y7342D01*
X1204Y7341D01*
X1203Y7340D01*
X1203Y7340D01*
X1203Y7339D01*
X1202Y7337D01*
X1202Y7336D01*
X1202Y7335D01*
X1202Y7333D01*
X1201Y7332D01*
Y7330D01*
Y7330D01*
Y7330D01*
Y7329D01*
X1202Y7329D01*
Y7328D01*
X1202Y7327D01*
X1202Y7325D01*
X1202Y7323D01*
X1203Y7321D01*
X1204Y7319D01*
X1205Y7318D01*
X1205Y7317D01*
X1205Y7317D01*
X1206Y7316D01*
X1207Y7315D01*
X1208Y7315D01*
X1209Y7314D01*
X1210Y7313D01*
X1212Y7313D01*
X1213Y7313D01*
X1214Y7312D01*
X1215D01*
X1215Y7313D01*
X1216Y7313D01*
X1217Y7313D01*
X1218Y7314D01*
X1220Y7314D01*
X1221Y7315D01*
X1222Y7316D01*
X1223Y7317D01*
Y7317D01*
X1223Y7317D01*
X1223Y7317D01*
X1223Y7317D01*
X1224Y7318D01*
X1224Y7318D01*
X1224Y7319D01*
X1225Y7320D01*
X1225Y7321D01*
X1225Y7322D01*
X1226Y7323D01*
X1226Y7324D01*
X1226Y7325D01*
X1226Y7327D01*
X1226Y7328D01*
Y7330D01*
Y7330D01*
Y7330D01*
Y7330D01*
X1226Y7331D01*
Y7332D01*
X1226Y7333D01*
X1226Y7335D01*
X1226Y7337D01*
X1225Y7339D01*
X1224Y7342D01*
X1223Y7343D01*
X1223Y7344D01*
Y7344D01*
X1223Y7344D01*
X1222Y7344D01*
X1221Y7345D01*
X1220Y7346D01*
X1219Y7347D01*
X1217Y7347D01*
X1216Y7348D01*
X1215Y7348D01*
D02*
G37*
G36*
X1040D02*
X1039D01*
X1039Y7348D01*
X1038Y7348D01*
X1036Y7348D01*
X1035Y7347D01*
X1034Y7346D01*
X1032Y7345D01*
X1031Y7345D01*
X1031Y7344D01*
X1031Y7344D01*
X1030Y7343D01*
X1030Y7343D01*
X1030Y7343D01*
X1030Y7342D01*
X1029Y7341D01*
X1029Y7340D01*
X1029Y7340D01*
X1028Y7339D01*
X1028Y7337D01*
X1028Y7336D01*
X1028Y7335D01*
X1027Y7333D01*
X1027Y7332D01*
Y7330D01*
Y7330D01*
Y7330D01*
Y7329D01*
X1027Y7329D01*
Y7328D01*
X1027Y7327D01*
X1028Y7325D01*
X1028Y7323D01*
X1029Y7321D01*
X1030Y7319D01*
X1030Y7318D01*
X1031Y7317D01*
X1031Y7317D01*
X1032Y7316D01*
X1032Y7315D01*
X1034Y7315D01*
X1035Y7314D01*
X1036Y7313D01*
X1038Y7313D01*
X1039Y7313D01*
X1040Y7312D01*
X1040D01*
X1041Y7313D01*
X1042Y7313D01*
X1043Y7313D01*
X1044Y7314D01*
X1046Y7314D01*
X1047Y7315D01*
X1048Y7316D01*
X1049Y7317D01*
Y7317D01*
X1049Y7317D01*
X1049Y7317D01*
X1049Y7317D01*
X1050Y7318D01*
X1050Y7318D01*
X1050Y7319D01*
X1050Y7320D01*
X1051Y7321D01*
X1051Y7322D01*
X1051Y7323D01*
X1052Y7324D01*
X1052Y7325D01*
X1052Y7327D01*
X1052Y7328D01*
Y7330D01*
Y7330D01*
Y7330D01*
Y7330D01*
X1052Y7331D01*
Y7332D01*
X1052Y7333D01*
X1052Y7335D01*
X1051Y7337D01*
X1051Y7339D01*
X1050Y7342D01*
X1049Y7343D01*
X1049Y7344D01*
Y7344D01*
X1048Y7344D01*
X1048Y7344D01*
X1047Y7345D01*
X1046Y7346D01*
X1045Y7347D01*
X1043Y7347D01*
X1041Y7348D01*
X1040Y7348D01*
D02*
G37*
%LPD*%
G36*
X224Y7358D02*
X226Y7357D01*
X227Y7357D01*
X229Y7357D01*
X231Y7356D01*
X232Y7355D01*
X232Y7355D01*
X233Y7355D01*
X233Y7354D01*
X234Y7353D01*
X235Y7352D01*
X236Y7351D01*
X237Y7349D01*
X237Y7347D01*
X232Y7346D01*
X232Y7346D01*
X232Y7347D01*
X232Y7347D01*
X231Y7348D01*
X231Y7349D01*
X230Y7350D01*
X229Y7350D01*
X228Y7351D01*
X228Y7351D01*
X228Y7351D01*
X227Y7352D01*
X227Y7352D01*
X226Y7352D01*
X225Y7353D01*
X224Y7353D01*
X222Y7353D01*
X222D01*
X221Y7353D01*
X221Y7353D01*
X219Y7352D01*
X218Y7352D01*
X217Y7351D01*
X215Y7351D01*
X214Y7349D01*
X214Y7349D01*
X213Y7349D01*
X213Y7348D01*
X212Y7347D01*
X212Y7345D01*
X211Y7343D01*
X211Y7341D01*
X211Y7339D01*
Y7339D01*
Y7339D01*
Y7338D01*
X211Y7338D01*
Y7337D01*
X211Y7337D01*
X211Y7335D01*
X211Y7334D01*
X212Y7332D01*
X213Y7330D01*
X214Y7329D01*
X214Y7329D01*
X214Y7328D01*
X215Y7328D01*
X216Y7327D01*
X217Y7327D01*
X218Y7326D01*
X220Y7326D01*
X222Y7325D01*
X222D01*
X223Y7326D01*
X224Y7326D01*
X225Y7326D01*
X226Y7326D01*
X227Y7327D01*
X229Y7328D01*
X229Y7328D01*
X229Y7328D01*
X230Y7329D01*
X230Y7329D01*
X231Y7330D01*
X232Y7331D01*
X232Y7333D01*
X233Y7334D01*
X238Y7332D01*
Y7332D01*
X238Y7332D01*
X238Y7332D01*
X238Y7331D01*
X237Y7330D01*
X237Y7329D01*
X236Y7328D01*
X235Y7326D01*
X234Y7325D01*
X232Y7324D01*
X232Y7323D01*
X232Y7323D01*
X231Y7323D01*
X229Y7322D01*
X228Y7321D01*
X226Y7321D01*
X224Y7320D01*
X222Y7320D01*
X221D01*
X221Y7320D01*
X220Y7321D01*
X219Y7321D01*
X217Y7321D01*
X216Y7322D01*
X213Y7323D01*
X212Y7323D01*
X211Y7324D01*
X210Y7324D01*
X209Y7325D01*
X209Y7325D01*
X209Y7326D01*
X209Y7326D01*
X209Y7326D01*
X208Y7327D01*
X208Y7327D01*
X208Y7328D01*
X207Y7329D01*
X207Y7330D01*
X206Y7331D01*
X206Y7332D01*
X205Y7333D01*
X205Y7336D01*
X205Y7338D01*
X205Y7339D01*
Y7339D01*
Y7339D01*
Y7340D01*
Y7340D01*
X205Y7341D01*
X205Y7343D01*
X205Y7344D01*
X206Y7346D01*
X206Y7347D01*
X207Y7349D01*
Y7349D01*
X207Y7349D01*
X207Y7350D01*
X208Y7351D01*
X208Y7352D01*
X209Y7353D01*
X210Y7354D01*
X212Y7355D01*
X213Y7356D01*
X213Y7356D01*
X214Y7356D01*
X215Y7356D01*
X216Y7357D01*
X217Y7357D01*
X219Y7357D01*
X221Y7358D01*
X222Y7358D01*
X223D01*
X224Y7358D01*
D02*
G37*
D30*
X3119Y7166D02*
Y7266D01*
X719Y7166D02*
X3119Y7166D01*
X719Y7166D02*
Y7266D01*
X794Y7266D01*
X3119D01*
X15Y7413D02*
X3943D01*
X3117Y7038D02*
Y7138D01*
X717Y7038D02*
X3117Y7038D01*
X717Y7038D02*
Y7138D01*
X792Y7138D01*
X3117D01*
X1589Y197D02*
X1635D01*
X1618Y171D02*
Y220D01*
X1400Y212D02*
X1446D01*
X3942Y17D02*
Y181D01*
X3925Y0D02*
X3942Y17D01*
X7Y0D02*
X3925D01*
X2Y5D02*
X7Y0D01*
X2Y5D02*
Y181D01*
X1679Y213D02*
X2010D01*
X1679Y390D02*
X2010Y390D01*
Y213D02*
Y390D01*
X1679Y213D02*
Y390D01*
Y240D02*
X2010D01*
X2085Y243D02*
X2416D01*
X2085Y216D02*
Y393D01*
X2416Y216D02*
Y393D01*
X2085Y393D02*
X2416Y393D01*
X2085Y216D02*
X2416D01*
D31*
X3311Y6736D02*
X3898D01*
X3898Y7137D01*
X3311Y6736D02*
Y7137D01*
X3898D01*
X3942Y181D02*
Y7413D01*
X2Y-109D02*
X1745D01*
X2197D02*
X3939D01*
X2D02*
X62Y-89D01*
X2Y-109D02*
X62Y-129D01*
X3879Y-89D02*
X3939Y-109D01*
X3879Y-129D02*
X3939Y-109D01*
X2Y-119D02*
Y-99D01*
X3939Y-119D02*
Y-99D01*
X2Y181D02*
Y7407D01*
X659Y5093D02*
Y6275D01*
X72Y6275D02*
X659Y6275D01*
X-91D02*
X639D01*
X-91Y5089D02*
Y6275D01*
X-89Y6257D02*
X58Y6109D01*
X58Y6070D01*
X-91Y5507D02*
X62Y5660D01*
X62Y5704D01*
X-91Y5857D02*
X62Y5704D01*
X72Y5089D02*
X659Y5089D01*
X86D02*
Y6275D01*
X-91Y5089D02*
X72Y5089D01*
X-39Y5396D02*
X26Y5331D01*
X58Y5255D02*
X58Y5298D01*
X-89Y5107D02*
X58Y5255D01*
Y6062D02*
X58Y6070D01*
X-84Y5920D02*
X58Y6062D01*
X-87Y5444D02*
X-39Y5396D01*
X26Y5331D02*
X58Y5298D01*
X649Y3883D02*
Y5065D01*
X62Y5065D02*
X649Y5065D01*
X-101D02*
X629D01*
X-101Y3879D02*
Y5065D01*
X-99Y5047D02*
X48Y4899D01*
X48Y4860D01*
X-101Y4297D02*
X52Y4450D01*
X52Y4494D01*
X-101Y4647D02*
X52Y4494D01*
X62Y3879D02*
X649Y3879D01*
X76D02*
Y5065D01*
X-101Y3879D02*
X62Y3879D01*
X-49Y4186D02*
X16Y4121D01*
X48Y4045D02*
X48Y4088D01*
X-99Y3897D02*
X48Y4045D01*
Y4852D02*
X48Y4860D01*
X-94Y4710D02*
X48Y4852D01*
X-97Y4234D02*
X-49Y4186D01*
X16Y4121D02*
X48Y4088D01*
X662Y3972D02*
Y5064D01*
X1182D01*
X662Y3972D02*
X1331D01*
X1926Y4088D02*
Y4856D01*
X1182Y4859D02*
Y5064D01*
Y4859D02*
X1922D01*
X1331Y3972D02*
Y4076D01*
X1339Y4084D01*
X1922D01*
X673Y5178D02*
Y6270D01*
X1193D01*
X673Y5178D02*
X1343D01*
X1937Y5294D02*
Y6062D01*
X1193Y6066D02*
Y6270D01*
Y6066D02*
X1933D01*
X1343Y5178D02*
Y5282D01*
X1351Y5290D01*
X1933D01*
X3247Y5076D02*
Y6168D01*
X2727Y5076D02*
X3247D01*
X2578Y6168D02*
X3247D01*
X1983Y5285D02*
Y6052D01*
X2727Y5076D02*
Y5281D01*
X1987D02*
X2727D01*
X2578Y6064D02*
Y6168D01*
X2570Y6056D02*
X2578Y6064D01*
X1987Y6056D02*
X2570D01*
X3246Y3881D02*
Y4973D01*
X2726Y3881D02*
X3246D01*
X2577Y4973D02*
X3246D01*
X1982Y4089D02*
Y4857D01*
X2726Y3881D02*
Y4085D01*
X1986D02*
X2726D01*
X2577Y4869D02*
Y4973D01*
X2569Y4861D02*
X2577Y4869D01*
X1986Y4861D02*
X2569D01*
X682Y2753D02*
Y3845D01*
X1202D01*
X682Y2753D02*
X1352D01*
X1946Y2869D02*
Y3636D01*
X1202Y3640D02*
Y3845D01*
Y3640D02*
X1942D01*
X1352Y2753D02*
Y2857D01*
X1360Y2865D01*
X1942D01*
X3243Y2657D02*
Y3749D01*
X2723Y2657D02*
X3243D01*
X2574Y3749D02*
X3243D01*
X1979Y2866D02*
Y3633D01*
X2723Y2657D02*
Y2862D01*
X1983D02*
X2723D01*
X2574Y3645D02*
Y3749D01*
X2566Y3637D02*
X2574Y3645D01*
X1983Y3637D02*
X2566D01*
X634Y2663D02*
Y3845D01*
X47D02*
X634D01*
X-116D02*
X614D01*
X-116Y2659D02*
Y3845D01*
X-114Y3827D02*
X33Y3679D01*
X33Y3640D02*
X33Y3679D01*
X-116Y3077D02*
X37Y3230D01*
X37Y3274D01*
X-116Y3427D02*
X37Y3274D01*
X47Y2659D02*
X634D01*
X61D02*
Y3845D01*
X-116Y2659D02*
X47D01*
X-64Y2966D02*
X1Y2901D01*
X33Y2825D02*
Y2868D01*
X-114Y2677D02*
X33Y2825D01*
Y3632D02*
Y3640D01*
X-109Y3490D02*
X33Y3632D01*
X-112Y3014D02*
X-64Y2966D01*
X1Y2901D02*
X33Y2868D01*
X678Y1548D02*
Y2640D01*
X1198D01*
X678Y1548D02*
X1348D01*
X1942Y1664D02*
Y2432D01*
X1198Y2436D02*
Y2640D01*
Y2436D02*
X1938D01*
X1348Y1548D02*
Y1652D01*
X1356Y1660D01*
X1938D01*
X3233Y1457D02*
Y2549D01*
X2713Y1457D02*
X3233D01*
X2564Y2549D02*
X3233D01*
X1969Y1666D02*
Y2433D01*
X2713Y1457D02*
Y1662D01*
X1973D02*
X2713D01*
X2564Y2445D02*
Y2549D01*
X2556Y2437D02*
X2564Y2445D01*
X1973Y2437D02*
X2556D01*
X634Y1458D02*
Y2640D01*
X47Y2640D02*
X634Y2640D01*
X-116D02*
X614D01*
X-116Y1454D02*
Y2640D01*
X-114Y2622D02*
X33Y2474D01*
Y2435D02*
Y2474D01*
X-116Y1872D02*
X37Y2025D01*
X37Y2069D01*
X-116Y2222D02*
X37Y2069D01*
X47Y1454D02*
X634D01*
X61D02*
Y2640D01*
X-116Y1454D02*
X47D01*
X-64Y1761D02*
X1Y1696D01*
X33Y1620D02*
Y1663D01*
X-114Y1472D02*
X33Y1620D01*
Y2427D02*
Y2435D01*
X-109Y2285D02*
X33Y2427D01*
X-112Y1809D02*
X-64Y1761D01*
X1Y1696D02*
X33Y1663D01*
X692Y337D02*
Y1429D01*
X1212D01*
X692Y337D02*
X1361D01*
X1956Y453D02*
Y1221D01*
X1212Y1224D02*
Y1429D01*
Y1224D02*
X1952D01*
X1361Y337D02*
Y441D01*
X1369Y449D01*
X1952D01*
X3242Y241D02*
Y1333D01*
X2722Y241D02*
X3242D01*
X2573Y1333D02*
X3242D01*
X1978Y450D02*
Y1217D01*
X2722Y241D02*
Y446D01*
X1982D02*
X2722D01*
X2573Y1229D02*
Y1333D01*
X2565Y1221D02*
X2573Y1229D01*
X1982Y1221D02*
X2565D01*
X629Y243D02*
Y1425D01*
X42Y1425D02*
X629Y1425D01*
X-121D02*
X609D01*
X-121Y239D02*
Y1425D01*
X-119Y1407D02*
X28Y1259D01*
Y1220D02*
Y1259D01*
X-121Y657D02*
X32Y810D01*
X32Y854D01*
X-121Y1007D02*
X32Y854D01*
X42Y239D02*
X629D01*
X56D02*
Y1425D01*
X-121Y239D02*
X42D01*
X-69Y546D02*
X-4Y481D01*
X28Y405D02*
Y448D01*
X-119Y257D02*
X28Y405D01*
Y1212D02*
Y1220D01*
X-114Y1070D02*
X28Y1212D01*
X-117Y594D02*
X-69Y546D01*
X-4Y481D02*
X28Y448D01*
X3271Y237D02*
Y1418D01*
Y237D02*
X3858D01*
X3290D02*
X4021D01*
Y1422D01*
X3872Y402D02*
X4019Y254D01*
X3872Y402D02*
Y441D01*
X3868Y851D02*
X4021Y1004D01*
X3868Y807D02*
Y851D01*
Y807D02*
X4021Y654D01*
X3271Y1422D02*
X3858D01*
X3844Y237D02*
Y1422D01*
X3858D02*
X4021D01*
X3904Y1180D02*
X3969Y1116D01*
X3872Y1213D02*
Y1256D01*
X4019Y1404D01*
X3872Y441D02*
Y449D01*
X4013Y591D01*
X3969Y1116D02*
X4017Y1067D01*
X3872Y1213D02*
X3904Y1180D01*
X3261Y1452D02*
Y2633D01*
Y1452D02*
X3848D01*
X3280D02*
X4011D01*
Y2637D01*
X3862Y1617D02*
X4009Y1469D01*
X3862Y1617D02*
Y1656D01*
X3858Y2066D02*
X4011Y2219D01*
X3858Y2022D02*
Y2066D01*
Y2022D02*
X4011Y1869D01*
X3261Y2637D02*
X3848D01*
X3834Y1452D02*
Y2637D01*
X3848D02*
X4011D01*
X3894Y2395D02*
X3959Y2331D01*
X3862Y2428D02*
Y2471D01*
X4009Y2619D01*
X3862Y1656D02*
Y1664D01*
X4003Y1806D01*
X3959Y2331D02*
X4007Y2282D01*
X3862Y2428D02*
X3894Y2395D01*
X3281Y2672D02*
Y3853D01*
Y2672D02*
X3868D01*
X3300D02*
X4031D01*
Y3857D01*
X3882Y2837D02*
X4029Y2689D01*
X3882Y2837D02*
Y2876D01*
X3878Y3286D02*
X4031Y3439D01*
X3878Y3242D02*
Y3286D01*
Y3242D02*
X4031Y3089D01*
X3281Y3857D02*
X3868D01*
X3854Y2672D02*
Y3857D01*
X3868D02*
X4031D01*
X3914Y3615D02*
X3979Y3551D01*
X3882Y3648D02*
Y3691D01*
X4029Y3839D01*
X3882Y2876D02*
Y2884D01*
X4023Y3026D01*
X3979Y3551D02*
X4027Y3502D01*
X3882Y3648D02*
X3914Y3615D01*
X3291Y3892D02*
Y5073D01*
Y3892D02*
X3878D01*
X3310D02*
X4041D01*
Y5077D01*
X3892Y4057D02*
X4039Y3909D01*
X3892Y4057D02*
Y4096D01*
X3888Y4506D02*
X4041Y4659D01*
X3888Y4462D02*
Y4506D01*
Y4462D02*
X4041Y4309D01*
X3291Y5077D02*
X3878D01*
X3864Y3892D02*
Y5077D01*
X3878D02*
X4041D01*
X3924Y4835D02*
X3989Y4771D01*
X3892Y4868D02*
Y4911D01*
X4039Y5059D01*
X3892Y4096D02*
Y4104D01*
X4033Y4246D01*
X3989Y4771D02*
X4037Y4722D01*
X3892Y4868D02*
X3924Y4835D01*
X3291Y5097D02*
Y6278D01*
Y5097D02*
X3878D01*
X3310D02*
X4041D01*
Y6282D01*
X3892Y5262D02*
X4039Y5114D01*
X3892Y5262D02*
Y5301D01*
X3888Y5711D02*
X4041Y5864D01*
X3888Y5667D02*
Y5711D01*
Y5667D02*
X4041Y5514D01*
X3291Y6282D02*
X3878D01*
X3864Y5097D02*
Y6282D01*
X3878D02*
X4041D01*
X3924Y6040D02*
X3989Y5976D01*
X3892Y6073D02*
Y6116D01*
X4039Y6264D01*
X3892Y5301D02*
Y5309D01*
X4033Y5451D01*
X3989Y5976D02*
X4037Y5927D01*
X3892Y6073D02*
X3924Y6040D01*
X3318Y6296D02*
X3905D01*
X3905Y6697D01*
X3318Y6296D02*
Y6697D01*
X3905D01*
X4366Y7404D02*
X4376Y4031D01*
X4378Y3359D02*
X4388Y-14D01*
X4366Y7404D02*
X4386Y7344D01*
X4346Y7343D02*
X4366Y7404D01*
X4388Y-14D02*
X4408Y46D01*
X4368Y46D02*
X4388Y-14D01*
X4356Y7404D02*
X4376Y7404D01*
X4378Y-14D02*
X4398Y-14D01*
X584Y7191D02*
Y7251D01*
X614D01*
X624Y7241D01*
Y7221D01*
X614Y7211D01*
X584D01*
X684Y7191D02*
X644D01*
X684Y7231D01*
Y7241D01*
X674Y7251D01*
X654D01*
X644Y7241D01*
X2978Y6964D02*
X3018D01*
X2998D01*
Y6904D01*
X3038Y6964D02*
Y6904D01*
X3068D01*
X3078Y6914D01*
Y6924D01*
X3068Y6934D01*
X3038D01*
X3068D01*
X3078Y6944D01*
Y6954D01*
X3068Y6964D01*
X3038D01*
X3098Y6934D02*
X3138D01*
X3198Y6904D02*
X3158D01*
X3198Y6944D01*
Y6954D01*
X3188Y6964D01*
X3168D01*
X3158Y6954D01*
X582Y7063D02*
Y7123D01*
X612D01*
X622Y7113D01*
Y7093D01*
X612Y7083D01*
X582D01*
X642Y7063D02*
X662D01*
X652D01*
Y7123D01*
X642Y7113D01*
X1247Y6181D02*
Y6121D01*
Y6141D01*
X1287Y6181D01*
X1257Y6151D01*
X1287Y6121D01*
X1307D02*
X1327D01*
X1317D01*
Y6181D01*
X1307Y6171D01*
X1242Y4961D02*
Y4901D01*
Y4921D01*
X1282Y4961D01*
X1252Y4931D01*
X1282Y4901D01*
X1342D02*
X1302D01*
X1342Y4941D01*
Y4951D01*
X1332Y4961D01*
X1312D01*
X1302Y4951D01*
X1272Y3771D02*
Y3711D01*
Y3731D01*
X1312Y3771D01*
X1282Y3741D01*
X1312Y3711D01*
X1332Y3761D02*
X1342Y3771D01*
X1362D01*
X1372Y3761D01*
Y3751D01*
X1362Y3741D01*
X1352D01*
X1362D01*
X1372Y3731D01*
Y3721D01*
X1362Y3711D01*
X1342D01*
X1332Y3721D01*
X1247Y2536D02*
Y2476D01*
Y2496D01*
X1287Y2536D01*
X1257Y2506D01*
X1287Y2476D01*
X1337D02*
Y2536D01*
X1307Y2506D01*
X1347D01*
X1282Y1346D02*
Y1286D01*
Y1306D01*
X1322Y1346D01*
X1292Y1316D01*
X1322Y1286D01*
X1382Y1346D02*
X1342D01*
Y1316D01*
X1362Y1326D01*
X1372D01*
X1382Y1316D01*
Y1296D01*
X1372Y1286D01*
X1352D01*
X1342Y1296D01*
X2407Y6146D02*
Y6086D01*
Y6106D01*
X2447Y6146D01*
X2417Y6116D01*
X2447Y6086D01*
X2467D02*
X2487D01*
X2477D01*
Y6146D01*
X2467Y6136D01*
X2517D02*
X2527Y6146D01*
X2547D01*
X2557Y6136D01*
Y6096D01*
X2547Y6086D01*
X2527D01*
X2517Y6096D01*
Y6136D01*
X2437Y4956D02*
Y4896D01*
Y4916D01*
X2477Y4956D01*
X2447Y4926D01*
X2477Y4896D01*
X2497Y4906D02*
X2507Y4896D01*
X2527D01*
X2537Y4906D01*
Y4946D01*
X2527Y4956D01*
X2507D01*
X2497Y4946D01*
Y4936D01*
X2507Y4926D01*
X2537D01*
X2392Y3736D02*
Y3676D01*
Y3696D01*
X2432Y3736D01*
X2402Y3706D01*
X2432Y3676D01*
X2452Y3726D02*
X2462Y3736D01*
X2482D01*
X2492Y3726D01*
Y3716D01*
X2482Y3706D01*
X2492Y3696D01*
Y3686D01*
X2482Y3676D01*
X2462D01*
X2452Y3686D01*
Y3696D01*
X2462Y3706D01*
X2452Y3716D01*
Y3726D01*
X2462Y3706D02*
X2482D01*
X2427Y2526D02*
Y2466D01*
Y2486D01*
X2467Y2526D01*
X2437Y2496D01*
X2467Y2466D01*
X2487Y2526D02*
X2527D01*
Y2516D01*
X2487Y2476D01*
Y2466D01*
X2412Y1321D02*
Y1261D01*
Y1281D01*
X2452Y1321D01*
X2422Y1291D01*
X2452Y1261D01*
X2512Y1321D02*
X2492Y1311D01*
X2472Y1291D01*
Y1271D01*
X2482Y1261D01*
X2502D01*
X2512Y1271D01*
Y1281D01*
X2502Y1291D01*
X2472D01*
X232Y6381D02*
X272D01*
X252D01*
Y6321D01*
X292Y6381D02*
Y6321D01*
X322D01*
X332Y6331D01*
Y6341D01*
X322Y6351D01*
X292D01*
X322D01*
X332Y6361D01*
Y6371D01*
X322Y6381D01*
X292D01*
X352Y6321D02*
X372D01*
X362D01*
Y6381D01*
X352Y6371D01*
X687Y5146D02*
X727D01*
X707D01*
Y5086D01*
X747Y5146D02*
Y5086D01*
X777D01*
X787Y5096D01*
Y5106D01*
X777Y5116D01*
X747D01*
X777D01*
X787Y5126D01*
Y5136D01*
X777Y5146D01*
X747D01*
X847Y5086D02*
X807D01*
X847Y5126D01*
Y5136D01*
X837Y5146D01*
X817D01*
X807Y5136D01*
X687Y3926D02*
X727D01*
X707D01*
Y3866D01*
X747Y3926D02*
Y3866D01*
X777D01*
X787Y3876D01*
Y3886D01*
X777Y3896D01*
X747D01*
X777D01*
X787Y3906D01*
Y3916D01*
X777Y3926D01*
X747D01*
X807Y3916D02*
X817Y3926D01*
X837D01*
X847Y3916D01*
Y3906D01*
X837Y3896D01*
X827D01*
X837D01*
X847Y3886D01*
Y3876D01*
X837Y3866D01*
X817D01*
X807Y3876D01*
X682Y2721D02*
X722D01*
X702D01*
Y2661D01*
X742Y2721D02*
Y2661D01*
X772D01*
X782Y2671D01*
Y2681D01*
X772Y2691D01*
X742D01*
X772D01*
X782Y2701D01*
Y2711D01*
X772Y2721D01*
X742D01*
X832Y2661D02*
Y2721D01*
X802Y2691D01*
X842D01*
X707Y1511D02*
X747D01*
X727D01*
Y1451D01*
X767Y1511D02*
Y1451D01*
X797D01*
X807Y1461D01*
Y1471D01*
X797Y1481D01*
X767D01*
X797D01*
X807Y1491D01*
Y1501D01*
X797Y1511D01*
X767D01*
X867D02*
X827D01*
Y1481D01*
X847Y1491D01*
X857D01*
X867Y1481D01*
Y1461D01*
X857Y1451D01*
X837D01*
X827Y1461D01*
X3155Y6366D02*
X3195D01*
X3175D01*
Y6306D01*
X3215Y6366D02*
Y6306D01*
X3244D01*
X3254Y6316D01*
Y6326D01*
X3244Y6336D01*
X3215D01*
X3244D01*
X3254Y6346D01*
Y6356D01*
X3244Y6366D01*
X3215D01*
X3314D02*
X3294Y6356D01*
X3274Y6336D01*
Y6316D01*
X3284Y6306D01*
X3304D01*
X3314Y6316D01*
Y6326D01*
X3304Y6336D01*
X3274D01*
X3042Y5066D02*
X3082D01*
X3062D01*
Y5006D01*
X3102Y5066D02*
Y5006D01*
X3132D01*
X3142Y5016D01*
Y5026D01*
X3132Y5036D01*
X3102D01*
X3132D01*
X3142Y5046D01*
Y5056D01*
X3132Y5066D01*
X3102D01*
X3162D02*
X3202D01*
Y5056D01*
X3162Y5016D01*
Y5006D01*
X3047Y3841D02*
X3087D01*
X3067D01*
Y3781D01*
X3107Y3841D02*
Y3781D01*
X3137D01*
X3147Y3791D01*
Y3801D01*
X3137Y3811D01*
X3107D01*
X3137D01*
X3147Y3821D01*
Y3831D01*
X3137Y3841D01*
X3107D01*
X3167Y3831D02*
X3177Y3841D01*
X3197D01*
X3207Y3831D01*
Y3821D01*
X3197Y3811D01*
X3207Y3801D01*
Y3791D01*
X3197Y3781D01*
X3177D01*
X3167Y3791D01*
Y3801D01*
X3177Y3811D01*
X3167Y3821D01*
Y3831D01*
X3177Y3811D02*
X3197D01*
X3032Y2631D02*
X3072D01*
X3052D01*
Y2571D01*
X3092Y2631D02*
Y2571D01*
X3122D01*
X3132Y2581D01*
Y2591D01*
X3122Y2601D01*
X3092D01*
X3122D01*
X3132Y2611D01*
Y2621D01*
X3122Y2631D01*
X3092D01*
X3152Y2581D02*
X3162Y2571D01*
X3182D01*
X3192Y2581D01*
Y2621D01*
X3182Y2631D01*
X3162D01*
X3152Y2621D01*
Y2611D01*
X3162Y2601D01*
X3192D01*
X3007Y1426D02*
X3047D01*
X3027D01*
Y1366D01*
X3067Y1426D02*
Y1366D01*
X3097D01*
X3107Y1376D01*
Y1386D01*
X3097Y1396D01*
X3067D01*
X3097D01*
X3107Y1406D01*
Y1416D01*
X3097Y1426D01*
X3067D01*
X3127Y1366D02*
X3147D01*
X3137D01*
Y1426D01*
X3127Y1416D01*
X3177D02*
X3187Y1426D01*
X3207D01*
X3217Y1416D01*
Y1376D01*
X3207Y1366D01*
X3187D01*
X3177Y1376D01*
Y1416D01*
X3019Y6670D02*
X3059D01*
X3039D01*
Y6610D01*
X3079Y6670D02*
Y6610D01*
X3109D01*
X3119Y6620D01*
Y6630D01*
X3109Y6640D01*
X3079D01*
X3109D01*
X3119Y6650D01*
Y6660D01*
X3109Y6670D01*
X3079D01*
X3139Y6640D02*
X3179D01*
X3199Y6610D02*
X3219D01*
X3209D01*
Y6670D01*
X3199Y6660D01*
X1742Y197D02*
X1782D01*
X1762D01*
Y137D01*
X1802Y197D02*
Y137D01*
X1832D01*
X1842Y147D01*
Y157D01*
X1832Y167D01*
X1802D01*
X1832D01*
X1842Y177D01*
Y187D01*
X1832Y197D01*
X1802D01*
X1862Y167D02*
X1902D01*
X1922Y187D02*
X1932Y197D01*
X1952D01*
X1962Y187D01*
Y177D01*
X1952Y167D01*
X1942D01*
X1952D01*
X1962Y157D01*
Y147D01*
X1952Y137D01*
X1932D01*
X1922Y147D01*
X2169Y197D02*
X2209D01*
X2189D01*
Y137D01*
X2229Y197D02*
Y137D01*
X2259D01*
X2269Y147D01*
Y157D01*
X2259Y167D01*
X2229D01*
X2259D01*
X2269Y177D01*
Y187D01*
X2259Y197D01*
X2229D01*
X2289Y167D02*
X2329D01*
X2379Y137D02*
Y197D01*
X2349Y167D01*
X2389D01*
X1469Y174D02*
Y114D01*
X1499D01*
X1509Y124D01*
Y164D01*
X1499Y174D01*
X1469D01*
X1569Y164D02*
X1559Y174D01*
X1539D01*
X1529Y164D01*
Y124D01*
X1539Y114D01*
X1559D01*
X1569Y124D01*
X2578Y62D02*
Y102D01*
X2598Y122D01*
X2618Y102D01*
Y62D01*
Y92D01*
X2578D01*
X2678Y112D02*
X2668Y122D01*
X2648D01*
X2638Y112D01*
Y72D01*
X2648Y62D01*
X2668D01*
X2678Y72D01*
X2453Y172D02*
X2487D01*
X2470Y189D02*
Y154D01*
X2505Y198D02*
Y163D01*
X2522Y146D01*
X2540Y163D01*
Y198D01*
X2557Y189D02*
X2566Y198D01*
X2583D01*
X2592Y206D01*
X2674Y171D02*
X2709D01*
X2726Y197D02*
Y162D01*
X2744Y145D01*
X2761Y162D01*
Y197D01*
X2778Y188D02*
X2787Y197D01*
X2804D01*
X2813Y205D01*
D32*
X1755Y-145D02*
X1775D01*
X1765D01*
Y-85D01*
X1755Y-95D01*
X1805D02*
X1815Y-85D01*
X1835D01*
X1845Y-95D01*
Y-135D01*
X1835Y-145D01*
X1815D01*
X1805Y-135D01*
Y-95D01*
X1865D02*
X1875Y-85D01*
X1895D01*
X1905Y-95D01*
Y-135D01*
X1895Y-145D01*
X1875D01*
X1865Y-135D01*
Y-95D01*
X2005Y-145D02*
X1985Y-125D01*
Y-105D01*
X2005Y-85D01*
X2035Y-145D02*
Y-105D01*
X2045D01*
X2055Y-115D01*
Y-145D01*
Y-115D01*
X2065Y-105D01*
X2075Y-115D01*
Y-145D01*
X2095D02*
Y-105D01*
X2105D01*
X2115Y-115D01*
Y-145D01*
Y-115D01*
X2125Y-105D01*
X2135Y-115D01*
Y-145D01*
X2155D02*
X2175Y-125D01*
Y-105D01*
X2155Y-85D01*
X4340Y4021D02*
X4340Y4001D01*
X4340Y4011D01*
X4400Y4011D01*
X4390Y4021D01*
X4390Y3971D02*
X4400Y3961D01*
X4400Y3941D01*
X4390Y3931D01*
X4380Y3931D01*
X4370Y3941D01*
X4360Y3931D01*
X4350Y3931D01*
X4340Y3941D01*
X4340Y3961D01*
X4350Y3971D01*
X4360Y3971D01*
X4370Y3961D01*
X4380Y3971D01*
X4390Y3971D01*
X4370Y3961D02*
X4370Y3941D01*
X4390Y3911D02*
X4400Y3901D01*
X4400Y3881D01*
X4390Y3871D01*
X4380Y3871D01*
X4370Y3881D01*
X4360Y3871D01*
X4350Y3871D01*
X4340Y3881D01*
X4340Y3901D01*
X4350Y3911D01*
X4360Y3911D01*
X4370Y3901D01*
X4380Y3911D01*
X4390Y3911D01*
X4370Y3901D02*
X4370Y3881D01*
X4341Y3851D02*
X4351Y3851D01*
X4351Y3841D01*
X4341Y3841D01*
X4341Y3851D01*
X4341Y3771D02*
X4401Y3771D01*
X4371Y3801D01*
X4371Y3761D01*
X4391Y3741D02*
X4401Y3731D01*
X4401Y3711D01*
X4391Y3701D01*
X4351Y3701D01*
X4341Y3711D01*
X4341Y3731D01*
X4351Y3741D01*
X4391Y3741D01*
X4341Y3681D02*
X4341Y3661D01*
X4341Y3671D01*
X4401Y3671D01*
X4391Y3681D01*
X4341Y3551D02*
X4361Y3571D01*
X4381Y3571D01*
X4401Y3551D01*
X4341Y3521D02*
X4381Y3521D01*
X4382Y3511D01*
X4372Y3501D01*
X4342Y3501D01*
X4372Y3501D01*
X4382Y3491D01*
X4372Y3481D01*
X4342Y3481D01*
X4342Y3461D02*
X4382Y3461D01*
X4382Y3451D01*
X4372Y3441D01*
X4342Y3441D01*
X4372Y3441D01*
X4382Y3431D01*
X4372Y3421D01*
X4342Y3421D01*
X4342Y3401D02*
X4362Y3381D01*
X4382Y3381D01*
X4402Y3401D01*
M02*
