%FSLAX23Y23*%
%MOIN*%
G70*
G01*
G75*
G04 Layer_Color=2752767*
%ADD10C,0.010*%
%ADD11C,0.005*%
%ADD12C,0.007*%
D11*
X7002Y555D02*
Y595D01*
X7042D01*
Y555D01*
X7002D01*
X8360D02*
Y595D01*
X8400D01*
Y555D01*
X8360D01*
X7252Y2177D02*
Y2217D01*
X7292D01*
Y2177D01*
X7252D01*
X8138Y1555D02*
Y1595D01*
X8178D01*
Y1555D01*
X8138D01*
X8094Y2791D02*
Y2831D01*
X8134D01*
Y2791D01*
X8094D01*
X7216Y3437D02*
Y3477D01*
X7256D01*
Y3437D01*
X7216D01*
X8122Y4059D02*
Y4099D01*
X8162D01*
Y4059D01*
X8122D01*
X7586Y4708D02*
Y4748D01*
X7626D01*
Y4708D01*
X7586D01*
X8130Y5338D02*
Y5378D01*
X8170D01*
Y5338D01*
X8130D01*
X7578Y5949D02*
Y5989D01*
X7618D01*
Y5949D01*
X7578D01*
X8262Y7138D02*
Y7178D01*
X8302D01*
Y7138D01*
X8262D01*
X7092Y7149D02*
Y7189D01*
X7132D01*
Y7149D01*
X7092D01*
X7682Y7251D02*
X7662Y7291D01*
X7702D01*
X7682Y7251D01*
X7793Y6468D02*
X7773Y6508D01*
X7813D01*
X7793Y6468D01*
X8293Y6560D02*
X8273Y6600D01*
X8313D01*
X8293Y6560D01*
X7799Y6596D02*
X7779Y6636D01*
X7819D01*
X7799Y6596D01*
X8001Y7298D02*
X7981Y7338D01*
X8021D01*
X8001Y7298D01*
D12*
X7573Y6974D02*
G03*
X7573Y6974I-20J0D01*
G01*
Y6226D02*
G03*
X7573Y6226I-20J0D01*
G01*
X7179Y6896D02*
G03*
X7179Y6896I-20J0D01*
G01*
Y6305D02*
G03*
X7179Y6305I-20J0D01*
G01*
X8321Y7562D02*
G03*
X8321Y7562I-20J0D01*
G01*
X8221D02*
G03*
X8221Y7562I-20J0D01*
G01*
X8121D02*
G03*
X8121Y7562I-20J0D01*
G01*
X8021D02*
G03*
X8021Y7562I-20J0D01*
G01*
X7921D02*
G03*
X7921Y7562I-20J0D01*
G01*
X7821D02*
G03*
X7821Y7562I-20J0D01*
G01*
X7721D02*
G03*
X7721Y7562I-20J0D01*
G01*
X7621D02*
G03*
X7621Y7562I-20J0D01*
G01*
X7521D02*
G03*
X7521Y7562I-20J0D01*
G01*
X7421D02*
G03*
X7421Y7562I-20J0D01*
G01*
X7321D02*
G03*
X7321Y7562I-20J0D01*
G01*
X7221D02*
G03*
X7221Y7562I-20J0D01*
G01*
X7121D02*
G03*
X7121Y7562I-20J0D01*
G01*
X7577Y1955D02*
G03*
X7577Y1955I-20J0D01*
G01*
Y1207D02*
G03*
X7577Y1207I-20J0D01*
G01*
X7183Y1876D02*
G03*
X7183Y1876I-20J0D01*
G01*
Y1285D02*
G03*
X7183Y1285I-20J0D01*
G01*
X8258Y6337D02*
G03*
X8258Y6337I-20J0D01*
G01*
Y5589D02*
G03*
X8258Y5589I-20J0D01*
G01*
X7864Y6258D02*
G03*
X7864Y6258I-20J0D01*
G01*
Y5667D02*
G03*
X7864Y5667I-20J0D01*
G01*
X8258Y5081D02*
G03*
X8258Y5081I-20J0D01*
G01*
Y4333D02*
G03*
X8258Y4333I-20J0D01*
G01*
X7864Y5002D02*
G03*
X7864Y5002I-20J0D01*
G01*
Y4411D02*
G03*
X7864Y4411I-20J0D01*
G01*
X7577Y4463D02*
G03*
X7577Y4463I-20J0D01*
G01*
Y3715D02*
G03*
X7577Y3715I-20J0D01*
G01*
X7183Y4384D02*
G03*
X7183Y4384I-20J0D01*
G01*
Y3793D02*
G03*
X7183Y3793I-20J0D01*
G01*
X8258Y3825D02*
G03*
X8258Y3825I-20J0D01*
G01*
Y3077D02*
G03*
X8258Y3077I-20J0D01*
G01*
X7864Y3746D02*
G03*
X7864Y3746I-20J0D01*
G01*
Y3156D02*
G03*
X7864Y3156I-20J0D01*
G01*
X8261Y1330D02*
G03*
X8261Y1330I-20J0D01*
G01*
Y582D02*
G03*
X8261Y582I-20J0D01*
G01*
X7867Y1251D02*
G03*
X7867Y1251I-20J0D01*
G01*
Y661D02*
G03*
X7867Y661I-20J0D01*
G01*
X7569Y3207D02*
G03*
X7569Y3207I-20J0D01*
G01*
Y2459D02*
G03*
X7569Y2459I-20J0D01*
G01*
X7176Y3128D02*
G03*
X7176Y3128I-20J0D01*
G01*
Y2537D02*
G03*
X7176Y2537I-20J0D01*
G01*
X7573Y5719D02*
G03*
X7573Y5719I-20J0D01*
G01*
Y4970D02*
G03*
X7573Y4970I-20J0D01*
G01*
X7179Y5640D02*
G03*
X7179Y5640I-20J0D01*
G01*
Y5049D02*
G03*
X7179Y5049I-20J0D01*
G01*
X8262Y2577D02*
G03*
X8262Y2577I-20J0D01*
G01*
Y1829D02*
G03*
X8262Y1829I-20J0D01*
G01*
X7868Y2498D02*
G03*
X7868Y2498I-20J0D01*
G01*
Y1907D02*
G03*
X7868Y1907I-20J0D01*
G01*
M02*
