M48
;Layer_Color=9474304
;FILE_FORMAT=2:3
INCH,LZ
;TYPE=PLATED
T1F00S00C0.028
T2F00S00C0.047
T3F00S00C0.157
%
T01
X07793Y06488
X07799Y06616
X07682Y07271
X08001Y07318
X08293Y0658
T02
X07163Y01285
X07557Y01207
X07847Y01251
X08241Y0133
Y00582
X07847Y00661
X07848Y01907
X08242Y01829
Y02577
X07848Y02498
X08238Y03077
X07549Y02459
X07156Y02537
X07163Y01876
X07557Y01955
X07549Y03207
X07156Y03128
X07163Y03793
X07557Y03715
Y04463
X07163Y04384
X07844Y04411
X08238Y04333
Y03825
X07844Y03746
Y03156
Y05002
X08238Y05081
X08238Y05589
X07844Y05667
X07553Y05719
X07159Y0564
Y05049
X07553Y0497
Y06226
X07159Y06305
Y06896
X07553Y06974
X07601Y07562
X07701
X07801
X07501
X07401
X07301
X07201
X07101
X07901
X08001
X08101
X08201
X08301
X08238Y06337
X07844Y06258
T03
X07022Y00575
X0838
X08158Y01575
X08114Y02811
X07272Y02197
X07236Y03457
X08142Y04079
X0815Y05358
X07598Y05969
X07606Y04728
X07112Y07169
X08282Y07158
M30
