%FSLAX23Y23*%
%MOIN*%
G70*
G01*
G75*
G04 Layer_Physical_Order=1*
G04 Layer_Color=255*
%ADD10C,0.028*%
%ADD11C,0.157*%
%ADD12C,0.067*%
%ADD13R,0.071X0.071*%
%ADD14C,0.071*%
%ADD15C,0.050*%
D10*
X7431Y7366D02*
X7501Y7436D01*
X7431Y1380D02*
Y7366D01*
X7071Y2972D02*
X7156Y3057D01*
X7071Y1955D02*
Y2972D01*
Y1955D02*
X7154Y1871D01*
X8331Y3350D02*
Y6542D01*
X8136Y3156D02*
X8331Y3350D01*
X7844Y3156D02*
X8136D01*
X8293Y6580D02*
X8331Y6542D01*
X7362Y2720D02*
Y7450D01*
X7179Y2537D02*
X7362Y2720D01*
X7156Y2537D02*
X7179D01*
X7156Y3057D02*
Y3128D01*
X7076Y3331D02*
X7156Y3251D01*
Y3128D02*
Y3251D01*
X7752Y4515D02*
X7843Y4606D01*
X7752Y4021D02*
Y4515D01*
Y4021D02*
X7838Y3935D01*
X7273Y3793D02*
X7301Y3821D01*
X7163Y3793D02*
X7273D01*
X7964Y4488D02*
Y5242D01*
X7887Y4411D02*
X7964Y4488D01*
X7844Y4411D02*
X7887D01*
X7480Y7286D02*
X7701Y7507D01*
X7480Y3061D02*
Y7286D01*
Y3061D02*
X7960Y2581D01*
X7362Y7450D02*
X7401Y7489D01*
X7250Y5094D02*
Y7221D01*
X7205Y5049D02*
X7250Y5094D01*
X7159Y5049D02*
X7205D01*
X8001Y5760D02*
Y7318D01*
X7908Y5667D02*
X8001Y5760D01*
X7844Y5667D02*
X7908D01*
X7921Y5894D02*
Y7542D01*
X7750Y5722D02*
X7921Y5894D01*
X7750Y5456D02*
Y5722D01*
X7836Y5950D02*
Y6249D01*
X7680Y5794D02*
X7836Y5950D01*
X7680Y5331D02*
Y5794D01*
X7901Y7562D02*
X7921Y7542D01*
X7836Y6249D02*
X7844Y6258D01*
X7087Y6390D02*
X7171Y6474D01*
X7087Y5868D02*
Y6390D01*
Y5868D02*
X7165Y5789D01*
X7159Y6896D02*
X7171Y6884D01*
Y6474D02*
Y6884D01*
X7682Y6600D02*
Y7271D01*
Y6600D02*
X7793Y6488D01*
X7071Y5126D02*
X7165Y5220D01*
X7071Y4649D02*
Y5126D01*
Y4649D02*
X7171Y4549D01*
X7680Y5331D02*
X7843Y5168D01*
X7799Y6616D02*
X7801Y6618D01*
Y7562D01*
X7201Y7270D02*
X7250Y7221D01*
X7850Y1249D02*
Y1476D01*
X7843Y4606D02*
Y5168D01*
X7838Y3752D02*
Y3935D01*
X7165Y5220D02*
Y5789D01*
X7171Y4004D02*
Y4549D01*
X7701Y7507D02*
Y7562D01*
X7301Y3821D02*
Y7562D01*
X7201Y7270D02*
Y7562D01*
X7076Y3909D02*
X7171Y4004D01*
X7076Y3331D02*
Y3909D01*
X7154Y1871D02*
X7163D01*
Y1281D02*
X7332D01*
X7431Y1380D01*
X7846Y2137D02*
Y2476D01*
Y1886D02*
X7960Y1999D01*
Y2581D01*
X7750Y5456D02*
X7964Y5242D01*
X7741Y1585D02*
X7850Y1476D01*
X7741Y1585D02*
Y2031D01*
X7846Y2137D01*
X7501Y7436D02*
Y7562D01*
X7401Y7489D02*
Y7562D01*
D11*
X7022Y575D02*
D03*
X8380D02*
D03*
X7272Y2197D02*
D03*
X8158Y1575D02*
D03*
X8114Y2811D02*
D03*
X7236Y3457D02*
D03*
X8142Y4079D02*
D03*
X7606Y4728D02*
D03*
X8150Y5358D02*
D03*
X7598Y5969D02*
D03*
X8282Y7158D02*
D03*
X7112Y7169D02*
D03*
D12*
X7553Y6974D02*
D03*
Y6226D02*
D03*
X7159Y6896D02*
D03*
Y6305D02*
D03*
X7557Y1955D02*
D03*
Y1207D02*
D03*
X7163Y1876D02*
D03*
Y1285D02*
D03*
X8238Y6337D02*
D03*
Y5589D02*
D03*
X7844Y6258D02*
D03*
Y5667D02*
D03*
X8238Y5081D02*
D03*
Y4333D02*
D03*
X7844Y5002D02*
D03*
Y4411D02*
D03*
X7557Y4463D02*
D03*
Y3715D02*
D03*
X7163Y4384D02*
D03*
Y3793D02*
D03*
X8238Y3825D02*
D03*
Y3077D02*
D03*
X7844Y3746D02*
D03*
Y3156D02*
D03*
X8241Y1330D02*
D03*
Y582D02*
D03*
X7847Y1251D02*
D03*
Y661D02*
D03*
X7549Y3207D02*
D03*
Y2459D02*
D03*
X7156Y3128D02*
D03*
Y2537D02*
D03*
X7553Y5719D02*
D03*
Y4970D02*
D03*
X7159Y5640D02*
D03*
Y5049D02*
D03*
X8242Y2577D02*
D03*
Y1829D02*
D03*
X7848Y2498D02*
D03*
Y1907D02*
D03*
D13*
X8301Y7562D02*
D03*
X7101D02*
D03*
D14*
X8201D02*
D03*
X8101D02*
D03*
X8001D02*
D03*
X7901D02*
D03*
X7801D02*
D03*
X7701D02*
D03*
X7601D02*
D03*
X7501D02*
D03*
X7401D02*
D03*
X7301D02*
D03*
X7201D02*
D03*
D15*
X7682Y7271D02*
D03*
X7793Y6488D02*
D03*
X8293Y6580D02*
D03*
X7799Y6616D02*
D03*
X8001Y7318D02*
D03*
M02*
