%FSLAX23Y23*%
%MOIN*%
G70*
G01*
G75*
G04 Layer_Color=8388736*
%ADD10C,0.028*%
%ADD11R,0.071X0.071*%
%ADD12C,0.071*%
%ADD13C,0.157*%
%ADD14C,0.067*%
%ADD15C,0.050*%
%ADD16C,0.039*%
%ADD17C,0.020*%
%ADD18C,0.010*%
%ADD19C,0.008*%
%ADD20R,0.079X0.079*%
%ADD21C,0.079*%
%ADD22C,0.165*%
%ADD23C,0.075*%
%ADD24C,0.058*%
D19*
X6150Y616D02*
X6152Y613D01*
D20*
X8301Y7562D02*
D03*
X7101D02*
D03*
D21*
X8201D02*
D03*
X8101D02*
D03*
X8001D02*
D03*
X7901D02*
D03*
X7801D02*
D03*
X7701D02*
D03*
X7601D02*
D03*
X7501D02*
D03*
X7401D02*
D03*
X7301D02*
D03*
X7201D02*
D03*
D22*
X7022Y575D02*
D03*
X8380D02*
D03*
X7272Y2197D02*
D03*
X8158Y1575D02*
D03*
X8114Y2811D02*
D03*
X7236Y3457D02*
D03*
X8142Y4079D02*
D03*
X7606Y4728D02*
D03*
X8150Y5358D02*
D03*
X7598Y5969D02*
D03*
X8282Y7158D02*
D03*
X7112Y7169D02*
D03*
D23*
X7553Y6974D02*
D03*
Y6226D02*
D03*
X7159Y6896D02*
D03*
Y6305D02*
D03*
X7557Y1955D02*
D03*
Y1207D02*
D03*
X7163Y1876D02*
D03*
Y1285D02*
D03*
X8238Y6337D02*
D03*
Y5589D02*
D03*
X7844Y6258D02*
D03*
Y5667D02*
D03*
X8238Y5081D02*
D03*
Y4333D02*
D03*
X7844Y5002D02*
D03*
Y4411D02*
D03*
X7557Y4463D02*
D03*
Y3715D02*
D03*
X7163Y4384D02*
D03*
Y3793D02*
D03*
X8238Y3825D02*
D03*
Y3077D02*
D03*
X7844Y3746D02*
D03*
Y3156D02*
D03*
X8241Y1330D02*
D03*
Y582D02*
D03*
X7847Y1251D02*
D03*
Y661D02*
D03*
X7549Y3207D02*
D03*
Y2459D02*
D03*
X7156Y3128D02*
D03*
Y2537D02*
D03*
X7553Y5719D02*
D03*
Y4970D02*
D03*
X7159Y5640D02*
D03*
Y5049D02*
D03*
X8242Y2577D02*
D03*
Y1829D02*
D03*
X7848Y2498D02*
D03*
Y1907D02*
D03*
D24*
X7682Y7271D02*
D03*
X7793Y6488D02*
D03*
X8293Y6580D02*
D03*
X7799Y6616D02*
D03*
X8001Y7318D02*
D03*
M02*
